<svg xmlns="http://www.w3.org/2000/svg" viewBox="0 0 114.07 114.27"><defs><style>.cls-1{fill:#c1b49a;}</style></defs><title>Asset 15</title><g id="Layer_2" data-name="Layer 2"><g id="illustrations"><path class="cls-1" d="M85.49,19.21c-2.86-3.66-2.23-7.11-.12-10.32C88,4.94,92,3.47,96.56,3.85A14.91,14.91,0,0,1,107,9.75a7.1,7.1,0,0,0,1.9,1.18,11.5,11.5,0,0,0,.52-2.18c.08-2.25-.08-4.53.16-6.76.08-.76,1.22-2.07,1.62-2,1,.22,2.32,1,2.57,1.76a17.16,17.16,0,0,1,.31,4.88q0,50.49,0,101c0,1.23-.08,2.46-.07,3.69,0,2.07-1,3-3,2.88-1.23,0-2.46,0-3.69,0H6.29A16,16,0,0,1,2,114.05c-.86-.25-2.06-1.47-2-2.18a3.12,3.12,0,0,1,2-2.24c2.75-.28,5.54-.11,9-.11-8.06-8.58-9.53-16.06-4.82-21.71,3.41-4.09,7.86-4.67,13.37-1.39-.79.14-1.27.39-1.55.25-3.8-1.94-7.28-1.32-10,1.76a10.07,10.07,0,0,0-2.1,10.84c2.37,6.4,8.33,10,15.57,9.32a23.85,23.85,0,0,0,16.7-9.34c2.8-3.51,5-7.45,7.56-11.19,4.62-6.88,11-10.19,19.35-9.62a13.52,13.52,0,0,1,9.67,4.72c.8.94.88,2.5,1.29,3.77a15.61,15.61,0,0,1-3.43-.12c-1.57-.4-3-1.21-4.6-1.69-9-2.75-15.35-.7-21.16,6.74-2.39,3.08-4.6,6.33-7.27,9.14s-5.77,5.11-9.54,8.39c8.88,0,17.08,0,25.27-.09.31,0,1-1.36.83-1.88-.67-2.11-2-4.08-2.36-6.22a10.77,10.77,0,0,1,6.41-11.48c4-1.77,9.12-.73,11.72,2.66a13.3,13.3,0,0,1,1.93,4.4c.2.68-.26,1.56-.42,2.34a8.49,8.49,0,0,1-2.15-.71c-.84-.57-1.43-1.49-2.26-2.08-3.57-2.54-7.65-2-9.64,1.3-1.86,3.07-.6,7.54,2.72,9.64,5.08,3.2,12.39,1.82,16.56-3.4,4.55-5.7,4.65-12,1.92-18.54S72.89,75.23,66,74.77c-10-.65-17.28,4.11-22.8,12-2.28,3.27-4.34,6.69-6.91,9.69C41.5,85.26,47.49,74.65,61.61,73a26,26,0,0,1,9.08.67c3.1.78,3.29.39,2.59-2.66C70.69,59.7,74.45,50.52,83.64,43.5a2.52,2.52,0,0,1,2.43-.27c-1.53,1.47-3.14,2.85-4.57,4.41C75.76,53.87,72.8,61,75,69.55c2.85,11.07,17.08,16.78,26.77,10.73,5-3.11,7.46-7.77,6.45-13.56a12.87,12.87,0,0,0-3.89-6.58c-2.31-2.15-5.31-2-7.83.22s-2.47,5-1.29,7.88c.37.91,1.35,1.55,1.86,2.42a31.26,31.26,0,0,1,1.48,3.28c-1.35,0-2.83.3-4-.15A9.79,9.79,0,0,1,88.9,61.61c1.52-5,7.45-8.63,12.6-7.56a12.23,12.23,0,0,1,2.31.82c1.63.71,3.25,1.47,4.87,2.2a52.2,52.2,0,0,0,.7-5.82c.09-6.9,0-13.8-.45-21-4.84,8-12.33,13-19.36,18.52-5.77,4.53-7,10.84-5.37,17.77.51,2.18,1.57,4.23,2.12,6.4a16.81,16.81,0,0,1,.12,3.83c-1.28-.53-2.84-.76-3.77-1.65a15.4,15.4,0,0,1-4.66-14A21.06,21.06,0,0,1,88.18,45.77a126.76,126.76,0,0,0,11.13-7.65c4.45-3.55,7.68-8.23,8.44-13.89a23.58,23.58,0,0,0-1.06-10.75A12.27,12.27,0,0,0,92.18,6C86.82,7.43,84.6,11.68,85.49,19.21ZM81.64,82c3.68,9.71,3.92,18-3,25.42-1.53,1.63-.08,2,1.25,2,8.79,0,17.57,0,26.36,0,2.37,0,3.19-1.13,3.18-3.39-.06-8.58,0-17.16,0-25.74a10.94,10.94,0,0,0-.47-2.23,20.68,20.68,0,0,0-2,1c-2.6,1.54-5,3.55-7.79,4.61C93.51,85.78,87.93,84.59,81.64,82Z"/><path class="cls-1" d="M97.07,25.89c-6.23,4.21-13,5-20.08,4.18a6.23,6.23,0,0,1-3.42-1.19c-.92-.84-2.07-2.79-1.71-3.37.72-1.14,2.35-1.84,3.73-2.36.59-.23,1.52.42,2.28.71C84.08,26.19,90.36,27.78,97.07,25.89Z"/><path class="cls-1" d="M26.94,95.64C25.65,89.47,24.18,83.27,23.13,77c-.24-1.43.52-3.93,1.58-4.5,2.31-1.24,4,.65,4.41,2.8C30.36,82.4,30.25,89.4,26.94,95.64Z"/><path class="cls-1" d="M30.35,96.42c.76-5.24,1.54-10.16,2.15-15.11.31-2.51,1.09-4.61,4-4s2.8,2.8,2.09,5.25A30.29,30.29,0,0,1,30.35,96.42Z"/><path class="cls-1" d="M95.92,30.87A29.53,29.53,0,0,1,82.08,39c-2.32.61-4.87.74-5.3-2.26-.41-2.79,1.65-3.62,4.28-3.87C85.83,32.43,90.57,31.61,95.92,30.87Z"/></g></g></svg>