<?xml version="1.0" encoding="utf-8"?>
<!-- Generator: Adobe Illustrator 22.0.1, SVG Export Plug-In . SVG Version: 6.00 Build 0)  -->
<svg version="1.1" id="Layer_1" xmlns="http://www.w3.org/2000/svg" xmlns:xlink="http://www.w3.org/1999/xlink" x="0px" y="0px"
	 viewBox="0 0 636.9 16.5" style="enable-background:new 0 0 636.9 16.5;" xml:space="preserve">
<style type="text/css">
	.st0{fill:none;stroke:#C1B49A;stroke-width:0.5;stroke-miterlimit:10;}
	.st1{fill:#C1B49A;}
</style>
<title>Asset 2</title>
<g id="Layer_2_1_">
	<g id="Frames_edge">
		<line class="st0" x1="22.8" y1="11.2" x2="610.3" y2="11.2"/>
		<path class="st1" d="M621.8,9.8c3.5-3,7-6.1,10.7-9c0.8-0.7,2.7-1.1,3.5-0.6c1.6,1.1,1,2.8-0.2,3.8C631.6,7.3,627,9.7,621.8,9.8z"
			/>
		<path class="st1" d="M622.1,11.5c3.9,0.1,7.5,0.2,11.2,0.3c1.9,0,3.5,0.4,3.3,2.6c-0.2,2.2-1.8,2.3-3.7,2
			C628.9,15.7,625.2,14.1,622.1,11.5z"/>
		<circle class="st1" cx="617.1" cy="10.5" r="2.5"/>
		<circle class="st1" cx="2.5" cy="10.5" r="2.5"/>
	</g>
</g>
</svg>
