<?xml version="1.0" encoding="utf-8"?>
<!-- Generator: Adobe Illustrator 22.0.1, SVG Export Plug-In . SVG Version: 6.00 Build 0)  -->
<svg version="1.1" id="Layer_1" xmlns="http://www.w3.org/2000/svg" xmlns:xlink="http://www.w3.org/1999/xlink" x="0px" y="0px"
	 viewBox="0 0 636.9 16.5" style="enable-background:new 0 0 636.9 16.5;" xml:space="preserve">
<style type="text/css">
	.st0{fill:none;stroke:#C1B49A;stroke-width:0.5;stroke-miterlimit:10;}
	.st1{fill:#C1B49A;}
</style>
<title>Asset 2</title>
<g id="Layer_2_1_">
	<g id="Frames_edge">
		<line class="st0" x1="26.6" y1="11.2" x2="614.1" y2="11.2"/>
		<path class="st1" d="M1.2,4.1C0,3.1-0.6,1.3,1,0.2c0.7-0.5,2.6-0.1,3.5,0.6c3.7,2.9,7.1,6,10.7,9C9.9,9.7,5.4,7.3,1.2,4.1z"/>
		<path class="st1" d="M4,16.4c-1.9,0.3-3.5,0.2-3.7-2s1.4-2.6,3.3-2.6c3.6,0,7.3-0.2,11.2-0.3C11.7,14.1,8,15.7,4,16.4z"/>
		<circle class="st1" cx="19.8" cy="10.5" r="2.5"/>
		
			<ellipse transform="matrix(1 -3.105530e-03 3.105530e-03 1 -2.949082e-02 1.9702)" class="st1" cx="634.4" cy="10.5" rx="2.5" ry="2.5"/>
	</g>
</g>
</svg>
