<svg xmlns="http://www.w3.org/2000/svg" viewBox="0 0 114.07 114.27"><defs><style>.cls-1{fill:#c1b49a;}</style></defs><title>Asset 14</title><g id="Layer_2" data-name="Layer 2"><g id="illustrations"><path class="cls-1" d="M21.9,6A12.26,12.26,0,0,0,7.39,13.48,23.31,23.31,0,0,0,6.33,24.23c.75,5.66,4,10.34,8.44,13.89A123.84,123.84,0,0,0,25.9,45.77,21.08,21.08,0,0,1,36.06,61.15a15.4,15.4,0,0,1-4.65,14c-.93.89-2.5,1.12-3.77,1.65A17.41,17.41,0,0,1,27.75,73c.56-2.17,1.61-4.22,2.13-6.4,1.64-6.93.4-13.24-5.37-17.77C17.47,43.29,10,38.32,5.14,30.28c-.48,7.17-.54,14.07-.45,21a50,50,0,0,0,.71,5.82c1.62-.73,3.23-1.49,4.86-2.2a12.23,12.23,0,0,1,2.31-.82,11.44,11.44,0,0,1,12.6,7.56,9.79,9.79,0,0,1-5.63,12.18c-1.19.45-2.67.12-4,.15A33.47,33.47,0,0,1,17,70.66c.51-.87,1.49-1.51,1.87-2.42,1.17-2.84,1.25-5.64-1.3-7.88S12.05,58,9.74,60.14a12.92,12.92,0,0,0-3.88,6.58c-1,5.79,1.46,10.45,6.44,13.56,9.69,6,23.92.34,26.77-10.73,2.2-8.56-.76-15.68-6.49-21.91-1.43-1.56-3-2.94-4.58-4.41a2.51,2.51,0,0,1,2.43.27c9.2,7,13,16.2,10.36,27.55-.69,3-.51,3.44,2.6,2.66A25.93,25.93,0,0,1,52.46,73c14.12,1.61,20.11,12.22,25.37,23.43-2.56-3-4.62-6.42-6.91-9.69-5.52-7.9-12.84-12.66-22.8-12-6.93.46-11.87,4.08-14.59,10.56s-2.63,12.84,1.93,18.54c4.16,5.22,11.47,6.6,16.55,3.4,3.33-2.1,4.59-6.57,2.72-9.64-2-3.26-6.06-3.84-9.64-1.3-.82.59-1.42,1.51-2.26,2.08a8.54,8.54,0,0,1-2.14.71c-.16-.78-.63-1.66-.43-2.34a13.5,13.5,0,0,1,1.93-4.4C44.8,89,49.89,88,53.91,89.72a10.76,10.76,0,0,1,6.41,11.48c-.38,2.14-1.69,4.11-2.36,6.22-.16.52.52,1.88.83,1.88,8.2.11,16.39.09,25.28.09-3.78-3.28-6.91-5.6-9.55-8.39s-4.87-6.06-7.27-9.14c-5.8-7.44-12.16-9.49-21.16-6.74-1.56.48-3,1.29-4.6,1.69a15.54,15.54,0,0,1-3.42.12c.41-1.27.48-2.83,1.29-3.77A13.48,13.48,0,0,1,49,78.44c8.34-.57,14.73,2.74,19.35,9.62,2.51,3.74,4.77,7.68,7.57,11.19a23.83,23.83,0,0,0,16.7,9.34c7.23.73,13.19-2.92,15.57-9.32a10.07,10.07,0,0,0-2.11-10.84c-2.74-3.08-6.22-3.7-10-1.76-.28.14-.75-.11-1.55-.25,5.51-3.28,10-2.7,13.37,1.39,4.72,5.65,3.24,13.13-4.82,21.71,3.42,0,6.21-.17,9,.11a3.1,3.1,0,0,1,2,2.24c.05.71-1.14,1.93-2,2.18a16,16,0,0,1-4.28.14H6.81c-1.24,0-2.47-.06-3.7,0-2,.09-3-.81-3-2.88,0-1.23-.06-2.46-.06-3.69q0-50.49,0-101A16.81,16.81,0,0,1,.34,1.76C.58,1,1.93.22,2.9,0c.41-.08,1.54,1.23,1.63,2,.24,2.23.07,4.51.16,6.76a10.75,10.75,0,0,0,.51,2.18A7.1,7.1,0,0,0,7.1,9.75a14.93,14.93,0,0,1,10.41-5.9c4.56-.38,8.6,1.09,11.19,5,2.11,3.21,2.74,6.66-.11,10.32C29.47,11.68,27.25,7.43,21.9,6ZM15,83.65C12.18,82.59,9.77,80.58,7.17,79a19.64,19.64,0,0,0-2-1,10.94,10.94,0,0,0-.47,2.23c0,8.58,0,17.16,0,25.74,0,2.26.8,3.4,3.18,3.39,8.78,0,17.57,0,26.35,0,1.34,0,2.78-.36,1.26-2-6.93-7.39-6.68-15.71-3-25.42C26.15,84.59,20.56,85.78,15,83.65Z"/><path class="cls-1" d="M17,25.89c6.23,4.21,13,5,20.08,4.18a6.23,6.23,0,0,0,3.42-1.19c.92-.84,2.08-2.79,1.71-3.37-.71-1.14-2.34-1.84-3.73-2.36-.59-.23-1.52.42-2.28.71C30,26.19,23.72,27.78,17,25.89Z"/><path class="cls-1" d="M87.13,95.64c1.3-6.17,2.76-12.37,3.81-18.64.24-1.43-.51-3.93-1.58-4.5-2.31-1.24-4,.65-4.41,2.8C83.71,82.4,83.82,89.4,87.13,95.64Z"/><path class="cls-1" d="M83.72,96.42c-.75-5.24-1.53-10.16-2.15-15.11-.31-2.51-1.08-4.61-4-4s-2.8,2.8-2.09,5.25A30.19,30.19,0,0,0,83.72,96.42Z"/><path class="cls-1" d="M18.16,30.87A29.48,29.48,0,0,0,32,39c2.32.61,4.86.74,5.3-2.26.4-2.79-1.66-3.62-4.28-3.87C28.24,32.43,23.5,31.61,18.16,30.87Z"/></g></g></svg>