<?xml version="1.0" encoding="utf-8"?>
<!-- Generator: Adobe Illustrator 22.0.1, SVG Export Plug-In . SVG Version: 6.00 Build 0)  -->
<svg version="1.1" id="Layer_1" xmlns="http://www.w3.org/2000/svg" xmlns:xlink="http://www.w3.org/1999/xlink" x="0px" y="0px"
	 viewBox="0 0 18.2 246.3" style="enable-background:new 0 0 18.2 246.3;" xml:space="preserve">
<style type="text/css">
	.st0{fill:none;stroke:#C1B49A;stroke-width:0.5;stroke-miterlimit:10;}
	.st1{fill:#C1B49A;}
</style>
<title>Asset 1</title>
<g id="Layer_2_1_">
	<g id="Layer_1-2">
		<line class="st0" x1="12.3" y1="218.9" x2="12.3" y2="10.8"/>
		<path class="st1" d="M4.5,245.1c-1.1,1.2-3.1,1.9-4.2,0.2c-0.5-0.8-0.1-2.7,0.6-3.6c3.2-3.8,6.6-7.4,9.9-11
			C10.7,236.1,8.1,240.8,4.5,245.1z"/>
		<path class="st1" d="M18.1,242.3c0.3,1.9,0.2,3.6-2.2,3.8s-2.9-1.5-2.9-3.4c0-3.8-0.2-7.5-0.3-11.5
			C15.5,234.3,17.4,238.1,18.1,242.3z"/>
		<ellipse class="st1" cx="11.6" cy="226" rx="2.8" ry="2.6"/>
		<ellipse class="st1" cx="11.6" cy="2.6" rx="2.8" ry="2.6"/>
	</g>
</g>
</svg>
