<?xml version="1.0" encoding="utf-8"?>
<!-- Generator: Adobe Illustrator 22.0.1, SVG Export Plug-In . SVG Version: 6.00 Build 0)  -->
<svg version="1.1" id="Layer_1" xmlns="http://www.w3.org/2000/svg" xmlns:xlink="http://www.w3.org/1999/xlink" x="0px" y="0px"
	 viewBox="0 0 18.2 246.3" style="enable-background:new 0 0 18.2 246.3;" xml:space="preserve">
<style type="text/css">
	.st0{fill:none;stroke:#C1B49A;stroke-width:0.5;stroke-miterlimit:10;}
	.st1{fill:#C1B49A;}
</style>
<title>Asset 1</title>
<g id="Layer_2_1_">
	<g id="Layer_1-2">
		<line class="st0" x1="5.9" y1="27.4" x2="5.9" y2="235.5"/>
		<path class="st1" d="M13.7,1.2C14.8,0,16.8-0.7,18,1c0.5,0.8,0.1,2.7-0.6,3.6c-3.2,3.8-6.6,7.4-9.9,11C7.5,10.2,10.1,5.5,13.7,1.2
			z"/>
		<path class="st1" d="M0.2,4.1c-0.3-1.9-0.2-3.6,2.2-3.7s2.9,1.5,2.9,3.4c0,3.8,0.2,7.5,0.3,11.5C2.7,12.1,0.8,8.2,0.2,4.1z"/>
		<ellipse class="st1" cx="6.6" cy="20.4" rx="2.8" ry="2.6"/>
		<ellipse class="st1" cx="6.6" cy="243.8" rx="2.8" ry="2.6"/>
	</g>
</g>
</svg>
