<svg xmlns="http://www.w3.org/2000/svg" viewBox="0 0 18.2 246.33"><defs><style>.cls-1,.cls-2{fill:#c1b49a;}.cls-1{stroke:#c1b49a;stroke-miterlimit:10;stroke-width:0.5px;}</style></defs><title>Asset 1</title><g id="Layer_2" data-name="Layer 2"><g id="Layer_1-2" data-name="Layer 1"><line class="cls-1" x1="5.86" y1="10.83" x2="5.86" y2="218.95"/><path class="cls-2" d="M7.39,230.82c3.31,3.61,6.76,7.19,9.94,11,.73.87,1.16,2.79.63,3.55-1.17,1.66-3.12,1-4.23-.25C10.1,240.82,7.46,236.15,7.39,230.82Z"/><path class="cls-2" d="M5.48,231.13c-.11,4-.27,7.75-.29,11.51,0,1.91-.43,3.55-2.86,3.37s-2.52-1.85-2.18-3.75A22,22,0,0,1,5.48,231.13Z"/><ellipse class="cls-2" cx="6.63" cy="225.96" rx="2.77" ry="2.58"/><ellipse class="cls-2" cx="6.63" cy="2.58" rx="2.77" ry="2.58"/></g></g></svg>