<svg xmlns="http://www.w3.org/2000/svg" viewBox="0 0 263.7 263.7"><defs><style>.cls-1{fill:#998675;opacity:0.44;}</style></defs><title>Asset 1</title><g id="Layer_2" data-name="Layer 2"><g id="Burst_example" data-name="Burst example"><path class="cls-1" d="M201.14,228.85c0,.2,0,.45.06.59q3,4.23,5.94,8.42c.69,1,1.51,1.2,2.25.67s.74-1.34.11-2.29c-1.14-1.7-2.28-3.41-3.49-5.07-1-1.37-2.08-2.67-3.12-4a2.48,2.48,0,0,0-.2-.5q-3.84-5.17-7.7-10.34a1.32,1.32,0,0,0-2-.41,1.4,1.4,0,0,0-.21,2.15q3.84,5.19,7.71,10.33C200.61,228.61,200.91,228.7,201.14,228.85Zm32.45-76.51c3.07.67,6.14,1.42,9.24,2a1.24,1.24,0,0,0,1-1.93,2.64,2.64,0,0,0-1.45-.9c-3.73-.77-7.47-1.47-11.21-2.18a1.38,1.38,0,0,0-.56.15,3.88,3.88,0,0,0-.8-.38c-3.7-.72-7.4-1.43-11.11-2.1-1.11-.2-1.83.29-2,1.16s.45,1.46,1.58,1.67q7.2,1.36,14.42,2.68A2.36,2.36,0,0,0,233.59,152.34Zm-102.87,65a2.71,2.71,0,0,0-.24.73q0,7,0,13.92a1.28,1.28,0,0,0,1.57,1.31,1.26,1.26,0,0,0,1.18-1.38c0-5,0-10,0-14.92a5.14,5.14,0,0,0-.45-1.48,3.72,3.72,0,0,0,.45-1.18c0-2.84,0-5.68,0-8.52a1.23,1.23,0,0,0-1.25-1.3c-.94-.1-1.51.49-1.51,1.62q0,5.2,0,10.41A2.65,2.65,0,0,0,130.72,217.38ZM61.28,227c-.12.07-.29.11-.37.21-2.28,3.1-4.56,6.19-6.81,9.31a1.41,1.41,0,1,0,2.31,1.61c2.13-2.88,4.27-5.76,6.38-8.65a2.3,2.3,0,0,0,.21-.82,5.39,5.39,0,0,0,1-.79q2.16-2.87,4.27-5.78,2.88-3.93,5.74-7.89a1.25,1.25,0,0,0-.23-1.88,1.34,1.34,0,0,0-1.92.1,5.37,5.37,0,0,0-.63.78c-2.81,3.83-5.63,7.65-8.42,11.49C62.24,225.39,61.78,226.19,61.28,227ZM130.75,50c-.1,1.2-.27,2.39-.27,3.59q0,14.77,0,29.57v1.41l2.69-.63c0-.36.08-.66.08-1q0-14.85,0-29.68a5.18,5.18,0,0,0-.25-1.07,9.46,9.46,0,0,0,.07-2.54c-.08-.35-.91-.71-1.43-.74S130.51,49.15,130.75,50Zm-31.08,90.8-3.27,1.06c-6.92,2.2-13.84,4.38-20.74,6.61q-12.66,4.1-25.28,8.26c-3.23,1.07-6.45,2.18-9.66,3.29a1.41,1.41,0,0,0-1.06,1.9,1.37,1.37,0,0,0,1.84.81c.4-.11.79-.24,1.18-.37,5.18-1.74,10.34-3.53,15.53-5.22q19.27-6.24,38.57-12.36c1.67-.52,2.84-1.1,2.71-3A4.5,4.5,0,0,1,99.67,140.75ZM148,77.35a30.88,30.88,0,0,1,2.75-1.48,1.89,1.89,0,0,0,1.1-1.4c1.35-4.31,2.71-8.62,4.13-12.9,2.5-7.53,5.07-15,7.56-22.55,1.71-5.18,3.31-10.39,5-15.58a1.42,1.42,0,0,0-.74-2,1.37,1.37,0,0,0-1.91.87A35.44,35.44,0,0,0,164.47,26c-1.28,4.15-2.4,8.34-3.74,12.47-2.21,6.79-4.53,13.54-6.8,20.31-1.31,3.89-2.65,7.77-3.91,11.67C149.3,72.69,148.71,75,148,77.35ZM97.82,238.49c1,0,1.33-.65,1.59-1.46q3-9.47,6-18.92,4.23-13.19,8.45-26.38c.39-1.2.1-2-.77-2.25s-1.57.19-1.95,1.36c-1.28,3.91-2.57,7.8-3.82,11.71q-4.42,13.89-8.83,27.8c-.63,2-1.31,4-1.91,6C96.25,237.55,96.81,238.49,97.82,238.49Zm3.53-85.64-.47.3c-7.6,5.53-15.18,11.08-22.8,16.57-5.53,4-11.12,7.88-16.67,11.82-.92.66-1.16,1.47-.65,2.17a1.51,1.51,0,0,0,2.27.2c5.5-3.89,11-7.77,16.49-11.69,5.23-3.74,10.44-7.52,15.64-11.29,2.63-1.91,5.23-3.86,7.9-5.83Zm26.2-67.43c0-.45,0-.79,0-1.12q-1-7.51-2-15l-3.36-25.5c-.25-1.88-.46-3.77-.69-5.66-.11-.9-.56-1.48-1.53-1.45s-1.32.69-1.31,1.58c0,.34,0,.67.09,1,.41,3.27.81,6.54,1.23,9.81q1.06,8.34,2.16,16.7c.69,5.27,1.42,10.53,2.14,15.8.22,1.61.44,3.21.69,5ZM29.62,181.5c.62-.27,1-.42,1.37-.6,3.19-1.56,6.36-3.18,9.58-4.68,8.68-4,17.4-8,26.09-12A9.88,9.88,0,0,0,69,162.89a1.89,1.89,0,0,0,.47-1.61,1.28,1.28,0,0,0-1.74-.79,5.05,5.05,0,0,0-.71.33c-4.06,1.92-8.1,3.87-12.17,5.76-7.13,3.31-14.28,6.56-21.41,9.87a39.31,39.31,0,0,0-4.27,2.23,1.86,1.86,0,0,0-.69,1.55C28.57,180.71,29.23,181.09,29.62,181.5ZM111,91.3l1-.85c1.3-1.14,1.3-1.13.56-2.71q-4.08-8.68-8.14-17.37c-2.33-5-4.64-10.05-7-15.07-.24-.52-.66-1-.89-1.49-.45-1-.8-2.07-1.28-3.07a1.35,1.35,0,0,0-.89-.56c-1.28-.22-2,.92-1.43,2.21.46,1,1.16,1.81,1.6,2.78.58,1.28,1,2.66,1.53,3.93q4.84,10.56,9.75,21.09C107.46,83.85,109.19,87.5,111,91.3ZM82.63,94.44c-.48-.37-.8-.62-1.13-.86-4.19-3.08-8.36-6.18-12.57-9.24q-9.62-7-19.26-14a1.51,1.51,0,0,0-2.28.19c-.55.88-.17,1.57.58,2.11.94.67,1.91,1.31,2.84,2L66.32,86c4.1,3,8.2,6,12.31,9a1.6,1.6,0,0,0,1.11.33C80.64,95.13,81.52,94.79,82.63,94.44Zm57.15-10.66.67.19c2.06.59,2.08.59,2.51-1.56.53-2.68,1.06-5.36,1.55-8q2.64-14.44,5.26-28.91a1.36,1.36,0,0,0-1.06-1.8c-.91-.2-1.58.37-1.77,1.41q-2.34,12.8-4.68,25.58C141.46,75,140.62,79.38,139.78,83.78ZM118.7,86.94c-.22-.7-.38-1.27-.56-1.84q-4.71-14.61-9.43-29.23c-.67-2.1-1.36-4.2-2.07-6.28-.36-1.05-1.08-1.46-2-1.19s-1.07,1.06-.76,2.05c.22.71.45,1.43.68,2.14l9.48,29.21c.64,2,1.26,4,1.9,6Zm-9.45,83.88c-.23.35-.38.56-.51.78l-10,17.84q-4.3,7.69-8.63,15.37c-.61,1.09-.22,2.18.87,2.37.91.16,1.33-.49,1.71-1.17q4.59-8.12,9.18-16.23,4.09-7.29,8.12-14.62a2.11,2.11,0,0,0,.14-1.36C110,172.86,109.6,172,109.25,170.82ZM222.92,103.5l.8-.22c4.82-1.5,9.65-3,14.46-4.51,3.81-1.22,7.6-2.5,11.4-3.74,2.16-.7,4.34-1.34,6.5-2,.78-.26,1.51-.68,1.24-1.69a1.53,1.53,0,0,0-2.22-1c-1.27.42-2.54.87-3.82,1.28l-26.94,8.53a5.92,5.92,0,0,0-1.87.72,1.83,1.83,0,0,0-.64,1.46C222,102.77,222.59,103.15,222.92,103.5ZM103.82,41.1c-.18-.71-.26-1.11-.39-1.5q-4-12.2-8.1-24.38c-.84-2.55-1.66-5.11-2.51-7.66-.24-.71-.64-1.33-1.54-1.11a1.44,1.44,0,0,0-.88,2C91.61,12.29,92.81,16.13,94,20c2.07,6.41,4.17,12.8,6.25,19.21a9.34,9.34,0,0,0,.7,2.11,2,2,0,0,0,1.47.87C103,42.08,103.42,41.43,103.82,41.1Zm77.66,193c-.24-.59-.37-.94-.53-1.28q-3.91-8.33-7.82-16.66c-2-4.2-4-8.38-5.95-12.58-.34-.72-.71-1.35-1.61-1.34-1.23,0-1.64,1.23-1,2.67l11.64,24.65c.78,1.66,1.5,3.36,2.4,4.94a1.94,1.94,0,0,0,1.62.74C180.73,235.13,181.11,234.43,181.48,234.05Zm-61.36-49.23c-.3,1.46-.6,2.76-.84,4.07q-2.67,14.61-5.33,29.22c-.2,1.1.23,1.83,1.13,2s1.49-.4,1.69-1.51q2.48-13.5,4.93-27c.35-1.91.73-3.8,1.1-5.74Zm47.71-1.56c.37.55.68,1,1,1.47l9.88,13.79c2.74,3.83,5.46,7.69,8.22,11.51a1.7,1.7,0,0,0,1.13.74,2,2,0,0,0,1.39-.66c.59-.73,0-1.39-.4-2l-15.19-21.3c-1.26-1.76-2.54-3.5-3.85-5.31ZM106.36,94.42c-.28-.47-.41-.69-.55-.9-2.91-4.07-5.8-8.16-8.74-12.21-3.25-4.48-6.55-8.92-9.86-13.37-.75-1-1.54-1.15-2.28-.54s-.73,1.29,0,2.27c1.29,1.74,2.61,3.46,3.91,5.2,2.72,3.65,5.46,7.29,8.13,11,2.15,3,4.19,6,6.3,9,.2.28.68.65.9.58A17.56,17.56,0,0,0,106.36,94.42Zm39.77,86.13c.54,1.7,1,3.16,1.47,4.61q4.36,13.56,8.75,27.12c.4,1.22,1.06,1.64,1.94,1.31s1.14-1.07.77-2.23c-2.78-8.58-5.57-17.15-8.31-25.74a4.62,4.62,0,0,0-2-2.83A24,24,0,0,1,146.13,180.55ZM177,130.46c-.63,2-.09,2.78,1.83,2.78H205c1.83,0,3.67,0,5.51,0a2.19,2.19,0,0,0,1.42-.63,1.32,1.32,0,0,0,.06-1.3,2.38,2.38,0,0,0-1.56-.77c-10.31-.05-20.62,0-30.93,0ZM61,91.74a6.55,6.55,0,0,0-1.19-1.07C56,88.51,52.08,86.4,48.21,84.26,43.46,81.65,38.71,79,34,76.42c-1-.54-1.8-.3-2.19.52-.47,1,.09,1.57.87,2,1.14.64,2.32,1.22,3.46,1.86,4.77,2.66,9.53,5.34,14.3,8q4.19,2.31,8.39,4.55C59.82,93.89,60.94,93.24,61,91.74Zm153.54,31.11v.05c1.3-.14,2.61-.23,3.9-.41,4.44-.63,8.88-1.33,13.32-1.92,3.86-.52,7.73-.94,11.59-1.41,1.26-.15,1.9-.69,1.84-1.54s-.82-1.39-2-1.3c-2,.17-3.95.34-5.92.61-6.11.84-12.22,1.74-18.33,2.59-1.85.26-3.72.42-5.58.62a1.25,1.25,0,0,0-1.19,1.48,1.26,1.26,0,0,0,1.38,1.31A8.42,8.42,0,0,0,214.53,122.85ZM78.46,207.56a19.74,19.74,0,0,0,1.7-1.83q5.81-8,11.57-16c1.57-2.19,3.15-4.38,4.62-6.63a1.88,1.88,0,0,0,0-1.7c-.24-.33-1.08-.38-1.61-.28-.36.06-.68.55-.94.91q-5.44,7.49-10.86,15c-1.9,2.64-3.83,5.27-5.68,8a1.92,1.92,0,0,0-.15,1.54C77.26,206.89,77.85,207.11,78.46,207.56ZM51.88,104.46c-5-1.63-9.85-3.19-14.67-4.78s-9.37-3.1-14-4.65c-.89-.29-1.74-.32-2.2.67s.06,1.62,1.19,2,2,.64,3,1l23.54,7.73a1.16,1.16,0,0,0,.9-.07C50.34,105.8,51,105.18,51.88,104.46Zm124.66,20.39a6.79,6.79,0,0,1,.31,1.53c-.06,1.16.54,1.28,1.47,1.15q6.28-.87,12.58-1.69,7.4-1,14.79-1.88a1.65,1.65,0,0,0,1.51-1.53,1.56,1.56,0,0,0-1.78-1.32c-1.33.14-2.66.31-4,.49L182.94,124ZM64.06,36.5c-1.36,0-2.05,1.14-1.53,2.07a9.89,9.89,0,0,0,.82,1.21C65.66,42.91,68,46,70.29,49.17c2.8,3.9,5.53,7.84,8.3,11.75.82,1.14,1.55,1.36,2.31.78s.77-1.32,0-2.46C79.94,57.81,79,56.37,78,55q-6.42-8.82-12.88-17.6A5.34,5.34,0,0,0,64.06,36.5ZM104,156c-3.58,3.4-7.1,6.75-10.64,10.08-2.15,2-4.33,4-6.51,6-1,.93-2.11,1.8-3.11,2.75a1.37,1.37,0,0,0-.22,2.09,1.43,1.43,0,0,0,2.11,0c.12-.09.24-.18.35-.28,2.69-2.44,5.38-4.86,8-7.32,1.43-1.32,2.78-2.72,4.2-4,2.66-2.51,5.34-5,8.1-7.56Zm-70.54,6.38c-.63.19-1,.3-1.34.42-6.29,2.13-12.57,4.28-18.86,6.39-1.94.65-3.93,1.16-5.88,1.81a1.2,1.2,0,0,0-.91,1.65,1.34,1.34,0,0,0,1.79.88c3.06-.91,6.15-1.74,9.2-2.72,4.3-1.38,8.57-2.86,12.86-4.31a20.07,20.07,0,0,0,3.25-1.21,2,2,0,0,0,1-1.54C34.47,163.24,33.78,162.78,33.42,162.36ZM99.11,94.82c-.31-.34-.56-.65-.84-.94L89,84.13c-3.32-3.51-6.62-7-9.94-10.54a1.52,1.52,0,0,0-2.28-.28,1.49,1.49,0,0,0,.13,2.2q8.63,9.13,17.26,18.24a1.46,1.46,0,0,0,.72.47C96.29,94.45,97.65,94.62,99.11,94.82ZM203,154.36c0-.81-.75-1.14-1.52-1.39l-11.2-3.65c-4.3-1.41-8.6-2.84-12.91-4.23a1.21,1.21,0,0,0-1,0c-1.38,1.33-1.11,2.28.71,2.87l17.81,5.83q3,1,6,1.94A1.47,1.47,0,0,0,203,154.36ZM73.32,67.92a10.35,10.35,0,0,0-.91-1.4q-8.05-8.61-16.12-17.19c-1.11-1.18-1.88-1.4-2.65-.7s-.56,1.45.58,2.67l12,12.88c1.44,1.52,2.87,3.06,4.39,4.49a2,2,0,0,0,1.59.33C72.61,68.92,72.9,68.36,73.32,67.92Zm25.8,77.67-5.53,2.66q-6.53,3.13-13.06,6.24c-1.62.77-3.3,1.41-4.9,2.22a1.4,1.4,0,0,0-.68,2.16c.6.85,1.33.74,2.17.29,1-.54,2.07-1,3.14-1.47,1.34-.57,2.74-1,4-1.64,4.27-2.07,8.51-4.22,12.77-6.32C99.56,148.52,99.57,148.54,99.12,145.59ZM162,74.75a8.33,8.33,0,0,1,1.56.61c.87.58,1.26.26,1.69-.57,2-3.87,4.17-7.71,6.22-11.57,1.72-3.24,3.42-6.5,5-9.79a2.05,2.05,0,0,0-.07-1.73,1.59,1.59,0,0,0-1.44-.4,2,2,0,0,0-1.07,1c-2.76,5.18-5.49,10.39-8.24,15.58C164.54,70.16,163.31,72.39,162,74.75Zm42.14,111.16c.45-.43,1.07-.74,1.13-1.15a2.12,2.12,0,0,0-.49-1.66,30.81,30.81,0,0,0-3-2.2l-16.2-11.72a1.43,1.43,0,1,0-1.69,2.27c.71.54,1.45,1.06,2.18,1.58q8.09,5.88,16.18,11.74C202.85,185.15,203.44,185.46,204.18,185.91Zm27.73-52.67h4.5c2.62,0,5.25,0,7.87-.05a1.78,1.78,0,0,0,1.33-.88,1.83,1.83,0,0,0-.44-1.54,2.32,2.32,0,0,0-1.48-.3H220.3c-.37,0-.87-.09-1.09.1-.4.36-.89.91-.87,1.35s.57.94,1,1.25c.25.18.72.07,1.1.07Zm-1.27,32.19c1,0,1.57-.42,1.66-1.24.11-1-.6-1.42-1.45-1.69l-16.43-5.3c-1.21-.39-2.41-.8-3.62-1.18a1.51,1.51,0,0,0-2.11.89c-.25,1,.26,1.48,1.11,1.78.42.15.84.31,1.26.45L229.2,165C229.73,165.18,230.27,165.32,230.64,165.43Zm-44.49,22.44c-.48.42-1.12.71-1.21,1.12a2.21,2.21,0,0,0,.42,1.69c4.6,5,9.25,10,13.87,15,.78.84,1.66,1,2.33.42s.6-1.5-.21-2.37l-2.21-2.38q-5.89-6.33-11.8-12.63A7.93,7.93,0,0,0,186.15,187.87Zm25.51.42c-1,.13-1.59.57-1.46,1.4a2.67,2.67,0,0,0,1,1.5c2,1.51,4,2.94,6,4.39l10.34,7.54a1.53,1.53,0,0,0,2.21-.13,1.46,1.46,0,0,0-.49-2.11c-1.16-.88-2.32-1.76-3.5-2.62q-6.54-4.75-13.09-9.5A5.17,5.17,0,0,0,211.66,188.29ZM197.3,68.91a4.64,4.64,0,0,0,.93,1.21,1.51,1.51,0,0,0,1.92-.42c3.14-2.94,6.3-5.86,9.44-8.81,1.77-1.66,3.52-3.35,5.27-5a1.45,1.45,0,0,0,.21-2.18,1.39,1.39,0,0,0-2.1,0c-.3.27-.61.54-.91.83q-7,6.52-13.9,13.07A7.5,7.5,0,0,0,197.3,68.91ZM51.06,132.85v-.39c-1.49-.57-2.35-2.07-4.37-2-6.52.17-13,0-19.57,0-1.05,0-1.68.53-1.69,1.37s.6,1.38,1.68,1.38c7.54,0,15.07,0,22.61,0A5.47,5.47,0,0,0,51.06,132.85Zm37.43,80.54c-.38-.37-.71-.93-1.18-1.12a1.42,1.42,0,0,0-1.77.82q-4.61,8.4-9.2,16.82c-.15.28-.3.74-.17.94.29.47.75,1.17,1.14,1.17a2.09,2.09,0,0,0,1.57-.91A156.54,156.54,0,0,1,88,214.51,7.4,7.4,0,0,0,88.49,213.39Zm44.75,38.45h0c0-3.41,0-6.82,0-10.23a2.16,2.16,0,0,0-.78-1.54c-1-.62-2,.19-2,1.54q0,10.17,0,20.34c0,1.25.41,1.74,1.38,1.75s1.38-.53,1.39-1.75C133.25,258.58,133.24,255.21,133.24,251.84Zm39.7-179.18a10.77,10.77,0,0,1,1.29,0c1.66.29,2.66-.44,3.55-1.84,1.47-2.3,3.16-4.46,4.79-6.65,1.74-2.35,3.51-4.67,5.28-7a1.35,1.35,0,0,0-.21-2.07,1.29,1.29,0,0,0-2,.29c-.32.36-.64.73-.94,1.11-2.33,3.12-4.67,6.23-7,9.37C176.17,68,174.65,70.25,172.94,72.66ZM161,219.37c-1.37,0-2,.68-1.83,1.6a5,5,0,0,0,.2.76q2.67,8,5.33,16.06a6.39,6.39,0,0,0,.79,2,1.87,1.87,0,0,0,1.55.65c.44-.12.8-.84,1-1.37.12-.32-.11-.79-.24-1.17-.67-2-1.36-4-2-5.94-1.26-3.76-2.46-7.52-3.76-11.26A4.39,4.39,0,0,0,161,219.37Zm-21.73-16.94c0,.3,0,.6.06.9q.78,5.89,1.55,11.79c.27,2,.55,4,.85,6a1.27,1.27,0,0,0,1.6,1.18,1.3,1.3,0,0,0,1.17-1.51,10.22,10.22,0,0,0-.11-1.23q-1.12-8.69-2.26-17.36c-.14-1.11-.77-1.75-1.6-1.68S139.24,201.26,139.29,202.43ZM42.51,65.66a8.31,8.31,0,0,0-1.07-1.2q-7-5.17-14.13-10.31a1.43,1.43,0,1,0-1.78,2.22c1.37,1.1,2.71,2.24,4.14,3.26q5.1,3.66,10.28,7.2a1.9,1.9,0,0,0,1.55.1C41.89,66.77,42.11,66.19,42.51,65.66Zm196.78,99.63a3.4,3.4,0,0,0-1.09.61c-.79.88-.28,2,1,2.32,2.82.75,5.67,1.39,8.45,2.27,2.52.79,5,1.83,7.46,2.75.81.3,1.57.32,2-.61s-.23-1.4-.91-1.74a24.82,24.82,0,0,0-3.16-1.42c-3.46-1.17-6.94-2.29-10.42-3.39C241.61,165.76,240.53,165.58,239.29,165.29ZM92.72,45.38l-1.43-3.06c-2-4.3-4-8.61-6.12-12.87a2.23,2.23,0,0,0-1.54-1c-.35-.05-.95.55-1.15,1a1.92,1.92,0,0,0,.22,1.37c1.4,3.06,2.84,6.1,4.28,9.14q1.39,2.94,2.84,5.86a1.23,1.23,0,0,0,1.64.78C92,46.38,92.29,45.81,92.72,45.38Zm123,131.16c-.35.3-.89.58-1.09,1a1.5,1.5,0,0,0,.2,1.31,4.59,4.59,0,0,0,1.42,1.06c2.39,1.32,4.8,2.61,7.2,3.91,2.14,1.16,4.26,2.35,6.41,3.49a1.39,1.39,0,0,0,2.12-.71,1.41,1.41,0,0,0-.85-1.84q-7.17-3.94-14.38-7.85A9,9,0,0,0,215.75,176.54ZM133.23,10.33h0c0-2.85,0-5.7,0-8.55,0-1.26-.4-1.76-1.35-1.78s-1.43.48-1.43,1.71c0,5.73,0,11.47,0,17.21,0,1,.35,1.62,1.36,1.71s1.39-.56,1.4-1.75C133.24,16,133.23,13.18,133.23,10.33Zm-123,122.9h0c2.89,0,5.78,0,8.67,0a2.14,2.14,0,0,0,1.44-.57,1.48,1.48,0,0,0,.07-1.4,2.13,2.13,0,0,0-1.47-.73c-5.74-.05-11.48,0-17.21,0-1.24,0-1.74.45-1.72,1.43s.52,1.34,1.78,1.34C4.6,133.24,7.41,133.23,10.22,133.23Zm183.72,31.34a4.66,4.66,0,0,0-1,.6c-.73.76-.47,1.71.7,2.35,4.49,2.47,9,4.9,13.5,7.34,1,.53,1.78.36,2.2-.43s.13-1.51-.9-2.08L194.86,165C194.6,164.81,194.32,164.73,193.94,164.57Zm-84.66,78.34c.26.27.58.9,1,1a2,2,0,0,0,1.52-.5,2.55,2.55,0,0,0,.63-1.39c.44-2.35.8-4.71,1.21-7.06s.84-4.92,1.38-7.36a1.47,1.47,0,0,0-.83-1.93,1.28,1.28,0,0,0-1.84.93,27.51,27.51,0,0,0-1,3.78c-.45,2.79-.75,5.61-1.18,8.4C110,240.07,109.66,241.33,109.28,242.91Zm-89-95.51c2.88-.34,5.67-.66,8.46-1,2-.26,4.08-.55,6.11-.85,1.14-.16,1.7-.76,1.58-1.64a1.54,1.54,0,0,0-1.85-1.22c-.48,0-1,.16-1.44.23l-13,1.66c-.93.12-1.65.58-1.53,1.57A1.38,1.38,0,0,0,20.27,147.4Zm41.9,51.44c-.46-.53-.77-1.19-1.11-1.2a3,3,0,0,0-1.88.55c-1.56,1.22-3,2.53-4.5,3.88-2,1.86-4,3.75-5.85,5.71a1.55,1.55,0,0,0,0,2.45c.76.53,1.47.25,2.27-.7a30.09,30.09,0,0,1,3-3.2c2.21-2,4.52-3.81,6.75-5.76A12,12,0,0,0,62.17,198.84ZM150.21,37c.91,0,1.38-.63,1.63-2.08.44-2.61.88-5.23,1.36-7.85.33-1.8.73-3.59,1.09-5.38.2-1-.19-1.8-1-2-1-.21-1.44.41-1.76,1.19a3.74,3.74,0,0,0-.16.66c-.85,4.59-1.71,9.18-2.54,13.78A1.36,1.36,0,0,0,150.21,37Zm38.37,14.84a5.09,5.09,0,0,0,1.2,1.09c.77.35,1.34-.14,1.78-.76l8.08-11.18c.67-.93.65-1.73-.06-2.25s-1.54-.36-2.2.53q-4.08,5.55-8.13,11.14A10,10,0,0,0,188.58,51.79ZM79,182.58c-.42-.48-.69-1.06-1.08-1.16a2,2,0,0,0-1.62.26c-3.28,3.13-6.5,6.31-9.71,9.52-.86.86-.86,1.76-.18,2.36s1.46.44,2.33-.47,1.78-1.94,2.71-2.85c2.17-2.13,4.38-4.21,6.55-6.33A13.46,13.46,0,0,0,79,182.58Zm68.46,59.95c0-.56-.07-1.16-.15-1.75-.49-3.51-1-7-1.49-10.54-.16-1.16-.78-1.82-1.68-1.68-1.13.17-1.28,1-1.19,1.93,0,.3.06.6.1.9.27,1.81.56,3.62.79,5.43.3,2.3.55,4.6.8,6.9.1.88.57,1.46,1.42,1.42a1.37,1.37,0,0,0,1.4-1.56C147.4,243.25,147.41,242.91,147.41,242.53ZM38.86,200.72c-.44-.56-.7-1.22-1.1-1.33a2.52,2.52,0,0,0-1.72.34c-1.55,1-3,2-4.53,3.07-2,1.44-4,2.87-5.92,4.41a1.54,1.54,0,0,0-.25,2.37c.61.57,1.43.39,2.28-.33,1.28-1.08,2.59-2.14,4-3.1,1.92-1.34,3.92-2.56,5.85-3.9A9.8,9.8,0,0,0,38.86,200.72Zm5.56-3.9a7.6,7.6,0,0,0,1.09-.48c3.52-2.49,7-5,10.53-7.48a1.38,1.38,0,0,0,.42-2.12,1.49,1.49,0,0,0-2.2-.11c-2,1.42-4,2.81-5.95,4.23-1.58,1.13-3.19,2.23-4.7,3.46a1.71,1.71,0,0,0-.34,1.55C43.39,196.28,44,196.53,44.42,196.82Zm65.19-36.67a.39.39,0,0,0-.17.13q-4.95,6.79-9.87,13.61a1.34,1.34,0,0,0,.33,2,1.41,1.41,0,0,0,2-.51c1.54-2.07,3.1-4.12,4.62-6.2a11.6,11.6,0,0,0,2.08-3.16A43.93,43.93,0,0,0,109.61,160.15ZM180.36,45.71a5.15,5.15,0,0,0,1-1.08c1.58-2.84,3.1-5.73,4.66-8.59a16.8,16.8,0,0,0,1.35-2.45,2.11,2.11,0,0,0-.41-1.67,1.15,1.15,0,0,0-1.71,0,4.06,4.06,0,0,0-.79,1.08q-2.1,3.84-4.17,7.7c-.55,1-1.16,2-1.63,3.07S178.92,45.73,180.36,45.71Zm55,38.42a1.52,1.52,0,0,0-2.28-1.51c-2.53,1.13-5.05,2.28-7.57,3.43-1.12.51-2.26,1-3.36,1.54a1.2,1.2,0,0,0-.55,1.73,1.31,1.31,0,0,0,1.77.76c3.73-1.65,7.46-3.31,11.16-5C234.91,84.87,235.15,84.34,235.33,84.13Zm-25.75,64c.9,0,1.59-.26,1.7-1.19a1.32,1.32,0,0,0-1.16-1.63c-3.93-.71-7.86-1.42-11.8-2.09a1.34,1.34,0,0,0-1.68,1.11,1.31,1.31,0,0,0,1.11,1.66c1.2.25,2.42.44,3.63.66ZM133.23,34.41c0-2.06,0-4.12,0-6.18a1.39,1.39,0,0,0-1.32-1.62c-.84-.1-1.43.57-1.43,1.61q0,6.18,0,12.36c0,1.11.5,1.67,1.38,1.67s1.36-.56,1.37-1.66C133.24,38.53,133.23,36.47,133.23,34.41ZM96.89,244.56c-.37-.36-.72-.91-1.22-1.12a1.19,1.19,0,0,0-1.62.78c-.28.69-.5,1.4-.74,2.11-1,3-2,6.08-3.1,9.11a1.34,1.34,0,0,0,.81,1.82,1.28,1.28,0,0,0,1.77-.71,5.88,5.88,0,0,0,.39-.93q1.48-4.32,3-8.66C96.38,246.26,96.59,245.54,96.89,244.56ZM212.23,71.79c0,1.3,1,2,1.92,1.56A18.3,18.3,0,0,0,216.3,72l7.4-5.08c.61-.42,1.1-.92.88-1.76a1.39,1.39,0,0,0-2.25-.74q-4.79,3.23-9.51,6.54A2.47,2.47,0,0,0,212.23,71.79ZM43.12,144.46l3.57-.48c2.38-.28,4.76-.52,7.13-.83a1.36,1.36,0,0,0,1.3-1.64,1.24,1.24,0,0,0-1.52-1.14c-3.6.4-7.2.8-10.8,1.26a1.31,1.31,0,0,0-1.24,1.57A1.37,1.37,0,0,0,43.12,144.46ZM176.92,119c5.1-1.74,9.91-3.36,14.71-5a1.7,1.7,0,0,0,.92-1,1.61,1.61,0,0,0-.39-1.16,13.56,13.56,0,0,0-2.84.45c-1.79.5-3.55,1.1-5.33,1.64-1.46.45-2.93.87-4.38,1.32a.89.89,0,0,0-.4.37C178.5,116.58,177.8,117.63,176.92,119Zm20.53-9.06c.69,1.56,1.15,1.77,2.48,1.31,3.25-1.1,6.49-2.24,9.75-3.36,1.94-.67,3.89-1.3,5.84-2a1.39,1.39,0,0,0,1.08-1.61c-.13-.75-.71-1.37-1.4-1.16-1.62.49-3.43.87-4.69,1.88-3,2.39-6.09,4.15-10,4.22A15.46,15.46,0,0,0,197.45,109.9Zm-19.88,32.17a7.45,7.45,0,0,0,.76.25q5.26,1.05,10.54,2.08a1.47,1.47,0,0,0,1.86-1.15,1.42,1.42,0,0,0-1.29-1.67c-1.9-.39-3.81-.76-5.71-1.13l-5.62-1.06ZM44.46,114l-10.68-2.29a1.44,1.44,0,1,0-.62,2.81c1.2.28,2.39.58,3.6.82,2.32.48,4.65.92,7,1.38Zm111.27,71.94c1.75,3.65,3.41,7.2,5.14,10.71a1.15,1.15,0,0,0,1.74.45,1.44,1.44,0,0,0,.58-2c-1.31-2.81-2.61-5.63-3.94-8.44a1.21,1.21,0,0,0-.76-.65A27.41,27.41,0,0,0,155.73,185.91ZM118.83,21.25l.17,0c0-.38,0-.75.07-1.12.05-.91-.49-1.58-1.27-1.52-.53,0-1.11.7-1.47,1.22a2.12,2.12,0,0,0-.18,1.42c.42,2.77.84,5.53,1.41,8.26.09.43,1,.95,1.51,1,.78,0,1.21-.7,1.19-1.5a10.44,10.44,0,0,0-.27-1.66C119.6,25.27,119.22,23.26,118.83,21.25Zm138.59,112h0c1.54,0,3.07,0,4.61,0,1,0,1.63-.29,1.67-1.36,0-.92-.51-1.4-1.61-1.41q-4.56,0-9.11,0c-1.1,0-1.65.51-1.61,1.42,0,1.06.7,1.37,1.67,1.36C254.5,133.22,256,133.24,257.42,133.24ZM133.25,186.05a17.29,17.29,0,0,0-2.2.33,1,1,0,0,0-.56.76c0,3.26,0,6.52,0,9.78a1.28,1.28,0,0,0,1.4,1.41,1.3,1.3,0,0,0,1.37-1.45c0-2.32,0-4.65,0-7ZM239,55.07c-.37-.43-.64-1-1-1.12a2.37,2.37,0,0,0-1.62.31c-1.51,1-3,2-4.41,3A22.68,22.68,0,0,0,229.73,59a1.35,1.35,0,0,0-.16,2.15,1.43,1.43,0,0,0,2.1,0c.61-.49,1.26-.93,1.9-1.38,1.54-1.1,3.11-2.16,4.62-3.3A4.86,4.86,0,0,0,239,55.07ZM173.46,255.22a5.35,5.35,0,0,0-.18-.87c-.78-2.13-1.62-4.24-2.35-6.39-.27-.8-.61-1.38-1.52-1.29a1.44,1.44,0,0,0-1.12,1.88,29.74,29.74,0,0,0,1.07,3.4c.46,1.25,1.12,2.44,1.46,3.72.23.86.5,1.53,1.41,1.62C172.93,257.37,173.49,256.44,173.46,255.22Zm.18-76.88c1.84,1.92,3.84,4.07,5.91,6.15a1.26,1.26,0,0,0,1.91-.13,1.31,1.31,0,0,0,0-1.92c-1.95-2.1-3.93-4.17-6-6.34Zm-33.86,5.34a18.83,18.83,0,0,0-2.06.87,1.2,1.2,0,0,0-.58.87c.24,2.45.53,4.9.85,7.34a1.42,1.42,0,0,0,1.62,1.36,1.36,1.36,0,0,0,1.22-1.6c0-.75-.15-1.49-.24-2.23C140.33,188.12,140.05,185.94,139.78,183.68Zm64.69-150c.16-.09.58-.19.77-.45q2.28-3.06,4.46-6.19a1.25,1.25,0,0,0-.33-1.88,1.34,1.34,0,0,0-2,.32c-.61.81-1.2,1.62-1.79,2.44-.83,1.16-1.69,2.3-2.47,3.49A1.46,1.46,0,0,0,204.47,33.71ZM179.06,156.2c-.13,1.2-.23,2.12-.34,3.08l3.26,1.77c1.11.59,2.26,1.12,3.32,1.79.86.54,1.54.52,2.12-.31s.24-1.52-.68-2.05c-1.54-.91-3.13-1.75-4.69-2.62ZM13.83,94.86l.23.2c.37-.44.94-.83,1.07-1.34A1.35,1.35,0,0,0,14,92.06l-5.66-1.7a1.34,1.34,0,0,0-1.86.93c-.28.84.31,1.24,1,1.48,1.68.62,3.37,1.21,5.06,1.79C12.94,94.7,13.39,94.76,13.83,94.86ZM169,12.94c.28.35.54,1,1,1.1a1.92,1.92,0,0,0,1.44-.42,2.7,2.7,0,0,0,.72-1.23c.45-1.26.84-2.55,1.26-3.82.37-1.11.11-1.74-.85-2s-1.6.16-1.92,1.19c-.26.81-.52,1.62-.77,2.44S169.36,11.87,169,12.94ZM57.9,31.68c.47-.34,1-.53,1.17-.89a2,2,0,0,0,0-1.54c-.76-1.24-1.69-2.37-2.53-3.56a1.47,1.47,0,0,0-2.13-.53c-.7.39-.79,1.3-.19,2.16.8,1.17,1.64,2.32,2.51,3.44A6.9,6.9,0,0,0,57.9,31.68ZM21.52,109.37c-1-.06-1.65.27-1.85,1.07a1.34,1.34,0,0,0,1.13,1.67,37.09,37.09,0,0,0,4.18.79,1.29,1.29,0,0,0,1.49-1.21,1.27,1.27,0,0,0-1-1.54C24.09,109.83,22.69,109.59,21.52,109.37ZM80.08,140l9.69-1.26C86,136.37,81.69,136.78,80.08,140ZM72.65,97.58c-1.67-.88-3.11-1.66-4.58-2.38a1.3,1.3,0,0,0-1.83.56,1.34,1.34,0,0,0,.5,1.94c1.47,1,3,1.68,4.7.44A8,8,0,0,1,72.65,97.58ZM207,210.41c-.4.31-1,.53-1.14.92a1.7,1.7,0,0,0,.15,1.44,17.06,17.06,0,0,0,2.11,2.31,1.33,1.33,0,0,0,2-.09,1.24,1.24,0,0,0,.05-1.82c-.66-.76-1.35-1.5-2.07-2.2A4.63,4.63,0,0,0,207,210.41ZM235.45,206c-.2.17-.75.42-.91.83a1.61,1.61,0,0,0,.16,1.41,7.11,7.11,0,0,0,2.14,1.59,1.69,1.69,0,0,0,1.51-.27,1.76,1.76,0,0,0,.34-1.4C238.61,207.41,236.44,205.93,235.45,206ZM64.69,141.83c-1.15-.83-2.06-1.41-2.87-2.1s-1.09-.32-1.48.23a1.37,1.37,0,0,0,1.11,2.18A28.47,28.47,0,0,0,64.69,141.83Zm49.75,39c-.36,1.16-.83,2.19.37,2.85.84.45,1.48,0,2-.79Z"/><path class="cls-1" d="M99.67,140.75a4.5,4.5,0,0,0-.18.93c.13,1.95-1,2.53-2.71,3q-19.31,6.09-38.57,12.36c-5.19,1.69-10.35,3.48-15.53,5.22-.39.13-.78.26-1.18.37a1.37,1.37,0,0,1-1.84-.81,1.41,1.41,0,0,1,1.06-1.9c3.21-1.11,6.43-2.22,9.66-3.29q12.63-4.16,25.28-8.26c6.9-2.23,13.82-4.41,20.74-6.61Z"/><path class="cls-1" d="M148,77.35c.69-2.39,1.28-4.66,2-6.9,1.26-3.9,2.6-7.78,3.91-11.67,2.27-6.77,4.59-13.52,6.8-20.31,1.34-4.13,2.46-8.32,3.74-12.47a35.44,35.44,0,0,1,1.44-3.65,1.37,1.37,0,0,1,1.91-.87,1.42,1.42,0,0,1,.74,2c-1.69,5.19-3.29,10.4-5,15.58-2.49,7.53-5.06,15-7.56,22.55-1.42,4.28-2.78,8.59-4.13,12.9a1.89,1.89,0,0,1-1.1,1.4A30.88,30.88,0,0,0,148,77.35Z"/><path class="cls-1" d="M97.82,238.49c-1,0-1.57-.94-1.2-2.16.6-2,1.28-4,1.91-6q4.43-13.9,8.83-27.8c1.25-3.91,2.54-7.8,3.82-11.71.38-1.17,1-1.63,1.95-1.36s1.16,1.05.77,2.25q-4.22,13.19-8.45,26.38-3,9.46-6,18.92C99.15,237.84,98.78,238.47,97.82,238.49Z"/><path class="cls-1" d="M101.35,152.85l1.71,2.25c-2.67,2-5.27,3.92-7.9,5.83-5.2,3.77-10.41,7.55-15.64,11.29C74,176.14,68.53,180,63,183.91a1.51,1.51,0,0,1-2.27-.2c-.51-.7-.27-1.51.65-2.17,5.55-3.94,11.14-7.84,16.67-11.82,7.62-5.49,15.2-11,22.8-16.57Z"/><path class="cls-1" d="M127.55,85.42l-2.63,1.11c-.25-1.75-.47-3.35-.69-5-.72-5.27-1.45-10.53-2.14-15.8q-1.11-8.35-2.16-16.7c-.42-3.27-.82-6.54-1.23-9.81,0-.34-.08-.67-.09-1,0-.89.29-1.55,1.31-1.58s1.42.55,1.53,1.45c.23,1.89.44,3.78.69,5.66l3.36,25.5q1,7.52,2,15C127.54,84.63,127.53,85,127.55,85.42Z"/><path class="cls-1" d="M29.62,181.5c-.39-.41-1.05-.79-1.13-1.27a1.86,1.86,0,0,1,.69-1.55,39.31,39.31,0,0,1,4.27-2.23c7.13-3.31,14.28-6.56,21.41-9.87,4.07-1.89,8.11-3.84,12.17-5.76a5.05,5.05,0,0,1,.71-.33,1.28,1.28,0,0,1,1.74.79,1.89,1.89,0,0,1-.47,1.61,9.88,9.88,0,0,1-2.35,1.29c-8.69,4-17.41,8-26.09,12-3.22,1.5-6.39,3.12-9.58,4.68C30.62,181.08,30.24,181.23,29.62,181.5Z"/><path class="cls-1" d="M111,91.3c-1.79-3.8-3.52-7.45-5.22-11.11Q100.85,69.66,96,59.1c-.58-1.27-1-2.65-1.53-3.93-.44-1-1.14-1.81-1.6-2.78-.62-1.29.15-2.43,1.43-2.21a1.35,1.35,0,0,1,.89.56c.48,1,.83,2.06,1.28,3.07.23.53.65,1,.89,1.49,2.34,5,4.65,10,7,15.07q4.05,8.68,8.14,17.37c.74,1.58.74,1.57-.56,2.71Z"/><path class="cls-1" d="M82.63,94.44c-1.11.35-2,.69-2.89.88A1.6,1.6,0,0,1,78.63,95c-4.11-3-8.21-6-12.31-9L50.81,74.66c-.93-.68-1.9-1.32-2.84-2-.75-.54-1.13-1.23-.58-2.11a1.51,1.51,0,0,1,2.28-.19q9.64,7,19.26,14c4.21,3.06,8.38,6.16,12.57,9.24C81.83,93.82,82.15,94.07,82.63,94.44Z"/><path class="cls-1" d="M139.78,83.78c.84-4.4,1.68-8.77,2.48-13.14q2.36-12.78,4.68-25.58c.19-1,.86-1.61,1.77-1.41a1.36,1.36,0,0,1,1.06,1.8q-2.62,14.46-5.26,28.91c-.49,2.69-1,5.37-1.55,8-.43,2.15-.45,2.15-2.51,1.56Z"/><path class="cls-1" d="M118.7,86.94l-2.72.84c-.64-2-1.26-4-1.9-6L104.6,52.59c-.23-.71-.46-1.43-.68-2.14-.31-1,0-1.81.76-2.05s1.6.14,2,1.19c.71,2.08,1.4,4.18,2.07,6.28q4.73,14.61,9.43,29.23C118.32,85.67,118.48,86.24,118.7,86.94Z"/><path class="cls-1" d="M109.25,170.82c.35,1.13.7,2,.91,3a2.11,2.11,0,0,1-.14,1.36q-4,7.34-8.12,14.62-4.58,8.13-9.18,16.23c-.38.68-.8,1.33-1.71,1.17-1.09-.19-1.48-1.28-.87-2.37q4.31-7.69,8.63-15.37l10-17.84C108.87,171.38,109,171.17,109.25,170.82Z"/><path class="cls-1" d="M222.92,103.5c-.33-.35-1-.73-1.09-1.23a1.83,1.83,0,0,1,.64-1.46,5.92,5.92,0,0,1,1.87-.72l26.94-8.53c1.28-.41,2.55-.86,3.82-1.28a1.53,1.53,0,0,1,2.22,1c.27,1-.46,1.43-1.24,1.69-2.16.7-4.34,1.34-6.5,2-3.8,1.24-7.59,2.52-11.4,3.74-4.81,1.53-9.64,3-14.46,4.51Z"/><path class="cls-1" d="M103.82,41.1c-.4.33-.84,1-1.36,1a2,2,0,0,1-1.47-.87,9.34,9.34,0,0,1-.7-2.11C98.21,32.76,96.11,26.37,94,20c-1.23-3.83-2.43-7.67-3.64-11.51a1.44,1.44,0,0,1,.88-2c.9-.22,1.3.4,1.54,1.11.85,2.55,1.67,5.11,2.51,7.66q4,12.19,8.1,24.38C103.56,40,103.64,40.39,103.82,41.1Z"/><path class="cls-1" d="M181.48,234.05c-.37.38-.75,1.08-1.21,1.14a1.94,1.94,0,0,1-1.62-.74c-.9-1.58-1.62-3.28-2.4-4.94l-11.64-24.65c-.68-1.44-.27-2.64,1-2.67.9,0,1.27.62,1.61,1.34,2,4.2,4,8.38,5.95,12.58q3.92,8.32,7.82,16.66C181.11,233.11,181.24,233.46,181.48,234.05Z"/><path class="cls-1" d="M120.12,184.82l2.68,1c-.37,1.94-.75,3.83-1.1,5.74q-2.48,13.5-4.93,27c-.2,1.11-.8,1.64-1.69,1.51s-1.33-.86-1.13-2q2.67-14.61,5.33-29.22C119.52,187.58,119.82,186.28,120.12,184.82Z"/><path class="cls-1" d="M167.83,183.26l2.18-1.77c1.31,1.81,2.59,3.55,3.85,5.31l15.19,21.3c.44.62,1,1.28.4,2a2,2,0,0,1-1.39.66,1.7,1.7,0,0,1-1.13-.74c-2.76-3.82-5.48-7.68-8.22-11.51l-9.88-13.79C168.51,184.28,168.2,183.81,167.83,183.26Z"/><path class="cls-1" d="M106.36,94.42a17.56,17.56,0,0,1-2.2,1c-.22.07-.7-.3-.9-.58-2.11-3-4.15-6-6.3-9-2.67-3.68-5.41-7.32-8.13-11-1.3-1.74-2.62-3.46-3.91-5.2-.72-1-.7-1.7,0-2.27s1.53-.47,2.28.54c3.31,4.45,6.61,8.89,9.86,13.37,2.94,4,5.83,8.14,8.74,12.21C106,93.73,106.08,94,106.36,94.42Z"/><path class="cls-1" d="M146.13,180.55a24,24,0,0,0,2.64,2.24,4.62,4.62,0,0,1,2,2.83c2.74,8.59,5.53,17.16,8.31,25.74.37,1.16.14,1.88-.77,2.23s-1.54-.09-1.94-1.31q-4.38-13.56-8.75-27.12C147.13,183.71,146.67,182.25,146.13,180.55Z"/><path class="cls-1" d="M177,130.46h2.42c10.31,0,20.62,0,30.93,0a2.38,2.38,0,0,1,1.56.77,1.32,1.32,0,0,1-.06,1.3,2.19,2.19,0,0,1-1.42.63c-1.84.08-3.68,0-5.51,0H178.87C177,133.24,176.41,132.47,177,130.46Z"/><path class="cls-1" d="M61,91.74c-.05,1.5-1.17,2.15-2.21,1.6q-4.22-2.24-8.39-4.55c-4.77-2.65-9.53-5.33-14.3-8-1.14-.64-2.32-1.22-3.46-1.86-.78-.43-1.34-1-.87-2,.39-.82,1.19-1.06,2.19-.52,4.76,2.6,9.51,5.23,14.26,7.84C52.08,86.4,56,88.51,59.8,90.67A6.55,6.55,0,0,1,61,91.74Z"/><path class="cls-1" d="M214.53,122.85a8.42,8.42,0,0,1-1,.08,1.26,1.26,0,0,1-1.38-1.31,1.25,1.25,0,0,1,1.19-1.48c1.86-.2,3.73-.36,5.58-.62,6.11-.85,12.22-1.75,18.33-2.59,2-.27,3.94-.44,5.92-.61,1.2-.09,2,.44,2,1.3s-.58,1.39-1.84,1.54c-3.86.47-7.73.89-11.59,1.41-4.44.59-8.88,1.29-13.32,1.92-1.29.18-2.6.27-3.9.41Z"/><path class="cls-1" d="M133,52.19a5.18,5.18,0,0,1,.25,1.07q0,14.84,0,29.68c0,.29-.05.59-.08,1l-2.69.63V83.11q0-14.79,0-29.57c0-1.2.17-2.39.27-3.59Z"/><path class="cls-1" d="M78.46,207.56c-.61-.45-1.2-.67-1.35-1.06a1.92,1.92,0,0,1,.15-1.54c1.85-2.68,3.78-5.31,5.68-8q5.43-7.5,10.86-15c.26-.36.58-.85.94-.91.53-.1,1.37,0,1.61.28a1.88,1.88,0,0,1,0,1.7c-1.47,2.25-3,4.44-4.62,6.63q-5.78,8-11.57,16A19.74,19.74,0,0,1,78.46,207.56Z"/><path class="cls-1" d="M51.88,104.46c-.85.72-1.54,1.34-2.3,1.89a1.16,1.16,0,0,1-.9.07L25.14,98.69c-1-.33-2-.62-3-1s-1.59-1.14-1.19-2,1.31-1,2.2-.67q7,2.32,14.05,4.65C42,101.27,46.87,102.83,51.88,104.46Z"/><path class="cls-1" d="M176.54,124.85l6.4-.84,18.49-2.41c1.33-.18,2.66-.35,4-.49a1.56,1.56,0,0,1,1.78,1.32,1.65,1.65,0,0,1-1.51,1.53q-7.4.93-14.79,1.88-6.28.81-12.58,1.69c-.93.13-1.53,0-1.47-1.15A6.79,6.79,0,0,0,176.54,124.85Z"/><path class="cls-1" d="M64.06,36.5a5.34,5.34,0,0,1,1,.88Q71.57,46.17,78,55c1,1.39,2,2.83,2.92,4.26.77,1.14.76,1.89,0,2.46s-1.49.36-2.31-.78c-2.77-3.91-5.5-7.85-8.3-11.75C68,46,65.66,42.91,63.35,39.78a9.89,9.89,0,0,1-.82-1.21C62,37.64,62.7,36.51,64.06,36.5Z"/><path class="cls-1" d="M104,156l2.32,1.76c-2.76,2.57-5.44,5-8.1,7.56-1.42,1.33-2.77,2.73-4.2,4-2.66,2.46-5.35,4.88-8,7.32-.11.1-.23.19-.35.28a1.43,1.43,0,0,1-2.11,0,1.37,1.37,0,0,1,.22-2.09c1-.95,2.08-1.82,3.11-2.75,2.18-2,4.36-4,6.51-6C96.86,162.73,100.38,159.38,104,156Z"/><path class="cls-1" d="M33.42,162.36c.36.42,1,.88,1.07,1.37a2,2,0,0,1-1,1.54,20.07,20.07,0,0,1-3.25,1.21c-4.29,1.45-8.56,2.93-12.86,4.31-3.05,1-6.14,1.81-9.2,2.72a1.34,1.34,0,0,1-1.79-.88A1.2,1.2,0,0,1,7.34,171c1.95-.65,3.94-1.16,5.88-1.81,6.29-2.11,12.57-4.26,18.86-6.39C32.43,162.66,32.79,162.55,33.42,162.36Z"/><path class="cls-1" d="M99.11,94.82c-1.46-.2-2.82-.37-4.18-.6a1.46,1.46,0,0,1-.72-.47Q85.57,84.65,77,75.51a1.49,1.49,0,0,1-.13-2.2,1.52,1.52,0,0,1,2.28.28c3.32,3.5,6.62,7,9.94,10.54l9.23,9.75C98.55,94.17,98.8,94.48,99.11,94.82Z"/><path class="cls-1" d="M203,154.36a1.47,1.47,0,0,1-2.11,1.42q-3-.94-6-1.94L177.08,148c-1.82-.59-2.09-1.54-.71-2.87a1.21,1.21,0,0,1,1,0c4.31,1.39,8.61,2.82,12.91,4.23l11.2,3.65C202.23,153.22,203,153.55,203,154.36Z"/><path class="cls-1" d="M73.32,67.92c-.42.44-.71,1-1.1,1.08a2,2,0,0,1-1.59-.33c-1.52-1.43-2.95-3-4.39-4.49l-12-12.88c-1.14-1.22-1.32-2-.58-2.67s1.54-.48,2.65.7q8.06,8.6,16.12,17.19A10.35,10.35,0,0,1,73.32,67.92Z"/><path class="cls-1" d="M99.12,145.59c.45,2.95.44,2.93-2,4.14-4.26,2.1-8.5,4.25-12.77,6.32-1.31.64-2.71,1.07-4,1.64-1.07.46-2.12.93-3.14,1.47-.84.45-1.57.56-2.17-.29a1.4,1.4,0,0,1,.68-2.16c1.6-.81,3.28-1.45,4.9-2.22q6.54-3.09,13.06-6.24Z"/><path class="cls-1" d="M162,74.75c1.27-2.36,2.5-4.59,3.69-6.84,2.75-5.19,5.48-10.4,8.24-15.58a2,2,0,0,1,1.07-1,1.59,1.59,0,0,1,1.44.4,2.05,2.05,0,0,1,.07,1.73c-1.62,3.29-3.32,6.55-5,9.79-2,3.86-4.18,7.7-6.22,11.57-.43.83-.82,1.15-1.69.57A8.33,8.33,0,0,0,162,74.75Z"/><path class="cls-1" d="M197.35,190.45c-.54-.17-1-.29-1.36-.44l-11.93-4.56-1.6-.62c-.53-.21-.72-.48-.34-.8a1.66,1.66,0,0,1,1.59-.08l11.93,4.56c.73.28,1.53.53,2.19.85a.61.61,0,0,1,.36.65C198.14,190.16,197.68,190.29,197.35,190.45Z"/><path class="cls-1" d="M231.91,133.24H220.44c-.38,0-.85.11-1.1-.07-.43-.31-1-.81-1-1.25s.47-1,.87-1.35c.22-.19.72-.1,1.09-.1h23.39a2.32,2.32,0,0,1,1.48.3,1.83,1.83,0,0,1,.44,1.54,1.78,1.78,0,0,1-1.33.88c-2.62.09-5.25.05-7.87.05Z"/><path class="cls-1" d="M230.64,165.43c-.37-.11-.91-.25-1.44-.43l-18.14-5.86c-.42-.14-.84-.3-1.26-.45-.85-.3-1.36-.83-1.11-1.78a1.51,1.51,0,0,1,2.11-.89c1.21.38,2.41.79,3.62,1.18l16.43,5.3c.85.27,1.56.68,1.45,1.69C232.21,165,231.66,165.43,230.64,165.43Z"/><path class="cls-1" d="M186.15,187.87a7.93,7.93,0,0,1,1.19.84q5.91,6.3,11.8,12.63l2.21,2.38c.81.87.89,1.75.21,2.37s-1.55.42-2.33-.42c-4.62-5-9.27-10-13.87-15a2.21,2.21,0,0,1-.42-1.69C185,188.58,185.67,188.29,186.15,187.87Z"/><path class="cls-1" d="M211.66,188.29a5.17,5.17,0,0,1,1,.47q6.55,4.74,13.09,9.5c1.18.86,2.34,1.74,3.5,2.62a1.46,1.46,0,0,1,.49,2.11,1.53,1.53,0,0,1-2.21.13l-10.34-7.54c-2-1.45-4-2.88-6-4.39a2.67,2.67,0,0,1-1-1.5C210.07,188.86,210.68,188.42,211.66,188.29Z"/><path class="cls-1" d="M197.3,68.91a7.5,7.5,0,0,1,.86-1.3q6.93-6.55,13.9-13.07c.3-.29.61-.56.91-.83a1.39,1.39,0,0,1,2.1,0,1.45,1.45,0,0,1-.21,2.18c-1.75,1.68-3.5,3.37-5.27,5-3.14,3-6.3,5.87-9.44,8.81a1.51,1.51,0,0,1-1.92.42A4.64,4.64,0,0,1,197.3,68.91Z"/><path class="cls-1" d="M51.06,132.85a5.47,5.47,0,0,1-1.34.33c-7.54,0-15.07,0-22.61,0-1.08,0-1.68-.53-1.68-1.38s.64-1.38,1.69-1.37c6.53,0,13.05.13,19.57,0,2-.05,2.88,1.45,4.37,2Z"/><path class="cls-1" d="M88.49,213.39a7.4,7.4,0,0,1-.47,1.12,156.54,156.54,0,0,0-9.14,16.6,2.09,2.09,0,0,1-1.57.91c-.39,0-.85-.7-1.14-1.17-.13-.2,0-.66.17-.94q4.57-8.41,9.2-16.82a1.42,1.42,0,0,1,1.77-.82C87.78,212.46,88.11,213,88.49,213.39Z"/><path class="cls-1" d="M133.24,251.84c0,3.37,0,6.74,0,10.11,0,1.22-.45,1.75-1.39,1.75s-1.38-.5-1.38-1.75q0-10.17,0-20.34c0-1.35,1-2.16,2-1.54a2.16,2.16,0,0,1,.78,1.54c.07,3.41,0,6.82,0,10.23Z"/><path class="cls-1" d="M172.94,72.66c1.71-2.41,3.23-4.62,4.81-6.78,2.31-3.14,4.65-6.25,7-9.37.3-.38.62-.75.94-1.11a1.29,1.29,0,0,1,2-.29,1.35,1.35,0,0,1,.21,2.07c-1.77,2.32-3.54,4.64-5.28,7-1.63,2.19-3.32,4.35-4.79,6.65-.89,1.4-1.89,2.13-3.55,1.84A10.77,10.77,0,0,0,172.94,72.66Z"/><path class="cls-1" d="M161,219.37a4.39,4.39,0,0,1,1,1.28c1.3,3.74,2.5,7.5,3.76,11.26.66,2,1.35,4,2,5.94.13.38.36.85.24,1.17-.19.53-.55,1.25-1,1.37a1.87,1.87,0,0,1-1.55-.65,6.39,6.39,0,0,1-.79-2q-2.67-8-5.33-16.06a5,5,0,0,1-.2-.76C159,220.05,159.65,219.34,161,219.37Z"/><path class="cls-1" d="M139.29,202.43c0-1.17.39-1.83,1.26-1.91s1.46.57,1.6,1.68q1.14,8.69,2.26,17.36a10.22,10.22,0,0,1,.11,1.23,1.3,1.3,0,0,1-1.17,1.51,1.27,1.27,0,0,1-1.6-1.18c-.3-2-.58-4-.85-6q-.78-5.9-1.55-11.79C139.32,203,139.31,202.73,139.29,202.43Z"/><path class="cls-1" d="M42.51,65.66c-.4.53-.62,1.11-1,1.27a1.9,1.9,0,0,1-1.55-.1q-5.19-3.54-10.28-7.2c-1.43-1-2.77-2.16-4.14-3.26a1.43,1.43,0,1,1,1.78-2.22q7.07,5.15,14.13,10.31A8.31,8.31,0,0,1,42.51,65.66Z"/><path class="cls-1" d="M239.29,165.29c1.24.29,2.32.47,3.35.79,3.48,1.1,7,2.22,10.42,3.39a24.82,24.82,0,0,1,3.16,1.42c.68.34,1.34.8.91,1.74s-1.19.91-2,.61c-2.49-.92-4.94-2-7.46-2.75-2.78-.88-5.63-1.52-8.45-2.27-1.3-.34-1.81-1.44-1-2.32A3.4,3.4,0,0,1,239.29,165.29Z"/><path class="cls-1" d="M92.72,45.38c-.43.43-.77,1-1.26,1.22a1.23,1.23,0,0,1-1.64-.78Q88.38,42.9,87,40c-1.44-3-2.88-6.08-4.28-9.14a1.92,1.92,0,0,1-.22-1.37c.2-.45.8-1.05,1.15-1a2.23,2.23,0,0,1,1.54,1c2.09,4.26,4.09,8.57,6.12,12.87Z"/><path class="cls-1" d="M215.75,176.54a9,9,0,0,1,1,.39q7.2,3.91,14.38,7.85a1.41,1.41,0,0,1,.85,1.84,1.39,1.39,0,0,1-2.12.71c-2.15-1.14-4.27-2.33-6.41-3.49-2.4-1.3-4.81-2.59-7.2-3.91a4.59,4.59,0,0,1-1.42-1.06,1.5,1.5,0,0,1-.2-1.31C214.86,177.12,215.4,176.84,215.75,176.54Z"/><path class="cls-1" d="M61.28,227c.5-.77,1-1.57,1.5-2.31,2.79-3.84,5.61-7.66,8.42-11.49a5.37,5.37,0,0,1,.63-.78,1.34,1.34,0,0,1,1.92-.1,1.25,1.25,0,0,1,.23,1.88q-2.85,4-5.74,7.89Q66.13,225,64,227.83a5.39,5.39,0,0,1-1,.79Z"/><path class="cls-1" d="M133.23,10.33c0,2.85,0,5.7,0,8.55,0,1.19-.5,1.83-1.4,1.75s-1.36-.74-1.36-1.71c0-5.74,0-11.48,0-17.21,0-1.23.45-1.73,1.43-1.71s1.35.52,1.35,1.78c0,2.85,0,5.7,0,8.55Z"/><path class="cls-1" d="M10.22,133.23c-2.81,0-5.62,0-8.44,0-1.26,0-1.76-.39-1.78-1.34s.48-1.43,1.72-1.43c5.73,0,11.47,0,17.21,0a2.13,2.13,0,0,1,1.47.73,1.48,1.48,0,0,1-.07,1.4,2.14,2.14,0,0,1-1.44.57c-2.89.05-5.78,0-8.67,0Z"/><path class="cls-1" d="M193.94,164.57c.38.16.66.24.92.38l13.59,7.4c1,.57,1.32,1.27.9,2.08s-1.23,1-2.2.43c-4.5-2.44-9-4.87-13.5-7.34-1.17-.64-1.43-1.59-.7-2.35A4.66,4.66,0,0,1,193.94,164.57Z"/><path class="cls-1" d="M109.28,242.91c.38-1.58.76-2.84,1-4.12.43-2.79.73-5.61,1.18-8.4a27.51,27.51,0,0,1,1-3.78,1.28,1.28,0,0,1,1.84-.93,1.47,1.47,0,0,1,.83,1.93c-.54,2.44-.94,4.9-1.38,7.36s-.77,4.71-1.21,7.06a2.55,2.55,0,0,1-.63,1.39,2,2,0,0,1-1.52.5C109.86,243.81,109.54,243.18,109.28,242.91Z"/><path class="cls-1" d="M20.27,147.4a1.38,1.38,0,0,1-1.71-1.26c-.12-1,.6-1.45,1.53-1.57l13-1.66c.48-.07,1-.18,1.44-.23a1.54,1.54,0,0,1,1.85,1.22c.12.88-.44,1.48-1.58,1.64-2,.3-4.07.59-6.11.85C25.94,146.74,23.15,147.06,20.27,147.4Z"/><path class="cls-1" d="M62.17,198.84a12,12,0,0,1-1.34,1.73c-2.23,2-4.54,3.79-6.75,5.76a30.09,30.09,0,0,0-3,3.2c-.8.95-1.51,1.23-2.27.7a1.55,1.55,0,0,1,0-2.45c1.89-2,3.86-3.85,5.85-5.71,1.45-1.35,2.94-2.66,4.5-3.88a3,3,0,0,1,1.88-.55C61.4,197.65,61.71,198.31,62.17,198.84Z"/><path class="cls-1" d="M150.21,37a1.36,1.36,0,0,1-1.38-1.65c.83-4.6,1.69-9.19,2.54-13.78a3.74,3.74,0,0,1,.16-.66c.32-.78.78-1.4,1.76-1.19.81.17,1.2,1,1,2-.36,1.79-.76,3.58-1.09,5.38-.48,2.62-.92,5.24-1.36,7.85C151.59,36.32,151.12,36.94,150.21,37Z"/><path class="cls-1" d="M188.58,51.79a10,10,0,0,1,.67-1.43q4-5.59,8.13-11.14c.66-.89,1.47-1.07,2.2-.53s.73,1.32.06,2.25l-8.08,11.18c-.44.62-1,1.11-1.78.76A5.09,5.09,0,0,1,188.58,51.79Z"/><path class="cls-1" d="M79,182.58a13.46,13.46,0,0,1-1,1.33c-2.17,2.12-4.38,4.2-6.55,6.33-.93.91-1.8,1.9-2.71,2.85s-1.65,1.07-2.33.47-.68-1.5.18-2.36c3.21-3.21,6.43-6.39,9.71-9.52a2,2,0,0,1,1.62-.26C78.26,181.52,78.53,182.1,79,182.58Z"/><path class="cls-1" d="M147.41,242.53c0,.38,0,.72,0,1.05a1.37,1.37,0,0,1-1.4,1.56c-.85,0-1.32-.54-1.42-1.42-.25-2.3-.5-4.6-.8-6.9-.23-1.81-.52-3.62-.79-5.43,0-.3-.07-.6-.1-.9-.09-.94.06-1.76,1.19-1.93.9-.14,1.52.52,1.68,1.68.49,3.52,1,7,1.49,10.54C147.34,241.37,147.36,242,147.41,242.53Z"/><path class="cls-1" d="M38.86,200.72a9.8,9.8,0,0,1-1.43,1.53c-1.93,1.34-3.93,2.56-5.85,3.9-1.37,1-2.68,2-4,3.1-.85.72-1.67.9-2.28.33a1.54,1.54,0,0,1,.25-2.37c1.92-1.54,3.92-3,5.92-4.41,1.48-1.06,3-2.11,4.53-3.07a2.52,2.52,0,0,1,1.72-.34C38.16,199.5,38.42,200.16,38.86,200.72Z"/><path class="cls-1" d="M132.76,215.56a5.14,5.14,0,0,1,.45,1.48c0,5,0,10,0,14.92a1.26,1.26,0,0,1-1.18,1.38,1.28,1.28,0,0,1-1.57-1.31q0-7,0-13.92a2.71,2.71,0,0,1,.24-.73Z"/><path class="cls-1" d="M44.42,196.82c-.39-.29-1-.54-1.15-.95a1.71,1.71,0,0,1,.34-1.55c1.51-1.23,3.12-2.33,4.7-3.46,2-1.42,4-2.81,5.95-4.23a1.49,1.49,0,0,1,2.2.11,1.38,1.38,0,0,1-.42,2.12c-3.5,2.51-7,5-10.53,7.48A7.6,7.6,0,0,1,44.42,196.82Z"/><path class="cls-1" d="M233.59,152.34a2.36,2.36,0,0,1-.81.13q-7.22-1.32-14.42-2.68c-1.13-.21-1.71-.86-1.58-1.67s.86-1.36,2-1.16c3.71.67,7.41,1.38,11.11,2.1a3.88,3.88,0,0,1,.8.38Z"/><path class="cls-1" d="M109.61,160.15a43.93,43.93,0,0,1-1,5.86,11.6,11.6,0,0,1-2.08,3.16c-1.52,2.08-3.08,4.13-4.62,6.2a1.41,1.41,0,0,1-2,.51,1.34,1.34,0,0,1-.33-2q4.91-6.82,9.87-13.61A.39.39,0,0,1,109.61,160.15Z"/><path class="cls-1" d="M180.36,45.71c-1.44,0-2.11-.92-1.67-1.93s1.08-2.05,1.63-3.07q2.07-3.85,4.17-7.7a4.06,4.06,0,0,1,.79-1.08,1.15,1.15,0,0,1,1.71,0,2.11,2.11,0,0,1,.41,1.67A16.8,16.8,0,0,1,186.05,36c-1.56,2.86-3.08,5.75-4.66,8.59A5.15,5.15,0,0,1,180.36,45.71Z"/><path class="cls-1" d="M201.14,228.85c-.23-.15-.53-.24-.68-.45q-3.87-5.15-7.71-10.33a1.4,1.4,0,0,1,.21-2.15,1.32,1.32,0,0,1,2,.41q3.87,5.16,7.7,10.34a2.48,2.48,0,0,1,.2.5Z"/><path class="cls-1" d="M235.33,84.13c-.18.21-.42.74-.83.93-3.7,1.71-7.43,3.37-11.16,5a1.31,1.31,0,0,1-1.77-.76,1.2,1.2,0,0,1,.55-1.73c1.1-.56,2.24-1,3.36-1.54,2.52-1.15,5-2.3,7.57-3.43A1.52,1.52,0,0,1,235.33,84.13Z"/><path class="cls-1" d="M209.58,148.15l-8.2-1.48c-1.21-.22-2.43-.41-3.63-.66a1.31,1.31,0,0,1-1.11-1.66,1.34,1.34,0,0,1,1.68-1.11c3.94.67,7.87,1.38,11.8,2.09a1.32,1.32,0,0,1,1.16,1.63C211.17,147.89,210.48,148.13,209.58,148.15Z"/><path class="cls-1" d="M133.23,34.41c0,2.06,0,4.12,0,6.18,0,1.1-.49,1.66-1.37,1.66s-1.38-.56-1.38-1.67q0-6.18,0-12.36c0-1,.59-1.71,1.43-1.61a1.39,1.39,0,0,1,1.32,1.62C133.22,30.29,133.23,32.35,133.23,34.41Z"/><path class="cls-1" d="M96.89,244.56c-.3,1-.51,1.7-.75,2.4q-1.47,4.33-3,8.66a5.88,5.88,0,0,1-.39.93,1.28,1.28,0,0,1-1.77.71,1.34,1.34,0,0,1-.81-1.82c1.05-3,2.07-6.07,3.1-9.11.24-.71.46-1.42.74-2.11a1.19,1.19,0,0,1,1.62-.78C96.17,243.65,96.52,244.2,96.89,244.56Z"/><path class="cls-1" d="M212.23,71.79a2.47,2.47,0,0,1,.59-.87q4.73-3.32,9.51-6.54a1.39,1.39,0,0,1,2.25.74c.22.84-.27,1.34-.88,1.76L216.3,72a18.3,18.3,0,0,1-2.15,1.39C213.21,73.82,212.2,73.09,212.23,71.79Z"/><path class="cls-1" d="M43.12,144.46a1.37,1.37,0,0,1-1.56-1.26,1.31,1.31,0,0,1,1.24-1.57c3.6-.46,7.2-.86,10.8-1.26a1.24,1.24,0,0,1,1.52,1.14,1.36,1.36,0,0,1-1.3,1.64c-2.37.31-4.75.55-7.13.83Z"/><path class="cls-1" d="M176.92,119c.88-1.33,1.58-2.38,2.29-3.43a.89.89,0,0,1,.4-.37c1.45-.45,2.92-.87,4.38-1.32,1.78-.54,3.54-1.14,5.33-1.64a13.56,13.56,0,0,1,2.84-.45,1.61,1.61,0,0,1,.39,1.16,1.7,1.7,0,0,1-.92,1C186.83,115.6,182,117.22,176.92,119Z"/><path class="cls-1" d="M61.28,227,63,228.62a2.3,2.3,0,0,1-.21.82c-2.11,2.89-4.25,5.77-6.38,8.65a1.41,1.41,0,1,1-2.31-1.61c2.25-3.12,4.53-6.21,6.81-9.31C61,227.07,61.16,227,61.28,227Z"/><path class="cls-1" d="M197.45,109.9a15.46,15.46,0,0,1,3-.69c3.93-.07,7-1.83,10-4.22,1.26-1,3.07-1.39,4.69-1.88.69-.21,1.27.41,1.4,1.16a1.39,1.39,0,0,1-1.08,1.61c-2,.67-3.9,1.3-5.84,2-3.26,1.12-6.5,2.26-9.75,3.36C198.6,111.67,198.14,111.46,197.45,109.9Z"/><path class="cls-1" d="M177.57,142.07l.54-2.68,5.62,1.06c1.9.37,3.81.74,5.71,1.13a1.42,1.42,0,0,1,1.29,1.67,1.47,1.47,0,0,1-1.86,1.15q-5.28-1-10.54-2.08A7.45,7.45,0,0,1,177.57,142.07Z"/><path class="cls-1" d="M201.14,228.85l1.75-1.68c1,1.33,2.13,2.63,3.12,4,1.21,1.66,2.35,3.37,3.49,5.07.63.95.57,1.81-.11,2.29s-1.56.3-2.25-.67q-3-4.2-5.94-8.42C201.1,229.3,201.15,229.05,201.14,228.85Z"/><path class="cls-1" d="M44.46,114l-.67,2.72c-2.38-.46-4.71-.9-7-1.38-1.21-.24-2.4-.54-3.6-.82a1.44,1.44,0,1,1,.62-2.81Z"/><path class="cls-1" d="M155.73,185.91a27.41,27.41,0,0,1,2.76,0,1.21,1.21,0,0,1,.76.65c1.33,2.81,2.63,5.63,3.94,8.44a1.44,1.44,0,0,1-.58,2,1.15,1.15,0,0,1-1.74-.45C159.14,193.11,157.48,189.56,155.73,185.91Z"/><path class="cls-1" d="M233.59,152.34l-2.93-2.9a1.38,1.38,0,0,1,.56-.15c3.74.71,7.48,1.41,11.21,2.18a2.64,2.64,0,0,1,1.45.9,1.24,1.24,0,0,1-1,1.93C239.73,153.76,236.66,153,233.59,152.34Z"/><path class="cls-1" d="M118.83,21.25c.39,2,.77,4,1.16,6a10.44,10.44,0,0,1,.27,1.66c0,.8-.41,1.51-1.19,1.5-.52,0-1.42-.53-1.51-1-.57-2.73-1-5.49-1.41-8.26a2.12,2.12,0,0,1,.18-1.42c.36-.52.94-1.18,1.47-1.22.78-.06,1.32.61,1.27,1.52,0,.37,0,.74-.07,1.12Z"/><path class="cls-1" d="M257.42,133.24c-1.46,0-2.92,0-4.38,0-1,0-1.63-.3-1.67-1.36,0-.91.51-1.42,1.61-1.42q4.54,0,9.11,0c1.1,0,1.64.49,1.61,1.41,0,1.07-.71,1.37-1.67,1.36-1.54,0-3.07,0-4.61,0Z"/><path class="cls-1" d="M133.25,186.05v3.86c0,2.32,0,4.65,0,7a1.3,1.3,0,0,1-1.37,1.45,1.28,1.28,0,0,1-1.4-1.41c0-3.26,0-6.52,0-9.78a1,1,0,0,1,.56-.76A17.29,17.29,0,0,1,133.25,186.05Z"/><path class="cls-1" d="M132.76,215.56l-2,1.82a2.65,2.65,0,0,1-.24-.79q0-5.21,0-10.41c0-1.13.57-1.72,1.51-1.62a1.23,1.23,0,0,1,1.25,1.3c0,2.84,0,5.68,0,8.52A3.72,3.72,0,0,1,132.76,215.56Z"/><path class="cls-1" d="M239,55.07a4.86,4.86,0,0,1-.81,1.32c-1.51,1.14-3.08,2.2-4.62,3.3-.64.45-1.29.89-1.9,1.38a1.43,1.43,0,0,1-2.1,0,1.35,1.35,0,0,1,.16-2.15A22.68,22.68,0,0,1,232,57.29c1.46-1,2.9-2.08,4.41-3A2.37,2.37,0,0,1,238,54C238.36,54,238.63,54.64,239,55.07Z"/><path class="cls-1" d="M173.46,255.22c0,1.22-.53,2.15-1.23,2.07-.91-.09-1.18-.76-1.41-1.62-.34-1.28-1-2.47-1.46-3.72a29.74,29.74,0,0,1-1.07-3.4,1.44,1.44,0,0,1,1.12-1.88c.91-.09,1.25.49,1.52,1.29.73,2.15,1.57,4.26,2.35,6.39A5.35,5.35,0,0,1,173.46,255.22Z"/><path class="cls-1" d="M173.64,178.34l1.82-2.24c2,2.17,4,4.24,6,6.34a1.31,1.31,0,0,1,0,1.92,1.26,1.26,0,0,1-1.91.13C177.48,182.41,175.48,180.26,173.64,178.34Z"/><path class="cls-1" d="M139.78,183.68c.27,2.26.55,4.44.81,6.61.09.74.2,1.48.24,2.23a1.36,1.36,0,0,1-1.22,1.6,1.42,1.42,0,0,1-1.62-1.36c-.32-2.44-.61-4.89-.85-7.34a1.2,1.2,0,0,1,.58-.87A18.83,18.83,0,0,1,139.78,183.68Z"/><path class="cls-1" d="M204.47,33.71a1.46,1.46,0,0,1-1.34-2.27c.78-1.19,1.64-2.33,2.47-3.49.59-.82,1.18-1.63,1.79-2.44a1.34,1.34,0,0,1,2-.32,1.25,1.25,0,0,1,.33,1.88q-2.17,3.13-4.46,6.19C205.05,33.52,204.63,33.62,204.47,33.71Z"/><path class="cls-1" d="M179.06,156.2l3,1.66c1.56.87,3.15,1.71,4.69,2.62.92.53,1.18,1.36.68,2.05s-1.26.85-2.12.31c-1.06-.67-2.21-1.2-3.32-1.79l-3.26-1.77C178.83,158.32,178.93,157.4,179.06,156.2Z"/><path class="cls-1" d="M13.83,94.86c-.44-.1-.89-.16-1.31-.3-1.69-.58-3.38-1.17-5.06-1.79-.66-.24-1.25-.64-1-1.48a1.34,1.34,0,0,1,1.86-.93L14,92.06a1.35,1.35,0,0,1,1.12,1.66c-.13.51-.7.9-1.07,1.34Z"/><path class="cls-1" d="M169,12.94c.32-1.07.57-1.93.84-2.78s.51-1.63.77-2.44c.32-1,1-1.47,1.92-1.19s1.22.93.85,2c-.42,1.27-.81,2.56-1.26,3.82a2.7,2.7,0,0,1-.72,1.23A1.92,1.92,0,0,1,170,14C169.58,13.91,169.32,13.29,169,12.94Z"/><path class="cls-1" d="M57.9,31.68a6.9,6.9,0,0,1-1.22-.92c-.87-1.12-1.71-2.27-2.51-3.44-.6-.86-.51-1.77.19-2.16a1.47,1.47,0,0,1,2.13.53c.84,1.19,1.77,2.32,2.53,3.56a2,2,0,0,1,0,1.54C58.93,31.15,58.37,31.34,57.9,31.68Z"/><path class="cls-1" d="M21.52,109.37c1.17.22,2.57.46,3.95.78a1.27,1.27,0,0,1,1,1.54A1.29,1.29,0,0,1,25,112.9a37.09,37.09,0,0,1-4.18-.79,1.34,1.34,0,0,1-1.13-1.67C19.87,109.64,20.48,109.31,21.52,109.37Z"/><path class="cls-1" d="M80.08,140c1.61-3.17,5.9-3.58,9.69-1.26Z"/><path class="cls-1" d="M72.65,97.58a8,8,0,0,0-1.21.56c-1.7,1.24-3.23.56-4.7-.44a1.34,1.34,0,0,1-.5-1.94,1.3,1.3,0,0,1,1.83-.56C69.54,95.92,71,96.7,72.65,97.58Z"/><path class="cls-1" d="M207,210.41a4.63,4.63,0,0,1,1.1.56c.72.7,1.41,1.44,2.07,2.2a1.24,1.24,0,0,1-.05,1.82,1.33,1.33,0,0,1-2,.09,17.06,17.06,0,0,1-2.11-2.31,1.7,1.7,0,0,1-.15-1.44C206,210.94,206.58,210.72,207,210.41Z"/><path class="cls-1" d="M235.45,206c1,0,3.16,1.46,3.24,2.16a1.76,1.76,0,0,1-.34,1.4,1.69,1.69,0,0,1-1.51.27,7.11,7.11,0,0,1-2.14-1.59,1.61,1.61,0,0,1-.16-1.41C234.7,206.37,235.25,206.12,235.45,206Z"/><path class="cls-1" d="M64.69,141.83a28.47,28.47,0,0,1-3.24.31A1.37,1.37,0,0,1,60.34,140c.39-.55.82-.79,1.48-.23S63.54,141,64.69,141.83Z"/><path class="cls-1" d="M133,52.19,130.75,50c-.24-.8.38-1.08.87-1s1.35.39,1.43.74A9.46,9.46,0,0,1,133,52.19Z"/><path class="cls-1" d="M114.44,180.8l2.37,2.06c-.52.82-1.16,1.24-2,.79C113.61,183,114.08,182,114.44,180.8Z"/></g></g></svg>