<svg xmlns="http://www.w3.org/2000/svg" viewBox="0 0 636.92 16.5"><defs><style>.cls-1,.cls-2{fill:#c1b49a;}.cls-1{stroke:#c1b49a;stroke-miterlimit:10;stroke-width:0.5px;}</style></defs><title>Asset 2</title><g id="Layer_2" data-name="Layer 2"><g id="Frames_edge" data-name="Frames edge"><line class="cls-1" x1="614.08" y1="5.32" x2="26.65" y2="5.32"/><path class="cls-2" d="M15.1,6.7c-3.52,3-7,6.13-10.67,9-.84.66-2.72,1.06-3.46.57-1.61-1.05-1-2.83.25-3.83C5.36,9.15,9.91,6.76,15.1,6.7Z"/><path class="cls-2" d="M14.8,5c-3.89-.1-7.55-.24-11.2-.26C1.73,4.7.14,4.31.31,2.11S2.12-.17,4,.13A22.24,22.24,0,0,1,14.8,5Z"/><circle class="cls-2" cx="19.82" cy="6.01" r="2.51"/><circle class="cls-2" cx="634.41" cy="6.01" r="2.51"/></g></g></svg>