<?xml version="1.0" encoding="utf-8"?>
<!-- Generator: Adobe Illustrator 22.0.1, SVG Export Plug-In . SVG Version: 6.00 Build 0)  -->
<svg version="1.1" id="Layer_1" xmlns="http://www.w3.org/2000/svg" xmlns:xlink="http://www.w3.org/1999/xlink" x="0px" y="0px"
	 viewBox="0 0 636.9 16.5" style="enable-background:new 0 0 636.9 16.5;" xml:space="preserve">
<style type="text/css">
	.st0{fill:none;stroke:#C1B49A;stroke-width:0.5;stroke-miterlimit:10;}
	.st1{fill:#C1B49A;}
</style>
<title>Asset 2</title>
<g id="Layer_2_1_">
	<g id="Frames_edge">
		<line class="st0" x1="610.3" y1="5.3" x2="22.8" y2="5.3"/>
		<path class="st1" d="M635.7,12.4c1.2,1,1.9,2.8,0.2,3.8c-0.7,0.5-2.6,0.1-3.5-0.6c-3.7-2.9-7.2-6-10.7-9
			C627,6.8,631.6,9.1,635.7,12.4z"/>
		<path class="st1" d="M632.9,0.1c1.9-0.3,3.5-0.2,3.7,2c0.2,2.2-1.4,2.6-3.3,2.6c-3.6,0-7.3,0.2-11.2,0.3
			C625.2,2.4,628.9,0.7,632.9,0.1z"/>
		<circle class="st1" cx="617.1" cy="6" r="2.5"/>
		
			<ellipse transform="matrix(1 -3.105607e-03 3.105607e-03 1 -1.865260e-02 7.820637e-03)" class="st1" cx="2.5" cy="6" rx="2.5" ry="2.5"/>
	</g>
</g>
</svg>
