<svg xmlns="http://www.w3.org/2000/svg" viewBox="0 0 114.07 114.27"><defs><style>.cls-1{fill:#c1b49a;}</style></defs><title>Asset 13</title><g id="Layer_2" data-name="Layer 2"><g id="illustrations"><path class="cls-1" d="M28.59,95.06c2.85,3.65,2.22,7.1.11,10.31-2.59,3.95-6.63,5.43-11.19,5a14.86,14.86,0,0,1-10.41-5.9,7.08,7.08,0,0,0-1.9-1.17,10.51,10.51,0,0,0-.51,2.17c-.09,2.26.08,4.53-.16,6.77-.09.75-1.22,2.07-1.63,2-1-.21-2.32-.94-2.56-1.76A16.78,16.78,0,0,1,0,107.62q0-50.49,0-101C0,5.41.11,4.18.09,3c0-2.06,1-3,3-2.88,1.23.06,2.46,0,3.7,0h101a16,16,0,0,1,4.28.15c.86.25,2.05,1.46,2,2.17a3.12,3.12,0,0,1-2,2.25c-2.74.28-5.53.1-9,.1,8.06,8.59,9.54,16.07,4.82,21.72-3.41,4.09-7.86,4.67-13.37,1.38.8-.14,1.27-.38,1.55-.24,3.8,1.94,7.28,1.32,10-1.76A10.07,10.07,0,0,0,108.21,15c-2.38-6.4-8.34-10-15.57-9.32A23.79,23.79,0,0,0,75.94,15c-2.8,3.51-5.06,7.45-7.57,11.19-4.62,6.88-11,10.19-19.35,9.62a13.49,13.49,0,0,1-9.66-4.73c-.81-.93-.88-2.49-1.29-3.76a15.54,15.54,0,0,1,3.42.11c1.58.4,3,1.22,4.6,1.7,9,2.75,15.36.7,21.16-6.75,2.4-3.07,4.6-6.33,7.27-9.14s5.77-5.11,9.55-8.38c-8.89,0-17.08,0-25.28.08-.31,0-1,1.37-.83,1.88.67,2.12,2,4.08,2.36,6.23a10.76,10.76,0,0,1-6.41,11.48c-4,1.77-9.11.73-11.72-2.66a13.46,13.46,0,0,1-1.93-4.41c-.2-.68.27-1.55.43-2.33a7.81,7.81,0,0,1,2.14.71c.84.57,1.44,1.48,2.26,2.07,3.58,2.55,7.66,2,9.64-1.29C56.6,13.57,55.34,9.1,52,7c-5.08-3.2-12.39-1.82-16.55,3.4-4.56,5.7-4.65,12-1.93,18.54S41.19,39,48.12,39.5c10,.65,17.28-4.12,22.8-12,2.29-3.27,4.35-6.7,6.91-9.7C72.57,29,66.58,39.61,52.46,41.23a25.93,25.93,0,0,1-9.07-.67c-3.11-.78-3.29-.4-2.6,2.65,2.6,11.36-1.16,20.53-10.36,27.55A2.46,2.46,0,0,1,28,71c1.53-1.46,3.15-2.85,4.58-4.4,5.73-6.23,8.69-13.35,6.49-21.91C36.22,33.65,22,27.93,12.3,34c-5,3.12-7.46,7.78-6.44,13.57a12.9,12.9,0,0,0,3.88,6.57c2.31,2.15,5.32,2,7.83-.22s2.47-5,1.3-7.88c-.38-.9-1.36-1.54-1.87-2.42a33.47,33.47,0,0,1-1.48-3.28c1.35,0,2.83-.3,4,.16a9.79,9.79,0,0,1,5.63,12.18,11.44,11.44,0,0,1-12.6,7.56,12.27,12.27,0,0,1-2.31-.83C8.63,58.68,7,57.93,5.4,57.19A50.23,50.23,0,0,0,4.69,63c-.09,6.9,0,13.81.45,21C10,76,17.47,71,24.51,65.46c5.77-4.52,7-10.83,5.37-17.76-.52-2.18-1.57-4.23-2.13-6.41a17.3,17.3,0,0,1-.11-3.82c1.27.53,2.84.75,3.77,1.64a15.42,15.42,0,0,1,4.65,14A21.11,21.11,0,0,1,25.9,68.5a121.8,121.8,0,0,0-11.13,7.65C10.31,79.69,7.08,84.38,6.33,90a23.35,23.35,0,0,0,1.06,10.76,12.26,12.26,0,0,0,14.51,7.52C27.25,106.84,29.47,102.58,28.59,95.06Zm3.84-62.79c-3.67-9.71-3.92-18,3-25.43,1.52-1.62.08-2-1.26-2-8.78,0-17.57,0-26.35,0-2.38,0-3.2,1.12-3.18,3.39,0,8.58,0,17.16,0,25.74a11.09,11.09,0,0,0,.47,2.23,19.64,19.64,0,0,0,2-1c2.6-1.55,5-3.55,7.79-4.61C20.56,28.48,26.15,29.67,32.43,32.27Z"/><path class="cls-1" d="M17,88.37c6.23-4.2,13-5,20.08-4.18a6.31,6.31,0,0,1,3.42,1.19c.92.85,2.08,2.8,1.71,3.38-.71,1.14-2.34,1.83-3.73,2.36-.59.22-1.52-.42-2.28-.71C30,88.08,23.72,86.48,17,88.37Z"/><path class="cls-1" d="M87.13,18.63c1.3,6.16,2.76,12.37,3.81,18.64.24,1.43-.51,3.93-1.58,4.5-2.31,1.23-4-.65-4.41-2.8C83.71,31.87,83.82,24.87,87.13,18.63Z"/><path class="cls-1" d="M83.72,17.85C83,23.09,82.19,28,81.57,33c-.31,2.52-1.08,4.62-4,4s-2.8-2.81-2.09-5.25A30.14,30.14,0,0,1,83.72,17.85Z"/><path class="cls-1" d="M18.16,83.4A29.48,29.48,0,0,1,32,75.27c2.32-.61,4.86-.75,5.3,2.25.4,2.79-1.66,3.63-4.28,3.87C28.24,81.84,23.5,82.65,18.16,83.4Z"/></g></g></svg>