<svg xmlns="http://www.w3.org/2000/svg" viewBox="0 0 114.07 114.27"><defs><style>.cls-1{fill:#c1b49a;}</style></defs><title>Asset 16</title><g id="Layer_2" data-name="Layer 2"><g id="illustrations"><path class="cls-1" d="M92.18,108.31a12.27,12.27,0,0,0,14.51-7.52A23.62,23.62,0,0,0,107.75,90c-.76-5.65-4-10.34-8.44-13.88A124.62,124.62,0,0,0,88.18,68.5,21.1,21.1,0,0,1,78,53.12a15.43,15.43,0,0,1,4.66-14c.93-.89,2.49-1.11,3.77-1.64a16.71,16.71,0,0,1-.12,3.82c-.55,2.18-1.61,4.23-2.12,6.41-1.65,6.93-.4,13.24,5.37,17.76C96.6,71,104.09,76,108.93,84c.49-7.17.54-14.08.45-21a52.48,52.48,0,0,0-.7-5.82c-1.62.74-3.24,1.49-4.87,2.2a12.27,12.27,0,0,1-2.31.83c-5.15,1.07-11.08-2.51-12.6-7.56a9.79,9.79,0,0,1,5.64-12.18c1.18-.46,2.66-.13,4-.16a31.26,31.26,0,0,1-1.48,3.28c-.51.88-1.49,1.52-1.86,2.42C94,48.86,94,51.67,96.5,53.9s5.52,2.37,7.83.22a12.84,12.84,0,0,0,3.89-6.57c1-5.79-1.47-10.45-6.45-13.57-9.69-6-23.92-.33-26.77,10.74-2.2,8.56.76,15.68,6.5,21.91,1.43,1.55,3,2.94,4.57,4.4a2.46,2.46,0,0,1-2.43-.27c-9.19-7-13-16.19-10.36-27.55.7-3.05.51-3.43-2.59-2.65a26,26,0,0,1-9.08.67C47.49,39.61,41.5,29,36.24,17.79c2.57,3,4.63,6.43,6.91,9.7C48.67,35.38,56,40.15,66,39.5c6.94-.46,11.88-4.09,14.59-10.56S83.17,16.1,78.62,10.4C74.45,5.18,67.14,3.8,62.06,7c-3.32,2.1-4.58,6.57-2.72,9.64,2,3.26,6.07,3.84,9.64,1.29.83-.59,1.42-1.5,2.26-2.07a7.76,7.76,0,0,1,2.15-.71c.16.78.62,1.65.42,2.33a13.26,13.26,0,0,1-1.93,4.41c-2.6,3.39-7.69,4.43-11.72,2.66a10.78,10.78,0,0,1-6.41-11.48c.38-2.15,1.69-4.11,2.36-6.23.17-.51-.52-1.87-.83-1.88-8.19-.1-16.39-.08-25.27-.08,3.77,3.27,6.9,5.6,9.54,8.38s4.88,6.07,7.27,9.14C52.63,29.85,59,31.9,68,29.15c1.56-.48,3-1.3,4.6-1.7A15.62,15.62,0,0,1,76,27.34c-.41,1.27-.49,2.83-1.29,3.76a13.53,13.53,0,0,1-9.67,4.73c-8.34.57-14.73-2.74-19.35-9.62-2.51-3.74-4.76-7.68-7.56-11.19a23.81,23.81,0,0,0-16.7-9.34C14.2,5,8.24,8.6,5.87,15A10.07,10.07,0,0,0,8,25.84c2.74,3.08,6.22,3.7,10,1.76.28-.14.76.1,1.55.24-5.51,3.29-10,2.71-13.37-1.38C1.46,20.81,2.93,13.33,11,4.74c-3.41,0-6.2.18-8.95-.1A3.14,3.14,0,0,1,0,2.39C0,1.68,1.15.47,2,.22A16,16,0,0,1,6.29.07h101c1.23,0,2.46.07,3.69,0C113,0,114,.89,114,3c0,1.23.07,2.46.07,3.69q0,50.49,0,101a17.14,17.14,0,0,1-.31,4.88c-.25.82-1.59,1.55-2.57,1.76-.4.09-1.54-1.23-1.62-2-.24-2.24-.08-4.51-.16-6.77a11.23,11.23,0,0,0-.52-2.17,7.08,7.08,0,0,0-1.9,1.17c-2.72,3.33-6.12,5.54-10.41,5.9-4.56.39-8.59-1.09-11.19-5-2.11-3.21-2.74-6.66.12-10.31C84.6,102.58,86.82,106.84,92.18,108.31Zm6.93-77.69c2.78,1.06,5.19,3.06,7.79,4.61a20.68,20.68,0,0,0,2,1,11.09,11.09,0,0,0,.47-2.23c0-8.58,0-17.16,0-25.74,0-2.27-.81-3.4-3.18-3.39-8.79,0-17.57,0-26.36,0-1.33,0-2.78.36-1.25,2,6.92,7.39,6.68,15.72,3,25.43C87.93,29.67,93.51,28.48,99.11,30.62Z"/><path class="cls-1" d="M97.07,88.37c-6.23-4.2-13-5-20.08-4.18a6.31,6.31,0,0,0-3.42,1.19c-.92.85-2.07,2.8-1.71,3.38.72,1.14,2.35,1.83,3.73,2.36.59.22,1.52-.42,2.28-.71C84.08,88.08,90.36,86.48,97.07,88.37Z"/><path class="cls-1" d="M26.94,18.63C25.65,24.79,24.18,31,23.13,37.27c-.24,1.43.52,3.93,1.58,4.5,2.31,1.23,4-.65,4.41-2.8C30.36,31.87,30.25,24.87,26.94,18.63Z"/><path class="cls-1" d="M30.35,17.85C31.11,23.09,31.89,28,32.5,33c.31,2.52,1.09,4.62,4,4s2.8-2.81,2.09-5.25A30.24,30.24,0,0,0,30.35,17.85Z"/><path class="cls-1" d="M95.92,83.4a29.53,29.53,0,0,0-13.84-8.13c-2.32-.61-4.87-.75-5.3,2.25-.41,2.79,1.65,3.63,4.28,3.87C85.83,81.84,90.57,82.65,95.92,83.4Z"/></g></g></svg>