
<svg xmlns="http://www.w3.org/2000/svg" version="1.1" xmlns:xlink="http://www.w3.org/1999/xlink" preserveAspectRatio="none" x="0px" y="0px" width="512px" height="512px" viewBox="0 0 512 512">
<defs/>

<g id="Layer_1">
<g transform="matrix( 1, 0, 0, 1, 0,0) ">
<g>
<g>
<path fill="#005470" stroke="none" d="
M 366.65 294.85
Q 355.5 291.5 342.2 291.5
L 231.15 291.5
Q 217.85 304.85 196.75 304.85 176.75 304.85 163.4 291.5
L 32.4 291.5 32.4 298.15 90.15 298.15
Q 54.6 307.05 32.4 326.5 10.2 345.9 10.2 375.9 10.2 392.55 19.65 403.1 29.05 413.65 43.5 413.65 54.6 413.65 61.3 407 67.95 400.35 67.95 390.35 67.95 380.35 61.85 374.8 55.7 369.25 47.95 369.25 42.4 369.25 38.5 372.55 34.65 375.9 34.65 380.35 34.65 387 41.3 387 46.85 387 46.85 382.55 45.7 382.55 45.15 382 44.6 381.45 44.6 380.35 44.6 378.7 45.75 377.7 46.85 376.75 49.05 376.45 53.5 375.9 57.4 379.8 61.3 383.7 61.3 390.35 61.3 397 56.3 402 51.3 407 43.5 407 31.3 407 24.1 397.55 16.85 388.15 16.85 374.8 16.85 355.9 32.4 338.15 35.75 344.8 45.75 344.8
L 49.05 344.8
Q 44.6 323.75 69.05 312.6 105.75 298.2 145.65 298.2
L 161.2 298.2
Q 177.85 311.5 196.75 311.5 216.7 311.5 233.4 298.2
L 338.9 298.2
Q 356.65 298.2 365 305.4 373.3 312.65 373.3 321.5 373.3 327.05 370 330.4 366.65 333.7 362.2 333.7 356.6 333.7 353.9 331.5 351.1 329.3 351.1 325.95 351.1 320.4 355.55 320.4 357.75 320.4 359.45 322.05 360.25 322.9 360.4 323.6 360.55 324.3 360 324.8 364.4 325.95 364.4 320.4 364.4 317.05 362.45 315.4 360.5 313.7 356.65 313.7 352.2 313.7 348.3 316.5 344.45 319.3 344.45 325.95 344.45 332.6 349.45 337.05 354.4 341.5 361.1 341.5 370 341.5 374.95 335.35 379.95 329.3 379.95 321.5 379.95 311.55 374.4 305.95 376.05 302.05 374.15 299.3 372.2 296.5 366.65 294.85
M 429.95 192.7
Q 423.25 192.7 416.6 196 422.15 197.15 426.05 202.7 429.95 208.25 429.95 213.8 429.95 241.55 377.75 251.55
L 221.15 251.55
Q 218.95 242.65 212.3 237.1 205.6 231.55 196.75 231.55 189 231.55 182.3 237.1 175.65 242.7 173.4 251.55
L 0.2 251.55 0.2 260.4 173.45 260.4
Q 175.65 269.3 182.3 274.85 188.95 280.4 196.75 280.4 205.65 280.4 212.3 274.85 218.95 269.35 221.2 260.4
L 377.75 260.4
Q 429.95 270.4 429.95 298.15 429.95 303.75 426.05 309.3 422.15 314.85 416.6 315.95 423.3 319.25 429.95 319.25 444.35 319.25 453.8 307.6 463.25 295.95 459.9 279.3 486.55 279.3 512.1 256 486.55 232.65 459.9 232.65 463.25 216 453.8 204.35 444.35 192.7 429.95 192.7
M 344.45 186
Q 344.45 190.45 347.75 194.35 351.1 198.25 355.55 198.25 364.4 198.25 364.4 191.55 364.4 187.1 361.1 187.1
L 360 187.1
Q 361.1 188.25 359.4 189.9 357.75 191.55 355.55 191.55 352.2 191.55 351.65 188.25 351.1 184.9 353.85 181.55 356.65 178.25 362.2 178.25 366.65 178.25 370 181.55 373.3 184.9 373.3 190.45 373.3 199.35 364.95 206.55 356.65 213.75 338.9 213.75
L 233.35 213.75
Q 216.7 200.45 196.75 200.45 177.85 200.45 161.2 213.75
L 145.65 213.75
Q 105.65 213.75 69.05 199.35 47.95 189.35 47.95 173.8 47.95 169.35 49.05 167.15 34.6 167.15 32.4 173.8 16.85 156.1 16.85 137.15 16.85 123.8 24.05 114.4 31.3 104.95 43.5 104.95 51.25 104.95 56.25 109.95 61.25 114.95 61.25 121.6 61.25 128.3 57.95 132.15 54.6 136.05 50.15 136.05 47.4 136.05 46 134.95 44.6 133.85 44.6 131.6 44.6 129.4 46.85 129.4 45.7 123.85 40.15 124.4 37.4 124.65 36 126.5 34.6 128.3 34.6 131.6 34.6 136.05 38.5 139.4 42.4 142.7 47.95 142.7 55.75 142.7 61.8 137.15 67.95 131.6 67.95 121.6 67.95 110.5 61.25 104.4 54.6 98.3 43.5 98.3 30.2 98.3 20.2 107.75 10.2 117.2 10.2 136.05 10.2 166.05 32.4 185.45 54.6 204.9 90.15 213.8
L 32.4 213.8 32.4 220.45 163.4 220.45
Q 176.75 207.1 196.75 207.1 217.85 207.1 231.15 220.45
L 342.2 220.45
Q 355.55 220.45 366.65 217.1 377.75 213.75 374.4 206 379.95 200.45 379.95 190.45 379.95 182.7 374.95 176.55 369.95 170.45 361.1 170.45 354.45 170.45 349.45 174.9 344.45 179.35 344.45 186 Z"/>
</g>
</g>
</g>
</g>
</svg>
