<?xml version="1.0" encoding="utf-8"?>
<!-- Generator: Adobe Illustrator 22.0.1, SVG Export Plug-In . SVG Version: 6.00 Build 0)  -->
<svg version="1.1" id="Layer_1" xmlns="http://www.w3.org/2000/svg" xmlns:xlink="http://www.w3.org/1999/xlink" x="0px" y="0px"
	 viewBox="0 0 8192 7767.2" style="enable-background:new 0 0 8192 7767.2;" xml:space="preserve">
<style type="text/css">
	.st0{fill:#005470;}
</style>
<title>letterAccet_Right</title>
<g>
	<path class="st0" d="M7816.6,3635.3H5245.8c-21.9-87.8-65.9-159.1-131.8-214.2c-65.9-54.8-137.2-82.4-214.2-82.4
		c-87.8,0-164.8,27.6-230.7,82.4c-65.9,55.1-109.7,126.4-131.8,214.2H2213.5c-516.3-98.9-774.5-285.6-774.5-560.3
		c0-54.8,19.3-109.7,57.7-164.8c38.6-54.8,85.2-87.8,140.1-98.9c-65.9-33-131.8-49.4-197.8-49.4c-142.7,0-260.8,57.7-354.3,173
		c-93.2,115.4-123.6,255.4-90.6,420.2c-263.7,0-521.7,115.4-774.5,346.1C472.4,3932,730.4,4047.3,994,4047.3
		c-33,164.8-2.6,304.9,90.6,420.2c93.5,115.4,211.7,173,354.3,173c65.9,0,131.8-16.5,197.8-49.4c-54.8-10.8-101.5-43.8-140.1-98.9
		c-38.4-54.8-57.7-109.7-57.7-164.8c0-274.5,258.3-461.4,774.5-560.3h2323.6c22.1,88.1,65.9,159.4,131.8,214.2
		c65.9,55.1,142.9,82.4,230.7,82.4c77,0,148.3-27.3,214.2-82.4c65.9-54.8,110-126.2,131.8-214.2h2570.8"/>
	<path class="st0" d="M7915.5,3717.7"/>
	<path class="st0" d="M7338.7,2654.8c219.9-192.1,329.6-436.7,329.6-733.3c0-186.7-49.4-326.8-148.3-420.2
		c-98.9-93.2-214.2-140.1-346.1-140.1c-109.7,0-197.8,30.4-263.7,90.6c-65.9,60.5-98.9,145.7-98.9,255.4
		c0,98.9,30.4,175.9,90.6,230.7c60.5,55.1,129.3,82.4,206,82.4c55.1,0,101.7-16.5,140.1-49.4c38.6-33,57.7-71.3,57.7-115.4
		c0-65.9-27.3-101.5-82.4-107.1c-54.8-5.4-87.8,19.3-98.9,74.2c22.1,0,33,11.1,33,33c0,44-27.3,65.9-82.4,65.9
		c-43.8,0-82.4-19.1-115.4-57.7c-33-38.4-49.4-90.6-49.4-156.6c0-65.9,24.7-123.6,74.2-173s112.8-74.2,189.5-74.2
		c121,0,217.1,46.9,288.4,140.1c71.6,93.5,107.1,206,107.1,337.8c0,186.9-76.7,368.2-230.7,543.8c-21.9-65.9-104.3-98.9-247.2-98.9
		c11.1,22.1,16.5,55.1,16.5,98.9c0,154-104.3,280.2-313.1,379c-362.6,142.9-741.6,214.2-1137.1,214.2h-230.7
		c-164.8-131.8-340.4-197.8-527.3-197.8c-197.8,0-379,65.9-543.8,197.8H2790.3c-175.6,0-304.9-35.5-387.3-107.1
		c-82.4-71.3-123.6-150.9-123.6-239c0-54.8,16.5-98.9,49.4-131.8c33-33,71.6-49.4,115.4-49.4c55.1,0,96.3,16.5,123.6,49.4
		c27.6,33,38.6,65.9,33,98.9c-5.4,33-24.7,49.4-57.7,49.4c-21.9,0-41.2-8.2-57.7-24.7c-16.5-16.5-19.1-30.1-8.2-41.2h-16.5
		c-33,0-49.4,22.1-49.4,65.9c0,65.9,44,98.9,131.8,98.9c44,0,82.4-19.1,115.4-57.7c33-38.4,49.4-79.6,49.4-123.6
		c0-65.9-24.7-120.8-74.2-164.8c-49.4-43.8-107.1-65.9-173-65.9c-87.8,0-156.6,30.4-206,90.6c-49.4,60.5-74.2,129.3-74.2,206
		c0,98.9,27.6,175.9,82.4,230.7c-33,77,5.7,131.8,115.4,164.8c110,33,230.7,49.4,362.6,49.4h1648
		c131.8-131.8,302.3-197.8,510.9-197.8c197.8,0,362.6,65.9,494.4,197.8h1944.6V3075h-856.9
		C6833.5,2987.2,7119.1,2847.1,7338.7,2654.8z"/>
	<path class="st0" d="M2378.3,4278c-109.7,33-148.3,88.1-115.4,164.8c-54.8,55.1-82.4,131.8-82.4,230.7c0,77,24.7,145.7,74.2,206
		c49.4,60.5,118.2,90.6,206,90.6c65.9,0,123.6-21.9,173-65.9c49.4-43.8,74.2-98.9,74.2-164.8s-19.1-112.5-57.7-140.1
		c-38.4-27.3-79.6-41.2-123.6-41.2c-76.7,0-115.4,33-115.4,98.9c0,55.1,22.1,77,65.9,65.9c-10.8-10.8-8.2-24.7,8.2-41.2
		c16.5-16.5,35.8-24.7,57.7-24.7c44,0,65.9,27.6,65.9,82.4c0,33-13.6,60.5-41.2,82.4c-27.3,22.1-68.5,33-123.6,33
		c-43.8,0-82.4-16.5-115.4-49.4c-33-33-49.4-76.7-49.4-131.8c0-87.8,41.2-167.4,123.6-239c82.4-71.3,211.7-107.1,387.3-107.1h1565.6
		c164.8,131.8,346.1,197.8,543.8,197.8c186.9,0,362.6-65.9,527.3-197.8h230.7c395.5,0,774.5,71.6,1137.1,214.2
		c241.8,110,340.7,269.3,296.6,477.9h49.4c98.9,0,164.8-33,197.8-98.9c154,175.9,230.7,357.1,230.7,543.8
		c0,131.8-35.5,244.6-107.1,337.8c-71.3,93.5-167.4,140.1-288.4,140.1c-76.7,0-140.1-24.7-189.5-74.2s-74.2-107.1-74.2-173
		c0-65.9,19.3-117.9,57.7-156.6c38.6-38.4,79.8-54.8,123.6-49.4c44,5.7,65.9,24.7,65.9,57.7c0,22.1-10.8,33-33,33
		c0,44,27.6,65.9,82.4,65.9c65.9,0,98.9-33,98.9-98.9c0-43.8-19.1-82.4-57.7-115.4c-38.4-33-85-49.4-140.1-49.4
		c-76.7,0-145.5,27.6-206,82.4c-60.3,55.1-90.6,131.8-90.6,230.7s33,181.3,98.9,247.2c65.9,65.9,154,98.9,263.7,98.9
		c142.9,0,261.1-52,354.3-156.6c93.5-104.3,140.1-239,140.1-403.8c0-296.6-109.7-541-329.6-733.3
		c-219.6-192.1-505.2-332.2-856.9-420.2h856.9v-98.9H5394.1c-131.8,131.8-296.6,197.8-494.4,197.8c-208.6,0-379-65.9-510.9-197.8
		h-1648C2609.1,4228.6,2488.3,4245.1,2378.3,4278z"/>
</g>
</svg>
