
<svg xmlns="http://www.w3.org/2000/svg" version="1.1" xmlns:xlink="http://www.w3.org/1999/xlink" preserveAspectRatio="none" x="0px" y="0px" width="512px" height="512px" viewBox="0 0 512 512">
<defs/>

<g id="Layer_1">
<g transform="matrix( 1, 0, 0, 1, 0,0) ">
<g>
<g>
<path fill="#005470" stroke="none" d="
M 350.95 298.2
L 366.5 298.2
Q 406.4 298.2 443.1 312.6 467.55 323.75 463.1 344.8
L 466.4 344.8
Q 476.4 344.8 479.75 338.15 495.3 355.9 495.3 374.8 495.3 388.15 488.05 397.55 480.85 407 468.65 407 460.85 407 455.85 402 450.85 397 450.85 390.35 450.85 383.7 454.75 379.8 458.65 375.9 463.1 376.45 465.3 376.75 466.4 377.7 467.55 378.7 467.55 380.35 467.55 381.45 467 382 466.45 382.55 465.3 382.55 465.3 387 470.85 387 477.5 387 477.5 380.35 477.5 375.9 473.65 372.55 469.75 369.25 464.2 369.25 456.45 369.25 450.3 374.8 444.2 380.35 444.2 390.35 444.2 400.35 450.85 407 457.55 413.65 468.65 413.65 483.1 413.65 492.5 403.1 501.95 392.55 501.95 375.9 501.95 345.9 479.75 326.5 457.55 307.05 422 298.15
L 479.75 298.15 479.75 291.5 348.75 291.5
Q 335.4 304.85 315.4 304.85 294.3 304.85 281 291.5
L 169.95 291.5
Q 156.65 291.5 145.5 294.85 139.95 296.5 138 299.3 136.1 302.05 137.75 305.95 132.2 311.55 132.2 321.5 132.2 329.3 137.2 335.35 142.15 341.5 151.05 341.5 157.75 341.5 162.7 337.05 167.7 332.6 167.7 325.95 167.7 319.3 163.85 316.5 159.95 313.7 155.5 313.7 151.65 313.7 149.7 315.4 147.75 317.05 147.75 320.4 147.75 325.95 152.15 324.8 151.6 324.3 151.75 323.6 151.9 322.9 152.7 322.05 154.4 320.4 156.6 320.4 161.05 320.4 161.05 325.95 161.05 329.3 158.25 331.5 155.55 333.7 149.95 333.7 145.5 333.7 142.15 330.4 138.85 327.05 138.85 321.5 138.85 312.65 147.15 305.4 155.5 298.2 173.25 298.2
L 278.75 298.2
Q 295.45 311.5 315.4 311.5 334.3 311.5 350.95 298.2
M 329.85 274.85
Q 336.5 269.3 338.7 260.4
L 511.95 260.4 511.95 251.55 338.75 251.55
Q 336.5 242.7 329.85 237.1 323.15 231.55 315.4 231.55 306.55 231.55 299.85 237.1 293.2 242.65 291 251.55
L 134.4 251.55
Q 82.2 241.55 82.2 213.8 82.2 208.25 86.1 202.7 90 197.15 95.55 196 88.9 192.7 82.2 192.7 67.8 192.7 58.35 204.35 48.9 216 52.25 232.65 25.6 232.65 0.05 256 25.6 279.3 52.25 279.3 48.9 295.95 58.35 307.6 67.8 319.25 82.2 319.25 88.85 319.25 95.55 315.95 90 314.85 86.1 309.3 82.2 303.75 82.2 298.15 82.2 270.4 134.4 260.4
L 290.95 260.4
Q 293.2 269.35 299.85 274.85 306.5 280.4 315.4 280.4 323.2 280.4 329.85 274.85
M 501.95 136.05
Q 501.95 117.2 491.95 107.75 481.95 98.3 468.65 98.3 457.55 98.3 450.9 104.4 444.2 110.5 444.2 121.6 444.2 131.6 450.35 137.15 456.4 142.7 464.2 142.7 469.75 142.7 473.65 139.4 477.55 136.05 477.55 131.6 477.55 128.3 476.15 126.5 474.75 124.65 472 124.4 466.45 123.85 465.3 129.4 467.55 129.4 467.55 131.6 467.55 133.85 466.15 134.95 464.75 136.05 462 136.05 457.55 136.05 454.2 132.15 450.9 128.3 450.9 121.6 450.9 114.95 455.9 109.95 460.9 104.95 468.65 104.95 480.85 104.95 488.1 114.4 495.3 123.8 495.3 137.15 495.3 156.1 479.75 173.8 477.55 167.15 463.1 167.15 464.2 169.35 464.2 173.8 464.2 189.35 443.1 199.35 406.5 213.75 366.5 213.75
L 350.95 213.75
Q 334.3 200.45 315.4 200.45 295.45 200.45 278.8 213.75
L 173.25 213.75
Q 155.5 213.75 147.2 206.55 138.85 199.35 138.85 190.45 138.85 184.9 142.15 181.55 145.5 178.25 149.95 178.25 155.5 178.25 158.3 181.55 161.05 184.9 160.5 188.25 159.95 191.55 156.6 191.55 154.4 191.55 152.75 189.9 151.05 188.25 152.15 187.1
L 151.05 187.1
Q 147.75 187.1 147.75 191.55 147.75 198.25 156.6 198.25 161.05 198.25 164.4 194.35 167.7 190.45 167.7 186 167.7 179.35 162.7 174.9 157.7 170.45 151.05 170.45 142.2 170.45 137.2 176.55 132.2 182.7 132.2 190.45 132.2 200.45 137.75 206 134.4 213.75 145.5 217.1 156.6 220.45 169.95 220.45
L 281 220.45
Q 294.3 207.1 315.4 207.1 335.4 207.1 348.75 220.45
L 479.75 220.45 479.75 213.8 422 213.8
Q 457.55 204.9 479.75 185.45 501.95 166.05 501.95 136.05 Z"/>
</g>
</g>
</g>
</g>
</svg>
