
<svg xmlns="http://www.w3.org/2000/svg" version="1.1" xmlns:xlink="http://www.w3.org/1999/xlink" preserveAspectRatio="none" x="0px" y="0px" width="512px" height="512px" viewBox="0 0 512 512">
<defs/>

<g id="Layer_1">
<g transform="matrix( 0.0673828125, 0, 0, 0.0673828125, 0.05,98.3) ">
<g>
<g>
<path fill="#862F2C" stroke="none" d="
M 7596.7 2405.95
L 7597.05 2274.1 5026.2 2274.1
Q 4993.4 2142.7 4894.45 2059.9 4795.35 1977.5 4680.2 1977.5 4548.75 1977.5 4449.5 2059.9 4350.85 2142.4 4317.7 2274.1
L 1993.95 2274.1
Q 1219.45 2125.75 1219.45 1713.8 1219.45 1631.8 1277.1 1549 1335.05 1466.7 1417.2 1450.1 1318.55 1400.7 1219.4 1400.7 1005.4 1400.7 865.1 1573.7 725.1 1747.1 774.5 1993.9 379.3 1993.9 0 2340 379.05 2686.1 774.45 2686.1 725 2933 865 3106.3 1005.15 3279.3 1219.3 3279.3 1318 3279.3 1417.1 3229.9 1334.95 3213.8 1277 3131 1219.35 3048.8 1219.35 2966.25 1219.4 2554.35 1993.8 2405.95
L 4317.45 2405.95
Q 4350.6 2538.15 4449.2 2620.15 4547.7 2702.5 4679.95 2702.5 4795.5 2702.5 4894.15 2620.15 4993.3 2537.7 5025.95 2405.95
L 7596.7 2405.95
M 5207.3 2966.3
L 5438.05 2966.3
Q 6030.45 2966.3 6575.15 3180.5 6937.85 3345.5 6871.75 3658.4
L 6921.15 3658.4
Q 7069.4 3658.4 7118.95 3559.5 7349.65 3823 7349.65 4103.3 7349.65 4301.7 7242.55 4441.1 7135.7 4581.2 6954.15 4581.2 6838.7 4581.2 6764.65 4507 6690.45 4432.65 6690.45 4334 6690.45 4235.45 6748.15 4177.4 6805.95 4119.9 6871.75 4128 6904.8 4132.3 6921.2 4146.6 6937.65 4161 6937.65 4185.7 6937.65 4202.3 6929.5 4210.5 6921.3 4218.7 6904.65 4218.7 6904.65 4284.6 6987.05 4284.6 7085.95 4284.6 7085.95 4185.7 7085.95 4119.65 7028.2 4070.3 6970.7 4020.9 6888.1 4020.9 6773.05 4020.9 6682.1 4103.3 6591.5 4186.1 6591.5 4334 6591.5 4482.3 6690.4 4581.2 6789.3 4680.1 6954.1 4680.1 7168.85 4680.1 7308.4 4523.5 7448.5 4367.2 7448.5 4119.7 7448.45 3674.6 7118.9 3386.4 6789.35 3098.15 6262 2966.2
L 7118.9 2966.2 7118.9 2867.3 5174.55 2867.3
Q 4976.75 3065.1 4680.15 3065.1 4367.05 3065.1 4169.25 2867.3
L 2521.25 2867.3
Q 2323.75 2867.45 2158.75 2916.8 2076.5 2941.55 2047.6 2982.8 2018.7 3024.1 2043.35 3081.6 1960.95 3164.45 1960.95 3312.3 1960.95 3427.9 2035.15 3518.3 2109.15 3608.9 2241.15 3608.9 2340.15 3608.9 2414.15 3543 2488.35 3477.3 2488.35 3378.25 2488.35 3279.4 2430.65 3238.15 2372.65 3196.9 2307.05 3196.9 2249.5 3196.9 2220.6 3221.65 2191.65 3246.4 2191.65 3295.8 2191.65 3378.4 2257.55 3361.7 2249.45 3353.6 2251.45 3343.25 2253.5 3332.85 2265.75 3320.5 2290.45 3295.8 2323.45 3295.8 2389.3 3295.8 2389.3 3378.2 2389.3 3427.9 2348.1 3460.6 2307.35 3493.6 2224.5 3493.6 2158.65 3493.6 2109.1 3444.2 2059.75 3394.85 2059.75 3312.4 2059.75 3180.8 2183.35 3073.4 2307.1 2966.3 2570.65 2966.3
L 4136.25 2966.3
Q 4383.55 3164.1 4680.05 3164.1 4960.35 3164.1 5207.3 2966.3
M 7448.75 560.3
Q 7448.75 280.15 7300.45 140.1 7151.75 0 6954.35 0 6789.85 0 6690.65 90.6 6591.75 181.4 6591.75 346 6591.75 494.2 6682.35 576.7 6772.8 659.1 6888.35 659.1 6970.8 659.1 7028.45 609.7 7086.15 560.35 7086.15 494.3 7086.15 444.85 7065.6 418.15 7045.05 391.4 7003.75 387.2 6921.5 379.1 6904.85 461.4 6937.85 461.4 6937.85 494.4 6937.85 527.4 6917.3 543.85 6896.75 560.3 6855.45 560.3 6789.4 560.3 6740.05 502.6 6690.65 445.1 6690.65 346 6690.65 247.05 6764.85 173 6839.2 98.8 6954.35 98.8 7135.55 98.8 7242.75 238.9 7349.85 378.75 7349.85 576.7 7349.85 857.45 7119.15 1120.5 7086.25 1021.65 6871.95 1021.65 6888.45 1054.5 6888.45 1120.5 6888.45 1351.35 6575.35 1499.5 6031.8 1713.7 5438.25 1713.7
L 5207.55 1713.7
Q 4960.2 1515.9 4680.25 1515.9 4383.55 1515.9 4136.45 1713.7
L 2570.75 1713.7
Q 2306.7 1713.7 2183.45 1606.6 2059.8 1499.6 2059.8 1367.6 2059.8 1285.2 2109.2 1235.8 2158.6 1186.4 2224.6 1186.4 2307.2 1186.4 2348.2 1235.8 2389.6 1285.3 2381.2 1334.7 2373.1 1384.1 2323.5 1384.1 2290.5 1384.1 2265.8 1359.4 2241.25 1334.85 2257.6 1318.2
L 2241.1 1318.2
Q 2191.75 1318.2 2191.75 1384.1 2191.75 1483 2323.55 1483 2389.6 1483 2438.95 1425.3 2488.3 1367.85 2488.3 1301.7 2488.3 1202.85 2414.1 1136.9 2339.85 1071 2241.1 1071 2109.45 1071 2035.1 1161.6 1960.95 1252.5 1960.95 1367.6 1960.95 1515.85 2043.3 1598.3 1993.9 1713.55 2158.7 1763.1 2323.35 1812.5 2521.3 1812.5
L 4169.3 1812.5
Q 4367.1 1614.7 4680.2 1614.7 4976.95 1614.7 5174.6 1812.5
L 7119.2 1812.5 7119.2 1713.8 6262.3 1713.8
Q 6789.65 1582.15 7119.15 1293.6 7448.75 1005.65 7448.75 560.3 Z"/>
</g>
</g>
</g>
</g>
</svg>
