<?xml version="1.0" encoding="utf-8"?>
<!-- Generator: Adobe Illustrator 21.0.2, SVG Export Plug-In . SVG Version: 6.00 Build 0)  -->
<svg version="1.1" id="Layer_1" xmlns="http://www.w3.org/2000/svg" xmlns:xlink="http://www.w3.org/1999/xlink" x="0px" y="0px"
	 viewBox="0 0 297 210" style="enable-background:new 0 0 297 210;" xml:space="preserve">
<style type="text/css">
	.st0{fill:#231F20;}
	.st1{fill:#E8967B;}
	.st2{fill:#69131D;}
	.st3{fill-rule:evenodd;clip-rule:evenodd;fill:#231F20;}
</style>
<g>
	<path class="st0" d="M86.7,117.3c0,6.1-4,9.7-8.6,9.7c-5,0-7.9-3.8-7.9-7.5c0-3.5,2.3-6.1,5.5-6.1c2.5,0,4.1,1.5,4.1,3.5
		c0,1.5-0.9,2.3-1.8,2.3c-0.3,0-0.5-0.1-0.7-0.2c0.1-0.1,0.1-0.3,0.1-0.4c0-0.7-0.6-1.3-1.4-1.3c-1.1,0-1.7,1-1.7,2.2
		c0,1.6,1.2,3.6,3.6,3.6c2.4,0,4.4-2.2,4.4-5.4c0-3.4-2-5.6-4.3-7.8c-2.3-2.2-4.4-4.6-4.4-8.3c0-3.9,2.6-6.2,6.3-6.2
		c1.3,0,1.9,0.3,2.5,0.3c0.3,0,0.6-0.1,0.9-0.3h0.8v6.6h-0.8c-0.8-2-2-2.6-3.1-2.6c-1.2,0-2.2,0.8-2.2,2.2c0,1.7,1.5,3.3,3.3,5.1
		C83.9,109.3,86.7,112.4,86.7,117.3"/>
	<path class="st0" d="M101.5,105.9l-0.4-4.5H88.9l-0.4,4.5l0.6,0.1c0.2-0.4,1-0.9,2.1-0.9H93v13.9c0,1.1-0.4,1.8-0.8,2l0.1,0.6h5.5
		l0.1-0.6c-0.4-0.2-0.8-0.9-0.8-2v-13.9h1.8c1.1,0,1.9,0.6,2.1,0.9L101.5,105.9z"/>
	<path class="st0" d="M103.7,111.5c0-6.8,3-10.5,7.4-10.5c4.4,0,7.4,3.7,7.4,10.5c0,6.8-3,10.5-7.4,10.5
		C106.7,122,103.7,118.3,103.7,111.5 M114.4,111.5c0-4.6-1.3-6.8-3.2-6.8c-1.9,0-3.2,2.2-3.2,6.8c0,4.6,1.3,6.8,3.2,6.8
		C113,118.3,114.4,116.1,114.4,111.5"/>
	<path class="st0" d="M133.4,119l-2.1-6.7c1.7-1.3,2.8-3.1,2.8-5.2c0-3.1-2.2-5.7-6.4-5.7h-6.5l-0.1,0.6c0.4,0.2,0.8,0.9,0.8,2v14.9
		c0,1.1-0.4,1.8-0.8,2l0.1,0.6h5.5l0.1-0.6c-0.4-0.2-0.8-0.9-0.8-2v-4.5c0.6-0.1,1.2-0.2,1.8-0.4l1.5,5c0.3,1-0.1,1.6-0.5,1.8
		l0.1,0.6h5.6l0.1-0.6C134.2,120.8,133.7,120.1,133.4,119 M126,105.1h1.5c1.6,0,2.3,1,2.3,2.1c0,1.9-1.9,3.4-3.9,4V105.1z"/>
	<path class="st0" d="M150.8,101.4h-5.2l-0.1,0.6c0.3,0.2,0.4,0.9,0,1.9l-2,5l-2.1-5.1c-0.3-0.8-0.2-1.5,0.1-1.7l-0.1-0.6h-5.6
		l-0.1,0.6c0.4,0.2,1.2,0.9,1.7,2l3.9,9.5v5.4c0,1.1-0.4,1.8-0.8,2l0.1,0.6h5.5l0.1-0.6c-0.4-0.2-0.8-0.9-0.8-2v-5.4l3.8-9.5
		c0.4-1.1,1.3-1.8,1.7-2L150.8,101.4z"/>
	<path class="st0" d="M178.3,101.3c0-3.3-2.1-7.7-9-7.7c-5.7,0-10.6,4.6-10.6,9.6c0,2.5,1.4,4.6,3.3,4.6c1.3,0,2.3-1,2.3-2.3
		c0-0.2,0-0.3-0.1-0.5c-0.1,0.1-0.3,0.1-0.4,0.1c-0.7,0-1.1-1-1.1-2.1c0-2.9,2.8-5.3,6.7-5.3c3.1,0,4.4,1.8,4.4,3.9
		c0,2.3-1.6,4-3.5,5.1v-4.8c0-1.1,0.4-1.8,0.8-2l-0.1-0.6c-1.2,0-2.2,0.7-3.2,1.3c-0.9,0.6-1.7,1.1-2.7,1.1l-0.1,0.6
		c0.4,0.2,0.8,0.9,0.8,2v15.9c0,1.1-0.4,1.8-0.8,2l0.1,0.6h2.6c0.7,0,1.3,0.1,1.9,0.3c0.6,0.2,1.3,0.3,2.2,0.3
		c3.8,0,7.8-2.9,7.8-8.9c0-3.8-1.9-6.3-4.3-7.4C177.1,105.6,178.3,103.6,178.3,101.3 M171.6,119.4c-0.4,0-0.9-0.1-1.3-0.2V110
		c0.5-0.2,1-0.3,1.4-0.5c1.5,0.3,3.5,1.8,3.5,5.1C175.3,117.4,173.8,119.4,171.6,119.4"/>
	<path class="st0" d="M195.3,119.8l-3.5-18.4h-7l-0.1,0.6c0.3,0.2,0.8,0.7,0.6,1.5l-3.1,16.3c-0.1,0.6-0.7,1-0.9,1.2l0.1,0.6h5.2
		l0.1-0.6c-0.5,0-0.7-0.8-0.6-1.7l0.3-1.6l4.4-0.7l0.4,2.3c0.2,1.1-0.2,1.5-0.6,1.7l0.1,0.6h5.6l0.1-0.6
		C195.9,120.8,195.4,120.4,195.3,119.8 M186.9,114.2l1.7-9.4l1.6,8.9L186.9,114.2z"/>
	<path class="st0" d="M211.5,119.2V104c0-1.1,0.4-1.8,0.8-2l-0.1-0.6h-5.1l-0.1,0.6c0.4,0.2,0.8,0.9,0.8,2v5.5c-2.3-2.9-4.8-5-4.8-7
		c0-0.4,0.2-0.6,0.4-0.6l-0.1-0.6h-4.7l-0.1,0.6c0.4,0.2,0.8,0.9,0.8,2v14.9c0,1.1-0.4,1.8-0.8,2l0.1,0.6h5.1l0.1-0.6
		c-0.4-0.2-0.8-0.9-0.8-2v-8.5c2.2,2.8,4.8,5.2,4.8,8.7c0,1.1-0.4,1.6-0.8,1.8l0.1,0.6h5.1l0.1-0.6
		C212,120.8,211.5,120.3,211.5,119.2"/>
	<path class="st0" d="M228.6,119.8l-4.2-11.5l-0.1,0.1l3.4-4.8c0.7-1,1.2-1.4,1.7-1.6l-0.1-0.6h-5.9l-0.1,0.6c0.6,0.4,0.1,1.1-1,3.1
		l-2,3.4V104c0-1.1,0.4-1.8,0.8-2l-0.1-0.6h-5.5l-0.1,0.6c0.4,0.2,0.8,0.9,0.8,2v14.9c0,1.1-0.4,1.8-0.8,2l0.1,0.6h5.5l0.1-0.6
		c-0.4-0.2-0.8-0.9-0.8-2V114l1.3-1.8l2.7,7c0.3,0.9-0.1,1.6-0.4,1.8l0.1,0.6h5.5l0.1-0.6C229.3,120.8,228.9,120.5,228.6,119.8"/>
	<path class="st1" d="M68.5,120.7c0-1.8,0.6-3.5,1.7-4.8c0.1-0.1,0.2-0.2,0.2-0.2l0.7-0.7c-1,1.2-1.5,2.8-1.5,4.5
		c0,4,3.2,8.2,8.5,8.2c2.1,0,4.1-0.7,5.7-2l-0.6,0.6c-1.7,1.7-3.9,2.6-6.3,2.6C71.6,128.8,68.5,124.7,68.5,120.7 M79.7,121.8
		c0.5-0.8,0.8-1.9,0.8-3.1c0-0.3,0-0.7-0.1-1c0.1-0.3,0.1-0.6,0.1-0.9c0-1.6-0.9-2.9-2.3-3.6c-0.5-0.6-1.1-1.2-1.8-1.9
		c-2.3-2.3-4.6-4.8-4.6-8.7c0-2,0.6-3.7,1.9-4.9l0.7-0.7c-0.9,1.2-1.4,2.7-1.4,4.4c0,3.9,2.3,6.5,4.6,8.7c1.2,1.2,2.2,2.2,2.9,3.4
		c0.8,1.3,1.2,2.6,1.2,4c0,1.4-0.4,2.7-1.1,3.5C80.3,121.4,80,121.6,79.7,121.8 M78.1,119.8c0.4,0,0.9-0.1,1.2-0.4l-0.9,0.9
		c-0.4,0.4-1,0.7-1.6,0.7c-0.4,0-0.8-0.1-1.1-0.3l-0.4-0.3c0.1-0.3,0.2-0.5,0.2-0.7c0-0.3-0.3-0.6-0.7-0.7c0.1-0.6,0.4-1.2,1.1-1.2
		c0.5,0,0.8,0.3,0.8,0.7c0,0.1,0,0.4-0.2,0.7l0.4,0.3C77.3,119.7,77.7,119.8,78.1,119.8 M79,101.1c-0.1,0-0.2,0-0.3,0
		c0.1-0.6,0.6-1.2,1.5-1.2c1,0,1.8,0.7,2.5,2.2l0.2,0.4h1.2l-1.2,1.2h-1.3l-0.2-0.4C80.9,101.8,80.1,101.1,79,101.1"/>
	<path class="st1" d="M97.7,122.2l-1.2,1.2h-6l-0.2-1.5l0.7-0.7c0.1-0.2,0.2-0.6,0.2-1v-13.3H90c-0.4,0-0.7,0.1-1,0.2l-0.8,0.8
		l-1.6-0.2l0.4-5l1.2-1.2l-0.4,5l1.6,0.2l0.2-0.4c0.1-0.2,0.6-0.6,1.5-0.6h1.1v13.2c0,0.9-0.3,1.4-0.5,1.4l-0.4,0.2l0.2,1.6H97.7z
		 M101.5,106.5l-1.2,1.2l-1,0.1l-0.2-0.4c-0.1-0.2-0.6-0.6-1.5-0.6v-1.2h1.1c0.9,0,1.4,0.4,1.5,0.6l0.2,0.4L101.5,106.5z"/>
	<path class="st1" d="M101.9,112.7c0-3.4,0.8-6.2,2.2-8.1c0.2-0.3,0.5-0.6,0.7-0.9l0.7-0.7c-1.9,2.3-2.4,5.5-2.4,8.5
		c0,6.4,2.8,11.1,8.1,11.1c1.7,0,3.3-0.5,4.5-1.5l-0.6,0.6c-1.3,1.4-3.1,2.1-5.1,2.1C105,123.8,101.9,119.5,101.9,112.7
		 M113.7,111.5c0,3.4-0.8,5.6-2,6.1c0.5-1.1,0.8-2.8,0.8-4.9c0-3.8-1-6.2-2.6-6.2c-0.2,0-0.3,0-0.5,0.1c0.4-0.8,1-1.2,1.7-1.2
		C112.7,105.3,113.7,107.7,113.7,111.5L113.7,111.5z"/>
	<path class="st1" d="M126.7,122.2l-1.2,1.2h-6.1l-0.2-1.5l0.7-0.7c0.1-0.2,0.2-0.6,0.2-1v-14.9c0-1.4-0.6-1.5-0.9-1.7l0.1-1
		l1.2-1.2l-0.1,1c0.3,0.2,0.9,0.3,0.9,1.7v14.9c0,0.9-0.3,1.4-0.5,1.5l-0.4,0.2l0.2,1.6H126.7z M128.5,109c0.5-0.6,0.8-1.2,0.8-1.8
		c0-0.9-0.6-1.5-1.7-1.5h-0.9v1.2c0.9,0.1,1.4,0.6,1.4,1.5c0,0.4-0.1,0.9-0.4,1.2C128,109.4,128.3,109.2,128.5,109 M128.3,122.2
		l-0.2-1.6l0.4-0.2c0.1-0.1,0.4-0.4,0.2-1.1l-1.3-4.4c-0.2,0.1-0.5,0.1-0.7,0.2v2.6l0.8,2.8c0.1,0.3,0.1,0.5,0,0.7l-0.1,0.1
		l-0.1,0.8H127c0,0,0.2,1.1,0.2,1.2h6.2l1.2-1.2H128.3z"/>
	<path class="st1" d="M146,122.2l-1.2,1.2h-6l-0.2-1.5l0.7-0.7c0.1-0.2,0.2-0.6,0.2-1v-5.2l-3.8-9.5c-0.4-1.1-1.4-1.7-1.4-1.7
		l-0.4-0.2l0.1-1l1.2-1.2l-0.1,1l0.4,0.2c0,0,1,0.5,1.4,1.7l3.8,9.5v5.2c0,0.9-0.3,1.4-0.5,1.5l-0.4,0.2l0.2,1.6H146z M144.9,103.6
		l-1.4,3.5l-0.3-0.8l0.6-1.4c0.3-0.7,0.2-1,0.2-1.1l-0.3-0.2l0.1-1l1.2-1.2l-0.1,0.9l0.3,0.2C145.1,102.6,145.1,102.9,144.9,103.6"
		/>
	<path class="st1" d="M160.8,109.6c-1.1,0-2.1-0.6-2.8-1.6c-0.7-1-1.1-2.2-1.1-3.6c0-2.4,1.1-4.9,3-6.8l0.5-0.5
		c-1.5,1.8-2.4,4-2.4,6.1c0,1.4,0.4,2.6,1.1,3.6c0.7,1,1.7,1.6,2.8,1.6c0.6,0,1.2-0.2,1.7-0.5c0,0-0.7,0.7-0.9,0.9
		C162.3,109.3,161.5,109.6,160.8,109.6 M177.1,122.3c-0.6,0.5-1.3,0.9-2.1,1.2c-1,0.4-2,0.6-3.1,0.6c-0.9,0-1.6-0.1-2.4-0.4
		c-0.6-0.2-1.1-0.3-1.7-0.3h-3.2l-0.2-1.6l0.4-0.2c0.1-0.1,0.5-0.6,0.5-1.5v-15.9c0-0.9-0.3-1.4-0.5-1.5l-0.4-0.2l0.1-1l-1.2,1.2
		c0,0,0,0.1,0,0.1c0,0.5,0.1,0.8,0.2,1.1l0.1,0c0.1,0,0.2,0.2,0.3,0.4c0,0,0,0,0.1,0l0.7-0.4l0.2,0.8c0,0.2,0.1,0.4,0.1,0.7
		c0,0.8-0.3,1.5-0.8,2.1v13.9c0,0.4-0.1,0.8-0.2,1c0,0-0.7,0.7-0.7,0.7l0.2,1.5h3.1c0.6,0,1.1,0.1,1.7,0.3c0.8,0.3,1.5,0.4,2.4,0.4
		c1.1,0,2.1-0.2,3.1-0.6c1-0.4,1.9-1,2.7-1.8L177.1,122.3L177.1,122.3z M171.1,98.6c-1,0-1.9,0.4-2.7,0.8c-0.1,0-0.1,0-0.2,0
		c-1.6,0-3,0.4-4.1,1.2c1-1.4,3-2.3,5.3-2.3c0.7,0,1.4,0.1,1.9,0.3H171.1z M174.7,114.5c0,1.8-0.7,3.3-1.8,3.9
		c0.4-0.7,0.6-1.7,0.6-2.7c0-1.3-0.4-2.4-1-3.3c-0.4-0.5-0.9-0.8-1.5-1.1v-0.9c0.3-0.1,0.6-0.2,0.9-0.3c0.7,0.2,1.3,0.6,1.8,1.1
		C174.3,112.1,174.7,113.2,174.7,114.5L174.7,114.5z M171.5,100.4l0.4-0.2l-0.2-1.5c0.3,0.1,0.5,0.3,0.7,0.5
		c0.7,0.7,0.9,1.6,0.9,2.3c0,1.7-1,3-2,3.7c0.5-0.7,0.8-1.5,0.8-2.5c0-0.6-0.1-1.4-0.7-2.1l-0.2,0.2
		C171.3,100.5,171.4,100.4,171.5,100.4"/>
	<path class="st1" d="M186.4,122.2l-1.2,1.2h-5.7l-0.2-1.5c0,0,1-1,1-1l3.1-16.3c0.1-0.6-0.3-0.8-0.3-0.9l-0.4-0.2l0.1-1l1.2-1.2
		l-0.1,1l0.4,0.2c0,0,0.4,0.2,0.3,0.8l-3.1,16.3c-0.1,0.4-0.5,0.7-0.7,0.8l-0.3,0.2l0.2,1.6H186.4z M188.8,123.4h6.1l1.2-1.2h-6.1
		l-0.2-1.6l0.4-0.2c0.2-0.1,0.3-0.5,0.2-1l-0.3-1.7l-3.3,0.6l-0.2,1l2.3-0.4l0.3,1.8c0,0.2,0,0.4,0,0.6l-0.6,0.6L188.8,123.4z
		 M188.5,108.5l-0.7,3.9l0.2,1l1.3-0.2L188.5,108.5z"/>
	<path class="st1" d="M204.1,122.2l-1.2,1.2h-6.1l-0.2-1.5l0.7-0.7c0.1-0.2,0.2-0.6,0.2-1v-14.9c0-1.4-0.6-1.5-0.9-1.7l0.1-1
		l1.2-1.2l-0.1,1c0.3,0.2,0.9,0.3,0.9,1.7v14.9c0,0.9-0.3,1.4-0.5,1.5l-0.4,0.2l0.2,1.6H204.1z M206.5,122.2l-0.2-1.6l0.4-0.2
		c0.3-0.2,0.5-0.6,0.5-1.2c0-1.2-0.3-2.4-1-3.6c-0.7-1.1-1.5-2.2-2.5-3.3l0,0v2.6c0.5,0.6,1,1.3,1.3,1.9c0.7,1.2,1,2.4,1,3.6
		c0,0.3,0,0.5-0.1,0.7l-0.8,0.8l0.2,1.5h5.7l1.2-1.2H206.5z M207.2,104v3.8c-0.3-0.3-0.6-0.6-0.8-0.9c-0.1-0.1-0.2-0.3-0.3-0.4v-1.2
		c0-1.4-0.6-1.5-0.9-1.7l0.1-1l1.2-1.2l-0.1,1C206.6,102.5,207.2,102.7,207.2,104"/>
	<path class="st1" d="M221,122.2l-1.2,1.2h-6l-0.2-1.5l0.7-0.7c0.1-0.2,0.2-0.6,0.2-1v-14.9c0-0.9-0.3-1.4-0.5-1.5l-0.4-0.2l0.1-1.1
		l1.1-1.1l-0.1,1l0.4,0.2c0.1,0.1,0.5,0.6,0.5,1.4v14.9c0,0.9-0.3,1.4-0.5,1.5l-0.4,0.2l0.2,1.6H221z M222.9,102.6c0,0.3-1,2-2,3.6
		v-0.8c0.4-0.7,0.8-1.3,0.8-1.6l-0.3-0.2l0.1-1l1.1-1.1l-0.1,0.8C222.6,102.3,222.9,102.3,222.9,102.6 M222.2,123.4h6.1l1.2-1.2h-6
		l-0.2-1.6l0.4-0.2c0.1-0.1,0.3-0.4,0.1-1l-2.2-5.8l-0.5,0.6v2.4l1.5,3.9c0.1,0.3,0.1,0.5,0.1,0.7l-0.6,0.6L222.2,123.4z"/>
	<path class="st2" d="M89.4,86.4V95c0,0.4,0,0.7,0.3,0.8l0,0.2c-0.9,0.2-1.4,1.4-2.6,1.6c-0.2,0-0.4,0-0.6,0v-0.2
		c0.9-0.5,1.3-1.5,1.3-3.2v-7.8l-0.1,0c-1.1,0.2-1.8,0.9-1.8,1.8c0,0.5,0.2,0.9,0.5,0.6c0.1,0.5-0.3,1.1-0.8,1.2
		c-0.7,0.1-1.2-0.5-1.2-1.5c0-1.7,1.3-3.2,3.4-3.6c1.4-0.3,2,0.2,3.1,0c0.6-0.1,0.9-0.4,1-0.7c1-0.2,1,1.8-0.7,2.1
		C90.5,86.5,89.9,86.4,89.4,86.4 M91,87l2-0.4l0,0.2c-0.1,0.1-0.3,0.4-0.3,0.8v2l1.5-0.5v-1.8c0-0.4-0.2-0.6-0.3-0.7l0-0.2l2-0.4
		l0,0.2c-0.1,0.1-0.3,0.4-0.3,0.8v5.4c0,0.4,0.2,0.6,0.3,0.7l0,0.2l-2,0.4l0-0.2c0.1-0.1,0.3-0.4,0.3-0.8v-2.3l-1.5,0.5v2
		c0,0.4,0.2,0.6,0.3,0.7l0,0.2l-2,0.4l0-0.2c0.1-0.1,0.3-0.4,0.3-0.8v-5.4c0-0.5-0.2-0.7-0.3-0.7L91,87z M97.1,92.1v-5.4
		c0-0.4-0.2-0.6-0.3-0.7l0-0.2l4-0.8l0.1,1.3l0,0.3l-0.2,0.1c-0.1-0.1-0.4-0.3-0.8-0.2l-1.4,0.3v1.6l0.5-0.1
		c0.4-0.1,0.6-0.3,0.7-0.5l0.2,0V88l0,1.3v0.3l-0.2,0.1c-0.1-0.1-0.3-0.3-0.7-0.2l-0.5,0.1v1.8l1.4-0.3c0.4-0.1,0.7-0.3,0.8-0.5
		l0.2,0l0,0.3l-0.1,1.3l-4,0.8l0-0.2C96.9,92.8,97.1,92.5,97.1,92.1"/>
	<polygon class="st0" points="101,83 101,83.8 93.7,85.2 93.7,84.5 	"/>
	<polygon class="st0" points="90.7,95.7 101,93.6 101,94.3 90.7,96.4 	"/>
	<g>
		<path class="st3" d="M156.6,82.2c0,0.5,0,1,0,1.4c0,0.1,0.1,0.3,0.2,0.3c2,0.8,3.4,2.3,4.6,4c1.2,1.6,2,3.3,2.1,5.4
			c0,0.1,0,0.2,0,0.4c-0.4-0.4-0.8-0.8-1.2-1.2c-0.3-0.3-0.6-0.5-0.9-0.7c-0.7-0.4-1.3-0.3-1.9,0.2c-0.4,0.4-0.7,0.8-1.1,1.2
			c-0.3-0.5-0.5-1.1-0.8-1.6c-0.2-0.4-0.5-0.8-0.8-1.1c-0.3-0.4-0.8-0.5-1.3-0.4c-0.1,0-0.1,0-0.2,0c-0.7,0.1-1.1,0.5-1.3,1.2
			c-0.9,2.9-1.9,5.8-2.8,8.6c-0.5,1.4-1.3,1.9-2.9,1.7c-0.6-0.1-1-0.5-1.2-1.1c-0.1-0.5-0.1-1-0.2-1.5c0-0.3,0.3-0.5,0.6-0.5
			c0,0.3-0.1,0.6,0,1c0,0.6,0.2,1.1,0.8,1.4c0.6,0.2,1.3,0.1,1.8-0.3c0.3-0.3,0.4-0.8,0.6-1.2c0.7-1.9,1.3-3.7,1.9-5.6
			c0.3-0.9,0.6-1.9,0.9-2.9c-0.4,0.2-0.8,0.5-1.2,0.7c0-0.5,0-1,0-1.5c0-0.5-0.1-1-0.2-1.5c-0.1-0.5-0.3-0.7-0.9-0.7
			c-0.7,0.1-1.5,0.2-2.2,0.4c-0.7,0.2-1.3,0.5-1.9,0.7c0.1-0.4,0.2-0.7,0.3-1c0.1-0.3,0.1-0.6,0.2-1c0-0.4-0.2-0.6-0.6-0.6
			c-1,0.1-2.1,0.3-3.1,0.4c-0.2,0-0.5,0.1-0.8,0.1c0.2-0.2,0.4-0.4,0.6-0.5c2.5-2.1,5.3-3.3,8.5-3.4c1.1,0,2.2,0.2,3.2,0.6
			c0.2,0.1,0.4,0,0.5-0.2C156.1,82.9,156.3,82.6,156.6,82.2"/>
	</g>
</g>
</svg>
