<svg xmlns="http://www.w3.org/2000/svg" xmlns:xlink="http://www.w3.org/1999/xlink" viewBox="0 0 1825.79 149.34"><defs><style>.cls-1{fill:url(#linear-gradient);}.cls-2{fill:#630320;}</style><linearGradient id="linear-gradient" x1="4.18" y1="76.03" x2="1821.19" y2="76.03" gradientUnits="userSpaceOnUse"><stop offset="0" stop-color="#ad6f6c"/><stop offset="0.46" stop-color="#8c313c"/><stop offset="1" stop-color="#ad6f6c"/></linearGradient></defs><title>Asset 1</title><g id="Layer_2" data-name="Layer 2"><g id="Layer_1-2" data-name="Layer 1"><path class="cls-1" d="M1816.43,63.55c.37-9,1.32-14.43-1.66-16.33,8.45-11.95,12.36-30.76-13-35.52-30-5.63-37-9.39-50-3.75s-12,13.13-13,31.9a15.8,15.8,0,0,0,2.78,10.28c-8.77-1.17-18.63-2.49-29.94-3.64-3.68-.1-20.39-2.4-24.43-3-56-8.77-108.51-4.26-162.6-2.69-153.46,4.46-423.39,12.9-547.24.7s-553.57-17.88-805.6-.7c-26.38,1.8-68.53,6.21-99.41,8.53,4.31-5,9.54-12.8,9.5-21.3-.06-14.41,5-27.09-28-21.69s-55.5,27-48.26,34.5a106.9,106.9,0,0,1,9.19,11c3.25,8.75,3.72,27,.73,47.2-4,27.27-6.63,45.62,52.42,46.39a94.68,94.68,0,0,1,15.1.21q9.92.16,19.83.07a153.29,153.29,0,0,1,18.67-.44c50.85-1.82,78.68-6.42,117.49-9.68,147.71-12.42,581.72,4.47,747.91,8.23,93.51,2.11,513.32-7.08,604.93-8.23,99.65-1.26,147.61,21.56,202.12,6.11,12.6-3.57,19.64-5.55,23.84-12.75C1822.36,118.55,1815.22,93.38,1816.43,63.55Z"/><path class="cls-2" d="M1592.32,137.83c11-1.44,21.41-.57,32.44-.46,19.82.21,38.76,3.47,58.38,5.63,18.8,2.08,38.8,7.86,57.78,6,16.37-1.64,32.87-.5,48.84-4.68,10.66-2.8,24.75-8,28.51-18.23,4.19-11.44-3.52-16.59-2.33-47.36s14-42.44,8.49-55.11c-5-11.48-23.3-17.88-35.6-20.45-13.11-2.73-29.18-5.63-41.57.5a15.09,15.09,0,0,0-10.38,14.07c0,8.3,1,16.59-2.28,24.56-43.15-7.14-23.6-3.67-57.25-6.23-36.73-2.81-22.56-6.43-93.57-6.25,0,0-278.27,17-548.2,2.91S561.34,15.8,230.94,29.78c-70.81,3-98.19,7.79-114.34,10.33-6.47,1-13,.73-19.47,1.46-5.32.6-10.56,1.06-15.82,1.41.13-11.1,10.66-21.09,6.17-32.5C83.27-.21,70.48-.35,59.83.47c-8,.62-14.36.36-22.32,1.88C15.84,6.5-4.51,17.5.87,36.33,2.42,43.22,5,45.92,7.38,57.15,8.78,67,6.67,78,6.11,88.69,5.4,102.56-1.28,118.28,8.29,131c7.36,9.77,20.87,12.3,33.06,14.28,8.94,1.46,17.54.41,21.48.54,1.75.06,29.18,1,31.88.82,38.75-2,24.53,2.93,52.26-1.56,10.47-1.69,21.45-1.32,32.05-2.37,11.24-1.12,22.45-2.48,33.78-2.74,9-.22,17.69-1.31,26.68-2.11,127.09-11.29,774.93,13.11,866,10.3S1592.32,137.83,1592.32,137.83Zm-609.67,3.73c-166.19-3.76-600.2-20.65-747.91-8.24-38.82,3.27-66.64,7.87-117.49,9.68a157.65,157.65,0,0,0-18.68.44q-9.9.1-19.83-.07a96,96,0,0,0-15.1-.2C4.6,142.4,7.21,124,11.23,96.77c3.52-23.9.14-44-2.76-51-4.29-10.36-8.76-18-.2-25.64C19.1,10.51,41.87,5,56.4,4.09,100,1.28,78.94,28.62,76.25,42c-.45.41-.42.77-.42,1.33L73,43.43a1.2,1.2,0,0,0-1.17-1A.71.71,0,0,1,72,42c.83-1.21-1.3-2.89-2.58-1a1.65,1.65,0,0,0-.47.25c-1.11.88-2,1.5-.9,2.5l-1.81.18c.87-1.19,1.16-2.31-.43-2.55a1.27,1.27,0,0,0-1.35-.5A1.22,1.22,0,0,0,63.41,39a1.23,1.23,0,1,0,.17,2.43,1.28,1.28,0,0,0,0,1.52,1.14,1.14,0,0,0-.1,1.34l-2.09.24a1.4,1.4,0,0,0-2.3.25H59c.52-2.26-3.56-1.93-2.58.23a45.9,45.9,0,0,1-7.94.06,1.32,1.32,0,0,0-1.09.31c-1.52,0-3.17,0-4.9-.09a1.26,1.26,0,1,0-2.08-.09l-.67,0a1.21,1.21,0,0,0-1-1.49,1.27,1.27,0,0,0,0-.58A1.2,1.2,0,0,0,38,40.91a1.24,1.24,0,0,0-1.2.71,1.33,1.33,0,0,0-1.36.66,1.23,1.23,0,0,0,.81,2.24l.87,0a1.41,1.41,0,0,0,0,.46,73.61,73.61,0,0,1-8-1.05c.52-7.12-9.49-18-1.56-23.48,5.5-3.77,15.74-4.29,22.93-3C47.71,21.1,46,25.81,47.35,30c-1.43.08-2.92.12-4.38.11,1.15-1.22-.74-2.79-1.94-1.72-1.15-.85-3.22-.1-2.47,1.47a19.45,19.45,0,0,1-2.3-.41,1.17,1.17,0,0,0-.5-.76c1-.67.3-1.72.5-3a1.28,1.28,0,0,0-1.79-1.41,1.33,1.33,0,0,0-2.59.37,1.32,1.32,0,0,0-1.78.78c-4.85,15.07,57.53,5.83,49.65-12.06-.7-1.59-3.34-1-2.92.72.92,3.82-1.7,6.89-5.52,9.26a1.26,1.26,0,0,0-.24-1,1.39,1.39,0,0,0,1.44-2.07,1.41,1.41,0,0,0,1.95-.78,1.29,1.29,0,0,0,1.27-1.15,2.52,2.52,0,0,0-.86-2,1.34,1.34,0,0,0-2.23.71,1.24,1.24,0,0,0-.44.54,1.19,1.19,0,0,0-.67,1.89c-1.1-.26-2.48,1.22-1.6,2.33a2.5,2.5,0,0,0-2.17,1.69,1.31,1.31,0,0,0-2.35-.8,1.29,1.29,0,0,0-1.07-.1,1.3,1.3,0,0,0-1.81-1.16,1.23,1.23,0,0,0-1-.8,1.44,1.44,0,0,0-2.32-.33,2.12,2.12,0,0,0-1.79.74,1.2,1.2,0,0,0-1.48,1,1.45,1.45,0,0,0-1.7-.06,1,1,0,0,0-.19-.69c.55-.37,1.12-.8,1.09-1.42a1.19,1.19,0,1,0,1.22-1.54,1.18,1.18,0,0,0-1.23,1.51,1.45,1.45,0,0,0-2.07-1,18.69,18.69,0,0,1,1.23-1.42,1.37,1.37,0,0,0-.7-2.35,41.72,41.72,0,0,0-7.69-1.17c.4-2-3-2.09-2.73-.11-6.66-.06-15.37,1.29-19.65,5.78a1.21,1.21,0,0,0-1.3-1.32,1.23,1.23,0,1,0,.44,2.34,8,8,0,0,0-1.42,3.65A1.28,1.28,0,0,0,20.9,24a1.17,1.17,0,0,0-1.27-1.3,1.18,1.18,0,0,0-.92,2c-.38,1.55,1.68,2.15,2.49,1.09,0,.23,0,.46,0,.69a1.24,1.24,0,0,0-1.19,1.55,1.34,1.34,0,0,0,.67,2.41,1.47,1.47,0,0,0-.85,2.42,1.13,1.13,0,0,0-.16.26C18.44,33,17.34,35.08,18,36.09a3.5,3.5,0,0,0-1.14,1.19,1.18,1.18,0,0,0-.37-.4c.25-1.54-2.05-1.88-2.48-.57a11.72,11.72,0,0,1-1.73-3.24A1.45,1.45,0,0,0,14,33a.94.94,0,0,0,.23.16c-1.55,1.63,1.78,3.12,2.33,1.2a1.22,1.22,0,0,0,1.29-2.06A1.26,1.26,0,0,0,17,30a1.3,1.3,0,0,0-1.12.54,1.29,1.29,0,0,0-.81-.44A1.28,1.28,0,0,0,13.94,28a1.28,1.28,0,1,0-.21,2.55,1.05,1.05,0,0,0-.17.29,1.38,1.38,0,0,0-1.63.47,1,1,0,0,0-.14-.16,17.47,17.47,0,0,0-.29-1.84,1.31,1.31,0,0,0,1.19-1.13c.83-.76.15-2.23-1.3-2A1.7,1.7,0,0,0,10,28.33c-.82,0-1.62.43-1.56,1.37,1.5,26.09,52.85,16.68,159.14,8.86,251.9-18.54,681.74-11.5,805.59.7s393.79,3.76,547.24-.7c54.1-1.58,106.56-6.08,162.6,2.69,4,.63,20.75,2.94,24.43,3,40.68,4.13,61.58,6.35,82.07,4.19,24.1-2.55,23.81-10.31,26.52-19.61.46-1.58-2.28-2.25-2.76-.67-.29,1-.57,1.87-.87,2.73a1.2,1.2,0,0,0-1.25-.88,1.21,1.21,0,1,0-1.3,1.24,1.3,1.3,0,0,0,2.11.91c-.26.71-.53,1.39-.82,2a1.28,1.28,0,0,0-.86-.3,1.19,1.19,0,1,0-.19,2.38,14.65,14.65,0,0,1-1.63,2.3,1.16,1.16,0,0,0-.79-.73,1.18,1.18,0,0,0-.28-.79,1.23,1.23,0,1,0,.26-2.4,1.22,1.22,0,0,0-1,2,1.22,1.22,0,1,0-.71,2.33,1.17,1.17,0,0,0,1,1.17,17.34,17.34,0,0,1-4.7,2.71c.64-.33,1.34-1.14,1-1.9a1.27,1.27,0,0,0,1.47-1.19v.09c1.1-1-.22-2.35-1.46-2a1.12,1.12,0,0,0-.74-.79c.59-.08,1-.2,1.2-.83a1.25,1.25,0,1,0,.81-2.34,1.2,1.2,0,1,0-1.62.75.17.17,0,0,1,0,.07,8.86,8.86,0,0,0-.9-.13,1.28,1.28,0,0,0-.56,2.48,1.14,1.14,0,0,0-.7.77,1.79,1.79,0,0,0-.49-.08,1.33,1.33,0,0,0-2.57-.33c-1.61.71-.67,2.92,1,2.75a1.26,1.26,0,0,0-.2.48,1.47,1.47,0,0,0-1.79.12,1.35,1.35,0,0,0-2.54.55l-.19,0,.3-1.76a1.26,1.26,0,0,0,2-1.47A1.23,1.23,0,0,0,1795,35.9a15.9,15.9,0,0,1,.8-2,1.21,1.21,0,0,0,1.22.95c0,.22,0,.44.06.66.19,1.17,2.46,1.17,2.66,0s.13-2.35-1.38-2.31a1.2,1.2,0,0,0-.64-.67,1.21,1.21,0,0,0,.8-.35c.14-.13.28-.27.41-.41.92-.92,0-2.06-1-2a24,24,0,0,0,1.57-3.66c2,1.19,2.92-2.45.49-2.12a7.49,7.49,0,0,0-3-7.59c-6-4.55-17.54-4.48-24.69-2.42a1.44,1.44,0,0,0-1,2.17,10.65,10.65,0,0,1,1.6,3.05,1.47,1.47,0,0,0-1,.19,1.28,1.28,0,0,0-.47-2,1.57,1.57,0,0,0-2-.13c-.57-1.3-2.92-.8-2.52.8a1.38,1.38,0,0,0-1,.34c-1.27-.94-2.85.66-1.76,1.74-.72.21-.87.7-.88,1.36a1.38,1.38,0,0,0-2.12.78c-.3-2.31-4.12-.39-3.43,1.34-.38-.18-.75-.38-1.12-.57a1.24,1.24,0,1,0-2-1.14,15.88,15.88,0,0,1-2.45-1.89,1.23,1.23,0,0,0-.63-2.33,1.33,1.33,0,0,0-1,.37,5.18,5.18,0,0,1-.62-4,1.25,1.25,0,0,0,1.16.64,1.22,1.22,0,1,0,0-2.44,1.4,1.4,0,0,0-.77.23,1.53,1.53,0,0,0-2.63-.41c-9,13.83,36.34,27.83,44.12,13,.67-1.28-1.23-2.94-2.41-1.64a13.77,13.77,0,0,1-6.08,3.88,1.2,1.2,0,0,0-1.11-1.81,1.42,1.42,0,0,0-2-1,.89.89,0,0,1-.63.18,1.25,1.25,0,0,0-.68,2.35c-.69.2-1.09.55-1.08,1.21a30.79,30.79,0,0,1-3.32-.06,11.56,11.56,0,0,0,.68-11.81c5.86-1.19,14.08-1.14,18.73,1.83,5.68,3.63.75,9.82-1.11,14.14s-2.22,8.92-3.34,13.44c-.84.09-1.69.16-2.53.22a1.17,1.17,0,0,0-.45-.51,1.35,1.35,0,0,0-.74-.52,1.38,1.38,0,0,0-1.86-1.13c.65-1.66-2-2.29-2.48-.87-.76-.06-1.3.54-1.91,1a1.45,1.45,0,0,0-1.69.09,1.37,1.37,0,0,0-.42.06,1.37,1.37,0,0,0-1.83-.75,1.37,1.37,0,0,0-2.19-.48h.09a1.46,1.46,0,0,0-.9.38,1.27,1.27,0,1,0,0,2.53,1.36,1.36,0,0,0,1.06-.44,3,3,0,0,0,1.16-.36,1.33,1.33,0,0,0,1.68.72,1,1,0,0,0,.32.51c-4.85,0-4.12-.06-5.87-.09.82-.75.1-2.25-1.34-2a5,5,0,0,0-1.17.36,1.22,1.22,0,0,0,.15-1.27l.59-.57c1.2-1.13-.64-2.76-1.92-1.7l-.9.75a1,1,0,0,0-.21,1.44,1.24,1.24,0,0,0,1.46,1.81c-.48.3-.9.48-.87,1.07-1.85-.05-3.7-.08-5.54-.16.47-.37.88-.75.89-1.28a5.85,5.85,0,0,0,1.32,0,1.21,1.21,0,1,0,0-2.42l-.88-.07a1.22,1.22,0,0,0-1.37,1.34c-1.16-.35-3.14,1.17-1.74,2.35-.59,0-1.18-.06-1.77-.09a1.18,1.18,0,0,0,1-.83c0-.2,0-.63.32-.72a1.22,1.22,0,1,0-.72-2.33,3,3,0,0,0-2.31,2.39,1.27,1.27,0,0,0,.81,1.45l-2.58-.13c-.06-.54-.25-.61-.55-.89.86.09,1.34-.23,1.51-.91,1-.22,1-.75.89-1.52a1.36,1.36,0,0,0-2.68-.06c-1.07.12-1.43.62-1.32,1.41a1.43,1.43,0,0,0-1.43-.07c.55-.95-.39-1.82-1.4-1.69,1-1.35-.93-2.68-2.05-1.65a1.41,1.41,0,0,0-2.59.51l-.06.77c-.11,1.41,2.19,1.6,2.73.57a1.28,1.28,0,0,0,1.09.26,3,3,0,0,0-.9,1.08A1.39,1.39,0,0,0,1745,44c-1.44-.27-2.83-.52-4.19-.75,3.71-13.32-3.66-26.3,3.48-34,2.87-2.62,6.28-4.56,14.31-4.58,17.08-.06,37.19,3.56,51.48,12.24,19.46,11.83,4.83,28.75,2.17,44.44-5,29.51,5.92,55,1.33,65.34-4.2,7.2-11.23,9.18-23.84,12.75-54.5,15.45-102.46-7.37-202.11-6.12C1496,134.48,1076.16,143.67,982.65,141.56Zm767.1-97.11a1.12,1.12,0,0,0,.06.46l-.28,0A1.23,1.23,0,0,0,1749.75,44.45Zm30,1.42c1.13.7,1.71-.06,2.59-.94a1.33,1.33,0,0,0,.3-.44c.21,0,.05,0,.24,0-.61.5-1,.9-.59,1.64-1,0-1.91,0-2.86,0A1.43,1.43,0,0,0,1779.72,45.87Zm16.55-3.63a1.17,1.17,0,0,0,.8.67.78.78,0,0,1-1.4-.4A1.38,1.38,0,0,0,1796.27,42.24Zm5.68-2.08a1.49,1.49,0,0,0-.92.27,1.18,1.18,0,0,0-.23-.35,1.17,1.17,0,0,0,.61-.71,2,2,0,0,0,.45.08A1.29,1.29,0,0,0,1802,40.16ZM1798.86,42a1.42,1.42,0,0,0,1.29.19,1.63,1.63,0,0,0,1.73.79c-.55.21-1.13.41-1.74.61.22-.71-.48-1.43-1.31-1.45A.89.89,0,0,0,1798.86,42Zm-3.81,2.84.07,0H1795Zm1.25-.3s0,0,0,.05l-.14,0Zm-1.39-2v0l.1,0Zm1.71-10.4a1.81,1.81,0,0,0,.37.24,1.35,1.35,0,0,0-.55.13Zm-25.46-4.47a1.12,1.12,0,0,0,.54-1.63,1.19,1.19,0,0,0,.46-1.15,1.21,1.21,0,0,0-.28-1.06,1.22,1.22,0,0,0-.61-2.33,1.25,1.25,0,0,0-1.11.55,1.23,1.23,0,0,0-1.08-.53,1.21,1.21,0,1,0,0,2.41,1.25,1.25,0,0,0,1.08-.52l.06.1a1.19,1.19,0,0,0-.69.75,1.27,1.27,0,1,0-.71,2.4,2,2,0,0,0,.33.64c-1.8-.38-3.33-.79-4.87-1.27.24-1.51-1.83-1.95-2.5-.83l-1.12-.42a1.21,1.21,0,0,0-.26-1.38,1.46,1.46,0,0,0,.71-.65c0,1,1,1.33,1.88,1.11a1.23,1.23,0,0,0,1.47.84,1.12,1.12,0,0,0,0,.7,1.43,1.43,0,1,0,1.24-1.94c.76-.37,1.23-1.31.43-2-.15-.14-.09,0-.07-.28a1,1,0,0,0-.4-.85,1.31,1.31,0,0,0,.28-.17,1.34,1.34,0,0,0,2.24-1.23,1.37,1.37,0,0,0,.9-.31,1.85,1.85,0,0,0,2.45,1c-1.33,1.29.74,2.59,1.81,2.33a10.19,10.19,0,0,1-1.82,5.82Zm33.68,24.61a1.21,1.21,0,1,0,.57-.1,1.54,1.54,0,0,0-.55.1,1.38,1.38,0,0,0,1.1-1.13l.11-.08a1.22,1.22,0,1,0,.22-2.39,1.31,1.31,0,0,0-1,.4C1802.45,48.53,1802.29,52.89,1804.84,52.27Zm-4.7,11.26a1.24,1.24,0,0,0,1.32,1.52,1.22,1.22,0,1,0,1.43-1.23,5.42,5.42,0,0,1,.63-1.69C1804.45,60.54,1801,58.47,1800.14,63.53Zm9.28-13.64q.4.06.81.09a1.27,1.27,0,1,0,0-2.53l-.81.1A1.19,1.19,0,0,0,1809.42,49.89Zm-6.2,38.35a1.23,1.23,0,1,0,0,2.46A1.23,1.23,0,1,0,1803.22,88.24Zm3.5,31.18c-.61-1.42-3.11-.88-2.62.64.13.39.26.78.4,1.18.53,1.53,3.31.83,2.7-.66C1807,120.19,1806.89,119.8,1806.72,119.42Zm-3.94,4.94a1.21,1.21,0,0,0-1.31,1.22,1.44,1.44,0,0,0-.44-.08,1.23,1.23,0,1,0,1.34,1.19,1.36,1.36,0,0,0,.41.08A1.21,1.21,0,1,0,1802.78,124.36ZM1784,130.55a1.22,1.22,0,1,0,0,2.44A1.22,1.22,0,1,0,1784,130.55Zm19.8-21.27a1.18,1.18,0,1,0-1,.38,1.53,1.53,0,0,0,.32,0,1.21,1.21,0,0,0,0,1.65,1.16,1.16,0,1,0-.53,2.24,1.2,1.2,0,0,0-.58,2.2,1.26,1.26,0,0,0,.59,1.68,1.23,1.23,0,1,0,.81.09c2-.14,1.93-2,.65-2.34a1.2,1.2,0,0,0-1.06-1.63,1.15,1.15,0,0,0,.75-1.92A1.23,1.23,0,1,0,1803.76,109.28Zm-7.57-5.47a1.2,1.2,0,0,0-.41-2.36,1.22,1.22,0,0,0-1.33,1.23c-.61.18-.85.75-1.2,1.3-.9,1.42,1.72,2.69,2.43,1.25A2.92,2.92,0,0,0,1796.19,103.81Zm4,5.4a1.22,1.22,0,1,0,0,2.44A1.22,1.22,0,1,0,1800.16,109.21Zm4.37-17.47a1.22,1.22,0,1,0,0,2.44A1.22,1.22,0,1,0,1804.53,91.74Zm-15.75-14.36a1.23,1.23,0,0,0-1.33,1.24,1.76,1.76,0,0,0-.43-.07,1.22,1.22,0,1,0,1.33,1.19,1.37,1.37,0,0,0,.43.08A1.22,1.22,0,1,0,1788.78,77.38Zm8.31-6.61a1.24,1.24,0,1,0,0,2.47A1.24,1.24,0,1,0,1797.09,70.77Zm3.42,4.75c-.62-.19-1.22-.4-1.82-.65-1.7-1-3.07,1.67-1.1,2.16a21.39,21.39,0,0,0,2.21.77A1.2,1.2,0,1,0,1800.51,75.52Zm-9.11-8.92a1.19,1.19,0,1,0,0-2.38A1.19,1.19,0,1,0,1791.4,66.6Zm4.38-7.85a1.22,1.22,0,1,0,0,2.44A1.22,1.22,0,1,0,1795.78,58.75Zm12.78-7.68a2.57,2.57,0,0,0-1.83,2c-.32,1.77,2.38,2,2.61.64a1.38,1.38,0,0,1,.11-.41l.14,0C1811,52.7,1810,50.54,1808.56,51.07Zm-43,3.79a1.23,1.23,0,1,0,0,2.46A1.23,1.23,0,1,0,1765.57,54.86Zm10.07,2.45a1.22,1.22,0,1,0,0-2.43A1.22,1.22,0,1,0,1775.64,57.31Zm3.5-2.4a1.18,1.18,0,0,0-1.21.8,1.23,1.23,0,1,0,1.6,1.49A1.16,1.16,0,0,0,1779.14,54.91Zm4.82.82a1.19,1.19,0,1,0,0-2.38A1.19,1.19,0,1,0,1784,55.73Zm5.08-.91.86-.41c1.55-.75.18-2.7-1.37-2.07l-.89.36C1786,53.35,1787.45,55.59,1789,54.82Zm-6.32,7.87a1.19,1.19,0,0,0,1.2.81,1.25,1.25,0,1,0,1.35-1.28h0a1.14,1.14,0,0,0-.9-1,1.23,1.23,0,0,0-1.28-.87A1.21,1.21,0,0,0,1782.72,62.69Zm9.64-7.68c-.39,1.47,1.66,2,2.33.91a1.22,1.22,0,0,0,1.09.57A3.71,3.71,0,0,0,1794,54.2a1.17,1.17,0,0,0-.91-1.61c-.27,0-.53-.07-.8-.08A1.26,1.26,0,1,0,1792.36,55Zm-.08,4.15a1.21,1.21,0,1,0,0,2.41A1.21,1.21,0,1,0,1792.28,59.16ZM1798,55a1.36,1.36,0,0,0,.89-.3c1.26,1,3-.6,1.87-1.76a1.25,1.25,0,1,0-1.58-.3,1.21,1.21,0,0,0-.29.19,1.37,1.37,0,0,0-.89-.31A1.24,1.24,0,1,0,1798,55Zm.87,1.42a1.21,1.21,0,0,0-.75,2.23,1.26,1.26,0,1,0,1.94-.46A1.21,1.21,0,0,0,1798.84,56.42ZM1788.78,56a1.23,1.23,0,1,0,0,2.46A1.23,1.23,0,1,0,1788.78,56Zm-1.32,6.75a1.25,1.25,0,1,0,0-2.5A1.25,1.25,0,1,0,1787.46,62.78Zm3.5,9.68A1.27,1.27,0,0,0,1792,72c.48,1.88,2.9,1.46,3,.12a1.23,1.23,0,0,0-1-2,2.16,2.16,0,0,0-1.8.81,1.23,1.23,0,1,0-1.27,1.63Zm3.77-1.24v0C1794.67,71.21,1794.65,71.18,1794.73,71.22ZM1797,63.4a1.24,1.24,0,0,0-1.22-.75,1.21,1.21,0,1,0,0,2.41h0a1.14,1.14,0,0,0,.64.69,1.25,1.25,0,1,0,.83.1A1.23,1.23,0,1,0,1797,63.4Zm8.41.8a1.2,1.2,0,0,0-.56,2.31,1.24,1.24,0,1,0,1.55-.28A1.21,1.21,0,0,0,1805.41,64.2Zm.88-7.39A1.22,1.22,0,0,0,1805,58c-.76-.05-.39,0-.65,0a1.23,1.23,0,0,0-.88-2.28,1.24,1.24,0,0,0-1.09-2,1.26,1.26,0,1,0,.23,2.46,1.08,1.08,0,0,0-.18.29h-.05a1.23,1.23,0,1,0,0,2.45,1.24,1.24,0,0,0,1.24-.78c.31,0,0,0,.24,0a1.28,1.28,0,0,0,.7,2.41c.3,0,.59,0,.88-.06.89-.11,1.33-.68,1.32-1.24A1.21,1.21,0,0,0,1806.29,56.81Zm-71.36-4.24a1.2,1.2,0,1,0,0,2.39A1.2,1.2,0,1,0,1734.93,52.57Zm8.32.36a1.22,1.22,0,1,0,0,2.44A1.22,1.22,0,1,0,1743.25,52.93Zm7.44,0a1.21,1.21,0,1,0,0,2.42A1.21,1.21,0,1,0,1750.69,52.94Zm26.7,79.93c-.58,0-1.16-.06-1.75-.08a1.32,1.32,0,1,0,0,2.63c.59,0,1.17,0,1.75-.09A1.23,1.23,0,1,0,1777.39,132.87Zm9.63-2.72a1.24,1.24,0,1,0,0,2.47A1.24,1.24,0,1,0,1787,130.15Zm10.51-20a1.24,1.24,0,1,0,0-2.48A1.24,1.24,0,1,0,1797.53,110.11Zm-3.5,6.45a1.22,1.22,0,0,0-.28,2.43,5.52,5.52,0,0,0-1.51.57,1.33,1.33,0,0,0-2.25-1.07h.1c-1.84.12-1.78,2.72,0,2.52a2.86,2.86,0,0,0,1.65-.61,1.4,1.4,0,0,0,.42.93,1.17,1.17,0,0,0,1,1.92,1.15,1.15,0,0,0,1.06-1.81l.51-.26a1.14,1.14,0,0,0,.48-1.65,1.22,1.22,0,0,0-.83-.54A1.22,1.22,0,0,0,1794,116.56Zm-.88-5.08a1.26,1.26,0,0,0-.89,2.25,1.3,1.3,0,1,0,2.24-.75A1.26,1.26,0,0,0,1793.15,111.48Zm-15.87,8.36a1.35,1.35,0,0,0,2.27-1.21C1779.74,116.07,1774.83,117.78,1777.28,119.84Zm8.43-5.08a1.23,1.23,0,1,0,0-2.46A1.23,1.23,0,1,0,1785.71,114.76Zm-7.44,8.37a1.27,1.27,0,1,0,0,2.54A1.27,1.27,0,1,0,1778.27,123.13Zm-7.88-46.54a1.24,1.24,0,1,0,0,2.48A1.24,1.24,0,1,0,1770.39,76.59Zm4.38-8.8a1.22,1.22,0,1,0,0-2.43A1.22,1.22,0,1,0,1774.77,67.79Zm26.26,7a1.46,1.46,0,0,0,.66-.15c2.1,1,2.9-2.34.66-2.34a1.49,1.49,0,0,0-.66.15C1799.59,71.46,1798.78,74.8,1801,74.8Zm2.19,5.7a1.23,1.23,0,0,0-1.23.78,1.5,1.5,0,0,0-1-.4l-.87-.07a1.29,1.29,0,1,0,0,2.57c.94-.07,1.74,0,2.09-.83a1.36,1.36,0,0,0,1,.36A1.21,1.21,0,1,0,1803.22,80.5Zm-5.69,6.5a1.31,1.31,0,1,0,0,2.61A1.31,1.31,0,1,0,1797.53,87Zm.88,11.47a1.24,1.24,0,0,0,1.33-1.16,1.25,1.25,0,1,0-1.37-1.31A1.24,1.24,0,1,0,1798.41,98.47Zm4.81-.56a1.25,1.25,0,0,0-1.33,1.06c-1.25-.91-2.9.51-2,1.74a1.36,1.36,0,0,0-.42.1,1.29,1.29,0,0,0-1.11-.55,1.24,1.24,0,1,0,0,2.48,1.49,1.49,0,0,0,.66-.16c.91,1.29,3.26,0,2.16-1.42a1.16,1.16,0,0,0,.28,0c.51,1.55,3.29.81,2.49-.91A1.24,1.24,0,0,0,1803.22,97.91ZM1795.78,93a1.2,1.2,0,1,0,0-2.39A1.2,1.2,0,1,0,1795.78,93Zm-4.38-1.63a1.22,1.22,0,1,0,0,2.43A1.22,1.22,0,1,0,1791.4,91.36Zm-37.21,33.49a1.23,1.23,0,1,0,0-2.46A1.23,1.23,0,1,0,1754.19,124.85Zm10.07-7.83a1.17,1.17,0,1,0,0,2.34A1.17,1.17,0,1,0,1764.26,117Zm-2.63,9.67a1.21,1.21,0,1,0,0,2.41A1.21,1.21,0,1,0,1761.63,126.69Zm7,.36a1.23,1.23,0,1,0,0,2.46A1.23,1.23,0,1,0,1768.64,127.05Zm-37.34,5.78-.4.41c-1.14,1.2.59,2.73,1.93,1.72l.48-.36C1734.69,133.54,1732.5,131.6,1731.3,132.83Zm6.26-12a1.25,1.25,0,1,0,0,2.5A1.25,1.25,0,1,0,1737.56,120.82Zm8.32,12.41a4.27,4.27,0,0,0-2.33.57c-1.35,1.14.57,3.09,1.87,2,1-.12,1.87-.33,1.87-1.3A1.35,1.35,0,0,0,1745.88,133.23Zm8.7,0c-2.07-.28-2.48,2.39-.43,2.52,1.3,1,3-.57,1.89-1.75A2.45,2.45,0,0,0,1754.58,133.25Zm4.43,1.55a1.24,1.24,0,1,0,0,2.48A1.24,1.24,0,1,0,1759,134.8Zm-63.64-6.27c-1.4,1.16.9,3.11,2.07,1.83q0-.17.21-.12C1699.86,129.82,1698.1,126.27,1695.37,128.53Zm9.43-3.28s0,0,0,0c-.48-1.61-3.4-.88-2.8.68a2.43,2.43,0,0,0,1.91,1.61C1705.62,127.8,1706.19,125.92,1704.8,125.25Zm2.55,6.79a1.29,1.29,0,1,0,0,2.57A1.29,1.29,0,1,0,1707.35,132Zm39-100.75a1.2,1.2,0,1,0,0-2.4A1.2,1.2,0,1,0,1746.31,31.29Zm.41,1.84a1.13,1.13,0,0,0,.37.47,1.51,1.51,0,0,0,.37.48,1.18,1.18,0,0,0,.6,2.24,1.19,1.19,0,0,0,1-2,1.21,1.21,0,0,0,.71-1.78,2.1,2.1,0,0,0-1.3-1.17C1747.33,31.15,1746.29,32,1746.72,33.13Zm-2.9-6.92c-.09,1.22,1.07,1.39,2.43,1.17a1.18,1.18,0,0,0,0-2.34C1744.89,24.81,1743.73,25,1743.82,26.21Zm10.37,9.4a1.25,1.25,0,1,0,0-2.5A1.25,1.25,0,1,0,1754.19,35.61Zm-3.5,5a1.19,1.19,0,1,0,0-2.37A1.19,1.19,0,1,0,1750.69,40.59Zm32-1.54a1.2,1.2,0,1,0,0-2.4A1.2,1.2,0,1,0,1782.65,39.05Zm3.06-2.28c1.74.13,2.08-2.7-.44-2.46C1783.59,34.46,1783.26,36.6,1785.71,36.77Zm.53,3.8c-.15-1.6-3-1.58-2.81,0a2.28,2.28,0,0,0,1.16,1.82,1.27,1.27,0,0,0,1.65-1.9Zm-5.48,1a1.16,1.16,0,0,0-.49-1.66,5.35,5.35,0,0,1-1-.61c-1.37-1.07-3.39.73-2,1.77C1778.43,41.93,1780,42.72,1780.76,41.57Zm-32.9-4.47a1.31,1.31,0,0,0-1.11-.52,1.28,1.28,0,1,0,.36,2.48,1.31,1.31,0,0,0,1,.36A1.18,1.18,0,1,0,1747.86,37.1Zm5,1.18c-.42,1.52,1.57,2,2.33,1.23a1.46,1.46,0,0,0,1.07-.63,1.42,1.42,0,0,0,1.49-.2c1.42-.09,1.91-2.1.31-2.41a2.11,2.11,0,0,0-2.34.82,2.47,2.47,0,0,0-1.55-.1,1.21,1.21,0,1,0-1.31,1.29Zm5.29-.12-.06.05,0,0Zm2.6,3.2a1.17,1.17,0,0,0,1.22-1.53,1.63,1.63,0,0,0,1.91-.72,1.17,1.17,0,0,0-.57-2.07c-1.65-.31-2.57,1-2.23,2a1.75,1.75,0,0,0-.33-.06A1.18,1.18,0,1,0,1760.76,41.36Zm2.58-1.93h0Zm7.69-.07a1.43,1.43,0,0,0,2.14.18c-.09-.11,0-.14.22-.11,1.67-.32,1.19-2.87-1.08-2.34A1.38,1.38,0,1,0,1771,39.36ZM1805.85,32a1.23,1.23,0,1,0,0,2.45A1.23,1.23,0,1,0,1805.85,32Zm-2.63-5.73a1.2,1.2,0,1,0,0-2.39A1.2,1.2,0,1,0,1803.22,26.24Zm2.63,2a1.22,1.22,0,1,0,0-2.43A1.22,1.22,0,1,0,1805.85,28.2Zm6.13-2.44a1.32,1.32,0,0,0-1,.35,1.18,1.18,0,0,0-1.24-1.48,1.19,1.19,0,1,0,0,2.38,1.34,1.34,0,0,0,.91-.33,1.21,1.21,0,0,0,1.28,1.53A1.23,1.23,0,1,0,1812,25.76Zm-8.39,3.6c-.41-1.4-1.47-.9-2.84-.36-1.65.63-.2,3,1.44,2.18l.65-.33a1.2,1.2,0,1,0,.75-1.49Zm2.7-7.46a1.21,1.21,0,1,0,0,2.41A1.21,1.21,0,1,0,1806.29,21.9Zm-4.38-3.12a1.22,1.22,0,1,0,0,2.44A1.22,1.22,0,1,0,1801.91,18.78Zm-41.15-2a1.3,1.3,0,0,0-1.13.56,1.24,1.24,0,0,0-1.06-.51,1.2,1.2,0,1,0,0,2.39,1.24,1.24,0,0,0,1.06-.5,1.31,1.31,0,0,0,1.13.55A1.25,1.25,0,1,0,1760.76,16.81Zm-5.25,1.2a1.22,1.22,0,1,0,0,2.43A1.22,1.22,0,1,0,1755.51,18Zm11.82-6.21a1.22,1.22,0,1,0,0,2.43A1.22,1.22,0,1,0,1767.33,11.8Zm-4.14,3.28a1.27,1.27,0,0,0-1.12-.57c-2.23,0-1.37,3.34.68,2.27a1.24,1.24,0,0,0,1.07.53C1766,17.31,1765.19,14.1,1763.19,15.08Zm-8.49-1.3c-1.23.15-1.57,2.15.42,2.4C1757.33,16.47,1757.76,13.41,1754.7,13.78Zm2.56-3.13a1.2,1.2,0,1,0,0,2.39A1.2,1.2,0,1,0,1757.26,10.65Zm2.62,1.24a1.21,1.21,0,1,0,0-2.41A1.21,1.21,0,1,0,1759.88,11.89Zm19.7,8.81a1.24,1.24,0,1,0,0,2.48A1.24,1.24,0,1,0,1779.58,20.7Zm6.57-.75a1.27,1.27,0,0,0-1.06.49l-.09-.05c-1.74-1.56-3.51.1-2.65,1.2s2.39,1.76,3.2.67a1.56,1.56,0,0,0,.6.12A1.22,1.22,0,1,0,1786.15,20Zm-.14,3.59a2.2,2.2,0,0,0-2.41,0c-1,.68-.29,2.25,1.12,2.29l.17,0C1786.41,26.45,1787.51,24.16,1786,23.54Zm-25.25-9.25a1.28,1.28,0,1,0,0-2.55A1.28,1.28,0,1,0,1760.76,14.29Zm18,56.44a1.28,1.28,0,1,0,0,2.55A1.28,1.28,0,1,0,1778.71,70.73Zm21.09-1.82a2,2,0,0,0-1.42,2.64c.42,1.54,3.09.89,2.68-.63A1.21,1.21,0,0,0,1799.8,68.91Zm3.42-1.68a1.28,1.28,0,1,0,0,2.56A1.28,1.28,0,1,0,1803.22,67.23ZM1771.7,58c-1.69-.14-2.08,2.63.44,2.42C1773.77,60.26,1774.16,58.17,1771.7,58Zm11,9a1.17,1.17,0,1,0,0-2.33A1.17,1.17,0,1,0,1782.65,67Zm2.62,5.07a1.19,1.19,0,1,0,0-2.38A1.19,1.19,0,1,0,1785.27,72Zm17.51,12.34a1.2,1.2,0,0,0-1.27,1.5h0a1.28,1.28,0,1,0,0,2.56,1.27,1.27,0,0,0,1.33-1.62A1.22,1.22,0,1,0,1802.78,84.37Zm-17.51,19.5a1.21,1.21,0,1,0,0-2.41A1.21,1.21,0,1,0,1785.27,103.87Zm5.26,4.64a1.19,1.19,0,1,0,0-2.38A1.19,1.19,0,1,0,1790.53,108.51Zm8.17-4c-1.26,1.16.71,2.93,2,1.85a1.26,1.26,0,0,0,1.88.85,1.29,1.29,0,0,0,1.09.1,1.24,1.24,0,1,0,0-2.25,1.35,1.35,0,0,0-1.08.1,1.45,1.45,0,0,0-.62-.14C1801.83,103.5,1799.85,103.42,1798.7,104.48Zm1,13.37a1.21,1.21,0,0,0,.89-2.12,1.22,1.22,0,0,0-1.11-1.48,1.25,1.25,0,1,0-.87.11,1.23,1.23,0,0,0-.2,2.1A1.2,1.2,0,0,0,1799.72,117.85Zm-.88-23.64a1.25,1.25,0,1,0,0-2.5A1.25,1.25,0,1,0,1798.84,94.21Zm-3.6,32a2.58,2.58,0,0,1-.72.41l-.1.06a1,1,0,0,0-.91-.75c-.19.05-.28,0-.25-.1a1.28,1.28,0,0,0-.53-.32c0-1.77-3-1.52-2.61.31a2.44,2.44,0,0,0-1.25,1c-.79,1,.78,2.41,1.93,1.71a4.63,4.63,0,0,0,.77-.54c.06,0,.07-.1.12-.15a2.15,2.15,0,0,0,.26.14,1.28,1.28,0,1,0,2.09.84,1.51,1.51,0,0,0,1.6.13,6.06,6.06,0,0,0,1.56-1C1798.48,126.85,1796.58,125.22,1795.24,126.24Zm5.11-3a.94.94,0,0,0,.08-1.27,1.14,1.14,0,0,0,.68-1c.84-.77.15-2.25-1.32-2a1.62,1.62,0,0,0-1.44,1.38c-1.79-1.28-3.18,1.76-1.09,2.12a3.29,3.29,0,0,0-.68,1.94c0,1.23,1.63,1.49,2.39.81A1.26,1.26,0,0,0,1800.35,123.2Zm.17-1.9,0,0,0,0Zm-13.39,5.91c1.27-1.14-.62-2.75-2-1.74-1,.73-1.89.47-1.73,1.8a1.32,1.32,0,0,0-1.23-.67,1.3,1.3,0,1,0,0,2.59,1.28,1.28,0,0,0,1.37-1.49,1.54,1.54,0,0,0,2,.51c.22-.1.43-.22.64-.34A3.78,3.78,0,0,0,1787.13,127.21Zm-.79-3.71a1.25,1.25,0,1,0,1.37-2.08c-1.08-.68-1.93-1.5-2.85-.7a1.25,1.25,0,0,0-1.34-1.08,1.27,1.27,0,1,0,0,2.53,1.4,1.4,0,0,0,.86-.28C1784.48,122.64,1785.54,123.09,1786.34,123.5ZM1774.77,129a1.26,1.26,0,1,0,0,2.52A1.26,1.26,0,1,0,1774.77,129ZM22,30.19l.12.43a1.92,1.92,0,0,0-.6-.19A1.35,1.35,0,0,0,22,30.19Zm-5.35,8.58.1.15s0,0,0,0l-.17-.14Zm2.4.1c.38-.5.29-.84,1-1a1.32,1.32,0,0,0,.76-.54A1.16,1.16,0,0,0,21.31,36a1.28,1.28,0,0,0,.74-.14,1.49,1.49,0,0,0,1.76-.42l.34.9a1.33,1.33,0,0,0-1.88.91c-.21.07-.43.12-.63.21a1.22,1.22,0,0,0-1.57,1.31A1.19,1.19,0,0,0,21,40.21a1.25,1.25,0,0,0,1.55.74,2.06,2.06,0,0,0-.64.92,24.77,24.77,0,0,1-3.23-1.56A1.14,1.14,0,0,0,19,38.87Zm6.29,1c.09.33.17.65.25,1-.25-.59-.09-.49-.29-1Zm.48,2.28c0,.35.08.7.1,1-.36-.09-.71-.19-1.06-.3A1.3,1.3,0,0,0,25.78,42.12ZM56.44,23.27a1.44,1.44,0,0,0,1.82-.09,1.25,1.25,0,0,0,.47.07s-.07.11,0,.15h-.1a1.31,1.31,0,0,0-1.32,1.53C56,26,57.7,27.78,59,26.73a1.38,1.38,0,0,0,2.4.65,1.32,1.32,0,0,0,1.2-1.12,1.32,1.32,0,0,0,1.11-.14,1,1,0,0,0,.37.65,64.88,64.88,0,0,1-8.62,2.41,1,1,0,0,0,.35-.34,1.5,1.5,0,0,0,.58.11,1.19,1.19,0,1,0,0-2.38,1.35,1.35,0,0,0-1,.36.57.57,0,0,0-.08-.13,1.22,1.22,0,0,0,.17-.58A1.22,1.22,0,0,0,56,24.08,1.23,1.23,0,0,0,56.44,23.27Zm11.26.63A1.18,1.18,0,0,0,68.48,25c-.55.26-1.11.52-1.68.76a1.17,1.17,0,0,0,.08-1.09A1.16,1.16,0,0,0,67.7,23.9Zm-5.43-.09a1.66,1.66,0,0,0-1,.3.88.88,0,0,0-.24-.94c.25,0,.18.1.66,0A1.22,1.22,0,0,0,62.27,23.81Zm-11.59-.42a1.54,1.54,0,0,0,1.51.94,1.23,1.23,0,0,0,.71,1.91,1.2,1.2,0,0,0,.06.32,2,2,0,0,0-1.79,1.25,1.38,1.38,0,0,0-1.12.08,4,4,0,0,1-.06-.5,1.23,1.23,0,0,0,1.6-1.33,1.23,1.23,0,0,0-1.26-1.48C50.43,24.18,50.54,23.78,50.68,23.39Zm3.18,5.81a1.38,1.38,0,0,0,.43.17l-.56.07A.7.7,0,0,0,53.86,29.2Zm-.64-5.41c.29-.46.1-.51.52-.87a1.24,1.24,0,0,0,.29,1A1.29,1.29,0,0,0,53.22,23.79Zm-20.42,2a.94.94,0,0,0,.68,0,4.91,4.91,0,0,0,.26,2.59C32.44,27.45,32.88,27,32.8,25.81ZM16.07,32.33a.5.5,0,0,0,0-.12l.08,0Zm-4-3.77,0,0h0Z"/><path class="cls-2" d="M213.12,43.6a1.24,1.24,0,1,0,0,2.47A1.24,1.24,0,1,0,213.12,43.6Z"/><path class="cls-2" d="M220.56,40.86a1.27,1.27,0,1,0,0,2.53A1.27,1.27,0,1,0,220.56,40.86Z"/><path class="cls-2" d="M223.19,42.12a1.17,1.17,0,1,0,0,2.34A1.17,1.17,0,1,0,223.19,42.12Z"/><path class="cls-2" d="M224.5,45.15a1.24,1.24,0,1,0,0,2.48A1.24,1.24,0,1,0,224.5,45.15Z"/><path class="cls-2" d="M231.07,40.07a1.28,1.28,0,1,0,0,2.55A1.28,1.28,0,1,0,231.07,40.07Z"/><path class="cls-2" d="M201.3,41.69a1.21,1.21,0,1,0,0,2.42A1.21,1.21,0,1,0,201.3,41.69Z"/><path class="cls-2" d="M214.87,38.91a1.27,1.27,0,1,0,0,2.54A1.27,1.27,0,1,0,214.87,38.91Z"/><path class="cls-2" d="M51.15,60a1.25,1.25,0,0,0,1.26-.81A1.36,1.36,0,0,0,53.89,58c0-.05,0-.07,0-.08s0,0,.15,0c1.39-.58.4-2.73-1.06-2.22a2.69,2.69,0,0,0-1.85,1.89A1.22,1.22,0,1,0,51.15,60Z"/><path class="cls-2" d="M62.09,54.47a1.24,1.24,0,1,0,0,2.47A1.24,1.24,0,1,0,62.09,54.47Z"/><path class="cls-2" d="M67.35,55.26a1.23,1.23,0,1,0,0,2.45A1.23,1.23,0,1,0,67.35,55.26Z"/><path class="cls-2" d="M15.69,50a1.23,1.23,0,0,0,.37-2.43.16.16,0,0,1-.21-.11c-1.26-1.24-3.38.62-2.07,1.83A2.61,2.61,0,0,0,15.69,50Z"/><path class="cls-2" d="M17.88,54.43a1.27,1.27,0,0,0-1.24,1.84c-.33,1.84,2.81,1.84,2.47,0A1.26,1.26,0,0,0,17.88,54.43Z"/><path class="cls-2" d="M15.48,116.25a1.43,1.43,0,0,0,2.49-.78v.08c1.24-1.14-.65-2.79-2-1.6a1.4,1.4,0,0,0-2.46.55C11.86,115.77,14.34,117.71,15.48,116.25Z"/><path class="cls-2" d="M17.93,122.51s0,0,0,0a1.17,1.17,0,0,0,.28-1.14l.4.37a1.43,1.43,0,0,0,2.29-.59,1.29,1.29,0,1,0,1.94-1.4,1.31,1.31,0,0,0-1.68-2c-.82-1.09-2.91-.43-2.46,1.12-.87,0-1.6.89-1.21,1.66-1.26-.51-2.55.93-2.38,2.25C15.37,124.65,18.25,124.33,17.93,122.51Zm2.41-2.7a1.51,1.51,0,0,0,.38-.09,1.18,1.18,0,0,0,.47.38,1.13,1.13,0,0,0-.23.45A1.62,1.62,0,0,0,20.34,119.81Z"/><path class="cls-2" d="M23.13,127.08l-1.31,0a1.23,1.23,0,1,0,0,2.46l1.31,0A1.2,1.2,0,1,0,23.13,127.08Z"/><path class="cls-2" d="M28.82,130.53a1.29,1.29,0,0,0-1.05.46s-.06-.1-.1-.14a1.76,1.76,0,0,0-2.58.54c-.54.88.16,2.1,1.54,2a1.57,1.57,0,0,0,1.22-.76,1.34,1.34,0,0,0,1,.36A1.24,1.24,0,1,0,28.82,130.53Z"/><path class="cls-2" d="M29,120c-1.33-1.14-3.39.7-2,1.79.11,0,.15.1.12.21.31,1.36,2.7,1,2.7-.33A2.06,2.06,0,0,0,29,120Z"/><path class="cls-2" d="M37.66,132.55c.08-1.38-2.2-1.64-2.7-.42a1.26,1.26,0,0,0-.81,0c-.42.14-.83.3-1.23.47-1.66.66-.2,3,1.44,2.19.2-.09.38-.19.57-.29,1,3.12,4.11,1.23,3.08-.32A2.46,2.46,0,0,1,37.66,132.55Z"/><path class="cls-2" d="M25.32,125.68a1.26,1.26,0,0,0,.85-2.29,1.26,1.26,0,1,0-2.19.73A1.26,1.26,0,0,0,25.32,125.68Z"/><path class="cls-2" d="M18.32,110.89a1.24,1.24,0,1,0,0-2.48A1.24,1.24,0,1,0,18.32,110.89Z"/><path class="cls-2" d="M15.69,111.65a1.23,1.23,0,1,0,0-2.45A1.23,1.23,0,1,0,15.69,111.65Z"/><path class="cls-2" d="M17.88,73.22a1.22,1.22,0,1,0,0-2.43A1.22,1.22,0,1,0,17.88,73.22Z"/><path class="cls-2" d="M18.32,63a1.26,1.26,0,1,0,0,2.52A1.26,1.26,0,1,0,18.32,63Z"/><path class="cls-2" d="M26.2,62a1.26,1.26,0,0,0,1-.47A1.2,1.2,0,0,0,28,60.31,1.19,1.19,0,0,0,27.51,58a1.2,1.2,0,0,0-1.3,1.19,1.22,1.22,0,0,0-.75.56A1.2,1.2,0,0,0,26.2,62Z"/><path class="cls-2" d="M22.69,53a1.21,1.21,0,1,0,0-2.42A1.21,1.21,0,1,0,22.69,53Z"/><path class="cls-2" d="M26.06,54.88a1.61,1.61,0,0,0,2.78,1,1.33,1.33,0,0,0,.86.3,1.21,1.21,0,1,0,0-2.42,1.47,1.47,0,0,0-.49.09c.46-1.37-1.1-2.27-3.29-1.14A1.2,1.2,0,0,0,26.06,54.88Z"/><path class="cls-2" d="M37.58,56.19a1.26,1.26,0,1,0,0-2.52A1.26,1.26,0,1,0,37.58,56.19Z"/><path class="cls-2" d="M45,54.67a1.3,1.3,0,1,0,0-2.59A1.3,1.3,0,1,0,45,54.67Z"/><path class="cls-2" d="M30.74,58.72c.54.22,1.08.39,1.64.56a1.31,1.31,0,1,0,.77-2.49,11.77,11.77,0,0,0-1.33-.34C30.37,56.19,29.22,58.07,30.74,58.72Z"/><path class="cls-2" d="M23.13,59.92a1.22,1.22,0,1,0,0,2.44A1.22,1.22,0,1,0,23.13,59.92Z"/><path class="cls-2" d="M19.64,59.45c-.19-1.8-3.29-1.25-2.59.59-.22.82.35,1.65,1.49,1.5A1.21,1.21,0,0,0,19.64,59.45Z"/><path class="cls-2" d="M21.54,56a1.1,1.1,0,0,0,.77.54A1.23,1.23,0,1,0,24,55.73c.37-.75-.65-2.35-1.59-2.38l0-.05c-1.35-1-3.07.51-1.93,1.71C20.76,55.37,21.16,55.69,21.54,56Z"/><path class="cls-2" d="M21.38,69.73a1.31,1.31,0,0,0,.83-.27c-.27,1.35,2,2.09,2.72.55,0,.07,0,0,.2-.07,1.4-.55.4-2.65-1.05-2.2a3.1,3.1,0,0,0-1.38.83,1.21,1.21,0,0,0-1.32-1.28A1.22,1.22,0,1,0,21.38,69.73Z"/><path class="cls-2" d="M28.33,64.3a1.22,1.22,0,0,0-1.26-.88,1.19,1.19,0,0,0-.33,2.36,1.18,1.18,0,0,0,1.21.8A1.16,1.16,0,0,0,28.33,64.3Z"/><path class="cls-2" d="M30.57,65a1.19,1.19,0,1,0,0-2.37A1.19,1.19,0,1,0,30.57,65Z"/><path class="cls-2" d="M22.26,67a1.25,1.25,0,1,0,0-2.49A1.25,1.25,0,1,0,22.26,67Z"/><path class="cls-2" d="M23.13,75.09a1.18,1.18,0,0,0-1.19,1.64,1.45,1.45,0,0,0-1.49.25,1.1,1.1,0,0,0-.9.39c-2.27,2.56,2.38,4,2.3,1.57a1.17,1.17,0,0,0,.73-1.58,1.54,1.54,0,0,0,.55.1A1.19,1.19,0,1,0,23.13,75.09Z"/><path class="cls-2" d="M20.94,58.87a1.23,1.23,0,1,0,0-2.45A1.23,1.23,0,1,0,20.94,58.87Z"/><path class="cls-2" d="M16.54,53c.06,1.53,2.62,1.53,2.68,0a9.54,9.54,0,0,0,0-1.85,1.15,1.15,0,0,0-.85-2,1.15,1.15,0,0,0-1.24,1.35C16.34,51,16.5,52.08,16.54,53Z"/><path class="cls-2" d="M20.94,72.34a1.21,1.21,0,0,0-1.13,1.85,1.23,1.23,0,1,0,2.26,0A1.2,1.2,0,0,0,20.94,72.34Z"/><path class="cls-2" d="M16.13,106.23a1.24,1.24,0,1,0,0-2.48A1.24,1.24,0,1,0,16.13,106.23Z"/><path class="cls-2" d="M17,102.71a1.21,1.21,0,1,0,0-2.42A1.21,1.21,0,1,0,17,102.71Z"/><path class="cls-2" d="M20.07,116.71a1.24,1.24,0,1,0,0-2.47A1.24,1.24,0,1,0,20.07,116.71Z"/><path class="cls-2" d="M39.46,126.7a1.21,1.21,0,1,0,0,2.38A1.26,1.26,0,1,0,39.46,126.7Z"/><path class="cls-2" d="M44.14,135.19a1.24,1.24,0,1,0,0,2.48A1.24,1.24,0,1,0,44.14,135.19Z"/><path class="cls-2" d="M47.65,123.9a1.28,1.28,0,1,0,0,2.55A1.28,1.28,0,1,0,47.65,123.9Z"/><path class="cls-2" d="M54.21,132.09a1.29,1.29,0,0,0-1.06.47,1.17,1.17,0,1,0,.19,2.34,1.32,1.32,0,0,0,.94-.35A1.23,1.23,0,1,0,54.21,132.09Z"/><path class="cls-2" d="M66.47,124.67a1.28,1.28,0,1,0,0,2.56A1.28,1.28,0,1,0,66.47,124.67Z"/><path class="cls-2" d="M24.88,102.76a1.26,1.26,0,1,0,0-2.52A1.26,1.26,0,1,0,24.88,102.76Z"/><path class="cls-2" d="M26.63,91a1.2,1.2,0,1,0,0,2.4A1.2,1.2,0,1,0,26.63,91Z"/><path class="cls-2" d="M18.75,94.16a1.2,1.2,0,0,0,1.3-1.1,1.14,1.14,0,0,0,0-1.73,1.21,1.21,0,0,0-1.31-1.14,1.22,1.22,0,0,0-1,2A1.2,1.2,0,0,0,18.75,94.16Z"/><path class="cls-2" d="M20.07,85.63a1.21,1.21,0,1,0,0-2.41A1.21,1.21,0,1,0,20.07,85.63Z"/><path class="cls-2" d="M34.08,56.14a2.76,2.76,0,0,0,1.82-.76,1.1,1.1,0,0,0,.35-.94c.39-1.67-2.18-2.11-2.59-.62A1.18,1.18,0,0,0,34.08,56.14Z"/><path class="cls-2" d="M42.39,55.78a1.24,1.24,0,1,0,0-2.48A1.24,1.24,0,1,0,42.39,55.78Z"/><path class="cls-2" d="M43.71,60.3a1.23,1.23,0,1,0,0,2.45A1.23,1.23,0,1,0,43.71,60.3Z"/><path class="cls-2" d="M55.53,53.31a1.23,1.23,0,1,0,0,2.46A1.23,1.23,0,1,0,55.53,53.31Z"/><path class="cls-2" d="M46.37,72.78a1.37,1.37,0,0,0-2.7,0c0,.26,0,.52,0,.78,0,1.57,2.78,1.57,2.74,0C46.39,73.3,46.38,73,46.37,72.78Z"/><path class="cls-2" d="M38,61.85a1.23,1.23,0,1,0,0,2.46A1.23,1.23,0,1,0,38,61.85Z"/><path class="cls-2" d="M34.08,72a1.17,1.17,0,1,0,0,2.34A1.17,1.17,0,1,0,34.08,72Z"/><path class="cls-2" d="M30.57,68.58a1.23,1.23,0,1,0,0-2.46A1.23,1.23,0,1,0,30.57,68.58Z"/><path class="cls-2" d="M30.57,78.53a1.24,1.24,0,1,0,0,2.47A1.24,1.24,0,1,0,30.57,78.53Z"/><path class="cls-2" d="M33.2,95.35a1.23,1.23,0,1,0,0-2.45A1.23,1.23,0,1,0,33.2,95.35Z"/><path class="cls-2" d="M19.63,102.35a1.24,1.24,0,1,0,0-2.48A1.24,1.24,0,1,0,19.63,102.35Z"/><path class="cls-2" d="M28.82,111.13a1.29,1.29,0,0,0-1.1.53,1.24,1.24,0,0,0,.67,2.34,1.28,1.28,0,0,0,1.14-.58A1.22,1.22,0,0,0,28.82,111.13Z"/><path class="cls-2" d="M24.45,115.1a1.18,1.18,0,1,0,0-2.36A1.18,1.18,0,1,0,24.45,115.1Z"/><path class="cls-2" d="M36.7,115.41c-.43,0-.87,0-1.31-.06a1.29,1.29,0,1,0,0,2.57l1.31,0A1.23,1.23,0,1,0,36.7,115.41Z"/><path class="cls-2" d="M74,134.49a19.36,19.36,0,0,0-2.11.85c-1.64.71-.2,2.92,1.44,2.18A17,17,0,0,0,75,136.7,1.23,1.23,0,0,0,74,134.49Z"/><path class="cls-2" d="M87,127.38c-2.62-.37-2.35,3.36.41,2.49C88.85,129.51,88.8,127.54,87,127.38Z"/><path class="cls-2" d="M187.73,122.39a1.24,1.24,0,1,0,0,2.47A1.24,1.24,0,1,0,187.73,122.39Z"/><path class="cls-2" d="M186,129a1.25,1.25,0,1,0,0,2.5A1.25,1.25,0,1,0,186,129Z"/><path class="cls-2" d="M195.12,125.09c-.44-.12-.88-.24-1.33-.32-1.44-.28-2.57,1.62-1.07,2.24.53.22,1.08.4,1.63.57A1.31,1.31,0,1,0,195.12,125.09Z"/><path class="cls-2" d="M177.22,127.85a1.21,1.21,0,1,0,0,2.41A1.21,1.21,0,1,0,177.22,127.85Z"/><path class="cls-2" d="M171.09,134a1.25,1.25,0,1,0,0,2.49A1.25,1.25,0,1,0,171.09,134Z"/><path class="cls-2" d="M133,125.5a1.23,1.23,0,1,0,0,2.46A1.23,1.23,0,1,0,133,125.5Z"/><path class="cls-2" d="M137.83,121.24a1.22,1.22,0,0,0-1.28,1.53,2.39,2.39,0,0,1-.48,0,1.22,1.22,0,1,0,0,2.44,4.45,4.45,0,0,0,2.44-.57,1.11,1.11,0,0,0,.45-1.59A1.2,1.2,0,0,0,137.83,121.24Z"/><path class="cls-2" d="M76.1,27.73c-1.84.18-1.75,2.52.44,2.41C78.39,30.14,78.36,27.4,76.1,27.73Z"/><path class="cls-2" d="M73,34a1.23,1.23,0,1,0,0-2.45A1.23,1.23,0,1,0,73,34Z"/><path class="cls-2" d="M71.72,35c-1.58-1.21-3.23,1.28-1.51,2.06-.78.17-1.45,1-1.16,1.65a1.2,1.2,0,0,0-.75,0c-2,.68-2.35,2.36-1.21,3A1.47,1.47,0,0,0,69,41.18s.22-.29.06-.24A1.23,1.23,0,0,0,70,39.51a1.43,1.43,0,0,0,1.89-.16,1.39,1.39,0,0,0,1.39-2.24l.76-.73C75.13,35.3,73.59,33.43,71.72,35Zm-.66,2.17h0Z"/><path class="cls-2" d="M60.78,35.81a1.27,1.27,0,1,0,0,2.53A1.27,1.27,0,1,0,60.78,35.81Z"/><path class="cls-2" d="M32.7,41.29a2.49,2.49,0,0,0-.82,2c.14,1.78,2.75,1.42,2.64,0,0-.21-.08-.21,0-.34C35.69,41.82,33.83,40.16,32.7,41.29Z"/><path class="cls-2" d="M41.08,38.21a1.35,1.35,0,0,0-.85.28,1.18,1.18,0,0,0-.66-1,1.42,1.42,0,0,0-2.22,0,1.56,1.56,0,0,0-.65-.14,1.26,1.26,0,1,0,0,2.52,1.32,1.32,0,0,0,1.1-.51,1.43,1.43,0,0,0,2,.18,1.2,1.2,0,1,0,1.28-1.35Z"/><path class="cls-2" d="M47.65,40.89a1.24,1.24,0,1,0,0,2.47A1.24,1.24,0,1,0,47.65,40.89Z"/><path class="cls-2" d="M52.33,40.73a1.35,1.35,0,0,0-.57-.42A1.61,1.61,0,0,0,51,40.2c-1.34.18-2,1.28.52,3.55,1,.93,3.09-.34,2.13-1.46C53.19,41.77,52.73,41.28,52.33,40.73Z"/><path class="cls-2" d="M29.26,33.19a1.17,1.17,0,1,0,0,2.34A1.17,1.17,0,1,0,29.26,33.19Z"/><path class="cls-2" d="M33.4,37.06a1.06,1.06,0,0,0-.19,0,1.23,1.23,0,1,0-1.33,1.28,1.21,1.21,0,0,0,1.52,1.12A1.23,1.23,0,1,0,33.4,37.06Z"/><path class="cls-2" d="M16.13,22.74a1.19,1.19,0,1,0,0-2.38A1.19,1.19,0,1,0,16.13,22.74Z"/><path class="cls-2" d="M19.19,22.74a1.19,1.19,0,1,0,0-2.37A1.19,1.19,0,1,0,19.19,22.74Z"/><path class="cls-2" d="M15.25,27.83a1.24,1.24,0,1,0,0-2.47A1.24,1.24,0,1,0,15.25,27.83Z"/><path class="cls-2" d="M64.11,20.39c-.22,1.55,2.8,1.93,3,0,0,.1.06.05.16-.15a.9.9,0,0,0,.12-1c1,.25,2.29-.66,1.74-1.62.35-1.08-1.3-2.09-2.29-1.18a1.58,1.58,0,0,0-.37,2C65.25,18.08,64.27,19.19,64.11,20.39Z"/><path class="cls-2" d="M59.14,14.57c0-.24-.06-.48-.1-.72-.19-1.16-2.46-1.16-2.65,0,0,.24-.08.48-.1.72C56.2,16.19,59.23,16.19,59.14,14.57Z"/><path class="cls-2" d="M61.66,14.21a1.2,1.2,0,1,0,0-2.39A1.2,1.2,0,1,0,61.66,14.21Z"/><path class="cls-2" d="M68.66,15c1.83-.2,1.82-2.48-.44-2.45C66.37,12.5,66.31,15.36,68.66,15Z"/><path class="cls-2" d="M72.6,14.23a1.22,1.22,0,1,0,0-2.43A1.22,1.22,0,1,0,72.6,14.23Z"/><path class="cls-2" d="M36.27,22a2.14,2.14,0,0,0,1.35-.52c-.63,1.88,2.06,2.11,2.57.9,1.5-1.31-.92-2.87-2.21-1.53.44-1.55-1.32-2.1-2.25-1.22A1.22,1.22,0,0,0,36.27,22Z"/><path class="cls-2" d="M39.1,25.13c-2.07-2.38-4.59,3.11-.29,2.23A1.19,1.19,0,0,0,39.1,25.13ZM39,26.7h0v0Z"/><path class="cls-2" d="M43.4,26.6a.71.71,0,0,1,.18-.55c.79-1.16-1.13-2.55-2.16-1.48a3,3,0,0,0-.91,2C40.45,28.24,43.42,28.25,43.4,26.6Z"/><path class="cls-2" d="M43.71,22.4a1.24,1.24,0,1,0,0-2.48A1.24,1.24,0,1,0,43.71,22.4Z"/><path class="cls-2" d="M16.78,27.39A1.18,1.18,0,0,0,17,29.73a1.37,1.37,0,0,0,.92-.33,2,2,0,0,0,.35,0c1.76-.3,2-2.16,0-2.5A1.45,1.45,0,0,0,16.78,27.39Z"/><path class="cls-2" d="M61.22,19a1.32,1.32,0,1,0,0-2.64A1.32,1.32,0,1,0,61.22,19Z"/><path class="cls-2" d="M64.72,13.1a1.25,1.25,0,1,0,0-2.5A1.25,1.25,0,1,0,64.72,13.1Z"/><path class="cls-2" d="M28,129.9c2.21.33,2.64-2.85-.42-2.4C26.35,127.68,26,129.61,28,129.9Z"/><path class="cls-2" d="M20.51,124.33a1.35,1.35,0,0,0-.85.28,1.36,1.36,0,0,0-2.26,1l0,.71c-.08,1.45,2.34,1.57,2.72.37A1.25,1.25,0,1,0,20.51,124.33Z"/><path class="cls-2" d="M22.26,109.24a1.19,1.19,0,1,0,0,2.37A1.19,1.19,0,1,0,22.26,109.24Z"/><path class="cls-2" d="M21.38,107.36a1.2,1.2,0,1,0,0-2.4A1.2,1.2,0,1,0,21.38,107.36Z"/><path class="cls-2" d="M19.19,105.79a1.19,1.19,0,1,0,0-2.37A1.19,1.19,0,1,0,19.19,105.79Z"/><path class="cls-2" d="M31.89,129.77a1.23,1.23,0,1,0,0,2.45A1.23,1.23,0,1,0,31.89,129.77Z"/><path class="cls-2" d="M35.09,126.12l-.48.75c-.91,1.43,1.72,2.71,2.43,1.26l.4-.8A1.33,1.33,0,0,0,35.09,126.12Z"/><path class="cls-2" d="M44.58,131a1.2,1.2,0,1,0,0,2.4A1.2,1.2,0,1,0,44.58,131Z"/><path class="cls-2" d="M41.08,132.89a1.21,1.21,0,1,0,0,2.42A1.21,1.21,0,1,0,41.08,132.89Z"/><path class="cls-2" d="M50.71,132.93a1.17,1.17,0,1,0,0,2.34A1.17,1.17,0,1,0,50.71,132.93Z"/><path class="cls-2" d="M40.56,59.45a6.05,6.05,0,0,1,.83-1.19c1-1.14-1.06-2.38-2.15-1.47a4.55,4.55,0,0,0-1.14,1.38C37.29,59.64,39.8,60.92,40.56,59.45Z"/><path class="cls-2" d="M45.9,58.07a1.2,1.2,0,1,0,0-2.4A1.2,1.2,0,1,0,45.9,58.07Z"/></g></g></svg>