
<svg xmlns="http://www.w3.org/2000/svg" version="1.1" xmlns:xlink="http://www.w3.org/1999/xlink" preserveAspectRatio="none" x="0px" y="0px" width="797px" height="449px" viewBox="0 0 797 449">
<defs/>

<g id="Layer_1">
<g transform="matrix( 1, 0, 0, 1, 0,0) ">
<g>
<g>
<path fill="#333333" stroke="none" d="
M 30.85 16.05
L 20.7 16.05 13.6 144.9 0 144.9 25 183.4 52.5 144.9 37.75 144.9 30.85 16.05
M 488.1 38.5
L 501.7 38.5 508.8 167.35 518.95 167.35 525.85 38.5 540.6 38.5 513.1 0 488.1 38.5 Z"/>
</g>
</g>

<g>
<path stroke="#333333" stroke-width="5" stroke-linejoin="round" stroke-linecap="round" fill="none" d="
M 792.95 352.65
Q 795.25 334 795.35 312.25 795.4 294.25 788.15 265.25 778.15 225.35 745.7 215.9 735.3 212.2 738.5 218.45 744.5 228.55 743.7 236.95 728.4 201.45 698.65 198.85 687.75 196.95 688.85 204.95 694.5 227 691.15 238.95 684.3 186.85 654.15 186.95 631.75 185.65 635.65 198.95 640.5 222.85 639.65 236.45 619.9 162.7 595.2 92.1 580.7 50.6 565.15 59.9 545.9 80.2 556.15 114.45 573.9 169.4 585.8 238.85 597.2 305.05 575.65 304.45 560 300.45 559.65 270.95 560.1 226.6 521.6 223.95 511.65 257 514.6 292.95 512.05 351.2 567.8 405.2
M 298.85 352.65
Q 301.15 334 301.25 312.25 301.3 294.25 294.05 265.25 284.05 225.35 251.6 215.9 241.2 212.2 244.4 218.45 250.4 228.55 249.6 236.95 234.3 201.45 204.55 198.85 193.65 196.95 194.75 204.95 200.4 227 197.05 238.95 190.2 186.85 160.05 186.95 137.65 185.65 141.55 198.95 146.4 222.85 145.55 236.45 125.8 162.7 101.1 92.1 86.6 50.6 71.05 59.9 51.8 80.2 62.05 114.45 79.8 169.4 91.7 238.85 103.1 305.05 81.55 304.45 65.9 300.45 65.55 270.95 66 226.6 27.5 223.95 17.55 257 20.5 292.95 17.95 351.2 73.7 405.2"/>
</g>

<use xlink:href="#Layer0_0_STROKES_1_FILL"/>
</g>
</g>
</svg>
