
<svg xmlns="http://www.w3.org/2000/svg" version="1.1" xmlns:xlink="http://www.w3.org/1999/xlink" preserveAspectRatio="none" x="0px" y="0px" width="803px" height="443px" viewBox="0 0 803 443">
<defs/>

<g id="Layer_2">
<g transform="matrix( 1, 0, 0, 1, 0,0) ">
<g>
<g>
<path fill="#333333" stroke="none" d="
M 264.05 39.8
L 244.05 3.3 239.8 18.8
Q 116.05 -23.25 0 28.8
L 2 34.8
Q 105.8 -0.85 233.65 41.1
L 229.05 57.8 264.05 39.8
M 734 46.8
L 736 40.8
Q 619.95 -11.25 496.2 30.8
L 491.95 15.3 471.95 51.8 506.95 69.8 502.35 53.1
Q 630.2 11.15 734 46.8 Z"/>
</g>
</g>

<g>
<path stroke="#333333" stroke-width="5" stroke-linejoin="round" stroke-linecap="round" fill="none" d="
M 800.7 322.2
Q 801 314.65 801.05 306.65 801.1 288.65 793.85 259.65 783.85 219.75 751.4 210.3 741 206.6 744.2 212.85 750.2 222.95 749.4 231.35 734.1 195.85 704.35 193.25 693.45 191.35 694.55 199.35 700.2 221.4 696.85 233.35 674.9 158.9 643.15 76.3
L 641.55 71.55
Q 629.95 37.1 617.05 47.3 597.6 60.25 608.9 98.8 633.05 185 645.35 230.85
L 594.55 86.8
Q 587.35 59.25 571.25 75.3 556.95 91.75 571.25 140.35 582.9 183 591.5 233.25 602.9 299.45 581.35 298.85 565.7 294.85 565.35 265.35 565.8 221 527.3 218.35 517.35 251.4 520.3 287.35 518.8 322.2 538.15 355.5
M 292.7 322.2
Q 293 314.65 293.05 306.65 293.1 288.65 285.85 259.65 275.85 219.75 243.4 210.3 233 206.6 236.2 212.85 242.2 222.95 241.4 231.35 226.1 195.85 196.35 193.25 185.45 191.35 186.55 199.35 192.2 221.4 188.85 233.35 166.9 158.9 135.15 76.3
L 133.55 71.55
Q 121.95 37.1 109.05 47.3 89.6 60.25 100.9 98.8 125.05 185 137.35 230.85
L 86.55 86.8
Q 79.35 59.25 63.25 75.3 48.95 91.75 63.25 140.35 74.9 183 83.5 233.25 94.9 299.45 73.35 298.85 57.7 294.85 57.35 265.35 57.8 221 19.3 218.35 9.35 251.4 12.3 287.35 10.8 322.2 30.15 355.5"/>
</g>

<use xlink:href="#Layer0_0_STROKES_1_FILL"/>
</g>
</g>
</svg>
