
<svg xmlns="http://www.w3.org/2000/svg" version="1.1" xmlns:xlink="http://www.w3.org/1999/xlink" preserveAspectRatio="none" x="0px" y="0px" width="310px" height="250px" viewBox="0 0 310 250">
<defs>
<filter id="Filter_1" x="-20%" y="-20%" width="140%" height="140%" color-interpolation-filters="sRGB">
<feFlood flood-color="#000000" flood-opacity="1" in="SourceGraphic" result="result1"/>

<feComposite in2="SourceGraphic" in="result1" operator="in" result="result2"/>

<feGaussianBlur in="result2" stdDeviation="1.3333333333333333,1.3333333333333333" result="result3"/>

<feOffset dx="2.121320343559643" dy="2.121320343559643" in="result3" result="result4"/>

<feComposite in2="result4" in="SourceGraphic" operator="over" result="result5"/>
</filter>
</defs>

<g id="Layer_5">
<g filter="url(#Filter_1)" transform="matrix( 1, 0, 0, 1, 0,0) ">
<g transform="matrix( 1, 0, 0, 1, 19.45,19.55) ">
<g id="Layer_3">
<g transform="matrix( 1, 0, 0, 1, 0,0) ">
<g>
<path stroke="#862F2C" stroke-width="15" stroke-linejoin="round" stroke-linecap="round" fill="none" d="
M 271.1 0
Q 271.1 54.05 271.1 109
L 271.1 109.05
Q 271.1 124.3 271.1 139.65 271.1 147.5 271.1 155.4 271.1 166.5 259.9 171.8 197.7 205.85 135.55 210.95 73.35 204.6 11.2 171.35 0 166.45 0 155.4 0 147.5 0 138.5 0 123.75 0 109.05
L 0 109
Q 0 54.5 0 0"/>
</g>
</g>
</g>

<g id="Layer_2">
<g transform="matrix( 1, 0, 0, 1, 0,0) ">
<g>
<g>
<path fill="#862F2C" stroke="none" d="
M 271.1 139.65
Q 271.1 124.3 271.1 109.05
L 271.1 109
Q 271.1 54.05 271.1 0
L 0 0
Q 0 54.5 0 109
L 0 109.05
Q 0 123.75 0 138.5 0 147.5 0 155.4 0 166.45 11.2 171.35 73.35 204.6 135.55 210.95 197.7 205.85 259.9 171.8 271.1 166.5 271.1 155.4 271.1 147.5 271.1 139.65 Z"/>
</g>
</g>

<g>
<path stroke="#FFFFFF" stroke-width="5" stroke-linejoin="round" stroke-linecap="round" fill="none" d="
M 271.1 0
Q 271.1 54.05 271.1 109
L 271.1 109.05
Q 271.1 124.3 271.1 139.65 271.1 147.5 271.1 155.4 271.1 166.5 259.9 171.8 197.7 205.85 135.55 210.95 73.35 204.6 11.2 171.35 0 166.45 0 155.4 0 147.5 0 138.5 0 123.75 0 109.05
L 0 109
Q 0 54.5 0 0"/>
</g>
</g>
</g>

<g id="Layer_1">
<g transform="matrix( 1, 0, 0, 1, 0,0) ">
<g>
<g>
<path fill="#862F2C" stroke="none" d="
M 265.6 5
L 265.6 0 0 0
Q 0 54.5 0 109
L 0 109.05
Q 0 123.75 0 138.5 0 147.5 0 155.4 0 166.45 11.2 171.35 73.35 204.6 135.55 210.95 197.7 205.85 259.9 171.8 271.1 166.5 271.1 155.4 271.1 147.5 271.1 139.65 271.1 124.3 271.1 109.05
L 271.1 109
Q 271.1 54.05 271.1 0
L 266.6 0 266.6 5
Q 266.6 5.5 266.6 6 266.5982421875 6.2052734375 266.45 6.35 266.3052734375 6.4982421875 266.1 6.5 265.8947265625 6.4982421875 265.75 6.35 265.6017578125 6.2052734375 265.6 6 265.6 5.5 265.6 5
M 265.6 12
Q 265.6017578125 11.7947265625 265.75 11.65 265.8947265625 11.5017578125 266.1 11.5 266.3052734375 11.5017578125 266.45 11.65 266.5982421875 11.7947265625 266.6 12 266.6 15 266.6 18 266.5982421875 18.2052734375 266.45 18.35 266.3052734375 18.4982421875 266.1 18.5 265.8947265625 18.4982421875 265.75 18.35 265.6017578125 18.2052734375 265.6 18 265.6 15 265.6 12
M 265.6 24
Q 265.6017578125 23.7947265625 265.75 23.65 265.8947265625 23.5017578125 266.1 23.5 266.3052734375 23.5017578125 266.45 23.65 266.5982421875 23.7947265625 266.6 24 266.6 27 266.6 30 266.5982421875 30.2052734375 266.45 30.35 266.3052734375 30.4982421875 266.1 30.5 265.8947265625 30.4982421875 265.75 30.35 265.6017578125 30.2052734375 265.6 30 265.6 27 265.6 24
M 266.45 35.65
Q 266.5982421875 35.7947265625 266.6 36 266.6 39 266.6 42 266.5982421875 42.2052734375 266.45 42.35 266.3052734375 42.4982421875 266.1 42.5 265.8947265625 42.4982421875 265.75 42.35 265.6017578125 42.2052734375 265.6 42 265.6 39 265.6 36 265.6017578125 35.7947265625 265.75 35.65 265.8947265625 35.5017578125 266.1 35.5 266.3052734375 35.5017578125 266.45 35.65
M 265.6 48
Q 265.6017578125 47.7947265625 265.75 47.65 265.8947265625 47.5017578125 266.1 47.5 266.3052734375 47.5017578125 266.45 47.65 266.5982421875 47.7947265625 266.6 48 266.6 51 266.6 54 266.5982421875 54.2052734375 266.45 54.35 266.3052734375 54.4982421875 266.1 54.5 265.8947265625 54.4982421875 265.75 54.35 265.6017578125 54.2052734375 265.6 54 265.6 51 265.6 48
M 265.6 60
Q 265.6017578125 59.7947265625 265.75 59.65 265.8947265625 59.5017578125 266.1 59.5 266.3052734375 59.5017578125 266.45 59.65 266.5982421875 59.7947265625 266.6 60 266.6 63 266.6 66 266.5982421875 66.2052734375 266.45 66.35 266.3052734375 66.4982421875 266.1 66.5 265.8947265625 66.4982421875 265.75 66.35 265.6017578125 66.2052734375 265.6 66 265.6 63 265.6 60
M 265.6 72
Q 265.6017578125 71.7947265625 265.75 71.65 265.8947265625 71.5017578125 266.1 71.5 266.3052734375 71.5017578125 266.45 71.65 266.5982421875 71.7947265625 266.6 72 266.6 75 266.6 78 266.5982421875 78.2052734375 266.45 78.35 266.3052734375 78.4982421875 266.1 78.5 265.8947265625 78.4982421875 265.75 78.35 265.6017578125 78.2052734375 265.6 78 265.6 75 265.6 72
M 266.45 83.7
Q 266.5982421875 83.8447265625 266.6 84.05 266.6 87.05 266.6 90.05 266.5982421875 90.2552734375 266.45 90.4 266.3052734375 90.5482421875 266.1 90.55 265.8947265625 90.5482421875 265.75 90.4 265.6017578125 90.2552734375 265.6 90.05 265.6 87.05 265.6 84.05 265.6017578125 83.8447265625 265.75 83.7 265.8947265625 83.5517578125 266.1 83.55 266.3052734375 83.5517578125 266.45 83.7
M 265.6 96.05
Q 265.6017578125 95.8447265625 265.75 95.7 265.8947265625 95.5517578125 266.1 95.55 266.3052734375 95.5517578125 266.45 95.7 266.5982421875 95.8447265625 266.6 96.05 266.6 99.05 266.6 102.1 266.5982421875 102.3052734375 266.45 102.45 266.3052734375 102.5982421875 266.1 102.6 265.8947265625 102.5982421875 265.75 102.45 265.6017578125 102.3052734375 265.6 102.1 265.6 99.05 265.6 96.05
M 182.8 197.3
Q 183.0224609375 197.271484375 183.2 197.35 183.37578125 197.477734375 183.4 197.65 183.4787109375 197.873046875 183.35 198.05 183.27265625 198.2255859375 183.05 198.25 180.175 199.0248046875 177.25 199.7 177.07578125 199.7783203125 176.9 199.65 176.7234375 199.57109375 176.65 199.35 176.621484375 199.17578125 176.7 199 176.8287109375 198.8236328125 177 198.75 179.925 198.075 182.8 197.3
M 188.75 196.7
Q 188.5779296875 196.7787109375 188.4 196.65 188.225 196.5732421875 188.15 196.35 188.12109375 196.178125 188.2 196 188.326953125 195.8251953125 188.5 195.75 191.4125 194.9748046875 194.3 194.05 194.4947265625 194.008203125 194.65 194.1 194.8609375 194.2 194.9 194.4 194.9916015625 194.59453125 194.9 194.75 194.799609375 194.9609375 194.6 195 191.6875 195.925 188.75 196.7
M 200.3 193.15
Q 200.10703125 193.241796875 199.9 193.15 199.7400390625 193.0513671875 199.65 192.85 199.608203125 192.6572265625 199.7 192.45 199.798828125 192.290234375 200 192.2 202.8375 191.2748046875 205.65 190.25 205.8787109375 190.208203125 206.05 190.3 206.258984375 190.38515625 206.3 190.55 206.3919921875 190.77890625 206.3 190.95 206.2150390625 191.1587890625 206 191.2 203.1625 192.225 200.3 193.15
M 222.05 184.1
Q 222.11953125 183.9197265625 222.3 183.85 225.05 182.7 227.8 181.5 227.98671875 181.408203125 228.15 181.45 228.3669921875 181.55546875 228.45 181.75 228.5419921875 181.9365234375 228.45 182.1 228.3943359375 182.316796875 228.2 182.4 225.45 183.6 222.7 184.75 222.4990234375 184.8294921875 222.3 184.75 222.1197265625 184.6810546875 222.05 184.5 221.9703125 184.2998046875 222.05 184.1
M 211.6 189.15
Q 211.4357421875 189.241796875 211.25 189.15 211.055078125 189.06640625 210.95 188.85 210.9080078125 188.6857421875 211 188.5 211.08359375 188.305078125 211.25 188.2 214.025 187.1748046875 216.8 186.05 217.013671875 186.0080078125 217.2 186.1 217.39453125 186.1830078125 217.45 186.35 217.5419921875 186.563671875 217.45 186.75 217.366796875 186.94453125 217.15 187 214.3748046875 188.125 211.6 189.15
M 238.55 176.5
Q 238.7716796875 176.4080078125 238.95 176.45 239.16484375 176.541015625 239.25 176.7 239.3419921875 176.92109375 239.25 177.1 239.208203125 177.3146484375 239 177.4 236.3125 178.7 233.6 179.95 233.4150390625 180.0416015625 233.2 179.95 233.034375 179.895703125 232.95 179.7 232.8580078125 179.515234375 232.9 179.3 233.0044921875 179.1345703125 233.2 179.05 235.8873046875 177.8 238.55 176.5
M 266.6 109
L 266.6 109.05
Q 266.6 111.55 266.6 114.05 266.5982421875 114.2552734375 266.45 114.4 266.3052734375 114.5482421875 266.1 114.55 265.8947265625 114.5482421875 265.75 114.4 265.6017578125 114.2552734375 265.6 114.05 265.6 111.55 265.6 109.05
L 265.6 109
Q 265.6 108.55 265.6 108.1 265.6017578125 107.8947265625 265.75 107.75 265.8947265625 107.6017578125 266.1 107.6 266.3052734375 107.6017578125 266.45 107.75 266.5982421875 107.8947265625 266.6 108.1 266.6 108.55 266.6 109
M 265.6 120.1
Q 265.6017578125 119.8947265625 265.75 119.75 265.8947265625 119.6017578125 266.1 119.6 266.3052734375 119.6017578125 266.45 119.75 266.5982421875 119.8947265625 266.6 120.1 266.6 123.1 266.6 126.15 266.5982421875 126.3552734375 266.45 126.5 266.3052734375 126.6482421875 266.1 126.65 265.8947265625 126.6482421875 265.75 126.5 265.6017578125 126.3552734375 265.6 126.15 265.6 123.1 265.6 120.1
M 266.45 131.8
Q 266.5982421875 131.9447265625 266.6 132.15 266.6 135.15 266.6 138.15 266.5982421875 138.3552734375 266.45 138.5 266.3052734375 138.6482421875 266.1 138.65 265.8947265625 138.6482421875 265.75 138.5 265.6017578125 138.3552734375 265.6 138.15 265.6 135.15 265.6 132.15 265.6017578125 131.9447265625 265.75 131.8 265.8947265625 131.6517578125 266.1 131.65 266.3052734375 131.6517578125 266.45 131.8
M 265.6 144.15
Q 265.6017578125 143.9447265625 265.75 143.8 265.8947265625 143.6517578125 266.1 143.65 266.3052734375 143.6517578125 266.45 143.8 266.5982421875 143.9447265625 266.6 144.15 266.6 147.15 266.6 150.2 266.5982421875 150.4052734375 266.45 150.55 266.3052734375 150.6982421875 266.1 150.7 265.8947265625 150.6982421875 265.75 150.55 265.6017578125 150.4052734375 265.6 150.2 265.6 147.15 265.6 144.15
M 265.7 155.8
Q 265.8748046875 155.6873046875 266.05 155.7 266.284375 155.7162109375 266.4 155.85 266.5623046875 156.025 266.55 156.2 266.340625 159.5642578125 264.65 162.15 264.55703125 162.3521484375 264.35 162.4 264.1490234375 162.440625 263.95 162.3 263.7974609375 162.2072265625 263.75 162 263.709375 161.79921875 263.8 161.6 265.3591796875 159.2357421875 265.55 156.15 265.56640625 155.9654296875 265.7 155.8
M 249.95 171.8
Q 249.909375 172.0009765625 249.7 172.1 247.075 173.45 244.4 174.75 244.241796875 174.841796875 244.05 174.75 243.8482421875 174.709375 243.75 174.5 243.658203125 174.3421875 243.7 174.15 243.791015625 173.9482421875 243.95 173.85 246.6248046875 172.5498046875 249.25 171.2 249.4576171875 171.108203125 249.65 171.15 249.8509765625 171.23984375 249.95 171.4 250.041796875 171.6068359375 249.95 171.8
M 259.75 165.6
Q 259.963671875 165.521484375 260.15 165.55 260.3708984375 165.6232421875 260.45 165.8 260.578515625 165.975390625 260.5 166.15 260.488671875 166.3708984375 260.3 166.45 259.251953125 167.1380859375 257.95 167.75 257.937890625 167.763671875 257.9 167.75 257.8705078125 167.7833984375 257.85 167.8 257.8056640625 167.8443359375 257.75 167.85 256.3873046875 168.6375 255 169.35 254.843359375 169.4416015625 254.65 169.35 254.449609375 169.310546875 254.35 169.1 254.258203125 168.94375 254.3 168.75 254.38984375 168.549609375 254.55 168.45 255.887109375 167.7751953125 257.2 167.05 257.338671875 166.927734375 257.5 166.85 258.7478515625 166.2619140625 259.75 165.6
M 5.35 5.35
Q 5.4982421875 5.4947265625 5.5 5.7 5.5 8.7 5.5 11.7 5.4982421875 11.9052734375 5.35 12.05 5.2052734375 12.1982421875 5 12.2 4.7947265625 12.1982421875 4.65 12.05 4.5017578125 11.9052734375 4.5 11.7 4.5 8.7 4.5 5.7 4.5017578125 5.4947265625 4.65 5.35 4.7947265625 5.2017578125 5 5.2 5.2052734375 5.2017578125 5.35 5.35
M 5.35 17.35
Q 5.4982421875 17.4947265625 5.5 17.7 5.5 20.7 5.5 23.7 5.4982421875 23.9052734375 5.35 24.05 5.2052734375 24.1982421875 5 24.2 4.7947265625 24.1982421875 4.65 24.05 4.5017578125 23.9052734375 4.5 23.7 4.5 20.7 4.5 17.7 4.5017578125 17.4947265625 4.65 17.35 4.7947265625 17.2017578125 5 17.2 5.2052734375 17.2017578125 5.35 17.35
M 5.35 29.35
Q 5.4982421875 29.4947265625 5.5 29.7 5.5 32.7 5.5 35.7 5.4982421875 35.9052734375 5.35 36.05 5.2052734375 36.1982421875 5 36.2 4.7947265625 36.1982421875 4.65 36.05 4.5017578125 35.9052734375 4.5 35.7 4.5 32.7 4.5 29.7 4.5017578125 29.4947265625 4.65 29.35 4.7947265625 29.2017578125 5 29.2 5.2052734375 29.2017578125 5.35 29.35
M 5.35 41.35
Q 5.4982421875 41.4947265625 5.5 41.7 5.5 44.7 5.5 47.7 5.4982421875 47.9052734375 5.35 48.05 5.2052734375 48.1982421875 5 48.2 4.7947265625 48.1982421875 4.65 48.05 4.5017578125 47.9052734375 4.5 47.7 4.5 44.7 4.5 41.7 4.5017578125 41.4947265625 4.65 41.35 4.7947265625 41.2017578125 5 41.2 5.2052734375 41.2017578125 5.35 41.35
M 5.35 53.35
Q 5.4982421875 53.4947265625 5.5 53.7 5.5 56.7 5.5 59.7 5.4982421875 59.9052734375 5.35 60.05 5.2052734375 60.1982421875 5 60.2 4.7947265625 60.1982421875 4.65 60.05 4.5017578125 59.9052734375 4.5 59.7 4.5 56.7 4.5 53.7 4.5017578125 53.4947265625 4.65 53.35 4.7947265625 53.2017578125 5 53.2 5.2052734375 53.2017578125 5.35 53.35
M 5.35 65.35
Q 5.4982421875 65.4947265625 5.5 65.7 5.5 68.7 5.5 71.7 5.4982421875 71.9052734375 5.35 72.05 5.2052734375 72.1982421875 5 72.2 4.7947265625 72.1982421875 4.65 72.05 4.5017578125 71.9052734375 4.5 71.7 4.5 68.7 4.5 65.7 4.5017578125 65.4947265625 4.65 65.35 4.7947265625 65.2017578125 5 65.2 5.2052734375 65.2017578125 5.35 65.35
M 5.35 77.35
Q 5.4982421875 77.4947265625 5.5 77.7 5.5 80.7 5.5 83.7 5.4982421875 83.9052734375 5.35 84.05 5.2052734375 84.1982421875 5 84.2 4.7947265625 84.1982421875 4.65 84.05 4.5017578125 83.9052734375 4.5 83.7 4.5 80.7 4.5 77.7 4.5017578125 77.4947265625 4.65 77.35 4.7947265625 77.2017578125 5 77.2 5.2052734375 77.2017578125 5.35 77.35
M 5.35 89.35
Q 5.4982421875 89.4947265625 5.5 89.7 5.5 92.7 5.5 95.7 5.4982421875 95.9052734375 5.35 96.05 5.2052734375 96.1982421875 5 96.2 4.7947265625 96.1982421875 4.65 96.05 4.5017578125 95.9052734375 4.5 95.7 4.5 92.7 4.5 89.7 4.5017578125 89.4947265625 4.65 89.35 4.7947265625 89.2017578125 5 89.2 5.2052734375 89.2017578125 5.35 89.35
M 5.35 101.35
Q 5.4982421875 101.4947265625 5.5 101.7 5.5 104.7 5.5 107.7 5.4982421875 107.9052734375 5.35 108.05 5.2052734375 108.1982421875 5 108.2 4.7947265625 108.1982421875 4.65 108.05 4.5017578125 107.9052734375 4.5 107.7 4.5 104.7 4.5 101.7 4.5017578125 101.4947265625 4.65 101.35 4.7947265625 101.2017578125 5 101.2 5.2052734375 101.2017578125 5.35 101.35
M 5.35 113.4
Q 5.4982421875 113.5447265625 5.5 113.75 5.5 116.75 5.5 119.75 5.4982421875 119.9552734375 5.35 120.1 5.2052734375 120.2482421875 5 120.25 4.7947265625 120.2482421875 4.65 120.1 4.5017578125 119.9552734375 4.5 119.75 4.5 116.75 4.5 113.75 4.5017578125 113.5447265625 4.65 113.4 4.7947265625 113.2517578125 5 113.25 5.2052734375 113.2517578125 5.35 113.4
M 5.35 125.35
Q 5.4982421875 125.4947265625 5.5 125.7 5.5 128.7 5.5 131.7 5.4982421875 131.9052734375 5.35 132.05 5.2052734375 132.1982421875 5 132.2 4.7947265625 132.1982421875 4.65 132.05 4.5017578125 131.9052734375 4.5 131.7 4.5 128.7 4.5 125.7 4.5017578125 125.4947265625 4.65 125.35 4.7947265625 125.2017578125 5 125.2 5.2052734375 125.2017578125 5.35 125.35
M 5.5 137.7
Q 5.5 138.1 5.5 138.5 5.5 141.1 5.5 143.65 5.4982421875 143.8552734375 5.35 144 5.2052734375 144.1482421875 5 144.15 4.7947265625 144.1482421875 4.65 144 4.5017578125 143.8552734375 4.5 143.65 4.5 141.1 4.5 138.5 4.5 138.1 4.5 137.7 4.5017578125 137.4947265625 4.65 137.35 4.7947265625 137.2017578125 5 137.2 5.2052734375 137.2017578125 5.35 137.35 5.4982421875 137.4947265625 5.5 137.7
M 22.1 171.75
Q 21.9076171875 171.841796875 21.7 171.75 19.075 170.4 16.4 169 16.2392578125 168.8998046875 16.15 168.7 16.1083984375 168.50546875 16.2 168.3 16.3 168.1390625 16.5 168.05 16.694140625 168.00859375 16.85 168.1 19.5251953125 169.4998046875 22.15 170.85 22.359375 170.948828125 22.4 171.15 22.491796875 171.3431640625 22.4 171.5 22.3009765625 171.71015625 22.1 171.75
M 5.35 149.3
Q 5.4982421875 149.4447265625 5.5 149.65 5.5 152.6 5.5 155.4 5.5 155.45 5.5 155.5 5.4982421875 155.7052734375 5.35 155.85 5.2052734375 155.9982421875 5 156 4.7947265625 155.9982421875 4.65 155.85 4.5017578125 155.7052734375 4.5 155.5 4.5 155.45 4.5 155.4 4.5 152.6 4.5 149.65 4.5017578125 149.4447265625 4.65 149.3 4.7947265625 149.1517578125 5 149.15 5.2052734375 149.1517578125 5.35 149.3
M 6.15 161.55
Q 6.071484375 161.3728515625 6.1 161.15 6.17421875 160.9779296875 6.35 160.85 6.5267578125 160.7712890625 6.7 160.8 6.9216796875 160.8744140625 7 161.05 8.4267578125 163.3974609375 11.05 165.05 11.2517578125 165.1923828125 11.3 165.4 11.3408203125 165.6005859375 11.2 165.75 11.1076171875 165.95234375 10.9 166 10.6998046875 166.0408203125 10.5 165.9 7.673046875 164.1025390625 6.15 161.55
M 37.95 179.45
Q 37.7556640625 179.366796875 37.65 179.15 37.6080078125 178.9865234375 37.7 178.8 37.7830078125 178.60546875 37.95 178.5 38.16328125 178.458203125 38.35 178.55 41.1 179.75 43.85 180.9 44.03046875 180.9697265625 44.1 181.15 44.1794921875 181.3498046875 44.1 181.55 44.0302734375 181.7310546875 43.85 181.8 43.6509765625 181.8794921875 43.45 181.8 40.7 180.65 37.95 179.45
M 32.9 177
Q 32.7216796875 177.091796875 32.5 177 29.825 175.7 27.1 174.4 26.9416015625 174.3146484375 26.85 174.1 26.8080078125 173.92109375 26.9 173.7 26.98515625 173.541015625 27.15 173.45 27.3783203125 173.4080078125 27.55 173.5 30.275 174.8 32.95 176.1 33.158203125 176.1853515625 33.2 176.35 33.2919921875 176.57890625 33.2 176.75 33.11484375 176.958984375 32.9 177
M 48.95 184.1
Q 48.7693359375 184.043359375 48.7 183.85 48.6205078125 183.6498046875 48.7 183.45 48.7689453125 183.26953125 48.95 183.2 49.150390625 183.120703125 49.35 183.2 52.1375 184.3373046875 54.9 185.35 55.11640625 185.4548828125 55.2 185.65 55.2919921875 185.8353515625 55.2 186 55.1453125 186.2162109375 54.95 186.3 54.764453125 186.391796875 54.55 186.3 51.7625 185.275 48.95 184.1
M 60.15 188.4
Q 59.98359375 188.3451171875 59.9 188.15 59.8080078125 187.9646484375 59.85 187.75 59.9546875 187.583984375 60.15 187.5 60.335546875 187.408203125 60.5 187.45 63.325 188.525 66.1 189.5 66.315234375 189.59140625 66.4 189.75 66.4919921875 189.971484375 66.4 190.15 66.3587890625 190.365234375 66.15 190.45 65.978515625 190.541796875 65.75 190.45 62.975 189.475 60.15 188.4
M 71.4 191.5
Q 71.60703125 191.408203125 71.8 191.45 74.6498046875 192.4248046875 77.5 193.3 77.70078125 193.3896484375 77.8 193.55 77.891796875 193.75625 77.8 193.95 77.7607421875 194.1505859375 77.55 194.25 77.393359375 194.34140625 77.2 194.25 74.35 193.3751953125 71.5 192.4 71.298828125 192.359765625 71.2 192.15 71.108203125 191.9927734375 71.15 191.8 71.2400390625 191.5986328125 71.4 191.5
M 82.9 196
Q 82.7005859375 195.9740234375 82.6 195.8 82.5083984375 195.6080078125 82.55 195.4 82.62578125 195.20078125 82.8 195.1 82.9921875 195.00859375 83.2 195.05 86.0873046875 195.9248046875 88.95 196.7 89.173046875 196.7751953125 89.25 196.95 89.37890625 197.128125 89.3 197.3 89.275 197.5232421875 89.1 197.6 88.9220703125 197.7287109375 88.7 197.65 85.8123046875 196.875 82.9 196
M 159.95 203.2
Q 159.842578125 203.40390625 159.65 203.45 156.6375 204.0001953125 153.6 204.45 153.4193359375 204.476953125 153.25 204.35 153.0822265625 204.2279296875 153.05 204 153.0228515625 203.8189453125 153.15 203.65 153.2716796875 203.482421875 153.45 203.45 156.4625 202.9998046875 159.45 202.45 159.653515625 202.4224609375 159.8 202.55 160.0041015625 202.657421875 160.05 202.85 160.077734375 203.053515625 159.95 203.2
M 147.45 204.25
Q 147.68203125 204.2234375 147.85 204.35 148.0185546875 204.4734375 148.05 204.65 148.0767578125 204.8822265625 147.95 205.05 147.8267578125 205.218359375 147.6 205.25 144.6123046875 205.6501953125 141.6 205.95 141.3896484375 205.9634765625 141.2 205.8 141.067578125 205.69921875 141.05 205.5 141.036328125 205.2900390625 141.15 205.1 141.3009765625 204.967578125 141.5 204.95 144.4875 204.649609375 147.45 204.25
M 135.95 206.35
Q 135.808984375 206.4759765625 135.6 206.45 132.75 206.15 129.9 205.8 129.6859375 205.76875 129.55 205.6 129.4234375 205.445703125 129.45 205.25 129.4810546875 205.036328125 129.65 204.9 129.8048828125 204.7736328125 130 204.8 132.85 205.1498046875 135.7 205.45 135.9126953125 205.46796875 136.05 205.6 136.176171875 205.790625 136.15 206 136.1322265625 206.2123046875 135.95 206.35
M 124.1 204
Q 124.327734375 204.032421875 124.45 204.2 124.5771484375 204.3689453125 124.55 204.55 124.5177734375 204.7779296875 124.35 204.9 124.18125 205.026953125 123.95 205 121.025 204.55 118.05 204.05 117.870703125 204.0169921875 117.75 203.85 117.6224609375 203.6796875 117.65 203.45 117.6828125 203.2708984375 117.85 203.15 118.0203125 203.02265625 118.2 203.05 121.175 203.5498046875 124.1 204
M 112.35 202
Q 112.54296875 202.0462890625 112.65 202.2 112.777734375 202.3966796875 112.75 202.6 112.70390625 202.7927734375 112.5 202.9 112.353125 203.0275390625 112.15 203 109.2 202.45 106.25 201.85 106.044140625 201.803125 105.9 201.6 105.8095703125 201.45234375 105.85 201.25 105.8966796875 201.04375 106.05 200.9 106.247265625 200.8095703125 106.45 200.85 109.3998046875 201.45 112.35 202
M 100.55 199.6
Q 100.7576171875 199.6478515625 100.85 199.8 100.9908203125 199.9994140625 100.95 200.2 100.90234375 200.4076171875 100.7 200.5 100.5505859375 200.640625 100.35 200.6 97.4375 199.9376953125 94.5 199.15 94.3271484375 199.1255859375 94.2 198.95 94.1212890625 198.773046875 94.15 198.55 94.22421875 198.377734375 94.4 198.25 94.5775390625 198.171484375 94.75 198.2 97.6625 198.9625 100.55 199.6
M 171.15 200.1
Q 171.3509765625 200.059375 171.5 200.15 171.7025390625 200.2927734375 171.75 200.5 171.7908203125 200.7009765625 171.65 200.85 171.55703125 201.05234375 171.35 201.1 168.3998046875 201.75 165.45 202.35 165.247265625 202.390234375 165.05 202.25 164.8966796875 202.15625 164.85 201.95 164.8095703125 201.74765625 164.9 201.55 165.044140625 201.396875 165.25 201.35 168.2 200.7498046875 171.15 200.1 Z"/>

<path fill="#FFFFFF" stroke="none" d="
M 171.5 200.15
Q 171.3509765625 200.059375 171.15 200.1 168.2 200.7498046875 165.25 201.35 165.044140625 201.396875 164.9 201.55 164.8095703125 201.74765625 164.85 201.95 164.8966796875 202.15625 165.05 202.25 165.247265625 202.390234375 165.45 202.35 168.3998046875 201.75 171.35 201.1 171.55703125 201.05234375 171.65 200.85 171.7908203125 200.7009765625 171.75 200.5 171.7025390625 200.2927734375 171.5 200.15
M 100.85 199.8
Q 100.7576171875 199.6478515625 100.55 199.6 97.6625 198.9625 94.75 198.2 94.5775390625 198.171484375 94.4 198.25 94.22421875 198.377734375 94.15 198.55 94.1212890625 198.773046875 94.2 198.95 94.3271484375 199.1255859375 94.5 199.15 97.4375 199.9376953125 100.35 200.6 100.5505859375 200.640625 100.7 200.5 100.90234375 200.4076171875 100.95 200.2 100.9908203125 199.9994140625 100.85 199.8
M 112.65 202.2
Q 112.54296875 202.0462890625 112.35 202 109.3998046875 201.45 106.45 200.85 106.247265625 200.8095703125 106.05 200.9 105.8966796875 201.04375 105.85 201.25 105.8095703125 201.45234375 105.9 201.6 106.044140625 201.803125 106.25 201.85 109.2 202.45 112.15 203 112.353125 203.0275390625 112.5 202.9 112.70390625 202.7927734375 112.75 202.6 112.777734375 202.3966796875 112.65 202.2
M 124.45 204.2
Q 124.327734375 204.032421875 124.1 204 121.175 203.5498046875 118.2 203.05 118.0203125 203.02265625 117.85 203.15 117.6828125 203.2708984375 117.65 203.45 117.6224609375 203.6796875 117.75 203.85 117.870703125 204.0169921875 118.05 204.05 121.025 204.55 123.95 205 124.18125 205.026953125 124.35 204.9 124.5177734375 204.7779296875 124.55 204.55 124.5771484375 204.3689453125 124.45 204.2
M 135.6 206.45
Q 135.808984375 206.4759765625 135.95 206.35 136.1322265625 206.2123046875 136.15 206 136.176171875 205.790625 136.05 205.6 135.9126953125 205.46796875 135.7 205.45 132.85 205.1498046875 130 204.8 129.8048828125 204.7736328125 129.65 204.9 129.4810546875 205.036328125 129.45 205.25 129.4234375 205.445703125 129.55 205.6 129.6859375 205.76875 129.9 205.8 132.75 206.15 135.6 206.45
M 147.85 204.35
Q 147.68203125 204.2234375 147.45 204.25 144.4875 204.649609375 141.5 204.95 141.3009765625 204.967578125 141.15 205.1 141.036328125 205.2900390625 141.05 205.5 141.067578125 205.69921875 141.2 205.8 141.3896484375 205.9634765625 141.6 205.95 144.6123046875 205.6501953125 147.6 205.25 147.8267578125 205.218359375 147.95 205.05 148.0767578125 204.8822265625 148.05 204.65 148.0185546875 204.4734375 147.85 204.35
M 159.65 203.45
Q 159.842578125 203.40390625 159.95 203.2 160.077734375 203.053515625 160.05 202.85 160.0041015625 202.657421875 159.8 202.55 159.653515625 202.4224609375 159.45 202.45 156.4625 202.9998046875 153.45 203.45 153.2716796875 203.482421875 153.15 203.65 153.0228515625 203.8189453125 153.05 204 153.0822265625 204.2279296875 153.25 204.35 153.4193359375 204.476953125 153.6 204.45 156.6375 204.0001953125 159.65 203.45
M 82.6 195.8
Q 82.7005859375 195.9740234375 82.9 196 85.8123046875 196.875 88.7 197.65 88.9220703125 197.7287109375 89.1 197.6 89.275 197.5232421875 89.3 197.3 89.37890625 197.128125 89.25 196.95 89.173046875 196.7751953125 88.95 196.7 86.0873046875 195.9248046875 83.2 195.05 82.9921875 195.00859375 82.8 195.1 82.62578125 195.20078125 82.55 195.4 82.5083984375 195.6080078125 82.6 195.8
M 71.8 191.45
Q 71.60703125 191.408203125 71.4 191.5 71.2400390625 191.5986328125 71.15 191.8 71.108203125 191.9927734375 71.2 192.15 71.298828125 192.359765625 71.5 192.4 74.35 193.3751953125 77.2 194.25 77.393359375 194.34140625 77.55 194.25 77.7607421875 194.1505859375 77.8 193.95 77.891796875 193.75625 77.8 193.55 77.70078125 193.3896484375 77.5 193.3 74.6498046875 192.4248046875 71.8 191.45
M 59.9 188.15
Q 59.98359375 188.3451171875 60.15 188.4 62.975 189.475 65.75 190.45 65.978515625 190.541796875 66.15 190.45 66.3587890625 190.365234375 66.4 190.15 66.4919921875 189.971484375 66.4 189.75 66.315234375 189.59140625 66.1 189.5 63.325 188.525 60.5 187.45 60.335546875 187.408203125 60.15 187.5 59.9546875 187.583984375 59.85 187.75 59.8080078125 187.9646484375 59.9 188.15
M 48.7 183.85
Q 48.7693359375 184.043359375 48.95 184.1 51.7625 185.275 54.55 186.3 54.764453125 186.391796875 54.95 186.3 55.1453125 186.2162109375 55.2 186 55.2919921875 185.8353515625 55.2 185.65 55.11640625 185.4548828125 54.9 185.35 52.1375 184.3373046875 49.35 183.2 49.150390625 183.120703125 48.95 183.2 48.7689453125 183.26953125 48.7 183.45 48.6205078125 183.6498046875 48.7 183.85
M 32.5 177
Q 32.7216796875 177.091796875 32.9 177 33.11484375 176.958984375 33.2 176.75 33.2919921875 176.57890625 33.2 176.35 33.158203125 176.1853515625 32.95 176.1 30.275 174.8 27.55 173.5 27.3783203125 173.4080078125 27.15 173.45 26.98515625 173.541015625 26.9 173.7 26.8080078125 173.92109375 26.85 174.1 26.9416015625 174.3146484375 27.1 174.4 29.825 175.7 32.5 177
M 37.65 179.15
Q 37.7556640625 179.366796875 37.95 179.45 40.7 180.65 43.45 181.8 43.6509765625 181.8794921875 43.85 181.8 44.0302734375 181.7310546875 44.1 181.55 44.1794921875 181.3498046875 44.1 181.15 44.03046875 180.9697265625 43.85 180.9 41.1 179.75 38.35 178.55 38.16328125 178.458203125 37.95 178.5 37.7830078125 178.60546875 37.7 178.8 37.6080078125 178.9865234375 37.65 179.15
M 6.1 161.15
Q 6.071484375 161.3728515625 6.15 161.55 7.673046875 164.1025390625 10.5 165.9 10.6998046875 166.0408203125 10.9 166 11.1076171875 165.95234375 11.2 165.75 11.3408203125 165.6005859375 11.3 165.4 11.2517578125 165.1923828125 11.05 165.05 8.4267578125 163.3974609375 7 161.05 6.9216796875 160.8744140625 6.7 160.8 6.5267578125 160.7712890625 6.35 160.85 6.17421875 160.9779296875 6.1 161.15
M 5.5 149.65
Q 5.4982421875 149.4447265625 5.35 149.3 5.2052734375 149.1517578125 5 149.15 4.7947265625 149.1517578125 4.65 149.3 4.5017578125 149.4447265625 4.5 149.65 4.5 152.6 4.5 155.4 4.5 155.45 4.5 155.5 4.5017578125 155.7052734375 4.65 155.85 4.7947265625 155.9982421875 5 156 5.2052734375 155.9982421875 5.35 155.85 5.4982421875 155.7052734375 5.5 155.5 5.5 155.45 5.5 155.4 5.5 152.6 5.5 149.65
M 21.7 171.75
Q 21.9076171875 171.841796875 22.1 171.75 22.3009765625 171.71015625 22.4 171.5 22.491796875 171.3431640625 22.4 171.15 22.359375 170.948828125 22.15 170.85 19.5251953125 169.4998046875 16.85 168.1 16.694140625 168.00859375 16.5 168.05 16.3 168.1390625 16.2 168.3 16.1083984375 168.50546875 16.15 168.7 16.2392578125 168.8998046875 16.4 169 19.075 170.4 21.7 171.75
M 5.5 138.5
Q 5.5 138.1 5.5 137.7 5.4982421875 137.4947265625 5.35 137.35 5.2052734375 137.2017578125 5 137.2 4.7947265625 137.2017578125 4.65 137.35 4.5017578125 137.4947265625 4.5 137.7 4.5 138.1 4.5 138.5 4.5 141.1 4.5 143.65 4.5017578125 143.8552734375 4.65 144 4.7947265625 144.1482421875 5 144.15 5.2052734375 144.1482421875 5.35 144 5.4982421875 143.8552734375 5.5 143.65 5.5 141.1 5.5 138.5
M 5.5 125.7
Q 5.4982421875 125.4947265625 5.35 125.35 5.2052734375 125.2017578125 5 125.2 4.7947265625 125.2017578125 4.65 125.35 4.5017578125 125.4947265625 4.5 125.7 4.5 128.7 4.5 131.7 4.5017578125 131.9052734375 4.65 132.05 4.7947265625 132.1982421875 5 132.2 5.2052734375 132.1982421875 5.35 132.05 5.4982421875 131.9052734375 5.5 131.7 5.5 128.7 5.5 125.7
M 5.5 113.75
Q 5.4982421875 113.5447265625 5.35 113.4 5.2052734375 113.2517578125 5 113.25 4.7947265625 113.2517578125 4.65 113.4 4.5017578125 113.5447265625 4.5 113.75 4.5 116.75 4.5 119.75 4.5017578125 119.9552734375 4.65 120.1 4.7947265625 120.2482421875 5 120.25 5.2052734375 120.2482421875 5.35 120.1 5.4982421875 119.9552734375 5.5 119.75 5.5 116.75 5.5 113.75
M 5.5 101.7
Q 5.4982421875 101.4947265625 5.35 101.35 5.2052734375 101.2017578125 5 101.2 4.7947265625 101.2017578125 4.65 101.35 4.5017578125 101.4947265625 4.5 101.7 4.5 104.7 4.5 107.7 4.5017578125 107.9052734375 4.65 108.05 4.7947265625 108.1982421875 5 108.2 5.2052734375 108.1982421875 5.35 108.05 5.4982421875 107.9052734375 5.5 107.7 5.5 104.7 5.5 101.7
M 5.5 89.7
Q 5.4982421875 89.4947265625 5.35 89.35 5.2052734375 89.2017578125 5 89.2 4.7947265625 89.2017578125 4.65 89.35 4.5017578125 89.4947265625 4.5 89.7 4.5 92.7 4.5 95.7 4.5017578125 95.9052734375 4.65 96.05 4.7947265625 96.1982421875 5 96.2 5.2052734375 96.1982421875 5.35 96.05 5.4982421875 95.9052734375 5.5 95.7 5.5 92.7 5.5 89.7
M 5.5 77.7
Q 5.4982421875 77.4947265625 5.35 77.35 5.2052734375 77.2017578125 5 77.2 4.7947265625 77.2017578125 4.65 77.35 4.5017578125 77.4947265625 4.5 77.7 4.5 80.7 4.5 83.7 4.5017578125 83.9052734375 4.65 84.05 4.7947265625 84.1982421875 5 84.2 5.2052734375 84.1982421875 5.35 84.05 5.4982421875 83.9052734375 5.5 83.7 5.5 80.7 5.5 77.7
M 5.5 65.7
Q 5.4982421875 65.4947265625 5.35 65.35 5.2052734375 65.2017578125 5 65.2 4.7947265625 65.2017578125 4.65 65.35 4.5017578125 65.4947265625 4.5 65.7 4.5 68.7 4.5 71.7 4.5017578125 71.9052734375 4.65 72.05 4.7947265625 72.1982421875 5 72.2 5.2052734375 72.1982421875 5.35 72.05 5.4982421875 71.9052734375 5.5 71.7 5.5 68.7 5.5 65.7
M 5.5 53.7
Q 5.4982421875 53.4947265625 5.35 53.35 5.2052734375 53.2017578125 5 53.2 4.7947265625 53.2017578125 4.65 53.35 4.5017578125 53.4947265625 4.5 53.7 4.5 56.7 4.5 59.7 4.5017578125 59.9052734375 4.65 60.05 4.7947265625 60.1982421875 5 60.2 5.2052734375 60.1982421875 5.35 60.05 5.4982421875 59.9052734375 5.5 59.7 5.5 56.7 5.5 53.7
M 5.5 41.7
Q 5.4982421875 41.4947265625 5.35 41.35 5.2052734375 41.2017578125 5 41.2 4.7947265625 41.2017578125 4.65 41.35 4.5017578125 41.4947265625 4.5 41.7 4.5 44.7 4.5 47.7 4.5017578125 47.9052734375 4.65 48.05 4.7947265625 48.1982421875 5 48.2 5.2052734375 48.1982421875 5.35 48.05 5.4982421875 47.9052734375 5.5 47.7 5.5 44.7 5.5 41.7
M 5.5 29.7
Q 5.4982421875 29.4947265625 5.35 29.35 5.2052734375 29.2017578125 5 29.2 4.7947265625 29.2017578125 4.65 29.35 4.5017578125 29.4947265625 4.5 29.7 4.5 32.7 4.5 35.7 4.5017578125 35.9052734375 4.65 36.05 4.7947265625 36.1982421875 5 36.2 5.2052734375 36.1982421875 5.35 36.05 5.4982421875 35.9052734375 5.5 35.7 5.5 32.7 5.5 29.7
M 5.5 17.7
Q 5.4982421875 17.4947265625 5.35 17.35 5.2052734375 17.2017578125 5 17.2 4.7947265625 17.2017578125 4.65 17.35 4.5017578125 17.4947265625 4.5 17.7 4.5 20.7 4.5 23.7 4.5017578125 23.9052734375 4.65 24.05 4.7947265625 24.1982421875 5 24.2 5.2052734375 24.1982421875 5.35 24.05 5.4982421875 23.9052734375 5.5 23.7 5.5 20.7 5.5 17.7
M 5.5 5.7
Q 5.4982421875 5.4947265625 5.35 5.35 5.2052734375 5.2017578125 5 5.2 4.7947265625 5.2017578125 4.65 5.35 4.5017578125 5.4947265625 4.5 5.7 4.5 8.7 4.5 11.7 4.5017578125 11.9052734375 4.65 12.05 4.7947265625 12.1982421875 5 12.2 5.2052734375 12.1982421875 5.35 12.05 5.4982421875 11.9052734375 5.5 11.7 5.5 8.7 5.5 5.7
M 260.15 165.55
Q 259.963671875 165.521484375 259.75 165.6 258.7478515625 166.2619140625 257.5 166.85 257.338671875 166.927734375 257.2 167.05 255.887109375 167.7751953125 254.55 168.45 254.38984375 168.549609375 254.3 168.75 254.258203125 168.94375 254.35 169.1 254.449609375 169.310546875 254.65 169.35 254.843359375 169.4416015625 255 169.35 256.3873046875 168.6375 257.75 167.85 257.8056640625 167.8443359375 257.85 167.8 257.8705078125 167.7833984375 257.9 167.75 257.937890625 167.763671875 257.95 167.75 259.251953125 167.1380859375 260.3 166.45 260.488671875 166.3708984375 260.5 166.15 260.578515625 165.975390625 260.45 165.8 260.3708984375 165.6232421875 260.15 165.55
M 249.7 172.1
Q 249.909375 172.0009765625 249.95 171.8 250.041796875 171.6068359375 249.95 171.4 249.8509765625 171.23984375 249.65 171.15 249.4576171875 171.108203125 249.25 171.2 246.6248046875 172.5498046875 243.95 173.85 243.791015625 173.9482421875 243.7 174.15 243.658203125 174.3421875 243.75 174.5 243.8482421875 174.709375 244.05 174.75 244.241796875 174.841796875 244.4 174.75 247.075 173.45 249.7 172.1
M 266.05 155.7
Q 265.8748046875 155.6873046875 265.7 155.8 265.56640625 155.9654296875 265.55 156.15 265.3591796875 159.2357421875 263.8 161.6 263.709375 161.79921875 263.75 162 263.7974609375 162.2072265625 263.95 162.3 264.1490234375 162.440625 264.35 162.4 264.55703125 162.3521484375 264.65 162.15 266.340625 159.5642578125 266.55 156.2 266.5623046875 156.025 266.4 155.85 266.284375 155.7162109375 266.05 155.7
M 265.75 143.8
Q 265.6017578125 143.9447265625 265.6 144.15 265.6 147.15 265.6 150.2 265.6017578125 150.4052734375 265.75 150.55 265.8947265625 150.6982421875 266.1 150.7 266.3052734375 150.6982421875 266.45 150.55 266.5982421875 150.4052734375 266.6 150.2 266.6 147.15 266.6 144.15 266.5982421875 143.9447265625 266.45 143.8 266.3052734375 143.6517578125 266.1 143.65 265.8947265625 143.6517578125 265.75 143.8
M 266.6 132.15
Q 266.5982421875 131.9447265625 266.45 131.8 266.3052734375 131.6517578125 266.1 131.65 265.8947265625 131.6517578125 265.75 131.8 265.6017578125 131.9447265625 265.6 132.15 265.6 135.15 265.6 138.15 265.6017578125 138.3552734375 265.75 138.5 265.8947265625 138.6482421875 266.1 138.65 266.3052734375 138.6482421875 266.45 138.5 266.5982421875 138.3552734375 266.6 138.15 266.6 135.15 266.6 132.15
M 265.75 119.75
Q 265.6017578125 119.8947265625 265.6 120.1 265.6 123.1 265.6 126.15 265.6017578125 126.3552734375 265.75 126.5 265.8947265625 126.6482421875 266.1 126.65 266.3052734375 126.6482421875 266.45 126.5 266.5982421875 126.3552734375 266.6 126.15 266.6 123.1 266.6 120.1 266.5982421875 119.8947265625 266.45 119.75 266.3052734375 119.6017578125 266.1 119.6 265.8947265625 119.6017578125 265.75 119.75
M 266.6 109.05
L 266.6 109
Q 266.6 108.55 266.6 108.1 266.5982421875 107.8947265625 266.45 107.75 266.3052734375 107.6017578125 266.1 107.6 265.8947265625 107.6017578125 265.75 107.75 265.6017578125 107.8947265625 265.6 108.1 265.6 108.55 265.6 109
L 265.6 109.05
Q 265.6 111.55 265.6 114.05 265.6017578125 114.2552734375 265.75 114.4 265.8947265625 114.5482421875 266.1 114.55 266.3052734375 114.5482421875 266.45 114.4 266.5982421875 114.2552734375 266.6 114.05 266.6 111.55 266.6 109.05
M 238.95 176.45
Q 238.7716796875 176.4080078125 238.55 176.5 235.8873046875 177.8 233.2 179.05 233.0044921875 179.1345703125 232.9 179.3 232.8580078125 179.515234375 232.95 179.7 233.034375 179.895703125 233.2 179.95 233.4150390625 180.0416015625 233.6 179.95 236.3125 178.7 239 177.4 239.208203125 177.3146484375 239.25 177.1 239.3419921875 176.92109375 239.25 176.7 239.16484375 176.541015625 238.95 176.45
M 211.25 189.15
Q 211.4357421875 189.241796875 211.6 189.15 214.3748046875 188.125 217.15 187 217.366796875 186.94453125 217.45 186.75 217.5419921875 186.563671875 217.45 186.35 217.39453125 186.1830078125 217.2 186.1 217.013671875 186.0080078125 216.8 186.05 214.025 187.1748046875 211.25 188.2 211.08359375 188.305078125 211 188.5 210.9080078125 188.6857421875 210.95 188.85 211.055078125 189.06640625 211.25 189.15
M 222.3 183.85
Q 222.11953125 183.9197265625 222.05 184.1 221.9703125 184.2998046875 222.05 184.5 222.1197265625 184.6810546875 222.3 184.75 222.4990234375 184.8294921875 222.7 184.75 225.45 183.6 228.2 182.4 228.3943359375 182.316796875 228.45 182.1 228.5419921875 181.9365234375 228.45 181.75 228.3669921875 181.55546875 228.15 181.45 227.98671875 181.408203125 227.8 181.5 225.05 182.7 222.3 183.85
M 199.9 193.15
Q 200.10703125 193.241796875 200.3 193.15 203.1625 192.225 206 191.2 206.2150390625 191.1587890625 206.3 190.95 206.3919921875 190.77890625 206.3 190.55 206.258984375 190.38515625 206.05 190.3 205.8787109375 190.208203125 205.65 190.25 202.8375 191.2748046875 200 192.2 199.798828125 192.290234375 199.7 192.45 199.608203125 192.6572265625 199.65 192.85 199.7400390625 193.0513671875 199.9 193.15
M 188.4 196.65
Q 188.5779296875 196.7787109375 188.75 196.7 191.6875 195.925 194.6 195 194.799609375 194.9609375 194.9 194.75 194.9916015625 194.59453125 194.9 194.4 194.8609375 194.2 194.65 194.1 194.4947265625 194.008203125 194.3 194.05 191.4125 194.9748046875 188.5 195.75 188.326953125 195.8251953125 188.2 196 188.12109375 196.178125 188.15 196.35 188.225 196.5732421875 188.4 196.65
M 183.2 197.35
Q 183.0224609375 197.271484375 182.8 197.3 179.925 198.075 177 198.75 176.8287109375 198.8236328125 176.7 199 176.621484375 199.17578125 176.65 199.35 176.7234375 199.57109375 176.9 199.65 177.07578125 199.7783203125 177.25 199.7 180.175 199.0248046875 183.05 198.25 183.27265625 198.2255859375 183.35 198.05 183.4787109375 197.873046875 183.4 197.65 183.37578125 197.477734375 183.2 197.35
M 265.75 95.7
Q 265.6017578125 95.8447265625 265.6 96.05 265.6 99.05 265.6 102.1 265.6017578125 102.3052734375 265.75 102.45 265.8947265625 102.5982421875 266.1 102.6 266.3052734375 102.5982421875 266.45 102.45 266.5982421875 102.3052734375 266.6 102.1 266.6 99.05 266.6 96.05 266.5982421875 95.8447265625 266.45 95.7 266.3052734375 95.5517578125 266.1 95.55 265.8947265625 95.5517578125 265.75 95.7
M 266.6 84.05
Q 266.5982421875 83.8447265625 266.45 83.7 266.3052734375 83.5517578125 266.1 83.55 265.8947265625 83.5517578125 265.75 83.7 265.6017578125 83.8447265625 265.6 84.05 265.6 87.05 265.6 90.05 265.6017578125 90.2552734375 265.75 90.4 265.8947265625 90.5482421875 266.1 90.55 266.3052734375 90.5482421875 266.45 90.4 266.5982421875 90.2552734375 266.6 90.05 266.6 87.05 266.6 84.05
M 265.75 71.65
Q 265.6017578125 71.7947265625 265.6 72 265.6 75 265.6 78 265.6017578125 78.2052734375 265.75 78.35 265.8947265625 78.4982421875 266.1 78.5 266.3052734375 78.4982421875 266.45 78.35 266.5982421875 78.2052734375 266.6 78 266.6 75 266.6 72 266.5982421875 71.7947265625 266.45 71.65 266.3052734375 71.5017578125 266.1 71.5 265.8947265625 71.5017578125 265.75 71.65
M 265.75 59.65
Q 265.6017578125 59.7947265625 265.6 60 265.6 63 265.6 66 265.6017578125 66.2052734375 265.75 66.35 265.8947265625 66.4982421875 266.1 66.5 266.3052734375 66.4982421875 266.45 66.35 266.5982421875 66.2052734375 266.6 66 266.6 63 266.6 60 266.5982421875 59.7947265625 266.45 59.65 266.3052734375 59.5017578125 266.1 59.5 265.8947265625 59.5017578125 265.75 59.65
M 265.75 47.65
Q 265.6017578125 47.7947265625 265.6 48 265.6 51 265.6 54 265.6017578125 54.2052734375 265.75 54.35 265.8947265625 54.4982421875 266.1 54.5 266.3052734375 54.4982421875 266.45 54.35 266.5982421875 54.2052734375 266.6 54 266.6 51 266.6 48 266.5982421875 47.7947265625 266.45 47.65 266.3052734375 47.5017578125 266.1 47.5 265.8947265625 47.5017578125 265.75 47.65
M 266.6 36
Q 266.5982421875 35.7947265625 266.45 35.65 266.3052734375 35.5017578125 266.1 35.5 265.8947265625 35.5017578125 265.75 35.65 265.6017578125 35.7947265625 265.6 36 265.6 39 265.6 42 265.6017578125 42.2052734375 265.75 42.35 265.8947265625 42.4982421875 266.1 42.5 266.3052734375 42.4982421875 266.45 42.35 266.5982421875 42.2052734375 266.6 42 266.6 39 266.6 36
M 265.75 23.65
Q 265.6017578125 23.7947265625 265.6 24 265.6 27 265.6 30 265.6017578125 30.2052734375 265.75 30.35 265.8947265625 30.4982421875 266.1 30.5 266.3052734375 30.4982421875 266.45 30.35 266.5982421875 30.2052734375 266.6 30 266.6 27 266.6 24 266.5982421875 23.7947265625 266.45 23.65 266.3052734375 23.5017578125 266.1 23.5 265.8947265625 23.5017578125 265.75 23.65
M 265.75 11.65
Q 265.6017578125 11.7947265625 265.6 12 265.6 15 265.6 18 265.6017578125 18.2052734375 265.75 18.35 265.8947265625 18.4982421875 266.1 18.5 266.3052734375 18.4982421875 266.45 18.35 266.5982421875 18.2052734375 266.6 18 266.6 15 266.6 12 266.5982421875 11.7947265625 266.45 11.65 266.3052734375 11.5017578125 266.1 11.5 265.8947265625 11.5017578125 265.75 11.65
M 266.1 -0.5
Q 265.8947265625 -0.4982421875 265.75 -0.35 265.6017578125 -0.2052734375 265.6 0
L 265.6 5
Q 265.6 5.5 265.6 6 265.6017578125 6.2052734375 265.75 6.35 265.8947265625 6.4982421875 266.1 6.5 266.3052734375 6.4982421875 266.45 6.35 266.5982421875 6.2052734375 266.6 6 266.6 5.5 266.6 5
L 266.6 0
Q 266.5982421875 -0.2052734375 266.45 -0.35 266.3052734375 -0.4982421875 266.1 -0.5 Z"/>
</g>
</g>
</g>
</g>
</g>
</g>
</g>

<g id="Layer_2">
<g transform="matrix( 1, 0, 0, 1, 0,0) ">
<g>
<g>
<path fill="#FFFFFF" stroke="none" d="
M 219.65 134.7
Q 220.7 134.75 221.45 135.15 222.15 135.55 222.35 135.9
L 223.1 135.8 222.65 130.05 206.85 130.05 206.35 135.8 207.15 135.9
Q 207.35 135.55 208.05 135.15 208.75 134.75 209.85 134.7
L 212.15 134.7 212.15 152.65
Q 212.1 153.75 211.8 154.45 211.5 155.05 211.1 155.25
L 211.2 156.05 218.3 156.05 218.4 155.25
Q 218 155.05 217.65 154.45 217.35 153.75 217.35 152.65
L 217.35 134.7 219.65 134.7
M 202.7 130.85
L 202.6 130.05 196.05 130.05 195.95 130.85
Q 196.35 131.05 196.65 131.7 196.95 132.35 197 133.45
L 197 148.75
Q 196.95 150.25 196.15 151.05 195.3 151.9 194.1 151.9 192.95 151.9 192.15 151.05 191.3 150.25 191.3 148.75
L 191.3 133.45
Q 191.3 132.35 191.6 131.7 191.95 131.05 192.3 130.85
L 192.2 130.05 185.15 130.05 185.05 130.85
Q 185.4 131.05 185.75 131.7 186.05 132.35 186.05 133.45
L 186.05 147.65
Q 186.05 148.75 185.75 149.2 185.4 149.65 185.05 149.8
L 185.15 150.6
Q 185.65 150.6 186.2 151.45 186.8 152.25 187.65 153.5 188.65 154.95 190.3 155.75 191.95 156.55 193.85 156.55 195.75 156.55 197.4 155.75 199.05 154.95 200.1 153.5 200.95 152.25 201.55 151.45 202.1 150.6 202.6 150.6
L 202.7 149.8
Q 202.3 149.65 202 149.2 201.7 148.75 201.65 147.65
L 201.65 133.45
Q 201.7 132.35 202 131.7 202.3 131.05 202.7 130.85
M 170.8 122.1
Q 168.25 122.15 166.4 123.2 164.55 124.3 163.55 126.2 162.55 128.1 162.5 130.6 162.5 132.15 162.95 133.55 163.45 134.85 164.2 135.9
L 160.35 135.9
Q 160.25 136.95 160.2 138.1 160.1 139.2 160.1 140.4 160.15 146.55 161.45 150.6 162.8 154.7 165.2 156.7 167.55 158.7 170.8 158.7 173.95 158.7 176.35 156.7 178.7 154.7 180.05 150.6 181.35 146.55 181.4 140.4 181.35 131.35 178.6 126.7 175.85 122.15 170.8 122.1
M 172.5 134.65
Q 172.5 134.2 172.35 133.75 172.25 133.3 172 132.95 171.6 133.2 171.2 133.35 170.8 133.5 170.4 133.45 169.3 133.45 168.55 132.6 167.75 131.75 167.7 130.15 167.75 128.7 168.55 128 169.35 127.3 170.8 127.3 173.4 127.25 174.55 130.4 175.7 133.55 175.65 140.4 175.65 145.15 175.1 148.05 174.5 150.9 173.45 152.2 172.35 153.55 170.8 153.5 169.2 153.55 168.1 152.2 167 150.9 166.4 148.05 165.85 145.15 165.85 140.4 165.85 138.85 165.9 137.4 166.5 137.8 167.2 138 167.9 138.2 168.65 138.2 169.95 138.2 170.8 137.65 171.65 137.15 172.05 136.3 172.5 135.5 172.5 134.65
M 136.05 135.2
Q 137.3 134.2 138.75 134.2 140.25 134.2 141.45 135.15 142.65 136.05 143.25 137.9
L 144.25 137.9 144.25 129.7 143.25 129.55
Q 143 129.8 142.65 129.9 142.3 130.05 141.85 130.05 141.15 130 140.4 129.8 139.65 129.55 138.35 129.55 135.45 129.55 133.05 131.1 130.65 132.65 129.2 135.65 127.75 138.7 127.7 143.05 127.75 147.4 129.2 150.45 130.65 153.45 133.05 155 135.45 156.55 138.35 156.55 140.3 156.55 141.65 155.95 143 155.35 143.95 154.6 144.9 153.8 145.65 153.25 146.35 152.65 147 152.6
L 147.1 151.85
Q 146.7 151.65 146.4 151.25 146.05 150.75 146.05 149.7
L 146.05 145.15
Q 146.05 144.05 146.4 143.4 146.7 142.75 147.1 142.55
L 147 141.75 139.9 141.75 139.8 142.55
Q 140.2 142.75 140.5 143.4 140.8 144.05 140.85 145.15
L 140.85 151.05
Q 140.45 151.45 139.85 151.7 139.2 151.9 138.4 151.9 136.1 151.9 134.65 149.7 133.2 147.5 133.15 143.05 133.2 140.1 133.95 138.1 134.8 136.15 136.05 135.2
M 125.35 143.05
Q 125.3 138.7 124.1 135.65 122.95 132.65 120.75 131.1 118.65 129.55 115.75 129.55 112.9 129.55 110.75 131.1 108.6 132.65 107.35 135.65 106.15 138.7 106.15 143.05 106.15 147.4 107.35 150.45 108.6 153.45 110.75 155 112.9 156.55 115.75 156.55 118.65 156.55 120.75 155 122.95 153.45 124.1 150.45 125.3 147.4 125.35 143.05
M 111.6 143.05
Q 111.65 138.6 112.75 136.4 113.9 134.2 115.75 134.2 117.6 134.2 118.7 136.4 119.85 138.6 119.9 143.05 119.85 147.5 118.7 149.7 117.6 151.9 115.75 151.9 113.9 151.9 112.75 149.7 111.65 147.5 111.6 143.05
M 96.55 122.65
Q 95.35 122.15 93.75 122.1 91.3 122.15 89.35 123.25 87.45 124.4 86.3 126.3 85.2 128.2 85.15 130.65 85.2 133.2 86.45 134.75 87.65 136.3 89.5 136.35 90.95 136.3 91.8 135.4 92.6 134.5 92.6 133.2 92.6 132.8 92.55 132.45 92.15 132.6 91.8 132.6 91 132.6 90.45 132 89.85 131.4 89.8 130.25 89.85 128.7 90.85 127.75 91.9 126.8 93.35 126.75 93.9 126.75 94.35 126.95 94.85 127.05 95.25 127.3
L 95.25 157.7
Q 95.2 159.95 94.65 161.65 94.1 163.35 93.7 164
L 94.2 164.65
Q 95 163.9 95.95 163.55 96.9 163.2 98.15 163.2 100.55 163.25 103.2 164.05 105.85 164.85 108.7 165.65 111.55 166.45 114.45 166.5 116.6 166.5 117.9 165.75 119.2 165.05 119.8 164 120.35 162.95 120.35 161.85 120.35 160.75 119.85 159.95 119.4 159.15 118.55 159 117.75 160.4 116.55 160.85 115.35 161.35 114.2 161.3 112.05 161.25 109.85 160.6 107.65 159.9 105.4 159.15 103.2 158.4 100.95 158.05
L 100.95 128.35
Q 100.95 127.5 101.2 127.1 101.5 126.65 102 126.4
L 101.9 125.65
Q 101.05 125.6 100.3 125.05 99.5 124.55 98.6 123.9 97.7 123.15 96.55 122.65 Z"/>
</g>
</g>
</g>
</g>
</svg>
