
<svg xmlns="http://www.w3.org/2000/svg" version="1.1" xmlns:xlink="http://www.w3.org/1999/xlink" preserveAspectRatio="none" x="0px" y="0px" width="310px" height="250px" viewBox="0 0 310 250">
<defs>
<filter id="Filter_1" x="-20%" y="-20%" width="140%" height="140%" color-interpolation-filters="sRGB">
<feFlood flood-color="#000000" flood-opacity="1" in="SourceGraphic" result="result1"/>

<feComposite in2="SourceGraphic" in="result1" operator="in" result="result2"/>

<feGaussianBlur in="result2" stdDeviation="1.3333333333333333,1.3333333333333333" result="result3"/>

<feOffset dx="2.121320343559643" dy="2.121320343559643" in="result3" result="result4"/>

<feComposite in2="result4" in="SourceGraphic" operator="over" result="result5"/>
</filter>
</defs>

<g id="Layer_5">
<g filter="url(#Filter_1)" transform="matrix( 1, 0, 0, 1, 0,0) ">
<g transform="matrix( 1, 0, 0, 1, 19.45,19.55) ">
<g id="Layer_3">
<g transform="matrix( 1, 0, 0, 1, 0,0) ">
<g>
<path stroke="#862F2C" stroke-width="15" stroke-linejoin="round" stroke-linecap="round" fill="none" d="
M 271.1 0
Q 271.1 54.05 271.1 109
L 271.1 109.05
Q 271.1 124.3 271.1 139.65 271.1 147.5 271.1 155.4 271.1 166.5 259.9 171.8 197.7 205.85 135.55 210.95 73.35 204.6 11.2 171.35 0 166.45 0 155.4 0 147.5 0 138.5 0 123.75 0 109.05
L 0 109
Q 0 54.5 0 0"/>
</g>
</g>
</g>

<g id="Layer_2">
<g transform="matrix( 1, 0, 0, 1, 0,0) ">
<g>
<g>
<path fill="#862F2C" stroke="none" d="
M 271.1 139.65
Q 271.1 124.3 271.1 109.05
L 271.1 109
Q 271.1 54.05 271.1 0
L 0 0
Q 0 54.5 0 109
L 0 109.05
Q 0 123.75 0 138.5 0 147.5 0 155.4 0 166.45 11.2 171.35 73.35 204.6 135.55 210.95 197.7 205.85 259.9 171.8 271.1 166.5 271.1 155.4 271.1 147.5 271.1 139.65 Z"/>
</g>
</g>

<g>
<path stroke="#FFFFFF" stroke-width="5" stroke-linejoin="round" stroke-linecap="round" fill="none" d="
M 271.1 0
Q 271.1 54.05 271.1 109
L 271.1 109.05
Q 271.1 124.3 271.1 139.65 271.1 147.5 271.1 155.4 271.1 166.5 259.9 171.8 197.7 205.85 135.55 210.95 73.35 204.6 11.2 171.35 0 166.45 0 155.4 0 147.5 0 138.5 0 123.75 0 109.05
L 0 109
Q 0 54.5 0 0"/>
</g>
</g>
</g>

<g id="Layer_1">
<g transform="matrix( 1, 0, 0, 1, 0,0) ">
<g>
<g>
<path fill="#862F2C" stroke="none" d="
M 266.1 5
L 266.1 0 5 0 5 5
Q 5 57 5 109
L 5 109.05
Q 5 123.75 5 138.5 5 147.5 5 155.4 5.15 163.25 13.2 166.8 13.35 166.85 13.55 166.95 74.6 199.6 135.65 205.95 196.55 200.8 257.5 167.45 257.6 167.35 257.75 167.3 265.95 163.4 266.1 155.4 266.1 147.5 266.1 139.65 266.1 124.3 266.1 109.05
L 266.1 109
Q 266.1 56.6 266.1 5
M 266.1 0
L 266.1 5
Q 266.1 56.6 266.1 109
L 266.1 109.05
Q 266.1 124.3 266.1 139.65 266.1 147.5 266.1 155.4 265.95 163.4 257.75 167.3 257.6 167.35 257.5 167.45 196.55 200.8 135.65 205.95 74.6 199.6 13.55 166.95 13.35 166.85 13.2 166.8 5.15 163.25 5 155.4 5 147.5 5 138.5 5 123.75 5 109.05
L 5 109
Q 5 57 5 5
L 5 0 0 0
Q 0 54.5 0 109
L 0 109.05
Q 0 123.75 0 138.5 0 147.5 0 155.4 0 166.45 11.2 171.35 73.35 204.6 135.55 210.95 197.7 205.85 259.9 171.8 271.1 166.5 271.1 155.4 271.1 147.5 271.1 139.65 271.1 124.3 271.1 109.05
L 271.1 109
Q 271.1 54.05 271.1 0
L 266.1 0 Z"/>
</g>
</g>

<use xlink:href="#MyAccount_0_Layer0_0_STROKES_1_FILL"/>
</g>
</g>
</g>
</g>
</g>
</svg>
