
<svg xmlns="http://www.w3.org/2000/svg" version="1.1" xmlns:xlink="http://www.w3.org/1999/xlink" preserveAspectRatio="none" x="0px" y="0px" width="59px" height="559px" viewBox="0 0 59 559">
<defs/>

<g id="Layer_2">
<g transform="matrix( 1, 0, 0, 1, 0,0) ">
<g>
<path stroke="#000000" stroke-width="3" stroke-linejoin="round" stroke-linecap="square" fill="none" d="
M 2 2
L 57.9 2
M 2 81.35
L 57.9 81.35
M 2 160.75
L 57.9 160.75
M 2 240.1
L 57.9 240.1
M 2 319.5
L 57.9 319.5
M 2 398.85
L 57.9 398.85
M 2 478.25
L 57.9 478.25
M 2 557.6
L 57.9 557.6"/>
</g>

<g>
<path stroke="#000000" stroke-width="2.5" stroke-linejoin="round" stroke-linecap="square" fill="none" d="
M 9.25 17.85
L 50.7 17.85
M 9.25 97.25
L 50.7 97.25
M 9.25 65.5
L 50.7 65.5
M 9.25 49.6
L 50.7 49.6
M 9.25 33.75
L 50.7 33.75
M 9.25 192.5
L 50.7 192.5
M 9.25 176.6
L 50.7 176.6
M 9.25 113.1
L 50.7 113.1
M 9.25 129
L 50.7 129
M 9.25 144.85
L 50.7 144.85
M 9.25 208.35
L 50.7 208.35
M 9.25 287.75
L 50.7 287.75
M 9.25 256
L 50.7 256
M 9.25 271.85
L 50.7 271.85
M 9.25 224.25
L 50.7 224.25
M 9.25 383
L 50.7 383
M 9.25 367.1
L 50.7 367.1
M 9.25 335.35
L 50.7 335.35
M 9.25 351.25
L 50.7 351.25
M 9.25 303.6
L 50.7 303.6
M 9.25 414.75
L 50.7 414.75
M 9.25 446.5
L 50.7 446.5
M 9.25 462.35
L 50.7 462.35
M 9.25 430.6
L 50.7 430.6
M 9.25 494.1
L 50.7 494.1
M 9.25 541.75
L 50.7 541.75
M 9.25 510
L 50.7 510
M 9.25 525.85
L 50.7 525.85"/>
</g>
</g>
</g>
</svg>
