<?xml version="1.0" encoding="utf-8"?>
<!-- Generator: Adobe Illustrator 21.0.2, SVG Export Plug-In . SVG Version: 6.00 Build 0)  -->
<svg version="1.1" id="Layer_1" xmlns="http://www.w3.org/2000/svg" xmlns:xlink="http://www.w3.org/1999/xlink" x="0px" y="0px"
	 viewBox="0 0 264.9 127.7" style="enable-background:new 0 0 264.9 127.7;" xml:space="preserve">
<style type="text/css">
	.st0{fill:#C14F2C;}
	.st1{fill:#025571;}
</style>
<g>
	<g>
		<path class="st0" d="M61.2,11.2c-1.1,0-2,0.2-2.8,0.7c-0.8,0.5-1.5,1.1-2,2c-0.5,0.8-1,1.8-1.2,2.9c-0.3,1.1-0.4,2.3-0.4,3.5
			c0,0.5,0,1.1,0.1,1.7c0.1,0.6,0.2,1.2,0.4,1.8c0.2,0.6,0.4,1.2,0.8,1.8c0.3,0.6,0.8,1.1,1.3,1.5c-1.5,0.2-2.9,0.7-4.1,1.5
			c-1.2,0.8-2.3,1.7-3.2,2.8c-0.9,1.1-1.5,2.2-2,3.5c-0.5,1.2-0.7,2.5-0.7,3.7c0,0.8,0.1,1.5,0.3,2.3c0.2,0.8,0.5,1.5,1,2.1
			s1,1.2,1.8,1.6c0.7,0.4,1.6,0.6,2.7,0.6c1.2,0,2.4-0.3,3.6-0.8c1.2-0.5,2.4-1.2,3.4-2.1c1.1-0.9,2.1-1.9,3-3.1
			c0.9-1.2,1.7-2.4,2.3-3.7l0.6,0.5c-0.8,1.5-1.7,3-2.7,4.3c-1,1.3-2.1,2.5-3.3,3.4c-1.2,1-2.4,1.7-3.8,2.3
			c-1.4,0.5-2.8,0.8-4.3,0.8c-1.4,0-2.6-0.2-3.7-0.7c-1.1-0.4-2-1-2.8-1.8c-0.8-0.8-1.4-1.6-1.8-2.6c-0.4-1-0.6-2-0.6-3.2
			c0-1.4,0.3-2.7,0.9-4.1c0.6-1.3,1.4-2.5,2.5-3.6c1.1-1.1,2.3-2,3.7-2.7c1.4-0.7,2.9-1.2,4.6-1.3c-1.2-1-2-2.1-2.6-3.3
			c-0.6-1.3-0.8-2.5-0.8-3.8c0-1.2,0.2-2.4,0.7-3.5c0.5-1.1,1.1-2.1,1.9-3c0.8-0.9,1.8-1.6,2.9-2.1c1.1-0.5,2.4-0.8,3.7-0.8
			c1.7,0,3,0.4,3.8,1.3c0.9,0.8,1.3,2,1.3,3.6c0,0.8-0.1,1.7-0.4,2.5c-0.2,0.8-0.5,1.5-0.9,2.2c-0.4,0.6-0.8,1.2-1.2,1.6
			c-0.4,0.4-0.8,0.6-1.2,0.6c-0.3,0-0.6-0.1-0.9-0.4c-0.3-0.3-0.5-0.6-0.7-1c1.1-0.9,2-1.9,2.7-3c0.7-1,1.1-2.1,1.1-3.3
			c0-0.9-0.3-1.7-0.8-2.2C63,11.4,62.2,11.2,61.2,11.2z"/>
		<path class="st0" d="M67.1,45c-0.2,0.2-0.4,0.3-0.5,0.3c-0.3,0-0.5-0.2-0.5-0.7c0-0.3,0.2-0.7,0.5-1.3c0.4-0.6,0.9-1.3,1.5-2.1
			c0.6-0.8,1.3-1.7,2.1-2.7c0.8-1,1.7-1.9,2.5-2.9c-0.1-0.7-0.2-1.4-0.2-2c-0.1-0.6-0.2-1.2-0.3-1.7c-0.2-0.5-0.3-0.9-0.5-1.2
			c-0.2-0.3-0.5-0.4-0.9-0.4c-0.5,0-1,0.2-1.5,0.5c-0.5,0.4-0.9,0.8-1.3,1.4c-0.4,0.6-0.8,1.3-1.2,2.1c-0.4,0.8-0.9,1.6-1.3,2.4
			L65,36.1c0.4-0.8,0.8-1.7,1.2-2.5c0.4-0.9,0.8-1.7,1.2-2.4c0.5-0.7,1-1.3,1.7-1.8c0.6-0.5,1.5-0.7,2.4-0.7c1.2,0,2,0.4,2.6,1.2
			c0.5,0.8,0.9,1.8,1.2,3.1c0.7-0.7,1.4-1.4,2-2.1c0.6-0.6,1.2-1.2,1.8-1.7c0.5-0.5,1-0.8,1.4-1.1s0.7-0.4,0.9-0.4
			c0.2,0,0.4,0,0.7,0.1c0.3,0.1,0.5,0.2,0.5,0.4c-0.3,0-0.6,0.2-1.1,0.5c-0.5,0.3-1,0.8-1.6,1.4c-0.6,0.6-1.3,1.3-2,2.1
			c-0.7,0.8-1.5,1.6-2.2,2.5c0.1,0.9,0.2,1.8,0.2,2.7c0.1,0.9,0.2,1.7,0.3,2.4s0.4,1.3,0.7,1.7c0.3,0.4,0.7,0.7,1.3,0.7
			s1.1-0.2,1.7-0.7c0.6-0.5,1.2-1,1.8-1.7c0.6-0.7,1.1-1.4,1.6-2.2c0.5-0.8,0.9-1.5,1.2-2.2l0.5,0.5c-0.3,1-0.8,1.9-1.4,2.9
			c-0.6,1-1.2,1.8-1.9,2.6c-0.7,0.8-1.5,1.4-2.3,1.8c-0.8,0.5-1.6,0.7-2.4,0.7c-0.7,0-1.2-0.2-1.7-0.5c-0.5-0.3-0.8-0.8-1.1-1.4
			c-0.3-0.6-0.5-1.2-0.7-2c-0.2-0.7-0.3-1.5-0.4-2.3c-1.3,1.5-2.4,2.9-3.5,4.3C68.4,43.3,67.6,44.3,67.1,45z"/>
		<path class="st0" d="M89.1,43.8c-0.8,0-1.4-0.1-1.9-0.3c-0.5-0.2-0.7-0.4-0.7-0.5c0-0.1,0.1-0.2,0.3-0.2c0.2,0,0.5,0,0.8,0
			c1.2,0,2.4-0.3,3.5-0.9c1.1-0.6,2.1-1.4,2.9-2.3c0.8-0.9,1.5-2,2-3.2c0.5-1.2,0.8-2.3,0.8-3.5c0-1-0.2-1.8-0.6-2.5
			c-0.4-0.7-1.1-1-2-1c-0.8,0-1.6,0.3-2.4,0.8c-0.8,0.5-1.5,1.1-2.2,1.9c-0.7,0.8-1.3,1.5-1.8,2.4c-0.5,0.8-0.9,1.6-1.2,2.2
			c-0.5,2.3-1.1,4.4-1.6,6.6c-0.5,2.1-1.1,4-1.6,5.7s-0.9,3.1-1.4,4.2c-0.4,1.1-0.7,1.8-1,2c-0.2,0.2-0.3,0.2-0.5,0.2
			c-0.2,0-0.4-0.1-0.5-0.2c-0.2-0.2-0.3-0.3-0.5-0.5c-0.1-0.2-0.2-0.4-0.3-0.6c-0.1-0.2-0.1-0.3-0.1-0.4c0.4-1.2,0.7-2.3,1-3.3
			c0.3-1,0.7-2,1-3c0.3-1,0.7-2.1,1-3.2c0.3-1.2,0.7-2.5,1-4.1c0.3-1.6,0.7-3.5,1-5.6c0.3-2.2,0.7-4.8,1.1-7.8
			c0-0.3,0.1-0.5,0.2-0.6c0.1-0.1,0.3-0.2,0.7-0.2c0.8,0,1.3,0.2,1.7,0.7c0.3,0.4,0.5,0.9,0.5,1.4c0,0.4-0.1,1.2-0.3,2.3
			c-0.2,1.1-0.4,2.4-0.8,3.8c0.4-0.8,0.9-1.5,1.4-2.3c0.5-0.8,1.1-1.5,1.8-2.1c0.7-0.6,1.4-1.2,2.2-1.6c0.8-0.4,1.6-0.6,2.5-0.6
			c1.4,0,2.5,0.5,3.3,1.4c0.8,0.9,1.3,2.2,1.3,3.7c0,1.2-0.3,2.4-0.8,3.8c-0.5,1.3-1.3,2.6-2.2,3.7c-0.9,1.1-2.1,2.1-3.4,2.8
			C92.1,43.5,90.6,43.8,89.1,43.8z"/>
		<path class="st0" d="M116.9,13.4c0,0.7-0.1,1.5-0.4,2.6c-0.3,1.1-0.7,2.2-1.2,3.5c-0.5,1.3-1.2,2.6-1.9,4
			c-0.7,1.4-1.6,2.8-2.4,4.1c-0.9,1.3-1.8,2.6-2.9,3.8c-1,1.2-2.1,2.3-3.2,3.2c-0.2,0.8-0.3,1.6-0.4,2.4c-0.1,0.8-0.2,1.5-0.2,2.2
			c0,2.3,0.7,3.5,2,3.5c0.6,0,1.2-0.2,1.8-0.6c0.6-0.4,1.2-1,1.7-1.6c0.6-0.7,1.1-1.5,1.6-2.3c0.5-0.9,1-1.7,1.4-2.6l0.7,0.4
			c-1.2,2.6-2.5,4.6-3.9,6.1c-1.4,1.5-2.9,2.2-4.6,2.2c-1.3,0-2.2-0.4-2.8-1.3c-0.6-0.9-0.8-2-0.8-3.3c0-1.4,0.3-3.2,0.8-5.2
			c0.6-2,1.3-4.1,2.1-6.3c0.9-2.2,1.8-4.3,2.9-6.4c1.1-2.1,2.1-4,3.2-5.7c1-1.7,2-3.1,2.9-4.1c0.9-1,1.6-1.6,2.1-1.6
			c0.2,0,0.5,0.1,0.6,0.3s0.3,0.5,0.5,0.9c0.1,0.3,0.2,0.7,0.3,1.1C116.8,12.8,116.9,13.1,116.9,13.4z M115.2,13.8
			c-0.2,0-0.5,0.3-1,0.8c-0.5,0.5-1,1.3-1.6,2.2c-0.6,0.9-1.2,2-1.9,3.3c-0.7,1.3-1.4,2.6-2,4c-0.7,1.4-1.3,2.9-1.9,4.4
			c-0.6,1.5-1.1,3-1.5,4.5c1.3-1.3,2.6-2.9,3.8-4.7c1.2-1.8,2.3-3.6,3.3-5.4c0.9-1.8,1.7-3.5,2.3-5c0.6-1.5,0.9-2.7,0.9-3.4
			c0-0.3,0-0.5-0.1-0.6C115.3,13.8,115.2,13.8,115.2,13.8z"/>
		<path class="st0" d="M124.1,39.8c-0.8,0-1.5-0.2-2.2-0.5c-1.1,1.4-2.2,2.5-3.4,3.4c-1.2,0.9-2.4,1.4-3.5,1.4
			c-1.3,0-2.2-0.4-2.8-1.2c-0.5-0.8-0.8-1.8-0.8-2.9c0-0.9,0.2-1.9,0.5-2.9c0.3-1,0.7-1.9,1.2-2.8c0.5-0.8,1-1.5,1.7-2.1
			c0.6-0.6,1.3-0.8,1.9-0.8c0.3,0,0.6,0.1,0.9,0.2c-0.3,0.2-0.6,0.7-1,1.4c-0.4,0.7-0.7,1.4-1.1,2.2c-0.3,0.8-0.6,1.6-0.8,2.4
			c-0.2,0.8-0.3,1.5-0.3,2.1c0,0.9,0.1,1.6,0.4,2c0.3,0.4,0.7,0.6,1.2,0.6c0.6,0,1.4-0.3,2.3-1c0.9-0.7,1.7-1.5,2.6-2.6
			c-0.9-0.7-1.5-1.6-2-2.7c-0.5-1.1-0.7-2.3-0.7-3.5c0-0.8,0.1-1.5,0.3-2.1c0.2-0.7,0.5-1.3,0.9-1.8c0.4-0.5,0.8-0.9,1.4-1.3
			s1.2-0.5,1.9-0.5c1.2,0,2.1,0.3,2.5,1c0.4,0.7,0.6,1.5,0.6,2.5c0,1.2-0.3,2.5-0.9,3.9c-0.6,1.4-1.3,2.8-2.2,4.1
			c0.5,0.3,1.1,0.5,1.7,0.5c1.2,0,2.2-0.3,3.1-1c0.9-0.7,1.6-1.5,2.2-2.6c0.6-1,1.2-2.1,1.6-3.4c0.5-1.2,0.8-2.4,1.2-3.5
			c-0.3-0.3-0.5-0.7-0.5-1.1c0-0.5,0.1-0.9,0.2-1.2c0.2-0.4,0.3-0.7,0.5-1c0.2-0.3,0.4-0.5,0.6-0.6c0.2-0.2,0.4-0.2,0.5-0.2
			c0.3,0,0.5,0.1,0.6,0.4c0,0.3,0.1,0.5,0.1,0.7c0,0.1,0,0.2-0.1,0.4c0,0.2-0.1,0.3-0.2,0.5s-0.1,0.3-0.2,0.5c0,0.2-0.1,0.2-0.1,0.3
			c0,0.4,0.2,0.8,0.7,1.2c0.5,0.3,1,0.7,1.6,1.2c0.6,0.4,1.1,1,1.6,1.6c0.5,0.6,0.7,1.4,0.7,2.4c0,0.7-0.1,1.4-0.4,2.1
			c-0.2,0.7-0.5,1.4-0.8,2.1c-0.3,0.7-0.5,1.3-0.8,1.9s-0.4,1.1-0.4,1.6c0,0.5,0.1,0.9,0.4,1.1s0.6,0.3,0.9,0.3
			c0.7,0,1.5-0.2,2.3-0.7c0.8-0.5,1.5-1,2.2-1.7c0.7-0.7,1.3-1.4,1.9-2.2c0.6-0.8,1-1.5,1.3-2.2l0.6,0.5c-0.4,1-1,1.9-1.6,2.9
			c-0.7,0.9-1.4,1.8-2.3,2.5c-0.8,0.7-1.7,1.3-2.7,1.8c-0.9,0.5-1.9,0.7-2.8,0.7c-1,0-1.8-0.3-2.4-0.8c-0.6-0.5-0.9-1.3-0.9-2.1
			c0-0.7,0.1-1.4,0.4-2.1c0.3-0.7,0.5-1.5,0.9-2.2c0.3-0.7,0.6-1.5,0.9-2.2c0.3-0.7,0.4-1.4,0.4-2c0-0.5-0.1-0.9-0.2-1.2
			c-0.2-0.3-0.4-0.6-0.6-0.9c-0.3-0.3-0.5-0.5-0.8-0.7c-0.3-0.2-0.6-0.4-0.9-0.6c-0.4,1.1-0.8,2.3-1.3,3.6c-0.5,1.3-1.1,2.4-1.8,3.5
			c-0.7,1.1-1.6,2-2.6,2.7C126.7,39.4,125.5,39.8,124.1,39.8z M120.1,32.6c0,0.9,0.1,1.8,0.4,2.6c0.3,0.9,0.6,1.6,1.2,2.2
			c0.8-1.1,1.4-2.3,1.9-3.5c0.5-1.2,0.7-2.4,0.7-3.5c0-0.9-0.1-1.5-0.4-1.9c-0.3-0.4-0.6-0.6-1-0.6c-0.3,0-0.6,0.1-0.9,0.4
			c-0.3,0.2-0.6,0.6-0.9,1c-0.3,0.4-0.5,0.9-0.7,1.4C120.2,31.3,120.1,31.9,120.1,32.6z"/>
		<path class="st0" d="M158.3,29.1c0,1.1-0.3,2.2-1,3.2c-0.7,1-1.6,1.9-2.6,2.7c-1.1,0.8-2.3,1.4-3.6,1.9c-1.3,0.5-2.6,0.8-3.9,0.9
			c-0.1,0.3-0.1,0.6-0.1,0.9c0,0.3,0,0.5,0,0.8c0,0.5,0.1,0.9,0.2,1.4c0.1,0.5,0.3,0.9,0.6,1.2c0.3,0.4,0.6,0.7,1.1,0.9
			c0.5,0.2,1,0.3,1.7,0.3c1,0,1.9-0.2,2.9-0.6c1-0.4,1.9-1,2.8-1.7c0.9-0.7,1.7-1.6,2.5-2.6c0.8-1,1.4-2,2-3.1l0.5,0.4
			c-0.6,1.4-1.3,2.6-2.2,3.7c-0.9,1.1-1.8,2-2.8,2.8c-1,0.8-2.1,1.4-3.2,1.8c-1.1,0.4-2.3,0.6-3.4,0.6c-1.8,0-3.2-0.5-4.1-1.5
			c-0.9-1-1.4-2.3-1.4-3.7c0-0.9,0.2-1.9,0.5-2.8c0.3-1,0.8-2,1.3-2.9c0.6-1,1.2-1.9,1.9-2.8c0.7-0.9,1.5-1.6,2.4-2.3
			c0.9-0.7,1.7-1.2,2.6-1.6c0.9-0.4,1.8-0.6,2.7-0.6c0.7,0,1.3,0.2,1.9,0.5C158,27.3,158.3,28,158.3,29.1z M155.3,27.8
			c-0.7,0-1.5,0.3-2.3,0.8c-0.8,0.6-1.6,1.3-2.4,2.2c-0.8,0.9-1.4,1.9-2,3c-0.6,1.1-1.1,2.2-1.4,3.3c0.8-0.3,1.7-0.7,2.8-1.2
			c1-0.5,2-1.2,2.9-1.9s1.7-1.5,2.4-2.4c0.6-0.9,0.9-1.8,0.9-2.8c0-0.3-0.1-0.6-0.2-0.8C156,27.9,155.7,27.8,155.3,27.8z"/>
		<path class="st0" d="M177.1,28.5c0.8,0.2,1.5,0.3,2.2,0.3c0.7,0.1,1.4,0.1,2.2,0.1c1.6,0,3.5-0.2,5.8-0.7c0.8-2.1,1.7-4.3,2.6-6.4
			c1-2.1,2-4,3-5.7c1-1.7,2-3.1,2.9-4.1c0.9-1.1,1.7-1.6,2.4-1.6c0.3,0,0.5,0.1,0.7,0.3c0.2,0.2,0.3,0.4,0.5,0.7
			c0.1,0.3,0.2,0.6,0.2,0.9c0.1,0.3,0.1,0.6,0.1,0.9c0,1.1-0.3,2.3-0.8,3.8c-0.5,1.4-1.2,2.9-2.1,4.4c-0.9,1.5-2,2.9-3.1,4.2
			c-1.2,1.3-2.4,2.4-3.8,3.2c-0.3,0.7-0.5,1.5-0.8,2.4c-0.3,0.9-0.5,1.9-0.7,2.9c-0.2,1-0.4,2-0.5,2.9c-0.1,0.9-0.2,1.7-0.2,2.3
			c0,0.3,0,0.6,0,0.9c0,0.2,0,0.5,0.1,0.7c0.5-1.5,1.1-3,1.8-4.4c0.6-1.4,1.3-2.7,2.1-3.8c0.8-1.1,1.6-1.9,2.5-2.6
			c0.9-0.6,1.8-0.9,2.8-0.9c0.6,0,1.2,0.1,1.6,0.4c0.4,0.2,0.8,0.6,1.1,0.9c0.3,0.4,0.5,0.8,0.6,1.3c0.1,0.5,0.2,1,0.2,1.5
			c0,0.7-0.1,1.4-0.3,2.1c-0.2,0.7-0.4,1.3-0.7,2c-0.3,0.6-0.5,1.3-0.7,1.9c-0.2,0.6-0.3,1.2-0.3,1.7c0,0.6,0.1,1,0.4,1.3
			c0.3,0.3,0.6,0.4,1,0.4c0.5,0,1.1-0.2,1.7-0.6c0.6-0.4,1.3-0.9,1.9-1.6c0.6-0.6,1.3-1.4,1.9-2.3c0.6-0.9,1.1-1.8,1.6-2.8l0.6,0.5
			c-0.5,1.1-1,2.1-1.7,3.1s-1.3,1.8-2.1,2.5c-0.8,0.7-1.5,1.3-2.4,1.7c-0.8,0.4-1.7,0.6-2.6,0.6c-1.1,0-1.8-0.3-2.4-0.8
			c-0.5-0.5-0.8-1.2-0.8-2c0-0.5,0.1-1,0.2-1.6c0.2-0.6,0.3-1.1,0.5-1.7c0.2-0.6,0.3-1.2,0.5-1.8c0.2-0.6,0.2-1.2,0.2-1.7
			c0-0.8-0.2-1.3-0.5-1.7c-0.3-0.3-0.7-0.5-1.2-0.5c-0.8,0-1.4,0.3-2,0.9c-0.6,0.6-1.2,1.4-1.6,2.3c-0.5,0.9-1,1.9-1.4,3
			c-0.4,1.1-0.8,2.1-1.2,3c-0.4,0.9-0.8,1.7-1.2,2.3c-0.4,0.6-0.8,0.9-1.2,0.9c-0.3,0-0.5-0.1-0.8-0.4c-0.2-0.3-0.4-0.6-0.6-1.1
			c-0.2-0.4-0.3-0.9-0.4-1.5c-0.1-0.6-0.1-1.1-0.1-1.7c0-0.5,0-1.2,0.1-1.9c-1.1,2-2.6,3.7-4.2,5s-3.4,1.9-5.3,1.9
			c-2.7,0-4-1.5-4-4.5c0-0.7,0.1-1.4,0.2-2.3c0.2-0.9,0.4-1.8,0.6-2.9c0.3-1,0.6-2.1,0.9-3.1c0.3-1.1,0.7-2.1,1.1-3.1
			c-0.3-0.1-0.6-0.2-0.9-0.3c-0.3-0.1-0.5-0.2-0.8-0.3v-0.8c0.2,0,0.5,0.1,0.9,0.2c0.3,0.1,0.7,0.2,1.1,0.2c0.6-1.6,1.3-3.2,2-4.6
			c0.7-1.5,1.4-2.7,2.1-3.9c0.7-1.1,1.3-2,1.9-2.6c0.6-0.6,1.2-1,1.6-1c0.2,0,0.5,0.1,0.7,0.2c0.2,0.2,0.3,0.4,0.3,0.7
			c0,0.4-0.2,1-0.6,1.7c-0.4,0.8-0.9,1.7-1.4,2.7c-0.6,1-1.2,2.2-1.9,3.4C178.4,25.8,177.7,27.1,177.1,28.5z M185.2,35.3
			c0.2-1,0.4-1.9,0.7-2.8c0.2-0.9,0.5-1.9,0.9-3.1c-1.1,0.2-2,0.4-2.9,0.5s-1.8,0.1-2.6,0.1c-0.8,0-1.6,0-2.4-0.1
			c-0.8-0.1-1.5-0.2-2.3-0.4c-0.7,1.6-1.3,3.3-1.8,4.9c-0.5,1.7-0.7,3.3-0.7,4.9c0,1.3,0.2,2.3,0.6,2.8s1,0.8,1.9,0.8
			c1.6,0,3.1-0.7,4.6-2.1C182.7,39.6,184.1,37.7,185.2,35.3z M198,14c-0.2,0-0.7,0.3-1.3,1c-0.6,0.7-1.3,1.6-2,2.8s-1.5,2.6-2.3,4.1
			s-1.4,3.3-2,5.1c1-0.8,2-1.9,3-3.1c0.9-1.2,1.8-2.4,2.5-3.6c0.7-1.2,1.3-2.4,1.7-3.5c0.4-1.1,0.6-1.9,0.6-2.5
			C198.1,14.2,198.1,14,198,14z"/>
		<path class="st0" d="M219.6,29.1c0,1.1-0.3,2.2-1,3.2c-0.7,1-1.6,1.9-2.6,2.7c-1.1,0.8-2.3,1.4-3.6,1.9c-1.3,0.5-2.6,0.8-3.9,0.9
			c-0.1,0.3-0.1,0.6-0.1,0.9c0,0.3,0,0.5,0,0.8c0,0.5,0.1,0.9,0.2,1.4c0.1,0.5,0.3,0.9,0.6,1.2c0.3,0.4,0.6,0.7,1.1,0.9
			c0.5,0.2,1,0.3,1.7,0.3c1,0,1.9-0.2,2.9-0.6c1-0.4,1.9-1,2.8-1.7c0.9-0.7,1.7-1.6,2.5-2.6c0.8-1,1.4-2,2-3.1l0.5,0.4
			c-0.6,1.4-1.3,2.6-2.2,3.7c-0.9,1.1-1.8,2-2.8,2.8c-1,0.8-2.1,1.4-3.2,1.8c-1.1,0.4-2.3,0.6-3.4,0.6c-1.8,0-3.2-0.5-4.1-1.5
			c-0.9-1-1.4-2.3-1.4-3.7c0-0.9,0.2-1.9,0.5-2.8c0.3-1,0.8-2,1.3-2.9c0.6-1,1.2-1.9,1.9-2.8c0.7-0.9,1.5-1.6,2.4-2.3
			c0.9-0.7,1.7-1.2,2.6-1.6c0.9-0.4,1.8-0.6,2.7-0.6c0.7,0,1.3,0.2,1.9,0.5C219.3,27.3,219.6,28,219.6,29.1z M216.7,27.8
			c-0.7,0-1.5,0.3-2.3,0.8c-0.8,0.6-1.6,1.3-2.4,2.2c-0.8,0.9-1.4,1.9-2,3c-0.6,1.1-1.1,2.2-1.4,3.3c0.8-0.3,1.7-0.7,2.8-1.2
			c1-0.5,2-1.2,2.9-1.9s1.7-1.5,2.4-2.4c0.6-0.9,0.9-1.8,0.9-2.8c0-0.3-0.1-0.6-0.2-0.8C217.3,27.9,217.1,27.8,216.7,27.8z"/>
	</g>
	<g>
		<path class="st1" d="M32.4,100.1l2.9,5.6c-0.5,3.2-2,5.4-4.7,6.9c-6.3,3.4-14.6,1-19.8-8.7C5.6,94.2,8.3,86,14.6,82.6
			c2.1-1.1,3.2-0.9,4.3-1.5c0.6-0.3,1-0.8,1.1-1.4l1.2-0.4l4.9,9.1L24.9,89c-2.2-2.3-5-2.6-7.1-1.4c-3.2,1.7-4.5,6.5-1,13.1
			s7.7,8.5,11,6.7c2.7-1.4,3.6-4.5,3.3-6.7L32.4,100.1z"/>
		<path class="st1" d="M60.1,98.4l0.2,1l-8.3,3.1l-0.5-0.9c0.4-0.5,0.7-1.8,0.1-3.5l-3.6-9.6l-5.7,3.3l3.2,8.6
			c0.6,1.7,1.7,2.5,2.4,2.6l0.2,1l-8.3,3.1l-0.5-0.9c0.4-0.5,0.7-1.8,0.1-3.5L31,80.1c-0.6-1.7-1.7-2.5-2.4-2.6l-0.2-1l8.3-3.1
			l0.5,0.9c-0.4,0.5-0.7,1.8-0.1,3.5l3.1,8.2l5.8-3.2l-2.8-7.4c-0.6-1.7-1.7-2.5-2.4-2.6l-0.2-1l8.3-3.1l0.5,0.9
			c-0.4,0.5-0.7,1.8-0.1,3.5l8.5,22.6C58.4,97.5,59.5,98.3,60.1,98.4z"/>
		<path class="st1" d="M86.4,92.1l0.1,1l-8.8,2l-0.3-0.9c0.4-0.4,1-1.2,0.3-2.9l-1.5-3.5l-6.7,2.8l0.1,2.6c0.1,1.5,0.7,2.6,1.5,2.5
			l0.1,1L63,98.5l-0.3-0.9c0.3-0.3,1.1-1.2,1-2.2l-1.1-26.9c-0.1-1.3-1-2-1.5-2.1l-0.1-1l11-2.6l12.4,27.7
			C84.9,91.6,85.8,91.9,86.4,92.1z M74.1,83l-5.7-13.5l0.8,15.4L74.1,83z"/>
		<path class="st1" d="M110.7,89.2l0,1l-9,1.1l-0.2-1c0.5-0.4,1.1-1.5,0.4-3l-3.3-7.8c-0.9,0.4-1.8,0.7-2.8,1l0.8,7.2
			c0.2,1.8,1.1,2.8,1.7,3.1l0,1l-8.8,1l-0.2-1c0.5-0.4,1.1-1.6,0.9-3.4l-2.8-24c-0.2-1.8-1.1-2.8-1.7-3.1l0-1L96,59.1
			c6.7-0.8,10.7,3,11.3,7.9c0.4,3.4-1.1,6.5-3.6,8.9l4.6,10.4C109.1,88,110.1,88.9,110.7,89.2z M95.1,75c3-1.2,5.8-4,5.5-7.1
			c-0.2-1.9-1.6-3.3-4.2-3l-2.5,0.3L95.1,75z"/>
		<path class="st1" d="M136.6,88.6l-0.1,1l-9,0.2l-0.1-1c0.5-0.3,1.2-1,0.9-2.8l-0.7-3.8l-7.1,1.3l-0.4,2.6c-0.2,1.5,0.1,2.7,1,2.7
			l-0.1,1l-8.3,0.2l-0.1-1c0.4-0.3,1.3-0.9,1.5-1.9l4.6-26.5c0.2-1.3-0.6-2.1-1-2.4l0.1-1l11.3-0.2l6.3,29.7
			C135.3,87.8,136.1,88.4,136.6,88.6z M126.5,77.1l-2.8-14.4L121.2,78L126.5,77.1z"/>
		<path class="st1" d="M158.8,81.7l-0.5,6.2c-2.1,2.4-4.6,3.5-7.7,3.3c-7.2-0.5-12.9-6.9-12.1-17.9c0.8-10.9,7.4-16.5,14.5-16
			c2.3,0.2,3.3,0.9,4.4,1c0.7,0.1,1.3-0.2,1.7-0.6l1.3,0.3l-0.7,10.3l-1.3-0.1c-0.7-3.1-2.9-4.8-5.3-5c-3.6-0.3-7.3,3.1-7.8,10.6
			c-0.5,7.5,2,11.3,5.8,11.5c3.1,0.2,5.4-1.9,6.4-3.9L158.8,81.7z"/>
		<path class="st1" d="M185,70.1c-0.2-0.6-1.3-1.7-3.1-2.1l-2.8-0.5l-3.9,22.2c-0.3,1.8,0.2,3,0.7,3.4l-0.3,0.9l-8.7-1.5l0-1
			c0.6-0.2,1.5-1.2,1.9-3l3.9-22.2l-2.8-0.5c-1.8-0.3-3.2,0.4-3.6,0.9l-0.9-0.3l1.8-7l19.5,3.5l-0.7,7.2L185,70.1z"/>
		<path class="st1" d="M203.5,93.8l0.9,0.4l-2.6,6.8l-16.9-5l0.2-1c0.7-0.1,1.7-1,2.2-2.8l6.9-23.1c0.5-1.7,0.1-3-0.3-3.5l0.4-0.9
			l16.9,5l-1.5,7.1l-1-0.2c-0.1-0.7-1.1-1.9-2.8-2.4l-5.9-1.7l-2,6.7l2.2,0.7c1.7,0.5,2.8-0.1,3.3-0.6l0.9,0.4l-2.5,8.2l-1-0.2
			c-0.1-0.7-0.7-1.8-2.4-2.3l-2.2-0.7l-2.3,7.7l5.9,1.7C201.6,94.8,203,94.3,203.5,93.8z"/>
		<path class="st1" d="M225.5,110.1l-0.5,0.8l-8.3-3.7l0.3-0.9c0.6-0.1,1.7-0.7,1.9-2.4l1.1-8.4c-1-0.1-2-0.3-2.9-0.6l-2.9,6.6
			c-0.7,1.7-0.5,3-0.1,3.5l-0.5,0.8l-8.1-3.6l0.3-0.9c0.7-0.1,1.8-0.8,2.5-2.4l9.8-22c0.7-1.7,0.5-3,0.1-3.5l0.5-0.8l9.6,4.3
			c6.1,2.7,7.7,8.1,5.7,12.6c-1.4,3.2-4.3,5-7.6,5.8l-1.3,11.3C224.8,108.3,225.2,109.6,225.5,110.1z M219.4,90
			c3.2,0.5,7.1-0.5,8.3-3.3c0.8-1.7,0.3-3.7-2-4.7l-2.3-1L219.4,90z"/>
		<path class="st1" d="M248.1,113.8c-3.1,5-9.5,6.4-14.6,3.2c-1.2-0.8-2.1-1.7-2.8-2.7c-1.1-1.5-2.3-1.8-2.8-1.5l-0.8-0.7l6.4-10.2
			l1,0.7c-1.3,4.1-0.7,7.6,2.1,9.4c2.4,1.5,4.6,0.5,5.7-1.3c1.4-2.2,0.6-5-1.3-8.4c-2.2-3.9-3.1-7.1-1-10.5
			c2.7-4.4,8.1-5.7,13.6-2.2c1.3,0.8,2.3,1.9,3,2.4c0.4,0.3,0.8,0.3,1,0.2l0.8,0.6l-4.9,7.7l-0.7-0.5c0.5-2.5-0.6-4.4-2.6-5.6
			c-2.2-1.4-3.6-0.9-4.4,0.4c-1,1.7-0.2,3.2,1.8,6.9C249.8,105.4,250.6,109.7,248.1,113.8z"/>
	</g>
</g>
</svg>
