<?xml version="1.0" encoding="utf-8"?>
<!-- Generator: Adobe Illustrator 21.0.2, SVG Export Plug-In . SVG Version: 6.00 Build 0)  -->
<svg version="1.1" id="Layer_1" xmlns="http://www.w3.org/2000/svg" xmlns:xlink="http://www.w3.org/1999/xlink" x="0px" y="0px"
	 viewBox="0 0 297 210" style="enable-background:new 0 0 297 210;" xml:space="preserve">
<style type="text/css">
	.st0{fill:#798C92;}
	.st1{fill:none;}
	.st2{fill:#242628;}
	.st3{font-family:'ToxTypewriter';}
	.st4{font-size:11.34px;}
</style>
<g>
	<g>
		<g>
			<g>
				<g>
					<path class="st0" d="M125.8,172.3c0,0.2,0.2,0.5,0.3,0.4l-0.2-0.6L125.8,172.3z"/>
					<path class="st0" d="M127.3,173c0-0.4,0-1-0.4-1.5c0.1,0.7,0,0.4,0.1,1.2c-0.1,0.1-0.3-0.1-0.4-0.3c0,0.2-0.3,0-0.2,0.4
						c0.4,0.4,0.6,0.3,0.7-0.2C127.2,172.7,127.2,172.9,127.3,173z"/>
					<path class="st0" d="M141.3,167.3l-0.1,0C141.2,167.3,141.2,167.3,141.3,167.3z"/>
					<path class="st0" d="M149.5,162.8c-0.1,0.1,0,0.1,0,0.2C149.6,162.9,149.6,162.8,149.5,162.8z"/>
					<path class="st0" d="M151.3,162.5c0,0-0.1,0-0.1,0C151.2,162.5,151.3,162.5,151.3,162.5z"/>
					<path class="st0" d="M141.3,167.3l0.3,0.1C141.5,167.2,141.4,167.3,141.3,167.3z"/>
					<path class="st0" d="M128.5,170.7c0,0.1,0,0.1,0,0.2C128.4,170.8,128.5,170.8,128.5,170.7C128.5,170.7,128.5,170.7,128.5,170.7
						z"/>
					<path class="st0" d="M137.8,169.7L137.8,169.7c-0.1,0.1,0,0.2,0,0.3L137.8,169.7z"/>
					<path class="st0" d="M135,171.2c0.1,0-0.1-0.5-0.2-0.8c0.1,0.2,0.1,0.3,0,0.4C134.9,170.9,134.9,171.1,135,171.2z"/>
					<path class="st0" d="M130.1,172.4l0,0.1C130,172.5,130.1,172.5,130.1,172.4z"/>
					<path class="st0" d="M139.9,168.8c0,0.1,0.1,0.1,0.1,0.2C140,168.9,140,168.8,139.9,168.8z"/>
					<path class="st0" d="M162.8,94.2C162.8,94.2,162.8,94.2,162.8,94.2C162.8,94.2,162.8,94.2,162.8,94.2z"/>
					<polygon class="st0" points="164.3,89.9 164.4,90 164.7,89.9 					"/>
					<path class="st0" d="M154.1,161.3C154.1,161.3,154.1,161.3,154.1,161.3C154.1,161.4,154.1,161.3,154.1,161.3z"/>
					<path class="st0" d="M170.8,139.1c-0.6,0.1-0.4-0.7-1.1-0.4C169.9,138.7,170.4,139.3,170.8,139.1z"/>
					<path class="st0" d="M128.6,170.7c0,0,0.1,0,0.1-0.1C128.6,170.6,128.6,170.7,128.6,170.7z"/>
					<path class="st0" d="M169.7,138.6L169.7,138.6L169.7,138.6C169.6,138.6,169.7,138.6,169.7,138.6z"/>
					<path class="st0" d="M159.2,156.5c-0.1-0.1-0.2-0.1-0.2-0.1C159,156.4,159.1,156.4,159.2,156.5z"/>
					<path class="st0" d="M154.8,159.3l0.1,0C154.9,159.3,154.9,159.3,154.8,159.3z"/>
					<path class="st0" d="M160.6,154c0.1,0,0.2,0,0.2-0.1c0,0,0,0-0.1,0C160.7,154,160.7,154,160.6,154z"/>
					<path class="st0" d="M162.4,151.9c0,0-0.1,0-0.1,0l0,0.1L162.4,151.9z"/>
					<path class="st0" d="M165.3,102c0.1-0.1,0.3-0.2,0.5-0.3C165.4,101.9,165.2,101.5,165.3,102z"/>
					<path class="st0" d="M128.6,170.9c0-0.1-0.1-0.2,0-0.3c0,0,0,0-0.1,0.1C128.5,170.8,128.6,170.9,128.6,170.9z"/>
					<path class="st0" d="M157.4,150.9l0.3-0.2C157.6,150.7,157.5,150.8,157.4,150.9z"/>
					<path class="st0" d="M168.7,120.5L168.7,120.5C168.6,120.4,168.6,120.5,168.7,120.5z"/>
					<path class="st0" d="M158.5,149.7c0.2,0.1,0.3,0.1,0.4,0.1c0,0,0-0.1-0.1-0.1L158.5,149.7z"/>
					<path class="st0" d="M165.8,101.7L165.8,101.7L165.8,101.7z"/>
					<path class="st0" d="M163.7,99.4c0.1,0.4,0.7,0,1.2-0.1c0.3,0.4-0.5,0.4-0.8,0.6c0.3,0.2,1,0.3,1,0.5c-0.1,0-0.1,0.1-0.3,0.1
						c0.6,0.1,0.3,0.9,1.1,1.1c-0.1,0-0.1,0.1-0.2,0.1c0.3-0.2,0.7-0.3,1-0.3c0.1,0.2,0.5,0.2,0.1,0.4c0-0.1-0.2-0.1-0.4-0.1
						l0.3,0.1c-0.6,0.3-0.3-0.2-0.8-0.1c0.3,0.3,1,0.6,0.9,0.9c-0.6,0.2-0.4-0.6-0.9-0.1l0.1-0.5c-0.9,0.6,0-0.3-1,0.3
						c0,0.6,0.5,0.5,0.5,1.1c0.4,0,0.5-0.2,0.9-0.2c0.9,0.6-1.5,1-0.5,1.4c0.5,0,1.3-0.1,1,0.4l-0.8,0c0.1,0.6,1.2,0,0.8,0.7
						c-0.3,0-0.4-0.4-0.4-0.3c-0.5,0.5,0.5,0.2,0.6,0.4l-0.6,0.2c0.2,0.5,0.9,1.1,1.1,1.7c-0.2,0-0.4-0.1-0.6,0.1
						c0.5,0.7,0.3,1.7,0,2.6l0.6,0.2c0,0.1-0.2,0.2-0.4,0.1c-0.2,0.3,0.4-0.1,0.6,0.1c0.1,0.2-0.3,0.3-0.5,0.2
						c0.6,0.4,1.3,1.3,0.8,2l-0.2-0.1c-0.2,0.5,1.3,0.3,0.8,0.8l-0.1-0.1c-0.1,1,0.6,2-0.2,2.8c0.9,0.1-0.3,1,0.9,0.9
						c-0.5,0.6-0.7,0.5-1.1,1.3c0,0.2,0.8,0.3,0.9,0.5l-0.6,0l0.7,0.3l-0.7,0.2l0.2,0.2c0-0.1,0.3-0.2,0.4-0.2
						c0.3,0.4-0.4,0.9-0.7,1c0.2,0.3,0.4,0.6,0.6,0.9c-0.2,0-0.3-0.2-0.5-0.3c0.6,0.4-0.6,0.1-0.1,0.5c0.1-0.1,0.4,0,0.5,0
						c-0.4,0.2-0.4,0.7-0.2,1.1l-0.4-0.1c-0.1,0.6,0.2,1.4,0.2,2.1c0.2-0.3,0.9-0.2,1,0.1l-0.7,0.1c0.4,0.2,0.3-0.2,0.7,0.1
						c-0.1,0.3-0.7,0.1-1,0l0.2,0.3c-0.2,0-0.3-0.1-0.5-0.1c0.4,0.2-0.7,0.5,0,0.8l-0.2,0c0,0.7,0.2,1.1,0.1,1.6
						c0.6,0.1,0.4,0.3,0.8,0.5c-0.2,0.4-0.7,0.8-0.7,1.4c0.2,0.4,0.5,0.2,0.8,0.4c-0.5,0-0.5,0.5-0.9,0.1c0,0.6-0.1,0.8,0.2,1.6
						c0.2,0,0.3-0.1,0.5,0c0.1,0.2-0.3,0.3-0.5,0.2l0,0c0.3,0.5-0.2,1-0.6,1.3c-0.5,0.4-0.9,0.7-0.4,1.2l0-0.1l0.3,0.9
						c-0.2,0.3-0.3-0.3-0.7-0.2c0.6,1-0.5,1.1-0.2,1.9c-1.6-0.1-0.5,1.7-1.7,1.9l0.3,0.1c0.2,0.3-0.3,0.1-0.4,0.2
						c0.3,0.1,0.4,0,0.5,0.1c-0.2,1.5-1.8,2.5-2.8,3.6c-0.4,0.4,1.4,1.2,0.3,1.4l-0.5-0.5c0,0.7-0.3,1.2-0.6,1.6
						c-0.4,0.4-0.7,0.9-0.8,1.5c-0.1-0.1-0.2-0.3-0.2-0.4c-0.5-0.1-0.5,0.7-0.2,0.9c-0.1,0.1-0.3-0.2-0.5-0.2
						c-0.4,0,0.1,0.8-0.3,0.6c-0.1,0-0.1-0.1-0.1-0.2c0.1,0.3-0.5,0.5,0,0.7c-0.5,0.1-0.3,0.8-0.8,0.8c0.3,0.6-0.7,0.3-0.1,1
						c-0.7-0.6-1,0-0.9,0.5c-0.1-0.3-0.4,0-0.6-0.4c-0.2,0.2-0.3,0.5,0.1,0.8c-1.2-0.4-0.2,1.4-1.4,0.6c-0.3,1-0.7,1.8-1.2,2.5
						c-0.6-0.7,0.6-0.7-0.1-1.3c-0.3,0.8-0.1,1.7-0.9,2c-0.2,0-0.2-0.4-0.2-0.5c-0.3,0.8-1.2,0.9-1.4,1.7c-0.1-0.1-0.1-0.2,0-0.3
						c-0.1,0.1-0.3,0.1-0.1,0.4l0-0.2c0.5,0.3,0.4,1.3,0.5,1.6c-0.5-1.1-0.7,0.2-1.3-1.2c0,0.1,0,0.3,0.2,0.5
						c-0.2,0-0.3-0.1-0.4-0.4c-0.2,0.5,0.2,0.7-0.2,1c-0.1-0.2-0.1-0.3-0.2-0.5c0.1,0.4,0.1,0.9-0.3,1c-0.1-0.1-0.2-0.2-0.1-0.3
						c-0.5,0.4-0.3,1.5-1.1,1.6c-0.3-0.8-0.4-0.1-0.8-0.7l-0.2,0.4l0.3,0.2c-0.3,0.2-0.2,0.8-0.6,0.8l0-0.4l-0.4,0.5l0.5,0
						c-0.1,0.5,0.6,0.8,0.1,0.8c0-0.1-0.3,0.2-0.7-0.1l0,0c0,0.3,0,0.6-0.3,0.6c-0.2-0.2-0.4-0.7-0.5-0.8c0.2,0.6-0.6,0.6-0.4,1.2
						c0-0.2-0.2-0.5-0.3-0.6l0.2,0.5c-0.2-0.1-0.3-0.1-0.4-0.4c-0.4,0.2,0.6,0.7-0.1,0.7c0-0.1,0-0.1,0-0.2
						c-0.6,0.1-0.8,0.8-1.3,0.9c-0.5-0.6,0.3-0.4-0.2-0.8c-0.6,0.5-0.9,1.5-1.6,1.8l0.2,0c0.4,1-0.7-0.2-0.8,0.4
						c0-0.1-0.2-0.6-0.1-0.5c-0.5,0.1-0.7,0.7-1.2,1.4l0-0.3c-0.4-0.1-0.7,0.2-1.1,0.3c0,0.3-0.1,0.3,0.1,0.6
						c-1.6-0.9-1.3,1.6-2.6,0.8c0.1,0,0.1-0.3,0-0.3l-0.5,0.6c0.3,0.4,0.2,0.2,0.5,0.5c0,0.3,0,0.6-0.2,0.7c0.2-0.4-0.3-0.7-0.6-0.8
						c0.1,0.1,0.1,0.3,0.2,0.4c-0.7-0.6,0.4,0.9-0.4,0.6l-0.1-0.2c-0.1,0.2-0.1,0.6-0.4,0.6c-0.3-0.4,0.1-0.3-0.1-0.7
						c-0.3,0.2-0.1,1.2-0.6,0.8c0-0.2,0.2-0.3,0.3-0.5c-0.5-0.4-0.5-0.3-0.7-0.3l0,0l-0.6,0l0.2,0.1c0.3,1.4-0.6,0.6-0.6,1.6
						c0.1-1-0.1-0.5-0.4-1c-0.2-0.1-0.4-0.2-0.5-0.4c0,0.5-0.5-0.2-0.5,0.6c-0.1-0.2-0.2,0.1-0.4-0.4c-0.2,0.3,0.2,0.3,0.3,0.5
						c-0.1,0.8-1.4-0.3-1.6,0.9c-0.4,0.6-0.2,1.2-0.6,1.8c-0.3-0.2-0.2-0.7-0.2-0.7c-0.4-0.1-0.6,0-0.7,0.3c0-0.2-0.1-0.3-0.3-0.4
						c-0.2,0.1,0.2,0.7-0.2,0.6c0-0.2-0.1-0.6-0.1-0.8c-0.2,0.3-0.3,0.7-0.4,1c-0.2-0.3-0.1-0.5-0.1-0.8c-0.2,0.3-0.6,0.6-0.5,1.1
						l0.3,0.1c-0.1,0.1-0.2-0.4-0.2-0.5c0.1-0.5,0.4,0,0.5,0.2l-0.1,0.2c0.7,1,0.6-0.5,1-0.6l0.2,0.8l0.1-0.8
						c0.2,0.2,0.4,0.6,0.3,0.8c0.4,0.3,0.1-0.4,0.5-0.1c0.1,0.1,0.1,0.1,0.1,0.1l0.1-0.3c0,0.2,0.3,0.5,0.1,0.5
						c0.7,0.2,0.5-0.9,0.9-0.4l0,0.1c0.5-0.5-0.2-0.6,0-1.4l1,1.2l-0.2-0.6c0.1,0,0.2,0,0.3,0.2c0.1-0.5-0.2-0.2-0.2-0.6
						c0.5,0.4,0.7-0.6,1.2,0.2c-0.1-0.5-0.4-0.2-0.3-0.6c0.5,0.9,0.3-0.3,0.8,0c0.1,0.5-0.2,0.4,0.2,0.7c-0.2-0.9,0.6-0.1,0.8-0.4
						c-0.3-0.7,0.4-0.5,0.7-0.9c0.1,0.2,0.9,0,1.4,0l0,0.1c-0.3-0.7,0.2-0.8,0.4-1c0.2,0.4,0.2,0.6,0.2,0.8l0.3-0.1
						c0-0.2,0-0.4,0.1-0.6l0.2,0.5c0.3-0.2,0.4-0.9,1-0.8c-0.2-0.5-1-1.1-0.7-1.6c0.1,0.2,0.4,0.6,0.3,0.8c0-0.1,0-0.3,0.2-0.2
						l0,0.5c0.3,0.1-0.1-0.4,0.1-0.4c0.2,0.4,0.2,0.2,0.4,0.5c0,0.1-0.2-0.1-0.2,0.1c0.2,0,0.5,0.1,0.8,0.3
						c-0.1-0.2-0.2-0.5-0.1-0.6c0.3-0.2,0.3,0.4,0.6,0.4c0-0.3,0.3-0.2,0-0.7c0.1-0.1,0.2,0.2,0.4,0.3c0.1-0.3,0.8-0.5,0.3-1l-0.1,0
						c0,0,0,0,0,0l0,0l0,0c0.3-0.8,1.4-0.4,1.8-0.9l0.1,0.2c0.2-0.4,0.7-0.5,0.7-1c0.1-0.1,0.4,0.2,0.5,0.4c0.2-0.3,0.1-0.5,0.6-0.4
						c-0.1,0.4,0.2,0.2-0.1,0.4c0.4,0,0.7,0.2,0.7-0.5c0.1,0.5,0.6,0.4,0.7,0.2l-0.4-0.2c0.1-0.2,0.3-0.2,0.5-0.3l0.3,0.6
						c1.1,0.3,0.5-1.9,1.7-1.1c-0.1-0.5-0.5,0-0.7-0.6c0.4-0.1,1.2,0.5,1.3,0.4c0.6,0-0.1-1.1,0.4-1.2c-0.2-0.2-0.6-0.7-0.4-1.1
						c0.4-0.1,0.9,0.6,0.8,0.9c-0.1,0.1-0.1,0-0.2,0c-0.1,0.1-0.1,0.3,0.1,0.4l-0.1-0.2c0.3,0.1,0.7-0.2,0.8,0.2
						c0.1-0.3-0.1-0.4-0.4-0.4c0.6,0,0.6-0.4,1.2-0.5c-0.1-0.1-0.4-0.3-0.3-0.3c0.8-0.2,0-0.5,0.3-0.9c0.4,0.1,0.4,0.8,0.6,0.2
						c0.4,0,0.4,0.5,0.4,0.7c0.1-0.6,0.9-0.3,1.1-0.3l-0.1,0.3c0-0.2,0.1-0.2,0.2-0.3l-0.4-0.3c0.2,0,0.3-0.1,0.4,0.1
						c-0.1-0.3-0.6-0.6-0.6-1.1c0.3,0.1,0.3-0.5,0.7-0.1c-0.6,0.2,0.4,0.5,0.1,0.8c0-0.1,0.1-0.2,0.3-0.2c0.1,0,0.1,0.1,0.1,0.2
						c0.8,0.1-0.2-0.7,0.2-1.1c0.2,0.3,0.5,0.4,0.6,0.3c-0.2,0.1-0.5-0.4-0.5-0.7c0.5,0,0.2-0.4,0.4-0.5l-0.3,0
						c-0.2-0.3,0-0.4,0.1-0.7c0.2,0.2-0.1,0.3,0.1,0.3c-0.2-0.7,0.9,0.1,0.9-0.5c0.3,0.1,0.4,0.5,0.7,0.5c0-0.6,0.7,0,0.8-0.5
						c-0.4-0.3-0.4-0.2-0.4-0.7l-0.4,0.8l-0.1-0.8c-0.2,0.1-0.2,0.5-0.3,0.6c-0.1-0.4,0-0.3-0.4-0.6c0.7,0.3,0.2-0.7,0.8-0.6
						l0.8,0.9c0.8,0,0.3-1.1,1.1-1.4l-0.3,0c-0.2-0.4,0.3-0.3,0.3-0.6c0.3,0.3,0.5,0.3,0.7,0.4c-0.2-0.2,0.4-0.4-0.1-1l0.6,0.1
						c0.6-0.3-0.3-1.3,0.2-1.6c0.2,0.4,0.6,0.4,0.5,0.9c0.1-0.1,0.3-0.2,0.1-0.4c0.3,0.1,0-0.7,0.4-0.6c-0.1-0.2-0.4-0.5-0.2-0.6
						c0.1,0,0.1,0.1,0.1,0.1c-0.1-0.1,0-0.4-0.4-0.6c1.3,0.4,1-1.2,2.1-0.9c0.2-0.4,0.4-0.8,0.6-1.2c0.1,0.1,0.2,0.1,0.1,0.2
						c0.6-0.2-0.7-1,0-1.1c0.7,0.2,0.1,0.5,0.4,0.5c1.1,0.7,0.3-0.7,1.1-0.5l0,0.1c0.5,0,0-0.9,0.4-1.2c0,0,0.1,0.1,0.2,0.1
						c-0.3-0.7-0.2-1.3-0.1-1.8c0.3,0.4,0.1,0.3,0.6,0.5c0.1-0.2-0.7-0.4-0.6-0.8c0.3,0,0.7-0.1,1.2,0.2l-0.2,0.3
						c0.7,0.2,0.3-0.4,0.5-0.6l0.2,0.2c0.2-0.6-0.4-1,0-1.5l-0.2-0.1c-0.5-0.7,0.5,0,0.2-0.6l0.7,0.3c0-0.3-0.3-1.1-0.2-1.5
						c0.4,0.5,0.4,1.1,0.6,1.5c0.1-0.2,0.3-0.7,0.1-1c0,0.1,0.1,0.3,0,0.3c-0.4-0.5-0.5-1-0.3-1.4c1.3,0.8,0.9-0.9,2.1-0.7
						c-0.1-0.5,0.1-0.9,0.4-1.2c0.3-0.4,0.6-0.7,0.7-1.2c-1.2-0.1,0.1-0.3-1.1-0.6c0-0.2,0.1-0.3,0.1-0.3l0.9-0.4
						c0.4,0,0.2,0.3,0.4,0.4c0.3-0.4,0.6,0,1-0.2c-0.4-0.1-0.5-0.4-0.3-0.6l-0.7,0.2c-0.4-0.9,1.2-0.3,0.7-1.2l0.3,0.3
						c-0.1-0.4,0.4-1.3-0.5-1.9c0.2,0,0.5,0,0.5,0.1c0.4-0.8-0.6-2.1,0.1-2.6l0.3,0.1c-0.1-0.2-0.5-0.4-0.2-0.5c0.1,0,0.3,0.1,0.3,0
						c-0.1-0.1-0.4-0.5-0.2-0.7l0.3,0.2c0.6-0.8-0.6-1.4-0.7-2.1c0.9,0.1,1.2-0.5,1.4-0.8l0.1,0c0.2-1-0.6-1.7-0.9-2.6
						c1-0.5,0.5-1.9,1-2.8c-0.2,0.1-0.7,0-0.8-0.2c0.2-0.2-0.6-0.6,0.2-0.5l0,0.1c0.8-0.2,0.6-0.6,0.6-0.9l-1.1,0
						c1.5-0.9-0.7-2.3,0.7-2.8c-0.3-0.2-0.3-0.5-0.6-0.6l0.6,0c0.1-0.6,0.1-0.9-0.1-1.6l0.4,0.1c0-0.4-1.7-0.3-1.8-0.7l0.8-0.2
						c-0.1-0.7,0.6-1.5-0.3-2.1c0.1,0,0.4,0,0.4,0.1c0-0.3,0.4-1.4-0.8-1.1c0.7-0.1,0-0.7-0.4-1.1l0.6,0c-0.7-0.2-0.9-0.2-1.2-0.6
						c0.1-0.1,0.4-0.2,0.3,0c0.2-0.4-0.6-0.2-0.4-0.6l0.4,0.1c0-0.4-0.2-0.3-0.7-0.4c-0.3-0.2,0-0.7,0.5-0.8c-0.3,0-0.8-0.1-0.6-0.3
						c0.2-0.1,0.3,0,0.4,0c0.3-0.7-0.8-0.8-0.4-1.3c0.2,0,0.3-0.1,0.3-0.1c0.1,0.5,0.1,0.9,0.1,0.8c0.5-0.1,0.5-0.5,1.3-0.3
						c-0.4-0.2-1.4-0.6-1.2-1c0,0,0.1-0.1,0.2-0.1l0.1,0c0-0.1,0-0.2-0.1-0.2c0.1-0.1,0.1-0.2,0.1-0.3c0.4-0.1,0.1-0.5,0.1-0.7
						c-0.5,0.1-0.5-0.1-0.9,0.2c0,0,0.1,0,0.1,0.1c0,0,0,0.1,0.1,0.1l-0.1,0c0,0.1,0.1,0.3,0.1,0.5c-0.3-0.1-0.6-0.2-0.3-0.5
						c-0.4,0-0.8,0-0.9-0.1c0.7-0.4,1-1,1.5-1.2c-0.5-0.5-0.5-1.3-1.7-1.4c-0.2-0.1,0.2-0.3,0.4-0.4c0.1,0.1,0.1,0.2,0.3,0.2
						c-0.3-0.3-0.3-0.9-1.1-0.8c0.2-0.5,0.7,0.1,0.5-0.5l0.2,0c0.8-1.4-2.3-1.3-1.2-2.9c-0.1,0.1-0.1,0.2-0.2,0.2
						c0.3-1.6-1.4-2.7-0.8-4.3c0.1-0.4-0.4-0.4-0.8-0.5l0.6-0.3l-0.8-0.2c-0.7-0.4,1.1-1.4,0-1.9l-0.4,0.2c0-0.3-0.5-0.7,0-0.8
						c-0.1,0-0.4,0-0.3-0.1l0.3-0.1l-0.7-0.5c0.1-0.6,1.2-0.3,1.1-1c-0.2-0.2-1.1-0.5-1.3-0.3c0,0.1-0.1,0.3-0.4,0.4l-0.2-0.2
						c-0.9,0.2-1.9,0.3-2.3,1.1l0.7,0.2l-0.4,0.3l-0.1-0.3c-0.3,0.3,0.1,0.3,0.3,0.4c-0.2,0.1-0.4,0.2-0.4,0.3l1,0.1
						c-0.3,0.2-0.7,0-0.9,0.4c0.5,0.1,0.7-0.4,1.1-0.2c-0.3,0.3-0.7,0.4-0.3,0.5c-0.2,0.1-0.4,0.1-0.5,0c0.3,0.1,0.3,0.5,0.8,0.5
						c-0.4,0.4,0.3,0.7-0.5,0.9c0.2,0,0.8,0.2,0.9,0.3c-1.1,0,0.2,0.7-1,1c1,0,0.7,0.8,1.3,1.1c-0.1,0-0.2,0-0.2-0.1
						c0,0.3-0.2,0.4-0.4,0.7c0.8-0.2,1,0.2,1.6,0.2c-0.6,0.5-0.9,0.1-1.6,0.4c0.6-0.2,0.8,0.4,1.2,0.1c-0.4,0.4-0.2,0.3-0.7,0.6
						c1-0.2,0.2,0.2,0.9,0.2c-0.4,0.5-0.9,0.3-0.5,0.6C164.2,99.6,163.7,99.4,163.7,99.4z M167.7,108.1
						C167.7,108.1,167.7,108.1,167.7,108.1c0-0.1-0.1-0.1-0.1-0.2C167.6,107.9,167.7,108,167.7,108.1z M167.9,108.8
						c0-0.1,0-0.2-0.1-0.3c0.2-0.1,0.4-0.1,0.4,0C168.1,108.5,168,108.7,167.9,108.8z M171.3,106.3c0.1,0.1,0,0.2-0.1,0.2
						c0-0.1-0.1-0.1-0.1-0.2c0,0,0,0-0.1,0C171.1,106.3,171.2,106.3,171.3,106.3z"/>
					<path class="st0" d="M170.6,106.3C170.5,106.3,170.5,106.3,170.6,106.3c-0.1,0-0.1,0-0.2,0.1
						C170.5,106.3,170.5,106.3,170.6,106.3L170.6,106.3z"/>
					<path class="st0" d="M141.1,167.3L141.1,167.3C141.1,167.3,141.1,167.3,141.1,167.3C141.1,167.3,141.1,167.3,141.1,167.3z"/>
					<polygon class="st0" points="168.4,119.7 168.5,119.7 168.4,119.6 					"/>
					<path class="st0" d="M136.3,167.6c0,0-0.1-0.1-0.1-0.1C136.2,167.5,136.3,167.6,136.3,167.6z"/>
					<path class="st0" d="M134.5,168.3l-0.3-0.1C134.4,168.3,134.5,168.3,134.5,168.3z"/>
					<path class="st0" d="M133.1,168.7c0,0.1,0.1,0.2,0.1,0.2l0,0L133.1,168.7z"/>
					<path class="st0" d="M152.4,156.4C152.4,156.4,152.4,156.4,152.4,156.4C152.4,156.2,152.4,156.3,152.4,156.4z"/>
					<path class="st0" d="M147.7,161.5c0-0.1,0-0.2,0-0.3C147.6,161.2,147.5,161.2,147.7,161.5z"/>
					<polygon class="st0" points="157.4,150.9 157.4,150.9 157.4,150.9 					"/>
					<path class="st0" d="M148,161c-0.2,0-0.2,0-0.3,0.2C147.8,161.1,147.9,161.1,148,161z"/>
					<path class="st0" d="M127.3,171.2L127.3,171.2C127.2,171.2,127.2,171.2,127.3,171.2L127.3,171.2z"/>
					<path class="st0" d="M127.2,171.3L127.2,171.3C127.2,171.3,127.2,171.3,127.2,171.3z"/>
					<path class="st0" d="M127.1,171.5l0.1-0.2C127.1,171.4,127,171.4,127.1,171.5z"/>
					<path class="st0" d="M129.1,170.6l-0.1-0.2C129.1,170.4,129.1,170.5,129.1,170.6z"/>
					<path class="st0" d="M129.6,170.3c-0.1,0-0.5-0.2-0.6,0l0.1,0.2C129,170.1,129.7,170.7,129.6,170.3z"/>
					<path class="st0" d="M132.9,171.5l-0.5,0.1c0.2,0.2,0.4,0.4,0.2,0.5C133.5,172.4,132.3,171.7,132.9,171.5z"/>
					<path class="st0" d="M134.5,171.1c-0.2,0.2,0.1,0.3,0.2,0.4C134.7,171.3,134.7,171.2,134.5,171.1z"/>
					<path class="st0" d="M144.4,166l0.2,0.5C144.8,166.3,144.5,166.3,144.4,166z"/>
					<polygon class="st0" points="144.9,162.6 144.5,162.5 144.7,162.9 					"/>
					<polygon class="st0" points="147.8,165.1 147.8,165.2 148,164.8 					"/>
					<path class="st0" d="M162.5,152.6l-0.5-0.4C162,152.5,162.5,152.9,162.5,152.6z"/>
					<path class="st0" d="M166.9,145.5c0.3,0.1,0.6,0,0.4-0.3C167.1,145.3,166.8,145.4,166.9,145.5z"/>
					<polygon class="st0" points="173.5,121.5 173.7,121.7 173.6,121.4 					"/>
				</g>
			</g>
		</g>
	</g>
</g>
<g>
	<g>
		<g>
			<g>
				<g>
					<path class="st0" d="M136.3,185.7c0.1-0.2,0.1-0.5,0-0.5l-0.2,0.6L136.3,185.7z"/>
					<path class="st0" d="M136.1,184.5c-0.1,0.3-0.3,0.8-0.4,1.4c0.2-0.6,0.2-0.3,0.4-1.1c0.1-0.1,0.1,0.2,0,0.5
						c0.1-0.2,0.1,0.2,0.2-0.2c0-0.5-0.1-0.6-0.3-0.2C136,184.7,136.1,184.6,136.1,184.5z"/>
					<path class="st0" d="M131,181.8L131,181.8C131,181.8,131,181.8,131,181.8z"/>
					<path class="st0" d="M127.9,180c0,0,0.1-0.1,0.1-0.1C128,179.9,128,180,127.9,180z"/>
					<path class="st0" d="M127.8,179.1C127.8,179.1,127.8,179.1,127.8,179.1C127.8,179.1,127.8,179.1,127.8,179.1z"/>
					<path class="st0" d="M131,181.8l0-0.2C130.9,181.8,130.9,181.7,131,181.8z"/>
					<path class="st0" d="M135,185.8c0,0,0.1-0.1,0.1-0.2c0,0,0,0-0.1,0.1C135,185.8,135,185.8,135,185.8z"/>
					<path class="st0" d="M132.6,181.8L132.6,181.8c0.1-0.1,0.1-0.1,0.1-0.2L132.6,181.8z"/>
					<path class="st0" d="M133.7,182.1c0,0-0.2,0.5-0.3,0.7c0.1-0.2,0.1-0.3,0.2-0.4C133.6,182.4,133.7,182.3,133.7,182.1z"/>
					<path class="st0" d="M135.2,183.5L135.2,183.5C135.3,183.5,135.3,183.5,135.2,183.5z"/>
					<path class="st0" d="M131.8,181.4c0-0.1,0-0.1,0.1-0.2C131.9,181.3,131.8,181.4,131.8,181.4z"/>
					<path class="st0" d="M132.4,159.8C132.4,159.8,132.4,159.8,132.4,159.8C132.4,159.8,132.4,159.8,132.4,159.8z"/>
					<polygon class="st0" points="135.3,161 135.3,161 135.5,161.3 					"/>
					<path class="st0" d="M127.2,178C127.2,178,127.2,178,127.2,178C127.3,177.9,127.2,177.9,127.2,178z"/>
					<path class="st0" d="M122.8,174.5c-0.5-0.2-0.5-0.4-1.1-0.6C121.9,173.9,122.5,174.3,122.8,174.5z"/>
					<path class="st0" d="M135,185.7C134.9,185.8,134.9,185.8,135,185.7C134.9,185.8,134.9,185.8,135,185.7z"/>
					<path class="st0" d="M121.7,173.8L121.7,173.8L121.7,173.8C121.7,173.8,121.7,173.8,121.7,173.8z"/>
					<path class="st0" d="M125,177c-0.1,0.1-0.1,0.2-0.1,0.2C124.9,177.1,124.9,177.1,125,177z"/>
					<path class="st0" d="M126.1,178.6L126.1,178.6C126.1,178.6,126.1,178.6,126.1,178.6z"/>
					<path class="st0" d="M123.8,177.1C123.8,177,123.8,176.9,123.8,177.1C123.7,177,123.7,177,123.8,177.1
						C123.8,177,123.8,177,123.8,177.1z"/>
					<path class="st0" d="M123,176.5c0,0,0,0.1-0.1,0.1L123,176.5L123,176.5z"/>
					<path class="st0" d="M130.2,162.1c0.1,0.1,0.2,0.2,0.4,0.4C130.3,162.1,130.3,161.9,130.2,162.1z"/>
					<path class="st0" d="M135,185.5c0,0.1-0.1,0.2-0.1,0.2c0,0,0,0,0,0C135,185.6,135,185.6,135,185.5z"/>
					<path class="st0" d="M121.1,180.6l-0.1-0.2C121,180.5,121.1,180.6,121.1,180.6z"/>
					<path class="st0" d="M124.5,167L124.5,167C124.5,166.9,124.5,166.9,124.5,167z"/>
					<path class="st0" d="M120.5,180.2c0.1-0.2,0.1-0.3,0.2-0.4c0,0-0.1,0.1-0.1,0.1L120.5,180.2z"/>
					<path class="st0" d="M130.5,162.4L130.5,162.4L130.5,162.4z"/>
					<path class="st0" d="M130.5,160.7c-0.1,0.1,0.4,0.6,0.7,0.9c0,0.3-0.4-0.4-0.7-0.6c0,0.2,0.4,0.8,0.3,0.8
						c-0.1-0.1-0.1-0.1-0.2-0.2c0.3,0.5-0.3,0.3,0.1,0.9c-0.1,0-0.1-0.1-0.1-0.1c0.3,0.3,0.5,0.6,0.7,0.8c0,0.1,0.2,0.4-0.1,0.1
						c0,0-0.1-0.2-0.2-0.3l0.1,0.2c-0.5-0.5-0.1-0.2-0.4-0.6c0,0.3,0.3,0.8,0.1,0.7c-0.5-0.5,0-0.3-0.5-0.7l0.3,0.1
						c-0.8-0.7,0.1,0-0.7-0.8c-0.3,0,0,0.4-0.3,0.4c0.2,0.3,0.4,0.4,0.6,0.7c0.2,0.7-1.3-1.1-0.9-0.3c0.2,0.4,0.8,1.1,0.4,0.8
						l-0.5-0.6c-0.2,0.1,0.6,0.9,0.1,0.7c-0.2-0.3,0-0.3-0.1-0.4c-0.5-0.4,0.2,0.4,0.1,0.5l-0.5-0.5c-0.1,0.2,0,0.8-0.1,1
						c-0.1-0.2-0.2-0.4-0.4-0.5c0,0.5-0.6,0.4-1.1,0.3l0.3,0.5c0,0-0.2-0.2-0.3-0.3c-0.2-0.1,0.2,0.3,0.3,0.5c0,0.1-0.3-0.2-0.4-0.4
						c0.2,0.5,0.2,1.2-0.4,0.9l-0.1-0.2c-0.3-0.1,0.6,1,0.1,0.7l0-0.1c-0.5,0.1-0.4,0.7-1.2,0.3c0.5,0.7-0.5,0,0.2,0.9
						c-0.5-0.3-0.6-0.5-1.1-0.6c-0.1,0,0.4,0.6,0.4,0.8l-0.4-0.5l0.3,0.6l-0.5-0.5l0,0.2c0.1,0,0.2,0.2,0.4,0.3
						c0.1,0.3-0.6-0.1-0.8-0.3l0.1,0.6c-0.2-0.2-0.2-0.3-0.2-0.4c0.3,0.6-0.4-0.5-0.2,0.1c0.1,0.1,0.2,0.3,0.3,0.4
						c-0.3-0.2-0.5-0.1-0.5,0.1l-0.3-0.3c-0.3,0.1-0.3,0.5-0.5,0.7c0.2,0.1,0.7,0.7,0.6,0.8l-0.4-0.5c0.2,0.3,0.2,0.1,0.5,0.6
						c-0.1,0-0.5-0.5-0.6-0.7l0,0.3c-0.1-0.1-0.2-0.2-0.3-0.4c0.2,0.3-0.6-0.3-0.2,0.2l-0.1-0.1c-0.2,0.2-0.2,0.4-0.3,0.6
						c0.4,0.4,0.2,0.4,0.4,0.8c-0.3,0-0.7-0.2-0.8-0.1c0.1,0.3,0.3,0.4,0.4,0.7c-0.3-0.4-0.5-0.2-0.6-0.6c-0.1,0.2-0.2,0.3-0.2,0.8
						c0.2,0.1,0.3,0.2,0.3,0.3c0,0.1-0.2-0.1-0.4-0.3l0-0.1c0.2,0.8-1.6-0.6-1.2,0.4l0-0.1c0,0.3,0,0.5,0,0.7
						c-0.2,0.1-0.2-0.4-0.5-0.5c0.1,0.5-0.1,0.6-0.3,0.7c-0.2,0.1-0.4,0.2-0.3,0.5c-0.8-0.3-1,0-1.1,0.3c-0.1,0.3-0.1,0.6-0.6,0.7
						l0.4,0.1c0.3,0.2-0.3,0.1-0.4,0.1c0.3,0.1,0.4,0,0.5,0.1c0,0,0,0.1,0,0.1c0,0.5-0.2,0.9-0.4,1.4c-0.2,0.5-0.4,1-0.3,1.6
						c0.1,0.4,1.9-0.3,1.3,0.3l-0.7,0.1c0.6,0.2,0.8,0.5,1,0.9c0.2,0.3,0.5,0.7,1,0.7c-0.1,0.1-0.3,0.2-0.4,0.1
						c-0.2,0.4,0.5,0.4,0.7,0.2c0.1,0.1-0.2,0.3-0.3,0.5c0,0.3,0.7-0.2,0.5,0.2c0,0.1-0.1,0.1-0.2,0.1c0.2-0.1,0.2,0.2,0.5-0.2
						c0,0.3,0.4,0,0.3,0.4c0.4-0.4,0.1,0.4,0.6-0.3c-0.6,0.7-0.2,0.8,0.2,0.5c-0.2,0.2-0.1,0.3-0.3,0.6c0.1,0.1,0.3,0,0.6-0.4
						c-0.4,1,0.9-0.4,0.2,0.8c0.6-0.2,1.1-0.3,1.5-0.2c-0.5,0.7-0.4-0.1-0.9,0.7c0.5-0.1,1.1-0.7,1.2-0.3c0,0.1-0.2,0.3-0.4,0.4
						c0.5-0.1,0.5,0.4,1,0.1c0,0.1-0.1,0.1-0.2,0.2c0.1,0,0,0.2,0.3-0.2l-0.1,0.1c0.2-0.6,0.8-0.9,1-1.2c-0.7,1,0.1,0.4-0.8,1.6
						c0.1,0,0.2-0.2,0.3-0.4c0,0.1-0.1,0.2-0.3,0.5c0.3-0.1,0.4-0.5,0.6-0.4c-0.1,0.2-0.2,0.2-0.3,0.4c0.3-0.3,0.5-0.6,0.6-0.4
						c-0.1,0.1-0.1,0.2-0.2,0.2c0.3,0.1,0.9-0.7,1-0.2c-0.5,0.7,0,0.3-0.4,1l0.2-0.1l0.1-0.3c0.1,0.1,0.5-0.3,0.5-0.1l-0.2,0.2
						l0.3,0l0-0.3c0.3-0.3,0.4-0.8,0.5-0.6c-0.1,0.1,0.1,0.1,0,0.5l0,0c0.2-0.2,0.3-0.4,0.3-0.2c-0.1,0.2-0.4,0.7-0.4,0.9
						c0.3-0.5,0.4,0,0.7-0.6c-0.1,0.1-0.3,0.5-0.3,0.6l0.3-0.4c0,0.2,0,0.2-0.2,0.5c0.1,0.2,0.4-0.9,0.4-0.4c0,0-0.1,0.1-0.1,0.2
						c0.1,0.3,0.5-0.1,0.6,0.2c-0.3,0.7-0.2,0.1-0.4,0.7c0.3,0,0.9-0.6,1.1-0.3l0-0.1c0.5-1,0,0.6,0.3,0.2c-0.1,0.1-0.3,0.5-0.2,0.4
						c0.1,0.2,0.5-0.1,0.9-0.3l-0.1,0.2c0,0.3,0.2,0.2,0.3,0.4c0.1-0.2,0.2-0.2,0.3-0.6c-0.2,1.6,1-0.5,0.9,0.8c0,0-0.2,0.2-0.1,0.2
						l0.4-0.1c0.1-0.4,0.1-0.3,0.1-0.6c0.1-0.2,0.3-0.4,0.3-0.4c-0.2,0.2-0.2,0.7-0.3,1c0-0.1,0.1-0.3,0.1-0.4
						c-0.1,0.8,0.3-0.9,0.3-0.3l-0.1,0.2c0.1-0.1,0.3-0.4,0.3-0.3c-0.1,0.5-0.2,0.2-0.3,0.6c0.1,0,0.5-0.9,0.5-0.4
						c-0.1,0.1-0.2,0.1-0.3,0.2c-0.1,0.6,0,0.5,0,0.6l0,0l0.1,0.3l0-0.2c0.6-1.3,0.4-0.1,0.8-1c-0.4,0.8-0.2,0.5-0.4,1
						c0,0.2,0,0.4,0,0.5c0.2-0.4,0,0.4,0.4-0.2c0,0.2,0.1,0-0.1,0.5c0.2-0.1,0.1-0.3,0.1-0.6c0.4-0.6,0.2,0.9,0.7,0.1
						c0.3-0.3,0.5-0.9,0.8-1.2c0,0.3-0.2,0.7-0.2,0.7c0,0.3,0.1,0.3,0.3,0.1c-0.1,0.2-0.1,0.3-0.1,0.5c0.1,0,0.2-0.7,0.3-0.4
						c-0.1,0.2-0.2,0.5-0.3,0.7c0.1-0.1,0.3-0.5,0.5-0.6c0,0.3-0.2,0.5-0.3,0.7c0.2-0.1,0.4-0.2,0.5-0.7l0-0.2c0,0-0.1,0.5-0.1,0.5
						c-0.2,0.4-0.1-0.2-0.1-0.4l0.1-0.1c0.2-1.1-0.3,0.1-0.5,0l0.3-0.8l-0.3,0.6c0-0.2,0.1-0.7,0.2-0.8c0-0.4-0.2,0.3-0.1-0.2
						c0-0.1,0-0.1,0-0.1l-0.2,0.2c0.1-0.2,0.1-0.6,0.2-0.4c-0.1-0.5-0.4,0.5-0.4-0.1l0,0c-0.3,0.2-0.2,0.6-0.6,1.2l0.3-1.5l-0.2,0.6
						c0,0-0.1-0.1,0-0.3c-0.2,0.4-0.1,0.3-0.2,0.6c0-0.6-0.4,0.2-0.2-0.8c-0.2,0.4,0,0.4-0.2,0.6c0.3-1-0.2,0.1-0.2-0.4
						c0.2-0.5,0.2-0.2,0.2-0.7c-0.3,0.9-0.2-0.3-0.3-0.1c-0.2,0.7-0.3,0.2-0.5,0.4c0.1-0.2-0.2-0.5-0.2-0.8l0-0.1
						c-0.3,0.7-0.4,0.5-0.5,0.6c0.1-0.4,0.2-0.6,0.3-0.7l-0.1,0c-0.1,0.2-0.2,0.3-0.3,0.4l0.2-0.5c-0.1,0-0.5,0.5-0.5,0.1
						c-0.2,0.5-0.3,1.4-0.7,1.6c0.1-0.3,0.2-0.7,0.3-0.8c0,0-0.1,0.2-0.1,0.1l0.2-0.4c0-0.2-0.2,0.4-0.2,0.3
						c0.1-0.4,0.1-0.3,0.2-0.6c0,0,0,0.2,0.1,0c0-0.1-0.1-0.3,0-0.6c-0.1,0.2-0.2,0.5-0.3,0.5c-0.1,0,0.1-0.5,0.1-0.7
						c-0.1,0.2-0.1-0.1-0.3,0.5c0,0,0.1-0.3,0.1-0.4c-0.2,0.2-0.3-0.1-0.5,0.6l0,0c0,0,0,0,0,0l0,0l0,0c-0.5,0.5-0.3-0.5-0.7-0.4
						l0.1-0.2c-0.2,0.2-0.4,0-0.6,0.3c0,0,0.1-0.4,0.2-0.6c-0.2,0.1-0.3,0.3-0.3-0.1c0.2-0.3,0.1-0.3,0.2-0.2
						c-0.1-0.2,0-0.5-0.3-0.1c0.3-0.4,0.2-0.6,0-0.5l-0.1,0.4c-0.1,0-0.1,0-0.2-0.1l0.3-0.6c0.1-0.8-1.1,1-0.7-0.3
						c-0.3,0.4,0,0.4-0.3,0.8c-0.1-0.1,0.2-1.1,0.2-1.1c0-0.4-0.6,0.8-0.6,0.5c-0.1,0.2-0.4,0.8-0.6,0.9c-0.1-0.1,0.3-1,0.5-1.1
						c0,0,0,0.1,0,0.1c0.1-0.1,0.2-0.1,0.2-0.4l-0.1,0.2c0.1-0.2-0.1-0.3,0.1-0.6c-0.2,0.2-0.2,0.3-0.2,0.5c0-0.4-0.2-0.1-0.3-0.4
						c0,0.1-0.1,0.4-0.2,0.4c-0.1-0.4-0.3,0.3-0.5,0.3c0.1-0.4,0.4-0.7,0.1-0.6c0-0.3,0.3-0.6,0.4-0.7c-0.4,0.3-0.1-0.4-0.1-0.5
						l0.2-0.1c-0.1,0.1-0.1,0.1-0.2,0l-0.2,0.4c0-0.1,0-0.1,0.1-0.3c-0.2,0.2-0.4,0.7-0.7,1c0.1-0.2-0.3,0.1,0-0.4
						c0.1,0.3,0.3-0.6,0.5-0.6c-0.1,0-0.1,0-0.1-0.1c0-0.1,0.1-0.1,0.1-0.1c0.1-0.6-0.4,0.6-0.6,0.5c0.2-0.3,0.3-0.6,0.2-0.6
						c0.1,0-0.3,0.5-0.5,0.7c0-0.3-0.2,0.1-0.3,0l0,0.2c-0.2,0.3-0.2,0.2-0.4,0.3c0.1-0.2,0.2-0.1,0.2-0.2c-0.4,0.5,0.1-0.7-0.2-0.4
						c0.1-0.2,0.3-0.6,0.4-0.7c-0.4,0.3,0.1-0.5-0.2-0.3c-0.2,0.4-0.1,0.3-0.5,0.7l0.4-0.1l-0.5,0.5c0.1,0.1,0.3-0.2,0.3-0.1
						c-0.3,0.3-0.2,0.2-0.4,0.5c0.3-0.7-0.4,0.2-0.3-0.3l0.6-1c0.1-0.5-0.6,0.3-0.7-0.1l0,0.2c-0.3,0.4-0.2,0-0.3,0.1
						c0.2-0.3,0.3-0.5,0.4-0.7c-0.2,0.2-0.1-0.1-0.6,0.5l0.2-0.5c0-0.3-0.8,0.8-0.9,0.6c0.3-0.3,0.4-0.6,0.7-0.8
						c-0.1,0-0.1-0.1-0.2,0.1c0.1-0.2-0.5,0.3-0.3,0c-0.1,0.1-0.4,0.5-0.4,0.4c0-0.1,0.1-0.2,0.1-0.2c-0.1,0.2-0.3,0.1-0.5,0.5
						c0.6-1.1-0.5-0.3,0-1.2c-0.2,0-0.4,0-0.5,0c0.1-0.1,0.1-0.2,0.1-0.1c0.2-0.3-0.8,0.8-0.7,0.4c0.4-0.5,0.3-0.2,0.4-0.4
						c0.9-0.9-0.3,0,0.3-0.5l0.1,0c0.3-0.3-0.5,0.2-0.5,0.1c0,0,0.1-0.1,0.2-0.1c-0.6,0.3-1,0.3-1.2,0.3c0.5-0.2,0.3-0.1,0.8-0.3
						c-0.1,0-0.8,0.4-1,0.3c0.3-0.2,0.5-0.3,1-0.5l0.1,0.1c0.7-0.3-0.1-0.1,0-0.1l0.3-0.1c-0.2,0-1,0.2-1,0l-0.3,0.1
						c-0.9,0.1,0.5-0.2-0.2-0.1l0.9-0.1c-0.2,0-1-0.1-1.2-0.2c0.7,0.1,1.1,0.2,1.5,0.2c0,0-0.1-0.1-0.6-0.1c0.1,0,0.3,0,0.2,0.1
						c-0.8,0-1.1-0.2-1.1-0.3c0.9,0.1,1,0,1.1,0c0.1-0.1,0.1-0.1,0.8,0c-0.3-0.1-0.2-0.2,0-0.2c0.2,0,0.4,0,0.4,0
						c-1.2-0.5,0,0-1.2-0.6c0-0.1,0-0.1,0.1,0c0.3,0.1,0.5,0.2,0.8,0.3c0.3,0.2,0.2,0.2,0.5,0.3c0.1,0,0.5,0.3,0.7,0.5
						c-0.4-0.3-0.5-0.4-0.4-0.3c-0.2-0.1-0.3-0.2-0.5-0.3c-0.4-0.5,0.8,0.6,0.4,0.2l0.3,0.3c-0.1-0.1-0.1-0.1-0.1-0.2
						c0-0.1,0-0.4-0.3-0.8c0.1,0.1,0.3,0.3,0.4,0.4c0.3-0.1-0.1-1.3,0.4-1l0.2,0.2c0-0.1-0.3-0.5,0-0.3c0.1,0.1,0.2,0.2,0.2,0.2
						c0-0.1-0.2-0.5,0-0.4l0.2,0.3c0.5,0.1-0.2-0.9-0.1-1.3c0.6,0.7,0.9,0.7,1.1,0.8l0.1,0.1c0.3-0.2,0-1,0-1.4
						c0.8,0.6,0.8-0.1,1.4,0c-0.1-0.1-0.4-0.5-0.5-0.6c0.2,0.1-0.2-0.6,0.3,0l0,0c0.6,0.6,0.5,0.3,0.7,0.2l-0.7-0.8
						c1.2,1,0.3-1,1.3-0.1c-0.1-0.3,0-0.3-0.1-0.6l0.4,0.4c0.3,0,0.4,0,0.5-0.3l0.2,0.3c0.1-0.1-0.9-1.4-0.8-1.5l0.6,0.6
						c0.2-0.2,0.9,0.2,0.6-0.5c0.1,0.1,0.2,0.3,0.2,0.3c0.1-0.1,0.7,0.1,0-0.7c0.5,0.6,0.3-0.1,0.2-0.5l0.3,0.4
						c-0.4-0.6-0.5-0.8-0.5-1c0.1,0,0.3,0.3,0.2,0.2c0.3,0.1-0.3-0.5,0.1-0.3l0.2,0.3c0.1-0.1,0-0.2-0.2-0.6
						c-0.1-0.2,0.3-0.1,0.6,0.3c-0.2-0.2-0.4-0.6-0.2-0.5c0.1,0.1,0.2,0.2,0.2,0.3c0.4,0.1-0.2-0.7,0.3-0.4c0.1,0.1,0.2,0.2,0.2,0.2
						c-0.1,0.1-0.3,0.2-0.3,0.1c0.3,0.4,0.5,0.4,0.9,1c-0.2-0.4-0.6-1.1-0.3-1.1c0,0,0.1,0.1,0.1,0.1l0,0.1c0.1,0,0.1,0,0-0.1
						c0.1,0,0.2,0.1,0.2,0c0.3,0.3,0.3,0.1,0.3,0c-0.4-0.4-0.2-0.4-0.6-0.7c0,0,0,0.1,0,0.1c0,0,0,0,0,0.1l0,0c0,0-0.1,0.1-0.1,0.1
						c-0.1-0.3-0.3-0.5,0-0.3c-0.2-0.3-0.4-0.6-0.5-0.8c0.6,0.5,1,0.7,1.3,1.1c0-0.4,0.3-0.5-0.3-1.4c0-0.1,0.3,0.2,0.4,0.3
						c0,0.1,0,0.1,0.1,0.2c-0.1-0.3,0.2-0.3-0.2-0.9c0.3,0.1,0.4,0.6,0.5,0.3l0.1,0.2c1.1,0.6-0.7-1.9,0.7-1.1
						c-0.1,0-0.1-0.1-0.2-0.2c0.9,0.2,0.5-1.2,1.6-0.8c0.3,0.1,0-0.3-0.2-0.6l0.4,0.4l-0.3-0.6c-0.2-0.5,1.3,0.9,0.9-0.1l-0.3-0.3
						c0.1,0,0.1-0.4,0.4,0c0-0.1-0.2-0.3-0.1-0.2l0.2,0.2l-0.2-0.6c0.3,0,0.8,1,1,0.8c0-0.2-0.4-0.9-0.5-1c0,0-0.2-0.1-0.4-0.3
						l0-0.2c-0.6-0.7-1.2-1.5-1.8-1.8l0.2,0.5l-0.3-0.3l0.1-0.1c-0.3-0.3-0.1,0,0,0.3c-0.2-0.2-0.3-0.3-0.4-0.3l0.5,0.8
						c-0.3-0.3-0.4-0.6-0.6-0.7c0.2,0.4,0.6,0.6,0.7,0.9c-0.3-0.3-0.5-0.5-0.4-0.2c-0.2-0.2-0.2-0.3-0.3-0.4
						c0.1,0.3-0.1,0.2,0.2,0.6c-0.4-0.3-0.1,0.3-0.7-0.4c0.1,0.2,0.3,0.6,0.3,0.7c-0.6-0.9-0.3,0.1-1-0.7c0.5,0.8,0,0.6,0.2,1.1
						c0-0.1-0.1-0.2-0.1-0.2c-0.1,0-0.3-0.2-0.5-0.3c0.5,0.6,0.5,0.8,0.7,1.3c-0.6-0.5-0.5-0.8-1-1.3c0.4,0.5,0.2,0.6,0.6,1
						c-0.4-0.3-0.2-0.1-0.7-0.6c0.6,0.8,0,0.2,0.4,0.7c-0.4-0.3-0.6-0.7-0.5-0.3C130.6,161,130.5,160.7,130.5,160.7z M128.8,164.4
						C128.8,164.4,128.8,164.4,128.8,164.4C128.8,164.3,128.8,164.3,128.8,164.4C128.8,164.3,128.8,164.3,128.8,164.4z M128.6,164.6
						c0,0,0.1,0,0.1-0.1c0.1,0.1,0.3,0.3,0.2,0.3C128.8,164.7,128.7,164.7,128.6,164.6z M131.6,167.1c0,0.1-0.1,0-0.1-0.1
						c0,0,0-0.1,0-0.1l0-0.1C131.5,167,131.5,167.1,131.6,167.1z"/>
					<path class="st0" d="M131.2,166.5C131.2,166.5,131.2,166.5,131.2,166.5c-0.1-0.1-0.1-0.1-0.1-0.1L131.2,166.5L131.2,166.5z"/>
					<path class="st0" d="M131,181.9L131,181.9C131,181.9,130.9,181.9,131,181.9C130.9,181.9,131,181.9,131,181.9z"/>
					<polygon class="st0" points="124.6,166.5 124.7,166.6 124.6,166.5 					"/>
					<path class="st0" d="M131.9,184.3c0,0,0,0.1,0,0.1C131.9,184.4,131.9,184.4,131.9,184.3z"/>
					<path class="st0" d="M132.6,184.7l0,0.2C132.6,184.8,132.6,184.7,132.6,184.7z"/>
					<path class="st0" d="M133.1,185.1c0-0.1,0.1-0.2,0.1-0.2l0,0L133.1,185.1z"/>
					<path class="st0" d="M124.2,181.9C124.2,181.9,124.1,181.9,124.2,181.9C124,181.9,124.1,181.9,124.2,181.9z"/>
					<path class="st0" d="M127.2,182.1c-0.1,0.1-0.1,0.2-0.2,0.2C127.1,182.3,127.1,182.3,127.2,182.1z"/>
					<polygon class="st0" points="121.1,180.6 121.1,180.6 121.1,180.6 					"/>
					<path class="st0" d="M126.9,182.2c0,0.1,0,0.1,0.1,0.1C127,182.2,127,182.1,126.9,182.2z"/>
					<path class="st0" d="M135.5,186L135.5,186C135.5,186,135.5,186,135.5,186L135.5,186z"/>
					<path class="st0" d="M135.5,185.9L135.5,185.9C135.5,185.9,135.5,185.9,135.5,185.9z"/>
					<path class="st0" d="M135.7,185.8l-0.1,0.1C135.6,185.9,135.6,185.9,135.7,185.8z"/>
					<path class="st0" d="M134.8,185.6l-0.1,0.2C134.7,185.7,134.7,185.7,134.8,185.6z"/>
					<path class="st0" d="M134.5,185.6c0,0.1,0,0.5,0.1,0.4l0-0.2C134.6,186,134.7,185.2,134.5,185.6z"/>
					<path class="st0" d="M134.3,182.9l0.1,0.2c0-0.2,0.1-0.5,0.2-0.5C134.5,181.9,134.5,183,134.3,182.9z"/>
					<path class="st0" d="M133.8,182.4c0.1-0.1,0.1-0.3,0.1-0.4C133.8,182.2,133.8,182.2,133.8,182.4z"/>
					<path class="st0" d="M129.9,181l0.2-0.5C130.1,180.6,130.1,180.7,129.9,181z"/>
					<polygon class="st0" points="128.1,183.1 128,183.4 128.3,183 					"/>
					<polygon class="st0" points="129.2,179.6 129.3,179.5 129.1,179.6 					"/>
					<path class="st0" d="M123.4,176.2l-0.4,0.5C123.1,176.6,123.6,176.1,123.4,176.2z"/>
					<path class="st0" d="M121.6,175.3c0.4-0.1,0.6-0.2,0.2-0.1C121.8,175.3,121.5,175.3,121.6,175.3z"/>
					<polygon class="st0" points="127.3,170.9 127.3,171.1 127.3,170.9 					"/>
				</g>
			</g>
		</g>
	</g>
</g>
<rect x="118.9" y="26.8" transform="matrix(0.1192 -0.9929 0.9929 0.1192 65.6395 204.711)" class="st1" width="58.5" height="77.1"/>
<text transform="matrix(0.9929 0.1192 -0.1192 0.9929 118.8348 39.4014)"><tspan x="0" y="0" class="st2 st3 st4">When you are </tspan><tspan x="-0.2" y="13.6" class="st2 st3 st4">done, tap the </tspan><tspan x="10.9" y="27.2" class="st2 st3 st4">DEPOSIT </tspan><tspan x="14.8" y="40.8" class="st2 st3 st4">button</tspan></text>
</svg>
