
<svg xmlns="http://www.w3.org/2000/svg" version="1.1" xmlns:xlink="http://www.w3.org/1999/xlink" preserveAspectRatio="none" x="0px" y="0px" width="80px" height="80px" viewBox="0 0 80 80">
<defs>
<g id="Layer1_0_FILL">
<path fill="#000000" stroke="none" d="
M 70.85 40.05
Q 70.85 27.3 61.8 18.25 52.75 9.2 40 9.2 27.25 9.2 18.15 18.25 9.2 27.3 9.2 40.05 9.2 52.8 18.15 61.8 27.25 70.85 40 70.85 52.75 70.85 61.8 61.8 70.85 52.8 70.85 40.05 Z"/>
</g>

<g id="Layer0_0_STROKES_1_FILL">
<path fill="#FFFFFF" stroke="none" d="
M 49.65 48.1
L 49.65 44.45 36.95 44.45 36.95 41.25 24.4 46.3 36.95 51.3 36.95 48.1 49.65 48.1 Z"/>
</g>

<path id="Layer1_0_1_STROKES" stroke="#FFFFFF" stroke-width="3" stroke-linejoin="round" stroke-linecap="round" fill="none" d="
M 70.85 40.05
Q 70.85 52.8 61.8 61.8 52.75 70.85 40 70.85 27.25 70.85 18.15 61.8 9.2 52.8 9.2 40.05 9.2 27.3 18.15 18.25 27.25 9.2 40 9.2 52.75 9.2 61.8 18.25 70.85 27.3 70.85 40.05 Z"/>

<path id="Layer0_0_1_STROKES" stroke="#FFFFFF" stroke-width="3" stroke-linejoin="round" stroke-linecap="round" fill="none" d="
M 49.65 31.75
L 49.65 46.3 49.65 46.55"/>
</defs>

<g transform="matrix( 1, 0, 0, 1, 0,0) ">
<use xlink:href="#Layer1_0_FILL"/>

<use xlink:href="#Layer1_0_1_STROKES"/>
</g>

<g transform="matrix( 1, 0, 0, 1, 0,0) ">
<use xlink:href="#Layer0_0_1_STROKES"/>

<use xlink:href="#Layer0_0_STROKES_1_FILL"/>
</g>
</svg>
