
<svg xmlns="http://www.w3.org/2000/svg" version="1.1" xmlns:xlink="http://www.w3.org/1999/xlink" preserveAspectRatio="none" x="0px" y="0px" width="312px" height="43px" viewBox="0 0 312 43">
<defs>
<g id="Symbol_1_0_Layer1_0_FILL">
<path fill="#FFFFFF" stroke="none" d="
M 552.2 263.5
L 552.2 259.4 249.6 259.4 249.6 263.5 245.5 263.5 245.5 296.85 249.6 296.85 249.6 300.95 552.2 300.95 552.2 296.85 556.3 296.85 556.3 263.5 552.2 263.5 Z"/>
</g>

<g id="Symbol_1_0_Layer1_2_FILL">
<path fill="#FFFFFF" stroke="none" d="
M 548.55 267.05
L 548.55 262.95 253.2 262.95 253.2 267.05 249.1 267.05 249.1 293.3 253.2 293.3 253.2 297.4 548.55 297.4 548.55 293.3 552.65 293.3 552.65 267.05 548.55 267.05 Z"/>
</g>

<g id="Symbol_1_0_Layer0_0_FILL">
<path fill="#000000" stroke="none" d="
M 251.9 21.75
Q 252.35 21.5 253.05 21.45
L 254.5 21.45 254.5 32.85
Q 254.5 33.55 254.3 33.95 254.1 34.35 253.85 34.5
L 253.9 35 258.4 35 258.45 34.5
Q 258.25 34.35 258 33.95 257.85 33.55 257.8 32.85
L 257.8 21.45 259.25 21.45
Q 259.95 21.5 260.4 21.75 260.85 22 261 22.2
L 261.45 22.15 261.2 18.5 251.15 18.5 250.85 22.15 251.35 22.2
Q 251.45 22 251.9 21.75
M 247.9 20.65
Q 247.9 19.95 248.1 19.55 248.3 19.15 248.55 19
L 248.45 18.5 244.3 18.5 244.25 19
Q 244.5 19.15 244.7 19.55 244.9 19.95 244.9 20.65
L 244.9 25.2
Q 243.95 24 243.05 23 242.15 22.05 241.55 21.15 240.95 20.3 240.95 19.45 240.95 19.2 241.05 19.1 241.15 19 241.25 19
L 241.2 18.5 237.4 18.5 237.3 19
Q 237.55 19.15 237.75 19.55 237.95 19.95 238 20.65
L 238 32.85
Q 237.95 33.55 237.75 33.95 237.55 34.35 237.3 34.5
L 237.4 35 241.55 35 241.6 34.5
Q 241.35 34.35 241.15 33.95 240.95 33.55 240.95 32.85
L 240.95 25.9
Q 241.9 27 242.8 28.1 243.7 29.2 244.3 30.4 244.9 31.6 244.9 33 244.9 33.7 244.7 34.05 244.5 34.4 244.25 34.5
L 244.3 35 248.45 35 248.55 34.5
Q 248.3 34.4 248.1 34.05 247.9 33.75 247.9 33.05
L 247.9 20.65
M 225.7 19
Q 225.95 19.1 226.15 19.55 226.35 19.95 226.4 20.65
L 226.4 32.85
Q 226.35 33.55 226.15 33.95 225.95 34.4 225.7 34.5
L 225.8 35 234.7 35 235 31.35 234.5 31.3
Q 234.35 31.5 233.9 31.75 233.45 32 232.8 32.05
L 229.7 32.05 229.7 27.95 230.85 27.95
Q 231.55 28 231.9 28.25 232.25 28.5 232.4 28.75
L 232.9 28.65 232.9 24.3 232.4 24.25
Q 232.25 24.5 231.9 24.75 231.55 25 230.85 25
L 229.7 25 229.7 21.45 232.8 21.45
Q 233.45 21.5 233.9 21.75 234.35 22 234.5 22.2
L 235 22.15 234.7 18.5 225.8 18.5 225.7 19
M 223.05 19
L 223 18.5 218 18.5 215.45 26.4 212.85 18.5 208.2 18.5 208.1 19
Q 208.35 19.15 208.55 19.55 208.75 19.95 208.8 20.65
L 208.8 32.85
Q 208.75 33.55 208.55 33.95 208.35 34.35 208.1 34.5
L 208.2 35 212.35 35 212.4 34.5
Q 212.15 34.35 211.95 33.95 211.75 33.55 211.75 32.85
L 211.75 23.85 215.05 33.35 215.85 33.35 219.1 23.95 219.1 32.85
Q 219.1 33.55 218.9 33.95 218.7 34.35 218.45 34.5
L 218.5 35 223 35 223.05 34.5
Q 222.85 34.35 222.6 33.95 222.45 33.55 222.4 32.85
L 222.4 20.65
Q 222.45 19.95 222.6 19.55 222.85 19.15 223.05 19
M 203.7 24.3
L 203.2 24.25
Q 203.05 24.5 202.7 24.75 202.35 25 201.65 25
L 200.5 25 200.5 21.45 203.6 21.45
Q 204.25 21.5 204.7 21.75 205.15 22 205.3 22.2
L 205.8 22.15 205.5 18.5 196.6 18.5 196.5 19
Q 196.75 19.1 196.95 19.55 197.15 19.95 197.2 20.65
L 197.2 32.85
Q 197.15 33.55 196.95 33.95 196.75 34.4 196.5 34.5
L 196.6 35 205.5 35 205.8 31.35 205.3 31.3
Q 205.15 31.5 204.7 31.75 204.25 32 203.6 32.05
L 200.5 32.05 200.5 27.95 201.65 27.95
Q 202.35 28 202.7 28.25 203.05 28.5 203.2 28.75
L 203.7 28.65 203.7 24.3
M 190.55 21.45
L 192 21.45
Q 192.7 21.5 193.15 21.75 193.6 22 193.75 22.2
L 194.2 22.15 193.95 18.5 183.9 18.5 183.6 22.15 184.1 22.2
Q 184.2 22 184.65 21.75 185.1 21.5 185.8 21.45
L 187.25 21.45 187.25 32.85
Q 187.25 33.55 187.05 33.95 186.85 34.35 186.6 34.5
L 186.65 35 191.15 35 191.2 34.5
Q 191 34.35 190.75 33.95 190.6 33.55 190.55 32.85
L 190.55 21.45
M 179.1 18.45
L 173.35 18.45 173.3 18.95
Q 173.5 19.05 173.7 19.35 173.9 19.7 173.8 20.2
L 171.2 33.55
Q 171.1 33.9 170.9 34.15 170.65 34.4 170.45 34.5
L 170.55 35 174.75 35 174.85 34.5
Q 174.5 34.5 174.4 34.1 174.25 33.7 174.35 33.1
L 174.6 31.8 178.2 31.2 178.55 33.1
Q 178.65 33.8 178.45 34.1 178.3 34.4 178.1 34.5
L 178.15 35 182.7 35 182.75 34.5
Q 182.55 34.4 182.35 34.2 182.1 33.95 182 33.55
L 179.1 18.45
M 177.75 28.6
L 175.1 28.95 176.45 21.3 177.75 28.6
M 169.2 22.2
L 169.65 22.15 169.4 18.5 159.35 18.5 159.05 22.15 159.55 22.2
Q 159.65 22 160.1 21.75 160.55 21.5 161.25 21.45
L 162.7 21.45 162.7 32.85
Q 162.7 33.55 162.5 33.95 162.3 34.35 162.05 34.5
L 162.1 35 166.6 35 166.65 34.5
Q 166.45 34.35 166.2 33.95 166.05 33.55 166 32.85
L 166 21.45 167.45 21.45
Q 168.15 21.5 168.6 21.75 169.05 22 169.2 22.2
M 150.6 18.8
Q 149.45 19.4 148.85 20.45 148.2 21.5 148.2 22.8 148.25 24.25 149.1 25.25 149.95 26.2 151.45 27 152.8 27.7 153.55 28.5 154.3 29.3 154.3 30.3 154.3 31.1 153.8 31.7 153.25 32.35 152.2 32.35 150.9 32.35 150.05 31.4 149.15 30.45 148.75 28.9
L 148.1 28.9 148.1 35 148.65 35.05
Q 148.8 34.8 149.2 34.75 149.6 34.7 150.25 34.9 150.7 35.1 151.15 35.2 151.65 35.3 152.2 35.3 153.75 35.3 154.95 34.6 156.15 33.9 156.85 32.7 157.6 31.5 157.6 30 157.55 28.2 156.6 27 155.65 25.7 154.15 24.95 152.8 24.2 152.15 23.7 151.5 23.2 151.5 22.5 151.5 21.9 151.9 21.55 152.35 21.15 153.3 21.15 154.2 21.15 154.9 21.55 155.6 21.95 155.95 22.85
L 156.35 22.85 156.35 18.25 155.85 18.2
Q 155.8 18.25 155.7 18.3 155.55 18.35 155.35 18.35 155 18.35 154.5 18.25 154 18.2 153.45 18.2 151.8 18.2 150.6 18.8
M 130 21.75
Q 130.45 21.5 131.15 21.45
L 132.6 21.45 132.6 32.85
Q 132.6 33.55 132.4 33.95 132.2 34.35 131.95 34.5
L 132 35 136.5 35 136.55 34.5
Q 136.35 34.35 136.1 33.95 135.95 33.55 135.9 32.85
L 135.9 21.45 137.35 21.45
Q 138.05 21.5 138.5 21.75 138.95 22 139.1 22.2
L 139.55 22.15 139.3 18.5 129.25 18.5 128.95 22.15 129.45 22.2
Q 129.55 22 130 21.75
M 126 20.65
Q 126 19.95 126.2 19.55 126.4 19.15 126.65 19
L 126.55 18.5 122.4 18.5 122.35 19
Q 122.6 19.15 122.8 19.55 123 19.95 123 20.65
L 123 25.2
Q 122.05 24 121.15 23 120.25 22.05 119.65 21.15 119.05 20.3 119.05 19.45 119.05 19.2 119.15 19.1 119.25 19 119.35 19
L 119.3 18.5 115.5 18.5 115.4 19
Q 115.65 19.15 115.85 19.55 116.05 19.95 116.1 20.65
L 116.1 32.85
Q 116.05 33.55 115.85 33.95 115.65 34.35 115.4 34.5
L 115.5 35 119.65 35 119.7 34.5
Q 119.45 34.35 119.25 33.95 119.05 33.55 119.05 32.85
L 119.05 25.9
Q 120 27 120.9 28.1 121.8 29.2 122.4 30.4 123 31.6 123 33 123 33.7 122.8 34.05 122.6 34.4 122.35 34.5
L 122.4 35 126.55 35 126.65 34.5
Q 126.4 34.4 126.2 34.05 126 33.75 126 33.05
L 126 20.65
M 106.15 18.5
L 101.65 18.5 101.55 19
Q 101.8 19.15 102 19.55 102.2 19.95 102.25 20.65
L 102.25 29.7
Q 102.2 30.35 102 30.65 101.8 30.95 101.55 31.05
L 101.65 31.55
Q 101.95 31.55 102.3 32.05 102.7 32.6 103.25 33.35 103.9 34.3 104.9 34.8 105.95 35.3 107.2 35.3 108.4 35.3 109.45 34.8 110.5 34.3 111.15 33.35 111.65 32.6 112.05 32.05 112.4 31.55 112.7 31.55
L 112.8 31.05
Q 112.55 30.95 112.35 30.65 112.15 30.35 112.15 29.7
L 112.15 20.65
Q 112.15 19.95 112.35 19.55 112.55 19.15 112.8 19
L 112.7 18.5 108.55 18.5 108.5 19
Q 108.75 19.15 108.95 19.55 109.15 19.95 109.15 20.65
L 109.15 30.4
Q 109.15 31.35 108.6 31.85 108.1 32.35 107.35 32.35 106.6 32.35 106.1 31.85 105.55 31.35 105.55 30.4
L 105.55 20.65
Q 105.55 19.95 105.75 19.55 105.95 19.15 106.2 19
L 106.15 18.5
M 90.15 19.2
Q 88.75 20.15 88 22.05 87.25 24 87.2 26.75 87.25 29.5 88 31.45 88.75 33.35 90.15 34.3 91.5 35.3 93.35 35.3 95.15 35.3 96.5 34.3 97.85 33.35 98.65 31.45 99.4 29.5 99.4 26.75 99.4 24 98.65 22.05 97.85 20.15 96.5 19.2 95.15 18.2 93.35 18.2 91.5 18.2 90.15 19.2
M 91.45 22.55
Q 92.15 21.15 93.35 21.15 94.5 21.15 95.2 22.55 95.9 23.95 95.95 26.75 95.9 29.55 95.2 30.95 94.5 32.35 93.35 32.35 92.15 32.35 91.45 30.95 90.7 29.6 90.7 26.75 90.7 23.9 91.45 22.55
M 83 18.35
Q 82.5 18.2 81.65 18.2 79.8 18.2 78.25 19.2 76.75 20.15 75.8 22.05 74.9 24 74.85 26.75 74.9 29.5 75.8 31.45 76.75 33.35 78.25 34.3 79.8 35.3 81.65 35.3 82.85 35.3 83.75 34.85 84.65 34.35 85.4 33.35
L 85.45 30.2 84.75 30.2
Q 84.45 31 83.65 31.65 82.85 32.35 81.65 32.35 80.2 32.35 79.3 30.95 78.35 29.6 78.35 26.75 78.35 24.85 78.85 23.6 79.35 22.35 80.15 21.75 81 21.15 81.9 21.15 82.85 21.15 83.6 21.75 84.4 22.3 84.75 23.5
L 85.4 23.5 85.4 18.25 84.75 18.2
Q 84.6 18.35 84.4 18.45 84.2 18.55 83.95 18.55 83.5 18.55 83 18.35
M 66.5 23.6
Q 67 22.35 67.8 21.75 68.65 21.15 69.55 21.15 70.5 21.15 71.25 21.75 72.05 22.3 72.4 23.5
L 73.05 23.5 73.05 18.25 72.4 18.2
Q 72.25 18.35 72.05 18.45 71.85 18.55 71.6 18.55 71.15 18.55 70.65 18.35 70.15 18.2 69.3 18.2 67.45 18.2 65.9 19.2 64.4 20.15 63.45 22.05 62.55 24 62.5 26.75 62.55 29.5 63.45 31.45 64.4 33.35 65.9 34.3 67.45 35.3 69.3 35.3 70.5 35.3 71.4 34.85 72.3 34.35 73.05 33.35
L 73.1 30.2 72.4 30.2
Q 72.1 31 71.3 31.65 70.5 32.35 69.3 32.35 67.85 32.35 66.95 30.95 66 29.6 66 26.75 66 24.85 66.5 23.6
M 57.95 18.45
L 52.2 18.45 52.15 18.95
Q 52.35 19.05 52.55 19.35 52.75 19.7 52.65 20.2
L 50.05 33.55
Q 49.95 33.9 49.75 34.15 49.5 34.4 49.3 34.5
L 49.4 35 53.6 35 53.7 34.5
Q 53.35 34.5 53.25 34.1 53.1 33.7 53.2 33.1
L 53.45 31.8 57.05 31.2 57.4 33.1
Q 57.5 33.8 57.3 34.1 57.15 34.4 56.95 34.5
L 57 35 61.55 35 61.6 34.5
Q 61.4 34.4 61.2 34.2 60.95 33.95 60.85 33.55
L 57.95 18.45
M 56.6 28.6
L 53.95 28.95 55.3 21.3 56.6 28.6 Z"/>
</g>

<path id="flash0_ai_Layer_1__Clip_Group__0_Layer1_0_1_STROKES" stroke="#000000" stroke-width="1" stroke-linejoin="miter" stroke-linecap="butt" stroke-miterlimit="4" fill="none" d="
M 4.65 0.5
L 4.65 4.6 0.5 4.6 0.5 37.95 4.65 37.95 4.65 42.05 307.25 42.05 307.25 37.95 311.35 37.95 311.35 4.6 307.25 4.6 307.25 0.5 4.65 0.5 Z"/>

<path id="Symbol_1_0_Layer1_3_1_STROKES" stroke="#000000" stroke-width="0.3" stroke-linejoin="miter" stroke-linecap="butt" stroke-miterlimit="4" fill="none" d="
M 7.75 8.55
L 7.75 12.65 3.65 12.65 3.65 38.9 7.75 38.9 7.75 43 303.1 43 303.1 38.9 307.2 38.9 307.2 12.65 303.1 12.65 303.1 8.55 7.75 8.55 Z"/>
</defs>

<g transform="matrix( 0.9988250732421875, 0, 0, 1.0052947998046875, 0.75,-4.4) ">
<g transform="matrix( 1, 0, 0, 1, -245.45,-254.4) ">
<use xlink:href="#Symbol_1_0_Layer1_0_FILL"/>
</g>

<g transform="matrix( 1, 0, 0, 1, -0.5,4.5) ">
<g transform="matrix( 1, 0, 0, 1, 0,0) ">
<use xlink:href="#flash0_ai_Layer_1__Clip_Group__0_Layer1_0_1_STROKES"/>
</g>
</g>

<g transform="matrix( 1, 0, 0, 1, -245.45,-254.4) ">
<use xlink:href="#Symbol_1_0_Layer1_2_FILL"/>
</g>

<g transform="matrix( 1, 0, 0, 1, 0,0) ">
<use xlink:href="#Symbol_1_0_Layer1_3_1_STROKES"/>
</g>

<g transform="matrix( 1, 0, 0, 1, 0,0) ">
<use xlink:href="#Symbol_1_0_Layer0_0_FILL"/>
</g>
</g>
</svg>
