
<svg xmlns="http://www.w3.org/2000/svg" version="1.1" xmlns:xlink="http://www.w3.org/1999/xlink" preserveAspectRatio="none" x="0px" y="0px" width="313px" height="73px" viewBox="0 0 313 73">
<defs>
<g id="Symbol_1_0_Layer1_0_FILL">
<path fill="#FFFFFF" stroke="none" d="
M 471.9 209.05
L 471.9 204.95 169.35 204.95 169.35 209.05 165.25 209.05 165.25 271.1 169.35 271.1 169.35 275.2 471.9 275.2 471.9 271.1 476 271.1 476 209.05 471.9 209.05 Z"/>
</g>

<g id="Symbol_1_0_Layer0_0_STROKES_1_FILL">
<path fill="#000000" stroke="none" d="
M 18.45 23
Q 18.3 22.85 18.1 22.85 17.9 22.85 17.75 23 17.6 23.15 17.6 23.35 17.6 23.55 17.75 23.7 17.9 23.85 18.1 23.85 18.3 23.85 18.45 23.7 18.6 23.55 18.6 23.35 18.6 23.15 18.45 23
M 15.1 22.85
Q 14.9 22.85 14.75 23 14.6 23.15 14.6 23.35 14.6 23.55 14.75 23.7 14.9 23.85 15.1 23.85 15.3 23.85 15.45 23.7 15.6 23.55 15.6 23.35 15.6 23.15 15.45 23 15.3 22.85 15.1 22.85
M 12.45 23
Q 12.3 22.85 12.1 22.85 11.9 22.85 11.75 23 11.6 23.15 11.6 23.35 11.6 23.55 11.75 23.7 11.9 23.85 12.1 23.85 12.3 23.85 12.45 23.7 12.6 23.55 12.6 23.35 12.6 23.15 12.45 23
M 9.45 23
Q 9.3 22.85 9.1 22.85 8.9 22.85 8.75 23 8.6 23.15 8.6 23.35 8.6 23.55 8.75 23.7 8.9 23.85 9.1 23.85 9.3 23.85 9.45 23.7 9.6 23.55 9.6 23.35 9.6 23.15 9.45 23
M 6.45 23
Q 6.3 22.85 6.1 22.85 5.9 22.85 5.75 23 5.6 23.15 5.6 23.35 5.6 23.55 5.75 23.7 5.9 23.85 6.1 23.85 6.3 23.85 6.45 23.7 6.6 23.55 6.6 23.35 6.6 23.15 6.45 23
M 2.75 23
Q 2.6 23.15 2.6 23.35 2.6 23.55 2.75 23.7 2.9 23.85 3.1 23.85 3.3 23.85 3.45 23.7 3.6 23.55 3.6 23.35 3.6 23.15 3.45 23 3.3 22.85 3.1 22.85 2.9 22.85 2.75 23
M 39.45 23
Q 39.3 22.85 39.1 22.85 38.9 22.85 38.75 23 38.6 23.15 38.6 23.35 38.6 23.55 38.75 23.7 38.9 23.85 39.1 23.85 39.3 23.85 39.45 23.7 39.6 23.55 39.6 23.35 39.6 23.15 39.45 23
M 36.45 23
Q 36.3 22.85 36.1 22.85 35.9 22.85 35.75 23 35.6 23.15 35.6 23.35 35.6 23.55 35.75 23.7 35.9 23.85 36.1 23.85 36.3 23.85 36.45 23.7 36.6 23.55 36.6 23.35 36.6 23.15 36.45 23
M 32.6 23.35
Q 32.6 23.55 32.75 23.7 32.9 23.85 33.1 23.85 33.3 23.85 33.45 23.7 33.6 23.55 33.6 23.35 33.6 23.15 33.45 23 33.3 22.85 33.1 22.85 32.9 22.85 32.75 23 32.6 23.15 32.6 23.35
M 30.1 22.85
Q 29.9 22.85 29.75 23 29.6 23.15 29.6 23.35 29.6 23.55 29.75 23.7 29.9 23.85 30.1 23.85 30.3 23.85 30.45 23.7 30.6 23.55 30.6 23.35 30.6 23.15 30.45 23 30.3 22.85 30.1 22.85
M 27.45 23
Q 27.3 22.85 27.1 22.85 26.9 22.85 26.75 23 26.6 23.15 26.6 23.35 26.6 23.55 26.75 23.7 26.9 23.85 27.1 23.85 27.3 23.85 27.45 23.7 27.6 23.55 27.6 23.35 27.6 23.15 27.45 23
M 24.45 23
Q 24.3 22.85 24.1 22.85 23.9 22.85 23.75 23 23.6 23.15 23.6 23.35 23.6 23.55 23.75 23.7 23.9 23.85 24.1 23.85 24.3 23.85 24.45 23.7 24.6 23.55 24.6 23.35 24.6 23.15 24.45 23
M 20.75 23
Q 20.6 23.15 20.6 23.35 20.6 23.55 20.75 23.7 20.9 23.85 21.1 23.85 21.3 23.85 21.45 23.7 21.6 23.55 21.6 23.35 21.6 23.15 21.45 23 21.3 22.85 21.1 22.85 20.9 22.85 20.75 23
M 60.45 23
Q 60.3 22.85 60.1 22.85 59.9 22.85 59.75 23 59.6 23.15 59.6 23.35 59.6 23.55 59.75 23.7 59.9 23.85 60.1 23.85 60.3 23.85 60.45 23.7 60.6 23.55 60.6 23.35 60.6 23.15 60.45 23
M 57.45 23
Q 57.3 22.85 57.1 22.85 56.9 22.85 56.75 23 56.6 23.15 56.6 23.35 56.6 23.55 56.75 23.7 56.9 23.85 57.1 23.85 57.3 23.85 57.45 23.7 57.6 23.55 57.6 23.35 57.6 23.15 57.45 23
M 54.45 23
Q 54.3 22.85 54.1 22.85 53.9 22.85 53.75 23 53.6 23.15 53.6 23.35 53.6 23.55 53.75 23.7 53.9 23.85 54.1 23.85 54.3 23.85 54.45 23.7 54.6 23.55 54.6 23.35 54.6 23.15 54.45 23
M 51.45 23
Q 51.3 22.85 51.1 22.85 50.9 22.85 50.75 23 50.6 23.15 50.6 23.35 50.6 23.55 50.75 23.7 50.9 23.85 51.1 23.85 51.3 23.85 51.45 23.7 51.6 23.55 51.6 23.35 51.6 23.15 51.45 23
M 48.45 23
Q 48.3 22.85 48.1 22.85 47.9 22.85 47.75 23 47.6 23.15 47.6 23.35 47.6 23.55 47.75 23.7 47.9 23.85 48.1 23.85 48.3 23.85 48.45 23.7 48.6 23.55 48.6 23.35 48.6 23.15 48.45 23
M 45.45 23
Q 45.3 22.85 45.1 22.85 44.9 22.85 44.75 23 44.6 23.15 44.6 23.35 44.6 23.55 44.75 23.7 44.9 23.85 45.1 23.85 45.3 23.85 45.45 23.7 45.6 23.55 45.6 23.35 45.6 23.15 45.45 23
M 41.75 23
Q 41.6 23.15 41.6 23.35 41.6 23.55 41.75 23.7 41.9 23.85 42.1 23.85 42.3 23.85 42.45 23.7 42.6 23.55 42.6 23.35 42.6 23.15 42.45 23 42.3 22.85 42.1 22.85 41.9 22.85 41.75 23
M 78.45 23
Q 78.3 22.85 78.1 22.85 77.9 22.85 77.75 23 77.6 23.15 77.6 23.35 77.6 23.55 77.75 23.7 77.9 23.85 78.1 23.85 78.3 23.85 78.45 23.7 78.6 23.55 78.6 23.35 78.6 23.15 78.45 23
M 75.45 23
Q 75.3 22.85 75.1 22.85 74.9 22.85 74.75 23 74.6 23.15 74.6 23.35 74.6 23.55 74.75 23.7 74.9 23.85 75.1 23.85 75.3 23.85 75.45 23.7 75.6 23.55 75.6 23.35 75.6 23.15 75.45 23
M 72.45 23
Q 72.3 22.85 72.1 22.85 71.9 22.85 71.75 23 71.6 23.15 71.6 23.35 71.6 23.55 71.75 23.7 71.9 23.85 72.1 23.85 72.3 23.85 72.45 23.7 72.6 23.55 72.6 23.35 72.6 23.15 72.45 23
M 68.6 23.35
Q 68.6 23.55 68.75 23.7 68.9 23.85 69.1 23.85 69.3 23.85 69.45 23.7 69.6 23.55 69.6 23.35 69.6 23.15 69.45 23 69.3 22.85 69.1 22.85 68.9 22.85 68.75 23 68.6 23.15 68.6 23.35
M 65.6 23.35
Q 65.6 23.55 65.75 23.7 65.9 23.85 66.1 23.85 66.3 23.85 66.45 23.7 66.6 23.55 66.6 23.35 66.6 23.15 66.45 23 66.3 22.85 66.1 22.85 65.9 22.85 65.75 23 65.6 23.15 65.6 23.35
M 62.75 23
Q 62.6 23.15 62.6 23.35 62.6 23.55 62.75 23.7 62.9 23.85 63.1 23.85 63.3 23.85 63.45 23.7 63.6 23.55 63.6 23.35 63.6 23.15 63.45 23 63.3 22.85 63.1 22.85 62.9 22.85 62.75 23
M 99.45 23
Q 99.3 22.85 99.1 22.85 98.9 22.85 98.75 23 98.6 23.15 98.6 23.35 98.6 23.55 98.75 23.7 98.9 23.85 99.1 23.85 99.3 23.85 99.45 23.7 99.6 23.55 99.6 23.35 99.6 23.15 99.45 23
M 96.1 22.85
Q 95.9 22.85 95.75 23 95.6 23.15 95.6 23.35 95.6 23.55 95.75 23.7 95.9 23.85 96.1 23.85 96.3 23.85 96.45 23.7 96.6 23.55 96.6 23.35 96.6 23.15 96.45 23 96.3 22.85 96.1 22.85
M 93.45 23
Q 93.3 22.85 93.1 22.85 92.9 22.85 92.75 23 92.6 23.15 92.6 23.35 92.6 23.55 92.75 23.7 92.9 23.85 93.1 23.85 93.3 23.85 93.45 23.7 93.6 23.55 93.6 23.35 93.6 23.15 93.45 23
M 90.45 23
Q 90.3 22.85 90.1 22.85 89.9 22.85 89.75 23 89.6 23.15 89.6 23.35 89.6 23.55 89.75 23.7 89.9 23.85 90.1 23.85 90.3 23.85 90.45 23.7 90.6 23.55 90.6 23.35 90.6 23.15 90.45 23
M 87.45 23
Q 87.3 22.85 87.1 22.85 86.9 22.85 86.75 23 86.6 23.15 86.6 23.35 86.6 23.55 86.75 23.7 86.9 23.85 87.1 23.85 87.3 23.85 87.45 23.7 87.6 23.55 87.6 23.35 87.6 23.15 87.45 23
M 84.45 23
Q 84.3 22.85 84.1 22.85 83.9 22.85 83.75 23 83.6 23.15 83.6 23.35 83.6 23.55 83.75 23.7 83.9 23.85 84.1 23.85 84.3 23.85 84.45 23.7 84.6 23.55 84.6 23.35 84.6 23.15 84.45 23
M 81.6 23.35
Q 81.6 23.15 81.45 23 81.3 22.85 81.1 22.85 80.9 22.85 80.75 23 80.6 23.15 80.6 23.35 80.6 23.55 80.75 23.7 80.9 23.85 81.1 23.85 81.3 23.85 81.45 23.7 81.6 23.55 81.6 23.35
M 120.45 23
Q 120.3 22.85 120.1 22.85 119.9 22.85 119.75 23 119.6 23.15 119.6 23.35 119.6 23.55 119.75 23.7 119.9 23.85 120.1 23.85 120.3 23.85 120.45 23.7 120.6 23.55 120.6 23.35 120.6 23.15 120.45 23
M 117.45 23
Q 117.3 22.85 117.1 22.85 116.9 22.85 116.75 23 116.6 23.15 116.6 23.35 116.6 23.55 116.75 23.7 116.9 23.85 117.1 23.85 117.3 23.85 117.45 23.7 117.6 23.55 117.6 23.35 117.6 23.15 117.45 23
M 113.6 23.35
Q 113.6 23.55 113.75 23.7 113.9 23.85 114.1 23.85 114.3 23.85 114.45 23.7 114.6 23.55 114.6 23.35 114.6 23.15 114.45 23 114.3 22.85 114.1 22.85 113.9 22.85 113.75 23 113.6 23.15 113.6 23.35
M 111.1 22.85
Q 110.9 22.85 110.75 23 110.6 23.15 110.6 23.35 110.6 23.55 110.75 23.7 110.9 23.85 111.1 23.85 111.3 23.85 111.45 23.7 111.6 23.55 111.6 23.35 111.6 23.15 111.45 23 111.3 22.85 111.1 22.85
M 108.45 23
Q 108.3 22.85 108.1 22.85 107.9 22.85 107.75 23 107.6 23.15 107.6 23.35 107.6 23.55 107.75 23.7 107.9 23.85 108.1 23.85 108.3 23.85 108.45 23.7 108.6 23.55 108.6 23.35 108.6 23.15 108.45 23
M 105.45 23
Q 105.3 22.85 105.1 22.85 104.9 22.85 104.75 23 104.6 23.15 104.6 23.35 104.6 23.55 104.75 23.7 104.9 23.85 105.1 23.85 105.3 23.85 105.45 23.7 105.6 23.55 105.6 23.35 105.6 23.15 105.45 23
M 101.75 23
Q 101.6 23.15 101.6 23.35 101.6 23.55 101.75 23.7 101.9 23.85 102.1 23.85 102.3 23.85 102.45 23.7 102.6 23.55 102.6 23.35 102.6 23.15 102.45 23 102.3 22.85 102.1 22.85 101.9 22.85 101.75 23
M 141.45 23
Q 141.3 22.85 141.1 22.85 140.9 22.85 140.75 23 140.6 23.15 140.6 23.35 140.6 23.55 140.75 23.7 140.9 23.85 141.1 23.85 141.3 23.85 141.45 23.7 141.6 23.55 141.6 23.35 141.6 23.15 141.45 23
M 138.45 23
Q 138.3 22.85 138.1 22.85 137.9 22.85 137.75 23 137.6 23.15 137.6 23.35 137.6 23.55 137.75 23.7 137.9 23.85 138.1 23.85 138.3 23.85 138.45 23.7 138.6 23.55 138.6 23.35 138.6 23.15 138.45 23
M 135.45 23
Q 135.3 22.85 135.1 22.85 134.9 22.85 134.75 23 134.6 23.15 134.6 23.35 134.6 23.55 134.75 23.7 134.9 23.85 135.1 23.85 135.3 23.85 135.45 23.7 135.6 23.55 135.6 23.35 135.6 23.15 135.45 23
M 132.45 23
Q 132.3 22.85 132.1 22.85 131.9 22.85 131.75 23 131.6 23.15 131.6 23.35 131.6 23.55 131.75 23.7 131.9 23.85 132.1 23.85 132.3 23.85 132.45 23.7 132.6 23.55 132.6 23.35 132.6 23.15 132.45 23
M 129.45 23
Q 129.3 22.85 129.1 22.85 128.9 22.85 128.75 23 128.6 23.15 128.6 23.35 128.6 23.55 128.75 23.7 128.9 23.85 129.1 23.85 129.3 23.85 129.45 23.7 129.6 23.55 129.6 23.35 129.6 23.15 129.45 23
M 126.45 23
Q 126.3 22.85 126.1 22.85 125.9 22.85 125.75 23 125.6 23.15 125.6 23.35 125.6 23.55 125.75 23.7 125.9 23.85 126.1 23.85 126.3 23.85 126.45 23.7 126.6 23.55 126.6 23.35 126.6 23.15 126.45 23
M 122.75 23
Q 122.6 23.15 122.6 23.35 122.6 23.55 122.75 23.7 122.9 23.85 123.1 23.85 123.3 23.85 123.45 23.7 123.6 23.55 123.6 23.35 123.6 23.15 123.45 23 123.3 22.85 123.1 22.85 122.9 22.85 122.75 23
M 159.45 23
Q 159.3 22.85 159.1 22.85 158.9 22.85 158.75 23 158.6 23.15 158.6 23.35 158.6 23.55 158.75 23.7 158.9 23.85 159.1 23.85 159.3 23.85 159.45 23.7 159.6 23.55 159.6 23.35 159.6 23.15 159.45 23
M 156.45 23
Q 156.3 22.85 156.1 22.85 155.9 22.85 155.75 23 155.6 23.15 155.6 23.35 155.6 23.55 155.75 23.7 155.9 23.85 156.1 23.85 156.3 23.85 156.45 23.7 156.6 23.55 156.6 23.35 156.6 23.15 156.45 23
M 153.45 23
Q 153.3 22.85 153.1 22.85 152.9 22.85 152.75 23 152.6 23.15 152.6 23.35 152.6 23.55 152.75 23.7 152.9 23.85 153.1 23.85 153.3 23.85 153.45 23.7 153.6 23.55 153.6 23.35 153.6 23.15 153.45 23
M 149.6 23.35
Q 149.6 23.55 149.75 23.7 149.9 23.85 150.1 23.85 150.3 23.85 150.45 23.7 150.6 23.55 150.6 23.35 150.6 23.15 150.45 23 150.3 22.85 150.1 22.85 149.9 22.85 149.75 23 149.6 23.15 149.6 23.35
M 146.6 23.35
Q 146.6 23.55 146.75 23.7 146.9 23.85 147.1 23.85 147.3 23.85 147.45 23.7 147.6 23.55 147.6 23.35 147.6 23.15 147.45 23 147.3 22.85 147.1 22.85 146.9 22.85 146.75 23 146.6 23.15 146.6 23.35
M 143.75 23
Q 143.6 23.15 143.6 23.35 143.6 23.55 143.75 23.7 143.9 23.85 144.1 23.85 144.3 23.85 144.45 23.7 144.6 23.55 144.6 23.35 144.6 23.15 144.45 23 144.3 22.85 144.1 22.85 143.9 22.85 143.75 23
M 180.45 23
Q 180.3 22.85 180.1 22.85 179.9 22.85 179.75 23 179.6 23.15 179.6 23.35 179.6 23.55 179.75 23.7 179.9 23.85 180.1 23.85 180.3 23.85 180.45 23.7 180.6 23.55 180.6 23.35 180.6 23.15 180.45 23
M 177.1 22.85
Q 176.9 22.85 176.75 23 176.6 23.15 176.6 23.35 176.6 23.55 176.75 23.7 176.9 23.85 177.1 23.85 177.3 23.85 177.45 23.7 177.6 23.55 177.6 23.35 177.6 23.15 177.45 23 177.3 22.85 177.1 22.85
M 174.45 23
Q 174.3 22.85 174.1 22.85 173.9 22.85 173.75 23 173.6 23.15 173.6 23.35 173.6 23.55 173.75 23.7 173.9 23.85 174.1 23.85 174.3 23.85 174.45 23.7 174.6 23.55 174.6 23.35 174.6 23.15 174.45 23
M 171.45 23
Q 171.3 22.85 171.1 22.85 170.9 22.85 170.75 23 170.6 23.15 170.6 23.35 170.6 23.55 170.75 23.7 170.9 23.85 171.1 23.85 171.3 23.85 171.45 23.7 171.6 23.55 171.6 23.35 171.6 23.15 171.45 23
M 168.45 23
Q 168.3 22.85 168.1 22.85 167.9 22.85 167.75 23 167.6 23.15 167.6 23.35 167.6 23.55 167.75 23.7 167.9 23.85 168.1 23.85 168.3 23.85 168.45 23.7 168.6 23.55 168.6 23.35 168.6 23.15 168.45 23
M 165.45 23
Q 165.3 22.85 165.1 22.85 164.9 22.85 164.75 23 164.6 23.15 164.6 23.35 164.6 23.55 164.75 23.7 164.9 23.85 165.1 23.85 165.3 23.85 165.45 23.7 165.6 23.55 165.6 23.35 165.6 23.15 165.45 23
M 162.6 23.35
Q 162.6 23.15 162.45 23 162.3 22.85 162.1 22.85 161.9 22.85 161.75 23 161.6 23.15 161.6 23.35 161.6 23.55 161.75 23.7 161.9 23.85 162.1 23.85 162.3 23.85 162.45 23.7 162.6 23.55 162.6 23.35
M 201.45 23
Q 201.3 22.85 201.1 22.85 200.9 22.85 200.75 23 200.6 23.15 200.6 23.35 200.6 23.55 200.75 23.7 200.9 23.85 201.1 23.85 201.3 23.85 201.45 23.7 201.6 23.55 201.6 23.35 201.6 23.15 201.45 23
M 198.45 23
Q 198.3 22.85 198.1 22.85 197.9 22.85 197.75 23 197.6 23.15 197.6 23.35 197.6 23.55 197.75 23.7 197.9 23.85 198.1 23.85 198.3 23.85 198.45 23.7 198.6 23.55 198.6 23.35 198.6 23.15 198.45 23
M 194.6 23.35
Q 194.6 23.55 194.75 23.7 194.9 23.85 195.1 23.85 195.3 23.85 195.45 23.7 195.6 23.55 195.6 23.35 195.6 23.15 195.45 23 195.3 22.85 195.1 22.85 194.9 22.85 194.75 23 194.6 23.15 194.6 23.35
M 192.1 22.85
Q 191.9 22.85 191.75 23 191.6 23.15 191.6 23.35 191.6 23.55 191.75 23.7 191.9 23.85 192.1 23.85 192.3 23.85 192.45 23.7 192.6 23.55 192.6 23.35 192.6 23.15 192.45 23 192.3 22.85 192.1 22.85
M 189.45 23
Q 189.3 22.85 189.1 22.85 188.9 22.85 188.75 23 188.6 23.15 188.6 23.35 188.6 23.55 188.75 23.7 188.9 23.85 189.1 23.85 189.3 23.85 189.45 23.7 189.6 23.55 189.6 23.35 189.6 23.15 189.45 23
M 186.45 23
Q 186.3 22.85 186.1 22.85 185.9 22.85 185.75 23 185.6 23.15 185.6 23.35 185.6 23.55 185.75 23.7 185.9 23.85 186.1 23.85 186.3 23.85 186.45 23.7 186.6 23.55 186.6 23.35 186.6 23.15 186.45 23
M 182.75 23
Q 182.6 23.15 182.6 23.35 182.6 23.55 182.75 23.7 182.9 23.85 183.1 23.85 183.3 23.85 183.45 23.7 183.6 23.55 183.6 23.35 183.6 23.15 183.45 23 183.3 22.85 183.1 22.85 182.9 22.85 182.75 23
M 222.45 23
Q 222.3 22.85 222.1 22.85 221.9 22.85 221.75 23 221.6 23.15 221.6 23.35 221.6 23.55 221.75 23.7 221.9 23.85 222.1 23.85 222.3 23.85 222.45 23.7 222.6 23.55 222.6 23.35 222.6 23.15 222.45 23
M 219.45 23
Q 219.3 22.85 219.1 22.85 218.9 22.85 218.75 23 218.6 23.15 218.6 23.35 218.6 23.55 218.75 23.7 218.9 23.85 219.1 23.85 219.3 23.85 219.45 23.7 219.6 23.55 219.6 23.35 219.6 23.15 219.45 23
M 216.45 23
Q 216.3 22.85 216.1 22.85 215.9 22.85 215.75 23 215.6 23.15 215.6 23.35 215.6 23.55 215.75 23.7 215.9 23.85 216.1 23.85 216.3 23.85 216.45 23.7 216.6 23.55 216.6 23.35 216.6 23.15 216.45 23
M 213.45 23
Q 213.3 22.85 213.1 22.85 212.9 22.85 212.75 23 212.6 23.15 212.6 23.35 212.6 23.55 212.75 23.7 212.9 23.85 213.1 23.85 213.3 23.85 213.45 23.7 213.6 23.55 213.6 23.35 213.6 23.15 213.45 23
M 210.45 23
Q 210.3 22.85 210.1 22.85 209.9 22.85 209.75 23 209.6 23.15 209.6 23.35 209.6 23.55 209.75 23.7 209.9 23.85 210.1 23.85 210.3 23.85 210.45 23.7 210.6 23.55 210.6 23.35 210.6 23.15 210.45 23
M 207.45 23
Q 207.3 22.85 207.1 22.85 206.9 22.85 206.75 23 206.6 23.15 206.6 23.35 206.6 23.55 206.75 23.7 206.9 23.85 207.1 23.85 207.3 23.85 207.45 23.7 207.6 23.55 207.6 23.35 207.6 23.15 207.45 23
M 203.75 23
Q 203.6 23.15 203.6 23.35 203.6 23.55 203.75 23.7 203.9 23.85 204.1 23.85 204.3 23.85 204.45 23.7 204.6 23.55 204.6 23.35 204.6 23.15 204.45 23 204.3 22.85 204.1 22.85 203.9 22.85 203.75 23
M 240.45 23
Q 240.3 22.85 240.1 22.85 239.9 22.85 239.75 23 239.6 23.15 239.6 23.35 239.6 23.55 239.75 23.7 239.9 23.85 240.1 23.85 240.3 23.85 240.45 23.7 240.6 23.55 240.6 23.35 240.6 23.15 240.45 23
M 237.45 23
Q 237.3 22.85 237.1 22.85 236.9 22.85 236.75 23 236.6 23.15 236.6 23.35 236.6 23.55 236.75 23.7 236.9 23.85 237.1 23.85 237.3 23.85 237.45 23.7 237.6 23.55 237.6 23.35 237.6 23.15 237.45 23
M 234.45 23
Q 234.3 22.85 234.1 22.85 233.9 22.85 233.75 23 233.6 23.15 233.6 23.35 233.6 23.55 233.75 23.7 233.9 23.85 234.1 23.85 234.3 23.85 234.45 23.7 234.6 23.55 234.6 23.35 234.6 23.15 234.45 23
M 230.6 23.35
Q 230.6 23.55 230.75 23.7 230.9 23.85 231.1 23.85 231.3 23.85 231.45 23.7 231.6 23.55 231.6 23.35 231.6 23.15 231.45 23 231.3 22.85 231.1 22.85 230.9 22.85 230.75 23 230.6 23.15 230.6 23.35
M 227.6 23.35
Q 227.6 23.55 227.75 23.7 227.9 23.85 228.1 23.85 228.3 23.85 228.45 23.7 228.6 23.55 228.6 23.35 228.6 23.15 228.45 23 228.3 22.85 228.1 22.85 227.9 22.85 227.75 23 227.6 23.15 227.6 23.35
M 224.75 23
Q 224.6 23.15 224.6 23.35 224.6 23.55 224.75 23.7 224.9 23.85 225.1 23.85 225.3 23.85 225.45 23.7 225.6 23.55 225.6 23.35 225.6 23.15 225.45 23 225.3 22.85 225.1 22.85 224.9 22.85 224.75 23
M 261.45 23
Q 261.3 22.85 261.1 22.85 260.9 22.85 260.75 23 260.6 23.15 260.6 23.35 260.6 23.55 260.75 23.7 260.9 23.85 261.1 23.85 261.3 23.85 261.45 23.7 261.6 23.55 261.6 23.35 261.6 23.15 261.45 23
M 258.1 22.85
Q 257.9 22.85 257.75 23 257.6 23.15 257.6 23.35 257.6 23.55 257.75 23.7 257.9 23.85 258.1 23.85 258.3 23.85 258.45 23.7 258.6 23.55 258.6 23.35 258.6 23.15 258.45 23 258.3 22.85 258.1 22.85
M 255.45 23
Q 255.3 22.85 255.1 22.85 254.9 22.85 254.75 23 254.6 23.15 254.6 23.35 254.6 23.55 254.75 23.7 254.9 23.85 255.1 23.85 255.3 23.85 255.45 23.7 255.6 23.55 255.6 23.35 255.6 23.15 255.45 23
M 252.45 23
Q 252.3 22.85 252.1 22.85 251.9 22.85 251.75 23 251.6 23.15 251.6 23.35 251.6 23.55 251.75 23.7 251.9 23.85 252.1 23.85 252.3 23.85 252.45 23.7 252.6 23.55 252.6 23.35 252.6 23.15 252.45 23
M 249.45 23
Q 249.3 22.85 249.1 22.85 248.9 22.85 248.75 23 248.6 23.15 248.6 23.35 248.6 23.55 248.75 23.7 248.9 23.85 249.1 23.85 249.3 23.85 249.45 23.7 249.6 23.55 249.6 23.35 249.6 23.15 249.45 23
M 246.45 23
Q 246.3 22.85 246.1 22.85 245.9 22.85 245.75 23 245.6 23.15 245.6 23.35 245.6 23.55 245.75 23.7 245.9 23.85 246.1 23.85 246.3 23.85 246.45 23.7 246.6 23.55 246.6 23.35 246.6 23.15 246.45 23
M 243.6 23.35
Q 243.6 23.15 243.45 23 243.3 22.85 243.1 22.85 242.9 22.85 242.75 23 242.6 23.15 242.6 23.35 242.6 23.55 242.75 23.7 242.9 23.85 243.1 23.85 243.3 23.85 243.45 23.7 243.6 23.55 243.6 23.35
M 282.45 23
Q 282.3 22.85 282.1 22.85 281.9 22.85 281.75 23 281.6 23.15 281.6 23.35 281.6 23.55 281.75 23.7 281.9 23.85 282.1 23.85 282.3 23.85 282.45 23.7 282.6 23.55 282.6 23.35 282.6 23.15 282.45 23
M 279.45 23
Q 279.3 22.85 279.1 22.85 278.9 22.85 278.75 23 278.6 23.15 278.6 23.35 278.6 23.55 278.75 23.7 278.9 23.85 279.1 23.85 279.3 23.85 279.45 23.7 279.6 23.55 279.6 23.35 279.6 23.15 279.45 23
M 275.6 23.35
Q 275.6 23.55 275.75 23.7 275.9 23.85 276.1 23.85 276.3 23.85 276.45 23.7 276.6 23.55 276.6 23.35 276.6 23.15 276.45 23 276.3 22.85 276.1 22.85 275.9 22.85 275.75 23 275.6 23.15 275.6 23.35
M 273.1 22.85
Q 272.9 22.85 272.75 23 272.6 23.15 272.6 23.35 272.6 23.55 272.75 23.7 272.9 23.85 273.1 23.85 273.3 23.85 273.45 23.7 273.6 23.55 273.6 23.35 273.6 23.15 273.45 23 273.3 22.85 273.1 22.85
M 270.45 23
Q 270.3 22.85 270.1 22.85 269.9 22.85 269.75 23 269.6 23.15 269.6 23.35 269.6 23.55 269.75 23.7 269.9 23.85 270.1 23.85 270.3 23.85 270.45 23.7 270.6 23.55 270.6 23.35 270.6 23.15 270.45 23
M 267.45 23
Q 267.3 22.85 267.1 22.85 266.9 22.85 266.75 23 266.6 23.15 266.6 23.35 266.6 23.55 266.75 23.7 266.9 23.85 267.1 23.85 267.3 23.85 267.45 23.7 267.6 23.55 267.6 23.35 267.6 23.15 267.45 23
M 263.75 23
Q 263.6 23.15 263.6 23.35 263.6 23.55 263.75 23.7 263.9 23.85 264.1 23.85 264.3 23.85 264.45 23.7 264.6 23.55 264.6 23.35 264.6 23.15 264.45 23 264.3 22.85 264.1 22.85 263.9 22.85 263.75 23
M 303.45 23
Q 303.3 22.85 303.1 22.85 302.9 22.85 302.75 23 302.6 23.15 302.6 23.35 302.6 23.55 302.75 23.7 302.9 23.85 303.1 23.85 303.3 23.85 303.45 23.7 303.6 23.55 303.6 23.35 303.6 23.15 303.45 23
M 300.45 23
Q 300.3 22.85 300.1 22.85 299.9 22.85 299.75 23 299.6 23.15 299.6 23.35 299.6 23.55 299.75 23.7 299.9 23.85 300.1 23.85 300.3 23.85 300.45 23.7 300.6 23.55 300.6 23.35 300.6 23.15 300.45 23
M 297.45 23
Q 297.3 22.85 297.1 22.85 296.9 22.85 296.75 23 296.6 23.15 296.6 23.35 296.6 23.55 296.75 23.7 296.9 23.85 297.1 23.85 297.3 23.85 297.45 23.7 297.6 23.55 297.6 23.35 297.6 23.15 297.45 23
M 294.45 23
Q 294.3 22.85 294.1 22.85 293.9 22.85 293.75 23 293.6 23.15 293.6 23.35 293.6 23.55 293.75 23.7 293.9 23.85 294.1 23.85 294.3 23.85 294.45 23.7 294.6 23.55 294.6 23.35 294.6 23.15 294.45 23
M 291.45 23
Q 291.3 22.85 291.1 22.85 290.9 22.85 290.75 23 290.6 23.15 290.6 23.35 290.6 23.55 290.75 23.7 290.9 23.85 291.1 23.85 291.3 23.85 291.45 23.7 291.6 23.55 291.6 23.35 291.6 23.15 291.45 23
M 288.45 23
Q 288.3 22.85 288.1 22.85 287.9 22.85 287.75 23 287.6 23.15 287.6 23.35 287.6 23.55 287.75 23.7 287.9 23.85 288.1 23.85 288.3 23.85 288.45 23.7 288.6 23.55 288.6 23.35 288.6 23.15 288.45 23
M 284.75 23
Q 284.6 23.15 284.6 23.35 284.6 23.55 284.75 23.7 284.9 23.85 285.1 23.85 285.3 23.85 285.45 23.7 285.6 23.55 285.6 23.35 285.6 23.15 285.45 23 285.3 22.85 285.1 22.85 284.9 22.85 284.75 23
M 305.75 23
Q 305.6 23.15 305.6 23.35 305.6 23.55 305.75 23.7 305.9 23.85 306.1 23.85 306.3 23.85 306.45 23.7 306.6 23.55 306.6 23.35 306.6 23.15 306.45 23 306.3 22.85 306.1 22.85 305.9 22.85 305.75 23 Z"/>
</g>

<g id="Symbol_1_0_Layer0_1_STROKES_1_FILL">
<path fill="#000000" stroke="none" d="
M 18.45 23
Q 18.3 22.85 18.1 22.85 17.9 22.85 17.75 23 17.6 23.15 17.6 23.35 17.6 23.55 17.75 23.7 17.9 23.85 18.1 23.85 18.3 23.85 18.45 23.7 18.6 23.55 18.6 23.35 18.6 23.15 18.45 23
M 15.1 22.85
Q 14.9 22.85 14.75 23 14.6 23.15 14.6 23.35 14.6 23.55 14.75 23.7 14.9 23.85 15.1 23.85 15.3 23.85 15.45 23.7 15.6 23.55 15.6 23.35 15.6 23.15 15.45 23 15.3 22.85 15.1 22.85
M 12.45 23
Q 12.3 22.85 12.1 22.85 11.9 22.85 11.75 23 11.6 23.15 11.6 23.35 11.6 23.55 11.75 23.7 11.9 23.85 12.1 23.85 12.3 23.85 12.45 23.7 12.6 23.55 12.6 23.35 12.6 23.15 12.45 23
M 9.45 23
Q 9.3 22.85 9.1 22.85 8.9 22.85 8.75 23 8.6 23.15 8.6 23.35 8.6 23.55 8.75 23.7 8.9 23.85 9.1 23.85 9.3 23.85 9.45 23.7 9.6 23.55 9.6 23.35 9.6 23.15 9.45 23
M 6.45 23
Q 6.3 22.85 6.1 22.85 5.9 22.85 5.75 23 5.6 23.15 5.6 23.35 5.6 23.55 5.75 23.7 5.9 23.85 6.1 23.85 6.3 23.85 6.45 23.7 6.6 23.55 6.6 23.35 6.6 23.15 6.45 23
M 2.75 23
Q 2.6 23.15 2.6 23.35 2.6 23.55 2.75 23.7 2.9 23.85 3.1 23.85 3.3 23.85 3.45 23.7 3.6 23.55 3.6 23.35 3.6 23.15 3.45 23 3.3 22.85 3.1 22.85 2.9 22.85 2.75 23
M 39.45 23
Q 39.3 22.85 39.1 22.85 38.9 22.85 38.75 23 38.6 23.15 38.6 23.35 38.6 23.55 38.75 23.7 38.9 23.85 39.1 23.85 39.3 23.85 39.45 23.7 39.6 23.55 39.6 23.35 39.6 23.15 39.45 23
M 36.45 23
Q 36.3 22.85 36.1 22.85 35.9 22.85 35.75 23 35.6 23.15 35.6 23.35 35.6 23.55 35.75 23.7 35.9 23.85 36.1 23.85 36.3 23.85 36.45 23.7 36.6 23.55 36.6 23.35 36.6 23.15 36.45 23
M 32.6 23.35
Q 32.6 23.55 32.75 23.7 32.9 23.85 33.1 23.85 33.3 23.85 33.45 23.7 33.6 23.55 33.6 23.35 33.6 23.15 33.45 23 33.3 22.85 33.1 22.85 32.9 22.85 32.75 23 32.6 23.15 32.6 23.35
M 30.1 22.85
Q 29.9 22.85 29.75 23 29.6 23.15 29.6 23.35 29.6 23.55 29.75 23.7 29.9 23.85 30.1 23.85 30.3 23.85 30.45 23.7 30.6 23.55 30.6 23.35 30.6 23.15 30.45 23 30.3 22.85 30.1 22.85
M 27.45 23
Q 27.3 22.85 27.1 22.85 26.9 22.85 26.75 23 26.6 23.15 26.6 23.35 26.6 23.55 26.75 23.7 26.9 23.85 27.1 23.85 27.3 23.85 27.45 23.7 27.6 23.55 27.6 23.35 27.6 23.15 27.45 23
M 24.45 23
Q 24.3 22.85 24.1 22.85 23.9 22.85 23.75 23 23.6 23.15 23.6 23.35 23.6 23.55 23.75 23.7 23.9 23.85 24.1 23.85 24.3 23.85 24.45 23.7 24.6 23.55 24.6 23.35 24.6 23.15 24.45 23
M 20.75 23
Q 20.6 23.15 20.6 23.35 20.6 23.55 20.75 23.7 20.9 23.85 21.1 23.85 21.3 23.85 21.45 23.7 21.6 23.55 21.6 23.35 21.6 23.15 21.45 23 21.3 22.85 21.1 22.85 20.9 22.85 20.75 23
M 60.45 23
Q 60.3 22.85 60.1 22.85 59.9 22.85 59.75 23 59.6 23.15 59.6 23.35 59.6 23.55 59.75 23.7 59.9 23.85 60.1 23.85 60.3 23.85 60.45 23.7 60.6 23.55 60.6 23.35 60.6 23.15 60.45 23
M 57.45 23
Q 57.3 22.85 57.1 22.85 56.9 22.85 56.75 23 56.6 23.15 56.6 23.35 56.6 23.55 56.75 23.7 56.9 23.85 57.1 23.85 57.3 23.85 57.45 23.7 57.6 23.55 57.6 23.35 57.6 23.15 57.45 23
M 54.45 23
Q 54.3 22.85 54.1 22.85 53.9 22.85 53.75 23 53.6 23.15 53.6 23.35 53.6 23.55 53.75 23.7 53.9 23.85 54.1 23.85 54.3 23.85 54.45 23.7 54.6 23.55 54.6 23.35 54.6 23.15 54.45 23
M 51.45 23
Q 51.3 22.85 51.1 22.85 50.9 22.85 50.75 23 50.6 23.15 50.6 23.35 50.6 23.55 50.75 23.7 50.9 23.85 51.1 23.85 51.3 23.85 51.45 23.7 51.6 23.55 51.6 23.35 51.6 23.15 51.45 23
M 48.45 23
Q 48.3 22.85 48.1 22.85 47.9 22.85 47.75 23 47.6 23.15 47.6 23.35 47.6 23.55 47.75 23.7 47.9 23.85 48.1 23.85 48.3 23.85 48.45 23.7 48.6 23.55 48.6 23.35 48.6 23.15 48.45 23
M 45.45 23
Q 45.3 22.85 45.1 22.85 44.9 22.85 44.75 23 44.6 23.15 44.6 23.35 44.6 23.55 44.75 23.7 44.9 23.85 45.1 23.85 45.3 23.85 45.45 23.7 45.6 23.55 45.6 23.35 45.6 23.15 45.45 23
M 41.75 23
Q 41.6 23.15 41.6 23.35 41.6 23.55 41.75 23.7 41.9 23.85 42.1 23.85 42.3 23.85 42.45 23.7 42.6 23.55 42.6 23.35 42.6 23.15 42.45 23 42.3 22.85 42.1 22.85 41.9 22.85 41.75 23
M 78.45 23
Q 78.3 22.85 78.1 22.85 77.9 22.85 77.75 23 77.6 23.15 77.6 23.35 77.6 23.55 77.75 23.7 77.9 23.85 78.1 23.85 78.3 23.85 78.45 23.7 78.6 23.55 78.6 23.35 78.6 23.15 78.45 23
M 75.45 23
Q 75.3 22.85 75.1 22.85 74.9 22.85 74.75 23 74.6 23.15 74.6 23.35 74.6 23.55 74.75 23.7 74.9 23.85 75.1 23.85 75.3 23.85 75.45 23.7 75.6 23.55 75.6 23.35 75.6 23.15 75.45 23
M 72.45 23
Q 72.3 22.85 72.1 22.85 71.9 22.85 71.75 23 71.6 23.15 71.6 23.35 71.6 23.55 71.75 23.7 71.9 23.85 72.1 23.85 72.3 23.85 72.45 23.7 72.6 23.55 72.6 23.35 72.6 23.15 72.45 23
M 68.6 23.35
Q 68.6 23.55 68.75 23.7 68.9 23.85 69.1 23.85 69.3 23.85 69.45 23.7 69.6 23.55 69.6 23.35 69.6 23.15 69.45 23 69.3 22.85 69.1 22.85 68.9 22.85 68.75 23 68.6 23.15 68.6 23.35
M 65.6 23.35
Q 65.6 23.55 65.75 23.7 65.9 23.85 66.1 23.85 66.3 23.85 66.45 23.7 66.6 23.55 66.6 23.35 66.6 23.15 66.45 23 66.3 22.85 66.1 22.85 65.9 22.85 65.75 23 65.6 23.15 65.6 23.35
M 62.75 23
Q 62.6 23.15 62.6 23.35 62.6 23.55 62.75 23.7 62.9 23.85 63.1 23.85 63.3 23.85 63.45 23.7 63.6 23.55 63.6 23.35 63.6 23.15 63.45 23 63.3 22.85 63.1 22.85 62.9 22.85 62.75 23
M 99.45 23
Q 99.3 22.85 99.1 22.85 98.9 22.85 98.75 23 98.6 23.15 98.6 23.35 98.6 23.55 98.75 23.7 98.9 23.85 99.1 23.85 99.3 23.85 99.45 23.7 99.6 23.55 99.6 23.35 99.6 23.15 99.45 23
M 96.1 22.85
Q 95.9 22.85 95.75 23 95.6 23.15 95.6 23.35 95.6 23.55 95.75 23.7 95.9 23.85 96.1 23.85 96.3 23.85 96.45 23.7 96.6 23.55 96.6 23.35 96.6 23.15 96.45 23 96.3 22.85 96.1 22.85
M 93.45 23
Q 93.3 22.85 93.1 22.85 92.9 22.85 92.75 23 92.6 23.15 92.6 23.35 92.6 23.55 92.75 23.7 92.9 23.85 93.1 23.85 93.3 23.85 93.45 23.7 93.6 23.55 93.6 23.35 93.6 23.15 93.45 23
M 90.45 23
Q 90.3 22.85 90.1 22.85 89.9 22.85 89.75 23 89.6 23.15 89.6 23.35 89.6 23.55 89.75 23.7 89.9 23.85 90.1 23.85 90.3 23.85 90.45 23.7 90.6 23.55 90.6 23.35 90.6 23.15 90.45 23
M 87.45 23
Q 87.3 22.85 87.1 22.85 86.9 22.85 86.75 23 86.6 23.15 86.6 23.35 86.6 23.55 86.75 23.7 86.9 23.85 87.1 23.85 87.3 23.85 87.45 23.7 87.6 23.55 87.6 23.35 87.6 23.15 87.45 23
M 84.45 23
Q 84.3 22.85 84.1 22.85 83.9 22.85 83.75 23 83.6 23.15 83.6 23.35 83.6 23.55 83.75 23.7 83.9 23.85 84.1 23.85 84.3 23.85 84.45 23.7 84.6 23.55 84.6 23.35 84.6 23.15 84.45 23
M 81.6 23.35
Q 81.6 23.15 81.45 23 81.3 22.85 81.1 22.85 80.9 22.85 80.75 23 80.6 23.15 80.6 23.35 80.6 23.55 80.75 23.7 80.9 23.85 81.1 23.85 81.3 23.85 81.45 23.7 81.6 23.55 81.6 23.35
M 120.45 23
Q 120.3 22.85 120.1 22.85 119.9 22.85 119.75 23 119.6 23.15 119.6 23.35 119.6 23.55 119.75 23.7 119.9 23.85 120.1 23.85 120.3 23.85 120.45 23.7 120.6 23.55 120.6 23.35 120.6 23.15 120.45 23
M 117.45 23
Q 117.3 22.85 117.1 22.85 116.9 22.85 116.75 23 116.6 23.15 116.6 23.35 116.6 23.55 116.75 23.7 116.9 23.85 117.1 23.85 117.3 23.85 117.45 23.7 117.6 23.55 117.6 23.35 117.6 23.15 117.45 23
M 113.6 23.35
Q 113.6 23.55 113.75 23.7 113.9 23.85 114.1 23.85 114.3 23.85 114.45 23.7 114.6 23.55 114.6 23.35 114.6 23.15 114.45 23 114.3 22.85 114.1 22.85 113.9 22.85 113.75 23 113.6 23.15 113.6 23.35
M 111.1 22.85
Q 110.9 22.85 110.75 23 110.6 23.15 110.6 23.35 110.6 23.55 110.75 23.7 110.9 23.85 111.1 23.85 111.3 23.85 111.45 23.7 111.6 23.55 111.6 23.35 111.6 23.15 111.45 23 111.3 22.85 111.1 22.85
M 108.45 23
Q 108.3 22.85 108.1 22.85 107.9 22.85 107.75 23 107.6 23.15 107.6 23.35 107.6 23.55 107.75 23.7 107.9 23.85 108.1 23.85 108.3 23.85 108.45 23.7 108.6 23.55 108.6 23.35 108.6 23.15 108.45 23
M 105.45 23
Q 105.3 22.85 105.1 22.85 104.9 22.85 104.75 23 104.6 23.15 104.6 23.35 104.6 23.55 104.75 23.7 104.9 23.85 105.1 23.85 105.3 23.85 105.45 23.7 105.6 23.55 105.6 23.35 105.6 23.15 105.45 23
M 101.75 23
Q 101.6 23.15 101.6 23.35 101.6 23.55 101.75 23.7 101.9 23.85 102.1 23.85 102.3 23.85 102.45 23.7 102.6 23.55 102.6 23.35 102.6 23.15 102.45 23 102.3 22.85 102.1 22.85 101.9 22.85 101.75 23
M 141.45 23
Q 141.3 22.85 141.1 22.85 140.9 22.85 140.75 23 140.6 23.15 140.6 23.35 140.6 23.55 140.75 23.7 140.9 23.85 141.1 23.85 141.3 23.85 141.45 23.7 141.6 23.55 141.6 23.35 141.6 23.15 141.45 23
M 138.45 23
Q 138.3 22.85 138.1 22.85 137.9 22.85 137.75 23 137.6 23.15 137.6 23.35 137.6 23.55 137.75 23.7 137.9 23.85 138.1 23.85 138.3 23.85 138.45 23.7 138.6 23.55 138.6 23.35 138.6 23.15 138.45 23
M 135.45 23
Q 135.3 22.85 135.1 22.85 134.9 22.85 134.75 23 134.6 23.15 134.6 23.35 134.6 23.55 134.75 23.7 134.9 23.85 135.1 23.85 135.3 23.85 135.45 23.7 135.6 23.55 135.6 23.35 135.6 23.15 135.45 23
M 132.45 23
Q 132.3 22.85 132.1 22.85 131.9 22.85 131.75 23 131.6 23.15 131.6 23.35 131.6 23.55 131.75 23.7 131.9 23.85 132.1 23.85 132.3 23.85 132.45 23.7 132.6 23.55 132.6 23.35 132.6 23.15 132.45 23
M 129.45 23
Q 129.3 22.85 129.1 22.85 128.9 22.85 128.75 23 128.6 23.15 128.6 23.35 128.6 23.55 128.75 23.7 128.9 23.85 129.1 23.85 129.3 23.85 129.45 23.7 129.6 23.55 129.6 23.35 129.6 23.15 129.45 23
M 126.45 23
Q 126.3 22.85 126.1 22.85 125.9 22.85 125.75 23 125.6 23.15 125.6 23.35 125.6 23.55 125.75 23.7 125.9 23.85 126.1 23.85 126.3 23.85 126.45 23.7 126.6 23.55 126.6 23.35 126.6 23.15 126.45 23
M 122.75 23
Q 122.6 23.15 122.6 23.35 122.6 23.55 122.75 23.7 122.9 23.85 123.1 23.85 123.3 23.85 123.45 23.7 123.6 23.55 123.6 23.35 123.6 23.15 123.45 23 123.3 22.85 123.1 22.85 122.9 22.85 122.75 23
M 159.45 23
Q 159.3 22.85 159.1 22.85 158.9 22.85 158.75 23 158.6 23.15 158.6 23.35 158.6 23.55 158.75 23.7 158.9 23.85 159.1 23.85 159.3 23.85 159.45 23.7 159.6 23.55 159.6 23.35 159.6 23.15 159.45 23
M 156.45 23
Q 156.3 22.85 156.1 22.85 155.9 22.85 155.75 23 155.6 23.15 155.6 23.35 155.6 23.55 155.75 23.7 155.9 23.85 156.1 23.85 156.3 23.85 156.45 23.7 156.6 23.55 156.6 23.35 156.6 23.15 156.45 23
M 153.45 23
Q 153.3 22.85 153.1 22.85 152.9 22.85 152.75 23 152.6 23.15 152.6 23.35 152.6 23.55 152.75 23.7 152.9 23.85 153.1 23.85 153.3 23.85 153.45 23.7 153.6 23.55 153.6 23.35 153.6 23.15 153.45 23
M 149.6 23.35
Q 149.6 23.55 149.75 23.7 149.9 23.85 150.1 23.85 150.3 23.85 150.45 23.7 150.6 23.55 150.6 23.35 150.6 23.15 150.45 23 150.3 22.85 150.1 22.85 149.9 22.85 149.75 23 149.6 23.15 149.6 23.35
M 146.6 23.35
Q 146.6 23.55 146.75 23.7 146.9 23.85 147.1 23.85 147.3 23.85 147.45 23.7 147.6 23.55 147.6 23.35 147.6 23.15 147.45 23 147.3 22.85 147.1 22.85 146.9 22.85 146.75 23 146.6 23.15 146.6 23.35
M 143.75 23
Q 143.6 23.15 143.6 23.35 143.6 23.55 143.75 23.7 143.9 23.85 144.1 23.85 144.3 23.85 144.45 23.7 144.6 23.55 144.6 23.35 144.6 23.15 144.45 23 144.3 22.85 144.1 22.85 143.9 22.85 143.75 23
M 180.45 23
Q 180.3 22.85 180.1 22.85 179.9 22.85 179.75 23 179.6 23.15 179.6 23.35 179.6 23.55 179.75 23.7 179.9 23.85 180.1 23.85 180.3 23.85 180.45 23.7 180.6 23.55 180.6 23.35 180.6 23.15 180.45 23
M 177.1 22.85
Q 176.9 22.85 176.75 23 176.6 23.15 176.6 23.35 176.6 23.55 176.75 23.7 176.9 23.85 177.1 23.85 177.3 23.85 177.45 23.7 177.6 23.55 177.6 23.35 177.6 23.15 177.45 23 177.3 22.85 177.1 22.85
M 174.45 23
Q 174.3 22.85 174.1 22.85 173.9 22.85 173.75 23 173.6 23.15 173.6 23.35 173.6 23.55 173.75 23.7 173.9 23.85 174.1 23.85 174.3 23.85 174.45 23.7 174.6 23.55 174.6 23.35 174.6 23.15 174.45 23
M 171.45 23
Q 171.3 22.85 171.1 22.85 170.9 22.85 170.75 23 170.6 23.15 170.6 23.35 170.6 23.55 170.75 23.7 170.9 23.85 171.1 23.85 171.3 23.85 171.45 23.7 171.6 23.55 171.6 23.35 171.6 23.15 171.45 23
M 168.45 23
Q 168.3 22.85 168.1 22.85 167.9 22.85 167.75 23 167.6 23.15 167.6 23.35 167.6 23.55 167.75 23.7 167.9 23.85 168.1 23.85 168.3 23.85 168.45 23.7 168.6 23.55 168.6 23.35 168.6 23.15 168.45 23
M 165.45 23
Q 165.3 22.85 165.1 22.85 164.9 22.85 164.75 23 164.6 23.15 164.6 23.35 164.6 23.55 164.75 23.7 164.9 23.85 165.1 23.85 165.3 23.85 165.45 23.7 165.6 23.55 165.6 23.35 165.6 23.15 165.45 23
M 162.6 23.35
Q 162.6 23.15 162.45 23 162.3 22.85 162.1 22.85 161.9 22.85 161.75 23 161.6 23.15 161.6 23.35 161.6 23.55 161.75 23.7 161.9 23.85 162.1 23.85 162.3 23.85 162.45 23.7 162.6 23.55 162.6 23.35
M 201.45 23
Q 201.3 22.85 201.1 22.85 200.9 22.85 200.75 23 200.6 23.15 200.6 23.35 200.6 23.55 200.75 23.7 200.9 23.85 201.1 23.85 201.3 23.85 201.45 23.7 201.6 23.55 201.6 23.35 201.6 23.15 201.45 23
M 198.45 23
Q 198.3 22.85 198.1 22.85 197.9 22.85 197.75 23 197.6 23.15 197.6 23.35 197.6 23.55 197.75 23.7 197.9 23.85 198.1 23.85 198.3 23.85 198.45 23.7 198.6 23.55 198.6 23.35 198.6 23.15 198.45 23
M 194.6 23.35
Q 194.6 23.55 194.75 23.7 194.9 23.85 195.1 23.85 195.3 23.85 195.45 23.7 195.6 23.55 195.6 23.35 195.6 23.15 195.45 23 195.3 22.85 195.1 22.85 194.9 22.85 194.75 23 194.6 23.15 194.6 23.35
M 192.1 22.85
Q 191.9 22.85 191.75 23 191.6 23.15 191.6 23.35 191.6 23.55 191.75 23.7 191.9 23.85 192.1 23.85 192.3 23.85 192.45 23.7 192.6 23.55 192.6 23.35 192.6 23.15 192.45 23 192.3 22.85 192.1 22.85
M 189.45 23
Q 189.3 22.85 189.1 22.85 188.9 22.85 188.75 23 188.6 23.15 188.6 23.35 188.6 23.55 188.75 23.7 188.9 23.85 189.1 23.85 189.3 23.85 189.45 23.7 189.6 23.55 189.6 23.35 189.6 23.15 189.45 23
M 186.45 23
Q 186.3 22.85 186.1 22.85 185.9 22.85 185.75 23 185.6 23.15 185.6 23.35 185.6 23.55 185.75 23.7 185.9 23.85 186.1 23.85 186.3 23.85 186.45 23.7 186.6 23.55 186.6 23.35 186.6 23.15 186.45 23
M 182.75 23
Q 182.6 23.15 182.6 23.35 182.6 23.55 182.75 23.7 182.9 23.85 183.1 23.85 183.3 23.85 183.45 23.7 183.6 23.55 183.6 23.35 183.6 23.15 183.45 23 183.3 22.85 183.1 22.85 182.9 22.85 182.75 23
M 222.45 23
Q 222.3 22.85 222.1 22.85 221.9 22.85 221.75 23 221.6 23.15 221.6 23.35 221.6 23.55 221.75 23.7 221.9 23.85 222.1 23.85 222.3 23.85 222.45 23.7 222.6 23.55 222.6 23.35 222.6 23.15 222.45 23
M 219.45 23
Q 219.3 22.85 219.1 22.85 218.9 22.85 218.75 23 218.6 23.15 218.6 23.35 218.6 23.55 218.75 23.7 218.9 23.85 219.1 23.85 219.3 23.85 219.45 23.7 219.6 23.55 219.6 23.35 219.6 23.15 219.45 23
M 216.45 23
Q 216.3 22.85 216.1 22.85 215.9 22.85 215.75 23 215.6 23.15 215.6 23.35 215.6 23.55 215.75 23.7 215.9 23.85 216.1 23.85 216.3 23.85 216.45 23.7 216.6 23.55 216.6 23.35 216.6 23.15 216.45 23
M 213.45 23
Q 213.3 22.85 213.1 22.85 212.9 22.85 212.75 23 212.6 23.15 212.6 23.35 212.6 23.55 212.75 23.7 212.9 23.85 213.1 23.85 213.3 23.85 213.45 23.7 213.6 23.55 213.6 23.35 213.6 23.15 213.45 23
M 210.45 23
Q 210.3 22.85 210.1 22.85 209.9 22.85 209.75 23 209.6 23.15 209.6 23.35 209.6 23.55 209.75 23.7 209.9 23.85 210.1 23.85 210.3 23.85 210.45 23.7 210.6 23.55 210.6 23.35 210.6 23.15 210.45 23
M 207.45 23
Q 207.3 22.85 207.1 22.85 206.9 22.85 206.75 23 206.6 23.15 206.6 23.35 206.6 23.55 206.75 23.7 206.9 23.85 207.1 23.85 207.3 23.85 207.45 23.7 207.6 23.55 207.6 23.35 207.6 23.15 207.45 23
M 203.75 23
Q 203.6 23.15 203.6 23.35 203.6 23.55 203.75 23.7 203.9 23.85 204.1 23.85 204.3 23.85 204.45 23.7 204.6 23.55 204.6 23.35 204.6 23.15 204.45 23 204.3 22.85 204.1 22.85 203.9 22.85 203.75 23
M 240.45 23
Q 240.3 22.85 240.1 22.85 239.9 22.85 239.75 23 239.6 23.15 239.6 23.35 239.6 23.55 239.75 23.7 239.9 23.85 240.1 23.85 240.3 23.85 240.45 23.7 240.6 23.55 240.6 23.35 240.6 23.15 240.45 23
M 237.45 23
Q 237.3 22.85 237.1 22.85 236.9 22.85 236.75 23 236.6 23.15 236.6 23.35 236.6 23.55 236.75 23.7 236.9 23.85 237.1 23.85 237.3 23.85 237.45 23.7 237.6 23.55 237.6 23.35 237.6 23.15 237.45 23
M 234.45 23
Q 234.3 22.85 234.1 22.85 233.9 22.85 233.75 23 233.6 23.15 233.6 23.35 233.6 23.55 233.75 23.7 233.9 23.85 234.1 23.85 234.3 23.85 234.45 23.7 234.6 23.55 234.6 23.35 234.6 23.15 234.45 23
M 230.6 23.35
Q 230.6 23.55 230.75 23.7 230.9 23.85 231.1 23.85 231.3 23.85 231.45 23.7 231.6 23.55 231.6 23.35 231.6 23.15 231.45 23 231.3 22.85 231.1 22.85 230.9 22.85 230.75 23 230.6 23.15 230.6 23.35
M 227.6 23.35
Q 227.6 23.55 227.75 23.7 227.9 23.85 228.1 23.85 228.3 23.85 228.45 23.7 228.6 23.55 228.6 23.35 228.6 23.15 228.45 23 228.3 22.85 228.1 22.85 227.9 22.85 227.75 23 227.6 23.15 227.6 23.35
M 224.75 23
Q 224.6 23.15 224.6 23.35 224.6 23.55 224.75 23.7 224.9 23.85 225.1 23.85 225.3 23.85 225.45 23.7 225.6 23.55 225.6 23.35 225.6 23.15 225.45 23 225.3 22.85 225.1 22.85 224.9 22.85 224.75 23
M 261.45 23
Q 261.3 22.85 261.1 22.85 260.9 22.85 260.75 23 260.6 23.15 260.6 23.35 260.6 23.55 260.75 23.7 260.9 23.85 261.1 23.85 261.3 23.85 261.45 23.7 261.6 23.55 261.6 23.35 261.6 23.15 261.45 23
M 258.1 22.85
Q 257.9 22.85 257.75 23 257.6 23.15 257.6 23.35 257.6 23.55 257.75 23.7 257.9 23.85 258.1 23.85 258.3 23.85 258.45 23.7 258.6 23.55 258.6 23.35 258.6 23.15 258.45 23 258.3 22.85 258.1 22.85
M 255.45 23
Q 255.3 22.85 255.1 22.85 254.9 22.85 254.75 23 254.6 23.15 254.6 23.35 254.6 23.55 254.75 23.7 254.9 23.85 255.1 23.85 255.3 23.85 255.45 23.7 255.6 23.55 255.6 23.35 255.6 23.15 255.45 23
M 252.45 23
Q 252.3 22.85 252.1 22.85 251.9 22.85 251.75 23 251.6 23.15 251.6 23.35 251.6 23.55 251.75 23.7 251.9 23.85 252.1 23.85 252.3 23.85 252.45 23.7 252.6 23.55 252.6 23.35 252.6 23.15 252.45 23
M 249.45 23
Q 249.3 22.85 249.1 22.85 248.9 22.85 248.75 23 248.6 23.15 248.6 23.35 248.6 23.55 248.75 23.7 248.9 23.85 249.1 23.85 249.3 23.85 249.45 23.7 249.6 23.55 249.6 23.35 249.6 23.15 249.45 23
M 246.45 23
Q 246.3 22.85 246.1 22.85 245.9 22.85 245.75 23 245.6 23.15 245.6 23.35 245.6 23.55 245.75 23.7 245.9 23.85 246.1 23.85 246.3 23.85 246.45 23.7 246.6 23.55 246.6 23.35 246.6 23.15 246.45 23
M 243.6 23.35
Q 243.6 23.15 243.45 23 243.3 22.85 243.1 22.85 242.9 22.85 242.75 23 242.6 23.15 242.6 23.35 242.6 23.55 242.75 23.7 242.9 23.85 243.1 23.85 243.3 23.85 243.45 23.7 243.6 23.55 243.6 23.35
M 282.45 23
Q 282.3 22.85 282.1 22.85 281.9 22.85 281.75 23 281.6 23.15 281.6 23.35 281.6 23.55 281.75 23.7 281.9 23.85 282.1 23.85 282.3 23.85 282.45 23.7 282.6 23.55 282.6 23.35 282.6 23.15 282.45 23
M 279.45 23
Q 279.3 22.85 279.1 22.85 278.9 22.85 278.75 23 278.6 23.15 278.6 23.35 278.6 23.55 278.75 23.7 278.9 23.85 279.1 23.85 279.3 23.85 279.45 23.7 279.6 23.55 279.6 23.35 279.6 23.15 279.45 23
M 275.6 23.35
Q 275.6 23.55 275.75 23.7 275.9 23.85 276.1 23.85 276.3 23.85 276.45 23.7 276.6 23.55 276.6 23.35 276.6 23.15 276.45 23 276.3 22.85 276.1 22.85 275.9 22.85 275.75 23 275.6 23.15 275.6 23.35
M 273.1 22.85
Q 272.9 22.85 272.75 23 272.6 23.15 272.6 23.35 272.6 23.55 272.75 23.7 272.9 23.85 273.1 23.85 273.3 23.85 273.45 23.7 273.6 23.55 273.6 23.35 273.6 23.15 273.45 23 273.3 22.85 273.1 22.85
M 270.45 23
Q 270.3 22.85 270.1 22.85 269.9 22.85 269.75 23 269.6 23.15 269.6 23.35 269.6 23.55 269.75 23.7 269.9 23.85 270.1 23.85 270.3 23.85 270.45 23.7 270.6 23.55 270.6 23.35 270.6 23.15 270.45 23
M 267.45 23
Q 267.3 22.85 267.1 22.85 266.9 22.85 266.75 23 266.6 23.15 266.6 23.35 266.6 23.55 266.75 23.7 266.9 23.85 267.1 23.85 267.3 23.85 267.45 23.7 267.6 23.55 267.6 23.35 267.6 23.15 267.45 23
M 263.75 23
Q 263.6 23.15 263.6 23.35 263.6 23.55 263.75 23.7 263.9 23.85 264.1 23.85 264.3 23.85 264.45 23.7 264.6 23.55 264.6 23.35 264.6 23.15 264.45 23 264.3 22.85 264.1 22.85 263.9 22.85 263.75 23
M 303.45 23
Q 303.3 22.85 303.1 22.85 302.9 22.85 302.75 23 302.6 23.15 302.6 23.35 302.6 23.55 302.75 23.7 302.9 23.85 303.1 23.85 303.3 23.85 303.45 23.7 303.6 23.55 303.6 23.35 303.6 23.15 303.45 23
M 300.45 23
Q 300.3 22.85 300.1 22.85 299.9 22.85 299.75 23 299.6 23.15 299.6 23.35 299.6 23.55 299.75 23.7 299.9 23.85 300.1 23.85 300.3 23.85 300.45 23.7 300.6 23.55 300.6 23.35 300.6 23.15 300.45 23
M 297.45 23
Q 297.3 22.85 297.1 22.85 296.9 22.85 296.75 23 296.6 23.15 296.6 23.35 296.6 23.55 296.75 23.7 296.9 23.85 297.1 23.85 297.3 23.85 297.45 23.7 297.6 23.55 297.6 23.35 297.6 23.15 297.45 23
M 294.45 23
Q 294.3 22.85 294.1 22.85 293.9 22.85 293.75 23 293.6 23.15 293.6 23.35 293.6 23.55 293.75 23.7 293.9 23.85 294.1 23.85 294.3 23.85 294.45 23.7 294.6 23.55 294.6 23.35 294.6 23.15 294.45 23
M 291.45 23
Q 291.3 22.85 291.1 22.85 290.9 22.85 290.75 23 290.6 23.15 290.6 23.35 290.6 23.55 290.75 23.7 290.9 23.85 291.1 23.85 291.3 23.85 291.45 23.7 291.6 23.55 291.6 23.35 291.6 23.15 291.45 23
M 288.45 23
Q 288.3 22.85 288.1 22.85 287.9 22.85 287.75 23 287.6 23.15 287.6 23.35 287.6 23.55 287.75 23.7 287.9 23.85 288.1 23.85 288.3 23.85 288.45 23.7 288.6 23.55 288.6 23.35 288.6 23.15 288.45 23
M 284.75 23
Q 284.6 23.15 284.6 23.35 284.6 23.55 284.75 23.7 284.9 23.85 285.1 23.85 285.3 23.85 285.45 23.7 285.6 23.55 285.6 23.35 285.6 23.15 285.45 23 285.3 22.85 285.1 22.85 284.9 22.85 284.75 23
M 305.75 23
Q 305.6 23.15 305.6 23.35 305.6 23.55 305.75 23.7 305.9 23.85 306.1 23.85 306.3 23.85 306.45 23.7 306.6 23.55 306.6 23.35 306.6 23.15 306.45 23 306.3 22.85 306.1 22.85 305.9 22.85 305.75 23 Z"/>
</g>

<path id="Symbol_1_0_Layer1_1_1_STROKES" stroke="#000000" stroke-width="1" stroke-linejoin="miter" stroke-linecap="butt" stroke-miterlimit="4" fill="none" d="
M 4.15 0
L 4.15 4.1 0 4.1 0 66.15 4.15 66.15 4.15 70.25 306.7 70.25 306.7 66.15 310.8 66.15 310.8 4.1 306.7 4.1 306.7 0 4.15 0 Z"/>
</defs>

<g transform="matrix( 1, 0, 0, 1, 1.1,1.4) ">
<g transform="matrix( 1, 0, 0, 1, -165.2,-204.95) ">
<use xlink:href="#Symbol_1_0_Layer1_0_FILL"/>
</g>

<g transform="matrix( 1, 0, 0, 1, 0,0) ">
<use xlink:href="#Symbol_1_0_Layer1_1_1_STROKES"/>
</g>

<g transform="matrix( 1, 0, 0, 1, 0,0) ">
<use xlink:href="#Symbol_1_0_Layer0_0_STROKES_1_FILL"/>
</g>

<g transform="matrix( 1, 0, 0, 1, 0,23.75) ">
<use xlink:href="#Symbol_1_0_Layer0_1_STROKES_1_FILL"/>
</g>
</g>
</svg>
