
<svg xmlns="http://www.w3.org/2000/svg" version="1.1" xmlns:xlink="http://www.w3.org/1999/xlink" preserveAspectRatio="none" x="0px" y="0px" width="119px" height="71px" viewBox="0 0 119 71">
<defs>
<g id="Layer1_0_FILL">
<path fill="#000000" stroke="none" d="
M 51.35 62.55
L 51.3 62.75
Q 51.55 62.9 51.55 63.35
L 51.55 67.75
Q 51.55 68.25 51.3 68.35
L 51.35 68.55 53 68.55
Q 54.05 68.55 54.75 67.75 55.5 66.9 55.5 65.55 55.5 64.2 54.75 63.35 54.05 62.55 53 62.55
L 51.35 62.55
M 52.75 63.65
L 53 63.65
Q 54.25 63.65 54.25 65.55 54.25 67.45 53 67.45
L 52.75 67.45 52.75 63.65
M 45.05 63.35
Q 45.05 62.9 45.3 62.75
L 45.3 62.55 43.65 62.55 43.6 62.75
Q 43.85 62.85 43.85 63.35
L 43.85 67.75
Q 43.85 68.25 43.6 68.35
L 43.65 68.55 45.3 68.55 45.3 68.35
Q 45.05 68.25 45.05 67.75
L 45.05 63.35
M 48.8 62.75
Q 49 62.85 49 63.35
L 49 65
Q 48.35 64.2 48.05 63.85 47.6 63.25 47.6 62.9 47.6 62.75 47.7 62.75
L 47.7 62.55 46.3 62.55 46.25 62.75
Q 46.5 62.9 46.5 63.35
L 46.5 67.75
Q 46.5 68.25 46.25 68.35
L 46.3 68.55 47.8 68.55 47.8 68.35
Q 47.6 68.25 47.6 67.75
L 47.6 65.25
Q 48.45 66.3 48.55 66.45 49 67.15 49 67.85 49 68.25 48.8 68.35
L 48.8 68.55 50.3 68.55 50.35 68.35
Q 50.1 68.25 50.1 67.85
L 50.1 63.35
Q 50.1 62.9 50.35 62.75
L 50.3 62.55 48.8 62.55 48.8 62.75
M 77.7 64.25
Q 77.7 63.55 77.2 63.05 76.65 62.55 75.8 62.55
L 73.85 62.55 73.85 62.75
Q 74.05 62.85 74.05 63.35
L 74.05 67.75
Q 74.05 68.25 73.85 68.35
L 73.85 68.55 75.5 68.55 75.5 68.35
Q 75.25 68.25 75.25 67.75
L 75.25 66.45 75.8 66.3 76.25 67.8
Q 76.4 68.2 76.1 68.35
L 76.1 68.55 77.8 68.55 77.8 68.35
Q 77.6 68.25 77.45 67.8
L 76.85 65.8
Q 77.7 65.1 77.7 64.25
M 75.25 63.65
L 75.7 63.65
Q 76.4 63.65 76.4 64.25 76.4 65.15 75.25 65.45
L 75.25 63.65
M 62.9 62.55
L 61.35 62.55 61.35 62.75
Q 61.5 62.85 61.35 63.3
L 60.75 64.75 60.1 63.25
Q 60 62.8 60.15 62.75
L 60.1 62.55 58.45 62.55 58.45 62.75
Q 58.75 62.9 58.95 63.35
L 60.1 66.15 60.1 67.75
Q 60.1 68.25 59.85 68.35
L 59.85 68.55 61.5 68.55 61.5 68.35
Q 61.3 68.25 61.3 67.75
L 61.3 66.15 62.4 63.3
Q 62.6 62.9 62.9 62.75
L 62.9 62.55
M 67.4 67.85
Q 68 67 68 65.55 68 64.1 67.4 63.25 66.8 62.45 65.8 62.45 64.8 62.45 64.2 63.25 63.6 64.1 63.6 65.55 63.6 67 64.2 67.85 64.8 68.65 65.8 68.65 66.8 68.65 67.4 67.85
M 65.8 67.6
Q 64.85 67.6 64.85 65.55 64.85 63.5 65.8 63.5 66.75 63.5 66.75 65.55 66.75 67.6 65.8 67.6
M 68.8 62.55
L 68.8 62.75
Q 69.05 62.9 69.05 63.35
L 69.05 66.6
Q 69.05 67 68.8 67.1
L 68.8 67.3
Q 68.85 67.3 69.4 67.95 69.85 68.65 70.85 68.65 71.8 68.65 72.25 67.95 72.8 67.3 72.85 67.3
L 72.85 67.1
Q 72.6 67 72.6 66.6
L 72.6 63.35
Q 72.6 62.9 72.85 62.75
L 72.85 62.55 71.35 62.55 71.3 62.75
Q 71.55 62.9 71.55 63.35
L 71.55 66.85
Q 71.55 67.6 70.9 67.6 70.25 67.6 70.25 66.85
L 70.25 63.35
Q 70.25 62.85 70.45 62.75
L 70.45 62.55 68.8 62.55
M 36.4 63.9
L 36.3 62.55 33.05 62.55 33.05 62.75
Q 33.3 62.9 33.3 63.35
L 33.3 67.75
Q 33.3 68.25 33.05 68.35
L 33.05 68.55 36.3 68.55 36.4 67.2 36.25 67.2
Q 36 67.45 35.6 67.45
L 34.5 67.45 34.5 66 34.9 66
Q 35.35 66 35.45 66.25
L 35.65 66.25 35.65 64.65 35.45 64.65
Q 35.35 64.9 34.9 64.9
L 34.5 64.9 34.5 63.65 35.6 63.65
Q 36 63.65 36.25 63.9
L 36.4 63.9
M 39.55 62.55
L 39.55 62.75
Q 39.75 62.85 39.75 63.35
L 39.75 67.75
Q 39.75 68.25 39.55 68.35
L 39.55 68.55 41.2 68.55 41.2 68.35
Q 40.95 68.25 40.95 67.75
L 40.95 66.1 41.4 66.1
Q 41.8 66.1 41.95 66.4
L 42.15 66.35 42.15 64.8 41.95 64.75
Q 41.8 65.05 41.4 65.05
L 40.95 65.05 40.95 63.65 42.1 63.65
Q 42.6 63.65 42.7 63.9
L 42.9 63.9 42.9 63.65 42.8 62.55 39.55 62.55
M 22.05 63.25
Q 21.45 64.1 21.45 65.55 21.45 67 22.05 67.85 22.65 68.65 23.65 68.65 24.65 68.65 25.25 67.85 25.85 67 25.85 65.55 25.85 64.1 25.25 63.25 24.65 62.45 23.65 62.45 22.65 62.45 22.05 63.25
M 22.7 65.55
Q 22.7 63.5 23.65 63.5 24.6 63.5 24.6 65.55 24.6 67.6 23.65 67.6 22.7 67.6 22.7 65.55
M 26.65 62.55
L 26.65 62.75
Q 26.9 62.9 26.9 63.35
L 26.9 67.75
Q 26.9 68.25 26.65 68.35
L 26.65 68.55 28.2 68.55 28.2 68.35
Q 27.95 68.25 27.95 67.75
L 27.95 64.5 29.15 67.95 29.45 67.95 30.65 64.5 30.65 67.75
Q 30.65 68.25 30.4 68.35
L 30.4 68.55 32.05 68.55 32.1 68.35
Q 31.85 68.25 31.85 67.75
L 31.85 63.35
Q 31.85 62.85 32.1 62.75
L 32.05 62.55 30.25 62.55 29.3 65.4 28.35 62.55 26.65 62.55
M 21.5 61
Q 22.5 61 22.95 61.85
L 23.2 61.85 23.2 59.8 22.95 59.8
Q 22.8 59.9 22.4 59.9 21.65 59.8 21.5 59.8 19.9 59.8 18.7 61 17.35 62.35 17.35 64.6 17.35 67.35 19.35 69.2 21.15 70.85 23.45 70.85 25.2 70.85 25.2 70 25.2 69.7 24.95 69.6 24.75 70.05 23.6 70.05 21.85 70.05 20.5 68.65 19 67.1 19 64.6 19 62.8 19.85 61.8 20.55 61 21.5 61
M 98.4 64.25
Q 98.4 63.55 97.9 63.05 97.35 62.55 96.5 62.55
L 94.55 62.55 94.55 62.75
Q 94.75 62.85 94.75 63.35
L 94.75 67.75
Q 94.75 68.25 94.55 68.35
L 94.55 68.55 96.2 68.55 96.2 68.35
Q 95.95 68.25 95.95 67.75
L 95.95 66.45 96.5 66.3 96.95 67.8
Q 97.1 68.2 96.8 68.35
L 96.8 68.55 98.5 68.55 98.5 68.35
Q 98.3 68.25 98.15 67.8
L 97.55 65.8
Q 98.4 65.1 98.4 64.25
M 96.4 63.65
Q 97.1 63.65 97.1 64.25 97.1 65.15 95.95 65.45
L 95.95 63.65 96.4 63.65
M 83.85 64.15
L 83.85 62.45 83.65 62.45
Q 83.65 62.5 83.5 62.5
L 82.8 62.45
Q 81.9 62.45 81.4 62.9 80.9 63.35 80.9 64.1 80.9 65 82.05 65.65 83.1 66.2 83.1 66.85 83.1 67.6 82.3 67.6 81.45 67.6 81.05 66.35
L 80.85 66.35 80.85 68.55 81.05 68.55
Q 81.15 68.35 81.65 68.5 81.95 68.65 82.3 68.65 83.15 68.65 83.75 68.1 84.3 67.55 84.3 66.75 84.3 65.55 83.05 64.9 82.1 64.35 82.1 64 82.1 63.5 82.75 63.5 83.4 63.5 83.7 64.15
L 83.85 64.15
M 87.3 67.75
L 87.3 63.65 87.85 63.65
Q 88.25 63.65 88.5 63.9
L 88.65 63.9 88.55 62.55 84.9 62.55 84.8 63.9 84.95 63.9
Q 85.2 63.65 85.6 63.65
L 86.1 63.65 86.1 67.75
Q 86.1 68.25 85.9 68.35
L 85.9 68.55 87.55 68.55 87.55 68.35
Q 87.3 68.25 87.3 67.75
M 89.3 65.55
Q 89.3 67.05 89.9 67.85 90.5 68.65 91.55 68.65 92.55 68.65 93.15 67.85 93.75 67 93.75 65.55 93.75 64.1 93.15 63.25 92.55 62.45 91.55 62.45 90.5 62.45 89.9 63.25 89.3 64.1 89.3 65.55
M 92.5 65.55
Q 92.5 67.6 91.55 67.6 90.6 67.6 90.6 65.55 90.6 63.5 91.55 63.5 92.5 63.5 92.5 65.55
M 102.85 63.3
Q 103.05 62.9 103.35 62.75
L 103.35 62.55 101.8 62.55 101.75 62.75
Q 101.95 62.85 101.75 63.3
L 101.2 64.75 100.55 63.25
Q 100.4 62.85 100.6 62.75
L 100.55 62.55 98.9 62.55 98.9 62.75
Q 99.25 62.9 99.35 63.35
L 100.5 66.15 100.5 67.75
Q 100.5 68.25 100.3 68.35
L 100.3 68.55 101.95 68.55 101.95 68.35
Q 101.7 68.25 101.7 67.75
L 101.7 66.15 102.85 63.3 Z"/>
</g>

<g id="Symbol_1_0_Layer1_0_FILL">
<path fill="#FFFFFF" stroke="none" d="
M 350.75 4.55
Q 349.25 7.6 349.1 11.35 348.95 15.15 350.35 17.6 352.8 22.25 357.3 25.7
L 358.85 23.35
Q 361.7 18.85 363.1 12.7 364.9 4.65 361.2 1.75 354.5 -3.1 350.75 4.55 Z"/>
</g>

<g id="Symbol_1_0_Layer1_1_FILL">
<path fill="#FFFFFF" stroke="none" d="
M 508.6 44.8
Q 500.45 44.95 489.15 47.85 476.4 51.5 469.85 53.1 458.45 55.85 449.55 55.75 431 55.6 422.25 41.6 413.65 27.9 420 10.15 416.7 17.55 408.95 23.1 401.6 28.3 392.05 30.65 382.5 33 373.5 31.85 363.95 30.6 357.45 25.7 347.4 40.25 331.3 45.45 317.85 49.8 298.95 47.8 286.05 46.5 264.8 41.15 239.9 34.9 233.3 33.75 225.1 32.35 216.55 32.1 206.6 31.85 198.45 33.4 198.45 41.9 192.85 53.95 190.5 59.85 184.35 64.9 176.8 71 172.9 64.65 169.95 60.1 174.65 50.65 178.8 42.25 183.25 39.25 189.2 35.2 198.45 33.4 198.55 24.35 192.35 18.7 181.2 7.75 161.35 4.25 139.4 0.45 112.05 6.15 87 11.4 69.55 21.65 44.2 36.55 29.3 60.6 12.85 87.1 17.2 113.15
L 17.35 114 17 114.3
Q 13.45 117.45 10.8 121 9.45 122.8 8.8 123.95 -3.25 138.4 1 163.7 5 187.2 19.25 203.5 41.55 229.05 74.25 229.05 86.35 229.05 101.3 225.5 107.55 224.05 125.3 218.75 166.95 206.35 195.35 214.15 218.05 220.35 231.3 239.15 240.75 252.6 244.55 270.95 246.45 280.15 246.45 286.65 247.45 279.9 251.75 270.9 257.2 259.55 266.15 249.05 290.5 220.45 332.5 206.65 376.15 192.35 415 204.25 432.25 209.55 445.15 219.4 457.85 229.1 464.1 241.55 463.7 231.35 464.05 221 464.4 210.35 464.1 201.85 491.4 216.7 518.6 203.25 529.7 197.75 539.15 188.15 547.7 179.45 553.1 169.4 560.25 155.95 566.45 137.1 575.05 110.9 578.4 102.5
L 576.35 102.35
Q 566.5 101.85 556.9 96.65 546.35 89.9 540.75 86.6 535.3 90.2 528.1 91 522.3 91.65 515.85 90.1 507.7 88.15 508.1 83.75 508.5 79.85 513.75 79.25 516.95 78.85 524.15 79.9 532.35 81.65 540.75 86.6 545.7 83.25 547.85 78.3 550 73.35 548.85 68 546.15 55.65 529.2 48.75 519.35 44.6 508.6 44.8 Z"/>
</g>

<g id="Symbol_1_0_Layer1_2_FILL">
<path fill="#FFFFFF" stroke="none" d="
M 600.4 85.05
Q 594.1 84.5 587.85 88.9 582.1 92.95 579.95 98.45
L 578.3 102.5
Q 586.35 102.9 591.8 102.15 600.15 101.05 604.1 97.4 609.05 92.7 607.95 89.15 606.9 85.6 600.4 85.05 Z"/>
</g>

<g id="Symbol_1_0_Layer1_3_FILL">
<path fill="#DDDEDF" stroke="none" d="
M 621.95 98.85
Q 624.3 95.5 623.35 92.45 621.7 86.9 614.35 85.55 607.75 84.3 602.6 86.85 594.5 90.8 589.55 101.1 589.31015625 101.5888671875 588.9 102.55 588.542578125 102.51953125 588.15 102.5 579.8 102.05 571.05 97.8 567.2998046875 95.9943359375 557.3 89.75 562.0109375 86.1265625 563.9 80.3 567.9 67.9 554.95 57.35 544.65 48.9 530.95 45.9 522.5 44 512.45 45.3 505.5 46.2 494.3 49.25 480.2 53.15 476.1 54 465.8 56.2 457.6 55.7 441.25 54.7 435.45 40.1 430.4681640625 27.5267578125 435.65 13.3 435.941015625 12.52109375 436.25 11.75 436.65 10.7 434.25 9.05 431.85 7.35 431.6 7.95 431.3205078125 8.7458984375 431 9.5 426.471875 20.4875 414 26.7 402.1 32.65 388.25 32.2 380.45 32 374.35 29.1 373.8974609375 28.8857421875 373.45 28.65 378.105078125 21.472265625 378.8 13.95 379.85 2.55 368.85 0.15 364.9 -0.7 362.3 3.4 360.35 6.6 359.9 11 359.0546875 18.557421875 367.75 26.6 364.0419921875 31.740234375 358.7 36.35 348.2 45.5 331.5 47.85 317.85 49.75 300.15 46.7 291.6 45.25 269.4 39.55 249.2 34.4 238.1 33 224.8478515625 31.338671875 213.5 32.85 211.71171875 21.1205078125 193.55 11.25 179.9 3.9 158.6 2.9 125 1.4 94.4 14.9 62.55 28.95 43.6 55.3 34.15 68.4 29.95 82.95 25.45 98.6 27.8 113.6 30.1 128 38.35 140.75 47 154.05 59.2 160.8 61.45 162.05 60.2 160.25 58.95 158.45 57.75 157.75 43.25 149.75 35 126.5 31.9 117.8 31.75 107.85 31.55 98.55 33.95 88.95 38.15 72.05 50.1 56.4 60.9 42.3 76.4 31.1 90.9 20.7 110.05 14.55 127.25 9 147 7.3 170.55 5.25 188.35 11.45 202.75 16.4 207.3 25.1 209.1486328125 28.6474609375 209.1 33.55 207.7224609375 33.826171875 206.35 34.15 198.9 35.9 193.8 39.95 188.8 43.95 185.3 50.8 182.25 56.75 182.75 61.55 183.25 67.2 188.55 70.45 196.55 75.3 205.9 61.95 210.1 56 212.25 48.15 213.806640625 42.41875 213.8 37.3 219.1484375 36.4 226.4 36.15 240.05 35.7 258.9 40.05 267.85 42.1 287.65 47.2 305.6 51.45 318.15 52.25 353.45 54.6 371.2 31.85 371.8455078125 31.01796875 372.45 30.15 378.015234375 33.6890625 385.3 35.25 395.3 37.35 405.85 35.3 416.55 33.15 424.45 27.3 426.5533203125 25.737890625 428.3 24 428.343359375 29.817578125 430.15 35.45 434.55 49.15 448.05 56 461.3 62.7 482.3 57.95 486.15 57.1 499.75 53.25 510.4 50.25 516.65 49.4 527.45 47.9 537.7 50.45 549.25 53.35 555.7 60.7 559.95 65.6 559.75 72.1 559.6 78.35 555.4 83.3 553.86328125 85.09921875 551.9 86.5 538.478125 78.9806640625 525.8 79.2 522.8 79.25 520.9 80.55 518.75 82.05 518.75 84.9 518.7 86.75 520.7 88.85 522.15 90.35 524.25 91.6 534.2 97.55 546.95 94.5 552.0599609375 93.260546875 555.7 90.9 557.106640625 91.7255859375 558.55 92.65 569.75 99.9 573.1 101.5 579.74140625 104.7458984375 587.6 105.95 585.863671875 110.7572265625 582.75 119.9 580.8 125.75 577 137.5 573.55 147.9 570.65 154.95 563.45 172.5 552.9 184.8 540.9 198.7 525.1 205.3 513.3 210.2 500.45 209.3 488 208.45 476.4 202.35 475.85 202.05 475.45 201.95 474.7 201.7 474.7 202.25 474.9 208.75 474.7 222.1 474.5306640625 230.969140625 474.6 236.9 459.95859375 215.601953125 430.85 205.8 400.8 195.75 367.4 200.85 334.85 205.85 307.5 222.95 277.85 241.45 263.6 268.7 261.7126953125 272.3498046875 260.35 275.7 259.969921875 273.829296875 259.5 271.9 257.3 262.95 253.35 254.3 245.6 237.35 230.75 226.2 216 215.2 197.45 212.25 184.25 210.2 168.85 211.9 156.1 213.35 140.7 217.5 122.05 223 112.65 225.3 96.5 229.2 83.85 229.1 64.75 228.95 48.85 218.75 33.2 208.75 24.35 191.5 16.25 175.7 15.3 159.35 14.25 140.2 24.1 127.9 24.7 127.15 22.4 125.25 20.05 123.4 19.45 124.1 9.95 136 10.55 154.05 11 169 18 185.15 24.6 200.2 36.9 211.95 49.5 223.9 64.7 229.1 78.55 233.85 95.2 232.8 108.5 231.95 125.6 227.2 150 220.45 155.95 219.1 173.1 215.2 187 215.2 198.55 215.15 208.7 217.75 219.9 220.65 228.6 226.55 241 234.95 248.8 251.7 252.7 260 254.85 268.95 257.1 278.3 257.1 287.05 257.1 288.1 259.4 289.7 261.75 291.3 261.85 290.4 263.95 276.55 276.55 259.25 293.2 236.3 322.75 221 341.6 211.2 362.05 206.7 383.05 202.05 403.65 203.4 422.15 204.7 438 211.1 455.75 218.25 466.9 230.7 471.45 235.75 474.8 242.3 475.2 243 477.3 244.55 479.5 246.1 479.5 245.25 479.25 238.4 479.45 225.4 479.6859375 212.6546875 479.5 206.25 495.2408203125 214.0927734375 511.5 213.05 528.7 211.9 543.95 201.15 557.4 191.65 567 175.45 574.4 162.95 580.9 143.6 585.05 131 587.15 124.7 590.7056640625 114.0810546875 593.7 106.55 598.0306640625 106.8013671875 602.95 106.6 611.15 106.2 616.75 103.3 619.9 101.75 621.95 98.85
M 598.1 98.1
Q 600.7 94.55 604.6 92 608.7 89.35 614.2 89.05 617.65 88.85 618.45 90.2 619.3 91.5 617.65 94.35 614.1 100.6 604.35 102.2 601.0392578125 102.7412109375 595.35 102.7 596.6677734375 100.0732421875 598.1 98.1
M 524.95 89.35
Q 521.75 87.55 525.2 84.5 529.25 80.85 543.35 85.1 546.3640625 85.98515625 549.95 87.75 547.4431640625 89.1822265625 544.35 90.05 538.35 91.7 531.3 90.95 526.95 90.45 524.95 89.35
M 365 19
Q 364.2 16.25 364.8 12.95 365.3 9.95 366.85 7.35 368.35 4.85 371.05 4.15 373.65 3.55 374.25 6.2 374.6 7.7 374.25 10.75 373.6 17.75 368.9 24.95 368.8 25.1013671875 368.7 25.25 366.008984375 22.572265625 365 19
M 208.7 38.4
Q 208.219921875 41.3814453125 207.2 44.75 202.45 60.75 192.6 66.75 188.5 69.25 187.6 65.85 186.9 63.15 188.15 59.05 190 52.8 195.6 46 199.966796875 40.8349609375 208.7 38.4 Z"/>
</g>

<g id="Symbol_1_0_Layer1_4_FILL">
<path fill="#000000" stroke="none" d="
M 109.25 16.5
Q 108.2 16.4 107.45 16.8 106 17.5 105.1 19.35 105.05 19.45 105 19.6 103.5 19.55 102.45 19.15 101.75 18.9 100.9 18.4 100.6 18.2 99.45 17.5 99.05 17.2 98.65 17 99.15 16.6 99.55 16 100.7 14.2 99.45 12.3 98.85 11.45 97.75 10.75 96.8 10.1 95.6 9.75 94.1 9.25 92.35 9.25 90.9 9.3 89.1 9.75 85.95 10.7 84.35 11 81.55 11.55 79.55 10.8 77.25 9.95 76.65 7.45 76.1 5.35 76.9 3.15 76.95 3 77 2.85 77.05 2.8 76.85 2.65 76.7 2.55 76.65 2.6 76.6 2.75 76.55 2.9 75.75 4.85 73.5 5.95 71.35 7.05 68.85 6.95 67.3 6.9 66.05 6.3 65.8 6.15 65.6 6.05 66.4 4.85 66.65 3.55 67 1.55 65.3 1.2 64.6 1.05 64.2 1.8 63.85 2.35 63.75 3.1 63.6 4.45 65.05 5.75 65.15 5.8 65.2 5.9 64.55 6.85 63.55 7.7 61.6 9.35 58.6 9.8 56.15 10.15 52.95 9.6 51.45 9.3 47.4 8.3 43.75 7.35 41.8 7.1 39.15 6.8 36.95 7.15 36.95 6.95 36.9 6.75 36.65 4.75 33.65 3.15 31.25 1.85 27.5 1.7 21.45 1.4 15.95 3.85 10.25 6.35 6.8 11.1 5.1 13.45 4.35 16.1 3.55 18.9 4 21.6 4.35 24.05 5.75 26.25 7.2 28.6 9.3 29.75 9.45 29.85 9.35 29.7 9.3 29.55 9.2 29.5 6.3 27.95 4.8 23.6 4.2 22 4.2 20.2 4.15 18.5 4.6 16.75 5.35 13.75 7.5 10.9 9.45 8.35 12.25 6.35 14.85 4.45 18.3 3.35 21.4 2.35 24.95 2.05 29.2 1.7 32.5 2.85 33.7 3.25 34.65 3.9 35.75 4.65 36.25 5.6 36.6 6.25 36.6 7.2 36.35 7.25 36.1 7.3 34.75 7.6 33.85 8.35 32.95 9.05 32.3 10.3 31.85 11.2 31.85 12 31.8 13 32.6 13.45 33.85 14.25 35.55 11.9 36.3 10.85 36.7 9.45 36.95 8.4 36.95 7.45 37.9 7.3 39.25 7.25 41.75 7.15 45.15 7.95 46.75 8.35 50.3 9.25 53.55 10 55.75 10.15 62.1 10.6 65.3 6.5 65.45 6.3 65.55 6.15 66.65 6.9 68.15 7.2 69.85 7.5 71.7 7.05 73.6 6.65 74.95 5.55 75.65 5.05 76.15 4.45 75.9 5.9 76.35 7.3 77 9.7 79.3 10.85 81.6 12.05 85.4 11.2 86.05 11.05 88.5 10.35 90.4 9.8 91.5 9.65 93.55 9.35 95.5 9.9 97.65 10.5 98.9 11.95 99.75 12.85 99.75 14.05 99.75 15.2 98.95 16.15 98.65 16.5 98.25 16.75 97.65 16.4 97.1 16.2 95.8 15.6 94.55 15.45 93.75 15.4 93.4 15.45 92.75 15.5 92.45 15.9 92.25 16.2 92.4 16.55 92.5 16.85 92.75 17.1 93.75 18.05 96.15 17.85 97.55 17.8 98.55 17.1 98.8 17.25 99.1 17.45 101.15 18.75 101.75 19.05 102.95 19.6 104.35 19.8 104.6 19.85 104.85 19.9 104.55 20.75 103.85 22.75 103.5 23.8 102.85 25.9 102.2 27.8 101.7 29.05 100.4 32.2 98.5 34.45 96.3 36.95 93.45 38.1 91.3 39 88.95 38.85 86.7 38.65 84.55 37.55 84.4 37.5 84.4 37.55 84.45 38.75 84.4 41.1 84.4 43.1 84.4 44.25 81.85 39.95 76.2 38.1 70.95 36.4 65.05 37.35 59.25 38.25 54.3 41.3 49 44.6 46.4 49.5 45.85 50.65 45.55 51.65 45.4 50.7 45.2 49.75 44.8 48.15 44.1 46.6 42.75 43.65 40.2 41.75 37.65 39.9 34.45 39.4 32.05 39 29.3 39.3 27 39.55 24.25 40.35 20.9 41.3 19.2 41.7 16.3 42.4 14.05 42.4 10.5 42.4 7.45 40.45 4.5 38.5 2.85 35.3 1.4 32.4 1.2 29.45 1.05 26 2.8 23.8 2.85 23.75 2.7 23.6 2.5 23.45 2.45 23.5 0.75 25.6 0.85 28.85 0.95 31.55 2.2 34.4 3.35 37 5.4 39.05 7.55 41.1 10.2 42 12.65 42.85 15.65 42.65 18 42.5 21.1 41.65 25.5 40.45 26.55 40.2 29.65 39.5 32.15 39.5 34.3 39.5 36.2 39.95 38.25 40.5 39.85 41.6 42.3 43.3 43.75 46.4 44.45 47.9 44.85 49.5 45.25 51.25 45.25 52.8 45.25 52.9 45.4 53 45.6 53.1 45.6 53.05 46 50.55 48.25 47.45 51.25 43.3 56.55 40.55 60 38.8 63.65 37.95 67.45 37.1 71.15 37.35 74.6 37.6 77.55 38.85 80.85 40.2 82.95 42.55 83.8 43.5 84.45 44.7 84.8 45 84.8 44.95 84.75 43.8 84.75 42.05 84.8 39.65 84.8 39.2 84.75 37.8 85 37.95 85.85 38.4 86.45 38.6 88.15 39.15 89.8 39.2 92.7 39.25 95.5 37.55 98.05 36 99.9 33.4 101.5 31.2 102.8 27.4 104.15 23.1 104.9 21.05 105.2 20.35 105.35 19.9 106.15 19.95 107.05 19.95 108.5 19.85 109.5 19.35 110.05 19.05 110.45 18.55 110.85 17.95 110.7 17.45 110.45 16.6 109.25 16.5
M 108 17
Q 108.6 16.75 109.3 16.75 110.2 16.8 110.35 17.3 110.55 17.95 109.8 18.6 109.25 19.05 108.55 19.35 107.95 19.55 107.1 19.6 106.55 19.65 105.6 19.65 105.55 19.65 105.45 19.65 105.5 19.5 105.55 19.45 105.95 18.55 106.45 18 107.05 17.35 108 17
M 98.15 16.85
Q 97.6 17.2 96.9 17.35 95.85 17.65 94.55 17.55 93.7 17.45 93.1 17.1 92.3 16.6 93 15.95 93.8 15.3 96.35 16.05 97.15 16.3 98.15 16.85
M 66.25 1.95
Q 66.4 2.4 66.35 3.05 66.2 4.35 65.4 5.65 65.3 5.7 65.25 5.8 64.45 5.15 64.15 4.2 64.05 3.7 64.15 3.1 64.25 2.55 64.5 2.1 64.8 1.6 65.3 1.5 66 1.3 66.25 1.95
M 32.35 11.4
Q 32.7 10.25 33.7 9.05 34.55 8.05 36.25 7.6 36.4 7.55 36.6 7.55 36.55 8.3 36.25 9.2 35.4 12.1 33.65 13.15 33.2 13.45 32.75 13.35 32.35 13.2 32.2 12.65 32.1 12.2 32.35 11.4 Z"/>
</g>

<g id="Symbol_1_0_Layer0_0_FILL">
<path fill="#000000" stroke="none" d="
M 46.95 21.7
L 46.9 22
Q 47.1 22.1 47.3 22.35 47.6 22.65 47.7 23
L 49.65 27.8 49.65 30.45
Q 49.65 30.85 49.5 31.15 49.4 31.35 49.25 31.45
L 49.3 31.75 52 31.75 52.05 31.45
Q 51.9 31.35 51.8 31.15 51.65 30.85 51.65 30.45
L 51.65 27.75 53.55 23
Q 53.7 22.65 54 22.35 54.2 22.1 54.4 22
L 54.35 21.7 53.8 21.7
Q 53.94140625 21.662109375 54.05 21.6 54.35 21.4 54.55 20.9 55.5 18.05 55.95 16.6
L 56.1 16.2 56.3 16.1
Q 56.5 16 56.65 16 57.25 15.8 57.8 16.75 57.9 16.9 58.2 17.55 58.7 17 58.75 16.95 59.2 16.55 59.7 16.85 60 17.05 60.15 17.15 60.35 17.35 60.75 17.8
L 60.7 17.5
Q 60.55 16.7 60.3 16.1 60.1 15.5 59.65 14.9 59.15 14.2 58.6 13.7 58.05 13.3 57.35 12.95 57.25 12.9 57.25 12.8
L 57.3 12.1 56.85 12.6
Q 56.75 12.75 56.65 12.7 55.75 12.4 54.65 12.5 52.45 12.7 50.75 14.15
L 50.45 14.4
Q 50.65 14.35 51.1 14.25 51.35 14.2 51.65 14.15 51.95 14.1 52.35 14.1 52.5 14.1 52.6 14.15 52.75 14.25 52.7 14.4 52.7 14.55 52.65 14.9
L 52.5 15.4 53.45 15.05
Q 53.9 14.9 54.45 14.8 54.9 14.75 55 15.2 55.1 15.55 55.1 15.95 55.1 16.1 55.1 16.75
L 55.7 16.4
Q 55.35 17.55 55.25 17.8 54.7 19.55 54.3 20.6 54.15 21.05 54 21.2 53.65 21.6 53.15 21.4 52.9 21.3 52.85 21.15 52.8 21 52.75 20.7 52.7 20.4 52.75 20.2
L 52.4 20.3 52.4 20.6
Q 52.45 20.95 52.5 21.2 52.55 21.4 52.7 21.55 52.826953125 21.6451171875 52.95 21.7
L 51.8 21.7 51.75 22
Q 51.85 22.1 51.9 22.3 51.9 22.55 51.75 22.95
L 50.75 25.4 49.7 22.85
Q 49.6 22.55 49.6 22.3 49.65 22.05 49.75 22
L 49.7 21.7 46.95 21.7
M 29.45 18.15
L 29.45 17.75 24.35 18.8 24.35 19.2 29.45 18.15
M 29.45 12.85
L 29.45 12.5 25.85 13.25 25.85 13.6 29.45 12.85
M 24.95 13.1
Q 24.8 13.35 24.45 13.45 24.25 13.5 23.75 13.45 23.3 13.35 22.9 13.45 22.15 13.6 21.7 14.1 21.25 14.6 21.25 15.25 21.25 15.65 21.4 15.85 21.6 16.05 21.85 16 22.05 15.95 22.15 15.8 22.3 15.6 22.25 15.4 22.15 15.5 22.05 15.4 22 15.3 22 15.1 22 14.75 22.2 14.5 22.45 14.25 22.85 14.2
L 22.9 14.2 22.9 18.1
Q 22.9 18.75 22.75 19.1 22.6 19.5 22.25 19.7
L 22.25 19.8
Q 22.35 19.85 22.5 19.8 22.85 19.75 23.25 19.4 23.6 19.05 23.8 19
L 23.85 18.9
Q 23.7 18.85 23.7 18.5
L 23.7 14.2
Q 24.3 14.25 24.6 14.2 25.2 14.05 25.3 13.55 25.4 13 24.95 13.1
M 25.5 14.4
L 25.45 14.3 24.5 14.5 24.45 14.6
Q 24.5 14.55 24.55 14.65 24.6 14.75 24.6 14.9
L 24.6 17.65
Q 24.6 17.9 24.45 18.05
L 24.5 18.15 25.45 17.95 25.5 17.8
Q 25.35 17.75 25.35 17.5
L 25.35 16.45 26.05 16.2 26.05 17.35
Q 26.05 17.65 25.95 17.75
L 25.95 17.85 26.95 17.65 26.95 17.55
Q 26.8 17.5 26.8 17.2
L 26.8 14.5
Q 26.8 14.2 26.95 14.1
L 26.95 14 25.95 14.2 25.95 14.3
Q 26.05 14.35 26.05 14.65
L 26.05 15.5 25.35 15.75 25.35 14.8
Q 25.35 14.5 25.5 14.4
M 28.25 15.15
L 28.25 14.35 28.95 14.25
Q 29.1 14.2 29.2 14.25 29.3 14.3 29.35 14.35
L 29.45 14.3 29.4 13.5 27.4 13.9 27.4 14
Q 27.55 14.05 27.55 14.35
L 27.55 17.05
Q 27.55 17.35 27.4 17.45
L 27.4 17.55 29.4 17.15 29.45 16.35 29.35 16.35
Q 29.25 16.5 28.95 16.6
L 28.25 16.7 28.25 15.8 28.55 15.75
Q 28.8 15.7 28.85 15.85
L 29 15.8 29 14.85 28.85 14.85
Q 28.75 15.05 28.55 15.1
L 28.25 15.15
M 86.75 21.7
L 86.7 22
Q 86.9 22.1 87 22.35 87.15 22.6 87.15 23
L 87.15 30.45
Q 87.15 30.85 87 31.15 86.9 31.35 86.7 31.45
L 86.75 31.75 89.5 31.75 89.55 31.45
Q 89.4 31.35 89.25 31.15 89.15 30.85 89.15 30.45
L 89.15 28 89.75 27.1 91.1 30.55
Q 91.2 30.85 91.1 31.15 91.05 31.35 90.9 31.45
L 90.95 31.75 93.65 31.75 93.7 31.45
Q 93.4 31.3 93.25 30.85
L 91.15 25.15 91.1 25.2 92.8 22.8
Q 93.25 22.15 93.65 22
L 93.6 21.7 90.65 21.7 90.65 22
Q 90.85 22.15 90.7 22.5 90.65 22.55 90.1 23.55
L 89.15 25.25 89.15 23
Q 89.15 22.6 89.25 22.35 89.4 22.1 89.55 22
L 89.5 21.7 86.75 21.7
M 84.7 23
Q 84.7 22.6 84.85 22.35 84.95 22.1 85.1 22
L 85.05 21.7 82.55 21.7 82.5 22
Q 82.65 22.1 82.75 22.35 82.9 22.6 82.9 23
L 82.9 25.75
Q 81.75 24.45 81.25 23.85 80.5 22.9 80.5 22.3 80.5 22 80.7 22
L 80.65 21.7 78.3 21.7 78.25 22
Q 78.45 22.1 78.55 22.35 78.7 22.6 78.7 23
L 78.7 30.45
Q 78.7 30.85 78.55 31.15 78.45 31.35 78.25 31.45
L 78.3 31.75 80.85 31.75 80.9 31.45
Q 80.75 31.35 80.6 31.15 80.5 30.85 80.5 30.45
L 80.5 26.2
Q 82.1 28.2 82.1 28.25 82.9 29.4 82.9 30.55 82.9 31.2 82.5 31.45
L 82.55 31.75 85.05 31.75 85.1 31.45
Q 84.7 31.2 84.7 30.55
L 84.7 23
M 74.85 21.7
L 71.35 21.7 71.3 22
Q 71.45 22.05 71.55 22.25 71.65 22.45 71.6 22.75
L 70.05 30.85
Q 69.95 31.2 69.55 31.45
L 69.6 31.75 72.2 31.75 72.2 31.45
Q 72.05 31.45 71.95 31.2 71.9 30.95 71.95 30.6
L 72.1 29.8 74.3 29.45 74.5 30.6
Q 74.6 31.25 74.2 31.45
L 74.25 31.75 77.05 31.75 77.05 31.45
Q 76.7 31.25 76.6 30.85
L 74.85 21.7
M 74 27.85
L 72.4 28.1 73.25 23.4 74 27.85
M 64.25 21.2
Q 64.4 21 64.55 20.9
L 64.5 20.6
Q 64.1 20.6 63.65 20.8 63.4 20.9 62.9 21.25 62.45 21.5 62.25 21.65 61.85 21.8 61.55 21.8
L 61.5 22.1
Q 61.7 22.2 61.8 22.45 61.9 22.7 61.9 23.1
L 61.9 31.05
Q 61.9 31.45 61.8 31.75 61.65 32 61.5 32.1
L 61.55 32.4 62.85 32.4
Q 63.3 32.4 63.8 32.55 64.3 32.7 64.9 32.7 66.5 32.7 67.6 31.6 68.8 30.35 68.8 28.25 68.8 26.9 68.2 25.9 67.65 25 66.7 24.55 68.1 23.25 68.1 21.6 68.1 20.15 67.15 19.1 65.95 17.8 63.65 17.8 61.5 17.8 59.9 19.25 58.3 20.7 58.3 22.6 58.3 23.55 58.8 24.2 59.25 24.85 59.95 24.85 60.45 24.85 60.75 24.5 61.1 24.2 61.1 23.7
L 61.1 23.45
Q 60.95 23.5 60.85 23.5 60.6 23.5 60.45 23.15 60.35 22.9 60.35 22.4 60.35 21.35 61.3 20.6 62.25 19.8 63.7 19.8 64.8 19.8 65.4 20.35 65.9 20.9 65.9 21.7 65.9 22.55 65.4 23.2 64.95 23.85 64.15 24.3
L 64.15 21.9
Q 64.15 21.5 64.25 21.2
M 66.65 28.25
Q 66.65 29.3 66.1 30 65.6 30.7 64.8 30.7 64.6 30.7 64.15 30.6
L 64.15 26
Q 64.55 25.85 64.85 25.7 65.55 25.85 66.05 26.4 66.65 27.1 66.65 28.25
M 46.05 24.55
Q 46.05 23.35 45.25 22.55 44.35 21.7 42.85 21.7
L 39.65 21.7 39.6 22
Q 39.75 22.1 39.85 22.35 40 22.6 40 23
L 40 30.45
Q 40 30.85 39.85 31.15 39.75 31.35 39.6 31.45
L 39.65 31.75 42.35 31.75 42.4 31.45
Q 42.25 31.35 42.15 31.15 42 30.85 42 30.45
L 42 28.25
Q 42.45 28.15 42.9 28
L 43.65 30.55
Q 43.75 30.9 43.65 31.15 43.55 31.35 43.4 31.45
L 43.45 31.75 46.25 31.75 46.25 31.45
Q 46.1 31.4 45.95 31.15 45.8 30.85 45.7 30.5
L 44.65 27.15
Q 45.3 26.65 45.65 26 46.05 25.3 46.05 24.55
M 43.65 23.85
Q 43.95 24.1 43.95 24.55 43.95 25.25 43.35 25.8 42.8 26.35 42 26.55
L 42 23.5 42.75 23.5
Q 43.35 23.5 43.65 23.85
M 37.25 22.85
Q 36.25 21.5 34.6 21.5 32.9 21.5 31.9 22.85 30.85 24.25 30.85 26.7 30.85 29.2 31.9 30.6 32.9 31.95 34.6 31.95 36.25 31.95 37.25 30.6 38.3 29.2 38.3 26.7 38.3 24.25 37.25 22.85
M 34.6 23.3
Q 35.3 23.3 35.7 24.15 36.15 25.05 36.15 26.7 36.15 28.4 35.7 29.3 35.3 30.15 34.6 30.15 33.85 30.15 33.45 29.3 33 28.4 33 26.7 33 25.05 33.45 24.15 33.85 23.3 34.6 23.3
M 23.45 21.7
L 23.3 23.95 23.6 23.95
Q 23.65 23.8 23.95 23.65 24.25 23.5 24.6 23.5
L 25.5 23.5 25.5 30.45
Q 25.5 30.85 25.4 31.15 25.25 31.35 25.1 31.45
L 25.15 31.75 27.9 31.75 27.95 31.45
Q 27.75 31.35 27.65 31.15 27.5 30.85 27.5 30.45
L 27.5 23.5 28.4 23.5
Q 28.8 23.5 29.1 23.65 29.35 23.8 29.45 23.95
L 29.75 23.95 29.55 21.7 23.45 21.7
M 20.65 21.9
L 21.05 21.9 21.05 18.65 20.65 18.65
Q 20.4 18.8 20.2 18.8 20.1 18.8 19.7 18.7 19.3 18.6 18.95 18.6 17.55 18.6 16.7 19.45 15.8 20.3 15.8 21.7 15.8 22.95 16.5 24.05 16.95 24.8 18 25.85 19.05 26.85 19.5 27.6 20.15 28.6 20.15 29.75 20.15 30.95 19.5 31.7 18.9 32.45 17.95 32.45 17.15 32.45 16.65 31.85 16.2 31.35 16.2 30.65 16.2 30.2 16.4 29.9 16.65 29.6 17.05 29.6 17.35 29.6 17.55 29.8 17.75 30 17.75 30.25 17.75 30.3 17.7 30.45 17.85 30.55 18.05 30.55 18.4 30.55 18.65 30.25 18.95 29.9 18.95 29.4 18.95 28.65 18.4 28.15 17.8 27.65 16.9 27.65 15.7 27.65 14.95 28.5 14.15 29.4 14.15 30.7 14.15 32.2 15.2 33.3 16.3 34.45 18.1 34.45 19.85 34.45 21.1 33.2 22.35 31.85 22.35 29.65 22.35 28 21.5 26.55 20.95 25.6 19.65 24.3 18.85 23.45 18.5 23 18 22.3 18 21.7 18 21.2 18.35 20.9 18.65 20.65 19.1 20.65 20.1 20.65 20.65 21.9 Z"/>

<path fill="#BEC0C2" stroke="none" d="
M 93.05 32.65
L 93.65 32.1 90.6 32.1 90.5 31.3 90.7 31.15
Q 90.75 31.15 90.8 31 90.85 30.85 90.75 30.7
L 89.65 27.75 89.4 28.1 89.4 29.3 90.15 31.3
Q 90.25 31.45 90.2 31.6
L 89.9 31.9 90 32.65 93.05 32.65
M 90.25 22.1
L 90.3 21.7 89.75 22.25 89.65 22.75 89.8 22.85
Q 89.8 22.95 89.4 23.65
L 89.4 24.05
Q 90.4 22.45 90.4 22.25 90.4 22.2 90.3 22.15
L 90.25 22.1
M 85.75 22.75
L 85.95 22.85
Q 86 22.9 86.1 23.1 86.2 23.3 86.2 23.6
L 86.2 31.05
Q 86.2 31.35 86.1 31.55
L 85.75 31.9 85.85 32.65 88.85 32.65 89.45 32.1 86.45 32.1 86.35 31.3 86.5 31.15
Q 86.6 31.15 86.7 30.95 86.75 30.75 86.75 30.45
L 86.75 23
Q 86.75 22.7 86.7 22.5 86.6 22.3 86.5 22.3
L 86.35 22.2 86.4 21.7 85.8 22.25 85.75 22.75
M 77.55 22.95
Q 77.75 23.15 77.75 23.6
L 77.75 31.05
Q 77.75 31.35 77.65 31.55
L 77.3 31.9 77.4 32.65 80.45 32.65 81 32.1 78 32.1 77.9 31.3 78.1 31.15
Q 78.15 31.15 78.25 30.95 78.3 30.75 78.3 30.45
L 78.3 23
Q 78.3 22.55 78.15 22.35 78.1 22.3 77.9 22.2
L 77.95 21.7 77.35 22.3 77.3 22.75
Q 77.5 22.85 77.55 22.95
M 82.55 30.55
Q 82.55 29.65 82 28.75 81.65 28.15 80.8 27.1
L 80.75 27.1 80.75 28.4
Q 81.2 29 81.45 29.35 81.95 30.25 81.95 31.15 81.95 31.4 81.9 31.5
L 81.55 31.9 81.65 32.65 84.45 32.65 85.05 32.1 82.2 32.1 82.1 31.3 82.3 31.15
Q 82.55 31.05 82.55 30.55
M 82.55 23
Q 82.55 22.55 82.35 22.35 82.3 22.3 82.1 22.2
L 82.2 21.7 81.6 22.3 81.55 22.75
Q 81.7 22.85 81.8 22.95 81.95 23.15 81.95 23.6
L 81.95 24.2 82.55 24.9 82.55 23
M 72.25 30.6
L 73.4 30.4 73.55 31.25
Q 73.6 31.4 73.55 31.55
L 73.25 31.9 73.35 32.65 76.4 32.65 77 32.1 73.95 32.1 73.8 31.25 74.05 31.15
Q 74.2 31.05 74.15 30.65
L 74 29.8 72.3 30.1 72.25 30.6
M 70.4 22.25
L 70.3 22.75 70.5 22.85 70.6 22.95
Q 70.7 23.1 70.65 23.25
L 69.1 31.4 68.6 31.9 68.7 32.65 71.55 32.65 72.15 32.1 69.3 32.1 69.2 31.3 69.35 31.2
Q 69.65 31 69.65 30.8
L 71.25 22.65
Q 71.3 22.5 71.2 22.35
L 71.1 22.25 70.9 22.15 70.95 21.65 70.4 22.25
M 59.2 19.55
L 58.9 19.8
Q 58.2 20.5 57.8 21.4 57.4 22.3 57.4 23.2 57.4 24.25 57.95 25 58.5 25.75 59.35 25.75 59.95 25.75 60.4 25.35
L 60.8 24.9
Q 60.45 25.2 59.95 25.2 59.1 25.2 58.55 24.4 58 23.65 58 22.6 58 21.8 58.3 21 58.6 20.2 59.2 19.55
M 61.15 22.3
L 61.25 21.8 60.65 22.4
Q 60.65 22.75 60.75 22.95 60.85 23 60.9 23.15
L 60.95 23.15 61.3 22.95 61.4 23.35
Q 61.45 23.6 61.45 23.7 61.45 24.3 61 24.75
L 61 31.65
Q 61 32 60.9 32.2
L 60.6 32.5 60.7 33.3 62.25 33.3
Q 62.7 33.3 63.1 33.4 63.7 33.6 64.3 33.6 65.1 33.6 65.85 33.3 66.6 33 67.2 32.4
L 67.5 32.1
Q 67 32.5 66.45 32.75 65.7 33.05 64.9 33.05 64.25 33.05 63.7 32.85 63.3 32.7 62.85 32.7
L 61.3 32.7 61.15 31.9 61.35 31.8
Q 61.45 31.75 61.5 31.6 61.6 31.35 61.6 31.05
L 61.6 23.1
Q 61.6 22.8 61.5 22.6 61.45 22.4 61.35 22.4
L 61.15 22.3
M 64.5 20.25
L 64.65 20.25
Q 64.25 20.1 63.7 20.1 62.85 20.1 62.1 20.45 61.4 20.75 61.05 21.3 61.9 20.7 63.1 20.7
L 63.15 20.7
Q 63.9 20.25 64.5 20.25
M 64.8 20.35
L 64.9 21.05 64.7 21.2
Q 64.6 21.2 64.55 21.35
L 64.65 21.25
Q 65 21.7 65 22.3 65 23 64.6 23.6 65.6 22.8 65.6 21.7 65.6 21 65.15 20.6 65 20.45 64.8 20.35
M 51.5 22.25
L 51.35 22.15 51.4 21.7 50.85 22.3 50.75 22.75 50.9 22.85
Q 51 23 50.8 23.4
L 50.55 24.1 50.7 24.55 51.4 22.8
Q 51.55 22.45 51.5 22.25
M 47.4 23.1
Q 47.25 22.75 46.95 22.5
L 46.7 22.3 46.5 22.2 46.55 21.7 46 22.3 45.95 22.75 46.1 22.85 46.35 23.1
Q 46.65 23.35 46.8 23.7
L 48.7 28.45 48.7 31.05
Q 48.7 31.35 48.6 31.55
L 48.3 31.9 48.4 32.65 51.4 32.65 52 32.1 48.95 32.1 48.85 31.3 49.05 31.15
Q 49.1 31.15 49.2 30.95 49.3 30.75 49.3 30.45
L 49.3 27.85 47.4 23.1
M 41.75 32.65
L 42.35 32.1 39.3 32.1 39.2 31.3 39.4 31.15
Q 39.45 31.15 39.55 30.95 39.65 30.75 39.65 30.45
L 39.65 23
Q 39.65 22.55 39.5 22.35 39.4 22.3 39.2 22.2
L 39.25 21.7 38.7 22.3 38.6 22.75
Q 38.8 22.85 38.9 22.95 39.05 23.15 39.05 23.6
L 39.05 31.05
Q 39.05 31.3 38.95 31.55
L 38.6 31.9 38.75 32.65 41.75 32.65
M 42.7 28.4
L 42.35 28.5 42.35 29.8 42.75 31.2
Q 42.8 31.45 42.75 31.6
L 42.7 31.65 42.65 32.1 42.5 32.1 42.55 32.65 45.65 32.65 46.25 32.1 43.15 32.1 43.05 31.3 43.25 31.15
Q 43.3 31.15 43.35 31 43.4 30.85 43.35 30.65
L 42.7 28.4
M 31.75 22.5
L 31.4 22.85
Q 31.2 23.05 31.05 23.25 29.95 24.75 29.95 27.35 29.95 29.9 31.05 31.35 32.1 32.85 34 32.85 35.5 32.85 36.55 31.8
L 36.85 31.5
Q 35.9 32.3 34.6 32.3 32.65 32.3 31.55 30.7 30.55 29.2 30.55 26.7 30.55 24 31.75 22.5
M 27.85 24.4
Q 28.15 24.45 28.35 24.55 28.55 24.65 28.6 24.75
L 28.7 24.9 29.2 24.85 29.75 24.25 29.3 24.3 29.15 24.15
Q 29.15 24.05 28.95 23.95 28.7 23.85 28.4 23.85
L 27.85 23.85 27.85 24.4
M 23.75 24.3
L 22.95 24.2 23.15 21.7 22.55 22.3 22.35 24.8 23.15 24.9 23.55 24.5
Q 23.75 24.4 24 24.4
L 24.6 24.4 24.6 31.05
Q 24.6 31.35 24.5 31.55
L 24.2 31.9 24.3 32.65 27.3 32.65 27.85 32.1 24.85 32.1 24.75 31.3 24.95 31.15
Q 25.05 31.15 25.1 30.95 25.2 30.75 25.2 30.45
L 25.2 23.85 24.6 23.85
Q 24.35 23.85 24.1 23.95 23.9 24.05 23.85 24.15
L 23.75 24.3
M 13.8 30.7
Q 13.8 29.4 14.55 28.45
L 14.1 28.95
Q 13.25 29.85 13.25 31.3 13.25 32.9 14.35 34.1 15.6 35.35 17.5 35.35 18.4 35.35 19.2 35.05 20 34.7 20.65 34.1
L 20.9 33.8
Q 19.7 34.8 18.1 34.8 16.2 34.8 14.95 33.5 13.8 32.3 13.8 30.7
M 17.05 29.9
Q 16.8 29.9 16.7 30.1 16.55 30.25 16.5 30.5 16.65 30.5 16.75 30.65 16.85 30.75 16.85 30.85 16.85 31 16.75 31.15
L 16.95 31.3
Q 17.15 31.45 17.45 31.45 17.9 31.45 18.25 31.1
L 18.7 30.7
Q 18.4 30.85 18.05 30.85 17.75 30.85 17.55 30.7
L 17.3 30.6
Q 17.4 30.4 17.4 30.25 17.4 30.1 17.3 30 17.2 29.9 17.05 29.9
M 16.15 19.5
L 15.8 19.85
Q 14.9 20.8 14.9 22.3 14.9 23.6 15.6 24.8 16.1 25.6 17.2 26.65 17.8 27.25 18.1 27.6 18.65 27.85 18.95 28.3 19.3 28.8 19.3 29.4 19.3 29.65 19.2 29.85 19.25 30.05 19.25 30.35 19.25 31.2 18.85 31.85 19.1 31.7 19.25 31.5 19.85 30.85 19.85 29.75 19.85 28.7 19.25 27.75 18.8 27.05 17.8 26.05 16.7 25 16.2 24.2 15.5 23 15.5 21.7 15.5 20.4 16.15 19.5
M 21.05 22.25
L 20.45 22.25 20.35 22.05
Q 19.9 20.95 19.1 20.95 18.8 20.95 18.6 21.15 18.4 21.3 18.35 21.55 18.4 21.55 18.5 21.55 19.3 21.55 19.75 22.65
L 19.85 22.85 20.45 22.85 21.05 22.25
M 72.85 27.2
L 72.9 27.7 73.6 27.6 73.2 25.25 72.85 27.2
M 66.05 29.45
Q 66.3 28.9 66.3 28.25 66.3 27.25 65.8 26.6 65.4 26.2 64.9 26.05
L 64.45 26.2 64.45 26.7
Q 64.9 26.85 65.2 27.2 65.7 27.85 65.7 28.85 65.7 29.65 65.4 30.2 65.8 29.95 66.05 29.45
M 42.75 23.85
L 42.35 23.85 42.35 24.45
Q 42.65 24.45 42.85 24.65 43.05 24.85 43.05 25.2 43.05 25.5 42.85 25.8 43.1 25.65 43.2 25.45 43.6 25.05 43.6 24.55 43.6 24.2 43.4 24.05 43.15 23.85 42.75 23.85
M 33.75 24.25
Q 33.85 24.2 34 24.2 34.6 24.2 34.95 25.05 35.25 25.9 35.25 27.35 35.25 28.95 34.85 29.8 35.3 29.6 35.6 28.8 35.85 28 35.85 26.75
L 35.85 26.7
Q 35.85 25.3 35.5 24.45 35.15 23.65 34.6 23.65 34.05 23.65 33.75 24.25 Z"/>
</g>
</defs>

<g transform="matrix( 1, 0, 0, 1, 0,0) ">
<use xlink:href="#Layer1_0_FILL"/>
</g>

<g transform="matrix( 1, 0, 0, 1, 4.5,0.65) ">
<g transform="matrix( 0.180023193359375, 0, 0, 0.180023193359375, 0,0) ">
<use xlink:href="#Symbol_1_0_Layer1_0_FILL"/>
</g>

<g transform="matrix( 0.180023193359375, 0, 0, 0.180023193359375, 0,0) ">
<use xlink:href="#Symbol_1_0_Layer1_1_FILL"/>
</g>

<g transform="matrix( 0.180023193359375, 0, 0, 0.180023193359375, 0,0) ">
<use xlink:href="#Symbol_1_0_Layer1_2_FILL"/>
</g>

<g transform="matrix( 0.180023193359375, 0, 0, 0.180023193359375, 0,0) ">
<use xlink:href="#Symbol_1_0_Layer1_3_FILL"/>
</g>

<g transform="matrix( 1, 0, 0, 1, 0,0) ">
<use xlink:href="#Symbol_1_0_Layer1_4_FILL"/>
</g>

<g transform="matrix( 1, 0, 0, 1, 0,0) ">
<use xlink:href="#Symbol_1_0_Layer0_0_FILL"/>
</g>
</g>
</svg>
