
<svg xmlns="http://www.w3.org/2000/svg" version="1.1" xmlns:xlink="http://www.w3.org/1999/xlink" preserveAspectRatio="none" x="0px" y="0px" width="62px" height="28px" viewBox="0 0 62 28">
<defs>
<g id="Layer0_0_FILL">
<path fill="#000000" stroke="none" d="
M 60.55 4.05
Q 60.2 3.1 59.2 2.9 53.1 1.45 46.65 0.95 40.35 0.5 34 0.5 27.4 0.5 21.15 2.2 14.85 3.95 8.85 6.4
L 8.85 5.8
Q 8.85 5.15 9.3 4.65
L 9.3 5.65
Q 9.85 5.65 10.45 5.5 10.95 5.4 11.25 4.85 10.65 3.8 9.4 3.2 8.2 2.7 6.65 2.5 5.25 2.3 3.75 2.3
L 1.25 2.3 1.25 4.65 2.5 3.6 2.5 3.85 1.25 5.35 1.25 5.65
Q 1.75 5.05 2.3 4.65 2.9 4.2 3.45 3.85
L 1.25 6.15 1.25 6.45 2.8 5.25
Q 3.65 4.6 4.15 3.85
L 4.45 3.85 1.25 7.45 1.25 7.9 1.75 7.4
Q 1.15 8.1 1.15 8.85
L 1.25 9.2 3.55 6.95
Q 4.55 5.95 5.9 4.85
L 1.25 9.8 1.25 10.2
Q 1.85 9.3 2.75 8.65 3.6 8.05 4.45 7.15
L 4.45 7.45 1.25 10.65 1.25 11.25
Q 1.95 10.55 2.65 9.85 3.35 9.25 4.15 8.65
L 1.25 11.95 1.25 12.55 2.7 10.9
Q 3.45 10 4.45 9.5 4.3 9.9 3.85 10.35 3.5 10.85 2.95 11.45 2.65 11.8 2 12.45
L 1.25 13.3 1.25 13.5
Q 1.95 12.85 2.65 12.4 3.30625 11.91875 3.8 11.4
L 1.25 14.25 1.25 14.7 3.45 12.7 1.25 15.6 1.25 16.05
Q 1.7 15.55 2.25 14.85 2.8 14.15 3.2 13.7
L 3.25 13.8 1.25 16.55 1.25 17.05 2.75 15.5
Q 2.421875 15.896875 2.15 16.35 1.8 17 1.25 17.85
L 3.45 15.6 1.25 18.6 1.25 19.1
Q 1.75 18.3 2.4 17.6
L 3.65 16.25 3.65 16.55
Q 3 17.3 2.4 18.15 1.75 19.1 1.25 19.85
L 1.25 20.15 3.25 18.15 1.25 20.6 1.25 21.1
Q 1.65 20.45 2.15 19.85 2.65 19.2 3.25 18.8 2.8 19.6 2.05 20.45 1.25 21.35 1.25 22.35 1.8 21.95 2.05 21.35 2.35 20.75 2.9 20.3
L 2.9 20.6 1.25 23.15 1.25 23.75 3.45 21.1 3.55 21.2 2.3 22.75
Q 1.7 23.5 1.25 24.35
L 1.25 24.65 3.45 22.35 1.25 25.45 1.25 26.5 1.95 25.25
Q 2.35 24.6 2.9 24.15 2.55 25.05 1.9 25.75 1.25 26.5 1.25 27.5
L 10 27.5
Q 10.65 27.5 11.1 27 11.6 26.55 11.8 25.85 12.1 25.15 12.25 24.4
L 12.45 23.15
Q 14.1 23.3 16.1 23.35 17.75 23.45 19.75 23.45 22.65 23.45 25.3 23 27.95 22.55 30.85 22.55 31.85 22.55 32.7 23.15
L 32.25 23.45 32.05 23.15 30.9 23.75 30.7 23.75 30.7 24.35
Q 30.2 23.75 29.55 22.95
L 28.75 23.2 28.6 23.15 28.75 23.55
Q 28.8 23.8 28.75 23.95 28.15 23.15 27.35 23.15
L 28.05 24.15 26.1 23.15 25.35 23.95 24.7 23.5 24.9 24.35
Q 24.65 23.95 24.25 23.85 23.8 23.75 23.4 23.75 24.15 24.75 25.05 25.85 25.95 27 27.35 27 28.7 27 29.95 26.75 31.3 26.5 32.5 26.5 33.5 26.5 34.25 25.85 34.95 25.25 35.95 25.25 37.5 25.25 38.75 26 40.05 26.75 41.6 26.75 43.05 26.75 44.4 26.1 45.7 25.45 45.7 23.65 45.7 22.2 44.95 21.35 44.45 20.85 43.35 19.6 44.05 18.7 44.4 17.75 44.8 16.8 44.8 15.65 44.8 14.8 44.4 13.7 44.05 12.7 43.4 11.6 42.75 10.55 41.95 9.8 41.2 9.05 40.3 8.65
L 39.7 9.05
Q 40.9 10.55 42.05 12.2 43.2 13.85 43.2 15.8 43.2 16.25 43.05 16.75 43 17.35 42.75 17.85 42.55 18.4 42.25 18.7 41.95 19.1 41.45 19.1 40.4 18.35 39.45 17.65 38.45 16.95 37.35 16.55
L 38.6 16.55 38.1 16.05 38.8 16.05 38.3 15.6 37.9 15.6
Q 37.9 15.3 38.1 15.25 38.35 15.15 38.6 15.15 38.9 15.15 39.15 15.1 39.4 15 39.55 14.7
L 38.6 14.25 39.3 14.25
Q 38.95 13.85 38.5 13.8 38.05 13.7 37.6 13.5
L 39 13.5 37.6 12.7 38.6 12.7 37.15 11.95 38.1 11.95 36.35 11.25
Q 37 11.25 37.5 11.3 38.05 11.4 38.6 11.75 37.85 10.9 36.9 10.7 37.3 10.75 37.7 10.75 38.2 10.8 38.6 10.95
L 38.6 10.65 35.95 9.95 36.15 9.2
Q 36.55 9.8 37.35 10 38.05 10.2 38.8 10.2
L 38.8 9.95 37.15 9.5 36.85 9.2
Q 37.4 9.2 37.8 9.35 38.25 9.5 38.8 9.5
L 38.8 9.2 37.15 8.65
Q 38.3 8.5 39.6 8.2 40.9 7.9 42.2 7.9 43.25 7.9 44.25 8.15 45.25 8.4 46.3 8.4 47.3 8.4 48.3 8.25 49.35 8.1 50.3 8.1 51.25 8.1 52.2 8.5 53.15 8.9 54.1 8.9 54.95 8.9 56 8.85 57.1 8.8 58.25 8.45 59.35 8.1 60.15 7.55 60.95 6.95 60.95 5.85 60.95 5 60.55 4.05
M 57.7 5.45
Q 57 5.45 56.3 5.3 55.6 5.15 55.15 4.55
L 55.45 3.85
Q 56.6 3.85 57.5 4.05
L 59.55 4.35
Q 59.55 5.15 58.9 5.3 58.25 5.45 57.7 5.45
M 36.5 13.15
Q 36.6 13.3 36.65 13.65 36.8 14.05 36.8 14.15 36.8 14.7 36.45 15.35 36.05 15.95 35.45 15.95
L 35.3 15.9 35.7 15.35
Q 35.9 15.05 36 14.7
L 35.5 14.7 35.75 14.95 35.4 15.1
Q 35.2 15.15 35.05 15.15
L 34.8 15.15 35.05 14.85 34.8 14.7
Q 35.2 14.5 35.6 14.3 36.1 14.15 36.5 14.15
L 35.3 13.65 36.5 13.15
M 35.05 12.4
Q 35.05 12.75 34.8 13.15
L 35.5 13.15
Q 34.9 13.3 34.55 13.95 34.2 14.55 34.05 15.15
L 33.75 15.15
Q 33.75 14.4 34.25 13.4
L 35.05 11.7 35.05 12.4
M 32.95 12.9
Q 33.35 13.05 33.5 13.3
L 32.95 13.3 32.95 12.9
M 30.65 12.45
L 31.15 12.45 31.15 13 30.65 12.45
M 30.85 14.15
L 31.5 13.7 31.15 14.55 30.85 14.15
M 16.55 4.85
L 16.65 4.8 16.9 5.15 16.75 5.2 16.55 4.85
M 14.8 5.2
L 15.15 4.85 15.15 5.2 14.8 5.2
M 10.75 7
L 10.15 7.45 9.95 7 10.45 6.75 10.75 7
M 11.7 6.45
L 11.9 6.8 11.7 7.15 11.4 6.8 11.7 6.45
M 7.6 5.15
L 8.05 5.65
Q 8.05 6.6 7.8 7.45 7.6 8.25 7.6 9.2 7.6 14.55 7.8 19.6 7.85 21 8.25 22.25 8.6 23.65 8.6 25.05 8.6 25.3 8.5 25.6
L 6.8 25.15 6.65 22.25
Q 6.6 21.55 6.45 20.55 6.35 19.85 6.1 19.6
L 6.1 9.7
Q 6.1 8.5 6.35 7.25 6.6 6.05 7.05 5.05 7.5 4.05 8.35 3.85 8.1 4.1 7.85 4.45 7.65 4.8 7.6 5.15
M 9.05 8.35
L 8.7 8.55
Q 8.7 7.95 9.3 7.95 9.3 8.2 9.05 8.35
M 8.95 11.1
L 9.2 10.5 9.4 10.75 8.95 11.1
M 9.95 9.85
L 9.95 9.55 10.15 9.85 9.95 9.85
M 3.55 5.4
Q 4.45 4.35 5.6 4.35 4.65 5.05 3.65 5.7 3.05 6.05 2.5 6.55 3.15 5.85 3.55 5.4
M 8.85 14.5
L 8.85 14 9.75 15.8 10 15.3 10.3 16.05 10 16.2 11 18.6 11 18.8 10.75 18.6 8.85 14.5
M 9.1 16.55
L 9.75 17.85 9.75 18.15
Q 9.25 17.5 9.1 16.55
M 5 22.7
L 4.7 22.7 4.7 20.15 5 22.7
M 5.4 24.45
L 5.6 24.6 5.4 24.75 5.15 24.6 5.4 24.45
M 9.1 21.1
L 9.3 21.1 11 22.1
Q 10.7 22.55 10.65 23.4 10.6 24.2 10 24.35 9.65 23.55 9.45 22.75 9.25 22 9.1 21.1
M 13.2 20.95
L 12.85 21.4 12.45 21.2 12.8 20.95 13.2 20.95
M 11.95 20.5
Q 12.3 20.6 12.45 20.95
L 12.3 21.05 10.55 21.05 10.55 20.9 11.35 20.3 11.95 20.5
M 14.45 22.05
L 14.05 21.75 14.35 21.35 15.5 21.4
Q 15.1 21.7 15 21.75
L 14.45 22.05
M 16.85 21.5
L 17.25 21.65
Q 17.25 21.9 17 22
L 16.55 22.1 16.85 21.5
M 9.65 24.95
L 10.1 26.2 9.2 26.65 9.65 25.85 9.65 24.95
M 5.75 25.75
Q 6.1 25.75 6.4 25.95 6.7 26.1 7.1 26.1
L 6.3 26.65 5.75 25.75
M 2.75 26.25
Q 2.9 25.7 3.25 25.2 3.65 24.65 3.95 24.35 3.8 24.85 3.55 25.5 3.3 26.1 2.75 26.25
M 56.8 6
L 58.8 6.15
Q 58.55 6.85 58.05 7 57.5 7.25 56.9 7.25 56.15 7.25 55.5 7 54.85 6.75 54.1 6.6
L 53.7 7.45 53.45 7 53.5 6.6 52.95 6.6 52.95 7.45 52.85 7.4 52.25 7.7 52.45 6.95 52.25 6.6 51.25 7.15 51.5 6.4 51.25 6.15 50.7 6.6 50.15 5.85 49.3 6.15 49.3 6.6 48.05 5.35 48.35 6.6 47.9 6.4 47.35 6.6 46.85 5.85 46.85 6.6
Q 46.5 6.15 46.3 5.75 46.05 5.25 45.75 4.85 45.7 4.9 45.55 5.6
L 45.4 6.4
Q 45.05 6.1 45 5.75 44.95 5.35 44.45 5.35
L 43.45 5.85
Q 43.4 5.55 43.25 5.2
L 43 4.65 42.7 5.3 42.5 5.15 42.5 6.15 41.8 4.85 40.55 6.15 40.4 6.1 39.85 6.4 39.3 5.85 38.8 6.15 38.3 5.65 37.9 5.85 37.6 5.65 38.1 6.95 37.6 6.6 37.15 6.95 36.85 6.6 36.35 6.95 35.65 6.15 34.9 6.6 34.2 6.4 33.7 6.95
Q 33.1 6.95 32.55 6.75 32.05 6.55 31.4 6.4
L 31.2 6.45 32.7 7.9
Q 32.35 7.9 32.3 8.25 32.25 8.6 32.25 8.9 32.25 9.35 32.5 9.55 32.7 9.75 33 9.95 33.2 10.15 33.45 10.45 33.7 10.7 33.7 11.25
L 32.95 10.65 32.5 10.95 32.95 12.25 32.5 11.95
Q 32.4 12.25 32.35 12.6
L 32.25 13.3 32.05 13
Q 31.9 12.3 31.6 11.55 31.25 10.8 30.6 10.45 30.2 10.45 29.95 10.8 29.75 11.15 29.6 11.55
L 30.1 11.95 29.55 12.55 29.3 12.55 28 11.55
Q 26.9 10.8 26.4 10.5 25.5 10 24.7 9.65 23.85 9.3 23.2 9.2 23.8 10.9 26.05 12.4 28.2 13.9 31 15.25 33.35 16.35 36.45 17.65 39.2 18.8 40.65 19.65 40.2 19.95 40 20.75 39.85 21.5 39.85 22.1 39.85 23.1 40.65 23.65 41.5 24.2 42.3 24.2 42.85 24.2 43.2 23.9 43.6 23.5 43.6 22.95 43.6 22.8 43.5 22.5
L 43.35 22.1
Q 43.35 22.65 43.05 23.05 42.8 23.45 42.2 23.45 41.65 23.45 41.1 23.15 40.55 22.85 40.55 22.2 40.55 21.65 40.8 21 41.1 20.4 41.7 20.4 42 20.4 42.4 20.7 42.85 20.95 43.2 21.35 43.6 21.75 43.9 22.2 44.15 22.65 44.15 22.95 44.15 23.95 43.6 24.45 43.05 24.95 42.05 24.95 41.4 24.95 40.65 24.5 39.9 24.1 39.3 23.75
L 38.8 23.95 38.1 22.95 37.9 22.95 38.1 23.75 36.65 22.1 37.15 23.75
Q 36.8 23.5 36.65 23.2 36.5 22.8 36.35 22.5 36.2 22.1 35.95 21.85 35.75 21.65 35.4 21.65
L 34.9 21.9 34.45 21.1 34 21.65 34.45 21.4 34 22.1
Q 33.6 21.8 33.2 21.3
L 32.5 20.3 32.85 21.75 32.25 21.1 31.75 21.4 31 19.85 30.9 20
Q 31.05 20.25 31.2 20.7 31.35 21.1 31.25 21.4
L 30.3 19.75 30.3 21.1
Q 29.95 20.55 29.8 19.75 29.65 18.95 29.05 18.6 29.05 19.25 29.25 19.85 29.55 20.45 29.55 21.1 29.2 20.45 29.1 19.45 29.05 18.5 28.35 18.15 28.35 18.8 28.5 19.4
L 28.75 20.6 28.6 20.6 27.55 17.55 27.55 19.5
Q 27.5 19.1 27.25 18.65 27 18.15 26.65 18.15
L 26.4 18.8 25.75 18.3 25.55 18.45 26.4 19.85 26.4 20.15 25.6 19.6 25.9 20.6
Q 25.45 20.2 25.05 19.45 24.75 18.8 23.95 18.8
L 24.7 20.3 23.4 19.1 23.6 19.6
Q 23.75 20 23.7 20.15 23.4 19.85 23.1 19.6
L 22.5 19.1 22.9 20.3 22.5 20.15 22 20.3 21 19.35 21.25 20.3 20.25 19.35 20.75 20.9 20.05 20.3 19.5 20.6
Q 19.3 20.3 19.05 19.95 18.8 19.6 18.6 19.35
L 18.6 20.1 17.8 19.35 17.55 19.35 18.35 20.9 18.35 21.1
Q 17.9 20.65 17.45 20.15 17.05 19.65 16.7 19.1
L 16.35 19.1 17.35 20.9 17.35 21.1 16.75 20.35
Q 16.5 20 16.15 19.6
L 15.6 19.85 15.6 19.35 15.65 19.45 15.85 19.15 14.7 18.8 15.4 20.3 15.4 20.6 14.7 19.85 14.7 20.8 14.05 19.75
Q 14.25 19.5 14.45 19.6 14.45 19.2 14.25 18.7 14.05 18.3 13.65 18.15
L 13.65 18.8
Q 13.2 18.55 13 18.15 12.8 17.75 12.45 17.35
L 13.45 19.85 13.45 20.15 10.75 15 10.75 14.7
Q 10.85 15.15 11.1 15.5 11.4 15.8 11.75 16.05 11.7 15 11.1 13.85
L 10 11.75 10 11.45
Q 10.6 11.8 10.75 12.6 10.95 13.35 11.45 13.8
L 11.45 12.55 11 12.7 11.25 11.95 11 11.25 10.75 11.75
Q 10.75 11.1 11 10.45
L 11.75 11.95 11.95 11.95 11.95 11.75 11.25 9.3
Q 11.55 9.8 11.9 10.2 12.228125 10.621875 12.25 11.1 12.240625 10.6158203125 12.1 10.1 11.95 9.5 11.95 8.9
L 12.75 10.45 13.1 10.1 12.95 9.55 13.45 9.95 13.2 8.65 13.9 9.5 13.45 7.9 13.9 8.1 14.45 7.9 14.7 8.1 14.45 6.95
Q 14.8 7.2 14.95 7.5 15.15 7.85 15.4 8.1
L 15.6 8.1 15.1 6.95 16.15 7.9 16.15 7.15 16.85 7.7 16.7 6.6 17.55 7.15 17.6 7
Q 17.45 6.7 17.25 6.4
L 16.85 5.85 18.25 6.95 18.35 6.95 17.8 5.85 18.1 5.85 18.8 6.6 19.05 6.4 18.35 5.35
Q 19 5.75 19.1 5.75 19.45 5.95 19.85 6.25
L 20.05 6.15 19.35 5.15 19.4 5.05 20.45 5.85 20.75 5.65 20.45 5.15
Q 20.85 5.1 21.1 5.2
L 21.7 5.35
Q 21.7 5 21.35 4.75 21 4.45 20.75 4.35 21.3 4.35 21.8 4.6 22.35 4.85 22.9 4.85
L 22 4.15
Q 22.55 4.15 23 4.4 23.4 4.65 23.95 4.65
L 23.95 4.35 22.9 3.85
Q 23.5 3.85 24.1 4 24.75 4.15 25.35 4.15
L 23.95 3.4
Q 24.45 3.4 25.05 3.6 25.55 3.85 26.1 3.85 26.2 3.85 26.5 3.75
L 26.85 3.6 25.15 3.05
Q 25.85 3.05 26.6 3.2 27.25 3.4 28.05 3.4
L 28.05 3.05 26.1 2.55
Q 26.9 2.65 27.9 2.75 28.75 2.8 29.75 2.8 29.25 2.75 28.85 2.55
L 28.05 2.1
Q 28.8 2.1 29.6 2.35 30.35 2.6 31.15 2.6
L 31.5 2.55 29.8 1.9
Q 30.55 1.9 31.5 2.1 32.35 2.3 33.15 2.3
L 32.25 1.9 34.2 2.1 34.45 1.9
Q 39.15 1.9 43.9 2.35 48.45 2.8 53.2 3.4 53.9 4.35 54.5 4.95 55.05 5.5 55.55 5.75 56.1 5.95 56.8 6 Z"/>
</g>
</defs>

<g transform="matrix( 1, 0, 0, 1, 0,0) ">
<use xlink:href="#Layer0_0_FILL"/>
</g>
</svg>
