<svg xmlns="http://www.w3.org/2000/svg" xmlns:xlink="http://www.w3.org/1999/xlink" viewBox="0 0 280.25 344.51"><defs><style>.cls-1{fill:none;}.cls-2{clip-path:url(#clip-path);}.cls-3{fill:#a7a9ac;}.cls-4{fill:#231f20;}.cls-5{fill:#bcbec0;}</style><clipPath id="clip-path" transform="translate(0 0)"><rect class="cls-1" width="280.25" height="346"/></clipPath></defs><title>Asset 1</title><g id="Layer_2" data-name="Layer 2"><g id="Layer_1-2" data-name="Layer 1"><g class="cls-2"><path class="cls-3" d="M140.06,318.26a1.11,1.11,0,0,1-.82-.32,1.09,1.09,0,0,1-.32-.83,1.3,1.3,0,0,1,.32-.89,1,1,0,0,1,.82-.38,1.13,1.13,0,0,1,1.28,1.27,1,1,0,0,1-.38.83,1.4,1.4,0,0,1-.9.32m31.87,2.68a1.07,1.07,0,0,1,1.14,1.14,1.39,1.39,0,0,1-.31.9,1.05,1.05,0,0,1-.83.38,1,1,0,0,1-.83-.38,1.4,1.4,0,0,1-.32-.9,1.15,1.15,0,0,1,.32-.83,1.12,1.12,0,0,1,.83-.31m-63.6,0a1.07,1.07,0,0,1,1.14,1.14,1.39,1.39,0,0,1-.31.9,1.05,1.05,0,0,1-.83.38,1,1,0,0,1-.83-.38,1.4,1.4,0,0,1-.32-.9,1.15,1.15,0,0,1,.32-.83,1.12,1.12,0,0,1,.83-.31m31.73,9.43a1.13,1.13,0,0,0-.89.44,1.48,1.48,0,0,0-.38,1,1.23,1.23,0,0,0,.38.89,1.2,1.2,0,0,0,.89.38,1.43,1.43,0,0,0,1-.38,1.12,1.12,0,0,0,.44-.89,1.43,1.43,0,0,0-.38-1,1.25,1.25,0,0,0-1-.44m42.06-12.88a3.09,3.09,0,0,1-1.27,2.36,5.81,5.81,0,0,1-3.83,1.09,8.39,8.39,0,0,1-3.31-.71q-1.65-.69-4.08-2a39.69,39.69,0,0,0-4.27-2.1,9.46,9.46,0,0,0-3.63-.7h-.25a10.16,10.16,0,0,1,6.3,4.07,10.87,10.87,0,0,1,2.11,6.25,5.33,5.33,0,0,1-.7,2.8,2.11,2.11,0,0,1-1.85,1.15c-.94,0-1.4-.43-1.4-1.27,0-.51.12-.77.38-.77,0,.17.13.26.38.26a1.51,1.51,0,0,0,1.28-.83,3.57,3.57,0,0,0,.51-1.85v-.13a2,2,0,0,0-.45-1.53,5.59,5.59,0,0,0-1.08-.7,1,1,0,0,1-.64-1l.13-.5a2.13,2.13,0,0,1-.77.25,1,1,0,0,1-.89-.38,1.71,1.71,0,0,0,.76-1.53,2,2,0,0,0-1-1.79,13.46,13.46,0,0,0-7.64-2.29h-.26a10.57,10.57,0,0,1,4.65,2.87,10.15,10.15,0,0,1,2.49,4.52,15,15,0,0,1,.64,5.36,9.32,9.32,0,0,1-.39,2.93,5.85,5.85,0,0,0-2.1,1.08,15.11,15.11,0,0,1-1.34,1,8.46,8.46,0,0,1-5.22,1.53,6.28,6.28,0,0,1-5-2,7,7,0,0,1-1.79-4.72,5.68,5.68,0,0,1,1-3.44,2.16,2.16,0,0,1-1.15-.32.94.94,0,0,1-.5-.83c0-.42.16-.63.5-.63h.26v.25c0,.34.25.51.77.51a2,2,0,0,0,1.65-.89,3.41,3.41,0,0,0,.64-2,1,1,0,0,0-.51-1,.9.9,0,0,1,.89-.64c.77,0,1.15.55,1.15,1.66a1,1,0,0,1-.13.64,1.3,1.3,0,0,1,.64.44,3.17,3.17,0,0,1,.38.58h-.13a3.92,3.92,0,0,1,4.21,3.95,3.59,3.59,0,0,1-1,2.74,3.3,3.3,0,0,1-2.29.95c-1.2,0-1.79-.55-1.79-1.65a1.69,1.69,0,0,1,.45-1.15,1.51,1.51,0,0,1,1.21-.51,2.49,2.49,0,0,1,1.27.38.12.12,0,0,0,.13.13c.17,0,.25-.09.25-.26a.7.7,0,0,0,.13-.51,2.19,2.19,0,0,0-.7-1.59,2.49,2.49,0,0,0-1.85-.7,3.53,3.53,0,0,0-2.8,1.15,4.06,4.06,0,0,0-1,2.8,5.09,5.09,0,0,0,1.4,3.57,4.78,4.78,0,0,0,3.7,1.53,6.52,6.52,0,0,0,5.22-2.23,7.85,7.85,0,0,0,1.92-5.29v-.51l-.39.13a1.41,1.41,0,0,1-.89-.51l-.64.12h-.38v-.12a4,4,0,0,0,.26-1.66,7.12,7.12,0,0,0-.7-2.93,5.51,5.51,0,0,0-2.11-2.42,11.81,11.81,0,0,0-4.59-.89,10.23,10.23,0,0,0-5.92,1.78,7.47,7.47,0,0,0-3.13,5.48h.64a.64.64,0,1,1,0,1.27h-.76v.26a6.31,6.31,0,0,0,.38,2.36c.25.63.55,1,.89,1.08a.75.75,0,0,1-.51.13,1.74,1.74,0,0,1-1.4-1,5.24,5.24,0,0,1-.64-2.81H140.7a9.37,9.37,0,0,0,1.21,5,3.14,3.14,0,0,0,2.61,1.53H145a1.38,1.38,0,0,1,.13.64,1.1,1.1,0,0,1-.64,1.15,2.52,2.52,0,0,0,1.28.38,2.29,2.29,0,0,0,1.46-.45,1.43,1.43,0,0,0,.58-1.21,1.59,1.59,0,0,1,1,1.66,2.3,2.3,0,0,1-1,1.91,3.93,3.93,0,0,1-2.42.77,4.26,4.26,0,0,1-4.08-2.81q.63,4.72,2.67,5.61a2.36,2.36,0,0,1-1.27.7,3.3,3.3,0,0,0-1.66,1.15,5.16,5.16,0,0,0-.63,3h-.64a5.15,5.15,0,0,0-.64-3,3.26,3.26,0,0,0-1.66-1.15,3.46,3.46,0,0,1-1.4-.7c1.28-.59,2.21-2.46,2.81-5.61a4.58,4.58,0,0,1-4.21,2.81,3.66,3.66,0,0,1-2.36-.77,2.36,2.36,0,0,1-.95-1.91,1.58,1.58,0,0,1,1-1.66,1.44,1.44,0,0,0,.57,1.21,2.3,2.3,0,0,0,1.47.45,2.08,2.08,0,0,0,1.27-.38,1.1,1.1,0,0,1-.64-1.15,1.38,1.38,0,0,1,.13-.64h.38a3.32,3.32,0,0,0,2.68-1.53c.76-1,1.15-2.67,1.15-5h-1.79a6.74,6.74,0,0,1-.7,2.81c-.38.68-.83,1-1.34,1a1.44,1.44,0,0,1-.63-.13c.42-.09.76-.45,1-1.08a6.3,6.3,0,0,0,.39-2.36v-.26h-.77c-.51,0-.76-.21-.76-.63s.25-.64.76-.64h.64a8.38,8.38,0,0,0-2.68-5.1,9.11,9.11,0,0,0-6.5-2.16,12.17,12.17,0,0,0-4.46.89,7,7,0,0,0-2.1,2.35,6.19,6.19,0,0,0-.83,3.13,3.46,3.46,0,0,0,.38,1.53V325h-.38l-.64-.12a1.38,1.38,0,0,1-.89.51l-.38-.13v.51a7.89,7.89,0,0,0,1.91,5.29,6.54,6.54,0,0,0,5.23,2.23,4.77,4.77,0,0,0,3.69-1.53,4.94,4.94,0,0,0,1.4-3.44,4.39,4.39,0,0,0-1-2.93,3.68,3.68,0,0,0-3-1.15,2.29,2.29,0,0,0-2.42,2.29.7.7,0,0,0,.13.51c0,.17.08.26.25.26a.12.12,0,0,0,.13-.13,2.11,2.11,0,0,1,1.28-.38,1.75,1.75,0,0,1,1.65,1.66,1.53,1.53,0,0,1-.51,1.21,2.1,2.1,0,0,1-1.4.44,3.18,3.18,0,0,1-2.17-.95,3.59,3.59,0,0,1-1-2.74,4,4,0,0,1,1.09-2.74,3.8,3.8,0,0,1,3-1.21c.09,0,.19-.15.32-.45a.93.93,0,0,1,.58-.57v-.64c0-1.11.38-1.66,1.14-1.66a.91.91,0,0,1,.9.64,1.14,1.14,0,0,0-.64,1,3.25,3.25,0,0,0,.7,2,2.06,2.06,0,0,0,1.72,1c.51,0,.76-.17.76-.51V323h.26c.25,0,.38.21.38.63,0,.77-.55,1.15-1.66,1.15a5.9,5.9,0,0,1,1,3.57A6.85,6.85,0,0,1,129.8,333a6.13,6.13,0,0,1-4.9,2,8.83,8.83,0,0,1-5.23-1.53,12.34,12.34,0,0,0-1.34-1,6.33,6.33,0,0,0-2.1-1,9.27,9.27,0,0,1-.51-2.93,25.38,25.38,0,0,1,.19-2.94,13.33,13.33,0,0,1,.45-2.42,11.62,11.62,0,0,1,2.55-4.65,9.3,9.3,0,0,1,4.71-2.74h-.38a12.88,12.88,0,0,0-7.52,2.29,2,2,0,0,0-1,1.79,1.71,1.71,0,0,0,.76,1.53c-.08.25-.38.38-.89.38a2.09,2.09,0,0,1-.76-.25v.5a1.17,1.17,0,0,1-.7,1,3,3,0,0,0-1,.82,2.54,2.54,0,0,0-.32,1.47,3.48,3.48,0,0,0,.51,1.85,1.48,1.48,0,0,0,1.27.83c.26,0,.39-.09.39-.26.25,0,.38.21.38.64a1.6,1.6,0,0,1-.32.95,1.24,1.24,0,0,1-1.08.45,2.08,2.08,0,0,1-1.85-1.15,5.5,5.5,0,0,1-.7-2.93,10.56,10.56,0,0,1,2.16-6.12,10.41,10.41,0,0,1,6.25-4.07h-.38a10.13,10.13,0,0,0-3.64.7,29,29,0,0,0-4.27,2.1c-3.06,1.78-5.48,2.68-7.26,2.68a6,6,0,0,1-3.89-1,3.08,3.08,0,0,1-1.21-2.43,2.1,2.1,0,0,1,.38-1.27,1.22,1.22,0,0,1,1-.51,1.91,1.91,0,0,1,1,.25.83.83,0,0,1,.45.77.4.4,0,0,0-.39.26,1.13,1.13,0,0,0-.13.5,1.54,1.54,0,0,0,.71,1.28,4.09,4.09,0,0,0,2.35.51,3.8,3.8,0,0,0,2.62-.77c.55-.51,1-.76,1.21-.76a.5.5,0,0,1,.38.13v-.51a1.58,1.58,0,0,1,.38-1.15,3.56,3.56,0,0,0,1.79.38,6.1,6.1,0,0,0,2.8-.64,14.89,14.89,0,0,1,5.35-1.14,4.24,4.24,0,0,1,1.41.13l.51-.13a2,2,0,0,1,.76.25L123,315q1,0,1,.63a22,22,0,0,1,3.06-.25,10.46,10.46,0,0,1,7.52,2.67,9.37,9.37,0,0,1,3.06,6.25h1.79a24,24,0,0,0-.32-2.74,10.94,10.94,0,0,1-.19-1.08l1.14-.9,1.28.9c0,.08-.07.44-.19,1.08a21.9,21.9,0,0,0-.32,2.74h1.78a9.37,9.37,0,0,1,3.06-6.25,10.46,10.46,0,0,1,7.52-2.67,11.87,11.87,0,0,1,3.06.38.61.61,0,0,1,.51-.64,4,4,0,0,1,.64-.12h-.26l2.42.12a.87.87,0,0,1,.64-.25l.64.13a4.17,4.17,0,0,1,1.4-.13,14.2,14.2,0,0,1,5.35,1.14,6.14,6.14,0,0,0,2.81.64,3.11,3.11,0,0,0,1.78-.38,1.54,1.54,0,0,1,.38,1.15.79.79,0,0,1-.12.51l.51-.13c.16,0,.53.25,1.08.76a4,4,0,0,0,2.74.77,4.15,4.15,0,0,0,2.36-.51,1.55,1.55,0,0,0,.7-1.28,1,1,0,0,0-.13-.5.39.39,0,0,0-.38-.26.84.84,0,0,1,.44-.77,1.91,1.91,0,0,1,1-.25,1.2,1.2,0,0,1,1,.51l.38.51Z" transform="translate(0 0)"/><path class="cls-3" d="M195.78,230.78a9.58,9.58,0,0,0,3.57-.9,4.19,4.19,0,0,0,2.15-2.38q1.53,4.62,6.8,6.93a116.36,116.36,0,0,1-12.52-3.65m54.5-1.67q-1,0-1-.39c0-.26.52-.57,1.57-.93a22.73,22.73,0,0,1,4.65-.87.73.73,0,0,0,.32-.06,13.51,13.51,0,0,1-2.82,1.57,7.36,7.36,0,0,1-2.76.68m15-8.22c.64.09,1.46-.48,2.47-1.7A16.38,16.38,0,0,0,270.4,214a25,25,0,0,0,1.12-7.83,19.9,19.9,0,0,0-1.18-7.22c-.8-2-1.85-3-3.18-3a1.46,1.46,0,0,0-1,.29.79.79,0,0,0-.36.61c0,.13,0,.21.07.25a1,1,0,0,1,.64-.12,3.4,3.4,0,0,1,2.44,1.34q1.21,1.35,1.73,5a2.54,2.54,0,0,0-.71.77,1.06,1.06,0,0,0-.77.16.86.86,0,0,0-.38.55,1.57,1.57,0,0,1,1.35,1.12,7,7,0,0,1,.45,2.73,18.48,18.48,0,0,1-1.45,6.77,13,13,0,0,1-3.88,5.55m12.45-28.43a.18.18,0,0,0-.06-.23.7.7,0,0,0-.39-.09.64.64,0,0,0-.51.22.81.81,0,0,0-.2.55,1.34,1.34,0,0,0,.39.93,1.4,1.4,0,0,0,1.09.41,2,2,0,0,0,1.57-.67,2.35,2.35,0,0,0,.61-1.64,2,2,0,0,0-.7-1.63,2.55,2.55,0,0,0-1.74-.61,3.66,3.66,0,0,0-2.95,1.7,7.35,7.35,0,0,0-1.28,4.52,13.72,13.72,0,0,0,.06,1.48,14.1,14.1,0,0,0-4.94-6.2,13.31,13.31,0,0,0-7.77-2.27,12.89,12.89,0,0,0-5.29,1.12,11.76,11.76,0,0,0-4.21,3.08,7.81,7.81,0,0,0-1.92,4.2c0,.18-.13.95-.26,2.32a3.56,3.56,0,0,1-1,2.63,1.72,1.72,0,0,0,.38,1,1.09,1.09,0,0,0,.9.39.81.81,0,0,0,.83.7.61.61,0,0,0,.45-.19,7.06,7.06,0,0,0,2.54,2.34,7.34,7.34,0,0,0,3.62.87,6.91,6.91,0,0,0,5.27-1.9A6.29,6.29,0,0,0,264,201a5.17,5.17,0,0,0-1.05-3.27,3.52,3.52,0,0,0-2.93-1.35,3.62,3.62,0,0,0-1.54.26,5.09,5.09,0,0,0,.13-1,2.08,2.08,0,0,0-.32-1.22,1,1,0,0,0-.83-.45.61.61,0,0,0-.45.19.55.55,0,0,0-.19.38.3.3,0,0,0,.06.2.48.48,0,0,1,.58.13,1.15,1.15,0,0,1,.25.83,2.7,2.7,0,0,1-.8,1.89,2.91,2.91,0,0,1-1.57,1c0,.21.15.32.45.32a1.61,1.61,0,0,0,.71-.19,4.83,4.83,0,0,0-.13.9,2.21,2.21,0,0,0,.57,1.57,1.84,1.84,0,0,0,1.35.61,2,2,0,0,0,1.16-.36,1.07,1.07,0,0,0,.51-.93.88.88,0,0,0-.13-.51.41.41,0,0,0-.38-.19l-.26.06c.09,0,.12.14.1.29a.81.81,0,0,1-.26.45.92.92,0,0,1-.67.22,1,1,0,0,1-.81-.35,1.42,1.42,0,0,1-.29-.93,2.35,2.35,0,0,1,.71-1.64,2.62,2.62,0,0,1,2-.73,2.78,2.78,0,0,1,2.34,1.12,4.33,4.33,0,0,1,.87,2.73,5.2,5.2,0,0,1-1.57,3.78,6.07,6.07,0,0,1-4.53,1.61,6.28,6.28,0,0,1-5-2.15,7.71,7.71,0,0,1-1.83-5.17,9.72,9.72,0,0,1,.58-3.27,9,9,0,0,1,1.73-2.89,1.18,1.18,0,0,0,.07,1,.75.75,0,0,0,.64.41.67.67,0,0,0,.51-.19,1.54,1.54,0,0,1-.19-.77,2.66,2.66,0,0,1,1.64-2.22,11.07,11.07,0,0,1,3.43-1.25,13.85,13.85,0,0,1,2.31-.19,12.34,12.34,0,0,1,7.19,2.09,13.33,13.33,0,0,1,4.62,5.68,19.29,19.29,0,0,1,1.61,8,26.3,26.3,0,0,1-2.63,11.16A30.81,30.81,0,0,1,264,226.8a19.33,19.33,0,0,0-5.9-.84,15.31,15.31,0,0,0,2.82-4.59,13,13,0,0,0,1-4.72,6.59,6.59,0,0,0-1.06-3.88,3.38,3.38,0,0,0-2.92-1.51,3.59,3.59,0,0,0-2.5.93,3,3,0,0,0-1,2.35,2.82,2.82,0,0,0,.61,1.83,2,2,0,0,0,1.58.73,2.14,2.14,0,0,0,1.63-.64,2,2,0,0,0,.61-1.41,1.51,1.51,0,0,0-.42-1.16,1.44,1.44,0,0,0-1-.38,1.4,1.4,0,0,0-.83.22.77.77,0,0,0-.33.68.7.7,0,0,0,.13.42.43.43,0,0,0,.32.16c.13,0,.22,0,.26-.07a.33.33,0,0,1-.13-.19.34.34,0,0,1,.16-.26.61.61,0,0,1,.35-.13c.43,0,.65.26.65.77a1,1,0,0,1-.45.84,1.57,1.57,0,0,1-.9.32,1.23,1.23,0,0,1-1-.51,2,2,0,0,1-.38-1.22,2.37,2.37,0,0,1,.7-1.7,2.85,2.85,0,0,1,4.46.83,6.45,6.45,0,0,1,.61,3.63.66.66,0,0,0-.57-.26h-.13c-.26,0-.47.17-.64.51a1.25,1.25,0,0,1,.57.65,2.86,2.86,0,0,1,.26,1.28,4.46,4.46,0,0,1-.19,1.15,14.7,14.7,0,0,1-3.34,5.33c-.43,0-1.11,0-2,.13a15.47,15.47,0,0,0-5.24,1.25c-1.09.58-1.63,1.17-1.63,1.77a1.15,1.15,0,0,0,.58,1,2.44,2.44,0,0,0,1.41.39,7.2,7.2,0,0,0,3.69-1,22.34,22.34,0,0,0,3.62-2.69,12.68,12.68,0,0,1,5.53.9,38.33,38.33,0,0,1-14.8,7.12,78.35,78.35,0,0,1-18.39,2,97.67,97.67,0,0,1-10.91-.58,36.46,36.46,0,0,0,8.41-1.19,27.13,27.13,0,0,0,7.41-2.92c2-1.19,3-2.46,3-3.78a1.49,1.49,0,0,0-.39-1.06,1.2,1.2,0,0,0-.9-.42,1,1,0,0,0-1,.51,1.2,1.2,0,0,1,.58,1,3.49,3.49,0,0,1-1.32,2.31A11.8,11.8,0,0,1,230.7,233a2.33,2.33,0,0,0-1.6-.51h-.52a1.18,1.18,0,0,0-.35-.77,1,1,0,0,0-.67-.26,1,1,0,0,0-1,.84.41.41,0,0,1,.45.16.79.79,0,0,1,.19.54c0,.69-.9,1.24-2.69,1.67a27,27,0,0,1-6.23.64,30.4,30.4,0,0,1-4.43-.32,3.17,3.17,0,0,0,.32-1.41,1.69,1.69,0,0,0-.32-1.09,1,1,0,0,0-.77-.39.92.92,0,0,0-.61.26.84.84,0,0,0-.29.64.67.67,0,0,1,.68.23,1.27,1.27,0,0,1,.22.8,2.45,2.45,0,0,1-.19.83,19.6,19.6,0,0,1-3.34-1,6.71,6.71,0,0,1-2.76-2,4,4,0,0,1-1-2.41,1.38,1.38,0,0,1,1.28-1.54.88.88,0,0,0-.42-.67,1.45,1.45,0,0,0-1.92.32,2.19,2.19,0,0,0-.48,1.51,3.58,3.58,0,0,0,.51,1.92,10.26,10.26,0,0,1-3.08-7.64,6.74,6.74,0,0,1,1.48-4.39,4.76,4.76,0,0,1,3.91-1.83,3.09,3.09,0,0,1,2.38.9,3,3,0,0,1,.83,2.05,2.45,2.45,0,0,1-.42,1.44,1.34,1.34,0,0,1-1.18.61.93.93,0,0,1-.74-.25.85.85,0,0,1-.23-.58,1,1,0,0,1,.13-.51.45.45,0,0,1,.39-.2l.13.07a.38.38,0,0,0-.07-.45.68.68,0,0,0-.58-.26,1.26,1.26,0,0,0-1,.42,1.4,1.4,0,0,0-.38,1,1.74,1.74,0,0,0,.54,1.26,2.05,2.05,0,0,0,1.51.54,2.38,2.38,0,0,0,2-.9,3.42,3.42,0,0,0,.71-2.18,3.77,3.77,0,0,0-1.1-2.73,3.86,3.86,0,0,0-2.89-1.12,5.84,5.84,0,0,0-1.41.19,1.4,1.4,0,0,0-1-.38,2.64,2.64,0,0,0-2,1.12,7.9,7.9,0,0,0-1.44,3,12.47,12.47,0,0,0-.45,3.76,2,2,0,0,0-1.48-.64,1.74,1.74,0,0,0-1.34.48,1.51,1.51,0,0,0-.45,1.06,1.2,1.2,0,0,0,.29.8.92.92,0,0,0,.74.35.94.94,0,0,0,.48-.13c.15-.08.22-.17.22-.25-.21-.05-.32-.22-.32-.52a.57.57,0,0,1,.64-.64,1,1,0,0,1,.93.55,2.31,2.31,0,0,1,.35,1.31,2.94,2.94,0,0,1-.38,1.42,3.42,3.42,0,0,1-1.16,1.21,1,1,0,0,0,0-.73.49.49,0,0,0-.51-.36.74.74,0,0,0-.51.26.87.87,0,0,1,0,.93,1.81,1.81,0,0,1-1.19.8,16,16,0,0,1-1.67.13,6.41,6.41,0,0,1-4.11-1.28,3.64,3.64,0,0,1-1.6-2.83,2.14,2.14,0,0,1,.25-1.12.91.91,0,0,1,.84-.42.93.93,0,0,1,.67.29.87.87,0,0,1,.29.61v.13c.09.09.25.06.48-.06a.79.79,0,0,0,.35-.77,1.17,1.17,0,0,0-.51-1,2,2,0,0,0-1.22-.38,2.22,2.22,0,0,0-1.22.38,2,2,0,0,0-.77,1.22,1.12,1.12,0,0,0-.9.39,4.29,4.29,0,0,1,.71,1.47c0,.13.15.4.32.81a4.34,4.34,0,0,0,.77,1.18c-1.54-.6-4.15-1.64-7.83-3.14l-2.76-1.09a1.05,1.05,0,0,0-.32-.81,1.06,1.06,0,0,0-1.48,0,117.77,117.77,0,0,0-13-4.4,42.08,42.08,0,0,0-10.59-1.38,33.75,33.75,0,0,0-9.56,1.19,15.48,15.48,0,0,0-5.94,2.95c-1.3,1.18-2,2.3-2,3.37a1.7,1.7,0,0,0,.65,1.41,7.65,7.65,0,0,0-.2,1.73,6.31,6.31,0,0,0,.74,3.12c.49.88,1,1.31,1.57,1.31a1.31,1.31,0,0,0,.9-.32,1,1,0,0,0,.39-.77,1.93,1.93,0,0,0-.13-.58,1.28,1.28,0,0,1-1.57-.64A4.36,4.36,0,0,1,138,228a7.19,7.19,0,0,1,1.19-3.79,10.33,10.33,0,0,1,4-3.44,19.24,19.24,0,0,1,7.25-1.95,28,28,0,0,1,5-.2,1.75,1.75,0,0,0,1.35,1,1.8,1.8,0,0,0-.84,1.41,1.2,1.2,0,0,0,.23.71.89.89,0,0,0,.61.38c0-.77.4-1.29,1.34-1.57a11.25,11.25,0,0,1,3.21-.42,23.51,23.51,0,0,1,6.58,1q3.3,1,9.15,3.27a.92.92,0,0,0,.22.77.94.94,0,0,0,.74.32,1.2,1.2,0,0,0,.84-.38l2.82,1.15q9.1,3.72,15.92,6a106.54,106.54,0,0,0,14.63,3.78,8,8,0,0,1-4,2.38,18.93,18.93,0,0,1-5.23.77,40.58,40.58,0,0,1-10.78-2,1,1,0,0,0-.26-.87,1.12,1.12,0,0,0-.77-.29,1,1,0,0,0-1,.52l-6.94-2.44q-7.69-2.76-12.8-4.18a36.1,36.1,0,0,0-9.6-1.41,16.35,16.35,0,0,0-6.25,1.06,9.07,9.07,0,0,0-3.76,2.63,5.12,5.12,0,0,0-1.22,3.12,2.29,2.29,0,0,0,1,2q-.32,4.11,2,6.32a7.86,7.86,0,0,0,5.65,2.22,8.26,8.26,0,0,0,4-1,6.34,6.34,0,0,0,2.77-3,12.18,12.18,0,0,0,.57-2.95,5.46,5.46,0,0,0,.13-.81c0-.36.12-.8.23-1.31a1.68,1.68,0,0,1,.48-1,1,1,0,0,0-1.09-.9,1.39,1.39,0,0,0-1,.39,4.27,4.27,0,0,0-3.47-1.54,4.64,4.64,0,0,0-2.79.86,2.71,2.71,0,0,0-1.19,2.28,2.44,2.44,0,0,0,.68,1.86,2.26,2.26,0,0,0,1.63.64,2.44,2.44,0,0,0,1.45-.44,1.43,1.43,0,0,0,.61-1.22c0-.56-.24-.84-.71-.84a.62.62,0,0,0-.57.32.69.69,0,0,1,0,.77.94.94,0,0,1-.93.45,1.09,1.09,0,0,1-.93-.48,1.83,1.83,0,0,1-.36-1.12,2,2,0,0,1,.74-1.54,3.28,3.28,0,0,1,2.21-.65,3.73,3.73,0,0,1,3,1.26,4.63,4.63,0,0,1,1.09,3.17,5.38,5.38,0,0,1-1.93,4.37,6.87,6.87,0,0,1-4.55,1.6,7.17,7.17,0,0,1-4.18-1.28,2.81,2.81,0,0,0,.71.06,2.87,2.87,0,0,0,1.38-.32c.41-.21.61-.43.61-.64a.39.39,0,0,0,.42-.13.63.63,0,0,0,.16-.38c0-.13-.09-.24-.26-.32a2.74,2.74,0,0,1-1.92.7,3.25,3.25,0,0,1-2.35-1.06,5,5,0,0,1-1.38-2.4,11.83,11.83,0,0,1-.13-1.29,8,8,0,0,1,1.25-4.3,8.73,8.73,0,0,1,3.6-3.14,12.27,12.27,0,0,1,5.49-1.16,36.24,36.24,0,0,1,10.4,2,2.32,2.32,0,0,0-1.45.26.92.92,0,0,0-.48.77.69.69,0,0,0,.19.51.61.61,0,0,0,.45.19h.13c0-.59.53-.89,1.61-.89a26.38,26.38,0,0,1,7.38,1.79l10.07,3.53a1,1,0,0,0,1,.71.88.88,0,0,0,.64-.26,42.19,42.19,0,0,0,11.17,2.12,18.31,18.31,0,0,0,5.93-1,9.47,9.47,0,0,0,4.47-2.93,93,93,0,0,0,16.43,1.42,79.4,79.4,0,0,0,18.77-2.06,38.43,38.43,0,0,0,15.12-7.38,1.29,1.29,0,0,1,.45,1,.7.7,0,0,1-.39.7.59.59,0,0,0,.74.13,1.2,1.2,0,0,0,.61-.64,1.71,1.71,0,0,0,.58.07,1.19,1.19,0,0,0,1-.39q2.5,1.86,2.5,4a1,1,0,0,1-.58,1v-.06c-.08,0-.05.07.1.22a.75.75,0,0,0,.55.23,1.08,1.08,0,0,0,.89-.39,1.61,1.61,0,0,0,.33-1.09,5.12,5.12,0,0,0-1.35-3.14,9.75,9.75,0,0,0-4.05-2.76,31.91,31.91,0,0,0,7.74-10.31,27.06,27.06,0,0,0,2.66-11.45,20.1,20.1,0,0,0-.25-3.4c.77,1.45,1.56,2.18,2.37,2.18a1.61,1.61,0,0,0,.9-.26.78.78,0,0,0,.38-.7.58.58,0,0,0-.06-.26.2.2,0,0,0-.19-.13.69.69,0,0,1-.52.19q-1,0-1.95-1.38a4.87,4.87,0,0,1-1-2.92,2.78,2.78,0,0,1,.26-1.38.85.85,0,0,1,.58-.45.42.42,0,0,1,.45.23.64.64,0,0,0,.32-.58.59.59,0,0,0-.23-.45.79.79,0,0,0-.54-.19c-.52,0-.92.43-1.22,1.28a9.49,9.49,0,0,1,.67-4.62,2.78,2.78,0,0,1,2.6-1.92,1.65,1.65,0,0,1,1.19.41,1.35,1.35,0,0,1,.41,1,1.3,1.3,0,0,1-.35,1,1.08,1.08,0,0,1-.8.36.62.62,0,0,1-.64-.58c0-.17.06-.28.19-.32" transform="translate(0 0)"/><path class="cls-3" d="M85.94,230.51a9.7,9.7,0,0,1-3.63-.91,4.22,4.22,0,0,1-2.18-2.42q-1.57,4.71-6.93,7a118.19,118.19,0,0,0,12.74-3.72m-55.44-1.7c.65,0,1-.13,1-.39s-.54-.58-1.6-.95a22.75,22.75,0,0,0-4.74-.88.73.73,0,0,1-.32-.06,13.74,13.74,0,0,0,2.87,1.6,7.59,7.59,0,0,0,2.81.68m-15.28-8.35c-.66.08-1.49-.49-2.52-1.74A16.73,16.73,0,0,1,10,213.4a25.42,25.42,0,0,1-1.14-8,20.12,20.12,0,0,1,1.21-7.34C10.9,196,12,195,13.32,195a1.52,1.52,0,0,1,1,.29.82.82,0,0,1,.36.62.39.39,0,0,1-.06.26A1,1,0,0,0,14,196a3.48,3.48,0,0,0-2.48,1.37q-1.23,1.38-1.76,5.1a2.49,2.49,0,0,1,.72.78,1.08,1.08,0,0,1,.78.16.88.88,0,0,1,.39.56,1.61,1.61,0,0,0-1.37,1.14,7.31,7.31,0,0,0-.45,2.78,18.71,18.71,0,0,0,1.47,6.89,13.12,13.12,0,0,0,4,5.65M2.55,191.53a.17.17,0,0,1,.06-.23.63.63,0,0,1,.39-.1.67.67,0,0,1,.53.23.8.8,0,0,1,.19.55,1.37,1.37,0,0,1-.39,1,1.44,1.44,0,0,1-1.11.42,2.06,2.06,0,0,1-1.6-.68A2.41,2.41,0,0,1,0,191a2.08,2.08,0,0,1,.72-1.66,2.63,2.63,0,0,1,1.76-.62,3.72,3.72,0,0,1,3,1.73,7.45,7.45,0,0,1,1.3,4.6,13.89,13.89,0,0,1-.06,1.5,14.35,14.35,0,0,1,5-6.3,13.54,13.54,0,0,1,7.91-2.32A13.17,13.17,0,0,1,25,189.08a11.74,11.74,0,0,1,4.28,3.13,7.93,7.93,0,0,1,2,4.28c0,.17.13,1,.26,2.35a3.6,3.6,0,0,0,1.05,2.68,1.84,1.84,0,0,1-.4,1,1.11,1.11,0,0,1-.91.39.83.83,0,0,1-.85.72.65.65,0,0,1-.46-.2,7.08,7.08,0,0,1-2.57,2.38,7.53,7.53,0,0,1-3.7.89,7,7,0,0,1-5.35-1.93,6.37,6.37,0,0,1-1.83-4.54,5.2,5.2,0,0,1,1.08-3.33,3.58,3.58,0,0,1,3-1.37,3.71,3.71,0,0,1,1.57.26,5.15,5.15,0,0,1-.13-1,2.15,2.15,0,0,1,.32-1.24,1,1,0,0,1,.85-.46.63.63,0,0,1,.46.2.57.57,0,0,1,.2.39.3.3,0,0,1-.07.2.5.5,0,0,0-.59.13,1.17,1.17,0,0,0-.26.85,2.75,2.75,0,0,0,.82,1.92,2.88,2.88,0,0,0,1.6,1c0,.22-.15.33-.46.33a1.61,1.61,0,0,1-.72-.19,5.13,5.13,0,0,1,.13.91,2.2,2.2,0,0,1-.59,1.6,1.83,1.83,0,0,1-1.37.62,2,2,0,0,1-1.17-.36,1.09,1.09,0,0,1-.52-.95.91.91,0,0,1,.13-.52.42.42,0,0,1,.39-.19l.26.06c-.09,0-.12.14-.1.29a.81.81,0,0,0,.26.46,1,1,0,0,0,.69.23,1,1,0,0,0,.82-.36,1.48,1.48,0,0,0,.29-.95,2.34,2.34,0,0,0-.72-1.66,2.66,2.66,0,0,0-2-.75,2.86,2.86,0,0,0-2.39,1.14,4.4,4.4,0,0,0-.88,2.78,5.31,5.31,0,0,0,1.6,3.85,6.15,6.15,0,0,0,4.6,1.63,6.37,6.37,0,0,0,5.13-2.19,7.82,7.82,0,0,0,1.86-5.25A9.54,9.54,0,0,0,30,195a8.83,8.83,0,0,0-1.76-2.94,1.17,1.17,0,0,1-.06,1,.78.78,0,0,1-.66.42.69.69,0,0,1-.52-.19,1.51,1.51,0,0,0,.2-.78,2.7,2.7,0,0,0-1.67-2.26A11,11,0,0,0,22,189a14.43,14.43,0,0,0-2.35-.2,12.6,12.6,0,0,0-7.32,2.12,13.71,13.71,0,0,0-4.7,5.78A19.64,19.64,0,0,0,6,204.78a26.72,26.72,0,0,0,2.68,11.37,30.93,30.93,0,0,0,7.9,10.31,19.94,19.94,0,0,1,6-.85,15.51,15.51,0,0,1-2.87-4.67,13.22,13.22,0,0,1-1-4.79,6.76,6.76,0,0,1,1.08-4,3.44,3.44,0,0,1,3-1.53,3.64,3.64,0,0,1,2.55,1,3.08,3.08,0,0,1,1,2.38,2.79,2.79,0,0,1-.62,1.86,2,2,0,0,1-1.6.75A2.2,2.2,0,0,1,22.5,216a2,2,0,0,1-.62-1.44,1.52,1.52,0,0,1,.42-1.17,1.56,1.56,0,0,1,1.86-.17.79.79,0,0,1,.33.69.62.62,0,0,1-.13.42.42.42,0,0,1-.33.17c-.13,0-.22,0-.26-.07s.13-.15.13-.19a.36.36,0,0,0-.16-.27.61.61,0,0,0-.36-.13c-.44,0-.65.27-.65.79a1,1,0,0,0,.45.85,1.63,1.63,0,0,0,.92.32,1.23,1.23,0,0,0,1-.52,2,2,0,0,0,.39-1.24,2.42,2.42,0,0,0-.71-1.73,2.69,2.69,0,0,0-2-.75,2.65,2.65,0,0,0-2.51,1.6,6.57,6.57,0,0,0-.62,3.69.66.66,0,0,1,.58-.26h.13c.27,0,.48.17.66.52a1.27,1.27,0,0,0-.59.65,3,3,0,0,0-.26,1.31,4.65,4.65,0,0,0,.19,1.17,15.12,15.12,0,0,0,3.4,5.42c.44,0,1.13,0,2.09.13A15.72,15.72,0,0,1,31.18,227c1.11.59,1.67,1.18,1.67,1.79a1.21,1.21,0,0,1-.59,1.05,2.54,2.54,0,0,1-1.44.39,7.34,7.34,0,0,1-3.75-1.05,22.18,22.18,0,0,1-3.69-2.74,12.87,12.87,0,0,0-5.62.92,38.76,38.76,0,0,0,15.05,7.24,79.88,79.88,0,0,0,18.71,2,101.15,101.15,0,0,0,11.11-.59,36.68,36.68,0,0,1-8.56-1.21,27.83,27.83,0,0,1-7.54-3q-3-1.83-3-3.85a1.54,1.54,0,0,1,.39-1.08,1.22,1.22,0,0,1,.92-.42,1,1,0,0,1,1,.52,1.21,1.21,0,0,0-.59,1,3.6,3.6,0,0,0,1.34,2.35,12.24,12.24,0,0,0,3.88,2.35,2.39,2.39,0,0,1,1.64-.53h.52a1.17,1.17,0,0,1,.36-.78,1,1,0,0,1,.68-.26,1,1,0,0,1,1,.85.44.44,0,0,0-.46.16.85.85,0,0,0-.2.56c0,.69.92,1.26,2.75,1.69a27.23,27.23,0,0,0,6.33.66,31.63,31.63,0,0,0,4.51-.33,3.12,3.12,0,0,1-.33-1.44,1.69,1.69,0,0,1,.33-1.11,1,1,0,0,1,.78-.39.92.92,0,0,1,.62.26.84.84,0,0,1,.3.66.68.68,0,0,0-.69.22,1.33,1.33,0,0,0-.23.82,2.6,2.6,0,0,0,.2.85,19.81,19.81,0,0,0,3.39-1,6.8,6.8,0,0,0,2.81-2.06,4.08,4.08,0,0,0,1-2.45,1.4,1.4,0,0,0-1.31-1.56.94.94,0,0,1,.43-.69,1.49,1.49,0,0,1,2,.33,2.22,2.22,0,0,1,.49,1.53,3.72,3.72,0,0,1-.52,2A10.39,10.39,0,0,0,79.93,223a6.9,6.9,0,0,0-1.5-4.47,4.87,4.87,0,0,0-4-1.86,3.13,3.13,0,0,0-2.41.91,3,3,0,0,0-.85,2.09,2.54,2.54,0,0,0,.42,1.47,1.4,1.4,0,0,0,1.21.62,1,1,0,0,0,.75-.26.83.83,0,0,0,.23-.59.89.89,0,0,0-.13-.52.45.45,0,0,0-.39-.2l-.13.07c-.09-.13-.07-.28.06-.46a.72.72,0,0,1,.59-.26,1.26,1.26,0,0,1,1,.43,1.42,1.42,0,0,1,.39,1,1.74,1.74,0,0,1-.55,1.27,2.07,2.07,0,0,1-1.54.55,2.42,2.42,0,0,1-2-.91,3.48,3.48,0,0,1-.72-2.22,3.82,3.82,0,0,1,1.11-2.77,3.89,3.89,0,0,1,2.94-1.15,6.13,6.13,0,0,1,1.44.2,1.41,1.41,0,0,1,1-.39,2.69,2.69,0,0,1,2.06,1.14,8.09,8.09,0,0,1,1.47,3,12.27,12.27,0,0,1,.45,3.82,2.1,2.1,0,0,1,1.51-.65,1.78,1.78,0,0,1,1.37.49,1.58,1.58,0,0,1,.45,1.08,1.22,1.22,0,0,1-.29.81.94.94,0,0,1-.75.36,1,1,0,0,1-.49-.13c-.15-.08-.23-.17-.23-.26.22,0,.33-.22.33-.52a.58.58,0,0,0-.66-.65,1.07,1.07,0,0,0-.94.55,2.42,2.42,0,0,0-.36,1.34,3,3,0,0,0,.39,1.44,3.47,3.47,0,0,0,1.18,1.24,1.08,1.08,0,0,1,0-.75.5.5,0,0,1,.52-.36.72.72,0,0,1,.52.26.89.89,0,0,0,0,.94,1.82,1.82,0,0,0,1.21.82,16.59,16.59,0,0,0,1.7.13,6.48,6.48,0,0,0,4.18-1.3,3.69,3.69,0,0,0,1.63-2.88,2.09,2.09,0,0,0-.26-1.14.92.92,0,0,0-.85-.42.9.9,0,0,0-.68.29.87.87,0,0,0-.3.62V225c-.08.09-.25.07-.49-.07a.8.8,0,0,1-.36-.78,1.2,1.2,0,0,1,.52-1,2,2,0,0,1,1.25-.39,2.24,2.24,0,0,1,1.24.39,2,2,0,0,1,.78,1.24,1.11,1.11,0,0,1,.91.39,4.51,4.51,0,0,0-.71,1.51l-.33.81a4.37,4.37,0,0,1-.78,1.21c1.56-.61,4.22-1.67,8-3.2l2.81-1.11a1,1,0,0,1,.33-.82,1.06,1.06,0,0,1,1.5,0,119.93,119.93,0,0,1,13.26-4.48,43,43,0,0,1,10.77-1.4,34.14,34.14,0,0,1,9.73,1.21,15.64,15.64,0,0,1,6,3c1.33,1.2,2,2.34,2,3.43a1.73,1.73,0,0,1-.65,1.44,7.78,7.78,0,0,1,.2,1.76,6.38,6.38,0,0,1-.75,3.17c-.51.89-1,1.34-1.61,1.34a1.38,1.38,0,0,1-.91-.33,1,1,0,0,1-.39-.78,2,2,0,0,1,.13-.59,1.31,1.31,0,0,0,1.6-.65,4.49,4.49,0,0,0,.69-2.62,7.38,7.38,0,0,0-1.21-3.85,10.43,10.43,0,0,0-4-3.49,19.27,19.27,0,0,0-7.38-2,28,28,0,0,0-5.09-.2,1.79,1.79,0,0,1-1.37,1,1.87,1.87,0,0,1,.85,1.44,1.26,1.26,0,0,1-.23.72.89.89,0,0,1-.62.39c0-.78-.42-1.32-1.37-1.6a11.68,11.68,0,0,0-3.27-.42,23.56,23.56,0,0,0-6.69,1q-3.36,1-9.31,3.33a.92.92,0,0,1-.23.78.94.94,0,0,1-.75.33,1.17,1.17,0,0,1-.85-.4l-2.87,1.18q-9.27,3.8-16.2,6.14a108.35,108.35,0,0,1-14.88,3.85,8,8,0,0,0,4.08,2.42,19.14,19.14,0,0,0,5.32.78,41.44,41.44,0,0,0,11-2,1,1,0,0,1,.26-.88,1.13,1.13,0,0,1,.79-.3,1.08,1.08,0,0,1,1,.52L98.74,234q7.83-2.81,13-4.24a36.69,36.69,0,0,1,9.77-1.44,16.47,16.47,0,0,1,6.36,1.08,9.06,9.06,0,0,1,3.82,2.68,5.15,5.15,0,0,1,1.25,3.16,2.33,2.33,0,0,1-1,2.09c.21,2.79-.46,4.93-2,6.43A8,8,0,0,1,124.2,246a8.35,8.35,0,0,1-4.11-1.05,6.49,6.49,0,0,1-2.81-3,12.39,12.39,0,0,1-.58-3,6.41,6.41,0,0,1-.14-.81c0-.37-.11-.82-.22-1.34a1.83,1.83,0,0,0-.49-1,1,1,0,0,1,1.11-.92,1.41,1.41,0,0,1,1,.39,4.37,4.37,0,0,1,3.53-1.56,4.68,4.68,0,0,1,2.84.88,2.74,2.74,0,0,1,1.21,2.31,2.5,2.5,0,0,1-.69,1.9,2.5,2.5,0,0,1-3.13.19,1.43,1.43,0,0,1-.62-1.24c0-.56.24-.85.71-.85a.64.64,0,0,1,.59.33.7.7,0,0,0,0,.79,1,1,0,0,0,1,.45,1.1,1.1,0,0,0,.94-.49,1.87,1.87,0,0,0,.36-1.14,2,2,0,0,0-.75-1.57,3.37,3.37,0,0,0-2.25-.65,3.81,3.81,0,0,0-3,1.27,4.76,4.76,0,0,0-1.11,3.24,5.5,5.5,0,0,0,2,4.44,7.08,7.08,0,0,0,4.64,1.63,7.29,7.29,0,0,0,4.24-1.31,2.31,2.31,0,0,1-.71.07,3,3,0,0,1-1.41-.33c-.41-.22-.62-.43-.62-.65a.39.39,0,0,1-.42-.13.61.61,0,0,1-.17-.39q0-.19.27-.33a2.76,2.76,0,0,0,2,.72,3.31,3.31,0,0,0,2.39-1.08,5.07,5.07,0,0,0,1.4-2.45,10,10,0,0,0,.13-1.3,8.06,8.06,0,0,0-1.27-4.38,8.76,8.76,0,0,0-3.66-3.2,12.53,12.53,0,0,0-5.58-1.18,36.63,36.63,0,0,0-10.58,2,2.4,2.4,0,0,1,1.47.26.93.93,0,0,1,.49.78.72.72,0,0,1-.2.53.61.61,0,0,1-.45.19h-.13c0-.61-.55-.91-1.64-.91a26.59,26.59,0,0,0-7.51,1.83L91.88,237.5a1,1,0,0,1-1,.72.89.89,0,0,1-.65-.26,43,43,0,0,1-11.36,2.15,18.72,18.72,0,0,1-6-1,9.6,9.6,0,0,1-4.54-3,96.31,96.31,0,0,1-16.72,1.43,80.46,80.46,0,0,1-19.1-2.09A39.06,39.06,0,0,1,17.11,228a1.34,1.34,0,0,0-.46,1,.73.73,0,0,0,.39.72.61.61,0,0,1-.75.13,1.22,1.22,0,0,1-.62-.66,1.71,1.71,0,0,1-.58.07,1.19,1.19,0,0,1-1-.39q-2.55,1.89-2.55,4.05a1,1,0,0,0,.59,1v-.07c.08,0,0,.08-.1.23a.77.77,0,0,1-.56.23,1.12,1.12,0,0,1-.91-.39,1.67,1.67,0,0,1-.33-1.11,5.24,5.24,0,0,1,1.37-3.2,10,10,0,0,1,4.12-2.81,32.42,32.42,0,0,1-7.87-10.48,27.47,27.47,0,0,1-2.71-11.66,20.86,20.86,0,0,1,.26-3.46c-.78,1.48-1.59,2.22-2.42,2.22a1.64,1.64,0,0,1-.91-.26.81.81,0,0,1-.39-.72.62.62,0,0,1,.06-.26A.21.21,0,0,1,2,202a.7.7,0,0,0,.52.2c.66,0,1.32-.47,2-1.41a5,5,0,0,0,1-3,2.84,2.84,0,0,0-.26-1.4.82.82,0,0,0-.59-.46.42.42,0,0,0-.46.23.64.64,0,0,1-.33-.59.61.61,0,0,1,.23-.46.83.83,0,0,1,.56-.19c.52,0,.93.43,1.24,1.3a9.66,9.66,0,0,0-.69-4.7,2.84,2.84,0,0,0-2.64-2,1.6,1.6,0,0,0-1.21.43,1.39,1.39,0,0,0-.43,1,1.41,1.41,0,0,0,.36,1,1.14,1.14,0,0,0,.82.36.58.58,0,0,0,.49-.2.6.6,0,0,0,.16-.39c0-.17-.06-.28-.19-.32" transform="translate(0 0)"/><path class="cls-3" d="M195.78,15.21a9.58,9.58,0,0,1,3.57.9,4.16,4.16,0,0,1,2.15,2.38q1.53-4.62,6.8-6.94a118.74,118.74,0,0,0-12.52,3.66m54.5,1.67q-1,0-1,.39c0,.25.52.56,1.57.93a22.18,22.18,0,0,0,4.65.86.61.61,0,0,1,.32.07A13.53,13.53,0,0,0,253,17.55a7.52,7.52,0,0,0-2.76-.67m15,8.22c.64-.09,1.46.48,2.47,1.7A16.38,16.38,0,0,1,270.4,32a25,25,0,0,1,1.12,7.83,19.9,19.9,0,0,1-1.18,7.22c-.8,2-1.85,3.05-3.18,3.05a1.52,1.52,0,0,1-1-.29.8.8,0,0,1-.36-.61.35.35,0,0,1,.07-.26c.08.09.29.13.64.13A3.43,3.43,0,0,0,269,47.76q1.21-1.35,1.73-5A2.54,2.54,0,0,1,270,42a1.06,1.06,0,0,1-.77-.16.86.86,0,0,1-.38-.55,1.59,1.59,0,0,0,1.35-1.12,7.07,7.07,0,0,0,.45-2.73,18.44,18.44,0,0,0-1.45-6.77,13,13,0,0,0-3.88-5.55m12.45,28.43a.18.18,0,0,1-.06.23.7.7,0,0,1-.39.09.64.64,0,0,1-.51-.22.81.81,0,0,1-.2-.55,1.34,1.34,0,0,1,.39-.93,1.41,1.41,0,0,1,1.09-.42,2,2,0,0,1,1.57.68,2.33,2.33,0,0,1,.61,1.64,2,2,0,0,1-.7,1.63,2.55,2.55,0,0,1-1.74.61,3.69,3.69,0,0,1-2.95-1.7,7.36,7.36,0,0,1-1.28-4.53,13.51,13.51,0,0,1,.06-1.47,14.07,14.07,0,0,1-4.94,6.19,13.24,13.24,0,0,1-7.77,2.28,12.89,12.89,0,0,1-5.29-1.12,11.76,11.76,0,0,1-4.21-3.08,7.81,7.81,0,0,1-1.92-4.21c0-.17-.13-.94-.26-2.31a3.56,3.56,0,0,0-1-2.63,1.72,1.72,0,0,1,.38-1,1.09,1.09,0,0,1,.9-.39.81.81,0,0,1,.83-.7.61.61,0,0,1,.45.19,7,7,0,0,1,2.54-2.34,7.34,7.34,0,0,1,3.62-.87,6.94,6.94,0,0,1,5.27,1.89A6.31,6.31,0,0,1,264,45,5.17,5.17,0,0,1,263,48.27,3.52,3.52,0,0,1,260,49.62a3.62,3.62,0,0,1-1.54-.26,5.09,5.09,0,0,1,.13,1,2.08,2.08,0,0,1-.32,1.22,1,1,0,0,1-.83.45.61.61,0,0,1-.45-.19.55.55,0,0,1-.19-.39.27.27,0,0,1,.06-.19.5.5,0,0,0,.58-.13,1.15,1.15,0,0,0,.25-.83,2.72,2.72,0,0,0-.8-1.9,3,3,0,0,0-1.57-1c0-.21.15-.32.45-.32a1.61,1.61,0,0,1,.71.19,5.06,5.06,0,0,1-.13-.9,2.21,2.21,0,0,1,.57-1.57,1.81,1.81,0,0,1,1.35-.61,2.06,2.06,0,0,1,1.16.35,1.09,1.09,0,0,1,.51.93.89.89,0,0,1-.13.52.41.41,0,0,1-.38.19l-.26-.06c.09-.05.12-.14.1-.29a.81.81,0,0,0-.26-.45.92.92,0,0,0-.67-.23,1,1,0,0,0-.81.36,1.42,1.42,0,0,0-.29.93A2.31,2.31,0,0,0,258,48a2.59,2.59,0,0,0,2,.74,2.78,2.78,0,0,0,2.34-1.12,4.33,4.33,0,0,0,.87-2.73,5.22,5.22,0,0,0-1.57-3.79,6.06,6.06,0,0,0-4.53-1.6,6.25,6.25,0,0,0-5,2.15,7.69,7.69,0,0,0-1.83,5.17,9.72,9.72,0,0,0,.58,3.27A9,9,0,0,0,252.52,53a1.18,1.18,0,0,1,.07-1,.73.73,0,0,1,.64-.41.67.67,0,0,1,.51.19,1.54,1.54,0,0,0-.19.77,2.65,2.65,0,0,0,1.64,2.21A10.58,10.58,0,0,0,258.62,56a13.86,13.86,0,0,0,2.31.2,12.34,12.34,0,0,0,7.19-2.09,13.33,13.33,0,0,0,4.62-5.68,19.32,19.32,0,0,0,1.61-8,26.37,26.37,0,0,0-2.63-11.17A30.88,30.88,0,0,0,264,19.19a19.33,19.33,0,0,1-5.9.84,15.31,15.31,0,0,1,2.82,4.59,13,13,0,0,1,1,4.71,6.6,6.6,0,0,1-1.06,3.89,3.38,3.38,0,0,1-2.92,1.51,3.59,3.59,0,0,1-2.5-.94,3,3,0,0,1-1-2.34,2.81,2.81,0,0,1,.61-1.83,2,2,0,0,1,1.58-.74,2.15,2.15,0,0,1,1.63.65,2,2,0,0,1,.61,1.41,1.47,1.47,0,0,1-.42,1.15,1.52,1.52,0,0,1-1.82.16.75.75,0,0,1-.33-.67.7.7,0,0,1,.13-.42.43.43,0,0,1,.32-.16c.13,0,.22,0,.26.07a.33.33,0,0,0-.13.19.36.36,0,0,0,.16.26.59.59,0,0,0,.35.12c.43,0,.65-.25.65-.77a1,1,0,0,0-.45-.83,1.5,1.5,0,0,0-.9-.32,1.23,1.23,0,0,0-1,.51,2,2,0,0,0-.38,1.22,2.38,2.38,0,0,0,.7,1.7,2.64,2.64,0,0,0,2,.74,2.61,2.61,0,0,0,2.47-1.57,6.45,6.45,0,0,0,.61-3.63.66.66,0,0,1-.57.26h-.13c-.26,0-.47-.17-.64-.51a1.25,1.25,0,0,0,.57-.65,2.86,2.86,0,0,0,.26-1.28,4.52,4.52,0,0,0-.19-1.16A14.75,14.75,0,0,0,256.89,20c-.43,0-1.11-.05-2-.13a15.71,15.71,0,0,1-5.24-1.25c-1.09-.58-1.63-1.17-1.63-1.77a1.18,1.18,0,0,1,.58-1,2.51,2.51,0,0,1,1.41-.38,7.2,7.2,0,0,1,3.69,1,22.34,22.34,0,0,1,3.62,2.69,12.68,12.68,0,0,0,5.53-.9A38.19,38.19,0,0,0,248,11.17a78.35,78.35,0,0,0-18.39-2,97.67,97.67,0,0,0-10.91.58,37,37,0,0,1,8.41,1.18,27.45,27.45,0,0,1,7.41,2.93q3,1.79,3,3.78a1.49,1.49,0,0,1-.39,1.06,1.2,1.2,0,0,1-.9.42,1,1,0,0,1-1-.52,1.18,1.18,0,0,0,.58-1,3.49,3.49,0,0,0-1.32-2.31A11.8,11.8,0,0,0,230.7,13a2.33,2.33,0,0,1-1.6.51h-.52a1.18,1.18,0,0,1-.35.77,1,1,0,0,1-.67.26,1,1,0,0,1-1-.84.43.43,0,0,0,.45-.16.79.79,0,0,0,.19-.54c0-.69-.9-1.25-2.69-1.67a27,27,0,0,0-6.23-.64,30.4,30.4,0,0,0-4.43.32,3.11,3.11,0,0,1,.32,1.41,1.69,1.69,0,0,1-.32,1.09,1,1,0,0,1-.77.39.92.92,0,0,1-.61-.26.84.84,0,0,1-.29-.64.69.69,0,0,0,.68-.23,1.27,1.27,0,0,0,.22-.8,2.49,2.49,0,0,0-.19-.84,20.37,20.37,0,0,0-3.34,1,6.62,6.62,0,0,0-2.76,2,4,4,0,0,0-1,2.41A1.39,1.39,0,0,0,207.08,18a.88.88,0,0,1-.42.67,1.44,1.44,0,0,1-.8.23,1.46,1.46,0,0,1-1.12-.55,2.21,2.21,0,0,1-.48-1.51,3.58,3.58,0,0,1,.51-1.92,10.23,10.23,0,0,0-3.08,7.63,6.76,6.76,0,0,0,1.48,4.4,4.76,4.76,0,0,0,3.91,1.83,3.09,3.09,0,0,0,2.38-.9,3,3,0,0,0,.83-2.05,2.5,2.5,0,0,0-.42-1.45,1.36,1.36,0,0,0-1.18-.61.93.93,0,0,0-.74.26.85.85,0,0,0-.23.58,1,1,0,0,0,.13.51.44.44,0,0,0,.39.19l.13-.06a.38.38,0,0,1-.07.45.68.68,0,0,1-.58.26,1.26,1.26,0,0,1-1-.42,1.4,1.4,0,0,1-.38-1,1.72,1.72,0,0,1,.54-1.25,2.05,2.05,0,0,1,1.51-.54,2.38,2.38,0,0,1,2,.9,3.4,3.4,0,0,1,.71,2.18A3.77,3.77,0,0,1,210,28.6a3.86,3.86,0,0,1-2.89,1.12,6.39,6.39,0,0,1-1.41-.19,1.4,1.4,0,0,1-1,.38,2.64,2.64,0,0,1-2-1.12,8,8,0,0,1-1.44-3,12.4,12.4,0,0,1-.45-3.75,2,2,0,0,1-1.48.64,1.74,1.74,0,0,1-1.34-.48,1.51,1.51,0,0,1-.45-1.06,1.18,1.18,0,0,1,.29-.8.9.9,0,0,1,.74-.35.94.94,0,0,1,.48.13c.15.08.22.17.22.25-.21,0-.32.21-.32.51a.57.57,0,0,0,.64.65,1.07,1.07,0,0,0,.93-.55,2.31,2.31,0,0,0,.35-1.31,2.88,2.88,0,0,0-.38-1.42,3.53,3.53,0,0,0-1.16-1.22,1,1,0,0,1,0,.74.48.48,0,0,1-.51.35.73.73,0,0,1-.51-.25.87.87,0,0,0,0-.93,1.86,1.86,0,0,0-1.19-.81c-.77-.08-1.33-.12-1.67-.12a6.35,6.35,0,0,0-4.11,1.28,3.64,3.64,0,0,0-1.6,2.83,2.16,2.16,0,0,0,.25,1.12.91.91,0,0,0,.84.42.93.93,0,0,0,.67-.29.89.89,0,0,0,.29-.61v-.13q.13-.14.48.06a.79.79,0,0,1,.35.77,1.17,1.17,0,0,1-.51,1,2,2,0,0,1-1.22.38,2.22,2.22,0,0,1-1.22-.38,2,2,0,0,1-.77-1.22,1.12,1.12,0,0,1-.9-.39,4.25,4.25,0,0,0,.71-1.48c0-.12.15-.39.32-.8a4.54,4.54,0,0,1,.77-1.19q-2.31.9-7.83,3.15l-2.76,1.09a1,1,0,0,1-.32.8,1,1,0,0,1-.71.29,1.07,1.07,0,0,1-.77-.32,117.77,117.77,0,0,1-13,4.4,42.08,42.08,0,0,1-10.59,1.38A33.75,33.75,0,0,1,144.18,27,15.63,15.63,0,0,1,138.24,24c-1.3-1.18-2-2.3-2-3.37a1.7,1.7,0,0,1,.65-1.41,7.67,7.67,0,0,1-.2-1.74,6.28,6.28,0,0,1,.74-3.11c.49-.88,1-1.32,1.57-1.32a1.32,1.32,0,0,1,.9.33,1,1,0,0,1,.39.77,1.88,1.88,0,0,1-.13.57,1.28,1.28,0,0,0-1.57.65A4.36,4.36,0,0,0,138,18a7.21,7.21,0,0,0,1.19,3.79,10.23,10.23,0,0,0,4,3.43,19.05,19.05,0,0,0,7.25,2,28,28,0,0,0,5,.19,1.76,1.76,0,0,1,1.35-1,1.8,1.8,0,0,1-.84-1.42,1.2,1.2,0,0,1,.23-.7.87.87,0,0,1,.61-.39c0,.77.4,1.3,1.34,1.58a11.63,11.63,0,0,0,3.21.41,23.5,23.5,0,0,0,6.58-1q3.3-1,9.15-3.27a.92.92,0,0,1,.22-.77.94.94,0,0,1,.74-.32,1.16,1.16,0,0,1,.84.38l2.82-1.15q9.1-3.74,15.92-6a108,108,0,0,1,14.63-3.79,8,8,0,0,0-4-2.37,18.93,18.93,0,0,0-5.23-.77,40.18,40.18,0,0,0-10.78,2,1,1,0,0,1-.26.87,1.11,1.11,0,0,1-.77.28,1.05,1.05,0,0,1-1-.51l-6.94,2.44q-7.69,2.76-12.8,4.17a36.1,36.1,0,0,1-9.6,1.41,16.36,16.36,0,0,1-6.25-1.05,9,9,0,0,1-3.76-2.64,5.1,5.1,0,0,1-1.22-3.11,2.29,2.29,0,0,1,1-2.05q-.32-4.11,2-6.33A7.89,7.89,0,0,1,158.17,0a8.15,8.15,0,0,1,4,1A6.34,6.34,0,0,1,165,4a12.07,12.07,0,0,1,.57,2.95,5.27,5.27,0,0,1,.13.8,13.23,13.23,0,0,0,.23,1.32,1.71,1.71,0,0,0,.48,1,1,1,0,0,1-1.09.9,1.39,1.39,0,0,1-1-.39,4.27,4.27,0,0,1-3.47,1.54,4.59,4.59,0,0,1-2.79-.87A2.68,2.68,0,0,1,156.82,9a2.42,2.42,0,0,1,.68-1.86,2.27,2.27,0,0,1,1.63-.65,2.38,2.38,0,0,1,1.45.45,1.43,1.43,0,0,1,.61,1.22c0,.56-.24.84-.71.84a.62.62,0,0,1-.57-.32.71.71,0,0,0,0-.78,1,1,0,0,0-.93-.44,1.09,1.09,0,0,0-.93.48,1.81,1.81,0,0,0-.36,1.12,2,2,0,0,0,.74,1.54,3.28,3.28,0,0,0,2.21.64,3.72,3.72,0,0,0,3-1.25,4.64,4.64,0,0,0,1.09-3.18,5.36,5.36,0,0,0-1.93-4.36,6.87,6.87,0,0,0-4.55-1.6,7.17,7.17,0,0,0-4.18,1.28,2.69,2.69,0,0,1,.71-.07,2.87,2.87,0,0,1,1.38.33c.41.21.61.42.61.64a.39.39,0,0,1,.42.13.61.61,0,0,1,.16.38c0,.13-.09.24-.26.32a2.74,2.74,0,0,0-1.92-.7,3.25,3.25,0,0,0-2.35,1.06,5,5,0,0,0-1.38,2.4,12,12,0,0,0-.13,1.28,8,8,0,0,0,1.25,4.31,8.73,8.73,0,0,0,3.6,3.14,12.27,12.27,0,0,0,5.49,1.16,36.24,36.24,0,0,0,10.4-2,2.39,2.39,0,0,1-1.45-.26.93.93,0,0,1-.48-.77.67.67,0,0,1,.19-.51.62.62,0,0,1,.45-.2h.13c0,.6.53.9,1.61.9a26.14,26.14,0,0,0,7.38-1.8l10.07-3.53a1,1,0,0,1,1-.7.92.92,0,0,1,.64.25,42.09,42.09,0,0,1,11.17-2.11,18.31,18.31,0,0,1,5.93,1,9.53,9.53,0,0,1,4.47,2.92,94,94,0,0,1,16.43-1.41,80,80,0,0,1,18.77,2.05,38.45,38.45,0,0,1,15.12,7.39,1.29,1.29,0,0,0,.45-1,.72.72,0,0,0-.39-.71.62.62,0,0,1,.74-.13,1.22,1.22,0,0,1,.61.65,1.71,1.71,0,0,1,.58-.07,1.19,1.19,0,0,1,1,.39q2.5-1.86,2.5-4a1,1,0,0,0-.58-1v.07c-.08,0-.05-.08.1-.23a.74.74,0,0,1,.55-.22,1.11,1.11,0,0,1,.89.38,1.64,1.64,0,0,1,.33,1.1,5.12,5.12,0,0,1-1.35,3.14,9.85,9.85,0,0,1-4.05,2.76,31.87,31.87,0,0,1,7.74,10.3,27.13,27.13,0,0,1,2.66,11.46,20.18,20.18,0,0,1-.25,3.4c.77-1.45,1.56-2.18,2.37-2.18a1.54,1.54,0,0,1,.9.26.78.78,0,0,1,.38.7.62.62,0,0,1-.06.26.22.22,0,0,1-.19.13.69.69,0,0,0-.52-.19c-.64,0-1.29.45-1.95,1.38a4.84,4.84,0,0,0-1,2.92,2.78,2.78,0,0,0,.26,1.38.85.85,0,0,0,.58.45.42.42,0,0,0,.45-.23.64.64,0,0,1,.32.58.59.59,0,0,1-.23.45.85.85,0,0,1-.54.19c-.52,0-.92-.43-1.22-1.28a9.49,9.49,0,0,0,.67,4.62,2.78,2.78,0,0,0,2.6,1.92,1.65,1.65,0,0,0,1.19-.41,1.35,1.35,0,0,0,.41-1,1.3,1.3,0,0,0-.35-1,1.08,1.08,0,0,0-.8-.36.57.57,0,0,0-.48.2.56.56,0,0,0-.16.38c0,.17.06.28.19.32" transform="translate(0 0)"/><path class="cls-3" d="M85.94,15.48a9.52,9.52,0,0,0-3.63.91,4.19,4.19,0,0,0-2.18,2.42q-1.57-4.71-6.93-7.06a120.56,120.56,0,0,1,12.74,3.73M30.5,17.18c.65,0,1,.13,1,.39s-.54.57-1.6.94a22.63,22.63,0,0,1-4.74.89.73.73,0,0,0-.32.06,13.74,13.74,0,0,1,2.87-1.6,7.39,7.39,0,0,1,2.81-.68M15.22,25.53c-.66-.08-1.49.49-2.52,1.73A16.8,16.8,0,0,0,10,32.59a25.4,25.4,0,0,0-1.14,8,20.14,20.14,0,0,0,1.21,7.35C10.9,50,12,51,13.32,51a1.58,1.58,0,0,0,1-.29.82.82,0,0,0,.36-.62.39.39,0,0,0-.06-.26A1.12,1.12,0,0,1,14,50a3.48,3.48,0,0,1-2.48-1.37q-1.23-1.38-1.76-5.1a2.49,2.49,0,0,0,.72-.78,1,1,0,0,0,.78-.17.84.84,0,0,0,.39-.55,1.62,1.62,0,0,1-1.37-1.14,7.31,7.31,0,0,1-.45-2.78,18.71,18.71,0,0,1,1.47-6.89,13.12,13.12,0,0,1,4-5.65M2.55,54.46a.17.17,0,0,0,.06.23.63.63,0,0,0,.39.1.67.67,0,0,0,.53-.23A.83.83,0,0,0,3.72,54a1.36,1.36,0,0,0-.39-.94,1.45,1.45,0,0,0-1.11-.43,2.07,2.07,0,0,0-1.6.69A2.41,2.41,0,0,0,0,55a2.08,2.08,0,0,0,.72,1.66,2.63,2.63,0,0,0,1.76.62,3.75,3.75,0,0,0,3-1.73,7.45,7.45,0,0,0,1.3-4.6,14.23,14.23,0,0,0-.06-1.51,14.32,14.32,0,0,0,5,6.31,13.54,13.54,0,0,0,7.91,2.31A13.16,13.16,0,0,0,25,56.91a11.86,11.86,0,0,0,4.28-3.13,7.93,7.93,0,0,0,2-4.28c0-.18.13-1,.26-2.35s.48-2.29,1.05-2.68a1.84,1.84,0,0,0-.4-1,1.11,1.11,0,0,0-.91-.39.83.83,0,0,0-.85-.72.65.65,0,0,0-.46.2,7.11,7.11,0,0,0-2.57-2.39,7.64,7.64,0,0,0-3.7-.88,7,7,0,0,0-5.35,1.93,6.37,6.37,0,0,0-1.83,4.54,5.24,5.24,0,0,0,1.08,3.33,3.58,3.58,0,0,0,3,1.37,3.71,3.71,0,0,0,1.57-.26,5.15,5.15,0,0,0-.13,1,2.17,2.17,0,0,0,.32,1.24,1,1,0,0,0,.85.46.63.63,0,0,0,.46-.2.57.57,0,0,0,.2-.39.28.28,0,0,0-.07-.2.51.51,0,0,1-.59-.13,1.18,1.18,0,0,1-.26-.85,2.73,2.73,0,0,1,.82-1.92,3,3,0,0,1,1.6-1c0-.22-.15-.32-.46-.32a1.61,1.61,0,0,0-.72.19,5.13,5.13,0,0,0,.13-.91,2.2,2.2,0,0,0-.59-1.6,1.79,1.79,0,0,0-1.37-.62,2,2,0,0,0-1.17.36,1.09,1.09,0,0,0-.52.94.93.93,0,0,0,.13.53.42.42,0,0,0,.39.19l.26-.06c-.09,0-.12-.15-.1-.3a.81.81,0,0,1,.26-.45.92.92,0,0,1,.69-.23,1,1,0,0,1,.82.36,1.47,1.47,0,0,1,.29.94,2.36,2.36,0,0,1-.72,1.67,2.66,2.66,0,0,1-2,.75,2.86,2.86,0,0,1-2.39-1.14,4.4,4.4,0,0,1-.88-2.78A5.31,5.31,0,0,1,19,41.86a6.15,6.15,0,0,1,4.6-1.63,6.39,6.39,0,0,1,5.13,2.18,7.85,7.85,0,0,1,1.86,5.26A9.59,9.59,0,0,1,30,51a8.83,8.83,0,0,1-1.76,2.94,1.17,1.17,0,0,0-.06-1,.77.77,0,0,0-.66-.43.7.7,0,0,0-.52.2,1.51,1.51,0,0,1,.2.78,2.71,2.71,0,0,1-1.67,2.26A11,11,0,0,1,22,57a14.43,14.43,0,0,1-2.35.2,12.53,12.53,0,0,1-7.32-2.13,13.59,13.59,0,0,1-4.7-5.78A19.56,19.56,0,0,1,6,41.21,26.68,26.68,0,0,1,8.69,29.84a31.06,31.06,0,0,1,7.9-10.32,19.63,19.63,0,0,0,6,.85A15.76,15.76,0,0,0,19.72,25a13.31,13.31,0,0,0-1,4.8,6.7,6.7,0,0,0,1.08,3.95,3.43,3.43,0,0,0,3,1.54,3.68,3.68,0,0,0,2.55-.95,3.08,3.08,0,0,0,1-2.38,2.79,2.79,0,0,0-.62-1.86,2,2,0,0,0-1.6-.75A2.16,2.16,0,0,0,22.5,30a2,2,0,0,0-.62,1.44,1.52,1.52,0,0,0,.42,1.17,1.44,1.44,0,0,0,1,.39,1.38,1.38,0,0,0,.85-.23.77.77,0,0,0,.33-.68.65.65,0,0,0-.13-.43.44.44,0,0,0-.33-.16c-.13,0-.22,0-.26.07a.25.25,0,0,1,0,.45.55.55,0,0,1-.36.13c-.44,0-.65-.26-.65-.78a1,1,0,0,1,.45-.85,1.56,1.56,0,0,1,.92-.32,1.23,1.23,0,0,1,1,.52A2,2,0,0,1,25.53,32a2.42,2.42,0,0,1-.71,1.73,2.69,2.69,0,0,1-2,.75,2.65,2.65,0,0,1-2.51-1.6,6.57,6.57,0,0,1-.62-3.69.68.68,0,0,0,.58.26h.13c.27,0,.48-.17.66-.52a1.31,1.31,0,0,1-.59-.65A3,3,0,0,1,20.18,27a4.65,4.65,0,0,1,.19-1.18,15.3,15.3,0,0,1,3.4-5.42c.44,0,1.13,0,2.09-.13A15.52,15.52,0,0,0,31.18,19c1.11-.59,1.67-1.19,1.67-1.79a1.21,1.21,0,0,0-.59-1.05,2.54,2.54,0,0,0-1.44-.39,7.43,7.43,0,0,0-3.75,1,22.76,22.76,0,0,0-3.69,2.74,12.9,12.9,0,0,1-5.62-.91,38.92,38.92,0,0,1,15.05-7.25,79.9,79.9,0,0,1,18.71-2,101.15,101.15,0,0,1,11.11.59,37.18,37.18,0,0,0-8.56,1.2,28.15,28.15,0,0,0-7.54,3c-2,1.21-3,2.5-3,3.85A1.56,1.56,0,0,0,43.88,19a1.22,1.22,0,0,0,.92.42,1,1,0,0,0,1-.52,1.21,1.21,0,0,1-.59-1.05,3.6,3.6,0,0,1,1.34-2.35,12.24,12.24,0,0,1,3.88-2.35,2.39,2.39,0,0,0,1.64.52h.52a1.2,1.2,0,0,0,.36.79,1,1,0,0,0,.68.26,1,1,0,0,0,1-.85.44.44,0,0,1-.46-.16.85.85,0,0,1-.2-.56c0-.7.92-1.26,2.75-1.7a27.82,27.82,0,0,1,6.33-.65,31.63,31.63,0,0,1,4.51.33,3.1,3.1,0,0,0-.33,1.43,1.67,1.67,0,0,0,.33,1.11,1,1,0,0,0,.78.4.89.89,0,0,0,.62-.27.82.82,0,0,0,.3-.65A.68.68,0,0,1,68.6,13a1.3,1.3,0,0,1-.23-.81,2.6,2.6,0,0,1,.2-.85,19.81,19.81,0,0,1,3.39,1,6.87,6.87,0,0,1,2.81,2.05,4.1,4.1,0,0,1,1,2.45,1.4,1.4,0,0,1-1.31,1.57,1,1,0,0,0,.43.69,1.49,1.49,0,0,0,2-.33,2.22,2.22,0,0,0,.49-1.53,3.7,3.7,0,0,0-.52-2A10.39,10.39,0,0,1,79.93,23a6.9,6.9,0,0,1-1.5,4.47,4.87,4.87,0,0,1-4,1.86A3.13,3.13,0,0,1,72,28.41a3,3,0,0,1-.85-2.09,2.54,2.54,0,0,1,.42-1.47,1.38,1.38,0,0,1,1.21-.62.92.92,0,0,1,.75.26.83.83,0,0,1,.23.59.91.91,0,0,1-.13.52.44.44,0,0,1-.39.19l-.13-.06c-.09.13-.07.28.06.46a.72.72,0,0,0,.59.26,1.26,1.26,0,0,0,1-.43,1.44,1.44,0,0,0,.39-1,1.74,1.74,0,0,0-.55-1.27,2.08,2.08,0,0,0-1.54-.56,2.42,2.42,0,0,0-2,.92,3.48,3.48,0,0,0-.72,2.22,3.83,3.83,0,0,0,1.11,2.77,3.92,3.92,0,0,0,2.94,1.15,6.13,6.13,0,0,0,1.44-.2,1.41,1.41,0,0,0,1,.39,2.69,2.69,0,0,0,2.06-1.14,8.14,8.14,0,0,0,1.47-3,12.24,12.24,0,0,0,.45-3.82,2.07,2.07,0,0,0,1.51.66,1.82,1.82,0,0,0,1.37-.49,1.58,1.58,0,0,0,.45-1.08,1.23,1.23,0,0,0-.29-.82.94.94,0,0,0-.75-.36,1,1,0,0,0-.49.14c-.15.08-.23.17-.23.26.22,0,.33.21.33.52a.58.58,0,0,1-.66.65,1.07,1.07,0,0,1-.94-.55,2.42,2.42,0,0,1-.36-1.34,3,3,0,0,1,.39-1.44,3.47,3.47,0,0,1,1.18-1.24,1.08,1.08,0,0,0,0,.75.5.5,0,0,0,.52.36.76.76,0,0,0,.52-.26.91.91,0,0,1,0-.95,1.84,1.84,0,0,1,1.21-.81,16.59,16.59,0,0,1,1.7-.13,6.48,6.48,0,0,1,4.18,1.3,3.69,3.69,0,0,1,1.63,2.88,2.14,2.14,0,0,1-.26,1.14.92.92,0,0,1-.85.42.94.94,0,0,1-.68-.29.87.87,0,0,1-.3-.62V21c-.08-.09-.25-.07-.49.06a.82.82,0,0,0-.36.79,1.22,1.22,0,0,0,.52,1,2,2,0,0,0,1.25.39,2.24,2.24,0,0,0,1.24-.39A2,2,0,0,0,93,21.61a1.08,1.08,0,0,0,.91-.39,4.36,4.36,0,0,1-.71-1.5l-.33-.81a4.37,4.37,0,0,0-.78-1.21c1.56.61,4.22,1.67,8,3.2L102.85,22a1,1,0,0,0,.33.81,1,1,0,0,0,.72.3,1.07,1.07,0,0,0,.78-.33,117.53,117.53,0,0,0,13.26,4.47,42.6,42.6,0,0,0,10.77,1.41,34.14,34.14,0,0,0,9.73-1.21,15.92,15.92,0,0,0,6-3c1.33-1.2,2-2.34,2-3.43a1.73,1.73,0,0,0-.65-1.44,7.85,7.85,0,0,0,.2-1.76,6.38,6.38,0,0,0-.75-3.17c-.51-.89-1-1.34-1.61-1.34a1.38,1.38,0,0,0-.91.33,1,1,0,0,0-.39.78,2,2,0,0,0,.13.59,1.31,1.31,0,0,1,1.6.65,4.48,4.48,0,0,1,.69,2.61,7.38,7.38,0,0,1-1.21,3.86,10.52,10.52,0,0,1-4,3.49,19.45,19.45,0,0,1-7.38,2,28,28,0,0,1-5.09.2,1.82,1.82,0,0,0-1.37-1.05,1.83,1.83,0,0,0,.85-1.43,1.26,1.26,0,0,0-.23-.72.89.89,0,0,0-.62-.39c0,.78-.42,1.31-1.37,1.6a11.68,11.68,0,0,1-3.27.42,23.92,23.92,0,0,1-6.69-1q-3.36-1-9.31-3.33a.92.92,0,0,0-.23-.78.94.94,0,0,0-.75-.33,1.2,1.2,0,0,0-.85.39l-2.87-1.17q-9.27-3.8-16.2-6.14a108.35,108.35,0,0,0-14.88-3.85,8,8,0,0,1,4.08-2.42,19.14,19.14,0,0,1,5.32-.78,41,41,0,0,1,11,2,1,1,0,0,0,.26.88,1.13,1.13,0,0,0,.79.3,1.08,1.08,0,0,0,1-.52L98.74,12q7.83,2.81,13,4.24a36.69,36.69,0,0,0,9.77,1.44,16.47,16.47,0,0,0,6.36-1.08,9.06,9.06,0,0,0,3.82-2.68A5.15,5.15,0,0,0,133,10.78a2.33,2.33,0,0,0-1-2.09c.21-2.79-.46-4.94-2-6.44A8,8,0,0,0,124.2,0a8.35,8.35,0,0,0-4.11,1.05,6.44,6.44,0,0,0-2.81,3,12.39,12.39,0,0,0-.58,3,7,7,0,0,0-.14.82c0,.37-.11.82-.22,1.34a1.83,1.83,0,0,1-.49,1,1,1,0,0,0,1.11.92,1.41,1.41,0,0,0,1-.39,4.37,4.37,0,0,0,3.53,1.56,4.68,4.68,0,0,0,2.84-.88,2.76,2.76,0,0,0,1.21-2.32,2.48,2.48,0,0,0-.69-1.89,2.3,2.3,0,0,0-1.66-.65,2.42,2.42,0,0,0-1.47.45,1.45,1.45,0,0,0-.62,1.24c0,.57.24.85.71.85a.66.66,0,0,0,.59-.32.7.7,0,0,1,0-.79,1,1,0,0,1,1-.46,1.13,1.13,0,0,1,.94.49,1.9,1.9,0,0,1,.36,1.15,2,2,0,0,1-.75,1.57,3.37,3.37,0,0,1-2.25.65,3.81,3.81,0,0,1-3-1.28,4.71,4.71,0,0,1-1.11-3.23,5.5,5.5,0,0,1,2-4.44A7,7,0,0,1,124.14.85a7.22,7.22,0,0,1,4.24,1.31,2.31,2.31,0,0,0-.71-.07,3,3,0,0,0-1.41.33c-.41.21-.62.43-.62.65a.39.39,0,0,0-.42.13.61.61,0,0,0-.17.39q0,.2.27.33a2.76,2.76,0,0,1,2-.72,3.31,3.31,0,0,1,2.39,1.08,5.07,5.07,0,0,1,1.4,2.45,10,10,0,0,1,.13,1.3,8.06,8.06,0,0,1-1.27,4.38,8.83,8.83,0,0,1-3.66,3.2,12.53,12.53,0,0,1-5.58,1.17,36.56,36.56,0,0,1-10.58-2,2.47,2.47,0,0,0,1.47-.26.94.94,0,0,0,.49-.79.7.7,0,0,0-.2-.52.61.61,0,0,0-.45-.19h-.13c0,.6-.55.91-1.64.91a26.59,26.59,0,0,1-7.51-1.83L91.88,8.49a1,1,0,0,0-1-.72.89.89,0,0,0-.65.26A43,43,0,0,0,78.89,5.88a18.72,18.72,0,0,0-6,1,9.53,9.53,0,0,0-4.54,3A95.33,95.33,0,0,0,51.59,8.42a81,81,0,0,0-19.1,2.09A39.34,39.34,0,0,0,17.11,18a1.32,1.32,0,0,1-.46-1,.73.73,0,0,1,.39-.72.61.61,0,0,0-.75-.13,1.23,1.23,0,0,0-.62.65,2.09,2.09,0,0,0-.58-.06,1.19,1.19,0,0,0-1,.39q-2.55-1.89-2.55-4a1,1,0,0,1,.59-1v.07c.08,0,0-.08-.1-.23a.73.73,0,0,0-.56-.23,1.12,1.12,0,0,0-.91.39,1.67,1.67,0,0,0-.33,1.11,5.24,5.24,0,0,0,1.37,3.2,10,10,0,0,0,4.12,2.81A32.31,32.31,0,0,0,7.87,29.68,27.47,27.47,0,0,0,5.16,41.34a20.86,20.86,0,0,0,.26,3.46C4.64,43.32,3.83,42.58,3,42.58a1.57,1.57,0,0,0-.91.26.81.81,0,0,0-.39.72.65.65,0,0,0,.06.26A.21.21,0,0,0,2,44a.7.7,0,0,1,.52-.2c.66,0,1.32.47,2,1.41a4.94,4.94,0,0,1,1,3,2.84,2.84,0,0,1-.26,1.4.84.84,0,0,1-.59.46.43.43,0,0,1-.46-.23.64.64,0,0,0-.33.59.62.62,0,0,0,.23.46.83.83,0,0,0,.56.19c.52,0,.93-.43,1.24-1.31a9.7,9.7,0,0,1-.69,4.71,2.84,2.84,0,0,1-2.64,2,1.64,1.64,0,0,1-1.21-.43,1.49,1.49,0,0,1-.07-2,1.14,1.14,0,0,1,.82-.36.6.6,0,0,1,.65.59c0,.17-.06.28-.19.32" transform="translate(0 0)"/><path class="cls-4" d="M104.85,273.19a7.63,7.63,0,0,1,1.06.09v7.12a2.67,2.67,0,0,1-.77.09,2.92,2.92,0,0,1-.79-.09v-2.13c0-1.19.06-2.67.13-3.21h-.06c-.12.43-.54,1.54-.88,2.37l-.66,1.55a1.93,1.93,0,0,1-.58.07,1.56,1.56,0,0,1-.54-.07c-.21-.5-.43-1-.63-1.49a22.22,22.22,0,0,1-.92-2.43h-.06a21.68,21.68,0,0,1,.17,3.05v2.29a2.41,2.41,0,0,1-.72.09,2.46,2.46,0,0,1-.71-.09v-7.12a6.19,6.19,0,0,1,1-.09,4.83,4.83,0,0,1,1,.09l.8,1.87a13.17,13.17,0,0,1,.7,2h0a6.81,6.81,0,0,1,.35-1.15c.35-.88.75-1.79,1.13-2.67a4.73,4.73,0,0,1,1-.09" transform="translate(0 0)"/><path class="cls-4" d="M111.05,274.71a7.74,7.74,0,0,1-.27,1.19l-.6,1.83H112l-.59-1.83a7.63,7.63,0,0,1-.3-1.19Zm.07-1.52a4.7,4.7,0,0,1,1,.09l2.31,7.12a3.07,3.07,0,0,1-.85.09,2.55,2.55,0,0,1-.78-.09l-.48-1.48h-2.54l-.48,1.48a3,3,0,0,1-.79.09,2.6,2.6,0,0,1-.75-.09l2.31-7.12a4.87,4.87,0,0,1,1-.09" transform="translate(0 0)"/><path class="cls-4" d="M118,276.4h.93a1,1,0,0,0,0-1.95H118Zm1.16-3.21a2.14,2.14,0,0,1,2.4,2.24,2.07,2.07,0,0,1-1.27,2l1.65,2.94a3.85,3.85,0,0,1-.92.09,3.62,3.62,0,0,1-.89-.09l-1.5-2.74H118v2.74a3.15,3.15,0,0,1-.8.09,3,3,0,0,1-.83-.09v-7.21Z" transform="translate(0 0)"/><path class="cls-4" d="M128.51,273.19a3.89,3.89,0,0,1,.88.09l-2.47,4.32v2.8a2.75,2.75,0,0,1-.79.09,2.62,2.62,0,0,1-.82-.09v-2.79l-2.39-4.33a4,4,0,0,1,1-.09,3.67,3.67,0,0,1,.88.09l1.45,2.65,1.48-2.65a3.27,3.27,0,0,1,.83-.09" transform="translate(0 0)"/><path class="cls-4" d="M133.94,279.31a.85.85,0,0,0,.95-1c0-.68-.33-1-.95-1h-1.1v1.94Zm-.05-3.11c.54,0,.82-.36.82-.92s-.28-.92-.82-.92h-1v1.84Zm.32-3a1.91,1.91,0,0,1,2.11,2,1.65,1.65,0,0,1-.79,1.49,1.74,1.74,0,0,1,1,1.66,2,2,0,0,1-2.29,2.11h-3v-7.3Z" transform="translate(0 0)"/><path class="cls-4" d="M141.53,274.33c-.83,0-1.35.49-1.35,2.51s.52,2.49,1.35,2.49,1.35-.48,1.35-2.49-.51-2.51-1.35-2.51m0-1.26c1.87,0,3.07,1.13,3.07,3.77s-1.18,3.77-3.07,3.77-3.07-1.13-3.07-3.77,1.2-3.77,3.07-3.77" transform="translate(0 0)"/><path class="cls-4" d="M148.46,276.4h.93a1,1,0,0,0,0-1.95h-.93Zm1.16-3.21a2.14,2.14,0,0,1,2.4,2.24,2.07,2.07,0,0,1-1.27,2l1.65,2.94a3.85,3.85,0,0,1-.92.09,3.62,3.62,0,0,1-.89-.09l-1.51-2.74h-.62v2.74a3.15,3.15,0,0,1-.8.09,3,3,0,0,1-.83-.09v-7.21Z" transform="translate(0 0)"/><path class="cls-4" d="M157.1,274.33c-.84,0-1.35.49-1.35,2.51s.51,2.49,1.35,2.49,1.34-.48,1.34-2.49-.5-2.51-1.34-2.51m0-1.26c1.86,0,3.06,1.13,3.06,3.77s-1.18,3.77-3.06,3.77-3.08-1.13-3.08-3.77,1.2-3.77,3.08-3.77" transform="translate(0 0)"/><path class="cls-4" d="M167.88,278a2.77,2.77,0,0,1-5.53,0v-4.67a2.87,2.87,0,0,1,.8-.09,3.09,3.09,0,0,1,.81.09v4.79a1.16,1.16,0,1,0,2.32,0v-4.79a2.83,2.83,0,0,1,.79-.09,3,3,0,0,1,.81.09Z" transform="translate(0 0)"/><path class="cls-4" d="M173.43,273.09a4.55,4.55,0,0,1,2.06.4,1.67,1.67,0,0,1-.46,1.13,4.74,4.74,0,0,0-1.42-.24c-1.1,0-1.86.54-1.86,2.47s.72,2.43,1.82,2.43a4.81,4.81,0,0,0,.5,0v-1.78H173a1.54,1.54,0,0,1-.1-.61,1.65,1.65,0,0,1,.1-.63h2.63v4a5,5,0,0,1-2.16.4c-2.18,0-3.37-1.31-3.37-3.75s1.19-3.75,3.37-3.75" transform="translate(0 0)"/><path class="cls-4" d="M181.82,273.28a3.32,3.32,0,0,1,.82-.09,3.28,3.28,0,0,1,.81.09v7.12a3.15,3.15,0,0,1-.8.09,3,3,0,0,1-.83-.09v-3h-2.28v3a3.28,3.28,0,0,1-.81.09,2.83,2.83,0,0,1-.81-.09v-7.12a3.05,3.05,0,0,1,.8-.09,3.23,3.23,0,0,1,.82.09v2.81h2.28Z" transform="translate(0 0)"/><path class="cls-4" d="M84.7,285.79c-.84,0-1.38.5-1.38,2.24s.54,2.25,1.38,2.25,1.38-.5,1.38-2.25-.53-2.24-1.38-2.24m0-.67c1.37,0,2.23.87,2.23,2.91a3.18,3.18,0,0,1-.78,2.43,2.47,2.47,0,0,0,1.06.5.9.9,0,0,1-.44.67,2.39,2.39,0,0,1-1.15-.85,2.25,2.25,0,0,1-.92.18c-1.38,0-2.22-.88-2.22-2.93s.85-2.91,2.22-2.91" transform="translate(0 0)"/><path class="cls-4" d="M92.88,289a2,2,0,1,1-4,0v-3.7a1.1,1.1,0,0,1,.4-.06,1,1,0,0,1,.4.06v3.83a1.1,1.1,0,0,0,1.2,1.2,1.09,1.09,0,0,0,1.19-1.2v-3.83a1,1,0,0,1,.39-.06,1.1,1.1,0,0,1,.4.06Z" transform="translate(0 0)"/><path class="cls-4" d="M98.31,285.19a.82.82,0,0,1,.07.31,1,1,0,0,1-.07.35H95.92v1.83h2A1.07,1.07,0,0,1,98,288a1,1,0,0,1-.06.34h-2v1.89h2.47a.82.82,0,0,1,.07.31,1.09,1.09,0,0,1-.07.35H95.11v-5.69Z" transform="translate(0 0)"/><path class="cls-4" d="M103.56,285.19a1.07,1.07,0,0,1,.06.31,1,1,0,0,1-.06.35h-2.4v1.83h2a.82.82,0,0,1,.07.31,1,1,0,0,1-.07.34h-2v1.89h2.48a.93.93,0,0,1,0,.66h-3.29v-5.69Z" transform="translate(0 0)"/><path class="cls-4" d="M106.79,287.23a7.15,7.15,0,0,1-.47-1h0a13.08,13.08,0,0,1,.06,1.33v3.28a.92.92,0,0,1-.38.06.82.82,0,0,1-.36-.06v-5.57a1.5,1.5,0,0,1,.48-.06,1.47,1.47,0,0,1,.47.06l2,3.56a10.11,10.11,0,0,1,.49,1.05h0s-.06-.59-.06-1.32v-3.29a.92.92,0,0,1,.38-.06.84.84,0,0,1,.37.06v5.57a1.39,1.39,0,0,1-.47.06,1.5,1.5,0,0,1-.48-.06Z" transform="translate(0 0)"/><path class="cls-4" d="M113.65,285.12a4.91,4.91,0,0,1,1.55.22,1,1,0,0,1-.22.63,4.28,4.28,0,0,0-1.22-.18c-.83,0-1.24.33-1.24.9s.68.75,1.42,1,1.47.59,1.47,1.63-.69,1.65-2,1.65a4,4,0,0,1-1.7-.34,1.16,1.16,0,0,1,.19-.64,5.29,5.29,0,0,0,1.47.25c.81,0,1.2-.31,1.2-.9s-.45-.76-1-.93c-.82-.28-1.87-.47-1.87-1.67,0-1,.64-1.61,1.92-1.61" transform="translate(0 0)"/><path class="cls-4" d="M117.34,285.25a1.1,1.1,0,0,1,.4-.06,1.13,1.13,0,0,1,.41.06v4.93h2.36a1.22,1.22,0,0,1,.06.35,1.35,1.35,0,0,1-.06.35h-3.17Z" transform="translate(0 0)"/><path class="cls-4" d="M124.13,286.07s-.07.32-.2.71l-.73,2h1.88l-.72-2a6.21,6.21,0,0,1-.2-.71Zm0-.88a1.54,1.54,0,0,1,.47.06l2,5.57a1.29,1.29,0,0,1-.44.06,1,1,0,0,1-.39-.06l-.49-1.39H123l-.49,1.39a1.08,1.08,0,0,1-.39.06.9.9,0,0,1-.37-.06l2-5.57a1.8,1.8,0,0,1,.47-.06" transform="translate(0 0)"/><path class="cls-4" d="M129.5,287.23a6.47,6.47,0,0,1-.46-1h0a13.08,13.08,0,0,1,.06,1.33v3.28a.92.92,0,0,1-.38.06.82.82,0,0,1-.36-.06v-5.57a1.5,1.5,0,0,1,.48-.06,1.39,1.39,0,0,1,.47.06l2,3.56a10.11,10.11,0,0,1,.49,1.05h0s-.05-.59-.05-1.32v-3.29a.87.87,0,0,1,.38-.06.76.76,0,0,1,.36.06v5.57a1.39,1.39,0,0,1-.47.06,1.58,1.58,0,0,1-.48-.06Z" transform="translate(0 0)"/><path class="cls-4" d="M136.4,290.2c.93,0,1.52-.39,1.52-2.17s-.59-2.16-1.52-2.16h-.89v4.33Zm.06-5c1.46,0,2.32.75,2.32,2.84s-.86,2.85-2.32,2.85h-1.75v-5.69Z" transform="translate(0 0)"/><path class="cls-4" d="M145.92,284.64a1.1,1.1,0,0,1,.4.06v7.68a1.3,1.3,0,0,1-.4.05,1.12,1.12,0,0,1-.39-.05V284.7a1,1,0,0,1,.39-.06" transform="translate(0 0)"/><path class="cls-4" d="M154.92,286.07s-.07.32-.2.71l-.73,2h1.88l-.72-2a6.21,6.21,0,0,1-.2-.71Zm0-.88a1.66,1.66,0,0,1,.48.06l2,5.57a1.29,1.29,0,0,1-.44.06,1,1,0,0,1-.39-.06l-.49-1.39h-2.34l-.5,1.39a1,1,0,0,1-.38.06.9.9,0,0,1-.37-.06l2-5.57a1.71,1.71,0,0,1,.47-.06" transform="translate(0 0)"/><path class="cls-4" d="M162.92,289a2,2,0,1,1-4,0v-3.7a1,1,0,0,1,.4-.06,1.1,1.1,0,0,1,.4.06v3.83a1.2,1.2,0,1,0,2.39,0v-3.83a1,1,0,0,1,.39-.06,1.1,1.1,0,0,1,.4.06Z" transform="translate(0 0)"/><path class="cls-4" d="M166.81,285.12a4.88,4.88,0,0,1,1.54.22,1,1,0,0,1-.22.63,4.25,4.25,0,0,0-1.21-.18c-.84,0-1.24.33-1.24.9s.68.75,1.41,1,1.48.59,1.48,1.63-.69,1.65-2,1.65a4,4,0,0,1-1.71-.34,1.16,1.16,0,0,1,.19-.64,5.29,5.29,0,0,0,1.47.25c.82,0,1.2-.31,1.2-.9s-.44-.76-1-.93c-.82-.28-1.87-.47-1.87-1.67,0-1,.64-1.61,1.93-1.61" transform="translate(0 0)"/><path class="cls-4" d="M173.83,285.19a.89.89,0,0,1,.07.34.93.93,0,0,1-.07.36h-1.47v4.93a1.1,1.1,0,0,1-.4.06,1,1,0,0,1-.4-.06v-4.93h-1.51a1,1,0,0,1-.06-.35,1,1,0,0,1,.06-.35Z" transform="translate(0 0)"/><path class="cls-4" d="M176.47,287.85h1.12a1,1,0,0,0,0-2h-1.12Zm1.22-2.66a1.59,1.59,0,0,1,1.7,1.67,1.56,1.56,0,0,1-1.12,1.58l1.38,2.38a1.58,1.58,0,0,1-.48.06,1.4,1.4,0,0,1-.45-.06l-1.31-2.3h-.94v2.3a1.36,1.36,0,0,1-.8,0v-5.63Z" transform="translate(0 0)"/><path class="cls-4" d="M183.31,286.07s-.07.32-.2.71l-.73,2h1.88l-.72-2c-.14-.41-.21-.71-.21-.71Zm0-.88a1.54,1.54,0,0,1,.47.06l2,5.57a1.19,1.19,0,0,1-.43.06,1,1,0,0,1-.4-.06l-.48-1.39h-2.34l-.5,1.39a1,1,0,0,1-.38.06,1,1,0,0,1-.37-.06l2-5.57a1.71,1.71,0,0,1,.47-.06" transform="translate(0 0)"/><path class="cls-4" d="M187.5,285.25a1,1,0,0,1,.39-.06,1.07,1.07,0,0,1,.41.06v4.93h2.36a1,1,0,0,1,.07.35,1,1,0,0,1-.07.35H187.5Z" transform="translate(0 0)"/><path class="cls-4" d="M192.45,285.25a1,1,0,0,1,.4-.06,1.13,1.13,0,0,1,.41.06v5.57a1.2,1.2,0,0,1-.41.06,1,1,0,0,1-.4-.06Z" transform="translate(0 0)"/><path class="cls-4" d="M197.36,286.07s-.07.32-.2.71l-.73,2h1.88l-.72-2a6.21,6.21,0,0,1-.2-.71Zm0-.88a1.66,1.66,0,0,1,.48.06l2,5.57a1.23,1.23,0,0,1-.44.06,1,1,0,0,1-.39-.06l-.49-1.39H196.2l-.49,1.39a1.08,1.08,0,0,1-.39.06,1,1,0,0,1-.37-.06l2-5.57a1.8,1.8,0,0,1,.47-.06" transform="translate(0 0)"/><path class="cls-4" d="M45.7,139.05c0,9.32-6.18,14.82-13.15,14.82a11.69,11.69,0,0,1-12.1-11.55c0-5.37,3.58-9.39,8.45-9.39,3.83,0,6.3,2.35,6.3,5.31,0,2.32-1.39,3.59-2.73,3.59a1.93,1.93,0,0,1-1.1-.31,1.82,1.82,0,0,0,.12-.65,2.1,2.1,0,0,0-2.15-2c-1.67,0-2.66,1.54-2.66,3.34a5.48,5.48,0,0,0,5.5,5.49c3.7,0,6.73-3.33,6.73-8.34,0-5.18-3-8.57-6.59-12s-6.81-7.09-6.81-12.68c0-5.93,4-9.45,9.63-9.45a32.36,32.36,0,0,1,3.84.49,2.6,2.6,0,0,0,1.41-.43h1.23v10.07H40.39c-1.3-3-3-4-4.69-4a3.22,3.22,0,0,0-3.4,3.33c0,2.6,2.26,5.07,5,7.87,4.07,4.12,8.37,8.92,8.37,16.46" transform="translate(0 0)"/><path class="cls-4" d="M68.36,121.51l-.56-6.85H49l-.56,6.85.93.12a3.83,3.83,0,0,1,3.21-1.42h2.72v21.3c0,1.74-.68,2.79-1.24,3.09l.13.93h8.39l.13-.93c-.56-.3-1.24-1.35-1.24-3.09v-21.3h2.72a3.83,3.83,0,0,1,3.21,1.42Z" transform="translate(0 0)"/><path class="cls-4" d="M88.05,130.09c0-7-2-10.5-4.87-10.5s-4.94,3.4-4.94,10.5,2,10.5,4.94,10.5,4.87-3.46,4.87-10.5m-16.29,0c0-10.37,4.62-16,11.42-16s11.36,5.68,11.36,16-4.63,16-11.36,16-11.42-5.67-11.42-16" transform="translate(0 0)"/><path class="cls-4" d="M106,120.21h2.35c2.41,0,3.58,1.48,3.58,3.28,0,2.93-3,5.24-5.93,6.08Zm11.27,21.42L114,131.36a10.15,10.15,0,0,0,4.34-8c0-4.69-3.4-8.7-9.75-8.7H98.68l-.13.92a3.53,3.53,0,0,1,1.24,3.09v22.85a3.52,3.52,0,0,1-1.24,3.08l.13.93h8.39l.13-.93a3.52,3.52,0,0,1-1.24-3.08v-6.83a18.27,18.27,0,0,0,2.73-.62l2.28,7.72a2.33,2.33,0,0,1-.75,2.81l.12.93h8.59l.12-.93a5.22,5.22,0,0,1-1.82-3" transform="translate(0 0)"/><path class="cls-4" d="M143.87,114.66H136l-.13.92c.5.31.6,1.36,0,2.85l-3,7.59-3.21-7.84c-.49-1.18-.37-2.35.12-2.6l-.12-.92h-8.52l-.13.92a6.13,6.13,0,0,1,2.54,3.09l5.92,14.63v8.22a3.54,3.54,0,0,1-1.23,3.08l.12.93h8.4l.12-.93a3.54,3.54,0,0,1-1.23-3.08v-8.34l5.86-14.57a6.58,6.58,0,0,1,2.54-3Z" transform="translate(0 0)"/><path class="cls-4" d="M175.86,142.26a8.67,8.67,0,0,1-2-.28V127.81a23.3,23.3,0,0,0,2.22-.84c2.37.44,5.44,2.71,5.44,7.76,0,4.38-2.41,7.53-5.68,7.53m10.25-27.85c0-5-3.28-11.79-13.77-11.79-8.77,0-16.3,7.1-16.3,14.75,0,3.89,2.22,7,5,7a3.55,3.55,0,0,0,3.54-3.58,4.43,4.43,0,0,0-.08-.8,1.52,1.52,0,0,1-.62.15c-1,0-1.67-1.46-1.67-3.24,0-4.38,4.32-8.09,10.31-8.09,4.76,0,6.8,2.72,6.8,5.93,0,3.5-2.4,6.15-5.44,7.85v-7.3a3.54,3.54,0,0,1,1.23-3.08l-.12-.93c-1.84,0-3.39,1-4.89,2A8.11,8.11,0,0,1,166,115l-.13.92a3.53,3.53,0,0,1,1.24,3.09v24.45a3.53,3.53,0,0,1-1.24,3.09l.13.92h4a9.09,9.09,0,0,1,2.93.47,10.29,10.29,0,0,0,3.37.52c5.86,0,12-4.5,12-13.7,0-5.81-3-9.66-6.57-11.34a12.18,12.18,0,0,0,4.41-9" transform="translate(0 0)"/><path class="cls-4" d="M199.22,134.24l2.57-14.36,2.4,13.65Zm12.94,8.57-5.43-28.22H196l-.13.93a2.18,2.18,0,0,1,.93,2.29l-4.82,25a3,3,0,0,1-1.42,1.79l.13.93h7.9l.12-.93c-.78,0-1.11-1.21-.86-2.59l.44-2.46,6.77-1.13.63,3.59c.29,1.65-.37,2.35-.86,2.59l.12.93h8.52l.12-.93a2.62,2.62,0,0,1-1.42-1.79" transform="translate(0 0)"/><path class="cls-4" d="M237.05,141.89V118.67a3.55,3.55,0,0,1,1.23-3.09l-.12-.92h-7.78l-.13.92a3.53,3.53,0,0,1,1.24,3.09v8.5c-3.52-4.46-7.41-7.61-7.41-10.72,0-.68.31-.87.62-.87l-.13-.92h-7.16l-.12.92a3.55,3.55,0,0,1,1.23,3.09v22.85a3.54,3.54,0,0,1-1.23,3.08l.12.93h7.78l.13-.93a3.52,3.52,0,0,1-1.24-3.08v-13c3.44,4.32,7.41,7.92,7.41,13.34,0,1.73-.68,2.47-1.23,2.78l.12.93h7.78l.12-.93c-.55-.31-1.23-1-1.23-2.71" transform="translate(0 0)"/><path class="cls-4" d="M263.28,142.8l-6.4-17.6-.19.2L261.9,118a6.36,6.36,0,0,1,2.56-2.46l-.12-.92h-9l-.12.92c1,.66.16,1.72-1.54,4.7l-3,5.28v-6.89a3.53,3.53,0,0,1,1.24-3.09l-.13-.92h-8.4l-.12.92a3.53,3.53,0,0,1,1.24,3.09v22.84c0,1.74-.68,2.79-1.24,3.09l.12.93h8.4l.13-.93c-.56-.3-1.24-1.35-1.24-3.09V134l1.94-2.75,4.08,10.67a2.23,2.23,0,0,1-.65,2.72l.12.93h8.42l.13-.93a3.08,3.08,0,0,1-1.39-1.8" transform="translate(0 0)"/><path class="cls-5" d="M33.85,114.16a3.91,3.91,0,0,0-.51,0,2.22,2.22,0,0,1,2.36-1.82c1.57,0,2.81,1.09,3.78,3.34l.26.6h1.88l-1.77,1.8H37.93l-.25-.57c-1-2.28-2.23-3.39-3.83-3.39m-1.38,28.65a3.33,3.33,0,0,0,1.89-.6L33,143.56a3.34,3.34,0,0,1-2.38,1,2.74,2.74,0,0,1-1.62-.47l-.6-.4a2.23,2.23,0,0,0,.31-1,1.16,1.16,0,0,0-1-1.07c.14-.94.67-1.81,1.63-1.81a1.11,1.11,0,0,1,1.16,1,2,2,0,0,1-.32,1l.64.43a2.84,2.84,0,0,0,1.65.48m2.45,3.07a9,9,0,0,0,1.21-4.67,13,13,0,0,0-.1-1.55,6.23,6.23,0,0,0,.16-1.42,6,6,0,0,0-3.6-5.51c-.79-.93-1.71-1.86-2.76-2.87-3.59-3.48-7.1-7.37-7.1-13.35a10.21,10.21,0,0,1,2.84-7.46l1.09-1.1a10.65,10.65,0,0,0-2.14,6.71c0,6,3.52,9.91,7.12,13.39a27.83,27.83,0,0,1,4.47,5.17,11.15,11.15,0,0,1,1.81,6.13,8.36,8.36,0,0,1-1.75,5.41,5.27,5.27,0,0,1-1.25,1.12m-17.25-1.71a10.87,10.87,0,0,1,2.63-7.32l.36-.38,1.08-1.08a11.12,11.12,0,0,0-2.28,6.93,12.68,12.68,0,0,0,13.09,12.53,13.54,13.54,0,0,0,8.7-3.1l-.91.92a13.52,13.52,0,0,1-9.65,4,12.62,12.62,0,0,1-13-12.47" transform="translate(0 0)"/><path class="cls-5" d="M68.36,122.51l-1.78,1.77-1.5.21-.31-.55a3,3,0,0,0-2.28-.94v-1.8h1.73a2.94,2.94,0,0,1,2.35.92l.33.58Zm-5.81,24-1.79,1.79H51.55L51.24,146l1-1a4.15,4.15,0,0,0,.27-1.55V123H50.76a3.73,3.73,0,0,0-1.51.31l-1.2,1.19-2.42-.32.63-7.74L48,114.64l-.63,7.73,2.53.33.33-.58a2.94,2.94,0,0,1,2.35-.92h1.72v20.32a2.84,2.84,0,0,1-.72,2.22l-.59.33.32,2.45Z" transform="translate(0 0)"/><path class="cls-5" d="M87.07,130.1c0,5.17-1.17,8.62-3.09,9.36a17.61,17.61,0,0,0,1.3-7.51c0-5.91-1.52-9.57-4-9.57a2.43,2.43,0,0,0-.77.12,3,3,0,0,1,2.62-1.92c2.39,0,3.89,3.65,3.89,9.51ZM69,132c0-5.2,1.15-9.51,3.34-12.47a12.07,12.07,0,0,1,1.13-1.32l1-1c-2.84,3.5-3.72,8.5-3.72,13,0,9.89,4.29,17,12.41,17a10.82,10.82,0,0,0,6.93-2.35l-.92.91a10.68,10.68,0,0,1-7.86,3.24c-7.68,0-12.35-6.56-12.35-17" transform="translate(0 0)"/><path class="cls-5" d="M109.48,146.52l-.33-2.45.59-.33c.18-.1.6-.61.28-1.67l-2-6.79a9.73,9.73,0,0,1-1.07.24v4l1.28,4.34a2.24,2.24,0,0,1,.07,1.12l-.19.21-.17,1.29h-.52s.24,1.67.26,1.79h9.51l1.77-1.79Zm.21-20.27a4.13,4.13,0,0,0,1.21-2.76c0-1.46-.94-2.29-2.59-2.29H107V123a2.19,2.19,0,0,1,2.16,2.32,3.77,3.77,0,0,1-.55,1.91,7.39,7.39,0,0,0,1.13-1M107,146.52l-1.77,1.79H95.89L95.58,146l1-1a4.18,4.18,0,0,0,.26-1.55V120.52c0-2.1-.92-2.36-1.3-2.58l.19-1.49,1.78-1.79-.19,1.46c.44.25,1.32.48,1.32,2.55v22.85a2.83,2.83,0,0,1-.73,2.22l-.59.33.33,2.45Z" transform="translate(0 0)"/><path class="cls-5" d="M134.8,118.06l-2.12,5.32-.53-1.3.86-2.15a3,3,0,0,0,.31-1.74l-.45-.28.2-1.46,1.78-1.79-.19,1.42.46.29a3.07,3.07,0,0,1-.32,1.69m1.77,28.46-1.77,1.79h-9.27l-.32-2.36,1.05-1a4.39,4.39,0,0,0,.26-1.55v-8l-5.87-14.5a5.09,5.09,0,0,0-2.11-2.59l-.55-.31.2-1.5,1.78-1.78-.2,1.46.59.33a5.06,5.06,0,0,1,2.09,2.56l5.86,14.48v8a2.84,2.84,0,0,1-.72,2.22l-.59.33.33,2.45Z" transform="translate(0 0)"/><path class="cls-5" d="M175.59,113.06l.59-.34-.3-2.26a4.43,4.43,0,0,1,1.13.8,4.75,4.75,0,0,1,1.32,3.46,7.48,7.48,0,0,1-3.08,5.74,6.63,6.63,0,0,0,1.28-3.89,5,5,0,0,0-1.07-3.23l-.27.25a1.18,1.18,0,0,1,.4-.53m5,21.66c0,2.83-1.1,5.09-2.79,6a8.5,8.5,0,0,0,1-4.18,7.47,7.47,0,0,0-1.61-5,5.62,5.62,0,0,0-2.28-1.63v-1.43c.44-.16.89-.33,1.33-.52a5.45,5.45,0,0,1,2.75,1.76,7.45,7.45,0,0,1,1.6,5ZM175,110.27a8.08,8.08,0,0,0-4.08,1.3h-.24a11.2,11.2,0,0,0-6.3,1.81,10,10,0,0,1,8.15-3.6,8.13,8.13,0,0,1,2.95.49Zm9.23,36.33a12.55,12.55,0,0,1-7.93,2.82,11.39,11.39,0,0,1-3.68-.57,8,8,0,0,0-2.62-.42h-4.88l-.33-2.45.59-.33a2.77,2.77,0,0,0,.73-2.22V119a2.77,2.77,0,0,0-.73-2.22l-.59-.33.2-1.49-1.78,1.8v.14a5,5,0,0,0,.24,1.61l.11.06a1.31,1.31,0,0,1,.42.57l.1,0,1.13-.55.26,1.24a4.86,4.86,0,0,1,.11,1,4.6,4.6,0,0,1-1.26,3.17v21.34a4.25,4.25,0,0,1-.27,1.56s-1,1-1,1l.31,2.36h4.83a8.11,8.11,0,0,1,2.64.42,11,11,0,0,0,3.66.57,12.54,12.54,0,0,0,8.84-3.67Zm-25-19.47a5.3,5.3,0,0,1-4.29-2.41,9.5,9.5,0,0,1-1.63-5.5,14.92,14.92,0,0,1,4.59-10.38l.84-.84a14.72,14.72,0,0,0-3.64,9.37,9.53,9.53,0,0,0,1.64,5.53,5.36,5.36,0,0,0,4.35,2.44,4.52,4.52,0,0,0,2.62-.84c-.06,0-1.13,1.13-1.31,1.31a4.43,4.43,0,0,1-3.17,1.32" transform="translate(0 0)"/><path class="cls-5" d="M201.66,125.54l-1.07,6,.27,1.49,2.06-.3Zm.49,22.77h9.4l1.77-1.79H204l-.33-2.48.63-.32c.35-.17.47-.75.33-1.54l-.46-2.62-5.12.85-.27,1.53,3.59-.6.47,2.68a3,3,0,0,1,0,.93l-1,1Zm-3.71-1.79-1.77,1.79h-8.78l-.31-2.3s1.5-1.49,1.5-1.51l4.82-25a1.22,1.22,0,0,0-.47-1.3l-.54-.31.2-1.51,1.78-1.78-.2,1.47.58.33a1.16,1.16,0,0,1,.44,1.24l-4.81,25c-.11.57-.78,1-1,1.16l-.51.34.32,2.4Z" transform="translate(0 0)"/><path class="cls-5" d="M230.38,118.67v5.76c-.43-.49-.85-1-1.27-1.43l-.52-.6v-1.88c0-2.1-.93-2.36-1.31-2.58l.2-1.5,1.78-1.78-.2,1.46c.44.25,1.32.48,1.32,2.55m-1,27.85-.33-2.45.59-.33c.47-.26.73-.94.73-1.91a10.63,10.63,0,0,0-1.6-5.5,36.35,36.35,0,0,0-3.79-5.05l-.05-.05v4a23.8,23.8,0,0,1,2.05,2.92,10.76,10.76,0,0,1,1.6,5.53,4,4,0,0,1-.15,1.12L227.28,146l.31,2.36h8.67l1.78-1.79Zm-3.7,0-1.77,1.79h-9.29l-.32-2.36,1-1a4,4,0,0,0,.27-1.55V120.52c0-2.1-.92-2.36-1.31-2.58l.2-1.49,1.78-1.79-.19,1.46c.43.25,1.31.48,1.31,2.55v22.85a2.84,2.84,0,0,1-.72,2.22l-.59.33.33,2.45Z" transform="translate(0 0)"/><path class="cls-5" d="M253.34,148.31h9.3l1.76-1.79h-9.26l-.33-2.45.59-.33a1.38,1.38,0,0,0,.21-1.5l-3.42-9-.69,1V138l2.31,6.06a1.65,1.65,0,0,1,.08,1L253,146Zm1.17-31.91c0,.48-1.51,3-3,5.45V120.6a12,12,0,0,0,1.22-2.38l-.49-.33.21-1.6,1.76-1.63-.17,1.28s.48.12.48.46m-2.95,30.12-1.77,1.79h-9.23l-.32-2.36,1-1a4.18,4.18,0,0,0,.26-1.55V120.52a2.83,2.83,0,0,0-.75-2.27l-.56-.31.22-1.64,1.76-1.64-.19,1.46.59.33a2.78,2.78,0,0,1,.72,2.22v22.85a2.8,2.8,0,0,1-.72,2.22l-.59.33.33,2.45Z" transform="translate(0 0)"/><path class="cls-4" d="M61.54,100.37v-8.3c0-.63-.25-1-.45-1l0-.35,6.06-1.21.15,2,.05.46-.34.11a1.15,1.15,0,0,0-1.17-.28l-2.1.42v2.4l.8-.16a1.38,1.38,0,0,0,1-.72l.34,0v.48l0,2v.47l-.34.12a.9.9,0,0,0-1-.31l-.83.16v2.76l2.1-.42a1.76,1.76,0,0,0,1.17-.75l.34,0-.05.48-.15,2-6.06,1.21,0-.32a1.61,1.61,0,0,0,.45-1.22m-9.38-7.88,3.05-.61,0,.33a1.53,1.53,0,0,0-.45,1.21v3l2.24-.76V93c0-.63-.25-1-.45-1l0-.35L59.7,91l0,.33a1.56,1.56,0,0,0-.45,1.21v8.3c0,.63.25,1,.45,1l0,.34-3.05.61,0-.32a1.61,1.61,0,0,0,.45-1.22V97.75l-2.24.83v3.14c0,.63.24,1,.45,1l0,.35-3.05.61,0-.32a1.61,1.61,0,0,0,.44-1.22v-8.3c0-.71-.31-1.08-.44-1Zm-2.42-.92v13.22c0,.64,0,1.11.45,1.2l0,.35c-1.41.28-2.13,2.09-4,2.46a1.56,1.56,0,0,1-.86,0v-.33c1.44-.81,2-2.26,2-4.89v-12h-.09c-1.68.34-2.7,1.39-2.7,2.81,0,.76.32,1.31.84,1a1.62,1.62,0,0,1-1.26,1.84c-1,.2-1.82-.76-1.82-2.35,0-2.6,2-4.9,5.14-5.54,2.2-.44,3.14.33,4.71,0a2,2,0,0,0,1.53-1c1.57-.32,1.52,2.76-1.1,3.29a8.06,8.06,0,0,1-2.78,0" transform="translate(0 0)"/></g><polygon class="cls-4" points="67.5 86.42 67.5 87.57 56.43 89.85 56.43 88.7 67.5 86.42"/><polygon class="cls-4" points="51.83 105.81 67.5 102.59 67.5 103.73 51.83 107 51.83 105.81"/><g class="cls-2"><path class="cls-4" d="M152.87,85.13c0,.82-.06,1.5,0,2.17a.58.58,0,0,0,.25.46c3,1.21,5.18,3.51,7.09,6.08a15.69,15.69,0,0,1,3.26,8.23c0,.17,0,.34,0,.56-.62-.65-1.17-1.29-1.79-1.87a9.23,9.23,0,0,0-1.36-1,2.25,2.25,0,0,0-2.92.29c-.61.56-1.14,1.21-1.7,1.83-.39-.79-.76-1.65-1.22-2.45a12.34,12.34,0,0,0-1.29-1.75,2,2,0,0,0-2.06-.64l-.24.06A2.37,2.37,0,0,0,148.81,99c-1.38,4.42-2.88,8.82-4.37,13.21-.72,2.15-2,2.88-4.4,2.56a2.1,2.1,0,0,1-1.79-1.66,10.48,10.48,0,0,1-.27-2.24c0-.39.43-.71,1-.8,0,.5-.08,1-.07,1.49a2,2,0,0,0,1.23,2.1,2.47,2.47,0,0,0,2.72-.53,5.1,5.1,0,0,0,.91-1.8c1-2.86,2-5.74,2.95-8.62.47-1.43.87-2.89,1.33-4.4l-1.81,1.11c0-.83,0-1.6,0-2.37a15.17,15.17,0,0,0-.34-2.34c-.19-.84-.52-1.14-1.35-1.06a21.32,21.32,0,0,0-3.36.6c-1,.27-2,.71-3,1.09.16-.54.34-1,.47-1.58a9.34,9.34,0,0,0,.25-1.48c0-.66-.25-.94-.88-.87-1.6.17-3.19.39-4.79.6-.38,0-.75.12-1.28.21.36-.34.61-.58.88-.8a21.17,21.17,0,0,1,13.09-5.27,15.68,15.68,0,0,1,5,.84.59.59,0,0,0,.76-.26c.38-.51.79-1,1.27-1.6" transform="translate(0 0)"/><path class="cls-4" d="M156.12,175.93h-.21l0-2.92h.21c.47,0,.93.45.92,1.47s-.47,1.46-.95,1.45m0-3.74h-1.29l0,.14a.54.54,0,0,1,.18.46l0,3.37a.51.51,0,0,1-.19.46l0,.13h1.29a2.32,2.32,0,0,0,0-4.56m-2.59,3.72h-.86v-1.13h.33a.48.48,0,0,1,.42.22l.13,0,0-1.2-.14,0a.44.44,0,0,1-.42.2h-.33v-1h.85a.56.56,0,0,1,.48.22l.13,0-.07-1-2.46,0,0,.13a.54.54,0,0,1,.18.46l0,3.38a.53.53,0,0,1-.19.45l0,.13,2.46,0,.09-1-.13,0a.6.6,0,0,1-.48.2m-2.87.2,0-3.37a.54.54,0,0,1,.19-.46l0-.13h-1.24l0,.13a.55.55,0,0,1,.18.46v1.1l-.91.13v-1.24a.51.51,0,0,1,.18-.45v-.14h-1.24l0,.14a.51.51,0,0,1,.18.45l0,3.38a.54.54,0,0,1-.19.46l0,.13H149l0-.13a.54.54,0,0,1-.18-.46v-1.28l.91-.14v1.43a.49.49,0,0,1-.19.45l0,.14h1.24l0-.14a.52.52,0,0,1-.18-.46m-4.57-2.22c-.51-.29-.73-.41-.73-.69s.13-.37.5-.37a.71.71,0,0,1,.72.49h.12V172l-.13,0s-.07,0-.14,0-.33,0-.54-.06a1.29,1.29,0,0,0-1.45,1.27c0,.55.34.87.88,1.17s.78.55.78.91a.55.55,0,0,1-.59.57c-.47,0-.79-.39-.94-1h-.17l0,1.68.15,0c0-.08.2-.13.44,0a1.48,1.48,0,0,0,2-1.34,1.58,1.58,0,0,0-.93-1.41m-2.61,2.16,0-3.37a.56.56,0,0,1,.19-.46l0-.13-1.24,0,0,.14a.51.51,0,0,1,.18.46l0,3.37a.54.54,0,0,1-.18.46v.13l1.24,0,0-.14a.54.54,0,0,1-.18-.46m-1.77-.45a.56.56,0,0,1-.48.2h-.86l0-3.15a.5.5,0,0,1,.19-.45l0-.14h-1.24l0,.13a.55.55,0,0,1,.18.46l0,3.38a.51.51,0,0,1-.18.45v.14l2.46,0,.09-1Zm-4.57.17h-.42v-1.12a2.24,2.24,0,0,0,.68-.21.61.61,0,0,1,.32.58c0,.36-.24.75-.59.75m-.05-2.92a.33.33,0,0,1,.34.37c0,.3-.28.56-.7.65v-1Zm1,1.12a1.3,1.3,0,0,0,.35-.85c0-.58-.4-1.08-1.25-1.09h-1.47l0,.13a.49.49,0,0,1,.18.46l0,3.38a.53.53,0,0,1-.18.45v.14h1.55a1.41,1.41,0,0,0,1.5-1.47,1.26,1.26,0,0,0-.64-1.15m-5.08.92.4-2.12.34,2Zm1.9,1.28-.77-4.18h-1.58l0,.13a.33.33,0,0,1,.13.34l-.74,3.69a.51.51,0,0,1-.21.27v.13h1.17l0-.13c-.12,0-.16-.18-.12-.39l.06-.36,1-.16.08.53c0,.25-.05.35-.13.38l0,.14h1.26l0-.13a.41.41,0,0,1-.21-.27M131.53,173l-.08-1-2.77,0-.09,1,.14,0a.53.53,0,0,1,.47-.21h.4l0,3.15a.54.54,0,0,1-.19.46l0,.13h1.24l0-.13a.52.52,0,0,1-.18-.46l0-3.15h.4a.61.61,0,0,1,.47.22Zm-4.28.73c-.51-.29-.73-.41-.72-.68s.13-.37.49-.37a.72.72,0,0,1,.73.48h.12v-1.28h-.14a.17.17,0,0,1-.14,0c-.12,0-.32-.06-.53-.06a1.29,1.29,0,0,0-1.46,1.26c0,.56.34.87.89,1.18s.78.54.77.91a.55.55,0,0,1-.58.57c-.47,0-.8-.39-1-1h-.17v1.69l.14,0c0-.08.2-.14.45,0a1.29,1.29,0,0,0,.53.12,1.47,1.47,0,0,0,1.51-1.46,1.61,1.61,0,0,0-.94-1.41m-3.06,1.94h-.86v-1.12h.33a.47.47,0,0,1,.42.21l.13,0v-1.2l-.13,0a.47.47,0,0,1-.43.21h-.32v-1h.86a.54.54,0,0,1,.47.21l.14,0-.07-1-2.46,0,0,.13a.55.55,0,0,1,.18.46l0,3.38a.54.54,0,0,1-.19.45l0,.14,2.46,0,.09-1-.14,0a.56.56,0,0,1-.47.21" transform="translate(0 0)"/><path class="cls-4" d="M148.6,186.85c-1,0-1.47-1.07-1.45-2.57,0-1.25.24-2.61,1.55-2.6,1,0,1.37.77,1.49,2.61-.07,1.41-.51,2.57-1.59,2.56m.12-6.85c-2.26,0-3.42,2.1-3.44,4.19,0,3.1,1.42,4.32,2.93,4.34a2.26,2.26,0,0,0,2-1.08c-.17,2.24-.82,3.25-2,3.24a2.11,2.11,0,0,1-2-1.27h-.38l0,2.76h.37c.15-.16.45-.15.8-.05a4.1,4.1,0,0,0,1.37.23c2.58,0,3.79-2.05,3.82-6.09,0-4.25-1.12-6.26-3.37-6.28M143.54,191l.1-11-2.2,0,0,.27a1.09,1.09,0,0,1,.36.94l-.08,9.77a1.12,1.12,0,0,1-.38.93l0,.27,2.54,0,0-.28a1.08,1.08,0,0,1-.37-.94m-6.88-.34c-1.07,0-1.67-1.36-1.64-4.59s.65-4.57,1.72-4.56,1.65,1.36,1.62,4.59-.66,4.57-1.7,4.56m0,1.68c2.22,0,3.64-2,3.68-6.22s-1.35-6.27-3.57-6.28-3.66,2-3.69,6.22,1.34,6.26,3.58,6.28M132.09,190a1.17,1.17,0,0,1-1,.37l-2.08,0c.18-3.1,3.17-4.84,3.2-7.85a2.71,2.71,0,0,0-2.89-2.82c-.93,0-1.16.34-1.61,0h-.37l0,2.55h.37a1.76,1.76,0,0,1,1.54-.88,1.09,1.09,0,0,1,1.11,1.24c0,2.28-3.81,4.66-3.33,9.42l5.1,0,.24-2Z" transform="translate(0 0)"/></g></g></g></svg>