
<svg xmlns="http://www.w3.org/2000/svg" version="1.1" xmlns:xlink="http://www.w3.org/1999/xlink" preserveAspectRatio="none" x="0px" y="0px" width="190px" height="238px" viewBox="0 0 190 238">
<defs>
<g id="Symbol_1_0_Layer0_0_FILL">
<path fill="#000000" stroke="none" d="
M 92 129.45
Q 94.45 129.45 94.5 125.25 94.5 121.05 92.1 121.05 89.7 120.95 89.6 125.2 89.6 129.45 92 129.45
M 93.2 125.25
Q 93.15 128.3 92.05 128.3 90.9 128.3 90.95 125.25 90.95 122.15 92.1 122.15 93.2 122.15 93.2 125.25
M 100.15 121.15
Q 99.1 121.15 98.45 122.05 97.85 122.85 97.85 124 97.8 125.45 98.45 126.25 98.95 126.9 99.8 126.9 100.7 126.9 101.15 126.2 100.95 128.4 99.75 128.35 98.75 128.35 98.4 127.5
L 98.15 127.5 98.15 129.4 98.4 129.4
Q 98.5 129.25 98.95 129.35 99.35 129.5 99.85 129.5 102.4 129.5 102.45 125.4 102.45 121.25 100.15 121.15
M 100.1 125.8
Q 99.1 125.8 99.1 124.05 99.1 122.3 100.15 122.3 101 122.3 101.15 124.05 101.05 125.8 100.1 125.8
M 95.25 121.15
L 95.25 121.35
Q 95.45 121.45 95.45 121.95
L 95.4 128.55
Q 95.4 129.05 95.15 129.15
L 95.2 129.35 96.9 129.35 96.9 129.2
Q 96.65 128.95 96.65 128.55
L 96.75 121.15 95.25 121.15
M 85.75 122.7
L 86 122.7
Q 86.35 122.1 87.05 122.1 87.8 122.1 87.8 122.95 87.8 123.45 86.55 125.45 85.4 127.4 85.55 129.25
L 89 129.3 89.15 127.95 88.95 127.9
Q 88.85 128.15 88.3 128.15
L 86.9 128.15
Q 86.95 127.1 88 125.5 89.05 123.9 89.05 122.85 89.05 121.95 88.45 121.45 87.95 120.95 87.1 120.95 86.9 120.95 86.45 121.05 86.2 121.1 86.05 120.95
L 85.8 120.95 85.75 122.7
M 94.6 116.2
Q 94.6 116 94.7 115.9
L 94.7 115.85 93.85 115.8 93.85 115.9 93.95 116.2 93.95 118.5
Q 93.95 118.75 93.8 118.8
L 93.85 118.9 95.5 118.9 95.55 118.2 95.45 118.2
Q 95.45 118.35 95.15 118.35
L 94.55 118.35 94.6 116.2
M 91.4 115.8
L 91.4 115.9 91.5 116.2 91.5 118.45
Q 91.5 118.65 91.35 118.8
L 91.35 118.85 92.4 118.9
Q 93.35 118.9 93.45 117.9 93.45 117.35 93 117.1 93.25 116.85 93.25 116.55 93.25 115.8 92.4 115.8
L 91.4 115.8
M 92.1 117.05
L 92.1 116.35 92.35 116.35
Q 92.6 116.35 92.6 116.6 92.6 116.95 92.1 117.05
M 92.1 117.55
L 92.55 117.45
Q 92.8 117.55 92.8 117.8 92.8 118 92.7 118.15 92.55 118.35 92.4 118.3
L 92.1 118.3 92.1 117.55
M 98.3 115.8
Q 97.3 115.8 97.3 116.65 97.3 117.1 97.9 117.45 98.45 117.7 98.45 118.05 98.35 118.45 98.05 118.45 97.6 118.45 97.4 117.8
L 97.3 117.8 97.25 118.9 97.35 118.95
Q 97.45 118.85 97.65 118.9
L 98 119
Q 98.45 119 98.75 118.7 99.05 118.4 99.05 118 99.05 117.4 98.4 117.05 97.9 116.75 97.9 116.6 97.9 116.35 98.25 116.35 98.6 116.35 98.75 116.65
L 98.8 116.65 98.85 115.8 98.75 115.8 98.65 115.85 98.3 115.8
M 96.7 116.25
Q 96.7 115.95 96.8 115.95
L 96.8 115.85 95.95 115.85 95.95 115.95
Q 96.05 115.95 96.05 116.25
L 96.05 118.5
Q 96.05 118.8 95.9 118.8
L 95.95 118.9 96.75 118.9 96.8 118.8
Q 96.65 118.8 96.65 118.5
L 96.7 116.25
M 82.35 115.7
L 82.35 115.8 82.45 116.1 82.45 118.4
Q 82.45 118.65 82.3 118.7
L 82.35 118.8 84 118.8 84.05 118.1 83.95 118.1
Q 83.95 118.25 83.65 118.25
L 83.05 118.25 83.05 117.5 83.3 117.5
Q 83.55 117.5 83.55 117.65
L 83.65 117.6 83.65 116.8 83.6 116.8
Q 83.45 116.95 83.3 116.95
L 83.05 116.95 83.1 116.3 83.65 116.3
Q 83.95 116.3 83.95 116.45
L 84.05 116.4 84 115.75 82.35 115.7
M 90.35 115.8
L 89.25 115.75 89.25 115.85
Q 89.35 115.95 89.35 116.1
L 88.85 118.6 88.7 118.75 88.7 118.85 89.5 118.85 89.5 118.75
Q 89.35 118.75 89.45 118.5
L 89.45 118.25 90.15 118.15 90.2 118.5
Q 90.3 118.75 90.1 118.75
L 90.15 118.85 91 118.85 91 118.75
Q 90.85 118.75 90.85 118.6
L 90.35 115.8
M 90.05 117.65
L 89.55 117.75 89.85 116.3 90.05 117.65
M 86.1 116.55
L 86.1 115.7 85.6 115.7
Q 84.6 115.7 84.6 116.55 84.6 116.9 85.2 117.35 85.7 117.6 85.7 117.95 85.7 118.35 85.3 118.3 84.85 118.3 84.7 117.65
L 84.55 117.65 84.55 118.8 84.65 118.8
Q 84.75 118.75 84.95 118.8
L 85.3 118.9
Q 85.75 118.9 86.05 118.6 86.35 118.3 86.35 117.9 86.35 117.3 85.7 116.95 85.2 116.65 85.2 116.5 85.2 116.25 85.55 116.25 85.9 116.25 86.05 116.55
L 86.1 116.55
M 87 116.3
L 87.3 116.3 87.25 118.45 87.15 118.75 87.15 118.85 88 118.85 88 118.75 87.9 118.45 87.9 116.3 88.15 116.3
Q 88.35 116.3 88.5 116.45
L 88.6 116.45 88.55 115.75 86.65 115.75 86.6 116.45 86.7 116.45
Q 86.85 116.3 87 116.3
M 105.15 115.9
L 104.3 115.9 104.3 116 104.4 116.3 104.4 118.6
Q 104.4 118.75 104.25 118.9
L 104.25 119 105.15 119
Q 105.65 119 106 118.6 106.4 118.15 106.4 117.45 106.45 116.75 106.05 116.3 105.65 115.9 105.15 115.9
M 105 116.45
L 105.15 116.45
Q 105.8 116.45 105.8 117.45 105.75 118.45 105.15 118.45
L 105 118.45 105 116.45
M 101.65 116
L 101.65 115.9 100.8 115.9 100.8 115.95
Q 100.9 116.05 100.9 116.3
L 100.9 117 100.3 117.1 100.3 116.25
Q 100.3 116.05 100.4 115.95
L 100.4 115.9 99.55 115.85 99.55 115.95 99.65 116.25 99.65 118.55
Q 99.65 118.8 99.5 118.85
L 99.55 118.95 100.35 118.95 100.4 118.85
Q 100.25 118.7 100.25 118.55
L 100.25 117.7 100.9 117.6 100.9 118.55
Q 100.9 118.85 100.75 118.85
L 100.75 118.95 101.6 118.95 101.6 118.85
Q 101.5 118.85 101.5 118.55
L 101.5 116.3
Q 101.5 116 101.65 116
M 102.15 115.9
L 102.15 116
Q 102.25 116 102.25 116.3
L 102.25 118.55
Q 102.25 118.85 102.1 118.85
L 102.1 118.95 103.75 119 103.85 118.3 103.75 118.3
Q 103.65 118.4 103.4 118.4
L 102.85 118.4 102.85 117.65 103.05 117.65
Q 103.2 117.65 103.35 117.8
L 103.45 117.8 103.45 117 103.35 116.95
Q 103.35 117.1 103.1 117.1
L 102.85 117.1 102.85 116.45 103.45 116.45
Q 103.75 116.45 103.75 116.6
L 103.85 116.6 103.8 115.9 102.15 115.9
M 133.25 192.05
L 132.95 192 132.6 192.05 131.3 195.8 131.8 195.8 132.15 194.85 133.7 194.85 134.05 195.8 134.6 195.8 133.25 192.05
M 132.9 192.6
L 133.55 194.4 132.3 194.4 132.9 192.6
M 130.15 192.05
L 129.85 192 129.6 192.05 129.6 195.8 130.15 195.8 130.15 192.05
M 123.45 192
L 123.15 192.05 121.8 195.8 122.35 195.8 122.65 194.85 124.25 194.85 124.55 195.8 125.15 195.8 123.8 192.05 123.45 192
M 122.8 194.4
L 123.45 192.6 124.1 194.4 122.8 194.4
M 126.55 192
L 126.25 192.05 126.25 195.8 128.4 195.8 128.45 195.6 128.4 195.35 126.8 195.35 126.8 192.05 126.55 192
M 120.8 193.1
Q 120.8 192 119.65 192
L 118.3 192 118.3 195.8 118.85 195.8 118.85 194.25 119.45 194.25 120.35 195.8 121 195.8 120.05 194.2
Q 120.8 193.95 120.8 193.1
M 120.25 193.1
Q 120.25 193.8 119.6 193.8
L 118.85 193.8 118.85 192.45 119.6 192.45
Q 120.25 192.45 120.25 193.1
M 114.5 192.45
L 115.55 192.45 115.55 195.8 116.1 195.8 116.1 192.45 117.05 192.45 117.1 192.25 117.05 192 114.5 192 114.5 192.45
M 111.15 195.2
L 111.05 195.65 111.35 195.8
Q 111.75 195.9 112.2 195.9 113.5 195.9 113.5 194.75 113.5 194.05 112.5 193.65 111.55 193.35 111.55 193 111.55 192.4 112.4 192.4 112.85 192.4 113.25 192.5 113.35 192.4 113.35 192.1 112.95 191.95 112.35 191.95 111.05 191.95 111.05 193.05 111.05 193.55 111.45 193.85 111.55 193.9 112.3 194.15 112.95 194.35 112.95 194.8 112.95 195.4 112.15 195.4
L 111.15 195.2
M 109.45 192
L 109.2 192.05 109.2 194.6
Q 109.2 195.4 108.4 195.4 107.6 195.4 107.6 194.6
L 107.6 192.05 107.3 192 107.05 192.05 107.05 194.55
Q 107.05 195.9 108.35 195.9 109.7 195.9 109.7 194.55
L 109.7 192.05 109.45 192
M 104.35 192
L 104.05 192.05 102.7 195.8 103.2 195.8 103.55 194.85 105.1 194.85 105.45 195.8 106 195.8 104.7 192.05 104.35 192
M 104.35 192.6
L 104.95 194.4 103.7 194.4 104.35 192.6
M 98.55 191.65
L 98 191.65 98 196.85 98.55 196.85 98.55 191.65
M 90.7 192
L 90.7 195.8 91.9 195.8
Q 93.45 195.8 93.45 193.9 93.45 192 91.9 192
L 90.7 192
M 92.9 193.9
Q 92.9 195.35 91.85 195.35
L 91.25 195.35 91.25 192.45 91.85 192.45
Q 92.9 192.45 92.9 193.9
M 89.2 192.05
L 88.95 192 88.7 192.05 88.75 195.15 88.7 195.15 88.4 194.45 87.05 192.05 86.75 192 86.4 192.05 86.4 195.8 86.9 195.8 86.9 192.7 88.55 195.8 89.2 195.8 89.2 192.05
M 83.95 192.05
L 83.65 192 83.3 192.05 82 195.8 82.5 195.8 82.8 194.85 84.4 194.85 84.7 195.8 85.3 195.8 83.95 192.05
M 83.6 192.6
L 84.25 194.4 83 194.4 83.6 192.6
M 79.3 192
L 79.05 192.05 79.05 195.8 81.15 195.8 81.2 195.6 81.15 195.35 79.55 195.35 79.55 192.05 79.3 192
M 73.9 192.05
L 73.65 192 73.4 192.05 73.45 195.15 73.4 195.15 73.1 194.45 71.75 192.05 71.45 192 71.15 192.05 71.15 195.8 71.65 195.8 71.6 192.7 73.25 195.8 73.9 195.8 73.9 192.05
M 75.25 193.05
Q 75.25 193.55 75.65 193.85 75.75 193.9 76.5 194.15 77.2 194.35 77.2 194.8 77.2 195.4 76.35 195.4
L 75.4 195.2
Q 75.25 195.45 75.25 195.65
L 75.55 195.8
Q 75.95 195.9 76.4 195.9 77.75 195.9 77.75 194.75 77.75 194.05 76.75 193.65 75.8 193.35 75.8 193 75.8 192.4 76.6 192.4 77.1 192.4 77.45 192.5 77.6 192.35 77.6 192.1 77.2 191.95 76.55 191.95 75.25 191.95 75.25 193.05
M 69.8 192.2
L 69.75 192 67.6 192 67.6 195.8 69.8 195.8 69.85 195.6 69.8 195.4 68.15 195.4 68.15 194.1 69.5 194.1 69.55 193.9 69.5 193.65 68.15 193.65 68.15 192.45 69.75 192.45 69.8 192.2
M 64.6 193.65
L 64.6 192.45 66.2 192.45 66.25 192.2 66.2 192 64.05 192 64.05 195.8 66.25 195.8 66.3 195.6 66.25 195.4 64.6 195.4 64.6 194.1 65.95 194.1 66 193.9 65.95 193.65 64.6 193.65
M 103.75 186.35
Q 103.75 188.9 105.8 188.9 107.85 188.9 107.85 186.35 107.85 183.85 105.8 183.85 103.75 183.85 103.75 186.35
M 105.8 188.05
Q 104.9 188.05 104.9 186.35 104.9 184.7 105.8 184.7 106.7 184.7 106.7 186.35 106.7 188.05 105.8 188.05
M 112.5 183.9
L 112 184 112 187.2
Q 112 188 111.2 188 110.4 188 110.4 187.2
L 110.4 184
Q 110.2 183.9 109.85 183.9
L 109.35 184 109.35 187.1
Q 109.35 188.9 111.2 188.9 113.05 188.9 113.05 187.1
L 113.05 184
Q 112.85 183.9 112.5 183.9
M 118.2 184.1
Q 117.7 183.85 116.8 183.85 114.55 183.85 114.55 186.35 114.55 188.9 116.8 188.9 117.75 188.9 118.25 188.65
L 118.25 185.95 116.5 185.95 116.4 186.4
Q 116.4 186.65 116.5 186.8
L 117.2 186.8 117.2 188 116.9 188
Q 115.65 188 115.65 186.4 115.65 184.7 116.9 184.7 117.4 184.7 117.85 184.9 118.1 184.65 118.2 184.1
M 120.9 184
Q 120.7 183.9 120.35 183.9
L 119.8 184 119.8 188.75 120.35 188.85
Q 120.7 188.85 120.9 188.75
L 120.9 186.75 122.45 186.75 122.45 188.75 123 188.85
Q 123.35 188.85 123.55 188.75
L 123.55 184
Q 123.35 183.9 123 183.9
L 122.45 184 122.45 185.85 120.9 185.85 120.9 184
M 93.25 186.35
Q 93.25 188.9 95.3 188.9 97.4 188.9 97.4 186.35 97.4 183.85 95.3 183.85 93.25 183.85 93.25 186.35
M 95.3 188.05
Q 94.4 188.05 94.4 186.35 94.4 184.7 95.3 184.7 96.25 184.7 96.25 186.35 96.25 188.05 95.3 188.05
M 87.15 184
Q 86.9 183.9 86.55 183.9
L 86 184 85 185.75 84 184
Q 83.8 183.9 83.4 183.9
L 82.8 184 84.4 186.9 84.4 188.75 84.95 188.85
Q 85.3 188.85 85.5 188.75
L 85.5 186.9 87.15 184
M 90.4 183.9
L 88.4 183.9 88.4 188.85 90.4 188.85
Q 91.95 188.85 91.95 187.4 91.95 186.65 91.3 186.3 91.8 185.95 91.8 185.3 91.8 183.9 90.4 183.9
M 90.15 184.7
Q 90.7 184.7 90.7 185.3 90.7 185.95 90.15 185.95
L 89.45 185.95 89.45 184.7 90.15 184.7
M 90.85 187.4
Q 90.85 188.05 90.2 188.05
L 89.45 188.05 89.45 186.75 90.2 186.75
Q 90.85 186.75 90.85 187.4
M 100.75 183.9
L 98.9 183.9 98.9 188.75 99.45 188.85
Q 99.75 188.85 100 188.75
L 100 186.95 100.4 186.95 101.4 188.75 102 188.85
Q 102.4 188.85 102.65 188.75
L 101.5 186.8
Q 102.4 186.4 102.4 185.45 102.4 183.9 100.75 183.9
M 100 184.75
L 100.6 184.75
Q 101.25 184.75 101.25 185.45 101.25 186.1 100.6 186.1
L 100 186.1 100 184.75
M 80.25 183.9
L 78.35 183.9 78.35 188.75 78.9 188.85
Q 79.25 188.85 79.45 188.75
L 79.45 186.95 79.9 186.95 80.9 188.75 81.5 188.85
Q 81.9 188.85 82.1 188.75
L 81 186.8
Q 81.85 186.4 81.85 185.45 81.85 183.9 80.25 183.9
M 79.45 184.75
L 80.1 184.75
Q 80.7 184.75 80.7 185.45 80.7 186.1 80.1 186.1
L 79.45 186.1 79.45 184.75
M 74.85 183.9
L 74.15 184 72.6 188.75 73.1 188.85
Q 73.45 188.85 73.65 188.75
L 73.95 187.75 75.65 187.75 76 188.75 76.5 188.85
Q 76.9 188.85 77.1 188.75
L 75.55 184
Q 75.3 183.9 74.85 183.9
M 75.4 186.95
L 74.2 186.95 74.8 184.95 75.4 186.95
M 57.05 195.9
Q 57.45 195.9 57.65 195.75 58 196.2 58.45 196.35 58.65 196.2 58.75 195.9
L 58.05 195.55
Q 58.55 195.05 58.55 193.9 58.55 191.95 57.05 191.95 55.55 191.95 55.55 193.9 55.55 195.9 57.05 195.9
M 57.05 192.4
Q 58 192.4 58 193.9 58 195.45 57.05 195.45 56.1 195.45 56.1 193.9 56.1 192.4 57.05 192.4
M 59.9 192.05
L 59.9 194.55
Q 59.9 195.9 61.2 195.9 62.55 195.9 62.55 194.55
L 62.55 192.05 62.3 192 62.05 192.05 62.05 194.6
Q 62.05 195.4 61.25 195.4 60.4 195.4 60.4 194.6
L 60.4 192.05 60.15 192 59.9 192.05
M 67.25 183.9
L 66.6 184 66.6 188.75 67.1 188.85
Q 67.4 188.85 67.55 188.75
L 67.55 187.25
Q 67.55 185.5 67.45 185.15
L 67.5 185.15
Q 67.55 185.5 68.1 186.8
L 68.55 187.8 68.9 187.85 69.3 187.8 70.35 185.15 70.3 188.75 70.8 188.85
Q 71.15 188.85 71.35 188.75
L 71.35 184 70.6 183.9 69.95 184 69.2 185.75 68.95 186.55 67.9 184
Q 67.65 183.9 67.25 183.9
M 102.1 58.35
Q 101.85 58.65 101.6 58.55 99.4 57.95 98.25 58 93.4 58.15 89.45 61.55
L 88.85 62.05 92.95 61.55
Q 93.55 61.45 93.5 62.1 93.5 62.65 93.35 63.1
L 93.05 64.15
Q 94.95 63.45 95.05 63.45 96.3 63.1 97.3 63.05 98.05 63 98.2 63.75 98.35 64.25 98.45 65.35
L 98.45 66.9 99.7 66.15 96.8 74.95
Q 96.45 75.9 96.2 76.15 95.45 76.9 94.35 76.5 93.55 76.25 93.55 75.1
L 93.6 74.1
Q 92.9 74.2 92.9 74.65 93.05 75.9 93.1 76.15 93.3126953125 77.0009765625 94 77.2
L 91.55 77.2 91.5 77.8
Q 92.1 78.2 91.5 79.7
L 89.45 84.85 87.3 79.55
Q 87.05 79 87.1 78.45 87.1 77.9 87.35 77.8
L 87.3 77.2 81.55 77.2 81.45 77.8
Q 82.65 78.4 83.15 79.9
L 87.15 89.75 87.15 95.25
Q 87.15 96.9 86.35 97.35
L 86.4 97.95 92.05 97.95 92.15 97.35
Q 91.3 96.85 91.3 95.25
L 91.3 89.65 95.25 79.85
Q 95.85 78.35 97 77.8
L 96.9 77.2 95.7 77.2
Q 95.975390625 77.1283203125 96.2 77 96.95 76.6 97.3 75.55 99.5 69 100.2 66.65 100.55 65.5 101.6 65.35
L 101.75 65.3
Q 102.65 65.15 103.15 65.75
L 104 66.9
Q 104.1 67.1 104.85 68.55 105.7 67.6 106 67.35 106.95 66.5 107.95 67.15 108.55 67.5 108.85 67.8 109.05 68 110.05 69.1
L 110.05 68.7
Q 109.85 65.8 107.85 63.15 105.65 60.1 103.1 59.05 102.9 59.05 102.9 58.75
L 102.95 57.3 102.1 58.35
M 41.2 61.05
L 41.15 61.3
Q 41.45 61.3 41.45 61.95
L 41.45 67.55
Q 41.45 68.2 41.15 68.4
L 41.2 68.6 45.25 67.8 45.35 66.4 45.4 66.1 45.2 66.1
Q 44.95 66.45 44.4 66.6
L 42.95 66.9 42.95 65 43.55 64.9
Q 44.05 64.85 44.2 65.1
L 44.45 65.05 44.45 63.05 44.2 63.05
Q 44.1 63.4 43.5 63.55
L 42.95 63.65 42.95 62.05 44.4 61.75
Q 44.95 61.7 45.2 61.95
L 45.4 61.9 45.25 60.25 41.2 61.05
M 40.2 61.25
L 38.15 61.65 38.15 61.9
Q 38.45 62.05 38.45 62.6
L 38.45 64.4 36.95 64.9 36.95 62.9
Q 36.95 62.25 37.25 62.05
L 37.2 61.85 35.15 62.25 35.1 62.5
Q 35.2 62.45 35.3 62.65 35.4 62.85 35.4 63.2
L 35.4 68.75
Q 35.4 69.4 35.1 69.6
L 35.15 69.8 37.2 69.4 37.25 69.15
Q 36.95 69.05 36.95 68.45
L 36.95 66.35 38.45 65.8 38.45 68.15
Q 38.45 68.7 38.15 69
L 38.15 69.2 40.2 68.8 40.25 68.55
Q 39.95 68.45 39.95 67.85
L 39.95 62.25
Q 39.95 61.65 40.25 61.45
L 40.2 61.25
M 33.5 61.65
Q 34.85 61.75 35.4 61.65 36.65 61.4 36.85 60.35 37.05 59.25 36.15 59.45 35.85 60 35.1 60.1 34.6 60.2 33.65 60.1 32.7 59.95 31.9 60.1 30.35 60.45 29.4 61.5 28.45 62.5 28.45 63.85 28.45 64.65 28.8 65.1 29.15 65.5 29.7 65.4 30.1 65.35 30.35 64.95 30.65 64.6 30.55 64.2 30 64.5 30 63.55 30 61.95 31.8 61.65
L 31.85 61.65 31.85 69.7
Q 31.85 72.25 30.5 73
L 30.5 73.25
Q 30.8 73.35 31.1 73.25 31.75 73.1 32.55 72.4 33.35 71.65 33.8 71.6
L 33.8 71.35
Q 33.5 71.3 33.5 70.55
L 33.5 61.65
M 173 84.3
L 172.85 84.4 176.35 79.45
Q 177.3 78.15 178.1 77.8
L 178 77.2 171.95 77.2 171.85 77.8
Q 172.3 78.1 172 78.8 171.9 79.05 170.8 80.95
L 168.75 84.5 168.75 79.9
Q 168.75 78.3 169.6 77.8
L 169.5 77.2 163.85 77.2 163.8 77.8
Q 164.6 78.25 164.6 79.9
L 164.6 95.25
Q 164.6 96.9 163.8 97.35
L 163.85 97.95 169.5 97.95 169.6 97.35
Q 168.75 96.85 168.75 95.25
L 168.75 90.15 170.1 88.35 172.8 95.5
Q 173.05 96.1 172.85 96.7 172.7 97.15 172.4 97.35
L 172.45 97.95 178.15 97.95 178.2 97.35
Q 177.55 97 177.3 96.1
L 173 84.3
M 159.65 79.9
Q 159.65 78.25 160.45 77.8
L 160.35 77.2 155.15 77.2 155.05 77.8
Q 155.9 78.25 155.9 79.9
L 155.9 85.6
Q 153.45 82.85 152.5 81.65 150.9 79.7 150.9 78.4 150.9 77.8 151.3 77.8
L 151.25 77.2 146.4 77.2 146.3 77.8
Q 147.15 78.25 147.15 79.9
L 147.15 95.25
Q 147.15 96.95 146.3 97.35
L 146.4 97.95 151.65 97.95 151.75 97.35
Q 150.9 96.95 150.9 95.25
L 150.9 86.5
Q 152.05 87.95 154.25 90.7 155.9 93.1 155.9 95.45 155.9 96.95 155.05 97.35
L 155.15 97.95 160.35 97.95 160.45 97.35
Q 159.65 96.9 159.65 95.5
L 159.65 79.9
M 139.2 77.15
L 132 77.15 131.9 77.75
Q 132.75 78.3 132.5 79.3
L 129.3 96.15
Q 129.15 96.85 128.3 97.35
L 128.4 97.95 133.75 97.95 133.8 97.35
Q 133.45 97.35 133.25 96.85 133.1 96.3 133.25 95.6
L 133.5 93.95 138.1 93.2 138.5 95.6
Q 138.75 96.95 137.95 97.35
L 138 97.95 143.75 97.95 143.85 97.35
Q 143.05 97 142.85 96.15
L 139.2 77.15
M 137.5 89.9
L 134.15 90.35 135.9 80.7 137.5 89.9
M 116.05 69.05
Q 111.65 69.05 108.35 72.1 105.1 75.1 105.1 79 105.1 81 106.1 82.35 107.05 83.7 108.45 83.7 109.45 83.7 110.15 83 110.85 82.3 110.85 81.3
L 110.8 80.75 110.35 80.85
Q 109.85 80.85 109.55 80.2 109.25 79.6 109.25 78.7 109.25 76.4 111.2 74.85 113.2 73.25 116.2 73.25 118.5 73.25 119.7 74.4 120.75 75.45 120.75 77.2 120.75 80.45 117.1 82.5
L 117.1 77.6
Q 117.1 75.95 117.95 75.5
L 117.85 74.9
Q 116.5 74.9 114.55 76.25 112.65 77.4 111.8 77.4
L 111.7 78
Q 112.5 78.45 112.5 80.1
L 112.5 96.55
Q 112.5 98.1 111.7 98.65
L 111.8 99.25 114.5 99.25
Q 115.55 99.25 116.45 99.55 117.35 99.9 118.7 99.9 121.95 99.9 124.25 97.65 126.8 95.05 126.8 90.7 126.8 87.9 125.5 85.85 124.3 83.95 122.35 83.05 125.35 80.4 125.35 77 125.35 73.95 123.35 71.75 120.85 69.05 116.05 69.05
M 117.1 86.05
L 118.6 85.45
Q 120 85.7 121.05 86.9 122.25 88.4 122.25 90.7 122.25 92.9 121.2 94.35 120.1 95.75 118.45 95.75 117.8 95.75 117.1 95.6
L 117.1 86.05
M 79.7 83.05
Q 79.7 80.55 78.05 78.95 76.25 77.2 73.15 77.2
L 66.45 77.2 66.4 77.8
Q 67.2 78.25 67.2 79.9
L 67.2 95.25
Q 67.2 96.9 66.4 97.35
L 66.45 97.95 72.1 97.95 72.2 97.35
Q 71.35 96.95 71.35 95.25
L 71.35 90.65
Q 72.55 90.45 73.2 90.25
L 74.75 95.45
Q 75.15 96.85 74.25 97.35
L 74.3 97.95 80.1 97.95 80.2 97.35
Q 79.45 97 78.95 95.35
L 76.8 88.45
Q 79.7 86.2 79.7 83.05
M 75.35 83.1
Q 75.35 84.5 74.1 85.7 73 86.75 71.35 87.2
L 71.35 80.9 72.95 80.9
Q 74.1 80.9 74.75 81.55 75.35 82.15 75.35 83.1
M 48.35 87.55
Q 48.35 92.7 50.5 95.6 52.55 98.4 56.05 98.4 59.5 98.4 61.55 95.6 63.7 92.7 63.7 87.55 63.7 82.45 61.55 79.55 59.5 76.75 56.05 76.75 52.55 76.75 50.5 79.55 48.35 82.45 48.35 87.55
M 56.05 80.5
Q 57.55 80.5 58.4 82.25 59.3 84.15 59.3 87.55 59.3 91 58.4 92.9 57.55 94.65 56.05 94.65 54.5 94.65 53.65 92.9 52.7 91.05 52.7 87.55 52.7 84.1 53.65 82.25 54.5 80.5 56.05 80.5
M 35.45 80.9
L 37.3 80.9 37.3 95.25
Q 37.3 96.85 36.45 97.35
L 36.55 97.95 42.2 97.95 42.25 97.35
Q 41.45 96.9 41.45 95.25
L 41.45 80.9 43.25 80.9
Q 44.85 80.9 45.45 81.9
L 46.05 81.8 45.65 77.2 33.05 77.2 32.65 81.8 33.3 81.9
Q 33.5 81.55 34 81.25 34.65 80.9 35.45 80.9
M 25.25 71
Q 24.45 70.8 23.7 70.8 20.8 70.8 19.05 72.5 17.2 74.25 17.2 77.2 17.2 79.75 18.6 82 19.6 83.65 21.8 85.7 24 87.85 24.9 89.3 26.2 91.4 26.2 93.8 26.2 96.25 24.9 97.85 23.6 99.4 21.7 99.4 20 99.4 18.95 98.2 18 97.1 18 95.7 18 94.75 18.45 94.15 18.95 93.5 19.8 93.5 20.4 93.5 20.8 93.9 21.2 94.3 21.2 94.85
L 21.15 95.25
Q 21.4 95.45 21.9 95.45 22.65 95.45 23.15 94.85 23.75 94.15 23.75 93.05 23.75 91.55 22.6 90.55 21.4 89.5 19.5 89.5 17.05 89.5 15.4 91.3 13.8 93.1 13.8 95.8 13.8 98.9 15.95 101.15 18.3 103.6 21.95 103.6 25.65 103.6 28.15 100.95 30.8 98.15 30.8 93.6 30.8 90.2 29 87.2 27.85 85.25 25.15 82.5 23.45 80.8 22.75 79.8 21.75 78.4 21.75 77.2 21.75 76.2 22.45 75.6 23.05 75 24.05 75 26.1 75 27.2 77.65
L 28.05 77.65 28.05 70.85 27.2 70.85
Q 26.7 71.15 26.25 71.15 26.05 71.15 25.25 71
M 38 59.7
L 38 60.45 45.45 58.95 45.45 58.15 38 59.7
M 34.9 71.2
L 34.9 72 45.45 69.8 45.45 69.05 34.9 71.2 Z"/>

<path fill="#BEC0C2" stroke="none" d="
M 169.8 89.75
L 169.35 90.4 169.35 92.9 170.9 97
Q 171.05 97.35 170.95 97.7
L 170.4 98.25 170.6 99.85 176.85 99.85 178.05 98.65 171.8 98.65 171.6 97 172 96.75
Q 172.4 96.35 172.1 95.75
L 169.8 89.75
M 163 78.15
L 163.1 77.2 161.95 78.3 161.8 79.4 162.15 79.6
Q 162.65 79.95 162.65 81.15
L 162.65 96.5
Q 162.65 97.2 162.5 97.55
L 161.8 98.25 162 99.85 168.2 99.85 169.4 98.65 163.2 98.65 163 97 163.4 96.75
Q 163.85 96.45 163.85 95.25
L 163.85 79.9
Q 163.85 78.55 163.4 78.4
L 163 78.15
M 169.85 79.35
L 170.2 79.6
Q 170.15 79.8 169.35 81.2
L 169.35 82
Q 171.4 78.7 171.4 78.35 171.4 78.2 171.25 78.1
L 171.05 78.05 171.2 77.2 170 78.3 169.85 79.35
M 151.5 88.35
L 151.5 91.05
Q 152.4 92.25 152.85 93 153.95 94.85 153.95 96.7
L 153.85 97.45 153.05 98.25 153.25 99.85 159.1 99.85 160.3 98.65 154.45 98.65 154.25 97 154.65 96.75
Q 155.15 96.5 155.15 95.45 155.15 93.65 154.05 91.75 153.3 90.4 151.5 88.35
M 146.4 79.9
Q 146.4 79 146.05 78.6 146 78.45 145.5 78.15
L 145.65 77.2 144.45 78.4 144.3 79.4
Q 144.75 79.6 144.85 79.8 145.2 80.2 145.2 81.15
L 145.2 96.5
Q 145.2 97.05 145 97.55
L 144.3 98.25 144.55 99.85 150.8 99.85 152 98.65 145.75 98.65 145.5 97 145.9 96.75
Q 146.4 96.4 146.4 95.25
L 146.4 79.9
M 154.25 78.15
L 154.4 77.2 153.2 78.4 153.05 79.4
Q 153.5 79.65 153.6 79.8 153.95 80.25 153.95 81.15
L 153.95 82.4 155.15 83.75 155.15 79.9
Q 155.15 79 154.8 78.6 154.75 78.45 154.25 78.15
M 134 94.5
L 133.85 95.55 136.25 95.15 136.6 97.55 135.9 98.25 136.15 99.85 142.45 99.85 143.65 98.65 137.35 98.65 137.1 96.95 137.55 96.75
Q 137.9 96.6 137.75 95.7
L 137.45 93.95 134 94.5
M 131.8 79.15
Q 131.85 78.8 131.7 78.55
L 131.5 78.35 131.1 78.1 131.25 77.15 130.05 78.3 129.9 79.35 130.25 79.55 130.45 79.75
Q 130.65 80.05 130.6 80.45
L 127.35 97.25 126.3 98.3 126.55 99.85 132.45 99.85 133.65 98.65 127.75 98.65 127.55 97 127.85 96.8
Q 128.45 96.4 128.55 96
L 131.8 79.15
M 111.45 80.6
L 111.5 81.3
Q 111.5 82.5 110.65 83.45
L 110.65 97.8
Q 110.65 98.35 110.45 98.85
L 109.75 99.55 110 101.1 113.25 101.1
Q 114.1 101.1 115 101.4 116.3 101.8 117.45 101.8 119.15 101.8 120.65 101.15 122.05 100.6 123.45 99.3
L 124.05 98.7
Q 122.95 99.55 121.9 99.95 120.3 100.6 118.7 100.6 117.55 100.6 116.25 100.2 115.35 99.9 114.5 99.9
L 111.2 99.9 110.95 98.25 111.35 98.05
Q 111.85 97.7 111.85 96.55
L 111.85 80.1
Q 111.85 78.95 111.35 78.6
L 110.95 78.35 111.1 77.35 109.9 78.6 109.9 78.7
Q 109.9 79 110.05 79.75
L 110.15 79.8
Q 110.4 80.05 110.45 80.2
L 110.5 80.15 111.25 79.8 111.45 80.6
M 117.85 74.25
L 118.15 74.25
Q 117.4 73.9 116.2 73.9 114.4 73.9 112.95 74.55 111.5 75.2 110.7 76.3 112.45 75.1 114.95 75.1
L 115.1 75.1
Q 116.6 74.25 117.85 74.25
M 120.1 77.2
Q 120.1 75.75 119.2 74.9 118.85 74.55 118.45 74.35
L 118.65 75.9 118.25 76.1 118 76.45 118.15 76.3
Q 118.9 77.2 118.9 78.45 118.9 79.85 118 81.1 120.1 79.4 120.1 77.2
M 106.85 72.7
L 106.3 73.25
Q 103.2 76.45 103.2 80.25 103.2 82.4 104.3 83.95 105.5 85.6 107.2 85.6 108.35 85.6 109.35 84.7
L 110.2 83.8
Q 109.4 84.35 108.45 84.35 106.7 84.35 105.5 82.75 104.4 81.2 104.4 79 104.4 75.65 106.85 72.7
M 82.45 80.1
Q 82.2 79.4 81.6 78.8
L 80.65 78.15 80.8 77.2 79.6 78.4 79.45 79.4 79.85 79.6 80.4 80.05
Q 81 80.6 81.25 81.35
L 85.2 91.1 85.2 96.5
Q 85.2 97.2 85.05 97.55
L 84.35 98.25 84.55 99.85 90.8 99.85 92 98.65 85.75 98.65 85.55 97 85.95 96.75
Q 86.4 96.45 86.4 95.25
L 86.4 89.85 82.45 80.1
M 89.6 78.4
L 89.5 79.35 89.8 79.55
Q 89.8 80.2 89.6 80.75
L 89 82.2 89.35 83.05 90.8 79.45
Q 91 78.4 91 78.35
L 90.7 78.15 90.8 77.2 89.6 78.4
M 72.75 91.05
L 72.05 91.2 72.05 93.95 72.9 96.85
Q 73.05 97.35 72.95 97.6
L 72.8 97.75 72.7 98.65 72.35 98.65 72.5 99.85 78.95 99.85 80.1 98.65 73.75 98.65 73.5 97 73.9 96.75
Q 74.35 96.6 74.1 95.65
L 72.75 91.05
M 66.45 79.9
Q 66.45 79 66.1 78.6 66.1 78.55 65.6 78.15
L 65.7 77.2 64.5 78.4 64.35 79.4
Q 64.8 79.6 64.9 79.8 65.25 80.2 65.25 81.15
L 65.25 96.5
Q 65.25 97.2 65.1 97.55
L 64.35 98.25 64.6 99.85 70.85 99.85 72.05 98.65 65.8 98.65 65.6 97 65.95 96.75
Q 66.45 96.4 66.45 95.25
L 66.45 79.9
M 50.2 78.85
L 49.5 79.55
Q 49.1 79.9 48.7 80.45 46.45 83.5 46.45 88.8 46.45 94.1 48.7 97.15 50.9 100.25 54.8 100.25 58 100.25 60.1 98.05
L 60.7 97.45
Q 58.7 99.05 56.05 99.05 52.05 99.05 49.8 95.8 47.65 92.75 47.65 87.55 47.65 81.9 50.2 78.85
M 45.05 82.6
L 44.85 82.2
Q 44.45 81.6 43.25 81.6
L 42.1 81.6 42.1 82.8
Q 43.35 82.8 43.65 83.45
L 43.85 83.8 44.85 83.65 46.05 82.45 45.05 82.6
M 32.35 77.15
L 31.15 78.35 30.75 83.6 32.4 83.8 33.2 83
Q 33.7 82.8 34.2 82.8
L 35.4 82.8 35.4 96.5
Q 35.4 97.2 35.25 97.55
L 34.55 98.25 34.75 99.85 40.95 99.85 42.15 98.65 35.95 98.65 35.75 97 36.1 96.75
Q 36.6 96.5 36.6 95.25
L 36.6 81.6 35.45 81.6
Q 34.25 81.6 33.85 82.2
L 33.65 82.6 31.95 82.35 32.35 77.15
M 28.05 78.3
L 26.8 78.3 26.6 77.9
Q 25.65 75.65 24.05 75.65 22.75 75.65 22.45 76.85
L 22.8 76.85
Q 24.45 76.85 25.4 79.15
L 25.55 79.5 26.85 79.5 28.05 78.3
M 19.15 96.75
L 19.55 97
Q 19.95 97.35 20.65 97.35 21.55 97.35 22.25 96.65
L 23.15 95.75
Q 22.5 96.15 21.9 96.15 21.25 96.15 20.75 95.8
L 20.35 95.5
Q 20.55 95.15 20.55 94.85 20.55 94.15 19.8 94.15 18.8 94.15 18.7 95.35 19.35 95.5 19.35 96.1 19.35 96.4 19.15 96.75
M 14.65 91.15
L 13.7 92.1
Q 11.9 94.15 11.9 97.05 11.9 100.35 14.25 102.8 16.75 105.45 20.7 105.45 24.5 105.45 27.2 102.75
L 27.8 102.15
Q 25.25 104.25 21.95 104.25 18 104.25 15.45 101.6 13.15 99.15 13.15 95.8 13.15 93.05 14.65 91.15
M 18 72.65
L 17.25 73.4
Q 15.35 75.3 15.35 78.45 15.35 81.15 16.85 83.55 17.85 85.2 20.1 87.4 21.6 88.9 21.95 89.35 24.4 90.5 24.4 93.05
L 24.3 94 24.35 95.05
Q 24.35 96.85 23.55 98.2 24.05 97.85 24.4 97.45 25.55 96.05 25.55 93.8 25.55 91.7 24.35 89.65 23.5 88.35 21.35 86.2 19.05 84 18.05 82.3 16.55 79.9 16.55 77.2 16.55 74.5 18 72.65
M 135.25 89.55
L 136.65 89.35 135.8 84.5 135.1 88.55 135.25 89.55
M 118.65 86.15
L 117.75 86.5 117.75 87.5
Q 118.65 87.8 119.3 88.55 120.4 89.9 120.4 91.95 120.4 93.6 119.7 94.75 121.6 93.7 121.6 90.7 121.6 88.7 120.5 87.35 119.75 86.45 118.65 86.15
M 72.05 81.6
L 72.05 82.8
Q 73.5 82.95 73.5 84.35 73.5 85 73.1 85.65
L 73.9 85
Q 74.7 84.05 74.7 83.1 74.7 81.6 72.95 81.6
L 72.05 81.6
M 54.8 82.4
Q 56 82.4 56.75 84.1 57.45 85.85 57.45 88.8 57.45 92.2 56.55 93.9 57.55 93.5 58.1 91.85 58.65 90.15 58.65 87.55 58.65 84.6 57.95 82.85 57.25 81.15 56.05 81.15 54.95 81.15 54.25 82.45
L 54.8 82.4 Z"/>

<path fill="#AAACAE" stroke="none" d="
M 181.1 7.7
Q 180.9 7.7 180.75 7.85 180.6 8 180.7 8 181.05 8.15 181.05 8.6 181.05 10.05 179.4 11.3 179.15 11.05 178.75 11.05
L 178.35 11.1
Q 178.2 10.85 177.95 10.65 177.7 10.5 177.45 10.75 177.7 10.9 177.7 11.2 177.7 11.7 177.4 11.9 172.9 8.3 167.2 6.95 161.65 5.55 154.6 5.55 148.75 5.55 143.5 6.5 142.45 5.25 140.5 4.55 138.5 3.85 136.5 3.85 133.9 3.85 129 5.3 128.8 5.1 128.55 5.1 128.15 5.1 127.9 5.6
L 121.15 8
Q 117.65 9.2 116.15 9.2 115.1 9.2 115.1 8.6
L 115 8.6
Q 114.75 8.6 114.7 8.7 114.55 8.85 114.55 9.05 114.55 9.4 114.9 9.55 115.25 9.8 115.85 9.75 111.65 11.1 108.85 11.1 106.7 11.1 105.15 10.3 103.6 9.55 102.75 8.2 101.9 6.8 101.9 5.3 101.9 4.85 102 4.45 102.25 3.55 102.9 2.8 103.7 2.1 104.5 2.1 105.3 2.1 105.8 2.55 105.95 2.5 105.95 2.35
L 105.85 2.1
Q 105.8 2 105.55 2 105.55 1.75 105.15 1.6 104.75 1.35 104.25 1.35
L 103.75 1.4
Q 105.05 0.55 106.55 0.55 108.3 0.55 109.65 1.6 110.95 2.75 110.95 4.55 110.95 5.9 110.2 6.7 109.45 7.55 108.2 7.55 107.25 7.55 106.7 7.1 106.2 6.6 106.2 6.05 106.2 5.7 106.45 5.3 106.7 5 107.1 5 107.55 5 107.7 5.3 107.85 5.6 107.7 5.8 107.8 6.05 108.1 6.05 108.55 6.05 108.55 5.45 108.55 4.95 108.15 4.65 107.7 4.35 107.15 4.35 106.5 4.35 106.05 4.8 105.6 5.2 105.6 6.05 105.6 7 106.4 7.55 107.25 8.15 108.3 8.15 109.75 8.15 110.65 7.1 110.85 7.35 111.3 7.35 111.9 7.35 112.05 6.75 111.85 6.6 111.75 6.05
L 111.5 4.65
Q 111.25 3 111.1 2.65 110.5 1.4 109.25 0.65 108 0 106.5 0 104.3 0 102.7 1.45 101.2 3 101.4 5.75 100.75 6.1 100.75 7.1 100.75 8.2 101.55 9.2 102.4 10.25 104.1 11 105.8 11.7 108.3 11.7 111.1 11.7 114.75 10.75 117.7 9.9 123.35 7.95
L 128.05 6.3
Q 128.3 6.65 128.7 6.65 128.9 6.65 129.2 6.45 129.4 6.25 129.4 5.85 133.9 4.5 136.65 4.5 138.25 4.5 140.15 5.05 142 5.6 142.85 6.65 137.55 7.65 133 9.2 129.55 10.35 122.3 13.25
L 120.4 14.05
Q 120.1 13.75 119.85 13.75 119.5 13.75 119.35 14 119.15 14.2 119.2 14.5 115.65 15.9 113 16.7 110.9 17.35 108.6 17.35 107.35 17.35 106.45 17.05 105.5 16.85 105.55 16 105.3 16.05 105.1 16.25 104.95 16.5 104.95 16.75 104.95 17.25 105.55 17.7 104.9 17.85 104.6 18.4 102.9 18.5 101.25 18.25 98.4265625 17.962890625 96.5 17 96.944921875 16.75625 97.3 16.45 98.65 15.25 98.65 14.15 98.65 13.55 98.2 13.15 98.35 12.65 98.35 12 98.35 10.85 97.85 9.85 97.35 8.95 96.75 8.95 96.35 8.95 96.15 9.15 95.85 9.4 95.85 9.7
L 95.95 10.1
Q 96.6 9.85 97.05 10.55 97.5 11.15 97.5 12.3 97.5 13.6 96.7 14.9 96.2091796875 15.6505859375 95.35 16.3 94.273046875 15.5095703125 93.7 14.65 92.9 13.35 92.9 12.1 92.9 11.05 93.35 10.35 93.75 9.75 94.4 9.9 94.5 9.75 94.5 9.55 94.5 9.25 94.25 9 94 8.8 93.65 8.8 93.05 8.8 92.6 9.7 92.1 10.5 92.1 11.8
L 92.2 12.95
Q 91.8 13.35 91.8 13.9 91.8 15 93.1 16.15 93.63203125 16.6228515625 94.35 17 94.188671875 17.14296875 94 17.25 92.2 18.2 89 18.6 87.6 18.8 85.6 18.7 85.3 18.15 84.65 18 85.25 17.55 85.25 17.05 85.25 16.8 85.1 16.55 84.95 16.3 84.65 16.3 84.75 17.1 83.75 17.35 82.8 17.65 81.55 17.65 79.2 17.65 77.05 17 75 16.4 70.75 14.75 70.85 14.4 70.6 14.25 70.45 14 70.1 14 69.8 14 69.55 14.25
L 67.6 13.5
Q 61.15 10.85 56.7 9.35 52.2 7.85 46.65 6.75 47.55 5.7 49.4 5.1 51.2 4.6 53 4.6 55.75 4.6 60.4 5.95 60.35 6.35 60.55 6.55 60.75 6.75 61.1 6.75 61.55 6.75 61.75 6.4
L 66.5 8.05
Q 71.3 9.85 75.25 10.95 78.95 11.9 81.85 11.9 84.45 11.9 86.15 11.15 87.9 10.5 88.7 9.35 89.55 8.25 89.55 7.25 89.55 6.25 88.9 5.85 89.1 3.05 87.5 1.5 85.95 0 83.65 0 82.1 0 80.9 0.7 79.6 1.4 79 2.7 78.75 3.3 78.6 4.75
L 78.35 6.2
Q 78.3 6.6 78 6.9 78.15 7.5 78.75 7.5 79.2 7.5 79.45 7.25 80.35 8.3 81.85 8.3 82.95 8.3 83.75 7.7 84.55 7.1 84.55 6.15 84.55 5.3 84.1 4.85 83.65 4.4 83 4.4 82.4 4.4 82 4.75 81.6 5 81.6 5.55 81.6 6.15 82.05 6.15 82.35 6.15 82.45 5.9 82.3 5.7 82.45 5.4 82.6 5.1 83.1 5.1 83.5 5.1 83.7 5.4 83.95 5.7 83.95 6.2 83.95 6.8 83.45 7.25 82.95 7.7 81.95 7.7 80.65 7.7 79.9 6.8 79.15 6 79.15 4.65 79.15 2.8 80.5 1.65 81.75 0.55 83.6 0.55 85.2 0.55 86.45 1.45 86.4 1.4 86 1.4 85.4 1.4 85.05 1.6 84.6 1.85 84.6 2.05 84.45 1.95 84.35 2.15 84.2 2.25 84.2 2.4 84.2 2.5 84.4 2.6 84.95 2.15 85.7 2.15 86.6 2.15 87.3 2.85 88 3.55 88.25 4.5 88.35 4.9 88.35 5.4 88.35 6.95 87.5 8.35 86.7 9.65 85.05 10.5 83.3 11.3 81.3 11.3 78.4 11.3 74.15 9.9 74.8 9.95 75.15 9.75 75.45 9.55 75.45 9.2 75.45 8.95 75.35 8.85 75.25 8.75 75.05 8.75
L 74.95 8.75
Q 74.95 9.35 73.85 9.35 72.25 9.35 68.8 8.1
L 61.9 5.7
Q 61.7 5.2 61.25 5.2 60.95 5.2 60.8 5.4 56.1 3.95 53.15 3.95 51 3.95 49.05 4.6 47.1 5.3 46 6.6 40.3 5.65 34.75 5.65 27.55 5.65 21.9 7.05 16.15 8.45 11.55 12.1 11.25 11.9 11.25 11.4 11.25 11 11.5 10.95 11.25 10.7 11 10.85 10.65 11 10.6 11.3
L 10.2 11.25
Q 9.7 11.25 9.5 11.5 7.8 10.2 7.8 8.75 7.8 8.35 8.2 8.1
L 8.2 8.15
Q 8.3 8.15 8.15 8 8 7.85 7.75 7.85 7.4 7.85 7.15 8.1 6.95 8.35 6.95 8.85 6.95 9.9 7.85 11 8.65 12.1 10.6 12.9 7.2 16 5.3 19.95 3.5 23.95 3.5 27.8 3.5 29.1 3.65 30.15 2.9 28.65 2.05 28.65 1.7 28.65 1.45 28.8 1.15 29.05 1.15 29.3
L 1.2 29.5 1.35 29.55 1.7 29.45
Q 2.4 29.45 3.05 30.4 3.7 31.25 3.7 32.4 3.7 33.05 3.55 33.35 3.4 33.55 3.15 33.65 2.95 33.65 2.85 33.5 2.6 33.6 2.6 33.9
L 2.75 34.2
Q 2.9 34.3 3.15 34.3 3.7 34.3 4 33.45 4.1 35.35 3.5 36.6 2.9 37.9 1.75 37.9 1.15 37.9 0.95 37.65 0.65 37.35 0.65 36.95 0.65 36.5 0.9 36.3 1.1 36.05 1.45 36.05 1.65 36.05 1.75 36.15 1.85 36.25 1.85 36.45 1.85 36.6 1.75 36.65 1.7 36.7 1.8 36.8
L 2.05 36.85
Q 2.25 36.85 2.4 36.7 2.55 36.55 2.55 36.35 2.55 36 2.25 35.7 2.05 35.4 1.5 35.4 0.8 35.4 0.45 35.9 0 36.35 0 37 0 37.7 0.5 38.1 1.05 38.55 1.7 38.55 2.9 38.55 3.7 37.35 4.6 36.25 4.6 34.3
L 4.55 33.25
Q 5.65 35.9 7.95 37.5 10.15 39.05 13.25 39.05 15.2 39.05 16.9 38.3 18.65 37.55 19.75 36.2 20.85 34.95 21.1 33.3
L 21.25 31.75
Q 21.4 30.4 21.95 29.9 21.95 29.6 21.7 29.25 21.45 29 21.1 29 20.95 28.5 20.5 28.5
L 20.2 28.65
Q 19.55 27.65 18.45 27.05 17.4 26.45 16 26.45 13.65 26.45 12.4 27.75 11.15 29 11.15 30.8 11.15 32.1 11.85 33.05 12.6 33.95 13.85 33.95 14.6 33.95 14.95 33.8 14.85 34.1 14.85 34.45 14.85 35.05 15.05 35.3 15.3 35.6 15.65 35.6
L 15.95 35.45
Q 16.05 35.35 16.05 35.2
L 16.05 35.05
Q 15.85 35.2 15.65 35 15.45 34.8 15.45 34.4 15.45 33.75 16 33.1 16.5 32.55 17.1 32.45 17.1 32.2 16.8 32.2 16.55 32.2 16.3 32.35
L 16.4 31.75
Q 16.4 31.15 16 30.65 15.6 30.25 15.05 30.25 14.6 30.25 14.25 30.45 13.9 30.8 13.9 31.1
L 14 31.45
Q 14.1 31.6 14.25 31.6
L 14.45 31.55
Q 14.35 31.45 14.4 31.35
L 14.55 31.05
Q 14.7 30.9 15 30.9 15.45 30.9 15.55 31.15 15.75 31.35 15.75 31.75 15.75 32.4 15.3 32.9 14.8 33.4 13.9 33.4 12.9 33.4 12.3 32.65 11.7 31.85 11.7 30.75 11.7 29.35 12.8 28.15 13.9 27.05 15.9 27.05 18.1 27.05 19.35 28.55 20.6 29.95 20.6 32.1 20.6 33.2 20.2 34.3 19.85 35.4 19 36.3 19.15 35.9 18.95 35.6 18.8 35.35 18.55 35.35 18.25 35.35 18.2 35.45
L 18.3 36
Q 18.3 36.9 17.2 37.5 16.2 38.1 14.85 38.35 14.05 38.5 13.25 38.5 10.4 38.5 8.35 37.05 6.3 35.65 5.15 33.2 4.05 30.6 4.05 27.7 4.05 23.95 5.85 20.05 7.65 16.25 11.2 13.15 13.1 13.7 15.25 13.7 14 15.15 13.3 16.85 12.65 18.45 12.65 20.05 12.65 21.65 13.35 22.75 14.1 23.75 15.35 23.75 16.35 23.75 17.1 23.15 17.8 22.45 17.8 21.5 17.8 20.8 17.35 20.25 16.95 19.75 16.3 19.75 15.6 19.75 15.15 20.2 14.75 20.7 14.75 21.15 14.75 21.75 15.05 21.95 15.35 22.25 15.7 22.25 16.1 22.25 16.3 22.05 16.5 21.9 16.5 21.6 16.5 21.4 16.4 21.35 16.35 21.2 16.2 21.2
L 16.05 21.25 16.1 21.4
Q 16.1 21.5 16 21.55 15.95 21.65 15.75 21.65 15.35 21.65 15.35 21.15 15.35 20.8 15.65 20.55 15.9 20.35 16.25 20.35 16.75 20.35 16.95 20.7 17.2 20.95 17.2 21.5 17.2 22.2 16.75 22.7 16.25 23.2 15.35 23.2 14.2 23.2 13.7 22.1 13.1 21.05 13.25 19.65 13.4 19.8 13.65 19.8
L 13.75 19.8
Q 14 19.8 14.2 19.45 13.95 19.35 13.8 19 13.6 18.75 13.6 18.15
L 13.75 17.35
Q 14.5 15.25 16.05 13.7
L 17.45 13.6
Q 19.8 13.4 21 12.75 22.15 12.15 22.15 11.55 22.15 11.1 21.75 10.85 21.45 10.6 20.8 10.6 19.35 10.6 18.25 11.3 16.9 12.05 15.75 13.15 13.3 13.15 12 12.5 16.35 9.05 22.1 7.65 27.7 6.25 34.7 6.25 38.35 6.25 42.2 6.65 39.25 6.75 36.45 7.5 33.3 8.25 31.35 9.5 29.3 10.7 29.3 12.05 29.3 12.45 29.55 12.8 29.85 13.1 30.2 13.1 30.7 13.1 30.85 12.75 30.45 12.45 30.45 12.05 30.45 11.35 31.35 10.45 32.2 9.6 33.95 8.85 34.35 9.2 35.05 9.2
L 35.4 9.2
Q 35.45 9.45 35.65 9.75 35.9 9.9 36.1 9.9 36.7 9.9 36.85 9.35 36.6 9.35 36.5 9.25
L 36.4 8.85
Q 36.4 8.15 38.25 7.7 40.15 7.3 42.5 7.3 44.15 7.3 45.55 7.5 45.3 8 45.3 8.45 45.3 8.95 45.55 9.2 45.8 9.5 46.05 9.5 46.2 9.5 46.5 9.3 46.65 9.15 46.65 8.85 46.35 8.95 46.2 8.7 46.05 8.55 46.05 8.15
L 46.2 7.6
Q 47.5 7.85 48.5 8.25 49.8 8.8 50.35 9.65 51.05 10.5 51.05 11.3 51.05 12.2 50.15 12.35 50.25 12.7 50.45 12.8 50.7 12.95 51 12.95 51.45 12.95 51.75 12.6 52.1 12.15 52.1 11.55 52.1 10.85 51.75 10.25 53.85 12.3 53.85 15.45 53.85 17.2 52.85 18.45 51.8 19.7 50.15 19.7 49.1 19.7 48.5 19.1 47.95 18.45 47.95 17.7 47.95 17.15 48.25 16.7 48.55 16.3 49.05 16.3 49.4 16.3 49.55 16.45 49.7 16.7 49.7 16.85 49.7 17.15 49.6 17.2 49.55 17.35 49.35 17.35
L 49.25 17.3
Q 49.15 17.45 49.3 17.6 49.45 17.8 49.7 17.8 50.15 17.8 50.35 17.5 50.65 17.2 50.65 16.8 50.65 16.35 50.25 15.95 49.9 15.6 49.2 15.6 48.4 15.6 47.85 16.2 47.4 16.8 47.4 17.7 47.4 18.8 48.15 19.55 48.8 20.35 50.1 20.35
L 51.05 20.2
Q 51.3 20.45 51.75 20.45 52.55 20.45 53.15 19.7 53.75 19.05 54.15 17.7 54.55 16.45 54.45 15.1 54.9 15.55 55.45 15.55 56.1 15.55 56.4 15.2 56.7 14.9 56.7 14.5 56.7 14.15 56.5 13.95 56.25 13.7 56 13.7
L 55.65 13.8 55.5 13.95
Q 55.75 14.05 55.75 14.3 55.75 14.75 55.3 14.75 54.85 14.75 54.65 14.4 54.4 14 54.4 13.5 54.4 13.05 54.7 12.5 54.95 12 55.45 11.7 55.4 11.9 55.45 12.2 55.6 12.4 55.8 12.4 56 12.4 56.15 12.25 56 11.95 56.2 11.6 56.3 11.3 57 11.05
L 58.15 10.95
Q 59.9 10.95 60.95 11.85 62.05 12.75 62.05 13.8 62.05 14.25 61.9 14.55 61.7 14.85 61.3 14.85 61.05 14.85 60.85 14.65 60.65 14.45 60.65 14.25
L 60.65 14.15
Q 60.55 14.05 60.35 14.2 60.1 14.25 60.1 14.7 60.1 15.15 60.45 15.35 60.75 15.65 61.25 15.65 61.75 15.65 62.1 15.35 62.5 15.1 62.65 14.55 63.05 14.55 63.25 14.25 63 13.95 62.75 13.25
L 62.55 12.7
Q 62.4 12.3 62 11.9
L 69.25 14.8
Q 69.25 15.1 69.5 15.35 69.7 15.55 70 15.55 70.2 15.55 70.5 15.35 75.7 17.35 79.45 18.35 83.25 19.3 86.7 19.3 90.4 19.3 93.25 18.45 94.5294921875 18.080859375 95.5 17.6 96.246484375 17.8923828125 97.1 18.15 99.7 18.95 103.55 18.95 107.2 18.95 110.65 18 114.15 17.15 119.45 15.05 119.7 15.3 119.95 15.3 120.15 15.3 120.45 15.1 120.65 14.9 120.65 14.55
L 127.8 11.7
Q 127.5 12 127.25 12.5
L 127.05 13.05
Q 126.95 13.45 126.55 14.05 126.8 14.3 127.2 14.3 127.3 14.85 127.7 15.1 128 15.35 128.5 15.35 129.05 15.35 129.35 15.1 129.7 14.85 129.7 14.45 129.7 14.1 129.45 13.95 129.25 13.8 129.1 13.9
L 129.1 14
Q 129.1 14.2 128.95 14.4 128.65 14.6 128.45 14.6 128.15 14.6 127.9 14.3 127.75 14 127.75 13.55 127.75 12.5 128.8 11.65 129.85 10.8 131.6 10.8
L 132.7 10.85
Q 133.4 11.1 133.5 11.4 133.7 11.75 133.55 12.05 133.7 12.2 133.9 12.2 134.15 12.2 134.2 11.95 134.35 11.75 134.2 11.5 134.75 11.8 135 12.3 135.25 12.8 135.25 13.25 135.25 13.85 135 14.15 134.8 14.5 134.4 14.5 133.95 14.5 133.95 14.05 133.95 13.8 134.2 13.7
L 134.05 13.55 133.7 13.45
Q 133.45 13.45 133.2 13.7 133 14 133 14.25 133 14.65 133.3 14.95 133.65 15.3 134.2 15.3 134.85 15.3 135.2 14.85 135.2 16.15 135.5 17.35 135.9 18.65 136.5 19.35 137.1 20.1 137.85 20.1 138.3 20.1 138.55 19.85
L 139.5 20
Q 140.7 20 141.45 19.25 142.15 18.55 142.15 17.4 142.15 16.55 141.7 15.95 141.25 15.3 140.35 15.3 139.75 15.3 139.35 15.7 139 16.05 139 16.55 139 16.95 139.25 17.2 139.5 17.5 139.9 17.5 140.15 17.5 140.25 17.3 140.4 17.15 140.3 17
L 140.25 17.05
Q 140.1 17.05 139.95 16.9
L 139.9 16.6
Q 139.9 16.35 140.05 16.2 140.2 16 140.55 16 141.05 16 141.35 16.4 141.6 16.9 141.6 17.4 141.6 18.15 141.05 18.8 140.55 19.4 139.45 19.4 137.9 19.4 136.8 18.15 135.8 16.9 135.8 15.2 135.8 12.1 137.9 10.05 137.55 10.55 137.55 11.35 137.55 12 137.85 12.35 138.25 12.75 138.65 12.75 138.95 12.75 139.15 12.6 139.35 12.5 139.45 12.1 138.6 12.05 138.6 11.1 138.6 10.3 139.25 9.45 139.85 8.65 141.1 8.1 141.65 7.85 143.35 7.45 143.45 7.7 143.45 8 143.45 8.4 143.3 8.55 143.15 8.8 142.85 8.7 142.85 8.95 143.05 9.15
L 143.45 9.3
Q 143.8 9.3 144 9.05 144.2 8.85 144.2 8.3 144.2 7.75 144 7.35
L 146.95 7.15
Q 149.35 7.15 151.15 7.6 153 8 153 8.7 153 8.95 152.85 9.1 152.75 9.2 152.55 9.2 152.7 9.75 153.25 9.75 153.5 9.75 153.7 9.55 153.9 9.35 153.95 9.05
L 154.25 9.05
Q 155 9.05 155.35 8.7 156.95 9.3 157.95 10.25 158.8 11.2 158.8 11.8 158.8 12.3 158.4 12.5 158.6 12.85 159.05 12.85 159.35 12.85 159.7 12.6 159.95 12.25 159.95 11.85 159.95 10.55 157.95 9.3 155.95 8.1 152.95 7.35 150.05 6.65 147.25 6.55 151 6.15 154.6 6.15 161.45 6.15 167 7.5 172.5 8.85 176.95 12.3 175.85 12.9 173.25 12.9 171.95 11.75 170.8 11.1 169.55 10.4 168.3 10.4 167.85 10.4 167.35 10.65 167 10.95 167 11.35 167 11.95 168.1 12.55 169.2 13.1 171.6 13.4
L 173 13.45
Q 174.5 15.05 175.25 17.05
L 175.35 17.85
Q 175.35 18.35 175.2 18.7
L 174.8 19.15
Q 174.95 19.45 175.25 19.45
L 175.3 19.45
Q 175.55 19.45 175.7 19.3 175.85 20.65 175.3 21.75 174.8 22.8 173.65 22.8 172.75 22.8 172.3 22.3 171.8 21.7 171.8 21.15 171.8 20.65 172.1 20.35 172.3 20 172.75 20 173.05 20 173.4 20.2 173.7 20.45 173.7 20.75 173.7 21.3 173.25 21.3
L 173 21.2 172.9 21.05 173 20.9 172.8 20.85 172.6 20.95 172.5 21.25
Q 172.5 21.55 172.75 21.7 172.9 21.85 173.3 21.85 173.6 21.85 173.95 21.6 174.25 21.3 174.25 20.8 174.25 20.35 173.85 19.85 173.45 19.45 172.75 19.45 172.1 19.45 171.65 19.9 171.25 20.45 171.25 21.15 171.25 22.05 171.95 22.75 172.65 23.35 173.65 23.35 174.9 23.35 175.6 22.35 176.3 21.35 176.3 19.75 176.3 18.15 175.65 16.55 175.05 14.9 173.75 13.45 176.1 13.45 177.75 12.9 181.2 15.9 182.95 19.75 184.75 23.5 184.75 27.25 184.75 30.25 183.65 32.6 182.6 35 180.55 36.45 178.45 37.85 175.7 37.85 174.9 37.85 174.15 37.7 172.85 37.45 171.85 36.85 170.75 36.25 170.75 35.35
L 170.85 34.85
Q 170.8 34.75 170.5 34.75 170.25 34.75 170.1 35 169.95 35.35 170.05 35.7 169.25 34.75 168.9 33.75 168.5 32.75 168.5 31.55 168.5 29.5 169.7 28.05 171 26.6 173.1 26.6 175.1 26.6 176.15 27.7 177.2 28.75 177.2 30.25 177.2 31.35 176.65 32.05 176.05 32.8 175.05 32.8 174.25 32.8 173.7 32.35 173.25 31.85 173.25 31.25 173.25 30.8 173.45 30.6 173.6 30.35 174 30.35 174.3 30.35 174.45 30.5
L 174.6 30.8
Q 174.6 31 174.55 31
L 174.7 31.05
Q 174.9 31.05 174.95 30.9 175.05 30.85 175.05 30.6 175.05 30.15 174.7 29.95 174.35 29.7 173.95 29.7 173.45 29.7 173.05 30.1 172.65 30.5 172.65 31.2 172.65 31.5 172.75 31.8
L 172.25 31.65
Q 171.95 31.65 171.95 31.85 172.55 32 173 32.55 173.55 33.2 173.55 33.8 173.55 34.2 173.4 34.4 173.2 34.5 173 34.45
L 172.95 34.6 173.05 34.85
Q 173.2 35 173.4 35 173.75 35 173.95 34.7 174.15 34.45 174.15 33.85
L 174.05 33.2
Q 174.4 33.4 175.1 33.4 176.4 33.4 177.05 32.5 177.8 31.55 177.8 30.25 177.8 28.5 176.55 27.25 175.4 26 173.05 26 171.65 26 170.6 26.6 169.5 27.15 168.9 28.15 168.8 28.05 168.6 28.05 168.15 28.05 168 28.5 167.65 28.5 167.4 28.75 167.25 28.95 167.15 29.4 167.7 29.75 167.85 31.2
L 168 32.75
Q 168.25 34.35 169.3 35.55 170.45 36.9 172.15 37.65 173.9 38.4 175.7 38.4 178.75 38.4 180.95 36.85 183.1 35.35 184.25 32.7
L 184.2 33.7
Q 184.2 35.55 185.1 36.75 185.95 37.9 187.05 37.9 187.75 37.9 188.25 37.45 188.7 37.1 188.7 36.35 188.7 35.65 188.3 35.25 187.95 34.8 187.25 34.8 186.8 34.8 186.5 35.1 186.25 35.45 186.25 35.7 186.25 35.95 186.4 36.1 186.5 36.25 186.75 36.25
L 187 36.15 187.05 36
Q 186.9 36 186.9 35.8
L 187 35.55
Q 187.15 35.4 187.35 35.4 187.6 35.4 187.85 35.65 188.1 35.85 188.1 36.35 188.1 36.65 187.85 37 187.55 37.3 187.05 37.3 185.85 37.3 185.3 36 184.7 34.65 184.85 32.85 185.15 33.75 185.65 33.75 185.85 33.75 186 33.6
L 186.15 33.3
Q 186.15 33.05 185.95 32.9 185.9 33.15 185.65 33.05 185.4 33.05 185.25 32.75 185.1 32.45 185.1 31.85 185.1 30.8 185.75 29.85 186.45 28.95 187.05 28.95
L 187.4 29.05 187.55 29 187.6 28.8
Q 187.6 28.5 187.35 28.35 187.1 28.15 186.75 28.15 185.9 28.15 185.15 29.65 185.3 28.6 185.3 27.35 185.3 23.5 183.5 19.6 181.65 15.7 178.3 12.7 180.15 11.95 181 10.85 181.95 9.75 181.95 8.7 181.95 8.25 181.7 8 181.5 7.7 181.1 7.7
M 168.95 12.25
Q 167.9 11.9 167.9 11.6 167.9 11.35 168.55 11.35 169.3 11.35 170.4 11.8 171.5 12.3 172.3 12.85
L 172.1 12.8
Q 169.8 12.55 168.95 12.25
M 134.25 10.85
Q 133.25 10.35 131.85 10.2 136.4 8.65 140.25 7.75 136.75 9.3 135.7 12.45 135.3 11.3 134.25 10.85
M 57.9 10.4
Q 56.5 10.5 55.45 11 54.4 11.55 53.95 12.65 52.9 9.45 49.3 7.9 53.4 8.8 57.9 10.4
M 20.55 11.55
Q 21.2 11.55 21.2 11.8 21.2 12.1 20.15 12.45 19 12.85 16.95 13.05
L 16.75 13.1
Q 17.5 12.5 18.65 12 19.8 11.55 20.55 11.55
M 8.6 18.35
Q 7.6 19.5 6.75 21.9 6 24.25 6 27.3 6 30 6.8 32.25 7.65 34.3 9 34.3 9.45 34.3 9.7 34.1 9.9 33.95 9.9 33.7
L 9.85 33.55
Q 9.8 33.6 9.45 33.6 8.6 33.6 7.75 32.7 6.9 31.75 6.6 29.25
L 7.05 28.75
Q 7.45 28.75 7.6 28.65
L 7.85 28.25
Q 7.25 28.2 6.95 27.5 6.6 26.8 6.6 25.6 6.6 23.55 7.6 21 8.55 18.55 10.25 17.15 9.6 17.05 8.6 18.35
M 180.3 18
Q 179.3 16.75 178.65 16.9 180.25 18.15 181.25 20.6 182.25 23.15 182.25 25.2 182.25 26.35 181.95 27 181.65 27.75 181 27.75 181.1 28 181.3 28.15 181.45 28.25 181.8 28.25 182.1 28.65 182.3 28.75 181.9 31.25 181.1 32.15 180.3 33.05 179.45 33.05 179.15 33.05 179.05 32.95
L 179 33.15
Q 179 33.35 179.25 33.55 179.55 33.75 179.9 33.75 181.2 33.75 182.05 31.7 182.85 29.45 182.85 26.8 182.85 23.8 182.1 21.55 181.4 19.3 180.3 18
M 174.15 127.85
Q 175.15 127.75 175.7 127.75 178.55 127.75 180.55 129.15 182.65 130.6 183.65 132.95 184.75 135.35 184.75 138.35 184.75 142.05 182.95 145.85 181.3 149.55 177.75 152.7 175.95 152.1 173.75 152.1 175.1 150.6 175.65 149.05 176.3 147.4 176.3 145.85 176.3 144.15 175.6 143.25 174.95 142.2 173.65 142.2 172.7 142.2 171.95 142.85 171.25 143.45 171.25 144.45 171.25 145.15 171.65 145.65 172.1 146.15 172.75 146.15 173.4 146.15 173.85 145.7 174.25 145.3 174.25 144.75 174.25 144.25 173.95 144 173.7 143.75 173.3 143.75 172.9 143.75 172.75 143.9 172.5 144.05 172.5 144.35
L 172.6 144.6
Q 172.7 144.75 172.8 144.75
L 173 144.7 172.9 144.55 173 144.4 173.25 144.3
Q 173.7 144.3 173.7 144.8 173.7 145.2 173.4 145.4 172.9 145.6 172.75 145.6 172.3 145.6 172.1 145.25 171.8 144.9 171.8 144.45 171.8 143.8 172.3 143.3 172.75 142.8 173.65 142.8 174.8 142.8 175.3 143.85 175.85 144.95 175.7 146.3 175.55 146.1 175.3 146.1
L 175.25 146.1
Q 175 146.1 174.8 146.45 174.95 146.5 175.2 146.9 175.35 147.2 175.35 147.75
L 175.25 148.55
Q 174.5 150.6 173 152.1
L 171.6 152.2
Q 169.05 152.5 168.1 153.05 167 153.65 167 154.25 167 154.65 167.35 154.95 167.85 155.2 168.3 155.2 169.55 155.2 170.8 154.5 171.95 153.85 173.25 152.7 175.85 152.7 176.95 153.3 172.5 156.75 167 158.1 161.65 159.4 154.6 159.4 150.55 159.4 147.25 159.05 150.05 158.95 152.95 158.25 155.8 157.5 157.95 156.25 159.95 155 159.95 153.7 159.95 153.35 159.7 153 159.4 152.7 159.05 152.7 158.65 152.7 158.4 153.05 158.8 153.3 158.8 153.75 158.8 154.45 157.95 155.3 157.1 156.2 155.35 156.85 155 156.55 154.25 156.55
L 153.95 156.55
Q 153.9 156.2 153.7 156 153.5 155.85 153.25 155.85 152.7 155.85 152.55 156.4 152.7 156.35 152.85 156.5 153 156.65 153 156.85 153 157.55 151.15 158 149.35 158.45 146.95 158.45 145.65 158.45 144 158.2 144.2 157.8 144.2 157.25 144.2 156.75 144 156.55 143.8 156.25 143.45 156.25
L 143.05 156.45
Q 142.85 156.65 142.85 156.85 143.15 156.85 143.3 157 143.45 157.25 143.45 157.55 143.45 157.9 143.35 158.15 141.65 157.75 141.1 157.5 139.8 156.95 139.25 156.1 138.6 155.3 138.6 154.5 138.6 153.6 139.45 153.45 139.35 153.1 139.15 153 138.95 152.85 138.65 152.85 138.3 152.85 137.85 153.2 137.55 153.6 137.55 154.25 137.55 155 137.9 155.55 135.8 153.55 135.8 150.4 135.8 148.7 136.8 147.45 137.85 146.2 139.45 146.2 140.55 146.2 141.05 146.8 141.6 147.45 141.6 148.2 141.6 148.75 141.35 149.15 141.1 149.55 140.55 149.55 140.2 149.55 140.05 149.4 139.9 149.25 139.9 149
L 139.95 148.65
Q 140.05 148.55 140.25 148.55
L 140.3 148.55
Q 140.4 148.45 140.25 148.25 140.2 148.1 139.9 148.1 139.5 148.1 139.25 148.4 139 148.6 139 149.05 139 149.55 139.35 149.9 139.7 150.25 140.35 150.25 141.25 150.25 141.7 149.65 142.15 149.05 142.15 148.2 142.15 147.05 141.45 146.35 140.7 145.6 139.5 145.6
L 138.55 145.7
Q 138.2 145.45 137.85 145.45 137.1 145.45 136.5 146.2 135.95 146.85 135.5 148.2 135.2 149.5 135.2 150.75 134.85 150.3 134.2 150.3 133.6 150.3 133.3 150.65 133 150.95 133 151.35 133 151.5 133.2 151.9 133.4 152.1 133.7 152.1
L 134.05 152.05 134.2 151.85
Q 133.95 151.85 133.95 151.5 133.95 151.1 134.4 151.1 134.8 151.1 135 151.45 135.25 151.75 135.25 152.35 135.25 152.7 135 153.3 134.75 153.8 134.2 154.1 134.35 153.85 134.2 153.6 134.1 153.35 133.9 153.35 133.75 153.35 133.55 153.55 133.75 153.85 133.5 154.15 133.35 154.55 132.7 154.7
L 131.6 154.8
Q 129.95 154.8 128.8 153.95 127.75 153.05 127.75 152.05 127.75 151.55 127.9 151.3 128.15 151 128.45 151 128.75 151 128.95 151.2 129.1 151.35 129.1 151.6
L 129.1 151.7
Q 129.25 151.8 129.45 151.65 129.7 151.5 129.7 151.1 129.7 150.75 129.35 150.5 129 150.2 128.5 150.2 128.1 150.2 127.7 150.5 127.25 150.75 127.2 151.3 126.8 151.3 126.55 151.55 126.9 152 127.05 152.55
L 127.25 153.1
Q 127.65 153.75 127.8 153.9
L 120.65 151.05
Q 120.65 150.7 120.45 150.5 120.25 150.3 119.95 150.3 119.75 150.3 119.45 150.5 114.75 148.65 110.65 147.55 107.15 146.65 103.55 146.65 99.7 146.65 97.1 147.45 96.258203125 147.6857421875 95.5 147.95 94.5375 147.488671875 93.25 147.1 90.55 146.3 86.7 146.3 82.95 146.3 79.45 147.25 75.7 148.25 70.5 150.25 70.3 150.05 70 150.05 69.7 150.05 69.5 150.25 69.25 150.4 69.25 150.8
L 62 153.7
Q 62.45 153.15 62.55 152.85
L 62.75 152.3 63.25 151.3
Q 63 151.05 62.65 151.05 62.5 150.55 62.1 150.2 61.7 149.95 61.25 149.95 60.8 149.95 60.45 150.2 60.1 150.5 60.1 150.85 60.1 151.3 60.35 151.4 60.55 151.55 60.65 151.45
L 60.65 151.35
Q 60.65 151.1 60.85 150.95 61.05 150.75 61.3 150.75 61.7 150.75 61.9 151.05 62.05 151.3 62.05 151.8 62.05 152.85 60.95 153.75 59.85 154.6 58.15 154.6
L 57 154.5
Q 56.35 154.35 56.2 153.95 56 153.6 56.15 153.35 56 153.15 55.8 153.15 55.6 153.15 55.45 153.4 55.35 153.65 55.45 153.9 54.9 153.5 54.7 153.05 54.4 152.6 54.4 152.1 54.4 151.6 54.65 151.2 54.85 150.85 55.3 150.85 55.75 150.85 55.75 151.25 55.75 151.6 55.5 151.6 55.5 151.75 55.65 151.8
L 56 151.9
Q 56.25 151.9 56.5 151.65 56.7 151.45 56.7 151.1 56.7 150.75 56.4 150.35 56.1 150.05 55.45 150.05 54.9 150.05 54.45 150.5 54.55 149.15 54.15 147.9 53.75 146.6 53.15 145.9 52.55 145.1 51.75 145.1 51.35 145.1 51.05 145.4
L 50.1 145.25
Q 48.85 145.25 48.15 146 47.4 146.85 47.4 147.9 47.4 148.75 47.85 149.4 48.4 150 49.2 150 49.85 150 50.25 149.6 50.65 149.2 50.65 148.75 50.65 148.35 50.35 148.1 50.15 147.8 49.7 147.8 49.45 147.8 49.3 147.95 49.15 148.15 49.25 148.3
L 49.35 148.25 49.6 148.35
Q 49.7 148.45 49.7 148.7 49.7 148.95 49.55 149.1 49.4 149.3 49.05 149.3 48.55 149.3 48.25 148.85 47.95 148.5 47.95 147.9 47.95 147.15 48.5 146.5 49.1 145.85 50.15 145.85 51.75 145.85 52.85 147.1 53.85 148.4 53.85 150.15 53.85 153.35 51.75 155.35 52.1 154.75 52.1 154.05 52.1 153.45 51.75 153 51.45 152.65 51 152.65 50.7 152.65 50.45 152.8 50.25 152.9 50.15 153.25 51.05 153.4 51.05 154.3 51.05 155.1 50.35 155.95 49.7 156.8 48.5 157.35 47.85 157.6 46.2 158
L 46.05 157.4
Q 46.05 157.1 46.2 156.85 46.35 156.7 46.65 156.7 46.65 156.45 46.5 156.3 46.3 156.1 46.05 156.1 45.8 156.1 45.55 156.35 45.3 156.7 45.3 157.1 45.3 157.6 45.55 158.1 44.15 158.3 42.5 158.3 40.05 158.3 38.25 157.85 36.4 157.4 36.4 156.7
L 36.5 156.35
Q 36.65 156.2 36.85 156.25 36.7 155.65 36.1 155.65 35.85 155.65 35.65 155.85
L 35.4 156.35 35.05 156.35
Q 34.5 156.35 33.95 156.7 32.35 156.1 31.35 155.15 30.45 154.25 30.45 153.55 30.45 153.15 30.85 152.85 30.7 152.5 30.2 152.5 29.85 152.5 29.55 152.8 29.3 153.15 29.3 153.5 29.3 154.9 31.35 156.1 33.3 157.35 36.45 158.1 39.65 158.9 42.2 158.9 39 159.3 34.7 159.3 27.8 159.3 22.1 157.95 16.45 156.6 12 153.05 13.2 152.45 15.75 152.45 17.15 153.7 18.25 154.3 19.5 155 20.8 155 21.35 155 21.75 154.75 22.15 154.45 22.15 154.05 22.15 153.45 21 152.85 19.85 152.25 17.45 151.95
L 16.05 151.9
Q 14.55 150.4 13.75 148.25
L 13.6 147.45
Q 13.6 146.9 13.8 146.55 13.95 146.3 14.2 146.1 13.95 145.75 13.75 145.75
L 13.65 145.75
Q 13.45 145.75 13.25 145.95 13.1 144.55 13.7 143.45 14.25 142.4 15.35 142.4 16.25 142.4 16.75 142.9 17.2 143.45 17.2 144.05 17.2 144.6 16.95 144.9 16.75 145.25 16.25 145.25 16.05 145.25 15.65 145.05 15.35 144.85 15.35 144.45 15.35 143.95 15.75 143.95
L 16 144
Q 16.1 144.05 16.1 144.2
L 16.05 144.3
Q 16.05 144.35 16.2 144.35 16.35 144.35 16.4 144.25 16.5 144.2 16.5 143.95 16.5 143.65 16.3 143.5 16.1 143.35 15.7 143.35 15.4 143.35 15.05 143.6 14.75 143.9 14.75 144.4 14.75 144.9 15.15 145.4 15.65 145.8 16.3 145.8 17 145.8 17.35 145.3 17.8 144.8 17.8 144.05 17.8 143.15 17.1 142.45 16.3 141.8 15.35 141.8 14.1 141.8 13.35 142.85 12.65 143.95 12.65 145.5 12.65 147.1 13.3 148.75 14 150.4 15.25 151.9 13.1 151.9 11.2 152.45 7.6 149.3 5.85 145.5 4.05 141.7 4.05 137.85 4.05 135 5.15 132.4 6.3 129.9 8.35 128.5 10.35 127.1 13.25 127.1 13.75 127.1 14.85 127.2 16.1 127.45 17.2 128.1 18.3 128.7 18.3 129.6
L 18.2 130.1
Q 18.3 130.25 18.55 130.25 18.8 130.25 18.95 129.95 19.15 129.75 19 129.3 19.8 130.1 20.2 131.25 20.6 132.45 20.6 133.5 20.6 135.6 19.35 137.05 18.1 138.5 15.9 138.5 13.85 138.5 12.8 137.4 11.7 136.3 11.7 134.85 11.7 133.7 12.3 132.95 12.9 132.2 13.9 132.2 14.8 132.2 15.3 132.7 15.75 133.25 15.75 133.8 15.75 134.25 15.55 134.45 15.4 134.7 15 134.7 14.7 134.7 14.55 134.55
L 14.4 134.25
Q 14.3 134.05 14.45 134.05
L 14.25 134 14 134.1 13.9 134.45
Q 13.9 134.85 14.25 135.1 14.65 135.35 15.05 135.35 15.5 135.35 16 134.95 16.4 134.45 16.4 133.85
L 16.3 133.25
Q 16.45 133.35 16.8 133.35 17.1 133.35 17.1 133.15 16.55 133.05 16 132.45 15.45 131.9 15.45 131.2 15.45 130.75 15.65 130.6 15.85 130.45 16.05 130.5
L 16.05 130.4
Q 16.05 130.2 15.95 130.1
L 15.65 130
Q 15.3 130 15.05 130.3 14.85 130.55 14.85 131.15 14.85 131.5 14.95 131.8 14.6 131.6 13.85 131.6 12.6 131.6 11.85 132.55 11.15 133.5 11.15 134.8 11.15 136.55 12.4 137.85 13.65 139.15 16 139.15 17.4 139.15 18.45 138.55 19.45 138 20.2 136.95
L 20.5 137.05
Q 20.95 137.05 21.1 136.6 21.5 136.6 21.7 136.3 21.95 136.05 21.95 135.65 21.4 135.25 21.25 133.85
L 21.1 132.3
Q 20.85 130.65 19.75 129.4 18.65 128.05 16.9 127.3 15.25 126.5 13.25 126.5 10.25 126.5 7.95 128.1 5.7 129.6 4.55 132.3
L 4.6 131.3
Q 4.6 129.4 3.7 128.2 2.85 127.05 1.7 127.05 1.05 127.05 0.5 127.45 0 127.95 0 128.6 0 129.25 0.45 129.7 0.85 130.15 1.5 130.15 2 130.15 2.25 129.9 2.55 129.6 2.55 129.25 2.55 129 2.4 128.85 2.25 128.7 2.05 128.7
L 1.8 128.8
Q 1.6 128.8 1.75 128.95 1.85 128.95 1.85 129.15 1.85 129.35 1.75 129.4 1.7 129.55 1.45 129.55 1.15 129.55 0.9 129.3 0.65 129.1 0.65 128.65 0.65 128.25 0.95 127.95 1.2 127.65 1.75 127.65 2.9 127.65 3.5 129 4.1 130.25 4 132.15 3.7 131.25 3.15 131.25 3 131.25 2.75 131.4
L 2.6 131.7
Q 2.6 131.95 2.85 132.1 2.95 131.95 3.15 131.95 3.4 131.95 3.55 132.25 3.7 132.55 3.7 133.2 3.7 134.25 3.05 135.2 2.4 136.15 1.7 136.15 1.5 136.15 1.35 136
L 1.2 136.1 1.15 136.3
Q 1.15 136.6 1.45 136.75 1.65 136.95 2.05 136.95 2.9 136.95 3.65 135.45 3.5 136.45 3.5 137.75 3.5 141.7 5.3 145.6 7.15 149.55 10.6 152.7 8.8 153.4 7.85 154.55 6.95 155.75 6.95 156.7 6.95 157.25 7.15 157.45 7.4 157.75 7.75 157.75 8 157.75 8.15 157.6 8.35 157.4 8.2 157.4
L 8.2 157.45
Q 7.8 157.3 7.8 156.8 7.8 155.4 9.5 154.1 9.75 154.35 10.2 154.35
L 10.6 154.3
Q 10.65 154.6 11 154.75 11.25 154.9 11.5 154.65 11.25 154.55 11.25 154.15 11.25 153.75 11.55 153.45 16.15 157.15 21.9 158.5 27.8 159.95 34.75 159.95 40.45 159.95 46 158.95 47 160.25 49.05 160.95 51.15 161.65 53.15 161.65 55.85 161.65 60.8 160.2 60.95 160.35 61.25 160.35 61.7 160.35 61.9 159.9
L 68.8 157.45
Q 72.35 156.25 73.85 156.25 74.95 156.25 74.95 156.85
L 75.05 156.85 75.35 156.7
Q 75.45 156.65 75.45 156.35 75.45 156.1 75.15 155.85 74.8 155.65 74.15 155.65 78.5 154.3 81.3 154.3 83.45 154.3 85.05 155.1 86.65 155.85 87.5 157.25 88.35 158.65 88.35 160.2 88.35 160.65 88.25 161.05 88 162.05 87.3 162.7 86.65 163.45 85.7 163.45 84.9 163.45 84.4 162.95 84.2 163.05 84.2 163.2
L 84.35 163.45
Q 84.4 163.55 84.6 163.55 84.6 163.8 85.05 164 85.55 164.2 86 164.2 86.3595703125 164.2 86.4 164.15 85.19140625 165.05 83.6 165.05 81.85 165.05 80.5 163.95 79.15 162.85 79.15 160.95 79.15 159.65 79.9 158.75 80.65 157.9 81.95 157.9 82.95 157.9 83.45 158.35 83.95 158.8 83.95 159.4 83.95 159.9 83.7 160.15 83.5 160.5 83.1 160.5 82.6 160.5 82.45 160.2 82.3 159.9 82.45 159.65 82.4 159.45 82.05 159.45 81.6 159.45 81.6 160 81.6 160.6 82 160.85 82.45 161.15 83 161.15 83.65 161.15 84.1 160.7 84.55 160.35 84.55 159.45 84.55 158.5 83.75 157.9 82.95 157.3 81.85 157.3 80.35 157.3 79.45 158.35 79.25 158.1 78.75 158.1 78.15 158.1 78 158.7 78.3 158.9 78.35 159.4
L 78.6 160.85
Q 78.75 162.3 79 162.9 79.6 164.25 80.9 164.9 82.2 165.6 83.65 165.6 85.95 165.6 87.5 164.1 89.1 162.5 88.9 159.75 89.55 159.25 89.55 158.35 89.55 157.35 88.7 156.2 87.9 155.15 86.15 154.4 84.35 153.7 81.85 153.7 78.7 153.7 75.25 154.65 71.55 155.7 66.5 157.5
L 61.75 159.2
Q 61.55 158.85 61.1 158.85 60.75 158.85 60.55 159.05 60.3 159.2 60.4 159.6 55.85 161 53 161 51.35 161 49.4 160.45 47.65 159.95 46.65 158.85 52.2 157.75 56.7 156.25 61.15 154.75 67.6 152.1
L 69.55 151.3
Q 69.8 151.6 70.1 151.6 70.45 151.6 70.6 151.35 70.8 151.15 70.75 150.85 74.35 149.4 77.05 148.6 79.2 147.95 81.55 147.95 82.95 147.95 83.75 148.2 84.7 148.5 84.65 149.3 84.9 149.25 85.1 149.05 85.25 148.85 85.25 148.55 85.25 148 84.65 147.6 85.3 147.45 85.6 146.85 87.3 146.8 89 147 92.05 147.3 94 148.35 94.173828125 148.4505859375 94.35 148.55 93.651953125 148.9400390625 93.1 149.4 91.8 150.55 91.8 151.7 91.8 152.25 92.2 152.65
L 92.1 153.8
Q 92.1 155.05 92.6 155.9 93.05 156.8 93.65 156.8 93.9 156.8 94.25 156.55 94.5 156.4 94.5 156.05 94.5 155.85 94.4 155.65 93.8 155.85 93.35 155.25 92.9 154.6 92.9 153.5 92.9 152.2 93.7 150.95 94.2935546875 150.0072265625 95.35 149.25 96.221875 149.9529296875 96.7 150.7 97.5 152 97.5 153.3 97.5 154.4 97.05 155.05 96.6 155.75 95.95 155.5
L 95.85 155.9
Q 95.85 156.2 96.15 156.4 96.4 156.65 96.75 156.65 97.35 156.65 97.85 155.75 98.35 154.75 98.35 153.6 98.35 153 98.2 152.4 98.65 152.1 98.65 151.45 98.65 150.35 97.3 149.15 96.9517578125 148.8390625 96.5 148.55 98.3419921875 147.5861328125 101.25 147.3 103.1 147.15 104.6 147.2 104.9 147.75 105.55 147.9 104.95 148.3 104.95 148.85
L 105.1 149.3
Q 105.25 149.55 105.55 149.55 105.5 148.8 106.45 148.5 107.2 148.25 108.6 148.25 110.9 148.25 113 148.9 115 149.45 119.2 151.1 119.15 151.4 119.35 151.6 119.5 151.8 119.85 151.8 120.15 151.8 120.4 151.55
L 122.3 152.35
Q 128.6 154.9 133 156.4 137.55 157.95 142.85 158.95 141.9 160.05 140.15 160.55 138.45 161.05 136.65 161.05 133.9 161.05 129.4 159.7 129.4 159.3 129.2 159.15 129 158.95 128.7 158.95 128.25 158.95 128.05 159.3
L 123.35 157.65
Q 117.85 155.65 114.75 154.85 111.4 153.9 108.3 153.9 105.8 153.9 104.1 154.6 102.3 155.4 101.55 156.35 100.75 157.45 100.75 158.45 100.75 159.4 101.4 159.85 101.2 162.6 102.7 164.1 104.3 165.6 106.5 165.6 107.95 165.6 109.25 164.9 110.5 164.25 111.1 162.9 111.25 162.6 111.5 160.95
L 111.75 159.5
Q 111.8 159.05 112.05 158.8 111.9 158.2 111.3 158.2 110.9 158.2 110.65 158.45 109.75 157.45 108.3 157.45 107.25 157.45 106.4 158 105.6 158.65 105.6 159.55 105.6 160.35 106.05 160.8 106.5 161.25 107.15 161.25 107.7 161.25 108.15 160.95 108.55 160.65 108.55 160.1 108.55 159.55 108.1 159.55 107.75 159.55 107.7 159.75 107.85 160 107.7 160.3 107.55 160.6 107.1 160.6 106.65 160.6 106.45 160.25 106.2 159.9 106.2 159.5 106.2 158.95 106.7 158.45 107.25 158.05 108.2 158.05 109.5 158.05 110.2 158.9 110.95 159.75 110.95 161 110.95 162.9 109.65 163.95 108.35 165.05 106.55 165.05 105.05 165.05 103.75 164.2
L 104.25 164.2
Q 104.8 164.2 105.15 164 105.55 163.8 105.55 163.55 105.75 163.6 105.85 163.5
L 105.95 163.2
Q 105.95 163.1 105.8 163 105.3 163.5 104.5 163.5 103.65 163.5 102.9 162.75 102.25 162.1 102 161.15 101.9 160.75 101.9 160.3 101.9 158.8 102.75 157.4 103.55 156.1 105.15 155.25 106.75 154.5 108.85 154.5 111.65 154.5 115.85 155.85 115.2 155.8 114.9 156 114.55 156.2 114.55 156.55 114.55 156.8 114.7 156.85 114.8 157 115 157
L 115.1 157
Q 115.1 156.4 116.15 156.4 117.65 156.4 121.15 157.6
L 127.9 160
Q 128.15 160.45 128.55 160.45 128.85 160.45 129 160.3 133.7 161.7 136.5 161.7 138.6 161.7 140.5 161.05 142.45 160.4 143.5 159.1 149.2 160.05 154.6 160.05 161.35 160.05 167.2 158.65 172.95 157.2 177.4 153.65 177.7 153.95 177.7 154.35 177.7 154.7 177.45 154.85 177.65 155.05 177.95 154.95 178.2 154.8 178.35 154.5
L 178.75 154.55
Q 179.15 154.55 179.4 154.3 181.05 155.5 181.05 156.95 181.05 157.45 180.7 157.6
L 180.7 157.55
Q 180.6 157.55 180.75 157.7 180.9 157.85 181.1 157.85 181.5 157.85 181.7 157.6 181.95 157.35 181.95 156.85 181.95 155.85 181 154.75 180.15 153.65 178.3 152.9 181.7 149.9 183.5 145.95 185.3 142.15 185.3 138.25 185.3 136.95 185.15 135.95 185.9 137.4 186.75 137.4 187.05 137.4 187.35 137.25 187.6 137.1 187.6 136.8
L 187.55 136.6
Q 187.45 136.5 187.4 136.5 187.35 136.65 187.05 136.65 186.4 136.65 185.75 135.7 185.1 134.85 185.1 133.75 185.1 133.1 185.25 132.8 185.4 132.6 185.65 132.5 185.9 132.5 185.95 132.65 186.15 132.6 186.15 132.3 186.15 132.1 186 132 185.85 131.85 185.65 131.85 185.15 131.85 184.85 132.7 184.7 130.9 185.3 129.6 185.85 128.3 187.05 128.3 187.55 128.3 187.85 128.6 188.1 128.85 188.1 129.25 188.1 129.7 187.85 129.95 187.65 130.15 187.35 130.15
L 187 130.05 186.9 129.8
Q 186.9 129.65 187.05 129.55
L 187 129.4 186.75 129.35
Q 186.5 129.35 186.4 129.5 186.25 129.65 186.25 129.85 186.25 130.15 186.5 130.5 186.75 130.75 187.25 130.75 187.95 130.75 188.3 130.3 188.7 129.9 188.7 129.2 188.7 128.55 188.25 128.1 187.7 127.7 187.05 127.7 185.95 127.7 185.1 128.85 184.2 130 184.2 131.9
L 184.25 132.9
Q 183.15 130.3 180.95 128.7 178.7 127.2 175.7 127.2 173.9 127.2 172.15 127.95 170.45 128.7 169.3 130 168.25 131.3 168 132.85
L 167.85 134.4
Q 167.7 135.8 167.15 136.15 167.25 136.65 167.4 136.8 167.65 137.1 168 137.1 168.15 137.55 168.6 137.55
L 168.9 137.4
Q 169.45 138.35 170.6 139 171.65 139.6 173.05 139.6 175.35 139.6 176.55 138.3 177.8 137.05 177.8 135.3 177.8 134 177.05 133.1 176.4 132.2 175.1 132.2 174.45 132.2 174.05 132.35
L 174.15 131.7
Q 174.15 131.15 173.95 130.9 173.75 130.6 173.4 130.6 173.2 130.6 173.05 130.75
L 172.95 131 173 131.1
Q 173.15 131.05 173.4 131.2 173.55 131.35 173.55 131.75 173.55 132.4 173 133.05 172.5 133.6 171.95 133.7 171.95 133.9 172.25 133.9 172.55 133.9 172.75 133.8 172.65 134.1 172.65 134.4 172.65 135.1 173.05 135.45 173.4 135.85 173.95 135.85 174.45 135.85 174.7 135.65 175.05 135.35 175.05 135 175.05 134.75 174.95 134.65 174.9 134.55 174.7 134.55
L 174.55 134.55 174.6 134.75 174.45 135.05
Q 174.3 135.2 174 135.2 173.6 135.2 173.45 135 173.25 134.8 173.25 134.35 173.25 133.8 173.7 133.25 174.2 132.75 175.05 132.75 176.05 132.75 176.65 133.5 177.2 134.2 177.2 135.35 177.2 136.85 176.15 137.9 175.05 139 173.1 139 171 139 169.7 137.55 168.5 136.05 168.5 134.05 168.5 132.8 168.9 131.85 169.25 130.85 170.05 129.9 169.9 130.25 170.1 130.6 170.25 130.85 170.5 130.85
L 170.85 130.75 170.75 130.2
Q 170.75 129.35 171.85 128.7 173.05 128.05 174.15 127.85
M 168.55 154.25
Q 167.9 154.25 167.9 154 167.9 153.75 168.95 153.35 170 153 172.1 152.75
L 172.3 152.7
Q 171.55 153.3 170.4 153.8 169.3 154.25 168.55 154.25
M 131.85 155.35
Q 133.2 155.3 134.25 154.75 135.35 154.2 135.7 153.15 136.75 156.3 140.25 157.8 135.8 156.8 131.85 155.35
M 21.2 153.8
Q 21.2 154.05 20.55 154.05 19.8 154.05 18.65 153.6 17.4 153 16.75 152.5
L 16.95 152.55
Q 19 152.75 20.15 153.15 21.2 153.55 21.2 153.8
M 53.95 152.95
Q 54.4 154.05 55.45 154.55 56.4 155.05 57.9 155.2 54.05 156.55 49.3 157.7 52.9 156.15 53.95 152.95
M 9 131.25
Q 7.65 131.25 6.8 133.35 6 135.6 6 138.3 6 141.35 6.75 143.65 7.6 146.05 8.6 147.25 9.55 148.5 10.25 148.4 8.6 147.1 7.6 144.6 6.6 142.05 6.6 139.95 6.6 138.8 6.95 138.1 7.25 137.35 7.85 137.35 7.75 137.05 7.6 136.95 7.35 136.8 7.05 136.85
L 6.6 136.3
Q 6.9 133.85 7.75 132.9 8.6 131.95 9.45 131.95 9.75 131.95 9.85 132.05
L 9.9 131.9
Q 9.9 131.65 9.7 131.45 9.3 131.25 9 131.25
M 179.9 131.85
Q 179.45 131.85 179.25 132.05 179 132.2 179 132.45
L 179.05 132.65
Q 179.1 132.55 179.45 132.55 180.3 132.55 181.1 133.45 181.9 134.35 182.3 136.8 182 137.05 181.8 137.35 181.55 137.3 181.3 137.45 181.05 137.6 181 137.8 181.65 137.85 181.95 138.55 182.25 139.3 182.25 140.4 182.25 142.5 181.25 144.95 180.25 147.45 178.65 148.7 179.35 148.8 180.3 147.55 181.3 146.4 182.1 144.05 182.85 141.75 182.85 138.75 182.85 136.05 182.05 133.9 181.2 131.85 179.9 131.85
M 73.5 216.3
Q 73.25 216.05 72.95 216.05 72.65 216.05 72.4 216.3 72.2 216.45 72.2 216.85 72.2 217.2 72.4 217.45 72.65 217.7 72.95 217.7 73.25 217.7 73.5 217.45 73.75 217.1 73.75 216.85 73.75 216.45 73.5 216.3
M 94.35 212.65
Q 93.95 212.65 93.75 212.9 93.55 213.2 93.55 213.5 93.55 213.75 93.75 214.05 93.95 214.25 94.35 214.25 94.7 214.25 94.95 214.05 95.2 213.8 95.2 213.5 95.2 212.65 94.35 212.65
M 115.8 216.05
Q 115.45 216.05 115.2 216.3 115 216.5 115 216.85 115 217.05 115.2 217.45 115.45 217.7 115.8 217.7 116.1 217.7 116.35 217.45 116.55 217.2 116.55 216.85 116.55 216.45 116.35 216.3 116.1 216.05 115.8 216.05
M 121.8 215.35
Q 122.65 214.6 122.65 213.75
L 122.65 213.25 122.4 212.9
Q 122.1 212.55 121.7 212.55 121.35 212.55 121.05 212.7 120.75 212.95 120.75 213.25 120.95 213.25 121 213.4
L 121.1 213.75
Q 121.1 214.3 120.65 214.6 120.15 214.95 119.05 214.95 117.7 214.95 117.2 214.45 116.55 213.9 116.45 213.9
L 116.1 214
Q 116.2 213.95 116.2 213.65 116.2 213.15 115.95 212.9 115.55 213.15 114.75 213.15 113.75 213.15 112.85 212.7 111 211.95 109.25 211.95 108.45 211.95 108.3 212.05
L 107.9 211.95
Q 107.6 211.95 107.45 212.1
L 105.95 212.05 105.55 212.1
Q 105.25 212.2 105.25 212.55 104.45 212.3 103.15 212.3 100 212.3 98.1 214.1 96.2 215.95 96.05 218.3
L 94.85 218.3
Q 94.95 217 95.05 216.45
L 95.2 215.7 94.35 215.1 93.55 215.7 93.7 216.45 93.9 218.3 92.7 218.3
Q 92.55 215.95 90.65 214.1 88.8 212.3 85.55 212.3
L 83.5 212.45
Q 83.5 212.05 82.85 212.05
L 81.3 212.1 80.75 211.95 80.45 212.05
Q 80.3 211.95 79.5 211.95 77.85 211.95 75.9 212.7 75 213.15 74 213.15 73.2 213.15 72.8 212.9 72.55 213.1 72.55 213.65
L 72.55 214
Q 72.35 213.9 72.25 213.9 72.1 213.9 71.45 214.45 70.95 214.95 69.7 214.95 68.6 214.95 68.1 214.6 67.65 214.3 67.65 213.75 67.65 213.5 67.75 213.4 67.85 213.25 68 213.25 68 212.95 67.7 212.7 67.4 212.55 67.05 212.55 66.55 212.55 66.35 212.9 66.1 213.25 66.1 213.75 66.1 214.65 66.9 215.4 67.7 216.05 69.55 216.05 71.35 216.05 74.4 214.25 76.35 213.2 77.3 212.85 78.65 212.35 79.75 212.35
L 80 212.35
Q 77.2 213.1 75.8 215.1 74.35 217.15 74.35 219.25 74.35 220.45 74.8 221.2 75.25 222 76.05 222 76.6 222 76.8 221.7 77 221.3 77 221.05 77 220.6 76.75 220.6 76.75 220.8 76.5 220.8 76 220.8 75.6 220.25 75.3 219.65 75.3 219 75.3 218.25 75.5 218 75.8 217.65 76.2 217.45 76.65 217.15 76.65 216.75
L 76.65 216.4 77.15 216.6
Q 77.7 216.6 77.75 216.3 77.25 216 77.25 215.3 77.25 214.55 77.95 214.1 80.1 212.55 83 212.55
L 83.25 212.55
Q 81.25 213.1 80.1 214.4 78.85 215.8 78.35 217.5
L 78.05 219.15 77.95 221.15
Q 77.95 222.1 78.3 223.1 78.9 223.25 79.7 223.8
L 80.6 224.45
Q 82.05 225.5 84.1 225.5 86.3 225.5 87.4 224.15 88.6 222.9 88.6 221.05 88.6 219.6 87.9 218.65 89 218.65 89 217.85 89 217.45 88.75 217.45
L 88.6 217.45 88.6 217.6
Q 88.6 217.95 88.05 217.95 87.35 217.95 86.9 217.3 86.45 216.7 86.45 216 86.45 215.55 86.85 215.3 86.7 214.85 86.25 214.85 85.5 214.85 85.5 216
L 85.5 216.4
Q 85.25 216.45 85.1 216.8
L 84.9 217.1
Q 83.6 217.1 82.85 217.9 82.15 218.75 82.15 219.75 82.15 220.95 82.85 221.6 83.5 222.25 84.3 222.25 84.9 222.25 85.25 221.95 85.55 221.65 85.55 221.15 85.55 220.75 85.25 220.35 84.8 220 84.45 220 84 220 83.6 220.25 83.6 220.35 83.5 220.35 83.35 220.35 83.35 220.2
L 83.25 219.85
Q 83.25 219.3 83.7 218.75 84.1 218.3 84.9 218.3 86.3 218.3 86.9 219.05 87.55 219.85 87.55 221.05 87.55 222.35 86.6 223.35 85.65 224.4 84.1 224.4 81.9 224.4 80.6 222.9 79.3 221.35 79.3 219.35
L 79.3 219 79.55 219.05
Q 79.85 219.05 80.15 218.7
L 80.6 218.8 80.85 218.8 80.85 218.7
Q 80.6 218.2 80.6 217.7 80.6 216.6 81.15 215.6 81.8 214.55 82.55 214 84.15 213.4 85.55 213.4 88.35 213.4 89.95 214.85 91.55 216.35 91.75 218.3
L 91.3 218.3
Q 90.8 218.3 90.8 218.7 90.8 219.15 91.3 219.15
L 91.85 219.15 91.85 219.35
Q 91.85 220.25 91.6 220.9 91.3 221.6 90.9 221.65
L 91.3 221.75
Q 91.8 221.75 92.25 221.05 92.6 220.4 92.7 219.15
L 93.9 219.15
Q 93.9 221.45 93.15 222.5 92.35 223.55 91.3 223.55
L 91.05 223.55 91 223.95
Q 91 224.55 91.4 224.75 91.05 225 90.55 225 89.95 225 89.55 224.7 89.2 224.4 89.2 223.85 88.5 224.15 88.5 225 88.5 225.8 89.15 226.3 89.8 226.8 90.7 226.8 91.65 226.8 92.35 226.3 93.1 225.85 93.55 224.9 92.95 228.15 91.65 228.7 91.95 228.95 92.6 229.15 93.3 229.4 93.75 229.9 94.15 230.55 94.15 231.95
L 94.6 231.95
Q 94.6 230.55 95 229.9 95.45 229.35 96.15 229.15 96.75 228.95 97 228.7 95.6 228.1 95.2 224.9 96.05 226.8 97.95 226.8 98.8 226.8 99.55 226.3 100.25 225.75 100.25 225 100.25 224.15 99.55 223.85 99.55 224.4 99.2 224.7 98.75 225 98.2 225 97.75 225 97.35 224.75 97.75 224.5 97.75 223.95 97.75 223.65 97.65 223.55
L 97.35 223.55
Q 96.3 223.55 95.55 222.5 94.8 221.35 94.75 219.15
L 96.05 219.15
Q 96.05 220.35 96.45 221.05 96.9 221.75 97.4 221.75 97.65 221.75 97.75 221.65 97.45 221.6 97.15 220.9 96.9 220.25 96.9 219.35
L 96.9 219.15 97.4 219.15
Q 97.85 219.15 97.85 218.7 97.85 218.3 97.4 218.3
L 97 218.3
Q 97.3 215.8 99.1 214.6 100.85 213.4 103.1 213.4 104.75 213.4 106.15 214 107.05 214.55 107.6 215.65 108.05 216.65 108.05 217.6 108.05 218.4 107.9 218.7
L 107.9 218.8 108.15 218.8 108.55 218.7
Q 108.9 219.05 109.15 219.05
L 109.45 219 109.45 219.35
Q 109.45 221.35 108.15 222.9 106.9 224.4 104.65 224.4 103.05 224.4 102.15 223.35 101.2 222.35 101.2 220.95 101.2 219.8 101.9 219.05 102.6 218.3 103.75 218.3 104.55 218.3 105 218.75 105.5 219.25 105.5 219.85
L 105.4 220.2
Q 105.4 220.35 105.25 220.35 105.15 220.35 105.15 220.25 104.65 220 104.3 220 103.8 220 103.45 220.35 103.15 220.75 103.15 221.15 103.15 222.25 104.35 222.25 105.25 222.25 105.9 221.6 106.6 220.9 106.6 219.75 106.6 218.75 105.85 217.9 105.22265625 217.1279296875 103.85 217.1
L 103.6 216.7
Q 103.45 216.5 103.15 216.4 103.25 216.3 103.25 216 103.25 214.85 102.5 214.85 102.05 214.85 101.9 215.3 102.2 215.45 102.2 216 102.2 216.8 101.8 217.35 101.35 217.95 100.7 217.95 100.15 217.95 100.15 217.6
L 100.15 217.45 100 217.45
Q 99.65 217.45 99.65 217.85 99.65 218.25 100 218.4 100.35 218.65 100.75 218.65 100.1 219.5 100.1 220.95 100.1 222.75 101.3 224.15 102.5 225.5 104.65 225.5 106.8 225.5 108.15 224.45
L 109.05 223.85
Q 109.8 223.25 110.45 223.1 110.7 222.5 110.7 221.15 110.7 218.55 110.3 217.5 109.8 215.7 108.6 214.5 107.4 213.15 105.5 212.55
L 105.65 212.55
Q 108.5 212.55 110.8 214.1 111.5 214.55 111.5 215.3 111.5 215.95 111 216.3 111.15 216.6 111.6 216.6
L 112.1 216.4 112 216.75
Q 112 217.2 112.45 217.4
L 113.15 217.85
Q 113.45 218.15 113.45 218.9
L 113.45 219
Q 113.45 219.7 113.1 220.25 112.8 220.8 112.25 220.8 112 220.8 112 220.6 111.75 220.6 111.75 221.15 111.75 222 112.7 222 113.45 222 113.95 221.2 114.4 220.45 114.4 219.35 114.4 217.15 113 215.1 111.6 213.1 108.75 212.35
L 108.9 212.35
Q 110.1 212.35 111.35 212.85 112.1 213.15 114.25 214.25 115.7 215.1 117 215.6 118.15 216.05 119.2 216.05 120.85 216.05 121.8 215.35
M 93.75 222.7
Q 94 222.4 94.35 222.4 94.8 222.4 95 222.7 95.25 222.95 95.25 223.35 95.25 223.75 94.95 223.95 94.7 224.2 94.35 224.2 93.95 224.2 93.75 223.95 93.45 223.75 93.45 223.35 93.45 223 93.75 222.7 Z"/>
</g>
</defs>

<g transform="matrix( 1, 0, 0, 1, 0.65,3.05) ">
<g transform="matrix( 1, 0, 0, 1, 0,0) ">
<use xlink:href="#Symbol_1_0_Layer0_0_FILL"/>
</g>
</g>
</svg>
