
<svg xmlns="http://www.w3.org/2000/svg" version="1.1" xmlns:xlink="http://www.w3.org/1999/xlink" preserveAspectRatio="none" x="0px" y="0px" width="62px" height="74px" viewBox="0 0 62 74">
<defs>
<g id="Layer0_0_FILL">
<path fill="#000000" stroke="none" d="
M 52.45 54.6
Q 51.35 53.55 48.45 50.9 45.6 48.35 44.5 47.3 44.85 48.05 48.45 51.35 52.05 54.65 52.45 54.6
M 48.55 60.6
Q 48.5 60.5 48.4 60.5 48.25 60.45 48.2 60.45 48.2 60.5 48.15 60.65 48.15 60.8 48.2 60.85 48.4 61.15 49 61.75
L 49.1 61.8
Q 49.15 61.8 49.3 61.85 49.3 61.8 49.3 61.6 49.35 61.5 49.3 61.45 48.95 61 48.55 60.6
M 44.3 57.3
Q 44.2 57.75 44.45 58.15 44.7 58.5 45.15 58.55
L 44.3 57.3
M 43.95 53.95
L 43.8 54.05
Q 44 54.25 45.05 56.1 45.9 57.5 46.45 58
L 46.65 57.9
Q 44.65 55 43.95 53.95
M 44.2 51.7
L 44 51.85
Q 44.6 52.65 46.2 54.7 47.7 56.65 48.4 57.55
L 48.6 57.35
Q 47.95 56.5 46.4 54.55 44.8 52.5 44.2 51.7
M 52.95 55.35
L 54 56.2
Q 53.8 55.65 53.6 55.45 53.4 55.3 52.95 55.35
M 17.75 52
Q 14.2 56.85 13.85 57.35 14.4 57.2 18 52.25 21.6 47.35 21.65 46.7 20.25 48.55 17.75 52
M 10.4 56.8
L 11.1 55.95
Q 10.6 55.95 10.4 56.2 10.25 56.4 10.4 56.8
M 12.35 59.85
L 12.75 58.6
Q 11.9 59.2 11.7 59.65 11.45 60.05 11.75 60.4
L 12.5 59.9 12.35 59.85
M 12.7 54.45
Q 12.85 54.3 12.7 53.9
L 12.05 54.55
Q 12.6 54.6 12.7 54.45
M 10.7 51.75
L 10.6 51.6 9.8 52.2 9.95 52.4
Q 10.65 52.35 10.7 51.75
M 11.6 50.85
L 10.9 51.4 11.1 51.65 11.8 51.1 11.6 50.85
M 22.3 66.85
Q 22.15 67.4 22.4 67.8
L 22.9 65.95
Q 22.45 66.3 22.3 66.85
M 27.35 63.05
L 27.1 64.25 27.4 64.3 27.6 63.1 27.35 63.05
M 26.7 54.5
Q 26.4 54.7 24.6 59.85 22.85 65 22.95 65.4
L 23.1 65.45
Q 25.7 57.65 26.7 54.5
M 28.6 58.95
Q 28.25 59.15 27.85 60.7 27.45 62.3 27.65 62.75 27.7 62.4 28.1 60.9 28.5 59.35 28.6 58.95
M 27.7 56.95
L 27.35 56.85
Q 27.05 58.1 26.15 61.4 25.25 64.65 24.95 65.9
L 25.2 66
Q 25.5 64.8 26.45 61.45 27.35 58.25 27.7 56.95
M 25.25 52.05
Q 24.9 52.85 24.85 53 24.55 53.8 23.4 57 22.9 58.35 21.85 61.05 21.4 62.2 20.45 64.45 20.35 64.7 20.2 65.1 20.15 65.35 20.05 65.8 20.55 65.55 22.95 59.1 25.35 52.75 25.25 52.05
M 24.05 50.15
L 23.8 50.05
Q 22.35 52.9 20.6 56.5 19.65 58.55 17.5 62.95
L 17.75 63.1
Q 18.05 62.75 18.15 62.55 19.15 60.45 20.75 57.45 22.3 54.55 23.4 52.4 23.5 52.2 24.05 50.15
M 23.05 48.3
L 22.85 48.15
Q 22.35 48.8 22.2 49.1 21.95 49.5 20.05 52.65 18.65 55.05 18 56.2 17.4 57.25 17.05 57.95 16.6 58.75 16.15 59.65 16.05 59.85 15.95 60.25
L 16.15 60.35
Q 17.25 58.15 19.6 54.35 21.95 50.6 23.05 48.3
M 20.4 46.2
Q 20.75 45.15 20.8 45.1
L 20.6 44.95
Q 17.95 47.75 12.95 53.7
L 13.1 53.85 13.2 53.8 17.45 49.85
Q 18.4 48.9 19.95 47.25 20.05 47.15 20.4 46.2
M 13.75 42.15
Q 17.5 41.2 17.75 40.65 16.4 41.1 13.6 41.7 10.85 42.3 9.5 42.75 10.05 43.05 13.75 42.15
M 19.4 45.1
Q 18.7 45.5 18.55 45.6
L 12.2 50.4
Q 12.05 50.5 11.8 50.9 12.45 50.85 15.85 48.25 19.3 45.65 19.4 45.1
M 11.1 48.25
Q 12.35 47.5 15 46.05 17.3 44.7 18.8 43.45 18.2 43.45 14.7 45.65 11.25 47.8 11.1 48.25
M 9.75 48.75
L 8.7 49.4
Q 9.15 49.55 9.4 49.4 9.65 49.25 9.75 48.75
M 10 45.3
L 10.05 45.5
Q 10.55 45.4 10.6 45.4 13.05 44.45 14 44.05 15.75 43.3 17.7 42.45 17.85 42.4 18 42.25 18.1 42.15 18.25 42
L 18.15 41.8 10 45.3
M 3.7 38.15
Q 3.45 38.15 3.15 38.45 3.55 38.7 3.8 38.7 4.1 38.7 4.35 38.35 3.95 38.15 3.7 38.15
M 7.55 40.6
L 7.6 40.8
Q 8.1 40.95 12.7 40.35 17.3 39.7 17.7 39.35
L 17.45 39.25
Q 17.35 39.2 17.3 39.2 15.8 39.5 12.4 39.9 9.05 40.3 7.55 40.6
M 9.45 43.1
L 9.35 42.85
Q 8.7 43 8.55 43.05
L 8.6 43.35 9.45 43.1
M 6.3 38.4
Q 6.4 38.5 6.45 38.5 7.9 38.45 8.65 38.35 9.8 38.25 12.65 38.25 15.45 38.2 16.7 38.1
L 17.15 37.95 17.15 37.75
Q 16.75 37.7 16.7 37.7 16.2 37.75 14.85 37.7 13.45 37.6 13 37.6 11.75 37.7 9.7 37.85 7.3 37.95 6.45 38.05 6.35 38.05 6.3 38.1 6.15 38.2 6.1 38.25 6.15 38.25 6.3 38.4
M 5.65 38.4
L 5.6 38.15 4.6 38.2 4.6 38.45
Q 5.2 38.8 5.65 38.4
M 7.2 35.3
L 6.3 35.2 6.25 35.5 7.2 35.6 7.2 35.3
M 5.05 35.1
L 2.85 34.85
Q 3.25 35.25 3.85 35.35 4.55 35.4 5.05 35.1
M 3.75 29.95
Q 3.55 29.6 3.3 29.5 3.05 29.45 2.65 29.55 2.85 29.9 3.1 30 3.35 30.05 3.75 29.95
M 3.95 27.4
L 3.95 27.05
Q 2.85 26.65 2.25 26.45
L 2.15 26.45 2.1 26.55
Q 2.1 26.85 2.2 26.85 2.75 27.05 3.95 27.4
M 12.15 36.2
Q 14.7 36.45 16.7 36.55 16.45 36.25 12.2 35.8 7.9 35.35 7.55 35.6 9.7 35.95 12.15 36.2
M 11.95 32.35
Q 15.75 33.45 16.4 33.3 16.25 33.05 12.35 31.95 8.5 30.85 7.95 30.9 8.15 31.3 11.95 32.35
M 16.55 35
L 16.55 34.8
Q 15.25 34.6 12.25 34.05 9.25 33.45 7.95 33.25
L 7.9 33.6
Q 9.05 33.7 12.2 34.4 15.1 35 16.55 35
M 14 30.65
Q 11.65 29.5 10.8 29.25 9 28.65 8.1 28.35 8.05 28.3 7.95 28.35
L 7.7 28.4
Q 8.5 29.05 12.6 30.65 16.8 32.3 17.3 32 16.35 31.7 14 30.65
M 17.2 30.5
Q 17.05 30.2 16.8 30.1 16.3 29.85 14.65 28.9 13 27.9 12.55 27.7 9.7 26.4 8.3 25.75 8.15 25.7 7.05 25.3
L 6.95 25.5
Q 7.9 25.9 12.05 28.15 15.4 29.95 17.2 30.5
M 8.95 13.8
L 8.85 13.95
Q 11.1 16.5 14.6 19.95 17.95 23.25 20.7 25.6
L 20.9 25.4 8.95 13.8
M 8.05 20.05
L 7.95 20.2
Q 8.3 20.7 13.05 24 17.85 27.35 18.45 27.4 16.95 26.35 13.25 23.7 9.6 21.1 8.05 20.05
M 7.95 23.05
Q 7.85 23 7.7 22.95 7.35 22.9 7.3 22.85 7.65 23.35 12.4 26.15 17.2 28.95 17.75 28.9 17.7 28.85 16.8 28.05 15.95 27.35 15.8 27.25 15.7 27.2 15.5 27.15 15.25 27.05 15.15 27
L 7.95 23.05
M 8.75 17.35
L 8.55 17.55
Q 10.1 18.85 14.15 22.3 17.9 25.45 19.85 26.95
L 20.05 26.7
Q 18.45 25.45 14.4 22 10.3 18.55 8.75 17.35
M 22 15.25
Q 24.8578125 20.2390625 25.4 21.3 25.291015625 20.65234375 22.4 15.15 19.3 9.25 18.9 8.95 19.65 11.1 22 15.25
M 26.45 19.8
Q 26.55 19.35 26.5 19.25 25.8 17.4 23.95 13.25 22.05 9 21.35 7.15 21.15 7.95 23.45 13.6 25.7 19.15 26.45 19.8
M 22.35 24.45
Q 22.3 24.25 22.2 24.15 21.7 23.6 19.65 21.3 17.6 18.95 17.1 18.4 16.9 18.15 16.5 17.6 16.1 17.05 15.9 16.75 14.25 14.8 12.6 12.8 12.5 12.75 12.35 12.65 12.15 12.55 12.05 12.45
L 12.15 12.8
Q 12.2 12.95 12.3 13.05 13.3 14.3 15.3 16.7 15.75 17.25 16.8 18.6 17.75 19.8 18.3 20.45 18.85 21.15 22.25 24.9
L 22.5 24.75
Q 22.4 24.55 22.35 24.45
M 23.45 23.6
L 23.6 23.5
Q 22.45 21.8 19.05 17.15 15.6 12.5 14.45 10.8
L 14.2 10.95
Q 15.85 13.55 18.65 17.4 21.45 21.15 23.45 23.6
M 24.9 22.9
Q 24.9 22.7 24.9 22.6 24.9 22.5 24.85 22.4 23.85 20.65 20.75 15.9 17.64921875 11.22421875 16.6 9.45 16.6982421875 10.290625 20.4 16.3 24.3 22.5 24.9 22.9
M 28.95 5.7
Q 29.15 7.45 29.35 11.9 29.55 16.05 29.8 18.05
L 30.1 18.05
Q 30.05 16.05 30 15.5
L 29.45 6.45
Q 29.4 6.3 29.35 6.05 29.25 5.8 29.2 5.65
L 28.95 5.7
M 23.3 5.75
Q 23.25 6.6 24.8 11.85 26.35 17.1 26.8 17.35
L 23.55 5.7 23.3 5.75
M 25.7 3.45
Q 26.3 7.55 26.7 9.95 27.3 13.5 28.05 16.35
L 28.35 16.3
Q 27.4 10.65 25.7 3.45
M 34.5 6.05
L 34.25 6.05
Q 34.05 7.9 33.45 13.25 32.9 18.4 32.7 20.45 32.7 20.5 32.75 20.6 32.75 20.65 32.85 20.8
L 33 20.75
Q 33.15 18.85 33.75 13.4 34.3 8.15 34.5 6.05
M 32.2 7.45
L 32 7.45
Q 31.75 10.35 31.55 14 31.35 18.1 31.35 20.55
L 31.55 20.55
Q 31.6 18.8 31.9 14 32.2 9.2 32.2 7.45
M 36.55 6.95
L 36.25 6.9
Q 36 8.8 35.15 13.8 34.3 18.75 34 20.65
L 34.3 20.7
Q 34.6 18.75 35.4 13.85 36.3 8.75 36.55 6.95
M 38.4 7.55
L 37.55 11.4
Q 35.9 19.1 35.75 19.9 35.7 20.15 35.65 20.5 35.65 20.7 35.65 21.05
L 35.85 21.1 38.75 7.25 38.5 7.25
Q 38.5 7.35 38.4 7.55
M 58.55 47.3
L 60.05 47.85
Q 60 47 58.55 47.3
M 60 39.45
L 58.8 39.5
Q 59.35 39.85 59.6 39.85 59.8 39.85 60 39.45
M 45.5 43.9
Q 47.05 44.65 50.6 46.85 53.8 48.8 55.75 49.7
L 55.85 49.5 45.65 43.65 45.5 43.9
M 45.55 45.6
L 45.4 45.75 53.3 51.75 53.5 51.5
Q 50.5 49.15 45.55 45.6
M 43.95 49.2
L 43.85 49.3
Q 43.95 49.4 44.45 50 44.9 50.6 45.05 50.75 45.85 51.7 47.45 53.35 49.1 55.1 49.85 55.95 50 56.15 50.4 56.3
L 50.5 56.15
Q 49.55 55.05 47.25 52.7 44.9 50.25 43.95 49.2
M 49.55 43.2
Q 48.6 42.8 46 41.75
L 45.95 41.95
Q 46.75 42.3 50.9 44.15 53.9 45.45 55.9 46.1 53.6 44.95 49.55 43.2
M 46.3 37.7
L 46.25 37.9 56.05 39.25 56.1 38.95 46.3 37.7
M 46.1 39.7
L 46.05 39.95 56.5 43 56.6 42.7
Q 55.1 42.3 51.35 41.2 48.05 40.15 46.1 39.7
M 26 50.3
Q 26.0880859375 50.623046875 26.3 51 26.4435546875 51.3197265625 26.65 51.65 27.25 52.6 27.4 52.95 27.95 54.15 29.05 56.55 29.16640625 56.7830078125 29.25 56.9 29.277734375 56.927734375 29.3 56.95 29.5 57.1 29.75 56.9 30.05 56.75 29.95 56.55 29.75 56.3 29.7 56.2 29.25 55.3 29 54.85 28.6 54.05 28.2 53.55 27.55 52.4 27.25 51.85 26.65 50.8 26 50.3
M 24.45 25.15
Q 24.7 25.05 25.2 24.85 24.8943359375 24.80625 24.6 24.85 24.2162109375 24.946484375 23.85 25.2 23.15 25.75 22.8 26 22.8484375 25.990234375 22.9 25.95 23.1275390625 25.9208984375 23.45 25.8 23.85 25.7 24.15 25.9 24 25.35 24.45 25.15
M 20.2 41.65
Q 19.8 40.85 19.55 40.75 19.55 40.882421875 19.55 41 19.6427734375 41.408984375 19.9 41.85 20.1 42.2 20.5 42.8 21.9041015625 45.6458984375 24.3 48.45 25.0822265625 49.3580078125 25.95 50.25 25.95 49.3 25.55 48.4 25.1 47.5 24.75 47.7 24.65 47.85 24.8 47.95 24.95 48.15 24.95 48.25 24.5 48.15 24.15 47.65 23.65 46.9 23.55 46.8 23.3 46.6 23 45.9 22.7 45.25 22.35 45.05 22.15 44.9 21.95 44.05 21.8 43.4 21.1 43.5
L 21.15 43.35
Q 21.65 43.1 21.15 42.75 20.7 42.4 21.1 42.15 20.5 42.25 20.2 41.65
M 18.35 33.95
Q 18.334375 34.3763671875 18.35 34.8 18.35 35.85 18.7 37.25 19.05 35.6 19.15 34.8 19.35 33.3 18.65 32.3 18.409765625 33.0890625 18.35 33.95
M 20.2 28.35
Q 19.7802734375 29.03671875 19.45 29.5 19.3830078125 29.6314453125 19.3 29.75 19.3416015625 29.742578125 19.35 29.7 20.1744140625 29.56328125 20.65 28.85 21.3 27.75 21.45 27.65 20.65 27.7 20.2 28.35
M 28.45 18.35
Q 28.35 18.3 28.15 18.3 27.95 18.35 27.9 18.5 27.7 18.6 27.7 18.9 27.7 18.95 27.7 19.4 27.7 19.75 27.75 19.95 27.95 21.2 27.5 22.35 27.05 23.5 26.3 23.8 25.9 24 25.7 24.2 25.6076171875 24.26171875 25.5 24.35 25.3537109375 24.5078125 25.25 24.75 25.55 24.95 25.9 24.8 26.35 24.6 26.45 24.6 27.1 24.55 27.3 24.3 27.5 24.1 27.25 23.55
L 27.4 23.45
Q 27.65 23.15 27.8 22.75 28.6 21.7 28.3 20.25 28.2 19.8 28.15 19.55 28.2 19.15 28.3 18.95
L 28.3 18.9
Q 28.4 18.85 28.75 20.3 29.15 21.75 29.25 21.85 29.4 21.95 29.8 22.3 30.1 22.6 29.8 22.95 29.55 23.2 29.6 23.35 29.65 23.4 29.95 23.5 31 24.05 32.4 23.65 33.05 23.45 33.85 23.7 34.3 23.8 35.2 24.1 35.25 23.75 35.65 23.6 35.9 23.5 36.5 23.3 36.396875 23.2484375 36.3 23.2 35.558203125 22.8935546875 34.6 22.85 33.4 22.95 32.8 22.9 31.8 22.85 31 22.5 30.1 22.1 29.7 21.35 29.45 20.95 29.3 20.25 29.1 19.45 28.95 19.15 28.85 18.85 28.75 18.7 28.65 18.45 28.45 18.35
M 19.9 39.6
Q 19.8 39.5 19.7 39.1 19.65 38.75 19.35 38.9 19.1 38.95 19 39.25 18.95 39.55 19.1 39.85 19.15 39.9 19.2 40.15 19.3 40.35 19.4 40.2 19.4 40.15 19.8 40 20.05 39.85 19.9 39.6
M 41.75 27.2
Q 42.7 28.35 43.4 29.6 43.5 29.9 43.8 30.9 44.05 31.7 44.25 32.15 44.4921875 32.6748046875 44.55 32.95 44.5857421875 33.037890625 44.6 33.1
L 44.6 33.2
Q 44.662109375 33.6826171875 44.35 33.95 44 34.3 44 34.75 44 35.05 44.15 35.4 44.4 36 44.4 36.65 44.35 37.2 44.1 37.85
L 44.15 38.2 44.65 37.55
Q 44.6 39.5 43.9 41.7 43.05 44.25 42.7 45.65 42.15 47.85 42.15 49.75 42.1 51.65 42.15 55.45 42.15 56 41.75 56.15 40.8 56.55 40.3 56.65 39.45 56.85 38.9 56.65 38.6 56.6 38.75 55.85 38.95 55 38.95 54.65 39 53.95 38.95 53.45 38.85 52.95 38.45 52.8 37.75 52.5 37.55 51.95 37.4 51.4 37.8 50.75 38.05 50.35 38.1 50.2 38.2 49.9 38.1 49.75 37.6 49 37.8 47.95 38.15 46.8 38.15 46.25 38.25 45 38.8 41.75 39.3 38.9 39.25 37.2 39.2 34.35 38.2 32.5 37.65 31.45 36.8 31.45 35.95 31.4 35.25 32.4 35.15 32.55 35 33.1 34.8 33.55 34.55 33.8 34.05 33.15 33.75 32.85 33.25 32.4 32.65 32.45 32.1 32.55 31.75 33.15 31.55 33.45 31.25 34.2 30.45 33.5 30.4 33.45 29.9 33.1 29.35 33.3 28.7 33.45 28.4 34 28.2 34.45 28.05 35.2
L 27.1 34.4
Q 26.6 33.95 26 33.95 25.1 33.95 24.65 34.6 24.15 35.25 24.35 36.35 24.95 40.3 27.1 43.45 27.85 44.55 29.3 46.7 30.6 48.6 31.4 50 31.5 50.2 31.65 51.05 31.8 51.75 32.2 51.95 32.6 52.2 32.85 52.7 33.25 53.55 33.25 53.6 33.45 53.85 33.25 54.05 32.7 54.6 32.65 54.8 32.6 55 32.9 55.6 33.65 57.45 33.45 57.75 33.25 58.1 31.3 58.4 30.65 58.45 30.5 58.4 30.2 58.25 30.4 57.65 30.45 57.55 30.4 57.4 30.3 57.2 30.25 57.1 30.1 57.2 30 57.25 29.85 57.3 29.75 57.35 29.4 57.35 29.65 57.75 29.7037109375 57.8380859375 29.75 57.9 30.229296875 58.7869140625 30.5 60.05 30.65 60.8 30.95 62.4 31.05 62.8 31.05 62.85 31.15 63.1 31.3 63.15 32.15 63.55 32.45 64.5 32.65 65.05 32.85 66.25 33.05 66.85 32.95 67.1 32.8 67.45 32.15 67.5 31.85 67.5 31.75 67.7 31.6 67.85 31.7 68.2 31.8 68.65 31.9 68.75 32.1 69.05 32.45 68.95 33.05 68.7 33.3 69 33.45 69.2 33.45 69.8 33.45 70.35 33.65 70.5 33.9 70.7 34.45 70.6 35.9 70.3 38.75 69.65 41.3 69.15 43.1 68.95 43.7 68.9 43.9 68.7 44.25 68.4 43.8 67.75 43.45 67.3 43.55 66.95 43.65 66.55 44.4 66.6 44.85 66.6 45 66.35 45.1 66.1 45 65.7 44.85 65.05 44.85 65 44.65 64.7 44.15 64.9 43.5 65.1 43.2 64.85 43 64.6 42.95 63.95 42.95 63.7 42.8 62.85 42.65 62.1 42.65 61.85 42.75 61.35 43.3 61.05 43.5 60.95 43.5 60.8 43.55 60.65 43.45 60.4 42.65 57.45 42.55 54.2 42.5 50.75 42.8 48.15 43.15 44.95 44.15 42.3 44.6 41 44.9 39.3 45 38.6 45.25 36.3 45.4 34.75 44.95 32.85 44.7 31.9 43.85 29.55 43.65 28.9 43.2 28.3 42.7 27.2 41.9 26.3 40.05 24.35 37.55 23.35 37.15 23.25 37.1 23.25 36.89375 23.215625 36.8 23.3 36.765625 23.3375 36.75 23.4 36.65 23.7 36.95 23.8 37.1 23.85 37.4 23.95 37.55 24 37.9 24.1 38.15 24.2 38.2 24.55 38.15 24.55 38 24.55
L 37.8 24.55
Q 37.75 24.55 36.5 24.1 35.75 23.85 35.2 24.1 36.2 24.45 38.6 25.05 40.65 25.75 41.75 27.2
M 32.05 33.5
Q 32.25 32.95 32.85 32.95 33.35 32.9 33.9 33.65 34.5 34.4 34.45 35.05 34.25 37.05 34.65 39.75 34.8 40.75 34.9 41 35.15 41.65 35.8 41.55 36.45 41.5 36.5 40.8 36.45 39.9 36.4 39.5 36.4 39.2 36.3 38.7 36.15 38.15 36.1 37.9 36 37.1 35.9 36.7 35.75 36 35.45 35.6 34.85 34.8 35.1 33.9 35.2 33.5 35.8 32.4 36.1 31.85 36.6 31.85 37.1 31.8 37.5 32.35 38.25 33.2 38.55 34.45 38.7 35.15 38.8 36.8 38.9 38.6 38.55 41 38.35 42.4 37.85 45.2 37.8 45.3 37.55 47.6 37.4 49 37.05 49.95 36.95 50.25 37.05 50.95 37.2 51.8 37.15 52.1 37.15 52.65 37.1 52.7 37.05 53 36.8 53.2 36.4 53.6 36.05 53.55 35.8 53.55 35.7 53.35 35.65 53.05 35.6 52.9 33.8 44.55 33.3 42.4 33.2 42.1 33.35 41.75 33.55 41.3 33.6 41.15 33.7 40.25 33.4 39.15 32.95 37.85 32.75 37.2 32.65 36.8 32.4 36.25 32.05 35.65 31.9 35.3 31.75 35 31.7 34.9 31.65 34.7 31.7 34.5 31.9 33.8 32.05 33.5
M 30.9 34.45
Q 31.25 34.9 31.2 35.55 31.05 37.8 31.05 38.3 31.05 39.85 31.55 41 31.6 41.1 31.65 41.3 31.75 41.5 31.85 41.55 32.65 42 32.9 42.9 33.05 43.45 33.2 44.6
L 35.05 52.75
Q 35.05 52.9 35.2 53.3 35.2 53.6 34.75 53.7 34.35 53.8 34.1 53.75 33.75 53.65 33.6 53.25 33.35 52.7 33.2 52.45 32.95 52 33.05 51.6 33.1 51.4 32.95 51.2 32.75 50.95 32.7 50.85 32.35 50.3 29.8 46.7 28.05 44.2 27 42.55 26.15 41.25 25.55 39.5 25.15 38.35 24.7 36.25 24.55 35.75 24.7 35.25 24.85 34.7 25.4 34.45 25.9 34.2 26.45 34.4 26.9 34.55 27.25 35 29.6 38 30.3 41.2 30.35 41.5 30.3 41.65 30.25 41.9 30.05 42 29.8 42.1 29.6 41.95 29.55 41.9 29.35 41.6 28.75 40.8 28.55 39.6 28.45 39.15 28.3 37.5 28.3 37.25 28.25 37.1 28.2 36.85 28 36.6 27.95 38.6 28.1 39.5 28.35 41 29.25 42.05 29.5 42.35 29.65 42.4 29.9 42.55 30.15 42.45 30.75 42.15 30.65 41.4 30.35 39.6 29.55 38 29.05 37 28.55 36.15 28.2 35.6 28.4 35 28.5 34.65 28.9 34 29.1 33.7 29.4 33.6 29.7 33.55 30.05 33.8 30.7 34.25 30.9 34.45
M 33.1 39.5
Q 33.15 39.8 33.15 40.1 33.15 40.15 33.15 40.7 33.1 41.4 32.55 41.55 32.25 41.6 32.1 41.35 31.95 41.05 31.9 40.9 31.45 39.7 31.4 38.3 31.4 37.1 31.65 35.6 32.25 36.8 32.5 37.5 32.95 38.6 33.1 39.5
M 35.75 41.15
Q 34.95 40.1 34.85 38.6 34.85 36.75 34.85 35.85 36.4 38.55 35.75 41.15
M 35.45 54.6
L 35.6 54.75
Q 35.8 55.1 35.6 55.3 35.5 55.45 35.15 55.65 35.3 55.9 35.5 55.9
L 35.8 55.9
Q 36.3 56.05 36.5 55.8 36.7 55.5 36.55 55 36.45 54.8 36.45 54.75 36.4 54.6 36.55 54.55 36.85 54.4 36.95 54.4 37.15 54.45 37.15 54.6 37.15 54.65 37.15 54.85 37.1 55 37.05 55.3 37 55.6 37.05 55.8 37.25 56.75 36.9 57.15 36.55 57.55 35.55 57.5 35 57.5 35.05 56.95 35.1 56 34.55 55.4 34.45 55.15 34.9 55.15 35.25 55.15 35 54.75
L 35.1 54.65
Q 35.2 54.6 35.25 54.55 35.35 54.5 35.45 54.6
M 33.9 58.3
Q 34.1326171875 58.090625 34.8 57.95 35.2029296875 57.8794921875 35.7 57.8 36.279296875 57.777734375 37 57.75 36.8 58 36.35 58.15 35.85 58.2 35.65 58.3 35.05 58.5 34.9 58.85 34.75 59.15 34.85 59.75 34.95 60.15 35.25 60.9 35.35 61.6 34.95 62.1 34.9 62.1 34.75 62.2
L 34.2 59.45
Q 34 59.95 34.1 60.5 34.2 60.8 34.35 61.35 34.35 61.55 34.5 62 34.55 62.4 34.2 62.5 33.85 62.55 33.7 62.2 33.6 61.7 33.5 61.55 33.4 61.2 33.35 60.75 33.25 60.2 33.2 59.95
L 32.95 59.95 33.1 61.15
Q 32.9 60.5 32.85 60.15 32.7 59.55 33.05 59.1
L 31.45 58.95
Q 32.65 58.35 32.95 58.6 33.2 58.8 33.6 60.75
L 33.7 60.65
Q 33.45 58.75 33.9 58.3
M 35.7 65.15
Q 35.7 65.4 35.8 65.95 35.9 66.35 36.05 67.25 36.2 68.1 36.3 68.5 36.5 69.2 36.25 69.55 36 69.9 35.3 69.95 35.2 69.95 34.35 70.15 34.55 69.95 35.2 69.75 35.7 69.6 35.65 69.35 35.65 68.45 35.6 68 35.6 67.25 35.3 66.75 35.15 66.5 35.15 66.45 35.05 66.3 35.1 66.15 35.05 65.6 35 65.35 35 64.85 35.3 64.8 35.6 64.7 35.7 65.15
M 37.9 69.4
Q 37.55 69.5 37.4 69.55 37.1 69.6 37 69.45 36.8 69.25 37 68.95 37.25 68.6 37.25 68.45 37.45 69.15 38.1 69.05 39 69 39.2 69.15 38.3 69.35 37.9 69.4
M 47.35 28.65
Q 47.05 28.75 46.2 29.15 45.35 29.55 45.05 29.65
L 45.15 29.9
Q 45.7 29.6 47.35 28.65
M 51.55 31.7
Q 56.45 30.65 56.65 30.4
L 46.05 32.55 46.1 32.7
Q 46.6 32.8 51.55 31.7
M 51.8 29.4
Q 56.3 28 56.55 27.55
L 50.1 29.55
Q 47.7 30.25 46.5 30.6 46.35 30.65 46.15 30.8 45.85 30.95 45.8 31 47.35 30.85 51.8 29.4
M 55.85 36.6
L 55.85 36.4
Q 51.75 36 46.45 36
L 46.45 36.2 55.85 36.6
M 56.35 33.7
L 56.35 33.35
Q 55.45 33.45 51.2 33.7 48.05 33.95 46.1 34.2
L 46.1 34.55 56.35 33.7
M 57.4 33.7
Q 57.75 33.7 57.95 33.35 57.6 33.1 57.35 33.15 57.1 33.15 56.8 33.45 57.2 33.7 57.4 33.7
M 58.25 33.2
L 58.25 33.45
Q 58.9 33.8 59.3 33.35
L 59.25 33.1 58.25 33.2
M 53.25 15.15
Q 51.7 16.7 48.1 20.45 44.6 24.1 42.95 25.7 43.55 25.65 48.35 20.7 53.15 15.75 53.25 15.15
M 54.4 18.9
L 54.3 18.75
Q 47.15 24.25 44 26.7
L 44.15 26.9
Q 45.75 25.7 49.35 23 52.55 20.6 54.4 18.9
M 56.5 24.5
L 56.4 24.3
Q 55.3 24.7 54.75 24.95 50.85 26.75 49.3 27.5 48.9 27.7 48.35 28.05 47.75 28.45 47.45 28.6
L 48.6 28.2
Q 49.35 27.9 49.8 27.7 51.8 26.85 54.35 25.6 54.9 25.35 56.5 24.5
M 55.4 21.4
L 55.3 21.2
Q 47.85 26.1 44.55 28.3
L 44.65 28.5
Q 51.05 24.65 55.4 21.4
M 42.35 24.05
Q 45.65 20.15 47 18.5 49.8 15.1 51.45 12.8 48.4 16.4 46.75 18.3 43.85 21.8 42.35 24.05
M 49.65 9.6
Q 49.3 10.2 49.1 10.5 43.4 18.95 41 22.6 40.95 22.7 40.95 22.8 40.95 22.9 40.95 23 40.95 23.05 40.9 23.1 40.85 23.15 40.9 23.15 43.6 19.1 49.9 9.8
L 49.65 9.6
M 42.3 6
Q 41.95 5.95 41.9 6.05 41.2 8.25 39.5 13.85 37.75 19.45 37.05 21.6
L 37.3 21.7
Q 38.05 19.5 39.8 13.85 41.55 8.2 42.3 6
M 45.4 5.9
L 45.1 5.75
Q 44.1 8.1 41.85 13.9 39.55 19.75 38.55 22.1
L 38.85 22.2
Q 39.85 19.9 42.1 14.05 44.4 8.2 45.4 5.9
M 40.05 22.65
L 40.35 22.8
Q 40.5 22.55 41.05 20.85 40.45 21.95 40.05 22.65
M 43.6 15.7
Q 43.9 15.15 44.15 14.65
L 41.8 18.65
Q 41.65 18.95 41.05 20.75 41.05 20.8 41.05 20.85 42.05 18.9 43.6 15.7
M 47.35 8.85
L 47.2 8.75
Q 46.2 10.45 44.15 14.65
L 47.05 9.6
Q 47.1 9.55 47.35 8.85
M 53.1 10.8
Q 52.65 10.85 52.3 11.35 51.9 11.8 51.85 12.4
L 53.1 10.8 Z"/>

<path fill="#FFFFFF" stroke="none" d="
M 36.5 23.3
Q 35.9 23.5 35.65 23.6 35.25 23.75 35.2 24.1 35.75 23.85 36.5 24.1 37.75 24.55 37.8 24.55
L 38 24.55
Q 38.15 24.55 38.2 24.55 38.15 24.2 37.9 24.1 37.55 24 37.4 23.95 37.1 23.85 36.95 23.8 36.65 23.7 36.75 23.4 36.765625 23.3375 36.8 23.3 36.5591796875 23.2484375 36.3 23.2 36.396875 23.2484375 36.5 23.3
M 43.4 29.6
Q 42.7 28.35 41.75 27.2 40.65 25.75 38.6 25.05 36.2 24.45 35.2 24.1 34.3 23.8 33.85 23.7 33.05 23.45 32.4 23.65 31 24.05 29.95 23.5 29.65 23.4 29.6 23.35 29.55 23.2 29.8 22.95 30.1 22.6 29.8 22.3 29.4 21.95 29.25 21.85 29.15 21.75 28.75 20.3 28.4 18.85 28.3 18.9
L 28.3 18.95
Q 28.2 19.15 28.15 19.55 28.2 19.8 28.3 20.25 28.6 21.7 27.8 22.75 27.65 23.15 27.4 23.45
L 27.25 23.55
Q 27.5 24.1 27.3 24.3 27.1 24.55 26.45 24.6 26.35 24.6 25.9 24.8 25.55 24.95 25.25 24.75 25.3537109375 24.5078125 25.5 24.35 24.9982421875 24.6396484375 24.6 24.85 24.8943359375 24.80625 25.2 24.85 24.7 25.05 24.45 25.15 24 25.35 24.15 25.9 23.85 25.7 23.45 25.8 23.1275390625 25.9208984375 22.9 25.95 21.921875 26.71875 21.8 26.8 20.8 27.6 20.6 27.85 20.15 28.3 19.75 28.95 19.6125 29.1935546875 19.45 29.5 19.7802734375 29.03671875 20.2 28.35 20.65 27.7 21.45 27.65 21.3 27.75 20.65 28.85 20.1744140625 29.56328125 19.35 29.7 18.984375 30.7373046875 18.65 32.3 19.35 33.3 19.15 34.8 19.05 35.6 18.7 37.25 18.35 35.85 18.35 34.8 18.334375 34.3763671875 18.35 33.95 17.9212890625 37.525390625 19.3 40.45 19.43515625 40.7373046875 19.55 41 19.55 40.882421875 19.55 40.75 19.8 40.85 20.2 41.65 20.5 42.25 21.1 42.15 20.7 42.4 21.15 42.75 21.65 43.1 21.15 43.35
L 21.1 43.5
Q 21.8 43.4 21.95 44.05 22.15 44.9 22.35 45.05 22.7 45.25 23 45.9 23.3 46.6 23.55 46.8 23.65 46.9 24.15 47.65 24.5 48.15 24.95 48.25 24.95 48.15 24.8 47.95 24.65 47.85 24.75 47.7 25.1 47.5 25.55 48.4 25.95 49.3 25.95 50.25 25.0822265625 49.3580078125 24.3 48.45 25.103515625 49.498828125 26.05 50.7 26.1697265625 50.8513671875 26.3 51 26.0880859375 50.623046875 26 50.3 26.65 50.8 27.25 51.85 27.55 52.4 28.2 53.55 28.6 54.05 29 54.85 29.25 55.3 29.7 56.2 29.75 56.3 29.95 56.55 30.05 56.75 29.75 56.9 29.5 57.1 29.3 56.95 29.277734375 56.927734375 29.25 56.9 29.4603515625 57.384375 29.65 57.85
L 29.75 57.9
Q 29.7037109375 57.8380859375 29.65 57.75 29.4 57.35 29.75 57.35 29.85 57.3 30 57.25 30.1 57.2 30.25 57.1 30.3 57.2 30.4 57.4 30.45 57.55 30.4 57.65 30.2 58.25 30.5 58.4 30.65 58.45 31.3 58.4 33.25 58.1 33.45 57.75 33.65 57.45 32.9 55.6 32.6 55 32.65 54.8 32.7 54.6 33.25 54.05 33.45 53.85 33.25 53.6 33.25 53.55 32.85 52.7 32.6 52.2 32.2 51.95 31.8 51.75 31.65 51.05 31.5 50.2 31.4 50 30.6 48.6 29.3 46.7 27.85 44.55 27.1 43.45 24.95 40.3 24.35 36.35 24.15 35.25 24.65 34.6 25.1 33.95 26 33.95 26.6 33.95 27.1 34.4
L 28.05 35.2
Q 28.2 34.45 28.4 34 28.7 33.45 29.35 33.3 29.9 33.1 30.4 33.45 30.45 33.5 31.25 34.2 31.55 33.45 31.75 33.15 32.1 32.55 32.65 32.45 33.25 32.4 33.75 32.85 34.05 33.15 34.55 33.8 34.8 33.55 35 33.1 35.15 32.55 35.25 32.4 35.95 31.4 36.8 31.45 37.65 31.45 38.2 32.5 39.2 34.35 39.25 37.2 39.3 38.9 38.8 41.75 38.25 45 38.15 46.25 38.15 46.8 37.8 47.95 37.6 49 38.1 49.75 38.2 49.9 38.1 50.2 38.05 50.35 37.8 50.75 37.4 51.4 37.55 51.95 37.75 52.5 38.45 52.8 38.85 52.95 38.95 53.45 39 53.95 38.95 54.65 38.95 55 38.75 55.85 38.6 56.6 38.9 56.65 39.45 56.85 40.3 56.65 40.8 56.55 41.75 56.15 42.15 56 42.15 55.45 42.1 51.65 42.15 49.75 42.15 47.85 42.7 45.65 43.05 44.25 43.9 41.7 44.6 39.5 44.65 37.55
L 44.15 38.2 44.1 37.85
Q 44.35 37.2 44.4 36.65 44.4 36 44.15 35.4 44 35.05 44 34.75 44 34.3 44.35 33.95 44.662109375 33.6826171875 44.6 33.2
L 44.6 33.1
Q 44.5857421875 33.037890625 44.55 32.95 44.4921875 32.6748046875 44.25 32.15 44.05 31.7 43.8 30.9 43.5 29.9 43.4 29.6
M 19.7 39.1
Q 19.8 39.5 19.9 39.6 20.05 39.85 19.8 40 19.4 40.15 19.4 40.2 19.3 40.35 19.2 40.15 19.15 39.9 19.1 39.85 18.95 39.55 19 39.25 19.1 38.95 19.35 38.9 19.65 38.75 19.7 39.1
M 34.8 57.95
Q 35.01484375 57.9294921875 35.25 57.9 35.509765625 57.8615234375 35.7 57.8 35.2029296875 57.8794921875 34.8 57.95
M 35.6 54.75
L 35.45 54.6
Q 35.35 54.5 35.25 54.55 35.2 54.6 35.1 54.65
L 35 54.75
Q 35.25 55.15 34.9 55.15 34.45 55.15 34.55 55.4 35.1 56 35.05 56.95 35 57.5 35.55 57.5 36.55 57.55 36.9 57.15 37.25 56.75 37.05 55.8 37 55.6 37.05 55.3 37.1 55 37.15 54.85 37.15 54.65 37.15 54.6 37.15 54.45 36.95 54.4 36.85 54.4 36.55 54.55 36.4 54.6 36.45 54.75 36.45 54.8 36.55 55 36.7 55.5 36.5 55.8 36.3 56.05 35.8 55.9
L 35.5 55.9
Q 35.3 55.9 35.15 55.65 35.5 55.45 35.6 55.3 35.8 55.1 35.6 54.75
M 34.85 38.6
Q 34.95 40.1 35.75 41.15 36.4 38.55 34.85 35.85 34.85 36.75 34.85 38.6
M 33.15 40.1
Q 33.15 39.8 33.1 39.5 32.95 38.6 32.5 37.5 32.25 36.8 31.65 35.6 31.4 37.1 31.4 38.3 31.45 39.7 31.9 40.9 31.95 41.05 32.1 41.35 32.25 41.6 32.55 41.55 33.1 41.4 33.15 40.7 33.15 40.15 33.15 40.1
M 31.2 35.55
Q 31.25 34.9 30.9 34.45 30.7 34.25 30.05 33.8 29.7 33.55 29.4 33.6 29.1 33.7 28.9 34 28.5 34.65 28.4 35 28.2 35.6 28.55 36.15 29.05 37 29.55 38 30.35 39.6 30.65 41.4 30.75 42.15 30.15 42.45 29.9 42.55 29.65 42.4 29.5 42.35 29.25 42.05 28.35 41 28.1 39.5 27.95 38.6 28 36.6 28.2 36.85 28.25 37.1 28.3 37.25 28.3 37.5 28.45 39.15 28.55 39.6 28.75 40.8 29.35 41.6 29.55 41.9 29.6 41.95 29.8 42.1 30.05 42 30.25 41.9 30.3 41.65 30.35 41.5 30.3 41.2 29.6 38 27.25 35 26.9 34.55 26.45 34.4 25.9 34.2 25.4 34.45 24.85 34.7 24.7 35.25 24.55 35.75 24.7 36.25 25.15 38.35 25.55 39.5 26.15 41.25 27 42.55 28.05 44.2 29.8 46.7 32.35 50.3 32.7 50.85 32.75 50.95 32.95 51.2 33.1 51.4 33.05 51.6 32.95 52 33.2 52.45 33.35 52.7 33.6 53.25 33.75 53.65 34.1 53.75 34.35 53.8 34.75 53.7 35.2 53.6 35.2 53.3 35.05 52.9 35.05 52.75
L 33.2 44.6
Q 33.05 43.45 32.9 42.9 32.65 42 31.85 41.55 31.75 41.5 31.65 41.3 31.6 41.1 31.55 41 31.05 39.85 31.05 38.3 31.05 37.8 31.2 35.55
M 32.85 32.95
Q 32.25 32.95 32.05 33.5 31.9 33.8 31.7 34.5 31.65 34.7 31.7 34.9 31.75 35 31.9 35.3 32.05 35.65 32.4 36.25 32.65 36.8 32.75 37.2 32.95 37.85 33.4 39.15 33.7 40.25 33.6 41.15 33.55 41.3 33.35 41.75 33.2 42.1 33.3 42.4 33.8 44.55 35.6 52.9 35.65 53.05 35.7 53.35 35.8 53.55 36.05 53.55 36.4 53.6 36.8 53.2 37.05 53 37.1 52.7 37.15 52.65 37.15 52.1 37.2 51.8 37.05 50.95 36.95 50.25 37.05 49.95 37.4 49 37.55 47.6 37.8 45.3 37.85 45.2 38.35 42.4 38.55 41 38.9 38.6 38.8 36.8 38.7 35.15 38.55 34.45 38.25 33.2 37.5 32.35 37.1 31.8 36.6 31.85 36.1 31.85 35.8 32.4 35.2 33.5 35.1 33.9 34.85 34.8 35.45 35.6 35.75 36 35.9 36.7 36 37.1 36.1 37.9 36.15 38.15 36.3 38.7 36.4 39.2 36.4 39.5 36.45 39.9 36.5 40.8 36.45 41.5 35.8 41.55 35.15 41.65 34.9 41 34.8 40.75 34.65 39.75 34.25 37.05 34.45 35.05 34.5 34.4 33.9 33.65 33.35 32.9 32.85 32.95 Z"/>
</g>
</defs>

<g transform="matrix( 1.051727294921875, 0, 0, 1.051727294921875, -1.6,-1.9) ">
<use xlink:href="#Layer0_0_FILL"/>
</g>
</svg>
