
<svg xmlns="http://www.w3.org/2000/svg" version="1.1" xmlns:xlink="http://www.w3.org/1999/xlink" preserveAspectRatio="none" x="0px" y="0px" width="21px" height="16px" viewBox="0 0 21 16">
<defs>
<g id="Layer0_0_FILL">
<path fill="#000000" stroke="none" d="
M 15.4 2.5
Q 15.8 2.7 15.85 2.8 16.15 3.2 15.45 4 16.1 4.2 16.35 5.05 15.25 5.5 14.75 5.85
L 14.45 5.85 14.2 6.05
Q 14.25 5.95 14.15 5.75
L 12.05 6.6 11.55 6.6 11.65 6.4
Q 11.7 6.35 11.85 6.3
L 11.7 6.15
Q 11.6 6.05 11.7 5.95
L 11.9 5.9 12.05 5.8
Q 12.35 5.5 12.3 5.45
L 12 5.35 11.7 5.3
Q 11.6 4.9 11.05 5.05
L 10.3 5.1 10.05 5.25 9.9 5.45 9.6 5.5
Q 9.3 5.6 9.3 5.65 9.3 5.7484375 9.65 5.75 9.3509765625 5.7546875 9.4 6 9.45 6.25 9.65 6.25
L 9.7 6.5 9.65 6.6 9 6.35
Q 8.9 6.35 8.7 6.25
L 8.4 6.15 8.05 6.1 7.55 6.15 6.7 6.1
Q 6.15 6.3 5.9 6.3
L 5.6 6.25
Q 5.25 6.15 5.2 6.2 5.2 6.1 5.1 6.15 5.05 6.2 5 6.2 4.95 6.05 4.7 6.05 4.35 5.9 4.1 6.05 4.2 5.85 3.85 5.75
L 3.5 5.7 3.15 5.75 2.45 5.55 2.1 5.55
Q 1.65 5.45 1.45 5.75
L 1.4 5.9
Q 1.3 6.15 1.3 6.9
L 1.35 7.2 1.45 8.45 1.65 8.7 1.9 9.3
Q 2.05 9.55 2.6 10 2.8 10.2 3.25 10.4
L 3.2 10.4 3 10.5
Q 2.6 10.65 2.4 10.9
L 2.65 11.4 2.85 11.6
Q 3.05 11.75 3.05 11.9
L 2.85 11.95 2.7 11.95 2.25 12
Q 2.05 12 1.8 11.85
L 1.6 11.75
Q 1.35 11.65 1.3 11.65 1.2 11.65 1 11.85
L 0.95 12
Q 0.95 12.05 1.05 12.15 1.15 12.25 0.85 12.5 0.65 12.85 0.65 13.2
L 0.7 13.35
Q 0.75 13.4 0.9 13.3 1 13.2 1 13.1
L 1.15 12.85 1.45 12.55 1.55 12.4
Q 1.55 12.35 1.75 12.35
L 2.85 12.7 3.2 12.65 3.25 12.7 3.35 12.85 3.6 12.95 3.05 13.3 2.8 13.4
Q 2.65 13.5 2.45 13.45 2.25 13.4 2.2 13.45 2 13.65 2 13.75 2.1 13.85 2.05 13.9
L 2 14.2
Q 2 14.4 1.85 14.75 1.8 15.1 1.9 15.25
L 1.95 15.25
Q 2.1 15.25 2.2 14.95
L 2.45 14.6
Q 2.55 14.2 2.85 13.95
L 4 13.45 4.05 13.45 4.05 13.65 4.15 13.8
Q 4.25 13.9 4.25 14.15
L 4.85 14.75
Q 4.95 14.7 5.05 14.5
L 5.25 14.25 6.6 12.9 7 12.4 7.8 10.85 7.85 10.7 8 10.45
Q 7.95 10.7 8.15 11.05
L 8.3 11.35
Q 8.4 11.5 8.3 11.65
L 8.25 12.15 8.3 12.3 8.45 12.2 8.65 11.7 9 10.45 9.15 10.15 9.45 9.2 9.85 8.7
Q 10.2 8.35 11.3 7.9
L 11.8 7.65 12.3 7.5
Q 12.6 7.4 13.05 7.25
L 13.3 7.1 13.55 7.05 13.8 6.95
Q 14.2 6.65 14.3 6.65
L 14.55 6.65
Q 14.65 6.6 14.85 6.55
L 15.1 6.25
Q 15.15 6.15 15 6.05
L 15.15 6.1
Q 15.2 6 15.1 6 15.6 5.65 16.45 5.35
L 16.6 5.55
Q 16.7 5.9 16.55 6.35
L 17 6.3
Q 17.55 6.3 17.85 6.6 18.05 6.8 18.05 7.3 18.05 7.85 17.95 8
L 18 8
Q 18.7 7.75 19 8 19.5 8.45 19.3 9.45 20 8.25 20.1 5.7 20.2 3.8 20.05 3.45
L 20 3.35 20.35 3 19.95 3.05 19.85 3.1 19.8 3
Q 19.6 2.65 17.5 1.75 16.7 1.4 15.6 1.1 14.95 0.9 14.15 0.75 14.25 0.85 14.6 1.1 14.65 1.15 14.75 1.2 15.2 1.55 15.05 1.9
L 14.9 2.3
Q 15.05 2.3 15.4 2.5
M 4.85 6.35
Q 4.65 6.8 4.95 6.85
L 4.7 7.25 4.7 7.15
Q 4.65 7.05 4.4 6.35 4.65 6.25 4.85 6.35
M 4.7 9.85
L 4 10.05 3.65 10.2 4.8 8.7 5.15 8.1
Q 5.25 8 5.1 7.75 4.95 7.6 4.95 7.5 5.1 7.3 5.15 7.15
L 5.2 6.8 5.2 6.65 5.25 6.7
Q 5.3 6.75 5.55 6.75
L 5.75 6.85 6.55 6.75 7.4 6.95 7.35 7 7.15 7.05
Q 7.15 7.2 7.1 7.2 6.95 7.4 6.85 7.4 6.55 7.5 6.45 7.65 6.25 7.85 6.15 8
L 6 8.25
Q 5.8 8.45 5.8 8.6
L 5.75 8.85
Q 5.8 8.95 5.7 9.25 5.6 9.5 5.45 9.6 5.25 9.8 5.1 9.8
L 4.7 9.85 Z"/>
</g>
</defs>

<g transform="matrix( 1, 0, 0, 1, 0,0) ">
<use xlink:href="#Layer0_0_FILL"/>
</g>
</svg>
