
<svg xmlns="http://www.w3.org/2000/svg" version="1.1" xmlns:xlink="http://www.w3.org/1999/xlink" preserveAspectRatio="none" x="0px" y="0px" width="110px" height="30px" viewBox="0 0 110 30">
<defs>
<g id="Layer0_0_FILL">
<path fill="#000000" stroke="none" d="
M 27.9 18.4
L 29.1 18.4
Q 32.15 18.4 35.1 19.55 36.75 20.3 36.75 21.55 36.75 21.95 36.65 22.1 37.7 22.1 37.95 21.55 39.15 22.95 39.15 24.4 39.15 25.4 38.6 26.2 38 26.95 37.1 26.95 36.5 26.95 36.1 26.55 35.7 26.15 35.7 25.65 35.7 25.15 35.95 24.8 36.25 24.5 36.6 24.5 37 24.5 37 24.85 37 25 36.85 25 36.95 25.5 37.35 25.4 37.75 25.4 37.75 24.85 37.75 24.5 37.5 24.25 37.2 23.95 36.75 23.95 36.2 23.95 35.65 24.4 35.2 24.85 35.2 25.65 35.2 26.5 35.7 27 36.25 27.4 37.1 27.4 38.1 27.4 38.9 26.7 39.7 25.9 39.7 24.5 39.7 22.15 37.95 20.65 36.3 19.2 33.45 18.4
L 37.95 18.4 37.95 17.9 27.75 17.9
Q 26.7 18.95 25.15 18.95 23.45 18.95 22.45 17.9
L 13.75 17.9
Q 12.6 17.9 11.9 18.15 11 18.4 11.3 19 10.85 19.45 10.85 20.25 10.85 20.9 11.25 21.35 11.65 21.85 12.35 21.85 12.8 21.85 13.2 21.5 13.6 21.1 13.6 20.6 13.6 20.3 13.35 19.95 13.05 19.65 12.75 19.65 12.05 19.65 12.05 20.15 12.05 20.5 12.35 20.5
L 12.4 20.5
Q 12.35 20.45 12.45 20.3
L 12.75 20.15
Q 13 20.15 13 20.4 13.05 20.65 12.9 20.95 12.65 21.2 12.25 21.2 11.9 21.2 11.65 20.95 11.35 20.65 11.35 20.25 11.35 19.55 12 19 12.7 18.4 14.05 18.4
L 22.3 18.4
Q 23.55 19.45 25.15 19.45 26.6 19.45 27.9 18.4
M 36.65 5.75
Q 36.25 5.75 36 5.5 35.7 5.15 35.7 4.65 35.7 4.15 36.1 3.75 36.45 3.35 37.1 3.35 38 3.35 38.6 4.1 39.15 4.8 39.15 5.85 39.15 7.4 37.95 8.7 37.65 8.2 36.95 8.2
L 36.65 8.2
Q 37.05 9.9 35.1 10.7 32.35 11.85 29.1 11.85
L 27.9 11.85
Q 26.6 10.8 25.15 10.8 23.55 10.8 22.3 11.85
L 14.05 11.85
Q 12.7 11.85 12 11.3 11.35 10.65 11.35 10 11.35 9.6 11.65 9.3 11.9 9.05 12.25 9.05 12.7 9.05 12.9 9.25 13.05 9.4 13.05 9.65 13.05 10.1 12.75 10.1
L 12.45 10
Q 12.3 9.85 12.4 9.75 12.05 9.65 12.05 10.1 12.05 10.65 12.7 10.65 12.95 10.65 13.3 10.4 13.6 10.2 13.6 9.65 13.6 9.2 13.2 8.8 12.9 8.45 12.35 8.45 11.6 8.45 11.25 8.95 10.85 9.35 10.85 10 10.85 10.8 11.3 11.25 11 11.85 11.9 12.1 12.75 12.4 13.75 12.4
L 22.45 12.4
Q 23.45 11.35 25.15 11.35 26.7 11.35 27.75 12.4
L 37.95 12.4 37.95 11.85 33.45 11.85
Q 36.15 11.2 37.95 9.65 39.7 8.05 39.7 5.8 39.7 4.5 38.95 3.65 38.2 2.8 37.1 2.8 36.25 2.8 35.7 3.35 35.2 3.85 35.2 4.65 35.2 5.5 35.65 5.85 36.2 6.3 36.75 6.3 37.15 6.3 37.5 6.05 37.75 5.75 37.75 5.45 37.75 4.9 37.3 4.9 36.85 4.9 36.85 5.25 37 5.25 37 5.45 37 5.7 36.65 5.75
M 81.65 18.4
L 82.8 18.4
Q 83.95 19.45 85.6 19.45 87.15 19.45 88.35 18.4
L 96.7 18.4
Q 97.95 18.4 98.7 19 99.4 19.55 99.4 20.15 99.4 21.2 98.4 21.2 98.1 21.2 97.85 21.05 97.65 20.85 97.65 20.6 97.65 20.4 97.8 20.25
L 98 20.15
Q 98.35 20.15 98.35 20.5
L 98.4 20.5
Q 98.55 20.5 98.6 20.4 98.7 20.3 98.7 20.15 98.7 19.65 98 19.65 97.1 19.65 97.1 20.6 97.1 21.1 97.5 21.5 97.95 21.85 98.4 21.85 99.05 21.85 99.45 21.35 99.9 20.85 99.9 20.25 99.9 19.5 99.4 19
L 99.45 18.65
Q 99.45 18.3 98.55 18.05
L 96.9 17.9 88.2 17.9
Q 87.15 18.95 85.6 18.95 84.05 18.95 82.9 17.9
L 72.7 17.9 72.7 18.4 77.2 18.4
Q 74.45 19.15 72.75 20.65 71.05 22.15 71.05 24.5 71.05 25.95 71.8 26.7 72.5 27.4 73.55 27.4 74.4 27.4 75 27 75.55 26.5 75.55 25.65 75.55 24.85 75.1 24.4 74.6 23.95 74 23.95 73.55 23.95 73.25 24.25 72.95 24.5 72.95 24.85 72.95 25.35 73.45 25.35 73.85 25.35 73.9 25 73.75 25 73.75 24.85 73.75 24.55 74.1 24.55 74.4 24.45 74.75 24.8 75.05 25.1 75.05 25.65 75.05 26.25 74.6 26.6 74.1 26.95 73.55 26.95 72.75 26.95 72.2 26.35 71.6 25.7 71.6 24.5 71.6 22.8 72.7 21.55 72.95 22.1 73.75 22.1
L 74 22.1
Q 73.65 20.45 75.55 19.55 78.4 18.4 81.65 18.4
M 98.4 8.45
Q 97.85 8.45 97.5 8.8 97.1 9.2 97.1 9.65 97.1 10.65 98 10.65 98.7 10.65 98.7 10.1
L 98.55 9.8
Q 98.45 9.7 98.35 9.75 98.35 9.9 98.15 10 98 10.2 97.8 10 97.55 9.85 97.7 9.45 97.95 9.05 98.4 9.05 98.85 9.05 99.1 9.3 99.4 9.6 99.4 10 99.4 10.7 98.7 11.3 97.9 11.85 96.7 11.85
L 88.35 11.85
Q 87.15 10.8 85.6 10.8 83.95 10.8 82.8 11.85
L 81.65 11.85
Q 78.25 11.85 75.55 10.7 74 10.05 74 8.7
L 74 8.2
Q 72.85 8.2 72.7 8.7 71.6 7.55 71.6 5.85 71.6 4.8 72.15 4.1 72.7 3.35 73.55 3.35 74.3 3.35 74.65 3.75 75.05 4.15 75.05 4.65 75.05 5.15 74.75 5.5 74.45 5.8 74.1 5.8 73.75 5.8 73.75 5.45 73.75 5.25 73.9 5.25 73.85 4.85 73.4 4.85 72.95 4.95 72.95 5.45 72.95 5.75 73.25 6.05 73.6 6.3 74 6.3 74.6 6.3 75.1 5.85 75.55 5.5 75.55 4.65 75.55 3.7 75 3.3 74.45 2.8 73.55 2.8 72.5 2.8 71.8 3.55 71.05 4.3 71.05 5.8 71.05 8.05 72.75 9.65 74.6 11.2 77.2 11.85
L 72.7 11.85 72.7 12.4 82.9 12.4
Q 84.05 11.35 85.6 11.35 87.15 11.35 88.2 12.4
L 96.9 12.4
Q 98 12.4 98.8 12.1 99.65 11.85 99.4 11.25 99.9 10.75 99.9 10.1 99.9 9.35 99.45 8.9 99.1 8.45 98.4 8.45
M 103.45 11
Q 103.7 11.5 103.7 11.85 103.7 14 99.65 14.8
L 87.5 14.8
Q 87.35 14.15 86.85 13.65 86.35 13.2 85.6 13.2 84.95 13.2 84.4 13.65 83.85 14.15 83.7 14.8
L 70.3 14.8
Q 70.15 10.8 68.15 7.5 66.05 4.1 62.7 2.15 59.4 0.15 55.35 0.15 51.35 0.15 47.95 2.15 44.5 4.15 42.55 7.5 40.45 10.85 40.45 14.8
L 26.95 14.8
Q 26.8 14.15 26.25 13.65 25.75 13.2 25.15 13.2 24.45 13.2 23.9 13.65 23.35 14.15 23.2 14.8
L 11 14.8
Q 6.95 14 6.95 11.85 6.95 11.45 7.25 11 7.55 10.5 7.95 10.45 7.4 10.2 6.95 10.2 5.8 10.2 5.05 11.1 4.3 12.05 4.6 13.3 2.5 13.3 0.55 15.15 2.5 16.95 4.6 16.95 4.3 18.25 5.05 19.15 5.8 20.05 6.95 20.05 7.55 20.05 7.95 19.8 7.55 19.7 7.25 19.3 6.95 18.85 6.95 18.4 6.95 16.25 11 15.5
L 23.2 15.5
Q 23.35 16.2 23.9 16.6 24.45 17.05 25.15 17.05 25.75 17.05 26.25 16.6 26.8 16.2 26.95 15.5
L 40.45 15.5
Q 40.6 19.5 42.6 22.8 44.65 26.2 48 28.05 51.35 30.05 55.35 30.05 59.4 30.05 62.7 28.05 66.1 26.2 68.15 22.8 70.15 19.5 70.3 15.5
L 83.7 15.5
Q 83.85 16.2 84.4 16.6 84.95 17.05 85.6 17.05 86.35 17.05 86.85 16.6 87.35 16.2 87.5 15.5
L 99.65 15.5
Q 103.7 16.25 103.7 18.4 103.7 18.8 103.45 19.3 103.15 19.75 102.75 19.8 103.05 20.05 103.8 20.05 104.9 20.05 105.65 19.1 106.35 18.1 106.05 16.95 108.3 16.95 110.15 15.15 108.3 13.3 106.05 13.3 106.35 12.1 105.65 11.1 104.9 10.2 103.8 10.2 103.35 10.2 102.75 10.45 103.15 10.5 103.45 11
M 62.55 2.6
Q 65.85 4.55 67.8 7.85 69.75 11.15 69.75 15.05 69.75 18.95 67.8 22.3 65.8 25.7 62.55 27.55 59.25 29.5 55.35 29.5 51.55 29.5 48.15 27.55 44.95 25.7 42.9 22.3 41 18.95 41 15.05 41 11.15 42.9 7.85 44.9 4.55 48.15 2.6 51.6 0.65 55.35 0.65 59.15 0.65 62.55 2.6
M 64.7 10.4
L 65.05 10.05 64.65 10.1 64.55 10.15 64.5 10.05
Q 64.3 9.7 62.2 8.8 60.95 8.25 58.85 7.8 58.95 7.9 59.45 8.25 59.9 8.6 59.75 8.95
L 59.6 9.35
Q 59.75 9.35 60.1 9.55 60.5 9.75 60.55 9.85 60.85 10.25 60.15 11.05 60.8 11.25 61.05 12.1 59.95 12.55 59.45 12.9
L 59.15 12.9 58.9 13.1
Q 58.95 13 58.85 12.8
L 56.75 13.65 56.25 13.65 56.35 13.45
Q 56.4 13.4 56.55 13.35
L 56.4 13.2
Q 56.3 13.1 56.4 13
L 56.6 12.95 56.75 12.85
Q 57.05 12.55 57 12.5
L 56.7 12.4 56.4 12.35
Q 56.3 11.95 55.75 12.1
L 55 12.15 54.75 12.3 54.6 12.5 54.3 12.55
Q 54 12.65 54 12.7 54 12.7984375 54.35 12.8 54.0509765625 12.8046875 54.1 13.05 54.15 13.3 54.35 13.3
L 54.4 13.55 54.35 13.65 53.7 13.4
Q 53.6 13.4 53.4 13.3
L 53.1 13.2 52.75 13.15 52.25 13.2 51.4 13.15
Q 50.85 13.35 50.6 13.35
L 50.3 13.3
Q 49.95 13.2 49.9 13.25 49.9 13.15 49.8 13.2 49.75 13.25 49.7 13.25 49.65 13.1 49.4 13.1 49.05 12.95 48.8 13.1 48.9 12.9 48.55 12.8
L 48.2 12.75 47.85 12.8 47.15 12.6 46.8 12.6
Q 46.35 12.5 46.15 12.8
L 46.1 12.95
Q 46 13.2 46 13.95
L 46.05 14.25 46.15 15.5 46.35 15.75 46.6 16.35
Q 46.75 16.6 47.3 17.05 47.5 17.25 47.95 17.45
L 47.9 17.45 47.7 17.55
Q 47.3 17.7 47.1 17.95
L 47.35 18.45 47.55 18.65
Q 47.75 18.8 47.75 18.95
L 47.55 19 47.4 19 46.95 19.05
Q 46.75 19.05 46.5 18.9
L 46.3 18.8
Q 46.05 18.7 46 18.7 45.9 18.7 45.7 18.9
L 45.65 19.05
Q 45.65 19.1 45.75 19.2 45.85 19.3 45.55 19.55 45.35 19.9 45.35 20.25
L 45.4 20.4
Q 45.45 20.45 45.6 20.35 45.7 20.25 45.7 20.15
L 45.85 19.9 46.15 19.6 46.25 19.45
Q 46.25 19.4 46.45 19.4
L 47.55 19.75 47.9 19.7 47.95 19.75 48.05 19.9 48.3 20 47.75 20.35 47.5 20.45
Q 47.35 20.55 47.15 20.5 46.95 20.45 46.9 20.5 46.7 20.7 46.7 20.8 46.8 20.9 46.75 20.95
L 46.7 21.25
Q 46.7 21.45 46.55 21.8 46.5 22.15 46.6 22.3
L 46.65 22.3
Q 46.8 22.3 46.9 22
L 47.15 21.65
Q 47.25 21.25 47.55 21
L 48.7 20.5 48.75 20.5 48.75 20.7 48.85 20.85
Q 48.95 20.95 48.95 21.2
L 49.55 21.8
Q 49.65 21.75 49.75 21.55
L 49.95 21.3 51.3 19.95 51.7 19.45 52.5 17.9 52.55 17.75 52.7 17.5
Q 52.65 17.75 52.85 18.1
L 53 18.4
Q 53.1 18.55 53 18.7
L 52.95 19.2 53 19.35 53.15 19.25 53.35 18.75 53.7 17.5 53.85 17.2 54.15 16.25 54.55 15.75
Q 54.9 15.4 56 14.95
L 56.5 14.7 57 14.55
Q 57.3 14.45 57.75 14.3
L 58 14.15 58.25 14.1 58.5 14
Q 58.9 13.7 59 13.7
L 59.25 13.7
Q 59.35 13.65 59.55 13.6
L 59.8 13.3
Q 59.85 13.2 59.7 13.1
L 59.85 13.15
Q 59.9 13.05 59.8 13.05 60.3 12.7 61.15 12.4
L 61.3 12.6
Q 61.4 12.95 61.25 13.4
L 61.7 13.35
Q 62.25 13.35 62.55 13.65 62.75 13.85 62.75 14.35 62.75 14.9 62.65 15.05
L 62.7 15.05
Q 63.4 14.8 63.7 15.05 64.2 15.5 64 16.5 64.7 15.3 64.8 12.75 64.9 10.85 64.75 10.5
L 64.7 10.4
M 49.9 13.7
L 49.95 13.75
Q 50 13.8 50.25 13.8
L 50.45 13.9 51.25 13.8 52.1 14 52.05 14.05 51.85 14.1
Q 51.85 14.25 51.8 14.25 51.65 14.45 51.55 14.45 51.25 14.55 51.15 14.7 50.95 14.9 50.85 15.05
L 50.7 15.3
Q 50.5 15.5 50.5 15.65
L 50.45 15.9
Q 50.5 16 50.4 16.3 50.3 16.55 50.15 16.65 49.95 16.85 49.8 16.85
L 49.4 16.9 48.7 17.1 48.35 17.25 49.5 15.75 49.85 15.15
Q 49.95 15.05 49.8 14.8 49.65 14.65 49.65 14.55 49.8 14.35 49.85 14.2
L 49.9 13.85 49.9 13.7
M 49.55 13.4
Q 49.35 13.85 49.65 13.9
L 49.4 14.3 49.4 14.2
Q 49.35 14.1 49.1 13.4 49.35 13.3 49.55 13.4 Z"/>
</g>
</defs>

<g transform="matrix( 1, 0, 0, 1, 0,0) ">
<use xlink:href="#Layer0_0_FILL"/>
</g>
</svg>
