
<svg xmlns="http://www.w3.org/2000/svg" version="1.1" xmlns:xlink="http://www.w3.org/1999/xlink" preserveAspectRatio="none" x="0px" y="0px" width="36px" height="36px" viewBox="0 0 36 36">
<defs>
<g id="Layer0_0_FILL">
<path fill="#A7A9AC" stroke="none" d="
M 18.4 8.9
L 18.4 1.45
Q 18.2009765625 1.45 18 1.45 11.15 1.45 6.25 6.25 6.25 6.3 6.2 6.3
L 11.5 11.6
Q 11.55 11.6 11.55 11.55 14.25 8.9 18 8.9 18.2 8.9 18.4 8.9 Z"/>

<path fill="#FFFFFF" stroke="none" d="
M 24.85 11.95
L 30.15 6.65
Q 29.9 6.45 29.7 6.25 25.03984375 1.58984375 18.4 1.45
L 18.4 8.9
Q 22 9.05 24.45 11.55 24.65 11.75 24.85 11.95
M 34.6 18
Q 34.6 11.45 30.15 6.65
L 24.85 11.95
Q 27.2 14.55 27.2 18 27.2 21.8 24.45 24.4 21.85 27.2 18 27.2 14.55 27.2 11.95 24.85
L 6.7 30.1
Q 11.5 34.6 18 34.6 24.9 34.6 29.7 29.6 34.6 24.85 34.6 18 Z"/>

<path fill="#E6E7E8" stroke="none" d="
M 8.9 18.15
L 1.45 18.15
Q 1.5 24.9 6.25 29.6 6.5 29.85 6.7 30.1
L 11.95 24.85
Q 11.75 24.6 11.55 24.4 8.95 21.85 8.9 18.15 Z"/>

<path fill="#D1D3D4" stroke="none" d="
M 8.9 18.15
Q 8.9 18.1 8.9 18 8.9 14.3 11.5 11.6
L 6.2 6.3
Q 1.45 11.2 1.45 18 1.45 18.1 1.45 18.15
L 8.9 18.15 Z"/>
</g>

<path id="Layer0_0_1_STROKES" stroke="#000000" stroke-width="1" stroke-linejoin="round" stroke-linecap="round" fill="none" d="
M 18.4 1.45
Q 25.03984375 1.58984375 29.7 6.25 29.9 6.45 30.15 6.65 34.6 11.45 34.6 18 34.6 24.85 29.7 29.6 24.9 34.6 18 34.6 11.5 34.6 6.7 30.1 6.5 29.85 6.25 29.6 1.5 24.9 1.45 18.15 1.45 18.1 1.45 18 1.45 11.2 6.2 6.3 6.25 6.3 6.25 6.25 11.15 1.45 18 1.45 18.2009765625 1.45 18.4 1.45
L 18.4 8.9
Q 22 9.05 24.45 11.55 24.65 11.75 24.85 11.95
L 30.15 6.65
M 24.85 11.95
Q 27.2 14.55 27.2 18 27.2 21.8 24.45 24.4 21.85 27.2 18 27.2 14.55 27.2 11.95 24.85
L 6.7 30.1
M 11.5 11.6
Q 11.55 11.6 11.55 11.55 14.25 8.9 18 8.9 18.2 8.9 18.4 8.9
M 8.9 18.15
Q 8.9 18.1 8.9 18 8.9 14.3 11.5 11.6
L 6.2 6.3
M 1.45 18.15
L 8.9 18.15
Q 8.95 21.85 11.55 24.4 11.75 24.6 11.95 24.85"/>
</defs>

<g transform="matrix( 1, 0, 0, 1, 0,0) ">
<use xlink:href="#Layer0_0_FILL"/>

<use xlink:href="#Layer0_0_1_STROKES"/>
</g>
</svg>
