
<svg xmlns="http://www.w3.org/2000/svg" version="1.1" xmlns:xlink="http://www.w3.org/1999/xlink" preserveAspectRatio="none" x="0px" y="0px" width="57px" height="57px" viewBox="0 0 57 57">
<defs>
<g id="Symbol_1_0_Layer0_0_MEMBER_0_FILL">
<path fill="#E7E8E9" stroke="none" d="
M 372.05 296.3
L 332 296.3
Q 332.15 313.6 338.65 329.5 344.95 344.85 356.4 357
L 385.6 329.6
Q 379.3 322.9 375.8 314.5 372.2 305.8 372.05 296.3 Z"/>
</g>

<g id="Symbol_1_0_Layer0_0_MEMBER_1_FILL">
<path fill="#D2D4D5" stroke="none" d="
M 339.4 259.85
Q 332.45 275.85 332.05 293.3
L 372.1 293.3
Q 372.5 283.9 376.3 275.4 380 267.1 386.4 260.6
L 358.05 232.4
Q 346.15 244.4 339.4 259.85 Z"/>
</g>

<g id="Symbol_1_0_Layer0_0_MEMBER_2_FILL">
<path fill="#AAACAE" stroke="none" d="
M 420.2 245.85
L 420.3 205.8
Q 403.15 206.1 387.45 212.6 372.2 218.95 360.2 230.3
L 388.6 258.5
Q 395.05 252.75 403 249.5 411.25 246.15 420.2 245.85 Z"/>
</g>

<g id="Symbol_1_0_Layer0_0_MEMBER_3_FILL">
<path fill="#FFFFFF" stroke="none" d="
M 467.85 277.1
Q 471.4 285.9 471.4 295.5 471.4 316.1 456.85 330.65 442.3 345.2 421.7 345.2 412 345.2 403.1 341.6 394.5 338.1 387.7 331.7
L 358.5 359.15
Q 370.95 371.45 386.95 378.25 403.6 385.25 421.7 385.25 439.95 385.25 456.6 378.2 472.7 371.35 485.15 358.95 497.55 346.5 504.4 330.4 511.45 313.75 511.45 295.5 511.45 277.8 504.8 261.55 498.35 245.85 486.55 233.55
L 458.15 261.8
Q 464.45 268.55 467.85 277.1 Z"/>
</g>

<g id="Symbol_1_0_Layer0_0_MEMBER_4_FILL">
<path fill="#97999B" stroke="none" d="
M 484.4 231.4
Q 472.35 219.55 456.85 212.95 440.8 206.1 423.3 205.8
L 423.2 245.85
Q 432.6 246.15 441.15 249.8 449.5 253.35 456.05 259.65
L 484.4 231.4 Z"/>
</g>

<g id="Symbol_1_0_Layer0_0_MEMBER_5_FILL">
<path fill="#000000" stroke="none" d="
M 95.55 30.35
Q 91.8 21.45 84.9 14.55 78 7.65 69.1 3.9 59.85 0 49.75 0 39.65 0 30.45 3.9 21.5 7.65 14.6 14.55 7.7 21.45 3.95 30.35 0 39.6 0 49.7 0 59.8 3.95 69.05 7.7 77.95 14.6 84.85 21.5 91.75 30.45 95.55 39.65 99.45 49.75 99.45 59.85 99.45 69.1 95.55 78.05 91.75 84.9 84.85 91.8 77.95 95.55 69.05 99.5 59.8 99.5 49.7 99.5 39.6 95.55 30.35
M 84.35 15.1
Q 91.1 21.9 94.85 30.65 98.7 39.75 98.7 49.7 98.7 59.65 94.85 68.75 91.1 77.55 84.35 84.3 77.6 91.1 68.8 94.8 59.7 98.65 49.75 98.65 39.8 98.65 30.75 94.8 21.95 91.1 15.15 84.3 8.4 77.55 4.65 68.75 0.8 59.65 0.8 49.7 0.8 39.75 4.65 30.65 8.4 21.9 15.15 15.1 21.95 8.35 30.75 4.6 39.8 0.8 49.75 0.8 59.7 0.8 68.8 4.6 77.6 8.35 84.35 15.1 Z"/>
</g>

<g id="Symbol_1_0_Layer0_0_MEMBER_6_FILL">
<path fill="#000000" stroke="none" d="
M 94.85 30.65
Q 91.1 21.9 84.35 15.1 77.6 8.35 68.8 4.6 59.7 0.8 49.75 0.8 39.8 0.8 30.75 4.6 21.95 8.35 15.15 15.1 8.4 21.9 4.65 30.65 0.8 39.75 0.8 49.7 0.8 59.65 4.65 68.75 8.4 77.55 15.15 84.3 21.95 91.1 30.75 94.8 39.8 98.65 49.75 98.65 59.7 98.65 68.8 94.8 77.6 91.1 84.35 84.3 91.1 77.55 94.85 68.75 98.7 59.65 98.7 49.7 98.7 39.75 94.85 30.65
M 84.5 16.45
Q 90.85 23.05 94.3 31.5 97.9 40.2 97.9 49.7 97.9 59.5 94.1 68.4 90.4 77.05 83.75 83.75 77.1 90.4 68.45 94.05 59.55 97.85 49.75 97.85 40.05 97.85 31.1 94.1 22.5 90.45 15.85 83.85
L 31.5 69.1
Q 35.15 72.55 39.75 74.45 44.55 76.35 49.75 76.35 60.8 76.35 68.6 68.55 76.4 60.75 76.4 49.7 76.4 44.55 74.5 39.85 72.65 35.25 69.3 31.6
L 84.5 16.45
M 49 1.6
L 48.95 23.05
Q 44.15 23.25 39.7 25.05 35.45 26.75 32 29.85
L 16.75 14.75
Q 23.2 8.65 31.35 5.25 39.8 1.75 49 1.6
M 50.55 23.05
L 50.6 1.6
Q 60 1.75 68.6 5.4 76.9 8.95 83.35 15.3
L 68.15 30.45
Q 64.65 27.1 60.15 25.2 55.6 23.25 50.55 23.05
M 49.75 24.7
Q 60.1 24.7 67.45 32 74.8 39.35 74.8 49.7 74.8 60.05 67.45 67.4 60.1 74.75 49.75 74.75 39.4 74.75 32.05 67.4 24.7 60.05 24.7 49.7 24.7 39.35 32.05 32.05 39.4 24.7 49.75 24.7
M 1.65 48.5
Q 1.85 39.15 5.6 30.6 9.2 22.3 15.6 15.85
L 30.8 31
Q 27.35 34.45 25.4 38.9 23.35 43.5 23.15 48.5
L 1.65 48.5
M 25.1 59.9
Q 27 64.4 30.4 68
L 14.7 82.7
Q 8.55 76.15 5.2 67.95 1.7 59.4 1.65 50.15
L 23.1 50.15
Q 23.2 55.2 25.1 59.9 Z"/>
</g>

<g id="Symbol_1_0_Layer0_1_FILL">
<path fill="#000000" stroke="none" d="
M 89.15 41.15
L 87.35 41.5 83.7 40.6 84 42.05 86.35 42.4 84.3 43.6 84.6 45.05 87.65 42.85 89.4 42.5 89.15 41.15
M 89.95 53.05
L 90 51.7 88.25 51.65 88.3 51.1 90.05 50.25 90.1 48.7 88.05 49.8
Q 87.6 48.9 86.55 48.85 84.9 48.85 84.8 50.9
L 84.75 52.9 89.95 53.05
M 87.2 51.1
L 87.15 51.6 85.85 51.55 85.9 51.05
Q 85.9 50.2 86.5 50.25 87.2 50.25 87.2 51.1
M 83.3 59.6
Q 83 60.65 83.5 61.5 83.95 62.35 85.2 62.7 86.4 63.05 87.3 62.65 88.2 62.2 88.5 61.15 88.8 60.1 88.3 59.25 87.8 58.4 86.55 58.05 85.35 57.7 84.45 58.1 83.6 58.55 83.3 59.6
M 85.6 61.35
Q 84.15 60.9 84.45 59.95 84.75 59 86.15 59.4 86.85 59.6 87.2 60 87.5 60.35 87.35 60.8 87.05 61.75 85.6 61.35
M 84.95 69.35
L 81.45 67.3 82.15 66.1 81.1 65.5 79.05 69.1 80.05 69.7 80.75 68.5 84.25 70.55 84.95 69.35
M 77.05 72.7
Q 76.1 72.75 75.4 73.5 74.8 74.15 74.75 74.85 74.75 75.6 75.2 76.05 75.95 76.75 77 76.3
L 77.65 76
Q 78.05 75.8 78.15 75.75 78.4 75.7 78.5 75.8 78.75 76.05 78.4 76.5 78 76.9 77.2 77.05
L 77.3 78.25
Q 78.4 78.2 79.2 77.3 79.85 76.65 79.9 75.9 79.9 75.2 79.4 74.7 78.6 74 77.65 74.45
L 77.05 74.75
Q 76.6 75 76.5 75 76.25 75.1 76.15 74.95 75.85 74.7 76.25 74.3 76.6 73.95 77.25 73.8
L 77.05 72.7
M 65.15 85.05
L 65.65 84.85 67.2 86.05 68.6 85.4 66.7 84.05
Q 67.3 83.3 66.9 82.3 66.15 80.8 64.25 81.65
L 62.45 82.45 64.6 87.2 65.9 86.65 65.15 85.05
M 65.15 83.85
L 64.7 84.05 64.15 82.85 64.6 82.7
Q 65.4 82.35 65.65 82.85 65.95 83.5 65.15 83.85
M 58 83.85
L 56.7 84.1 57.2 86.9
Q 57.3 87.6 57.15 87.9 57.05 88.25 56.6 88.3 56.2 88.35 55.95 88.15 55.7 87.85 55.6 87.2
L 55.15 84.4 53.75 84.6 54.2 87.25
Q 54.7 89.85 56.8 89.45 58.9 89.1 58.5 86.5
L 58 83.85
M 46.9 84.55
Q 45.8 84.5 45.15 85.15 44.4 85.8 44.3 87.05 44.2 88.3 44.8 89.1 45.4 89.85 46.5 90 47.6 90.05 48.3 89.4 49.05 88.7 49.15 87.45 49.25 86.15 48.65 85.4 48 84.65 46.9 84.55
M 46.85 85.75
Q 47.3 85.8 47.55 86.2 47.8 86.65 47.75 87.35 47.7 88 47.4 88.45 47.05 88.85 46.6 88.75 46.1 88.75 45.9 88.3 45.65 87.9 45.7 87.15 45.85 85.65 46.85 85.75
M 36.6 82.3
L 37.05 86.05 36.45 87.75 37.75 88.2 38.35 86.5 40.9 83.75 39.5 83.3 38.05 85.2 38 85.15 38 82.75 36.6 82.3 Z"/>
</g>
</defs>

<g transform="matrix( 0.56475830078125, 0, 0, 0.565032958984375, 0.4,0.35) ">
<g transform="matrix( 0.536376953125, 0, 0, 0.536376953125, -176.45,-108.8) ">
<use xlink:href="#Symbol_1_0_Layer0_0_MEMBER_0_FILL"/>
</g>

<g transform="matrix( 0.536376953125, 0, 0, 0.536376953125, -176.45,-108.8) ">
<use xlink:href="#Symbol_1_0_Layer0_0_MEMBER_1_FILL"/>
</g>

<g transform="matrix( 0.536376953125, 0, 0, 0.536376953125, -176.45,-108.8) ">
<use xlink:href="#Symbol_1_0_Layer0_0_MEMBER_2_FILL"/>
</g>

<g transform="matrix( 0.536376953125, 0, 0, 0.536376953125, -176.45,-108.8) ">
<use xlink:href="#Symbol_1_0_Layer0_0_MEMBER_3_FILL"/>
</g>

<g transform="matrix( 0.536376953125, 0, 0, 0.536376953125, -176.45,-108.8) ">
<use xlink:href="#Symbol_1_0_Layer0_0_MEMBER_4_FILL"/>
</g>

<g transform="matrix( 1, 0, 0, 1, 0,0) ">
<use xlink:href="#Symbol_1_0_Layer0_0_MEMBER_5_FILL"/>
</g>

<g transform="matrix( 1, 0, 0, 1, 0,0) ">
<use xlink:href="#Symbol_1_0_Layer0_0_MEMBER_6_FILL"/>
</g>

<g transform="matrix( 1, 0, 0, 1, 0,0) ">
<use xlink:href="#Symbol_1_0_Layer0_1_FILL"/>
</g>
</g>
</svg>
